<?xml version="1.0" standalone="no"?>
<!DOCTYPE svg PUBLIC "-//W3C//DTD SVG 1.1//EN" "http://www.w3.org/Graphics/SVG/1.1/DTD/svg11.dtd" >
<svg xmlns="http://www.w3.org/2000/svg" xmlns:xlink="http://www.w3.org/1999/xlink" version="1.1">
<metadata>
Created by FontForge 20170910 at Thu Jul 24 23:25:53 2014
 By Jimmy Wärting
Copyright (c) 2014 by The Indian Type Foundry. All rights reserved.
</metadata>
<defs>
<font id="KohinoorDevanagari-Light" horiz-adv-x="0" >
  <font-face 
    font-family="Kohinoor Devanagari"
    font-weight="300"
    font-stretch="normal"
    units-per-em="1000"
    panose-1="2 0 0 0 0 0 0 0 0 0"
    ascent="800"
    descent="-200"
    x-height="539"
    cap-height="701"
    bbox="-607 -511 2032 1021"
    underline-thickness="50"
    underline-position="-100"
    stemh="50"
    stemv="58"
    unicode-range="U+000D-FB02"
  />
<missing-glyph horiz-adv-x="750" 
d="M180 0v701h390v-701h-390zM234 651v-601h282v601h-282z" />
    <glyph glyph-name="fi" unicode="fi" horiz-adv-x="583" 
d="M496 539v-539h-58v489h-257v-489h-58v489h-92v50h92v66c0 99 63 158 196 158c78 0 142 -19 163 -31l-19 -49c-16 8 -70 28 -153 28c-92 0 -129 -32 -129 -102v-70h315z" />
    <glyph glyph-name="fl" unicode="fl" horiz-adv-x="625" 
d="M496 721v-605c0 -50 15 -72 59 -72c23 0 41 7 52 13v-52c-20 -9 -49 -12 -67 -12c-71 0 -102 42 -102 107v592c-31 12 -69 19 -127 19c-92 0 -130 -32 -130 -102v-70h135v-50h-135v-489h-58v489h-92v50h92v66c0 99 63 158 196 158c82 0 149 -23 177 -42z" />
    <glyph glyph-name="f_f" unicode="ff" horiz-adv-x="665" 
d="M438 539v93c0 21 3 41 10 57c-25 10 -73 22 -138 22c-92 0 -129 -32 -129 -102v-70h257zM662 752l-14 -51c-20 7 -41 10 -76 10c-54 0 -76 -26 -76 -77v-95h146v-50h-146v-489h-58v489h-257v-489h-58v489h-92v50h92v66c0 99 63 158 196 158c75 0 136 -17 160 -29
c24 19 57 30 102 30c37 0 61 -5 81 -12z" />
    <glyph glyph-name="f_f_i" unicode="ffi" horiz-adv-x="898" 
d="M438 539v66c0 31 6 58 18 80c-24 11 -67 26 -146 26c-92 0 -129 -32 -129 -102v-70h257zM811 539v-539h-58v489h-257v-489h-58v489h-257v-489h-58v489h-92v50h92v66c0 99 63 158 196 158c76 0 140 -18 172 -38c32 25 80 38 143 38c78 0 142 -19 163 -31l-19 -49
c-16 8 -70 28 -153 28c-92 0 -129 -32 -129 -102v-70h315z" />
    <glyph glyph-name="f_f_l" unicode="ffl" horiz-adv-x="940" 
d="M438 539v66c0 31 6 58 18 80c-24 11 -67 26 -146 26c-92 0 -129 -32 -129 -102v-70h257zM811 721v-605c0 -50 15 -72 59 -72c23 0 41 7 52 13v-52c-20 -9 -49 -12 -67 -12c-71 0 -102 42 -102 107v592c-31 12 -69 19 -127 19c-92 0 -130 -32 -130 -102v-70h135v-50h-135
v-489h-58v489h-257v-489h-58v489h-92v50h92v66c0 99 63 158 196 158c76 0 140 -18 172 -38c32 25 80 38 143 38c82 0 149 -23 177 -42z" />
    <glyph glyph-name=".notdef" horiz-adv-x="750" 
d="M180 0v701h390v-701h-390zM234 651v-601h282v601h-282z" />
    <glyph glyph-name="NULL" 
 />
    <glyph glyph-name="NULL" 
 />
    <glyph glyph-name="CR" unicode="&#xd;" horiz-adv-x="290" 
 />
    <glyph glyph-name="space" unicode=" " horiz-adv-x="290" 
 />
    <glyph glyph-name="uni0905" unicode="&#x905;" horiz-adv-x="714" 
d="M436 634h298v-52h-125v-582h-58v266c-17 -8 -41 -16 -73 -16c-33 0 -60 7 -83 18c2 -9 3 -19 3 -30c0 -90 -68 -163 -179 -163c-75 0 -134 35 -168 67l40 43c24 -26 66 -56 128 -56c80 0 119 50 119 109s-41 94 -114 94h-54v54h30c62 0 109 38 109 102
c0 55 -35 91 -92 91c-43 0 -71 -20 -87 -42l-44 39c26 32 71 58 133 58c97 0 151 -65 151 -144c0 -63 -42 -106 -70 -120v-4c20 -5 42 -16 59 -34c23 -15 57 -28 104 -28c41 0 69 11 88 22v256h-115v52z" />
    <glyph glyph-name="uni0906" unicode="&#x906;" horiz-adv-x="982" 
d="M1002 634v-52h-125v-582h-58v582h-210v-582h-58v266c-17 -8 -41 -16 -73 -16c-33 0 -60 7 -83 18c2 -9 3 -19 3 -30c0 -90 -68 -163 -179 -163c-75 0 -134 35 -168 67l40 43c24 -26 66 -56 128 -56c80 0 119 50 119 109s-41 94 -114 94h-54v54h30c62 0 109 38 109 102
c0 55 -35 91 -92 91c-43 0 -71 -20 -87 -42l-44 39c26 32 71 58 133 58c97 0 151 -65 151 -144c0 -63 -42 -106 -70 -120v-4c20 -5 42 -16 59 -34c23 -15 57 -28 104 -28c41 0 69 11 88 22v256h-115v52h566z" />
    <glyph glyph-name="uni0907" unicode="&#x907;" horiz-adv-x="526" 
d="M268 32v-4l154 -105l-65 -34l-152 138c-99 3 -144 49 -144 94c0 22 13 37 22 43l123 -87h39c72 0 140 32 140 101c0 37 -18 58 -31 67l-161 -32c-60 19 -119 77 -119 154c0 60 42 102 109 102h158v113h-361v52h566v-52h-148v-166h-188c-59 0 -75 -24 -75 -60
c0 -40 33 -76 70 -86l171 34c21 -12 69 -53 69 -125c0 -107 -95 -150 -177 -147z" />
    <glyph glyph-name="uni0908" unicode="&#x908;" horiz-adv-x="526" 
d="M398 416h-188c-59 0 -75 -24 -75 -60c0 -40 33 -76 70 -86l171 34c21 -12 69 -53 69 -125c0 -107 -95 -150 -177 -147v-4l154 -105l-65 -34l-152 138c-99 3 -144 49 -144 94c0 22 13 37 22 43l123 -87h39c72 0 140 32 140 101c0 37 -18 58 -31 67l-161 -32
c-60 19 -119 77 -119 154c0 60 42 102 109 102h158v113h-361v52h333v4c-30 19 -61 59 -61 113c0 80 68 129 140 129c50 0 80 -14 94 -24l-24 -50c-17 12 -42 20 -68 20c-50 0 -82 -34 -82 -78c0 -52 36 -96 86 -114h148v-52h-148v-166z" />
    <glyph glyph-name="uni0909" unicode="&#x909;" horiz-adv-x="466" 
d="M-3 147l50 34c29 -53 82 -97 154 -97c85 0 132 51 132 118c0 65 -45 109 -129 109h-64v54h55c54 0 111 31 111 105c0 79 -47 112 -139 112h-187v52h506v-52h-173v-6c18 -10 55 -43 55 -106c0 -60 -39 -108 -83 -124v-4c55 -13 110 -62 110 -142c0 -94 -71 -171 -194 -171
c-110 0 -178 70 -204 118z" />
    <glyph glyph-name="uni090A" unicode="&#x90a;" horiz-adv-x="658" 
d="M678 582h-365v-6c18 -10 55 -43 55 -106c0 -60 -39 -108 -83 -124v-4c33 -8 61 -27 80 -53c16 40 60 83 130 83c81 0 147 -59 147 -147c0 -108 -93 -160 -156 -167l-19 56c56 3 115 39 115 111c0 60 -43 93 -88 93c-58 0 -102 -43 -100 -112v-6c0 -93 -69 -171 -193 -171
c-110 0 -178 70 -204 118l50 34c29 -53 82 -97 154 -97c86 0 133 51 133 118c0 65 -46 109 -130 109h-64v54h55c54 0 111 31 111 105c0 79 -47 112 -139 112h-187v52h698v-52z" />
    <glyph glyph-name="uni090B" unicode="&#x90b;" horiz-adv-x="802" 
d="M822 582h-397v-245l67 41c75 46 87 78 87 116v10h55v-9c0 -33 -10 -63 -32 -91c15 -20 38 -32 74 -32h33l21 -47c-114 -96 -145 -126 -145 -169c0 -36 34 -65 90 -65c45 0 78 24 95 44l29 -47c-22 -20 -67 -49 -124 -49c-86 0 -149 53 -149 119c0 59 32 88 121 165v4
c-38 2 -66 18 -84 38c-13 -11 -28 -21 -45 -32l-93 -57v-276h-54v249l-266 -177l-42 41l264 163c-30 83 -90 118 -150 118c-43 0 -81 -18 -110 -45l-43 44c29 26 81 57 151 57c97 0 157 -53 191 -133h4v265h-390v52h842v-52z" />
    <glyph glyph-name="uni0960" unicode="&#x960;" horiz-adv-x="802" 
d="M822 582h-397v-245l67 41c75 46 87 78 87 116v10h55v-9c0 -33 -10 -63 -32 -91c15 -20 38 -32 74 -32h33l26 -63c-106 -39 -134 -54 -134 -92c0 -32 35 -44 75 -44c21 0 44 4 63 9l10 -47c-70 -12 -140 -26 -140 -79c0 -30 26 -47 78 -47c40 0 72 14 101 37l29 -46
c-27 -23 -73 -43 -130 -43c-84 0 -138 39 -138 100c0 44 27 71 64 82v4c-42 4 -73 30 -73 75c0 52 43 85 107 106v4c-38 2 -66 17 -83 37c-14 -11 -29 -21 -46 -32l-93 -57v-276h-54v249l-266 -177l-42 41l264 163c-30 83 -90 118 -150 118c-43 0 -81 -18 -110 -45l-43 44
c29 26 81 57 151 57c97 0 157 -53 191 -133h4v265h-390v52h842v-52z" />
    <glyph glyph-name="uni090C" unicode="&#x90c;" horiz-adv-x="711" 
d="M544 413h4v169h-568v52h751v-52h-125v-432l-68 -41c-71 -43 -86 -62 -86 -102c0 -35 35 -83 105 -83c44 0 77 13 99 32l28 -49c-28 -20 -70 -36 -119 -36c-102 0 -173 68 -173 144c0 53 28 85 73 112l85 51v178c-16 17 -52 38 -90 38c-52 0 -90 -35 -90 -107v-95h-58v94
c0 69 -35 104 -90 104c-53 0 -97 -38 -97 -121c0 -97 51 -179 151 -229l-39 -44c-91 48 -173 147 -173 274c0 112 75 175 154 175c69 0 106 -33 122 -81h4c15 54 59 85 112 85c44 0 74 -20 88 -36z" />
    <glyph glyph-name="uni0961" unicode="&#x961;" horiz-adv-x="711" 
d="M606 582v-443c-111 -34 -172 -56 -172 -93c0 -28 30 -44 96 -44c28 0 65 5 85 10l11 -46c-81 -18 -186 -20 -186 -76c0 -27 37 -48 104 -48c57 0 101 15 135 38l25 -47c-45 -27 -87 -42 -155 -42c-108 0 -164 43 -164 101c0 32 18 59 73 77c-59 6 -82 42 -82 77
c0 51 42 85 174 126v184c-16 17 -52 38 -90 38c-52 0 -90 -35 -90 -107v-95h-58v94c0 69 -35 104 -90 104c-53 0 -97 -38 -97 -121c0 -97 51 -179 151 -229l-39 -44c-91 48 -173 147 -173 274c0 112 75 175 154 175c69 0 106 -33 122 -81h4c15 54 59 85 112 85
c44 0 74 -20 88 -36h4v169h-568v52h751v-52h-125z" />
    <glyph glyph-name="uni090F" unicode="&#x90f;" horiz-adv-x="540" 
d="M368 103c46 -42 75 -73 75 -121c0 -30 -14 -59 -30 -79h-66v4c19 21 36 45 36 75c0 26 -15 46 -39 67l-254 219v314h-110v52h580v-52h-115v-176c0 -69 -31 -110 -84 -136l-45 39c42 17 71 41 71 97v176h-239v-289z" />
    <glyph glyph-name="uni0910" unicode="&#x910;" horiz-adv-x="540" 
d="M443 634h117v-52h-115v-176c0 -69 -31 -110 -84 -136l-45 39c42 17 71 41 71 97v176h-239v-289l220 -190c46 -42 75 -73 75 -121c0 -30 -14 -59 -30 -79h-66v4c19 21 36 45 36 75c0 26 -15 46 -39 67l-254 219v314h-110v52h410c-46 44 -114 117 -145 153l-81 94l67 17z
" />
    <glyph glyph-name="uni0913" unicode="&#x913;" horiz-adv-x="982" 
d="M870 634h132v-52h-125v-582h-58v582h-210v-582h-58v266c-17 -8 -41 -16 -73 -16c-33 0 -60 7 -83 18c2 -9 3 -19 3 -30c0 -90 -68 -163 -179 -163c-75 0 -134 35 -168 67l40 43c24 -26 66 -56 128 -56c80 0 119 50 119 109s-41 94 -114 94h-54v54h30c62 0 109 38 109 102
c0 55 -35 91 -92 91c-43 0 -71 -20 -87 -42l-44 39c26 32 71 58 133 58c97 0 151 -65 151 -144c0 -63 -42 -106 -70 -120v-4c20 -5 42 -16 59 -34c23 -15 57 -28 104 -28c41 0 69 11 88 22v256h-115v52h381c-46 44 -114 117 -145 153l-81 94l67 17z" />
    <glyph glyph-name="uni0914" unicode="&#x914;" horiz-adv-x="982" 
d="M882 634h120v-52h-125v-582h-58v582h-210v-582h-58v266c-17 -8 -41 -16 -73 -16c-33 0 -60 7 -83 18c2 -9 3 -19 3 -30c0 -90 -68 -163 -179 -163c-75 0 -134 35 -168 67l40 43c24 -26 66 -56 128 -56c80 0 119 50 119 109s-41 94 -114 94h-54v54h30c62 0 109 38 109 102
c0 55 -35 91 -92 91c-43 0 -71 -20 -87 -42l-44 39c26 32 71 58 133 58c97 0 151 -65 151 -144c0 -63 -42 -106 -70 -120v-4c20 -5 42 -16 59 -34c23 -15 57 -28 104 -28c41 0 69 11 88 22v256h-115v52h361c-73 55 -159 122 -286 229l58 35l277 -264l3 1l-129 247l66 17z
" />
    <glyph glyph-name="uni090D" unicode="&#x90d;" horiz-adv-x="540" 
d="M368 103c46 -42 75 -73 75 -121c0 -30 -14 -59 -30 -79h-66v4c19 21 36 45 36 75c0 26 -15 46 -39 67l-254 219v314h-110v52h580v-52h-115v-176c0 -69 -31 -110 -84 -136l-45 39c42 17 71 41 71 97v176h-239v-289zM276 754c-104 0 -163 53 -195 113l46 26
c26 -45 75 -84 149 -84s123 39 149 84l45 -26c-32 -60 -90 -113 -194 -113z" />
    <glyph glyph-name="uni0972" unicode="&#x972;" horiz-adv-x="714" 
d="M436 582v52h298v-52h-125v-582h-58v266c-17 -8 -41 -16 -73 -16c-33 0 -60 7 -83 18c2 -9 3 -19 3 -30c0 -90 -68 -163 -179 -163c-75 0 -134 35 -168 67l40 43c24 -26 66 -56 128 -56c80 0 119 50 119 109s-41 94 -114 94h-54v54h30c62 0 109 38 109 102
c0 55 -35 91 -92 91c-43 0 -71 -20 -87 -42l-44 39c26 32 71 58 133 58c97 0 151 -65 151 -144c0 -63 -42 -106 -70 -120v-4c20 -5 42 -16 59 -34c23 -15 57 -28 104 -28c41 0 69 11 88 22v256h-115zM730 893l45 -26c-32 -60 -90 -113 -194 -113s-163 53 -195 113l46 26
c26 -45 75 -84 149 -84s123 39 149 84z" />
    <glyph glyph-name="uni0911" unicode="&#x911;" horiz-adv-x="982" 
d="M864 893l45 -26c-32 -60 -90 -113 -194 -113s-163 53 -195 113l46 26c26 -45 75 -84 149 -84s123 39 149 84zM1002 634v-52h-125v-582h-58v582h-210v-582h-58v266c-17 -8 -41 -16 -73 -16c-33 0 -60 7 -83 18c2 -9 3 -19 3 -30c0 -90 -68 -163 -179 -163
c-75 0 -134 35 -168 67l40 43c24 -26 66 -56 128 -56c80 0 119 50 119 109s-41 94 -114 94h-54v54h30c62 0 109 38 109 102c0 55 -35 91 -92 91c-43 0 -71 -20 -87 -42l-44 39c26 32 71 58 133 58c97 0 151 -65 151 -144c0 -63 -42 -106 -70 -120v-4c20 -5 42 -16 59 -34
c23 -15 57 -28 104 -28c41 0 69 11 88 22v256h-115v52h566z" />
    <glyph glyph-name="uni093E" unicode="&#x93e;" horiz-adv-x="268" 
d="M288 582h-125v-582h-58v582h-125v52h308v-52z" />
    <glyph glyph-name="uni093F" unicode="&#x93f;" horiz-adv-x="268" 
d="M105 634v97c0 111 87 184 201 184c167 0 295 -111 354 -183l-43 -36c-51 65 -165 165 -311 165c-91 0 -143 -53 -143 -133v-94h125v-52h-125v-582h-58v582h-125v52h125z" />
    <glyph glyph-name="uni0940" unicode="&#x940;" horiz-adv-x="268" 
d="M288 582h-125v-582h-58v582h-125v52h125c-6 121 -70 225 -172 225c-52 0 -84 -31 -84 -77c0 -24 9 -50 29 -70l-62 -13c-16 18 -29 49 -29 85c0 71 58 130 146 130c121 0 218 -105 230 -280h125v-52z" />
    <glyph glyph-name="uni0941" unicode="&#x941;" 
d="M-428 -73c53 -79 139 -157 252 -157c66 0 122 34 122 102c0 48 -35 85 -85 85c-46 0 -73 -24 -88 -46l-45 37c29 37 73 64 133 64c83 0 147 -55 147 -140c0 -73 -52 -157 -185 -157c-152 0 -250 105 -299 171z" />
    <glyph glyph-name="uni0942" unicode="&#x942;" 
d="M136 -254l-57 -16c-28 130 -111 225 -211 225c-56 0 -96 -36 -96 -86c0 -43 29 -81 80 -81c21 0 33 3 49 9v-56c-17 -7 -39 -8 -51 -8c-85 0 -140 62 -140 136c0 82 69 141 159 141c152 0 242 -148 267 -264z" />
    <glyph glyph-name="uni0943" unicode="&#x943;" 
d="M-36 -151l24 -49c-29 -16 -73 -31 -128 -31c-91 0 -151 51 -151 128c0 86 81 134 176 143l10 -40v-9c-79 -10 -127 -41 -127 -94c0 -43 30 -75 94 -75c42 0 79 13 102 27z" />
    <glyph glyph-name="uni0944" unicode="&#x944;" 
d="M-97 -125l8 -46c-99 -5 -137 -31 -137 -69c0 -32 29 -54 84 -54c45 0 94 13 118 33l23 -46c-37 -24 -89 -37 -138 -37c-80 0 -142 34 -142 103c0 52 38 77 74 85c-33 1 -84 28 -84 86c0 64 65 111 176 111l10 -41v-10c-85 0 -128 -22 -128 -63s38 -56 84 -56
c18 0 37 1 52 4z" />
    <glyph glyph-name="uni0962" unicode="&#x962;" 
d="M-79 -376c0 64 47 103 143 144c1 9 1 19 1 27c0 61 -39 90 -85 90c-45 0 -89 -27 -89 -99v-28h-56v28c0 69 -31 99 -82 99c-47 0 -81 -36 -81 -100c0 -65 34 -109 75 -140l-40 -41c-47 31 -96 95 -96 182c0 98 63 154 140 154c62 0 99 -35 110 -69h4c12 31 49 69 117 69
c85 0 139 -59 139 -144c0 -26 -2 -45 -7 -65c-96 -39 -134 -61 -134 -107c0 -38 32 -60 87 -60c31 0 62 10 93 32l25 -45c-31 -25 -75 -37 -118 -37c-89 0 -146 47 -146 110z" />
    <glyph glyph-name="uni0963" unicode="&#x963;" 
d="M234 -428l26 -46c-42 -28 -81 -37 -130 -37c-85 0 -134 39 -134 95c0 31 13 56 45 71v4c-38 1 -71 29 -71 77c0 53 34 90 97 112c-18 23 -47 37 -79 37c-50 0 -97 -29 -97 -99v-28h-56v28c0 69 -31 99 -82 99c-47 0 -81 -36 -81 -100c0 -65 34 -109 75 -140l-40 -41
c-47 31 -96 95 -96 182c0 98 63 154 140 154c62 0 99 -35 110 -69h4c12 29 53 69 125 69c77 0 131 -48 144 -123l1 -3c-59 -14 -106 -33 -106 -77c0 -25 22 -45 61 -45c20 0 45 4 58 8l12 -46c-60 -11 -105 -26 -105 -70c0 -30 29 -45 76 -45c36 0 76 15 103 33z" />
    <glyph glyph-name="uni0947" unicode="&#x947;" 
d="M-111 631l-38 -12l-5 4c-45 41 -123 125 -157 164l-81 94l67 17z" />
    <glyph glyph-name="uni0948" unicode="&#x948;" 
d="M-140 634l3 1l-129 247l66 17l99 -272l-46 -24c-84 62 -176 132 -328 260l58 35z" />
    <glyph glyph-name="uni094B" unicode="&#x94b;" horiz-adv-x="268" 
d="M158 634h130v-52h-125v-582h-58v582h-125v52h125c-46 44 -114 117 -145 153l-81 94l67 17z" />
    <glyph glyph-name="uni094C" unicode="&#x94c;" horiz-adv-x="268" 
d="M164 634h124v-52h-125v-582h-58v582h-125v52h99c-73 55 -159 122 -286 229l58 35l277 -264l3 1l-129 247l66 17z" />
    <glyph glyph-name="uni0945" unicode="&#x945;" 
d="M-134 754c-104 0 -163 53 -195 113l46 26c26 -45 75 -84 149 -84s123 39 149 84l45 -26c-32 -60 -90 -113 -194 -113z" />
    <glyph glyph-name="uni0949" unicode="&#x949;" horiz-adv-x="268" 
d="M288 582h-125v-582h-58v582h-125v52h308v-52zM137 754c-104 0 -163 53 -195 113l46 26c26 -45 75 -84 149 -84s123 39 149 84l45 -26c-32 -60 -90 -113 -194 -113z" />
    <glyph glyph-name="uni090E" unicode="&#x90e;" horiz-adv-x="540" 
d="M446 634h114v-52h-115v-176c0 -69 -31 -110 -84 -136l-45 39c42 17 71 41 71 97v176h-239v-289l220 -190c46 -42 75 -73 75 -121c0 -30 -14 -59 -30 -79h-66v4c19 21 36 45 36 75c0 26 -15 46 -39 67l-254 219v314h-110v52h408c0 46 -23 62 -69 79l-156 60
c-56 21 -92 57 -92 125h58c0 -46 23 -61 69 -79l156 -60c56 -21 92 -57 92 -125z" />
    <glyph glyph-name="uni0904" unicode="&#x904;" horiz-adv-x="714" 
d="M609 634h125v-52h-125v-582h-58v266c-17 -8 -41 -16 -73 -16c-33 0 -60 7 -83 18c2 -9 3 -19 3 -30c0 -90 -68 -163 -179 -163c-75 0 -134 35 -168 67l40 43c24 -26 66 -56 128 -56c80 0 119 50 119 109s-41 94 -114 94h-54v54h30c62 0 109 38 109 102
c0 55 -35 91 -92 91c-43 0 -71 -20 -87 -42l-44 39c26 32 71 58 133 58c97 0 151 -65 151 -144c0 -63 -42 -106 -70 -120v-4c20 -5 42 -16 59 -34c23 -15 57 -28 104 -28c41 0 69 11 88 22v256h-115v52h115c0 46 -23 62 -69 79l-156 60c-56 21 -92 57 -92 125h58
c0 -46 23 -61 69 -79l156 -60c56 -21 92 -57 92 -125z" />
    <glyph glyph-name="uni0912" unicode="&#x912;" horiz-adv-x="982" 
d="M876 634h126v-52h-125v-582h-58v582h-210v-582h-58v266c-17 -8 -41 -16 -73 -16c-33 0 -60 7 -83 18c2 -9 3 -19 3 -30c0 -90 -68 -163 -179 -163c-75 0 -134 35 -168 67l40 43c24 -26 66 -56 128 -56c80 0 119 50 119 109s-41 94 -114 94h-54v54h30c62 0 109 38 109 102
c0 55 -35 91 -92 91c-43 0 -71 -20 -87 -42l-44 39c26 32 71 58 133 58c97 0 151 -65 151 -144c0 -63 -42 -106 -70 -120v-4c20 -5 42 -16 59 -34c23 -15 57 -28 104 -28c41 0 69 11 88 22v256h-115v52h382c0 46 -23 62 -69 79l-156 60c-56 21 -92 57 -92 125h58
c0 -46 23 -61 69 -79l156 -60c56 -21 92 -57 92 -125z" />
    <glyph glyph-name="uni0976" unicode="&#x976;" horiz-adv-x="714" 
d="M281 -144l11 43c63 -14 121 -21 185 -21s122 7 185 21l11 -43s-48 -33 -196 -33c-138 0 -196 33 -196 33zM436 634h298v-52h-125v-582h-58v266c-17 -8 -41 -16 -73 -16c-33 0 -60 7 -83 18c2 -9 3 -19 3 -30c0 -90 -68 -163 -179 -163c-75 0 -134 35 -168 67l40 43
c24 -26 66 -56 128 -56c80 0 119 50 119 109s-41 94 -114 94h-54v54h30c62 0 109 38 109 102c0 55 -35 91 -92 91c-43 0 -71 -20 -87 -42l-44 39c26 32 71 58 133 58c97 0 151 -65 151 -144c0 -63 -42 -106 -70 -120v-4c20 -5 42 -16 59 -34c23 -15 57 -28 104 -28
c41 0 69 11 88 22v256h-115v52z" />
    <glyph glyph-name="uni0977" unicode="&#x977;" horiz-adv-x="714" 
d="M272 -278l11 43c63 -14 121 -21 185 -21s122 7 185 21l11 -43s-48 -33 -196 -33c-138 0 -196 33 -196 33zM272 -137l11 43c63 -14 121 -21 185 -21s122 7 185 21l11 -43s-48 -33 -196 -33c-138 0 -196 33 -196 33zM436 634h298v-52h-125v-582h-58v266
c-17 -8 -41 -16 -73 -16c-33 0 -60 7 -83 18c2 -9 3 -19 3 -30c0 -90 -68 -163 -179 -163c-75 0 -134 35 -168 67l40 43c24 -26 66 -56 128 -56c80 0 119 50 119 109s-41 94 -114 94h-54v54h30c62 0 109 38 109 102c0 55 -35 91 -92 91c-43 0 -71 -20 -87 -42l-44 39
c26 32 71 58 133 58c97 0 151 -65 151 -144c0 -63 -42 -106 -70 -120v-4c20 -5 42 -16 59 -34c23 -15 57 -28 104 -28c41 0 69 11 88 22v256h-115v52z" />
    <glyph glyph-name="uni0973" unicode="&#x973;" horiz-adv-x="714" 
d="M609 634h125v-52h-125v-582h-58v266c-17 -8 -41 -16 -73 -16c-33 0 -60 7 -83 18c2 -9 3 -19 3 -30c0 -90 -68 -163 -179 -163c-75 0 -134 35 -168 67l40 43c24 -26 66 -56 128 -56c80 0 119 50 119 109s-41 94 -114 94h-54v54h30c62 0 109 38 109 102
c0 55 -35 91 -92 91c-43 0 -71 -20 -87 -42l-44 39c26 32 71 58 133 58c97 0 151 -65 151 -144c0 -63 -42 -106 -70 -120v-4c20 -5 42 -16 59 -34c23 -15 57 -28 104 -28c41 0 69 11 88 22v256h-115v52h115v164h58v-164z" />
    <glyph glyph-name="uni0974" unicode="&#x974;" horiz-adv-x="982" 
d="M877 634h125v-52h-125v-582h-58v582h-210v-582h-58v266c-17 -8 -41 -16 -73 -16c-33 0 -60 7 -83 18c2 -9 3 -19 3 -30c0 -90 -68 -163 -179 -163c-75 0 -134 35 -168 67l40 43c24 -26 66 -56 128 -56c80 0 119 50 119 109s-41 94 -114 94h-54v54h30c62 0 109 38 109 102
c0 55 -35 91 -92 91c-43 0 -71 -20 -87 -42l-44 39c26 32 71 58 133 58c97 0 151 -65 151 -144c0 -63 -42 -106 -70 -120v-4c20 -5 42 -16 59 -34c23 -15 57 -28 104 -28c41 0 69 11 88 22v256h-115v52h383v164h58v-164z" />
    <glyph glyph-name="uni0975" unicode="&#x975;" horiz-adv-x="982" 
d="M877 634h125v-52h-125v-582h-58v582h-210v-582h-58v266c-17 -8 -41 -16 -73 -16c-33 0 -60 7 -83 18c2 -9 3 -19 3 -30c0 -90 -68 -163 -179 -163c-75 0 -134 35 -168 67l40 43c24 -26 66 -56 128 -56c80 0 119 50 119 109s-41 94 -114 94h-54v54h30c62 0 109 38 109 102
c0 55 -35 91 -92 91c-43 0 -71 -20 -87 -42l-44 39c26 32 71 58 133 58c97 0 151 -65 151 -144c0 -63 -42 -106 -70 -120v-4c20 -5 42 -16 59 -34c23 -15 57 -28 104 -28c41 0 69 11 88 22v256h-115v52h383c-25 54 -119 67 -200 101c-55 23 -94 64 -92 124h58
c1 -44 24 -65 69 -85c92 -41 170 -54 190 -133h5c0 89 -145 126 -145 249c0 16 4 33 4 33h56s-4 -18 -4 -34c0 -105 117 -142 117 -242v-13z" />
    <glyph glyph-name="uni0946" unicode="&#x946;" 
d="M-232 713l-156 60c-56 21 -92 57 -92 125h58c0 -46 23 -61 69 -79l156 -60c56 -21 92 -57 92 -125h-58c0 46 -23 62 -69 79z" />
    <glyph glyph-name="uni094A" unicode="&#x94a;" horiz-adv-x="268" 
d="M163 634h125v-52h-125v-582h-58v582h-125v52h125c0 46 -23 62 -69 79l-156 60c-56 21 -92 57 -92 125h58c0 -46 23 -61 69 -79l156 -60c56 -21 92 -57 92 -125z" />
    <glyph glyph-name="uni0956" unicode="&#x956;" 
d="M-276 -177c-138 0 -196 33 -196 33l11 43c63 -14 121 -21 185 -21s122 7 185 21l11 -43s-48 -33 -196 -33z" />
    <glyph glyph-name="uni0957" unicode="&#x957;" 
d="M-276 -170c-138 0 -196 33 -196 33l11 43c63 -14 121 -21 185 -21s122 7 185 21l11 -43s-48 -33 -196 -33zM-276 -311c-138 0 -196 33 -196 33l11 43c63 -14 121 -21 185 -21s122 7 185 21l11 -43s-48 -33 -196 -33z" />
    <glyph glyph-name="uni093A" unicode="&#x93a;" 
d="M-105 615h-58v183h58v-183z" />
    <glyph glyph-name="uni093B" unicode="&#x93b;" horiz-adv-x="268" 
d="M163 634h125v-52h-125v-582h-58v582h-125v52h125v164h58v-164z" />
    <glyph glyph-name="uni094F" unicode="&#x94f;" horiz-adv-x="268" 
d="M163 634h125v-52h-125v-582h-58v582h-125v52h125c-25 54 -119 67 -200 101c-55 23 -94 64 -92 124h58c1 -44 24 -65 69 -85c92 -41 170 -54 190 -133h5c0 89 -145 126 -145 249c0 16 4 33 4 33h56s-4 -18 -4 -34c0 -105 117 -142 117 -242v-13z" />
    <glyph glyph-name="uni094E" unicode="&#x94e;" horiz-adv-x="268" 
d="M288 582h-125v-582h-58v634h183v-52z" />
    <glyph glyph-name="uni0955" unicode="&#x955;" 
d="M-133 798c-95 0 -149 49 -178 103l42 23c23 -40 69 -76 136 -76s113 36 136 76l41 -23c-29 -54 -82 -103 -177 -103zM31 702h-328v47h328v-47z" />
    <glyph glyph-name="uni0915" unicode="&#x915;" horiz-adv-x="763" 
d="M651 297c0 66 -46 112 -113 112c-76 0 -128 -54 -128 -135v-274h-57v195h-4c-19 -27 -61 -62 -135 -62c-87 0 -164 66 -164 165c0 116 100 181 205 166l9 -55c-73 12 -152 -19 -152 -109c0 -65 45 -112 113 -112c76 0 128 54 128 135v259h-373v52h803v-52h-373v-180h4
c19 27 62 62 136 62c87 0 163 -65 163 -165c0 -116 -100 -181 -205 -166l-9 55c73 -12 152 19 152 109z" />
    <glyph glyph-name="uni0916" unicode="&#x916;" horiz-adv-x="779" 
d="M617 143h-4c-47 -60 -129 -107 -232 -107c-188 0 -302 142 -319 338l52 18c13 -23 33 -44 73 -44c33 0 54 18 54 64v170h-261v52h819v-52h-125v-582h-57v143zM612 453h4v129h-317v-169c0 -72 -46 -115 -105 -115c-32 0 -49 6 -62 13c28 -144 128 -220 248 -220
c127 0 239 81 239 227c0 76 -50 118 -103 118c-58 0 -98 -38 -98 -96c0 -56 41 -99 116 -102l-31 -47c-70 3 -143 56 -143 149c0 89 69 151 151 151c53 0 82 -18 101 -38z" />
    <glyph glyph-name="uni0917" unicode="&#x917;" horiz-adv-x="546" 
d="M-20 634h586v-52h-125v-582h-58v582h-196v-365h-67c-31 27 -47 71 -48 112l57 40v213h-149v52z" />
    <glyph glyph-name="uni0918" unicode="&#x918;" horiz-adv-x="627" 
d="M465 357v225h-214c-73 0 -106 -39 -106 -87c0 -46 34 -83 115 -83h62v-54h-61c-74 0 -109 -34 -109 -85c0 -46 33 -95 122 -95c123 0 191 79 191 179zM647 634v-52h-125v-582h-58v208h-4c-20 -30 -78 -85 -187 -85c-125 0 -183 75 -183 149c0 62 43 100 84 111v4
c-47 7 -91 42 -91 106c0 49 30 77 49 85v4h-152v52h667z" />
    <glyph glyph-name="uni0919" unicode="&#x919;" horiz-adv-x="613" 
d="M531 402c24 0 42 -18 42 -43c0 -23 -18 -41 -42 -41s-42 18 -42 41c0 25 18 43 42 43zM-20 634h653v-52h-208v-163h-180c-59 0 -75 -26 -75 -62c0 -40 33 -76 70 -86l171 34c37 -21 69 -70 69 -128c0 -88 -75 -160 -190 -160c-107 0 -195 61 -251 162l48 34
c42 -84 112 -143 203 -143c75 0 130 40 130 107c0 28 -9 52 -31 69l-161 -32c-60 19 -119 77 -119 154c0 60 42 104 109 104h150v110h-388v52z" />
    <glyph glyph-name="uni091A" unicode="&#x91a;" horiz-adv-x="634" 
d="M471 203h-4c-22 -32 -78 -80 -177 -80c-109 0 -184 74 -184 163c0 62 34 95 52 107v4h-140v54h355v-53h-83c-77 0 -122 -46 -122 -110c0 -63 51 -110 129 -110c100 0 174 70 174 183v221h-491v52h674v-52h-125v-582h-58v203z" />
    <glyph glyph-name="uni091B" unicode="&#x91b;" horiz-adv-x="672" 
d="M463 481v101h-197c-69 0 -121 -41 -121 -109c0 -59 42 -99 113 -99h37v-54h-24c-69 0 -113 -37 -113 -99c0 -65 50 -119 147 -119c134 0 249 102 249 229c0 62 -35 97 -79 97c-37 0 -67 -25 -67 -64c0 -38 25 -65 70 -70l-36 -41c-58 12 -92 57 -92 111
c0 61 46 112 113 117zM692 582h-173v-108c58 -19 94 -75 94 -143c0 -139 -126 -284 -308 -284c-135 0 -209 82 -209 172c0 68 41 108 83 124v4c-58 16 -96 64 -96 123c0 67 38 96 54 108v4h-157v52h712v-52z" />
    <glyph glyph-name="uni091C" unicode="&#x91c;" horiz-adv-x="733" 
d="M276 381v4l27 48h267v149h-590v52h773v-52h-125v-582h-58v380h-188v-4c15 -14 49 -46 49 -110c0 -76 -58 -141 -151 -141c-157 0 -234 157 -249 277l61 22c4 -118 74 -244 184 -244c61 0 95 39 95 89c0 70 -61 103 -95 112z" />
    <glyph glyph-name="uni091D" unicode="&#x91d;" horiz-adv-x="766" 
d="M207 270l170 34c28 -15 79 -30 134 -30c41 0 73 10 92 20v288h-203v-166h-188c-59 0 -75 -24 -75 -60c0 -40 33 -76 70 -86zM786 634v-52h-125v-582h-58v233c-22 -9 -50 -14 -87 -14c-29 0 -56 6 -81 15c6 -16 10 -34 10 -55c0 -102 -93 -150 -175 -147v-4l154 -105
l-65 -34l-152 138c-99 3 -144 49 -144 94c0 22 13 37 22 43l123 -87h39c72 0 140 32 140 101c0 37 -18 58 -31 67l-161 -32c-60 19 -119 77 -119 154c0 60 42 102 109 102h158v113h-363v52h806z" />
    <glyph glyph-name="uni091E" unicode="&#x91e;" horiz-adv-x="685" 
d="M-20 634h725v-52h-125v-582h-58v277c-11 -2 -23 -2 -36 -2c-29 0 -58 3 -84 10c-7 -101 -85 -171 -191 -171c-103 0 -169 62 -199 111l43 38c29 -44 74 -94 157 -94c68 0 130 47 130 131c0 77 -50 121 -120 121c-33 0 -58 -9 -77 -20l-21 49c20 11 51 26 101 26
c93 0 159 -56 175 -137c22 -5 47 -8 71 -8c17 0 34 1 51 4v247h-542v52z" />
    <glyph glyph-name="uni091F" unicode="&#x91f;" horiz-adv-x="494" 
d="M-20 582v52h534v-52h-141v-165l-144 -44c-94 -29 -115 -63 -115 -122c0 -76 65 -151 168 -151c77 0 123 26 155 60l35 -47c-46 -47 -114 -68 -183 -68c-137 0 -237 104 -237 216c0 81 45 129 134 157l129 40v124h-335z" />
    <glyph glyph-name="uni0920" unicode="&#x920;" horiz-adv-x="564" 
d="M307 399l-80 -25c-94 -29 -116 -64 -116 -124c0 -75 60 -150 165 -150c122 0 177 72 177 151c0 97 -97 140 -146 148zM584 582h-213v-146c56 -22 143 -80 143 -191c0 -115 -97 -200 -231 -200s-233 95 -233 214c0 82 47 130 136 158l127 40v125h-333v52h604v-52z" />
    <glyph glyph-name="uni0921" unicode="&#x921;" horiz-adv-x="536" 
d="M425 419h-180c-59 0 -75 -26 -75 -62c0 -40 33 -76 70 -86l171 34c37 -21 69 -70 69 -128c0 -88 -75 -160 -190 -160c-107 0 -195 61 -251 162l48 34c42 -84 112 -143 203 -143c75 0 130 40 130 107c0 28 -9 52 -31 69l-161 -32c-60 19 -119 77 -119 154
c0 60 42 104 109 104h150v110h-388v52h576v-52h-131v-163z" />
    <glyph glyph-name="uni0922" unicode="&#x922;" horiz-adv-x="515" 
d="M290 99c71 0 111 39 111 90c0 33 -25 61 -61 61c-48 0 -69 -42 -60 -84l-56 22c-5 54 34 118 115 118c70 0 122 -52 122 -117c0 -76 -69 -144 -167 -144c-140 0 -244 105 -244 223c0 83 55 148 140 172l145 42v100h-355v52h555v-52h-142v-141l-165 -45
c-93 -25 -117 -74 -117 -133c0 -82 70 -164 179 -164z" />
    <glyph glyph-name="uni0923" unicode="&#x923;" horiz-adv-x="746" 
d="M342 349v233h-194v-233c0 -69 34 -109 97 -109s97 40 97 109zM766 634v-52h-125v-582h-58v582h-183v-239c0 -101 -66 -158 -155 -158s-155 57 -155 158v239h-110v52h786z" />
    <glyph glyph-name="uni0924" unicode="&#x924;" horiz-adv-x="547" 
d="M229 28l-50 -34c-70 56 -126 143 -126 258c0 104 70 177 169 177h162v153h-404v52h587v-52h-125v-582h-58v375h-150c-73 0 -121 -45 -121 -123c0 -106 55 -178 116 -224z" />
    <glyph glyph-name="uni0925" unicode="&#x925;" horiz-adv-x="628" 
d="M162 327l-59 -17c5 -43 48 -144 169 -144c129 0 194 93 194 199v269h182v-52h-125v-582h-58v203h-4c-25 -40 -88 -92 -190 -92c-145 0 -230 108 -238 235l92 27c151 43 175 84 175 141c0 45 -29 75 -76 75c-43 0 -75 -26 -75 -71c0 -22 14 -49 30 -62l-57 -17
c-14 13 -32 42 -32 82c0 67 56 123 134 123c82 0 135 -56 135 -132c0 -86 -64 -147 -197 -185z" />
    <glyph glyph-name="uni0926" unicode="&#x926;" horiz-adv-x="513" 
d="M385 431l-162 -40c-84 -21 -111 -58 -111 -114c0 -76 60 -142 150 -142c44 0 79 11 96 26v103l46 17c18 -8 43 -36 43 -74c0 -40 -18 -68 -33 -81l106 -138l-71 -18l-75 132c-27 -14 -66 -22 -103 -22c-143 0 -221 107 -221 201c0 82 52 135 148 159l129 32v110h-347v52
h553v-52h-148v-151z" />
    <glyph glyph-name="uni0927" unicode="&#x927;" horiz-adv-x="627" 
d="M647 634v-52h-125v-582h-58v208h-4c-20 -30 -78 -85 -187 -85c-125 0 -183 75 -183 149c0 62 43 100 84 111v4c-47 7 -91 42 -91 106c0 47 29 76 50 85v4h-153v52h255l9 -51c-54 -5 -99 -35 -99 -88c0 -46 34 -83 115 -83h62v-54h-61c-74 0 -109 -34 -109 -85
c0 -46 33 -95 122 -95c128 0 191 85 191 178v226h-123v52h305z" />
    <glyph glyph-name="uni0928" unicode="&#x928;" horiz-adv-x="502" 
d="M126 242l-41 -12c-32 23 -53 73 -54 115l45 38h263v199h-359v52h542v-52h-125v-582h-58v329h-213v-87z" />
    <glyph glyph-name="uni092A" unicode="&#x92a;" horiz-adv-x="554" 
d="M391 268h-4c-20 -34 -61 -66 -137 -66c-87 0 -160 51 -160 159v221h-110v52h594v-52h-125v-582h-58v268zM391 409v173h-243v-211c0 -83 40 -114 108 -114c88 0 135 62 135 152z" />
    <glyph glyph-name="uni092B" unicode="&#x92b;" horiz-adv-x="785" 
d="M375 264h-4c-17 -30 -58 -65 -129 -65c-86 0 -152 52 -152 158v225h-110v52h825v-52h-372v-184h4c17 25 64 65 138 65c91 0 166 -66 166 -166c0 -115 -92 -190 -206 -176l-9 57c97 -17 153 41 153 118c0 67 -45 111 -113 111c-74 0 -133 -58 -133 -149v-258h-58v264z
M376 406v176h-228v-216c0 -81 36 -112 97 -112c77 0 131 57 131 152z" />
    <glyph glyph-name="uni092C" unicode="&#x92c;" horiz-adv-x="561" 
d="M345 194l-214 178c-13 -20 -21 -45 -21 -74c0 -77 52 -136 137 -136c39 0 73 12 98 32zM-20 634h601v-52h-125v-582h-58v176h-4c-22 -29 -71 -69 -154 -69c-104 0 -190 77 -190 189c0 115 96 193 206 193c21 0 47 -2 66 -8l2 -57c-21 8 -44 11 -66 11
c-34 0 -66 -10 -92 -27l212 -177c13 22 20 47 20 76v275h-418v52z" />
    <glyph glyph-name="uni092D" unicode="&#x92d;" horiz-adv-x="571" 
d="M296 634h295v-52h-125v-582h-58v289h-231v-103h-67c-32 27 -49 74 -50 115l59 41v165c0 53 -24 75 -79 75h-60v52h63c84 0 134 -45 134 -122v-169h231v239h-112v52z" />
    <glyph glyph-name="uni092E" unicode="&#x92e;" horiz-adv-x="571" 
d="M408 343v239h-231v-239h231zM-20 634h611v-52h-125v-582h-58v289h-231v-103h-67c-32 27 -49 74 -50 115l59 41v240h-139v52z" />
    <glyph glyph-name="uni092F" unicode="&#x92f;" horiz-adv-x="605" 
d="M442 222h-4c-16 -23 -63 -78 -164 -78c-115 0 -205 82 -224 222c96 22 147 56 147 118c0 40 -19 75 -47 98h-170v52h645v-52h-125v-582h-58v222zM120 335c8 -53 53 -136 162 -136c91 0 161 63 161 178v205h-225v-4c22 -25 40 -55 40 -103c0 -69 -58 -120 -138 -140z" />
    <glyph glyph-name="uni0930" unicode="&#x930;" horiz-adv-x="392" 
d="M133 280l-2 -3c22 -26 42 -49 66 -81l123 -163l-47 -32l-251 335l44 35c14 -15 44 -43 95 -43c49 0 73 21 73 70v184h-254v52h432v-52h-120v-192c0 -79 -56 -115 -119 -115c-9 0 -29 1 -40 5z" />
    <glyph glyph-name="uni0932" unicode="&#x932;" horiz-adv-x="707" 
d="M540 414h4v168h-564v52h747v-52h-125v-582h-58v356c-16 17 -50 38 -88 38c-52 0 -90 -35 -90 -107v-95h-58v94c0 69 -35 104 -90 104c-53 0 -97 -38 -97 -121c0 -99 57 -178 152 -229l-42 -43c-89 48 -171 146 -171 273c0 112 74 175 154 175c66 0 108 -33 122 -81h4
c15 54 59 85 112 85c44 0 74 -19 88 -35z" />
    <glyph glyph-name="uni0933" unicode="&#x933;" horiz-adv-x="734" 
d="M390 244l-5 -14c26 -50 59 -94 129 -94c64 0 108 49 108 135c0 73 -36 136 -104 136c-83 0 -100 -81 -128 -163zM348 298l5 15c-25 49 -64 92 -126 92c-64 0 -110 -52 -110 -134c0 -73 32 -137 100 -137c83 0 106 81 131 164zM754 582h-210v-122c83 -11 138 -82 138 -185
c0 -118 -72 -193 -173 -193c-79 0 -127 51 -149 89c-28 -51 -70 -91 -148 -91c-94 0 -155 75 -155 187c0 111 67 192 175 192c76 0 123 -50 145 -87c22 42 55 75 109 86v124h-506v52h774v-52z" />
    <glyph glyph-name="uni0935" unicode="&#x935;" horiz-adv-x="541" 
d="M436 582v-582h-58v186h-4c-21 -28 -68 -65 -146 -65c-93 0 -178 70 -178 179c0 141 129 195 234 175l6 -57c-92 23 -178 -22 -178 -116c0 -71 49 -126 126 -126c85 0 140 66 140 152v254h-398v52h581v-52h-125z" />
    <glyph glyph-name="uni0936" unicode="&#x936;" horiz-adv-x="703" 
d="M219 441l-36 -44c-53 15 -83 61 -83 115c0 73 58 132 145 132c105 0 162 -84 162 -175c0 -146 -127 -226 -284 -213l-2 -4c27 -26 45 -39 93 -86l143 -140l-48 -33l-227 224l-66 58l37 49c32 -10 72 -15 102 -15c108 0 192 59 192 160c0 80 -51 121 -102 121
c-53 0 -85 -32 -85 -78c0 -31 19 -62 59 -71zM540 0v634h183v-52h-125v-582h-58z" />
    <glyph glyph-name="uni0937" unicode="&#x937;" horiz-adv-x="565" 
d="M402 268h-4c-19 -34 -61 -71 -142 -71c-87 0 -166 51 -166 159v226h-110v52h605v-52h-125v-582h-58v268zM262 250c48 0 86 17 111 49l-160 153l-70 66l3 -91v-63c0 -83 48 -114 116 -114zM404 399v183h-261l252 -241c6 17 9 36 9 58z" />
    <glyph glyph-name="uni0938" unicode="&#x938;" horiz-adv-x="669" 
d="M292 582v-202c0 -12 -1 -23 -4 -32c36 -11 80 -17 120 -17c38 0 73 5 98 11v240h-214zM-20 634h709v-52h-125v-582h-58v287c-21 -5 -52 -8 -99 -8c-49 0 -105 9 -143 22c-22 -25 -55 -36 -91 -36c-9 0 -29 1 -40 5l-2 -3c22 -26 42 -49 66 -81l123 -163l-47 -32l-251 335
l44 35c14 -15 44 -43 95 -43c49 0 73 21 73 70v194h-254v52z" />
    <glyph glyph-name="uni0939" unicode="&#x939;" horiz-adv-x="500" 
d="M415 419h-211c-49 0 -65 -22 -65 -50c0 -35 26 -71 60 -91c26 10 55 16 88 16c110 0 162 -63 162 -132c0 -45 -22 -79 -47 -100l-53 31c25 19 39 43 39 70c0 40 -32 75 -98 75c-86 0 -142 -47 -142 -109c0 -77 72 -142 271 -151l-24 -53c-197 13 -308 87 -308 206
c0 45 23 89 62 120c-35 23 -71 68 -71 123c0 57 40 99 114 99h166v109h-378v52h540v-52h-105v-163z" />
    <glyph glyph-name="uni0915093C" unicode="&#x958;" horiz-adv-x="763" 
d="M651 297c0 66 -46 112 -113 112c-76 0 -128 -54 -128 -135v-274h-57v195h-4c-19 -27 -61 -62 -135 -62c-87 0 -164 66 -164 165c0 116 100 181 205 166l9 -55c-73 12 -152 -19 -152 -109c0 -65 45 -112 113 -112c76 0 128 54 128 135v259h-373v52h803v-52h-373v-180h4
c19 27 62 62 136 62c87 0 163 -65 163 -165c0 -116 -100 -181 -205 -166l-9 55c73 -12 152 19 152 109zM101 19c0 24 17 41 41 41s41 -17 41 -41s-17 -41 -41 -41s-41 17 -41 41z" />
    <glyph glyph-name="uni0916093C" unicode="&#x959;" horiz-adv-x="779" 
d="M617 143h-4c-47 -60 -129 -107 -232 -107c-188 0 -302 142 -319 338l52 18c13 -23 33 -44 73 -44c33 0 54 18 54 64v170h-261v52h819v-52h-125v-582h-57v143zM612 453h4v129h-317v-169c0 -72 -46 -115 -105 -115c-32 0 -49 6 -62 13c28 -144 128 -220 248 -220
c127 0 239 81 239 227c0 76 -50 118 -103 118c-58 0 -98 -38 -98 -96c0 -56 41 -99 116 -102l-31 -47c-70 3 -143 56 -143 149c0 89 69 151 151 151c53 0 82 -18 101 -38zM79 0c0 24 17 41 41 41s41 -17 41 -41s-17 -41 -41 -41s-41 17 -41 41z" />
    <glyph glyph-name="uni0917093C" unicode="&#x95a;" horiz-adv-x="546" 
d="M155 93c24 0 41 -17 41 -41s-17 -41 -41 -41s-41 17 -41 41s17 41 41 41zM-20 634h586v-52h-125v-582h-58v582h-196v-365h-67c-31 27 -47 71 -48 112l57 40v213h-149v52z" />
    <glyph glyph-name="uni0918093C" horiz-adv-x="627" 
d="M127 72c24 0 41 -17 41 -41s-17 -41 -41 -41s-41 17 -41 41s17 41 41 41zM465 357v225h-214c-73 0 -106 -39 -106 -87c0 -46 34 -83 115 -83h62v-54h-61c-74 0 -109 -34 -109 -85c0 -46 33 -95 122 -95c123 0 191 79 191 179zM647 634v-52h-125v-582h-58v208h-4
c-20 -30 -78 -85 -187 -85c-125 0 -183 75 -183 149c0 62 43 100 84 111v4c-47 7 -91 42 -91 106c0 49 30 77 49 85v4h-152v52h667z" />
    <glyph glyph-name="uni0919093C" horiz-adv-x="613" 
d="M293 -54c24 0 41 -17 41 -41s-17 -41 -41 -41s-41 17 -41 41s17 41 41 41zM531 402c24 0 42 -18 42 -43c0 -23 -18 -41 -42 -41s-42 18 -42 41c0 25 18 43 42 43zM-20 634h653v-52h-208v-163h-180c-59 0 -75 -26 -75 -62c0 -40 33 -76 70 -86l171 34
c37 -21 69 -70 69 -128c0 -88 -75 -160 -190 -160c-107 0 -195 61 -251 162l48 34c42 -84 112 -143 203 -143c75 0 130 40 130 107c0 28 -9 52 -31 69l-161 -32c-60 19 -119 77 -119 154c0 60 42 104 109 104h150v110h-388v52z" />
    <glyph glyph-name="uni091A093C" horiz-adv-x="634" 
d="M471 203h-4c-22 -32 -78 -80 -177 -80c-109 0 -184 74 -184 163c0 62 34 95 52 107v4h-140v54h355v-53h-83c-77 0 -122 -46 -122 -110c0 -63 51 -110 129 -110c100 0 174 70 174 183v221h-491v52h674v-52h-125v-582h-58v203zM86 31c0 24 17 41 41 41s41 -17 41 -41
s-17 -41 -41 -41s-41 17 -41 41z" />
    <glyph glyph-name="uni091B093C" horiz-adv-x="672" 
d="M337 -28c24 0 41 -17 41 -41s-17 -41 -41 -41s-41 17 -41 41s17 41 41 41zM463 481v101h-197c-69 0 -121 -41 -121 -109c0 -59 42 -99 113 -99h37v-54h-24c-69 0 -113 -37 -113 -99c0 -65 50 -119 147 -119c134 0 249 102 249 229c0 62 -35 97 -79 97
c-37 0 -67 -25 -67 -64c0 -38 25 -65 70 -70l-36 -41c-58 12 -92 57 -92 111c0 61 46 112 113 117zM692 582h-173v-108c58 -19 94 -75 94 -143c0 -139 -126 -284 -308 -284c-135 0 -209 82 -209 172c0 68 41 108 83 124v4c-58 16 -96 64 -96 123c0 67 38 96 54 108v4h-157
v52h712v-52z" />
    <glyph glyph-name="uni091C093C" unicode="&#x95b;" horiz-adv-x="733" 
d="M276 381v4l27 48h267v149h-590v52h773v-52h-125v-582h-58v380h-188v-4c15 -14 49 -46 49 -110c0 -76 -58 -141 -151 -141c-157 0 -234 157 -249 277l61 22c4 -118 74 -244 184 -244c61 0 95 39 95 89c0 70 -61 103 -95 112zM78 29c0 24 17 41 41 41s41 -17 41 -41
s-17 -41 -41 -41s-41 17 -41 41z" />
    <glyph glyph-name="uni091D093C" horiz-adv-x="766" 
d="M112 -42c24 0 41 -17 41 -41s-17 -41 -41 -41s-41 17 -41 41s17 41 41 41zM207 270l170 34c28 -15 79 -30 134 -30c41 0 73 10 92 20v288h-203v-166h-188c-59 0 -75 -24 -75 -60c0 -40 33 -76 70 -86zM786 634v-52h-125v-582h-58v233c-22 -9 -50 -14 -87 -14
c-29 0 -56 6 -81 15c6 -16 10 -34 10 -55c0 -102 -93 -150 -175 -147v-4l154 -105l-65 -34l-152 138c-99 3 -144 49 -144 94c0 22 13 37 22 43l123 -87h39c72 0 140 32 140 101c0 37 -18 58 -31 67l-161 -32c-60 19 -119 77 -119 154c0 60 42 102 109 102h158v113h-363v52
h806z" />
    <glyph glyph-name="uni091E093C" horiz-adv-x="685" 
d="M117 41c24 0 41 -17 41 -41s-17 -41 -41 -41s-41 17 -41 41s17 41 41 41zM-20 634h725v-52h-125v-582h-58v277c-11 -2 -23 -2 -36 -2c-29 0 -58 3 -84 10c-7 -101 -85 -171 -191 -171c-103 0 -169 62 -199 111l43 38c29 -44 74 -94 157 -94c68 0 130 47 130 131
c0 77 -50 121 -120 121c-33 0 -58 -9 -77 -20l-21 49c20 11 51 26 101 26c93 0 159 -56 175 -137c22 -5 47 -8 71 -8c17 0 34 1 51 4v247h-542v52z" />
    <glyph glyph-name="uni091F093C" horiz-adv-x="494" 
d="M-20 582v52h534v-52h-141v-165l-144 -44c-94 -29 -115 -63 -115 -122c0 -76 65 -151 168 -151c77 0 123 26 155 60l35 -47c-46 -47 -114 -68 -183 -68c-137 0 -237 104 -237 216c0 81 45 129 134 157l129 40v124h-335zM252 -67c0 24 17 41 41 41s41 -17 41 -41
s-17 -41 -41 -41s-41 17 -41 41z" />
    <glyph glyph-name="uni0920093C" horiz-adv-x="564" 
d="M285 -26c24 0 41 -17 41 -41s-17 -41 -41 -41s-41 17 -41 41s17 41 41 41zM307 399l-80 -25c-94 -29 -116 -64 -116 -124c0 -75 60 -150 165 -150c122 0 177 72 177 151c0 97 -97 140 -146 148zM584 582h-213v-146c56 -22 143 -80 143 -191c0 -115 -97 -200 -231 -200
s-233 95 -233 214c0 82 47 130 136 158l127 40v125h-333v52h604v-52z" />
    <glyph glyph-name="uni0921093C" unicode="&#x95c;" horiz-adv-x="536" 
d="M292 -54c24 0 41 -17 41 -41s-17 -41 -41 -41s-41 17 -41 41s17 41 41 41zM425 419h-180c-59 0 -75 -26 -75 -62c0 -40 33 -76 70 -86l171 34c37 -21 69 -70 69 -128c0 -88 -75 -160 -190 -160c-107 0 -195 61 -251 162l48 34c42 -84 112 -143 203 -143
c75 0 130 40 130 107c0 28 -9 52 -31 69l-161 -32c-60 19 -119 77 -119 154c0 60 42 104 109 104h150v110h-388v52h576v-52h-131v-163z" />
    <glyph glyph-name="uni0922093C" unicode="&#x95d;" horiz-adv-x="515" 
d="M290 99c71 0 111 39 111 90c0 33 -25 61 -61 61c-48 0 -69 -42 -60 -84l-56 22c-5 54 34 118 115 118c70 0 122 -52 122 -117c0 -76 -69 -144 -167 -144c-140 0 -244 105 -244 223c0 83 55 148 140 172l145 42v100h-355v52h555v-52h-142v-141l-165 -45
c-93 -25 -117 -74 -117 -133c0 -82 70 -164 179 -164zM242 -71c0 24 17 41 41 41s41 -17 41 -41s-17 -41 -41 -41s-41 17 -41 41z" />
    <glyph glyph-name="uni0923093C" horiz-adv-x="746" 
d="M257 72c24 0 41 -17 41 -41s-17 -41 -41 -41s-41 17 -41 41s17 41 41 41zM342 349v233h-194v-233c0 -69 34 -109 97 -109s97 40 97 109zM766 634v-52h-125v-582h-58v582h-183v-239c0 -101 -66 -158 -155 -158s-155 57 -155 158v239h-110v52h786z" />
    <glyph glyph-name="uni0924093C" horiz-adv-x="547" 
d="M229 28l-50 -34c-70 56 -126 143 -126 258c0 104 70 177 169 177h162v153h-404v52h587v-52h-125v-582h-58v375h-150c-73 0 -121 -45 -121 -123c0 -106 55 -178 116 -224zM-4 -68c0 24 17 41 41 41s41 -17 41 -41s-17 -41 -41 -41s-41 17 -41 41z" />
    <glyph glyph-name="uni0925093C" horiz-adv-x="628" 
d="M162 327l-59 -17c5 -43 48 -144 169 -144c129 0 194 93 194 199v269h182v-52h-125v-582h-58v203h-4c-25 -40 -88 -92 -190 -92c-145 0 -230 108 -238 235l92 27c151 43 175 84 175 141c0 45 -29 75 -76 75c-43 0 -75 -26 -75 -71c0 -22 14 -49 30 -62l-57 -17
c-14 13 -32 42 -32 82c0 67 56 123 134 123c82 0 135 -56 135 -132c0 -86 -64 -147 -197 -185zM86 -5c0 24 17 41 41 41s41 -17 41 -41s-17 -41 -41 -41s-41 17 -41 41z" />
    <glyph glyph-name="uni0926093C" horiz-adv-x="513" 
d="M385 431l-162 -40c-84 -21 -111 -58 -111 -114c0 -76 60 -142 150 -142c44 0 79 11 96 26v103l46 17c18 -8 43 -36 43 -74c0 -40 -18 -68 -33 -81l106 -138l-71 -18l-75 132c-27 -14 -66 -22 -103 -22c-143 0 -221 107 -221 201c0 82 52 135 148 159l129 32v110h-347v52
h553v-52h-148v-151zM79 -26c0 24 17 41 41 41s41 -17 41 -41s-17 -41 -41 -41s-41 17 -41 41z" />
    <glyph glyph-name="uni0927093C" horiz-adv-x="627" 
d="M127 52c24 0 41 -17 41 -41s-17 -41 -41 -41s-41 17 -41 41s17 41 41 41zM647 634v-52h-125v-582h-58v208h-4c-20 -30 -78 -85 -187 -85c-125 0 -183 75 -183 149c0 62 43 100 84 111v4c-47 7 -91 42 -91 106c0 47 29 76 50 85v4h-153v52h255l9 -51
c-54 -5 -99 -35 -99 -88c0 -46 34 -83 115 -83h62v-54h-61c-74 0 -109 -34 -109 -85c0 -46 33 -95 122 -95c128 0 191 85 191 178v226h-123v52h305z" />
    <glyph glyph-name="uni0928093C" unicode="&#x929;" horiz-adv-x="502" 
d="M126 242l-41 -12c-32 23 -53 73 -54 115l45 38h263v199h-359v52h542v-52h-125v-582h-58v329h-213v-87zM56 60c0 24 17 41 41 41s41 -17 41 -41s-17 -41 -41 -41s-41 17 -41 41z" />
    <glyph glyph-name="uni092A093C" horiz-adv-x="554" 
d="M86 41c0 24 17 41 41 41s41 -17 41 -41s-17 -41 -41 -41s-41 17 -41 41zM391 268h-4c-20 -34 -61 -66 -137 -66c-87 0 -160 51 -160 159v221h-110v52h594v-52h-125v-582h-58v268zM391 409v173h-243v-211c0 -83 40 -114 108 -114c88 0 135 62 135 152z" />
    <glyph glyph-name="uni092B093C" unicode="&#x95e;" horiz-adv-x="785" 
d="M375 264h-4c-17 -30 -58 -65 -129 -65c-86 0 -152 52 -152 158v225h-110v52h825v-52h-372v-184h4c17 25 64 65 138 65c91 0 166 -66 166 -166c0 -115 -92 -190 -206 -176l-9 57c97 -17 153 41 153 118c0 67 -45 111 -113 111c-74 0 -133 -58 -133 -149v-258h-58v264z
M376 406v176h-228v-216c0 -81 36 -112 97 -112c77 0 131 57 131 152zM108 41c0 24 17 41 41 41s41 -17 41 -41s-17 -41 -41 -41s-41 17 -41 41z" />
    <glyph glyph-name="uni092C093C" horiz-adv-x="561" 
d="M115 29c24 0 41 -17 41 -41s-17 -41 -41 -41s-41 17 -41 41s17 41 41 41zM345 194l-214 178c-13 -20 -21 -45 -21 -74c0 -77 52 -136 137 -136c39 0 73 12 98 32zM-20 634h601v-52h-125v-582h-58v176h-4c-22 -29 -71 -69 -154 -69c-104 0 -190 77 -190 189
c0 115 96 193 206 193c21 0 47 -2 66 -8l2 -57c-21 8 -44 11 -66 11c-34 0 -66 -10 -92 -27l212 -177c13 22 20 47 20 76v275h-418v52z" />
    <glyph glyph-name="uni092D093C" horiz-adv-x="571" 
d="M141 72c24 0 41 -17 41 -41s-17 -41 -41 -41s-41 17 -41 41s17 41 41 41zM296 634h295v-52h-125v-582h-58v289h-231v-103h-67c-32 27 -49 74 -50 115l59 41v165c0 53 -24 75 -79 75h-60v52h63c84 0 134 -45 134 -122v-169h231v239h-112v52z" />
    <glyph glyph-name="uni092E093C" horiz-adv-x="571" 
d="M147 72c24 0 41 -17 41 -41s-17 -41 -41 -41s-41 17 -41 41s17 41 41 41zM408 343v239h-231v-239h231zM-20 634h611v-52h-125v-582h-58v289h-231v-103h-67c-32 27 -49 74 -50 115l59 41v240h-139v52z" />
    <glyph glyph-name="uni092F093C" unicode="&#x95f;" horiz-adv-x="605" 
d="M442 222h-4c-16 -23 -63 -78 -164 -78c-115 0 -205 82 -224 222c96 22 147 56 147 118c0 40 -19 75 -47 98h-170v52h645v-52h-125v-582h-58v222zM120 335c8 -53 53 -136 162 -136c91 0 161 63 161 178v205h-225v-4c22 -25 40 -55 40 -103c0 -69 -58 -120 -138 -140z
M86 31c0 24 17 41 41 41s41 -17 41 -41s-17 -41 -41 -41s-41 17 -41 41z" />
    <glyph glyph-name="uni0930093C" unicode="&#x931;" horiz-adv-x="392" 
d="M133 280l-2 -3c22 -26 42 -49 66 -81l123 -163l-47 -32l-251 335l44 35c14 -15 44 -43 95 -43c49 0 73 21 73 70v184h-254v52h432v-52h-120v-192c0 -79 -56 -115 -119 -115c-9 0 -29 1 -40 5zM-33 62c0 24 17 41 41 41s41 -17 41 -41s-17 -41 -41 -41s-41 17 -41 41z" />
    <glyph glyph-name="uni0932093C" horiz-adv-x="707" 
d="M540 414h4v168h-564v52h747v-52h-125v-582h-58v356c-16 17 -50 38 -88 38c-52 0 -90 -35 -90 -107v-95h-58v94c0 69 -35 104 -90 104c-53 0 -97 -38 -97 -121c0 -99 57 -178 152 -229l-42 -43c-89 48 -171 146 -171 273c0 112 74 175 154 175c66 0 108 -33 122 -81h4
c15 54 59 85 112 85c44 0 74 -19 88 -35zM17 -69c0 24 17 41 41 41s41 -17 41 -41s-17 -41 -41 -41s-41 17 -41 41z" />
    <glyph glyph-name="uni0933093C" unicode="&#x934;" horiz-adv-x="734" 
d="M361 36c24 0 41 -17 41 -41s-17 -41 -41 -41s-41 17 -41 41s17 41 41 41zM390 244l-5 -14c26 -50 59 -94 129 -94c64 0 108 49 108 135c0 73 -36 136 -104 136c-83 0 -100 -81 -128 -163zM348 298l5 15c-25 49 -64 92 -126 92c-64 0 -110 -52 -110 -134
c0 -73 32 -137 100 -137c83 0 106 81 131 164zM754 582h-210v-122c83 -11 138 -82 138 -185c0 -118 -72 -193 -173 -193c-79 0 -127 51 -149 89c-28 -51 -70 -91 -148 -91c-94 0 -155 75 -155 187c0 111 67 192 175 192c76 0 123 -50 145 -87c22 42 55 75 109 86v124h-506
v52h774v-52z" />
    <glyph glyph-name="uni0935093C" horiz-adv-x="541" 
d="M436 582v-582h-58v186h-4c-21 -28 -68 -65 -146 -65c-93 0 -178 70 -178 179c0 141 129 195 234 175l6 -57c-92 23 -178 -22 -178 -116c0 -71 49 -126 126 -126c85 0 140 66 140 152v254h-398v52h581v-52h-125zM66 -2c0 24 17 41 41 41s41 -17 41 -41s-17 -41 -41 -41
s-41 17 -41 41z" />
    <glyph glyph-name="uni0936093C" horiz-adv-x="703" 
d="M219 441l-36 -44c-53 15 -83 61 -83 115c0 73 58 132 145 132c105 0 162 -84 162 -175c0 -146 -127 -226 -284 -213l-2 -4c27 -26 45 -39 93 -86l143 -140l-48 -33l-227 224l-66 58l37 49c32 -10 72 -15 102 -15c108 0 192 59 192 160c0 80 -51 121 -102 121
c-53 0 -85 -32 -85 -78c0 -31 19 -62 59 -71zM540 0v634h183v-52h-125v-582h-58zM36 11c0 24 17 41 41 41s41 -17 41 -41s-17 -41 -41 -41s-41 17 -41 41z" />
    <glyph glyph-name="uni0937093C" horiz-adv-x="565" 
d="M402 268h-4c-19 -34 -61 -71 -142 -71c-87 0 -166 51 -166 159v226h-110v52h605v-52h-125v-582h-58v268zM262 250c48 0 86 17 111 49l-160 153l-70 66l3 -91v-63c0 -83 48 -114 116 -114zM404 399v183h-261l252 -241c6 17 9 36 9 58zM96 41c0 24 17 41 41 41
s41 -17 41 -41s-17 -41 -41 -41s-41 17 -41 41z" />
    <glyph glyph-name="uni0938093C" horiz-adv-x="669" 
d="M65 52c24 0 41 -17 41 -41s-17 -41 -41 -41s-41 17 -41 41s17 41 41 41zM292 582v-202c0 -12 -1 -23 -4 -32c36 -11 80 -17 120 -17c38 0 73 5 98 11v240h-214zM-20 634h709v-52h-125v-582h-58v287c-21 -5 -52 -8 -99 -8c-49 0 -105 9 -143 22c-22 -25 -55 -36 -91 -36
c-9 0 -29 1 -40 5l-2 -3c22 -26 42 -49 66 -81l123 -163l-47 -32l-251 335l44 35c14 -15 44 -43 95 -43c49 0 73 21 73 70v194h-254v52z" />
    <glyph glyph-name="uni0939093C" horiz-adv-x="500" 
d="M81 -25c24 0 41 -17 41 -41s-17 -41 -41 -41s-41 17 -41 41s17 41 41 41zM415 419h-211c-49 0 -65 -22 -65 -50c0 -35 26 -71 60 -91c26 10 55 16 88 16c110 0 162 -63 162 -132c0 -45 -22 -79 -47 -100l-53 31c25 19 39 43 39 70c0 40 -32 75 -98 75
c-86 0 -142 -47 -142 -109c0 -77 72 -142 271 -151l-24 -53c-197 13 -308 87 -308 206c0 45 23 89 62 120c-35 23 -71 68 -71 123c0 57 40 99 114 99h166v109h-378v52h540v-52h-105v-163z" />
    <glyph glyph-name="uni0915094D" horiz-adv-x="565" 
d="M353 195h-4c-19 -27 -61 -62 -135 -62c-87 0 -164 66 -164 165c0 116 100 181 205 166l9 -55c-73 12 -152 -19 -152 -109c0 -65 45 -112 113 -112c76 0 128 54 128 135v259h-373v52h628v-52h-198v-180h4c19 27 62 62 136 62c58 0 112 -28 143 -77l-49 -39
c-19 36 -56 61 -106 61c-76 0 -128 -54 -128 -135v-274h-57v195z" />
    <glyph glyph-name="uni0916094D" horiz-adv-x="564" 
d="M584 582h-285v-169c0 -72 -46 -115 -105 -115c-32 0 -49 6 -62 13c28 -144 128 -220 248 -220c127 0 240 84 240 227c0 70 -51 118 -104 118c-58 0 -98 -38 -98 -96c0 -56 43 -99 118 -102l-33 -47c-70 3 -143 56 -143 149c0 88 67 151 154 151c99 0 162 -79 162 -174
c0 -146 -116 -281 -295 -281c-188 0 -302 142 -319 338l52 18c13 -23 33 -44 73 -44c33 0 54 18 54 64v170h-261v52h604v-52z" />
    <glyph glyph-name="uni0917094D" horiz-adv-x="332" 
d="M352 634v-52h-165v-365h-67c-31 27 -47 71 -48 112l57 40v213h-149v52h372z" />
    <glyph glyph-name="uni0918094D" horiz-adv-x="371" 
d="M269 176c103 0 174 55 207 117l36 -43c-43 -71 -126 -129 -244 -129c-125 0 -183 74 -183 147c0 62 43 100 84 111v4c-47 7 -91 44 -91 108c0 49 30 79 49 87v4h-147v52h411v-52h-145c-73 0 -106 -41 -106 -89c0 -46 34 -85 115 -85h62v-54h-61c-74 0 -109 -34 -109 -85
c0 -45 33 -93 122 -93z" />
    <glyph glyph-name="uni0919094D" horiz-adv-x="613" 
d="M245 -83l49 18l135 -158v-4h-74zM531 402c24 0 42 -18 42 -43c0 -23 -18 -41 -42 -41s-42 18 -42 41c0 25 18 43 42 43zM-20 634h653v-52h-208v-163h-180c-59 0 -75 -26 -75 -62c0 -40 33 -76 70 -86l171 34c37 -21 69 -70 69 -128c0 -88 -75 -160 -190 -160
c-107 0 -195 61 -251 162l48 34c42 -84 112 -143 203 -143c75 0 130 40 130 107c0 28 -9 52 -31 69l-161 -32c-60 19 -119 77 -119 154c0 60 42 104 109 104h150v110h-388v52z" />
    <glyph glyph-name="uni091A094D" horiz-adv-x="409" 
d="M429 634v-52h-449v52h449zM294 123c-113 0 -188 74 -188 163c0 62 34 94 52 106v4h-140v55h355v-54h-83c-77 0 -122 -45 -122 -109c0 -63 51 -110 133 -110c102 0 163 65 187 117l41 -42c-35 -59 -103 -130 -235 -130z" />
    <glyph glyph-name="uni091B094D" horiz-adv-x="672" 
d="M478 294l-36 -41c-58 12 -92 57 -92 111c0 64 51 117 124 117c84 0 139 -66 139 -150c0 -139 -126 -284 -308 -284c-135 0 -209 82 -209 172c0 68 41 108 83 124v4c-58 16 -96 64 -96 123c0 67 38 96 54 108v4h-157v52h712v-52h-426c-69 0 -121 -41 -121 -109
c0 -59 42 -99 113 -99h37v-54h-24c-69 0 -113 -37 -113 -99c0 -65 50 -119 147 -119c134 0 249 102 249 229c0 62 -35 97 -79 97c-37 0 -67 -25 -67 -64c0 -38 25 -65 70 -70z" />
    <glyph glyph-name="uni091C094D" horiz-adv-x="473" 
d="M493 634v-52h-513v52h513zM623 433v-53h-241v-4c15 -14 49 -46 49 -110c0 -76 -58 -141 -151 -141c-157 0 -234 157 -249 277l61 22c4 -118 74 -244 184 -244c61 0 95 39 95 89c0 70 -61 103 -95 112v4l27 48h320z" />
    <glyph glyph-name="uni091D094D" horiz-adv-x="542" 
d="M641 309l18 -52c-25 -17 -70 -37 -141 -37c-31 0 -59 6 -83 14c6 -16 10 -34 10 -55c0 -100 -94 -149 -176 -150l4 -2l151 -104l-65 -34l-152 138c-99 3 -144 49 -144 94c0 22 13 37 22 43l123 -87h39c72 0 140 32 140 101c0 37 -18 58 -31 67l-161 -32
c-60 19 -119 77 -119 154c0 60 42 102 109 102h158v113h-363v52h582v-52h-162v-166h-188c-59 0 -75 -24 -75 -60c0 -40 33 -76 70 -86l169 34c28 -15 77 -29 137 -29c64 0 111 22 128 34z" />
    <glyph glyph-name="uni091E094D" horiz-adv-x="493" 
d="M513 634v-52h-533v52h533zM595 347l7 -58c-16 -5 -57 -14 -110 -14c-29 0 -62 3 -90 10c-7 -101 -85 -171 -191 -171c-103 0 -169 62 -199 111l43 38c29 -44 74 -94 157 -94c68 0 130 47 130 131c0 77 -50 121 -120 121c-33 0 -58 -9 -77 -20l-21 49c20 11 51 26 101 26
c93 0 159 -55 175 -137c24 -5 53 -8 78 -8c54 0 95 9 117 16z" />
    <glyph glyph-name="uni091F094D" horiz-adv-x="494" 
d="M445 -196v-4h-74l-110 144l49 18zM-20 582v52h534v-52h-141v-165l-144 -44c-94 -29 -115 -63 -115 -122c0 -76 65 -151 168 -151c77 0 123 26 155 60l35 -47c-46 -47 -114 -68 -183 -68c-137 0 -237 104 -237 216c0 81 45 129 134 157l129 40v124h-335z" />
    <glyph glyph-name="uni0920094D" horiz-adv-x="564" 
d="M264 -56l49 18l135 -158v-4h-74zM307 399l-80 -25c-94 -29 -116 -64 -116 -124c0 -75 60 -150 165 -150c122 0 177 72 177 151c0 97 -97 140 -146 148zM584 582h-213v-146c56 -22 143 -80 143 -191c0 -115 -97 -200 -231 -200s-233 95 -233 214c0 82 47 130 136 158
l127 40v125h-333v52h604v-52z" />
    <glyph glyph-name="uni0921094D" horiz-adv-x="536" 
d="M257 -83l49 18l135 -158v-4h-74zM425 419h-180c-59 0 -75 -26 -75 -62c0 -40 33 -76 70 -86l171 34c37 -21 69 -70 69 -128c0 -88 -75 -160 -190 -160c-107 0 -195 61 -251 162l48 34c42 -84 112 -143 203 -143c75 0 130 40 130 107c0 28 -9 52 -31 69l-161 -32
c-60 19 -119 77 -119 154c0 60 42 104 109 104h150v110h-388v52h576v-52h-131v-163z" />
    <glyph glyph-name="uni0922094D" horiz-adv-x="515" 
d="M451 -196v-4h-74l-110 144l49 18zM290 99c71 0 111 39 111 90c0 33 -25 61 -61 61c-48 0 -69 -42 -60 -84l-56 22c-5 54 34 118 115 118c70 0 122 -52 122 -117c0 -76 -69 -144 -167 -144c-140 0 -244 105 -244 223c0 83 55 148 140 172l145 42v100h-355v52h555v-52h-142
v-141l-165 -45c-93 -25 -117 -74 -117 -133c0 -82 70 -164 179 -164z" />
    <glyph glyph-name="uni0923094D" horiz-adv-x="486" 
d="M342 349v233h-194v-233c0 -69 34 -109 97 -109s97 40 97 109zM506 634v-52h-106v-239c0 -101 -66 -158 -155 -158s-155 57 -155 158v239h-110v52h526z" />
    <glyph glyph-name="uni0924094D" horiz-adv-x="298" 
d="M318 634v-52h-338v52h338zM433 429v-54h-199c-73 0 -121 -45 -121 -123c0 -106 55 -178 116 -224l-50 -34c-70 56 -126 143 -126 258c0 104 70 177 169 177h211z" />
    <glyph glyph-name="uni0925094D" horiz-adv-x="423" 
d="M285 112c-148 0 -244 105 -252 234l92 27c151 44 176 86 176 142c0 45 -33 74 -78 74c-43 0 -74 -26 -74 -71c0 -22 14 -49 30 -62l-57 -17c-14 13 -32 42 -32 82c0 67 55 123 133 123c80 0 137 -55 137 -131c0 -84 -65 -148 -198 -186l-59 -17c5 -46 58 -143 183 -143
c105 0 172 54 204 113l36 -43c-41 -68 -121 -125 -241 -125z" />
    <glyph glyph-name="uni0926094D" horiz-adv-x="513" 
d="M583 -233v-4h-74l-110 144l49 18zM385 431l-162 -40c-84 -21 -111 -58 -111 -114c0 -76 60 -142 150 -142c44 0 79 11 96 26v103l46 17c18 -8 43 -36 43 -74c0 -40 -18 -68 -33 -81l106 -138l-71 -18l-75 132c-27 -14 -66 -22 -103 -22c-143 0 -221 107 -221 201
c0 82 52 135 148 159l129 32v110h-347v52h553v-52h-148v-151z" />
    <glyph glyph-name="uni0927094D" horiz-adv-x="375" 
d="M89 268c0 64 43 102 84 113v4c-47 7 -91 43 -91 107c0 47 28 77 49 86v4h-151v52h256l9 -51c-57 -6 -101 -36 -101 -89c0 -46 34 -84 115 -84h62v-54h-61c-74 0 -109 -36 -109 -87c0 -45 33 -93 122 -93c103 0 174 55 207 117l36 -43c-43 -71 -126 -129 -244 -129
c-125 0 -183 74 -183 147zM395 634v-52h-53v52h53z" />
    <glyph glyph-name="uni0928094D" horiz-adv-x="264" 
d="M284 634v-52h-304v52h304zM375 383v-54h-249v-87l-41 -12c-32 23 -53 73 -54 115l45 38h299z" />
    <glyph glyph-name="uni092A094D" horiz-adv-x="317" 
d="M250 202c-87 0 -160 51 -160 159v221h-110v52h357v-52h-189v-211c0 -83 40 -114 108 -114c85 0 130 62 149 100l40 -36c-33 -55 -88 -119 -195 -119z" />
    <glyph glyph-name="uni092B094D" horiz-adv-x="580" 
d="M566 407c-74 0 -133 -58 -133 -149v-258h-58v264h-4c-17 -30 -58 -65 -129 -65c-86 0 -152 52 -152 158v225h-110v52h620v-52h-167v-184h4c17 25 64 65 138 65c60 0 114 -29 143 -78l-49 -38c-16 37 -53 60 -103 60zM376 406v176h-228v-216c0 -81 36 -112 97 -112
c77 0 131 57 131 152z" />
    <glyph glyph-name="uni092C094D" horiz-adv-x="353" 
d="M373 634v-52h-393v52h393zM348 191l-217 181c-13 -20 -21 -45 -21 -74c0 -77 50 -135 145 -135c38 0 69 11 93 28zM423 298l45 -38c-15 -43 -73 -152 -220 -152c-115 0 -198 76 -198 188c0 115 96 193 206 193c21 0 47 -2 66 -8l2 -57c-21 8 -44 11 -66 11
c-34 0 -66 -10 -92 -27l219 -183c21 26 33 55 38 73z" />
    <glyph glyph-name="uni092D094D" horiz-adv-x="327" 
d="M347 634v-52h-51v52h51zM177 343h262v-54h-262v-103h-67c-32 27 -49 74 -50 115l59 41v165c0 53 -24 75 -79 75h-60v52h63c84 0 134 -45 134 -122v-169z" />
    <glyph glyph-name="uni092E094D" horiz-adv-x="327" 
d="M177 343h262v-54h-262v-103h-67c-32 27 -49 74 -50 115l59 41v240h-139v52h367v-52h-170v-239z" />
    <glyph glyph-name="uni092F094D" horiz-adv-x="375" 
d="M280 144c-120 0 -211 82 -230 222c96 22 147 56 147 118c0 40 -19 75 -47 98h-170v52h415v-52h-177v-4c22 -25 40 -55 40 -103c0 -69 -58 -120 -138 -140c8 -53 54 -136 168 -136c99 0 147 62 174 113l36 -43c-38 -63 -97 -125 -218 -125z" />
    <glyph glyph-name="uni0930094D" horiz-adv-x="392" 
d="M346 -244v-4h-74l-110 144l49 18zM133 280l-2 -3c22 -26 42 -49 66 -81l123 -163l-47 -32l-251 335l44 35c14 -15 44 -43 95 -43c49 0 73 21 73 70v184h-254v52h432v-52h-120v-192c0 -79 -56 -115 -119 -115c-9 0 -29 1 -40 5z" />
    <glyph glyph-name="uni0932094D" horiz-adv-x="450" 
d="M470 634v-52h-490v52h490zM214 445c66 0 108 -33 122 -81h4c15 52 61 85 118 85c61 0 105 -27 131 -57l-29 -43c-10 11 -44 45 -98 45c-58 0 -96 -38 -96 -107v-95h-58v94c0 69 -35 104 -90 104c-53 0 -97 -38 -97 -121c0 -99 57 -178 152 -229l-42 -43
c-89 48 -171 146 -171 273c0 112 74 175 154 175z" />
    <glyph glyph-name="uni0933094D" horiz-adv-x="734" 
d="M390 244l-5 -14c26 -50 59 -94 129 -94c64 0 108 49 108 135c0 73 -36 136 -104 136c-83 0 -100 -81 -128 -163zM348 298l5 15c-25 49 -64 92 -126 92c-64 0 -110 -52 -110 -134c0 -73 32 -137 100 -137c83 0 106 81 131 164zM523 461c94 0 159 -74 159 -186
c0 -118 -72 -193 -173 -193c-79 0 -127 51 -149 89c-28 -51 -70 -91 -148 -91c-94 0 -155 75 -155 187c0 111 67 192 175 192c76 0 123 -50 145 -87c27 51 69 89 146 89zM-20 634h774v-52h-774v52z" />
    <glyph glyph-name="uni0935094D" horiz-adv-x="313" 
d="M333 634v-52h-353v52h353zM232 122c-95 0 -182 67 -182 178c0 124 99 180 195 179c13 0 26 -2 39 -4l6 -57c-15 4 -30 6 -45 6c-73 1 -133 -44 -133 -122c0 -73 51 -125 127 -125c90 0 132 65 146 117l42 -39c-22 -54 -77 -133 -195 -133z" />
    <glyph glyph-name="uni0936094D" horiz-adv-x="454" 
d="M219 441l-36 -44c-53 15 -83 61 -83 115c0 73 58 132 145 132c105 0 162 -84 162 -175c0 -146 -127 -226 -284 -213l-2 -4c27 -26 45 -39 93 -86l143 -140l-48 -33l-227 224l-66 58l37 49c32 -10 72 -15 102 -15c108 0 192 59 192 160c0 80 -51 121 -102 121
c-53 0 -85 -32 -85 -78c0 -31 19 -62 59 -71z" />
    <glyph glyph-name="uni0937094D" horiz-adv-x="316" 
d="M146 427v-63c0 -83 48 -114 116 -114c51 0 87 22 112 47l-164 157l-66 67zM411 350l40 -36c-33 -55 -88 -117 -195 -117c-87 0 -166 51 -166 159v226h-110v52h356v-52h-193l259 -248c4 6 7 11 9 16z" />
    <glyph glyph-name="uni0938094D" horiz-adv-x="410" 
d="M513 343l7 -54c-23 -7 -57 -13 -113 -13c-50 0 -105 9 -144 23c-22 -23 -55 -34 -90 -34c-9 0 -29 1 -40 5l-2 -3c22 -26 42 -49 66 -81l123 -163l-47 -32l-251 335l44 35c14 -15 44 -43 95 -43c49 0 73 21 73 70v194h-254v52h450v-52h-138v-202c0 -12 -1 -23 -4 -32
c37 -11 81 -17 120 -17c44 0 80 5 105 12z" />
    <glyph glyph-name="uni0939094D" horiz-adv-x="538" 
d="M628 239h-340c-116 0 -140 -65 -140 -104c0 -77 67 -143 257 -159l-25 -53c-185 21 -293 98 -293 212c0 33 14 87 64 122c-39 24 -73 66 -73 116c0 57 44 100 113 100h171v109h-382v52h578v-52h-138v-163h-213c-51 0 -68 -21 -68 -50c0 -31 26 -67 69 -86
c22 6 47 10 77 10h343v-54z" />
    <glyph glyph-name="uni0915093C094D" horiz-adv-x="588" 
d="M353 195h-4c-19 -27 -61 -62 -135 -62c-87 0 -164 66 -164 165c0 116 100 181 205 166l9 -55c-73 12 -152 -19 -152 -109c0 -65 45 -112 113 -112c76 0 128 54 128 135v259h-373v52h628v-52h-198v-180h4c19 27 62 62 136 62c58 0 112 -28 143 -77l-49 -39
c-19 36 -56 61 -106 61c-76 0 -128 -54 -128 -135v-274h-57v195zM101 19c0 24 17 41 41 41s41 -17 41 -41s-17 -41 -41 -41s-41 17 -41 41z" />
    <glyph glyph-name="uni0916093C094D" horiz-adv-x="575" 
d="M584 582h-285v-169c0 -72 -46 -115 -105 -115c-32 0 -49 6 -62 13c28 -144 128 -220 248 -220c127 0 240 84 240 227c0 70 -51 118 -104 118c-58 0 -98 -38 -98 -96c0 -56 43 -99 118 -102l-33 -47c-70 3 -143 56 -143 149c0 88 67 151 154 151c99 0 162 -79 162 -174
c0 -146 -116 -281 -295 -281c-188 0 -302 142 -319 338l52 18c13 -23 33 -44 73 -44c33 0 54 18 54 64v170h-261v52h604v-52zM79 0c0 24 17 41 41 41s41 -17 41 -41s-17 -41 -41 -41s-41 17 -41 41z" />
    <glyph glyph-name="uni0917093C094D" horiz-adv-x="332" 
d="M155 93c24 0 41 -17 41 -41s-17 -41 -41 -41s-41 17 -41 41s17 41 41 41zM-20 634h372v-52h-165v-365h-67c-31 27 -47 71 -48 112l57 40v213h-149v52z" />
    <glyph glyph-name="uni0918093C094D" horiz-adv-x="371" 
d="M86 31c0 24 17 41 41 41s41 -17 41 -41s-17 -41 -41 -41s-41 17 -41 41zM269 176c103 0 174 55 207 117l36 -43c-43 -71 -126 -129 -244 -129c-125 0 -183 74 -183 147c0 62 43 100 84 111v4c-47 7 -91 44 -91 108c0 49 30 79 49 87v4h-147v52h411v-52h-145
c-73 0 -106 -41 -106 -89c0 -46 34 -85 115 -85h62v-54h-61c-74 0 -109 -34 -109 -85c0 -45 33 -93 122 -93z" />
    <glyph glyph-name="uni0919093C094D" horiz-adv-x="613" 
d="M63 7c24 0 41 -17 41 -41s-17 -41 -41 -41s-41 17 -41 41s17 41 41 41zM235 -87l49 18l135 -158v-4h-74zM531 402c24 0 42 -18 42 -43c0 -23 -18 -41 -42 -41s-42 18 -42 41c0 25 18 43 42 43zM-20 634h653v-52h-208v-163h-180c-59 0 -75 -26 -75 -62
c0 -40 33 -76 70 -86l171 34c37 -21 69 -70 69 -128c0 -88 -75 -160 -190 -160c-107 0 -195 61 -251 162l48 34c42 -84 112 -143 203 -143c75 0 130 40 130 107c0 28 -9 52 -31 69l-161 -32c-60 19 -119 77 -119 154c0 60 42 104 109 104h150v110h-388v52z" />
    <glyph glyph-name="uni091A093C094D" horiz-adv-x="409" 
d="M86 31c0 24 17 41 41 41s41 -17 41 -41s-17 -41 -41 -41s-41 17 -41 41zM429 634v-52h-449v52h449zM294 123c-113 0 -188 74 -188 163c0 62 34 94 52 106v4h-140v55h355v-54h-83c-77 0 -122 -45 -122 -109c0 -63 51 -110 133 -110c102 0 163 65 187 117l41 -42
c-35 -59 -103 -130 -235 -130z" />
    <glyph glyph-name="uni091B093C094D" horiz-adv-x="672" 
d="M478 294l-36 -41c-58 12 -92 57 -92 111c0 64 51 117 124 117c84 0 139 -66 139 -150c0 -139 -126 -284 -308 -284c-135 0 -209 82 -209 172c0 68 41 108 83 124v4c-58 16 -96 64 -96 123c0 67 38 96 54 108v4h-157v52h712v-52h-426c-69 0 -121 -41 -121 -109
c0 -59 42 -99 113 -99h37v-54h-24c-69 0 -113 -37 -113 -99c0 -65 50 -119 147 -119c134 0 249 102 249 229c0 62 -35 97 -79 97c-37 0 -67 -25 -67 -64c0 -38 25 -65 70 -70zM296 -69c0 24 17 41 41 41s41 -17 41 -41s-17 -41 -41 -41s-41 17 -41 41z" />
    <glyph glyph-name="uni091C093C094D" horiz-adv-x="473" 
d="M78 29c0 24 17 41 41 41s41 -17 41 -41s-17 -41 -41 -41s-41 17 -41 41zM493 634v-52h-513v52h513zM623 433v-53h-241v-4c15 -14 49 -46 49 -110c0 -76 -58 -141 -151 -141c-157 0 -234 157 -249 277l61 22c4 -118 74 -244 184 -244c61 0 95 39 95 89
c0 70 -61 103 -95 112v4l27 48h320z" />
    <glyph glyph-name="uni091D093C094D" horiz-adv-x="542" 
d="M112 -42c24 0 41 -17 41 -41s-17 -41 -41 -41s-41 17 -41 41s17 41 41 41zM641 309l18 -52c-25 -17 -70 -37 -141 -37c-31 0 -59 6 -83 14c6 -16 10 -34 10 -55c0 -100 -94 -149 -176 -150l4 -2l151 -104l-65 -34l-152 138c-99 3 -144 49 -144 94c0 22 13 37 22 43
l123 -87h39c72 0 140 32 140 101c0 37 -18 58 -31 67l-161 -32c-60 19 -119 77 -119 154c0 60 42 102 109 102h158v113h-363v52h582v-52h-162v-166h-188c-59 0 -75 -24 -75 -60c0 -40 33 -76 70 -86l169 34c28 -15 77 -29 137 -29c64 0 111 22 128 34z" />
    <glyph glyph-name="uni091E093C094D" horiz-adv-x="493" 
d="M513 634v-52h-533v52h533zM117 41c24 0 41 -17 41 -41s-17 -41 -41 -41s-41 17 -41 41s17 41 41 41zM595 347l7 -58c-16 -5 -57 -14 -110 -14c-29 0 -62 3 -90 10c-7 -101 -85 -171 -191 -171c-103 0 -169 62 -199 111l43 38c29 -44 74 -94 157 -94c68 0 130 47 130 131
c0 77 -50 121 -120 121c-33 0 -58 -9 -77 -20l-21 49c20 11 51 26 101 26c93 0 159 -55 175 -137c24 -5 53 -8 78 -8c54 0 95 9 117 16z" />
    <glyph glyph-name="uni091F093C094D" horiz-adv-x="494" 
d="M427 -227v-4h-74l-110 144l49 18zM-20 582v52h534v-52h-141v-165l-144 -44c-94 -29 -115 -63 -115 -122c0 -76 65 -151 168 -151c77 0 123 26 155 60l35 -47c-46 -47 -114 -68 -183 -68c-137 0 -237 104 -237 216c0 81 45 129 134 157l129 40v124h-335zM45 -35
c0 24 17 41 41 41s41 -17 41 -41s-17 -41 -41 -41s-41 17 -41 41z" />
    <glyph glyph-name="uni0920093C094D" horiz-adv-x="564" 
d="M91 9c24 0 41 -17 41 -41s-17 -41 -41 -41s-41 17 -41 41s17 41 41 41zM244 -87l49 18l135 -158v-4h-74zM307 399l-80 -25c-94 -29 -116 -64 -116 -124c0 -75 60 -150 165 -150c122 0 177 72 177 151c0 97 -97 140 -146 148zM584 582h-213v-146c56 -22 143 -80 143 -191
c0 -115 -97 -200 -231 -200s-233 95 -233 214c0 82 47 130 136 158l127 40v125h-333v52h604v-52z" />
    <glyph glyph-name="uni0921093C094D" horiz-adv-x="536" 
d="M63 7c24 0 41 -17 41 -41s-17 -41 -41 -41s-41 17 -41 41s17 41 41 41zM237 -87l49 18l135 -158v-4h-74zM425 419h-180c-59 0 -75 -26 -75 -62c0 -40 33 -76 70 -86l171 34c37 -21 69 -70 69 -128c0 -88 -75 -160 -190 -160c-107 0 -195 61 -251 162l48 34
c42 -84 112 -143 203 -143c75 0 130 40 130 107c0 28 -9 52 -31 69l-161 -32c-60 19 -119 77 -119 154c0 60 42 104 109 104h150v110h-388v52h576v-52h-131v-163z" />
    <glyph glyph-name="uni0922093C094D" horiz-adv-x="515" 
d="M422 -227v-4h-74l-110 144l49 18zM290 99c71 0 111 39 111 90c0 33 -25 61 -61 61c-48 0 -69 -42 -60 -84l-56 22c-5 54 34 118 115 118c70 0 122 -52 122 -117c0 -76 -69 -144 -167 -144c-140 0 -244 105 -244 223c0 83 55 148 140 172l145 42v100h-355v52h555v-52h-142
v-141l-165 -45c-93 -25 -117 -74 -117 -133c0 -82 70 -164 179 -164zM38 -14c0 24 17 41 41 41s41 -17 41 -41s-17 -41 -41 -41s-41 17 -41 41z" />
    <glyph glyph-name="uni0923093C094D" horiz-adv-x="486" 
d="M257 72c24 0 41 -17 41 -41s-17 -41 -41 -41s-41 17 -41 41s17 41 41 41zM342 349v233h-194v-233c0 -69 34 -109 97 -109s97 40 97 109zM506 634v-52h-106v-239c0 -101 -66 -158 -155 -158s-155 57 -155 158v239h-110v52h526z" />
    <glyph glyph-name="uni0924093C094D" horiz-adv-x="298" 
d="M318 634v-52h-338v52h338zM433 429v-54h-199c-73 0 -121 -45 -121 -123c0 -106 55 -178 116 -224l-50 -34c-70 56 -126 143 -126 258c0 104 70 177 169 177h211zM-4 -68c0 24 17 41 41 41s41 -17 41 -41s-17 -41 -41 -41s-41 17 -41 41z" />
    <glyph glyph-name="uni0925093C094D" horiz-adv-x="423" 
d="M285 112c-148 0 -244 105 -252 234l92 27c151 44 176 86 176 142c0 45 -33 74 -78 74c-43 0 -74 -26 -74 -71c0 -22 14 -49 30 -62l-57 -17c-14 13 -32 42 -32 82c0 67 55 123 133 123c80 0 137 -55 137 -131c0 -84 -65 -148 -198 -186l-59 -17c5 -46 58 -143 183 -143
c105 0 172 54 204 113l36 -43c-41 -68 -121 -125 -241 -125zM86 -5c0 24 17 41 41 41s41 -17 41 -41s-17 -41 -41 -41s-41 17 -41 41z" />
    <glyph glyph-name="uni0926093C094D" horiz-adv-x="513" 
d="M583 -233v-4h-74l-110 144l49 18zM385 431l-162 -40c-84 -21 -111 -58 -111 -114c0 -76 60 -142 150 -142c44 0 79 11 96 26v103l46 17c18 -8 43 -36 43 -74c0 -40 -18 -68 -33 -81l106 -138l-71 -18l-75 132c-27 -14 -66 -22 -103 -22c-143 0 -221 107 -221 201
c0 82 52 135 148 159l129 32v110h-347v52h553v-52h-148v-151zM79 -26c0 24 17 41 41 41s41 -17 41 -41s-17 -41 -41 -41s-41 17 -41 41z" />
    <glyph glyph-name="uni0927093C094D" horiz-adv-x="375" 
d="M89 268c0 64 43 102 84 113v4c-47 7 -91 43 -91 107c0 47 28 77 49 86v4h-151v52h256l9 -51c-57 -6 -101 -36 -101 -89c0 -46 34 -84 115 -84h62v-54h-61c-74 0 -109 -36 -109 -87c0 -45 33 -93 122 -93c103 0 174 55 207 117l36 -43c-43 -71 -126 -129 -244 -129
c-125 0 -183 74 -183 147zM395 634v-52h-53v52h53zM86 11c0 24 17 41 41 41s41 -17 41 -41s-17 -41 -41 -41s-41 17 -41 41z" />
    <glyph glyph-name="uni0928093C094D" horiz-adv-x="264" 
d="M284 634v-52h-304v52h304zM375 383v-54h-249v-87l-41 -12c-32 23 -53 73 -54 115l45 38h299zM56 60c0 24 17 41 41 41s41 -17 41 -41s-17 -41 -41 -41s-41 17 -41 41z" />
    <glyph glyph-name="uni092A093C094D" horiz-adv-x="317" 
d="M250 202c-87 0 -160 51 -160 159v221h-110v52h357v-52h-189v-211c0 -83 40 -114 108 -114c85 0 130 62 149 100l40 -36c-33 -55 -88 -119 -195 -119zM86 41c0 24 17 41 41 41s41 -17 41 -41s-17 -41 -41 -41s-41 17 -41 41z" />
    <glyph glyph-name="uni092B093C094D" horiz-adv-x="580" 
d="M566 407c-74 0 -133 -58 -133 -149v-258h-58v264h-4c-17 -30 -58 -65 -129 -65c-86 0 -152 52 -152 158v225h-110v52h620v-52h-167v-184h4c17 25 64 65 138 65c60 0 114 -29 143 -78l-49 -38c-16 37 -53 60 -103 60zM376 406v176h-228v-216c0 -81 36 -112 97 -112
c77 0 131 57 131 152zM108 41c0 24 17 41 41 41s41 -17 41 -41s-17 -41 -41 -41s-41 17 -41 41z" />
    <glyph glyph-name="uni092C093C094D" horiz-adv-x="353" 
d="M373 634v-52h-393v52h393zM115 29c24 0 41 -17 41 -41s-17 -41 -41 -41s-41 17 -41 41s17 41 41 41zM348 191l-217 181c-13 -20 -21 -45 -21 -74c0 -77 50 -135 145 -135c38 0 69 11 93 28zM423 298l45 -38c-15 -43 -73 -152 -220 -152c-115 0 -198 76 -198 188
c0 115 96 193 206 193c21 0 47 -2 66 -8l2 -57c-21 8 -44 11 -66 11c-34 0 -66 -10 -92 -27l219 -183c21 26 33 55 38 73z" />
    <glyph glyph-name="uni092D093C094D" horiz-adv-x="327" 
d="M347 634v-52h-51v52h51zM141 72c24 0 41 -17 41 -41s-17 -41 -41 -41s-41 17 -41 41s17 41 41 41zM177 343h262v-54h-262v-103h-67c-32 27 -49 74 -50 115l59 41v165c0 53 -24 75 -79 75h-60v52h63c84 0 134 -45 134 -122v-169z" />
    <glyph glyph-name="uni092E093C094D" horiz-adv-x="327" 
d="M147 72c24 0 41 -17 41 -41s-17 -41 -41 -41s-41 17 -41 41s17 41 41 41zM177 343h262v-54h-262v-103h-67c-32 27 -49 74 -50 115l59 41v240h-139v52h367v-52h-170v-239z" />
    <glyph glyph-name="uni092F093C094D" horiz-adv-x="375" 
d="M280 144c-120 0 -211 82 -230 222c96 22 147 56 147 118c0 40 -19 75 -47 98h-170v52h415v-52h-177v-4c22 -25 40 -55 40 -103c0 -69 -58 -120 -138 -140c8 -53 54 -136 168 -136c99 0 147 62 174 113l36 -43c-38 -63 -97 -125 -218 -125zM86 31c0 24 17 41 41 41
s41 -17 41 -41s-17 -41 -41 -41s-41 17 -41 41z" />
    <glyph glyph-name="uni0930093C094D" horiz-adv-x="392" 
d="M133 280l-2 -3c22 -26 42 -49 66 -81l123 -163l-47 -32l-251 335l44 35c14 -15 44 -43 95 -43c49 0 73 21 73 70v184h-254v52h432v-52h-120v-192c0 -79 -56 -115 -119 -115c-9 0 -29 1 -40 5zM350 -227v-4h-74l-110 144l49 18zM-33 62c0 24 17 41 41 41s41 -17 41 -41
s-17 -41 -41 -41s-41 17 -41 41z" />
    <glyph glyph-name="uni0932093C094D" horiz-adv-x="450" 
d="M470 634v-52h-490v52h490zM214 445c66 0 108 -33 122 -81h4c15 52 61 85 118 85c61 0 105 -27 131 -57l-29 -43c-10 11 -44 45 -98 45c-58 0 -96 -38 -96 -107v-95h-58v94c0 69 -35 104 -90 104c-53 0 -97 -38 -97 -121c0 -99 57 -178 152 -229l-42 -43
c-89 48 -171 146 -171 273c0 112 74 175 154 175zM17 -69c0 24 17 41 41 41s41 -17 41 -41s-17 -41 -41 -41s-41 17 -41 41z" />
    <glyph glyph-name="uni0933093C094D" horiz-adv-x="734" 
d="M361 56c24 0 41 -17 41 -41s-17 -41 -41 -41s-41 17 -41 41s17 41 41 41zM390 244l-5 -14c26 -50 59 -94 129 -94c64 0 108 49 108 135c0 73 -36 136 -104 136c-83 0 -100 -81 -128 -163zM348 298l5 15c-25 49 -64 92 -126 92c-64 0 -110 -52 -110 -134
c0 -73 32 -137 100 -137c83 0 106 81 131 164zM523 461c94 0 159 -74 159 -186c0 -118 -72 -193 -173 -193c-79 0 -127 51 -149 89c-28 -51 -70 -91 -148 -91c-94 0 -155 75 -155 187c0 111 67 192 175 192c76 0 123 -50 145 -87c27 51 69 89 146 89zM-20 634h774v-52h-774
v52z" />
    <glyph glyph-name="uni0935093C094D" horiz-adv-x="313" 
d="M333 634v-52h-353v52h353zM232 122c-95 0 -182 67 -182 178c0 124 99 180 195 179c13 0 26 -2 39 -4l6 -57c-15 4 -30 6 -45 6c-73 1 -133 -44 -133 -122c0 -73 51 -125 127 -125c90 0 132 65 146 117l42 -39c-22 -54 -77 -133 -195 -133zM66 -2c0 24 17 41 41 41
s41 -17 41 -41s-17 -41 -41 -41s-41 17 -41 41z" />
    <glyph glyph-name="uni0936093C094D" horiz-adv-x="454" 
d="M219 441l-36 -44c-53 15 -83 61 -83 115c0 73 58 132 145 132c105 0 162 -84 162 -175c0 -146 -127 -226 -284 -213l-2 -4c27 -26 45 -39 93 -86l143 -140l-48 -33l-227 224l-66 58l37 49c32 -10 72 -15 102 -15c108 0 192 59 192 160c0 80 -51 121 -102 121
c-53 0 -85 -32 -85 -78c0 -31 19 -62 59 -71zM36 11c0 24 17 41 41 41s41 -17 41 -41s-17 -41 -41 -41s-41 17 -41 41z" />
    <glyph glyph-name="uni0937093C094D" horiz-adv-x="316" 
d="M137 82c24 0 41 -17 41 -41s-17 -41 -41 -41s-41 17 -41 41s17 41 41 41zM146 427v-63c0 -83 48 -114 116 -114c51 0 87 22 112 47l-164 157l-66 67zM411 350l40 -36c-33 -55 -88 -117 -195 -117c-87 0 -166 51 -166 159v226h-110v52h356v-52h-193l259 -248
c4 6 7 11 9 16z" />
    <glyph glyph-name="uni0938093C094D" horiz-adv-x="410" 
d="M65 52c24 0 41 -17 41 -41s-17 -41 -41 -41s-41 17 -41 41s17 41 41 41zM513 343l7 -54c-23 -7 -57 -13 -113 -13c-50 0 -105 9 -144 23c-22 -23 -55 -34 -90 -34c-9 0 -29 1 -40 5l-2 -3c22 -26 42 -49 66 -81l123 -163l-47 -32l-251 335l44 35c14 -15 44 -43 95 -43
c49 0 73 21 73 70v194h-254v52h450v-52h-138v-202c0 -12 -1 -23 -4 -32c37 -11 81 -17 120 -17c44 0 80 5 105 12z" />
    <glyph glyph-name="uni0939093C094D" horiz-adv-x="500" 
d="M81 -25c24 0 41 -17 41 -41s-17 -41 -41 -41s-41 17 -41 41s17 41 41 41zM246 -137l49 18l135 -158v-4h-74zM415 419h-211c-49 0 -65 -22 -65 -50c0 -35 26 -71 60 -91c26 10 55 16 88 16c110 0 162 -63 162 -132c0 -45 -22 -79 -47 -100l-53 31c25 19 39 43 39 70
c0 40 -32 75 -98 75c-86 0 -142 -47 -142 -109c0 -77 72 -142 271 -151l-24 -53c-197 13 -308 87 -308 206c0 45 23 89 62 120c-35 23 -71 68 -71 123c0 57 40 99 114 99h166v109h-378v52h540v-52h-105v-163z" />
    <glyph glyph-name="uni0915094D0937" horiz-adv-x="740" 
d="M334 373c23 -5 52 -5 80 -5c60 0 133 12 163 28v238h183v-52h-125v-582h-58v334c-50 -13 -105 -17 -151 -17c-63 0 -119 9 -165 25c-92 -36 -156 -66 -156 -144c0 -63 53 -116 142 -116c44 0 76 10 93 25v103l46 17c18 -8 43 -36 43 -74c0 -40 -18 -68 -33 -81l88 -137
l-73 -11l-55 124c-27 -14 -63 -21 -100 -21c-141 0 -211 86 -211 176c0 85 73 134 154 170c-50 33 -78 79 -78 134c0 79 60 137 152 137c91 0 145 -58 145 -136c0 -64 -35 -105 -84 -131v-4zM180 507c0 -47 30 -87 80 -111c63 27 99 58 99 112c0 49 -33 83 -88 83
c-57 0 -91 -33 -91 -84z" />
    <glyph glyph-name="uni091C094D091E" horiz-adv-x="692" 
d="M311 225c0 101 -124 153 -202 173v4l26 48h394v132h-549v52h732v-52h-125v-582h-58v397h-303v-4c49 -19 146 -71 146 -173c0 -87 -71 -143 -165 -143c-6 0 -14 0 -20 1l147 -127l-69 -27l-140 156c-78 7 -114 49 -114 90c0 25 9 41 24 51l100 -92c18 -5 36 -7 52 -7
c73 0 124 38 124 103z" />
    <glyph glyph-name="uni0915094D0937094D" horiz-adv-x="470" 
d="M622 351c-49 -21 -115 -34 -196 -34c-63 0 -119 9 -165 25c-92 -36 -156 -66 -156 -144c0 -63 53 -116 142 -116c44 0 76 10 93 25v103l46 17c18 -8 43 -36 43 -74c0 -40 -18 -68 -33 -81l88 -137l-73 -11l-55 124c-27 -14 -63 -21 -100 -21c-141 0 -211 86 -211 176
c0 85 73 134 154 170c-50 33 -78 79 -78 134c0 79 60 137 152 137c91 0 145 -58 145 -136c0 -64 -35 -105 -84 -131v-4c23 -5 52 -5 80 -5c77 0 145 13 192 37zM180 507c0 -47 30 -87 80 -111c63 27 99 58 99 112c0 49 -33 83 -88 83c-57 0 -91 -33 -91 -84z" />
    <glyph glyph-name="uni091C094D091E094D" horiz-adv-x="437" 
d="M456 634v-52h-476v52h476zM556 450v-53h-330v-4c49 -19 146 -71 146 -173c0 -87 -71 -143 -165 -143c-6 0 -14 0 -20 1l147 -127l-69 -27l-140 156c-78 7 -114 49 -114 90c0 25 9 41 24 51l100 -92c18 -5 36 -7 52 -7c73 0 124 38 124 103c0 101 -124 153 -202 173v4
l26 48h421z" />
    <glyph glyph-name="uni097B" unicode="&#x97b;" horiz-adv-x="546" 
d="M-20 634h586v-52h-125v-582h-345v53h287v529h-196v-365h-67c-31 27 -47 71 -48 112l57 40v213h-149v52z" />
    <glyph glyph-name="uni097C" unicode="&#x97c;" horiz-adv-x="733" 
d="M-20 634h773v-52h-125v-582h-550v53h492v347h-188v-4c15 -14 49 -46 49 -110c0 -76 -58 -141 -151 -141c-157 0 -234 157 -249 277l61 22c4 -118 74 -244 184 -244c61 0 95 39 95 89c0 70 -61 103 -95 112v4l27 48h267v129h-590v52z" />
    <glyph glyph-name="uni097E" unicode="&#x97e;" horiz-adv-x="545" 
d="M297 116c-105 0 -191 41 -248 114l40 35c37 -53 108 -96 205 -96c82 0 121 38 121 92c0 21 -8 37 -19 45l-180 -28c-63 13 -108 65 -108 126c0 49 33 94 97 94h164v84h-399v52h605v-52h-152v-134h-199c-43 0 -58 -24 -58 -53c0 -30 22 -59 57 -65l193 31
c31 -16 54 -57 54 -100c0 -95 -78 -145 -173 -145zM486 53v-53h-406v53h406z" />
    <glyph glyph-name="uni097F" unicode="&#x97f;" horiz-adv-x="561" 
d="M345 218l-216 163c-12 -18 -19 -41 -19 -68c0 -77 52 -126 137 -126c38 0 72 11 98 31zM-20 634h601v-52h-125v-582h-377v53h319v148h-4c-22 -29 -71 -69 -154 -69c-104 0 -190 67 -190 179c0 115 96 184 206 184c21 0 47 -2 66 -8l2 -57c-21 8 -44 11 -66 11
c-34 0 -67 -8 -93 -25l213 -160c13 21 20 47 20 76v250h-418v52z" />
    <glyph glyph-name="uni0979" unicode="&#x979;" horiz-adv-x="733" 
d="M276 381v4l27 48h267v149h-590v52h773v-52h-125v-582h-58v380h-188v-4c15 -14 49 -46 49 -110c0 -76 -58 -141 -151 -141c-157 0 -234 157 -249 277l61 22c4 -118 74 -244 184 -244c61 0 95 39 95 89c0 70 -61 103 -95 112zM158 36c0 20 13 33 33 33c19 0 33 -13 33 -33
c0 -19 -14 -33 -33 -33c-20 0 -33 14 -33 33zM337 36c0 20 13 33 33 33c19 0 33 -13 33 -33c0 -19 -14 -33 -33 -33c-20 0 -33 14 -33 33zM249 -78c0 20 13 33 33 33c19 0 33 -13 33 -33c0 -19 -14 -33 -33 -33c-20 0 -33 14 -33 33z" />
    <glyph glyph-name="uni097A" unicode="&#x97a;" horiz-adv-x="605" 
d="M407 257l-151 198c-10 -59 -64 -102 -136 -120c8 -53 53 -136 162 -136c51 0 96 20 125 58zM218 582v-4c7 -7 13 -15 18 -24l194 -255c8 22 13 48 13 78v205h-225zM-20 634h645v-52h-125v-582h-58v222h-4c-16 -23 -63 -78 -164 -78c-115 0 -205 82 -224 222
c96 22 147 56 147 118c0 40 -19 75 -47 98h-170v52z" />
    <glyph glyph-name="uni0978" unicode="&#x978;" horiz-adv-x="505" 
d="M525 582h-352v-201h114c100 0 160 -59 160 -148c0 -86 -43 -186 -70 -233h-64c27 51 76 144 76 233c0 63 -36 94 -102 94h-114v-94h-67c-28 25 -45 72 -46 109l55 38v202h-139v52h549v-52z" />
    <glyph glyph-name="uni200B" unicode="&#x200b;" 
 />
    <glyph glyph-name="uni200C" unicode="&#x200c;" 
d="M24 -230h-47v1041h47v-1041z" />
    <glyph glyph-name="uni200D" unicode="&#x200d;" 
d="M129 593l-33 -33l-72 75v-865h-47v865l-69 -73l-33 33l93 93l-95 95l33 33l95 -95l96 95l32 -32l-96 -96z" />
    <glyph glyph-name="uni25CC" unicode="&#x25cc;" horiz-adv-x="660" 
d="M139 517c0 25 18 44 44 44s44 -19 44 -44c0 -26 -18 -45 -44 -45s-44 19 -44 45zM57 407c0 25 20 44 46 44c24 0 44 -19 44 -44s-20 -44 -44 -44c-26 0 -46 19 -46 44zM44 281c0 26 19 45 44 45c26 0 44 -19 44 -45c0 -25 -18 -43 -44 -43c-25 0 -44 18 -44 43zM96 165
c0 25 18 44 44 44c25 0 44 -19 44 -44c0 -26 -19 -44 -44 -44c-26 0 -44 18 -44 44zM197 90c0 24 19 44 45 44c25 0 44 -20 44 -44c0 -26 -19 -46 -44 -46c-26 0 -45 20 -45 46zM324 74c0 26 18 44 44 44s45 -18 45 -44s-19 -44 -45 -44s-44 18 -44 44zM445 127
c0 25 19 44 44 44s45 -19 45 -44c0 -26 -20 -44 -45 -44s-44 18 -44 44zM518 225c0 26 19 45 45 45c24 0 43 -19 43 -45c0 -25 -19 -44 -43 -44c-26 0 -45 19 -45 44zM528 359c0 26 18 44 44 44c25 0 44 -18 44 -44s-19 -44 -44 -44c-26 0 -44 18 -44 44zM478 477
c0 26 19 45 44 45c26 0 44 -19 44 -45c0 -25 -18 -44 -44 -44c-25 0 -44 19 -44 44zM383 545c0 26 19 45 45 45c25 0 43 -19 43 -45c0 -24 -18 -44 -43 -44c-26 0 -45 20 -45 44zM257 560c0 26 18 44 44 44s44 -18 44 -44s-18 -44 -44 -44s-44 18 -44 44z" />
    <glyph glyph-name="uni20A8" unicode="&#x20a8;" horiz-adv-x="1031" 
d="M909 141c0 134 -277 78 -277 261c0 75 63 145 180 145c55 0 114 -19 147 -52l-38 -44c-27 28 -72 42 -111 42c-85 0 -120 -42 -120 -90c0 -133 277 -78 277 -262c0 -75 -64 -150 -186 -150c-82 0 -147 30 -183 65l38 46c35 -35 86 -57 148 -57c83 0 125 44 125 96z
M98 701h162c143 0 231 -57 231 -195c0 -113 -76 -182 -161 -190v-4c26 -11 52 -33 83 -86l135 -226h-72l-130 223c-30 51 -65 76 -121 76h-67v-299h-60v701zM158 645v-291h99c101 0 172 39 172 145c0 107 -63 146 -179 146h-92z" />
    <glyph glyph-name="uni20B9" unicode="&#x20b9;" horiz-adv-x="461" 
d="M264 595v-4c18 -12 39 -34 48 -72h140l-25 -53h-109c-4 -119 -106 -179 -207 -173l-1 -3c26 -28 51 -60 75 -89l159 -194v-7h-67l-191 242l-51 57l16 49c113 -25 206 10 213 118h-223v53h217c-17 51 -65 76 -112 76h-105v53h411l-25 -53h-163z" />
    <glyph glyph-name="uni0902" unicode="&#x902;" 
d="M-182 801c0 29 21 50 48 50c28 0 48 -21 48 -50c0 -26 -20 -46 -48 -46c-27 0 -48 20 -48 46z" />
    <glyph glyph-name="uni0901" unicode="&#x901;" 
d="M-178 962c0 27 19 46 44 46s44 -19 44 -46c0 -24 -19 -42 -44 -42s-44 18 -44 42zM-134 754c-104 0 -163 53 -195 113l46 26c26 -45 75 -84 149 -84s123 39 149 84l45 -26c-32 -60 -90 -113 -194 -113z" />
    <glyph glyph-name="uni0903" unicode="&#x903;" horiz-adv-x="262" 
d="M114 442c0 29 21 50 48 50c28 0 48 -21 48 -50c0 -26 -20 -46 -48 -46c-27 0 -48 20 -48 46zM114 132c0 29 21 50 48 50c28 0 48 -21 48 -50c0 -26 -20 -46 -48 -46c-27 0 -48 20 -48 46z" />
    <glyph glyph-name="uni093D" unicode="&#x93d;" horiz-adv-x="477" 
d="M229 105c89 0 131 46 131 102c0 69 -52 93 -138 134c-67 32 -141 68 -141 160c0 82 66 133 159 133h157v-55h-154c-66 0 -102 -31 -102 -78c0 -54 47 -80 124 -118c84 -41 155 -77 155 -176c0 -90 -68 -159 -193 -159c-92 0 -164 40 -197 67l37 50c36 -32 93 -60 162 -60
z" />
    <glyph glyph-name="uni094D" unicode="&#x94d;" 
d="M20 -227v-4h-74l-110 144l49 18z" />
    <glyph glyph-name="uni093C" unicode="&#x93c;" 
d="M-311 -116c0 24 17 41 41 41s41 -17 41 -41s-17 -41 -41 -41s-41 17 -41 41z" />
    <glyph glyph-name="uni0950" unicode="&#x950;" horiz-adv-x="1223" 
d="M694 719c-27 0 -48 20 -48 46c0 29 21 50 48 50c28 0 48 -21 48 -50c0 -26 -20 -46 -48 -46zM847 692l45 -26c-32 -60 -96 -113 -200 -113s-168 53 -200 113l46 26c26 -45 80 -84 154 -84s129 39 155 84zM798 236l-10 -17c21 -62 68 -118 137 -118c67 0 122 72 122 181
c0 78 -45 128 -101 128c-62 0 -100 -87 -148 -174zM371 331v-4c50 -13 75 -49 95 -88c30 -58 50 -122 128 -122c72 0 114 69 155 146c50 96 98 204 195 204c91 0 165 -67 165 -194c0 -104 -64 -227 -179 -227c-99 0 -150 58 -178 115c-39 -56 -88 -99 -158 -99
c-74 0 -117 49 -135 84c-9 -59 -64 -124 -173 -124c-100 0 -158 59 -184 97l49 41c16 -25 56 -80 138 -80c85 0 122 56 122 112c0 55 -40 99 -111 99c-6 0 -18 -1 -24 -2l-36 -4l-9 57c95 7 150 37 150 117c0 54 -36 93 -97 93c-51 0 -77 -25 -96 -46l-42 40
c28 33 76 61 142 61c89 0 155 -61 155 -148c0 -71 -40 -110 -72 -128z" />
    <glyph glyph-name="uni0970" unicode="&#x970;" horiz-adv-x="490" 
d="M160 299c0 -57 32 -96 89 -96s85 35 85 93c0 57 -32 96 -89 96s-85 -35 -85 -93zM102 295c0 92 59 149 149 149c87 0 141 -50 141 -144c0 -92 -59 -149 -149 -149c-87 0 -141 50 -141 144z" />
    <glyph glyph-name="uni0964" unicode="&#x964;" horiz-adv-x="512" 
d="M315 0h-60v634h60v-634z" />
    <glyph glyph-name="uni0965" unicode="&#x965;" horiz-adv-x="742" 
d="M306 0h-60v634h60v-634zM576 0h-60v634h60v-634z" />
    <glyph glyph-name="uni0966" unicode="&#x966;" horiz-adv-x="440" 
d="M40 333c0 112 68 192 180 192c113 0 180 -80 180 -192c0 -111 -68 -192 -180 -192s-180 80 -180 192zM100 333c0 -77 43 -137 120 -137s120 61 120 137c0 77 -42 137 -120 137c-77 0 -120 -60 -120 -137z" />
    <glyph glyph-name="uni0967" unicode="&#x967;" horiz-adv-x="460" 
d="M145 502c0 -66 61 -106 125 -106c9 0 17 1 26 2c25 28 32 59 32 102c0 55 -42 90 -92 90c-53 0 -91 -31 -91 -88zM103 239v43c71 34 120 59 154 83c-8 -1 -18 -2 -26 -2c-65 0 -146 43 -146 139c0 83 64 142 150 142c89 0 153 -62 153 -145c0 -112 -61 -171 -217 -245
c113 -92 166 -147 166 -206c0 -20 -7 -38 -15 -48h-59v7c7 8 14 21 14 41c0 53 -61 94 -174 191z" />
    <glyph glyph-name="uni0968" unicode="&#x968;" horiz-adv-x="440" 
d="M101 551l-43 43c37 35 89 50 153 50c106 0 187 -71 187 -187c0 -139 -117 -206 -214 -228l157 -207l-72 -21l-133 218c-65 17 -98 56 -98 96c0 28 14 48 36 56l76 -90c89 13 186 66 186 176c0 83 -51 132 -123 132c-44 0 -81 -10 -112 -38z" />
    <glyph glyph-name="uni0969" unicode="&#x969;" horiz-adv-x="450" 
d="M230 103v-4l140 -105l-69 -34l-136 138c-88 6 -124 47 -124 83c0 17 7 33 20 44l96 -71c20 -4 34 -4 51 -4c80 0 128 38 128 102s-52 92 -129 92c-15 0 -32 -1 -49 -3l-9 53c93 0 157 37 157 108c0 57 -41 88 -102 88c-54 0 -88 -27 -104 -44l-43 45c26 24 73 53 148 53
c93 0 163 -52 163 -141c0 -74 -44 -100 -87 -120v-4c46 -7 117 -40 117 -127c0 -88 -71 -146 -168 -149z" />
    <glyph glyph-name="uni096A" unicode="&#x96a;" horiz-adv-x="480" 
d="M240 87c63 0 101 32 101 93c0 57 -46 96 -101 135c-55 -39 -101 -78 -101 -135c0 -61 38 -93 101 -93zM351 601l58 23c12 -19 19 -41 19 -72c0 -97 -69 -154 -140 -203c61 -44 114 -93 114 -169c0 -89 -62 -146 -162 -146s-162 57 -162 146c0 76 53 125 113 169
c-71 49 -140 106 -140 203c0 31 7 53 19 72l58 -23c-9 -14 -15 -32 -15 -53c0 -74 61 -120 127 -166c65 46 126 92 126 166c0 21 -6 39 -15 53z" />
    <glyph glyph-name="uni096B" unicode="&#x96b;" horiz-adv-x="487" 
d="M487 21l-68 -8l-67 209c-25 -16 -63 -35 -126 -35c-101 0 -186 70 -186 196c0 130 56 227 73 261l56 -17c-22 -45 -69 -133 -69 -243c0 -88 50 -142 126 -142c50 0 87 16 108 37l-20 118l45 14c25 -36 57 -73 57 -114c0 -18 -5 -36 -21 -55z" />
    <glyph glyph-name="uni096C" unicode="&#x96c;" horiz-adv-x="489" 
d="M346 387l8 -57c-170 -12 -208 -71 -208 -132c0 -60 47 -100 136 -100c37 0 78 13 98 30v84l43 9c25 -15 37 -42 37 -68c0 -27 -11 -54 -27 -73l93 -150l-76 -14l-60 148c-16 -8 -59 -21 -115 -21c-112 0 -193 63 -193 157c0 80 55 129 118 148v4c-65 16 -126 62 -126 141
c0 85 70 150 190 150c62 0 99 -11 112 -16l-16 -57c-25 10 -57 17 -92 17c-71 0 -130 -27 -130 -95c0 -63 49 -109 153 -109c17 0 35 1 55 4z" />
    <glyph glyph-name="uni096D" unicode="&#x96d;" horiz-adv-x="598" 
d="M285 387c0 -85 64 -116 137 -116c25 0 51 13 74 28c-1 149 -65 192 -119 192c-57 0 -92 -38 -92 -104zM106 628l61 -13c-35 -72 -56 -161 -56 -252c0 -151 73 -270 205 -270c89 0 161 53 177 158c-28 -17 -57 -29 -84 -29c-98 0 -184 55 -184 167c0 88 55 156 152 156
c77 0 179 -58 179 -248c0 -151 -89 -259 -234 -259c-187 0 -273 153 -273 328c0 99 24 190 57 262z" />
    <glyph glyph-name="uni096E" unicode="&#x96e;" horiz-adv-x="430" 
d="M334 586l-132 -199c-50 -76 -74 -112 -74 -178c0 -63 50 -105 144 -105c70 0 107 21 143 51l33 -49c-47 -42 -111 -57 -169 -57c-144 0 -213 69 -213 165c0 68 26 113 87 207l125 194z" />
    <glyph glyph-name="uni096F" unicode="&#x96f;" horiz-adv-x="460" 
d="M111 475c0 -44 13 -82 54 -128c7 -1 14 -1 21 -1c91 0 151 45 151 133c0 71 -51 110 -113 110c-69 0 -113 -50 -113 -114zM205 306l125 -126c33 -33 58 -68 58 -109c0 -33 -12 -55 -25 -71h-70v6c18 16 31 41 31 63c0 25 -14 45 -42 74l-148 149c-61 61 -85 117 -85 182
c0 92 67 169 174 169c102 0 176 -71 176 -164c0 -116 -89 -174 -180 -174c-5 0 -9 0 -14 1z" />
    <glyph glyph-name="uni097D" unicode="&#x97d;" horiz-adv-x="444" 
d="M220 579h-132v55h130c100 0 162 -54 162 -137c0 -84 -76 -163 -124 -222c-23 -28 -30 -56 -30 -91v-184h-59v187c0 47 12 84 42 121c47 58 113 126 113 186c0 61 -40 85 -102 85z" />
    <glyph glyph-name="uni0971" unicode="&#x971;" horiz-adv-x="308" 
d="M106 606c0 29 21 50 48 50c28 0 48 -21 48 -50c0 -26 -20 -46 -48 -46c-27 0 -48 20 -48 46z" />
    <glyph glyph-name="uni0951" unicode="&#x951;" 
d="M-163 908h58v-196h-58v196z" />
    <glyph glyph-name="uni0952" unicode="&#x952;" 
d="M-102 -214h-505v47h505v-47z" />
    <glyph glyph-name="uni0953" unicode="&#x953;" 
d="M-282 879l44 37l144 -169l-44 -37z" />
    <glyph glyph-name="uni0954" unicode="&#x954;" 
d="M-34 916l44 -37l-144 -169l-44 37z" />
    <glyph glyph-name="uni0900" unicode="&#x900;" 
d="M-178 798c0 24 19 42 44 42s44 -18 44 -42c0 -27 -19 -46 -44 -46s-44 19 -44 46zM-283 877l-46 26c32 60 91 113 195 113s162 -53 194 -113l-45 -26c-26 45 -75 84 -149 84s-123 -39 -149 -84z" />
    <glyph glyph-name="itfLogo" horiz-adv-x="1648" 
d="M147 0v634h196v-634h-196zM383 449v185h196v-185h-196zM619 0v634h196v-634h-196zM855 449v185h196v-185h-196zM1091 0v634h196v-634h-196zM1327 449v185h196v-185h-196zM1327 224v185h196v-185h-196z" />
    <glyph glyph-name="uni0930094D.2" 
d="M-76 826c-52 0 -84 -35 -84 -80c0 -56 40 -96 83 -112v-5h-85v9c-24 15 -58 54 -58 113c0 77 67 129 139 129c50 0 82 -15 96 -25l-24 -50c-17 12 -39 21 -67 21z" />
    <glyph glyph-name="uni0930094D.1" horiz-adv-x="195" 
d="M215 582h-235v52h235v-52zM283 375l15 -55c-38 -20 -94 -42 -161 -42c-79 0 -136 35 -159 56l25 44c25 -20 66 -46 132 -46c53 0 108 20 148 43z" />
    <glyph glyph-name="uni094D0930" 
d="M-2 -171l-134 153l-134 -153l-68 18l152 153h100l152 -153z" />
    <glyph glyph-name="uni0915094D0930" horiz-adv-x="766" 
d="M357 186h-4l-249 -187l-49 42l146 94v4c-70 3 -147 60 -147 160c0 109 92 179 205 165l9 -55c-97 14 -152 -37 -152 -109c0 -65 47 -112 114 -112c74 0 127 54 127 135v259h-377v52h806v-52h-372v-180h4c19 27 62 62 136 62c87 0 163 -65 163 -165
c0 -111 -92 -180 -205 -166l-9 55c97 -14 152 37 152 109c0 66 -46 112 -113 112c-76 0 -128 -54 -128 -135v-274h-57v186z" />
    <glyph glyph-name="uni0916094D0930" horiz-adv-x="780" 
d="M613 143c-23 -29 -65 -71 -201 -125l-239 -94l-50 53l228 68v4c-114 0 -266 85 -289 325l52 18c13 -23 33 -44 73 -44c33 0 54 18 54 64v170h-261v52h819v-52h-125v-582h-57v143h-4zM612 453h4v129h-317v-169c0 -72 -46 -115 -105 -115c-32 0 -49 6 -62 13
c26 -145 130 -217 251 -217c114 0 236 68 236 223c0 79 -50 119 -103 119c-58 0 -98 -38 -98 -96c0 -56 41 -99 116 -102l-31 -47c-70 3 -143 56 -143 149c0 89 69 151 151 151c53 0 82 -18 101 -38z" />
    <glyph glyph-name="uni0917094D0930" horiz-adv-x="544" 
d="M381 0v185h-4l-243 -200l-56 37l303 234v326h-196v-347h-67c-31 27 -47 68 -48 109l57 40v198h-147v52h583v-52h-124v-582h-58z" />
    <glyph glyph-name="uni0918094D0930" horiz-adv-x="626" 
d="M464 268v314h-217c-73 0 -103 -38 -103 -86c0 -46 34 -83 115 -83h62v-54h-61c-74 0 -108 -35 -108 -83s36 -95 124 -95c83 0 162 50 188 87zM-20 634h666v-52h-125v-582h-58v191h-4l-312 -198l-55 47l173 91v4c-104 -8 -175 53 -175 137c0 61 44 99 83 112v4
c-47 7 -91 42 -91 106c0 49 31 76 50 84v4h-152v52z" />
    <glyph glyph-name="uni0919094D0930" horiz-adv-x="613" 
d="M531 402c24 0 42 -18 42 -43c0 -23 -18 -41 -42 -41s-42 18 -42 41c0 25 18 43 42 43zM-20 634h653v-52h-208v-163h-180c-59 0 -75 -26 -75 -62c0 -40 33 -76 70 -86l171 34c37 -21 69 -70 69 -128c0 -72 -51 -134 -133 -153l139 -140l-68 -18l-132 151h-4l-132 -151
l-68 18l141 142c-77 20 -140 74 -184 153l48 34c42 -84 112 -143 203 -143c75 0 130 40 130 107c0 28 -9 52 -31 69l-161 -32c-60 19 -119 77 -119 154c0 60 42 104 109 104h150v110h-388v52z" />
    <glyph glyph-name="uni091A094D0930" horiz-adv-x="629" 
d="M462 181l-312 -181l-52 49l176 79v4c-81 0 -163 53 -163 152c0 64 40 98 54 109v4h-142v54h364v-53h-87c-79 0 -127 -43 -127 -110c0 -64 48 -108 133 -108c75 0 139 44 160 70v332h-486v52h669v-52h-125v-582h-58v181h-4z" />
    <glyph glyph-name="uni091B094D0930" horiz-adv-x="672" 
d="M463 481v101h-197c-69 0 -121 -41 -121 -109c0 -59 42 -99 113 -99h37v-54h-24c-69 0 -113 -37 -113 -99c0 -65 50 -119 147 -119c134 0 249 102 249 229c0 62 -35 97 -79 97c-37 0 -67 -25 -67 -64c0 -38 25 -65 70 -70l-36 -41c-58 12 -92 57 -92 111
c0 61 46 112 113 117zM692 582h-173v-108c58 -19 94 -75 94 -143c0 -116 -88 -237 -223 -273l144 -145l-68 -18l-134 153l-134 -153l-68 18l136 136c-110 15 -170 89 -170 170c0 68 41 108 83 124v4c-58 16 -96 64 -96 123c0 67 38 96 54 108v4h-157v52h712v-52z" />
    <glyph glyph-name="uni091C094D0930" horiz-adv-x="732" 
d="M275 417v4l27 48h267v113h-589v52h772v-52h-125v-582h-58v161h-4l-270 -194l-57 37l331 221v191h-188v-4c15 -14 49 -46 49 -110c0 -76 -58 -141 -151 -141c-157 0 -234 157 -249 277l61 22c4 -118 74 -244 184 -244c61 0 95 39 95 89c0 70 -61 103 -95 112z" />
    <glyph glyph-name="uni091D094D0930" horiz-adv-x="837" 
d="M681 169h-4l-156 -155l-60 32l226 194v4c-34 -15 -84 -29 -146 -29c-38 0 -78 6 -106 16c6 -15 10 -33 10 -52c0 -100 -94 -149 -176 -150l2 -2l157 -107l-73 -38l-149 143c-99 3 -143 52 -143 96c0 20 10 39 19 45l126 -89h39c74 0 140 32 140 101c0 37 -18 58 -31 67
l-161 -32c-60 19 -119 77 -119 154c0 60 42 102 109 102h158v113h-363v52h876v-52h-117v-582h-58v169zM681 582h-281v-166h-188c-59 0 -75 -24 -75 -60c0 -40 33 -76 70 -86l169 34c28 -15 81 -34 160 -34c61 0 112 12 145 26v286z" />
    <glyph glyph-name="uni091E094D0930" horiz-adv-x="701" 
d="M721 634v-52h-125v-582h-58v156h-4l-267 -195l-60 39l338 224v4c-11 2 -23 5 -35 9c-38 11 -80 29 -108 48c-27 -61 -90 -105 -175 -105c-105 0 -176 65 -205 115l46 34c28 -45 77 -94 159 -94c65 0 128 42 128 121c0 75 -54 111 -113 111c-35 0 -61 -11 -80 -22l-27 50
c21 12 58 27 109 27c98 0 173 -70 173 -165c0 -6 -1 -12 -1 -18c33 -24 81 -45 122 -57v300h-558v52h741z" />
    <glyph glyph-name="uni091F094D0930" horiz-adv-x="494" 
d="M373 417l-144 -44c-94 -29 -115 -63 -115 -122c0 -76 65 -151 168 -151c77 0 123 26 155 60l35 -47c-33 -34 -78 -55 -127 -63l137 -138l-68 -18l-132 151h-4l-132 -151l-68 18l141 142c-100 28 -167 115 -167 207c0 81 45 129 134 157l129 40v124h-335v52h534v-52h-141
v-165z" />
    <glyph glyph-name="uni0920094D0930" horiz-adv-x="564" 
d="M307 399l-80 -25c-94 -29 -116 -64 -116 -124c0 -75 60 -150 165 -150c122 0 177 72 177 151c0 97 -97 140 -146 148zM584 582h-213v-146c56 -22 143 -80 143 -191c0 -95 -66 -170 -165 -193l139 -140l-68 -18l-132 151h-4l-132 -151l-68 18l139 140
c-103 23 -173 107 -173 207c0 82 47 130 136 158l127 40v125h-333v52h604v-52z" />
    <glyph glyph-name="uni0921094D0930" horiz-adv-x="536" 
d="M425 419h-180c-59 0 -75 -26 -75 -62c0 -40 33 -76 70 -86l171 34c37 -21 69 -70 69 -128c0 -72 -50 -133 -131 -153l139 -140l-68 -18l-132 151h-4l-132 -151l-68 18l140 141c-77 20 -141 75 -185 154l48 34c42 -84 112 -143 203 -143c75 0 130 40 130 107
c0 28 -9 52 -31 69l-161 -32c-60 19 -119 77 -119 154c0 60 42 104 109 104h150v110h-388v52h576v-52h-131v-163z" />
    <glyph glyph-name="uni0922094D0930" horiz-adv-x="515" 
d="M393 441l-165 -45c-93 -25 -117 -74 -117 -133c0 -82 70 -164 179 -164c71 0 111 39 111 90c0 33 -25 61 -61 61c-48 0 -69 -42 -60 -84l-56 22c-5 54 34 118 115 118c70 0 122 -52 122 -117c0 -63 -47 -120 -118 -138l138 -139l-68 -18l-133 151h-2l-133 -151l-68 18
l143 143c-101 30 -170 117 -170 213c0 83 55 148 140 172l145 42v100h-355v52h555v-52h-142v-141z" />
    <glyph glyph-name="uni0923094D0930" horiz-adv-x="746" 
d="M351 349v233h-196v-233c0 -69 35 -109 98 -109s98 40 98 109zM-20 634h786v-52h-125v-582h-57v178h-4l-303 -195l-58 35l364 222v342h-174v-239c0 -101 -67 -158 -156 -158s-156 57 -156 158v239h-117v52z" />
    <glyph glyph-name="uni0924094D0930" horiz-adv-x="548" 
d="M385 239h-4l-254 -163l-47 44l276 166c-15 54 -68 124 -161 124c-49 0 -88 -17 -119 -43l-43 49c27 22 77 53 151 53c125 0 176 -80 198 -122h4v235h-406v52h588v-52h-125v-582h-58v239z" />
    <glyph glyph-name="uni0925094D0930" horiz-adv-x="638" 
d="M43 346l92 27c151 43 175 84 175 141c0 45 -29 75 -76 75c-43 0 -75 -26 -75 -71c0 -22 14 -49 30 -62l-57 -17c-14 13 -32 42 -32 82c0 67 56 123 134 123c82 0 135 -56 135 -132c0 -86 -64 -147 -197 -185l-59 -17c3 -42 48 -142 182 -142c91 0 163 56 181 93v373h182
v-52h-125v-582h-58v175h-4l-339 -196l-54 45l179 90v4c-117 9 -202 100 -214 228z" />
    <glyph glyph-name="uni0926094D0930" horiz-adv-x="514" 
d="M255 83v4c-129 -2 -205 95 -205 194c0 84 46 136 146 161l131 33v107h-347v52h554v-52h-149v-148l-160 -39c-85 -21 -113 -59 -113 -121c0 -71 55 -136 147 -136c47 0 77 11 97 28v102l47 17c18 -9 43 -36 43 -74c0 -45 -19 -64 -33 -79l100 -137l-72 -17l-66 129
l-247 -174l-56 46z" />
    <glyph glyph-name="uni0927094D0930" horiz-adv-x="627" 
d="M465 191h-4l-309 -198l-55 47l174 90v4c-108 -6 -181 49 -181 135c0 65 41 101 83 113v4c-47 8 -91 42 -91 106c0 47 31 77 52 86v4h-154v52h254l9 -51c-54 -5 -99 -36 -99 -89c0 -46 35 -84 116 -84h62v-54h-63c-74 0 -107 -32 -107 -85c0 -50 39 -90 130 -90
c96 0 161 57 183 85v316h-115v52h297v-52h-125v-582h-57v191z" />
    <glyph glyph-name="uni0928094D0930" horiz-adv-x="547" 
d="M339 283c-15 66 -72 129 -154 129c-19 0 -41 0 -59 -8v-67l-39 -13c-26 21 -41 47 -43 89l44 38c22 11 65 16 87 16c111 0 184 -67 206 -141h4v256h-405v52h588v-52h-126v-582h-58v247h-4l-241 -160l-48 41z" />
    <glyph glyph-name="uni092A094D0930" horiz-adv-x="579" 
d="M288 209v4c-101 -9 -183 37 -183 151v218h-125v52h620v-52h-126v-582h-58v251h-4l-282 -258l-63 31zM416 316v266h-253v-207c0 -79 35 -113 111 -113c56 0 116 31 142 54z" />
    <glyph glyph-name="uni092B094D0930" horiz-adv-x="807" 
d="M246 192v4c-75 3 -141 48 -141 155v231h-125v52h847v-52h-379v-183h4c17 25 64 65 138 65c91 0 166 -66 166 -166c0 -115 -92 -190 -206 -176l-9 57c97 -17 153 41 153 118c0 67 -45 111 -113 111c-74 0 -133 -58 -133 -149v-259h-58v246h-4l-273 -240l-57 38zM266 245
c63 0 108 45 124 79v258h-227v-223c0 -82 38 -114 103 -114z" />
    <glyph glyph-name="uni092C094D0930" horiz-adv-x="580" 
d="M231 117v4c-79 10 -162 74 -162 188c0 110 95 189 206 189c21 0 47 -2 66 -8l2 -57c-21 8 -44 11 -66 11c-34 0 -66 -10 -92 -27l224 -188l8 6v347h-437v52h620v-52h-125v-582h-58v168h-4l-279 -173l-51 45zM273 168c40 0 69 11 96 30l-219 183c-14 -20 -21 -46 -21 -74
c0 -82 61 -139 144 -139z" />
    <glyph glyph-name="uni092D094D0930" horiz-adv-x="576" 
d="M65 326l59 41v140c0 53 -24 75 -79 75h-65v52h68c84 0 134 -45 134 -122v-144h231v214h-112v52h295v-52h-125v-582h-58v211h-4l-261 -217l-53 36l320 251v33h-233v-92h-67c-30 24 -49 68 -50 104z" />
    <glyph glyph-name="uni092E094D0930" horiz-adv-x="576" 
d="M182 314v-92h-67c-30 24 -49 68 -50 104l59 41v215h-144v52h616v-52h-125v-582h-58v211h-4l-261 -217l-53 36l320 251v33h-233zM413 582h-231v-214h231v214z" />
    <glyph glyph-name="uni092F094D0930" horiz-adv-x="604" 
d="M260 145v4c-101 4 -194 76 -210 217c96 22 146 58 146 118c0 40 -19 75 -47 98h-169v52h643v-52h-124v-582h-58v197h-4l-319 -209l-55 47zM119 335c9 -53 48 -136 168 -136c81 0 141 51 156 77v306h-226v-4c22 -25 40 -55 40 -103c0 -69 -58 -120 -138 -140z" />
    <glyph glyph-name="uni0932094D0930" horiz-adv-x="707" 
d="M256 50l-44 -42c-81 51 -152 144 -152 262c0 112 74 175 154 175c66 0 108 -33 122 -81h4c15 54 59 85 112 85c44 0 74 -19 88 -35h4v168h-564v52h747v-52h-125v-582h-58v145h-4l-177 -146l-52 32l233 182v143c-16 17 -50 38 -88 38c-52 0 -90 -35 -90 -107v-86h-58v85
c0 69 -35 104 -90 104c-53 0 -97 -38 -97 -121c0 -93 50 -168 135 -219z" />
    <glyph glyph-name="uni0933094D0930" horiz-adv-x="734" 
d="M390 244l-5 -14c26 -50 59 -94 129 -94c64 0 108 49 108 135c0 73 -36 136 -104 136c-83 0 -100 -81 -128 -163zM348 298l5 15c-25 49 -64 92 -126 92c-64 0 -110 -52 -110 -134c0 -73 32 -137 100 -137c83 0 106 81 131 164zM754 582h-210v-122c83 -11 138 -82 138 -185
c0 -89 -41 -154 -105 -180l148 -149l-68 -18l-134 153l-134 -153l-68 18l141 142c-51 15 -85 53 -102 83c-28 -51 -70 -91 -148 -91c-94 0 -155 75 -155 187c0 111 67 192 175 192c76 0 123 -50 145 -87c22 42 55 75 109 86v124h-506v52h774v-52z" />
    <glyph glyph-name="uni0935094D0930" horiz-adv-x="560" 
d="M397 171h-4l-262 -176l-55 47l146 80v4c-77 8 -153 72 -153 174c0 132 121 197 235 175l6 -57c-78 21 -179 -13 -179 -116c0 -71 53 -127 132 -127c68 0 121 43 134 73v334h-417v52h600v-52h-125v-582h-58v171z" />
    <glyph glyph-name="uni0937094D0930" horiz-adv-x="579" 
d="M288 209v4c-101 -9 -183 37 -183 151v218h-125v52h619v-52h-125v-582h-57v251h-4l-283 -258l-63 31zM276 260c48 0 91 17 112 37l-161 155c-40 38 -70 66 -70 66s3 -27 3 -91v-60c0 -76 48 -107 116 -107zM418 399v183h-261l252 -241c6 17 9 36 9 58z" />
    <glyph glyph-name="uni0936094D0930" horiz-adv-x="660" 
d="M497 223h-4l-260 -160l-47 42l240 130v4c-86 23 -155 54 -204 87c-51 -22 -111 -39 -175 -53l-41 51c30 5 99 17 166 41c-53 48 -73 98 -73 146c0 74 59 135 144 135c77 0 139 -52 139 -136c0 -67 -40 -117 -105 -156c73 -42 163 -69 220 -81v361h183v-52h-125v-582h-58
v223zM159 511c0 -51 27 -89 67 -122c54 27 96 64 96 121c0 51 -33 83 -79 83c-48 0 -84 -30 -84 -82z" />
    <glyph glyph-name="uni0938094D0930" horiz-adv-x="738" 
d="M385 117l-47 38l189 122c-18 48 -54 93 -116 93c-112 0 -155 -119 -278 -90l-2 -3c22 -26 42 -49 66 -81l123 -163l-47 -32l-251 335l44 35c14 -15 44 -43 95 -43c49 0 73 21 73 70v184h-254v52h778v-52h-125v-582h-58v242h-4zM409 424c79 0 132 -44 162 -118h4v276h-283
v-195c24 16 64 37 117 37z" />
    <glyph glyph-name="uni0939094D0930" horiz-adv-x="541" 
d="M415 242h-141c-76 0 -122 -36 -122 -101c0 -78 66 -149 256 -165l-25 -53c-185 21 -292 103 -292 218c0 48 20 91 58 119c-37 24 -68 65 -68 113c0 57 44 100 113 100h198v109h-412v52h581v-52h-112v-163h-239c-51 0 -68 -21 -68 -50c0 -30 23 -63 61 -83
c20 6 43 10 68 10h147l44 -39v-195h-51v110h-4l-107 -82l-57 27l172 121v4z" />
    <glyph glyph-name="uni0915093C094D0930" horiz-adv-x="766" 
d="M353 186h-4l-249 -187l-49 42l146 94v4c-70 3 -147 60 -147 160c0 109 92 179 205 165l9 -55c-97 14 -152 -37 -152 -109c0 -65 47 -112 114 -112c74 0 127 54 127 135v259h-377v52h806v-52h-372v-180h4c19 27 62 62 136 62c87 0 163 -65 163 -165
c0 -111 -92 -180 -205 -166l-9 55c97 -14 152 37 152 109c0 66 -46 112 -113 112c-76 0 -128 -54 -128 -135v-274h-57v186zM212 -22c0 24 17 41 41 41s41 -17 41 -41s-17 -41 -41 -41s-41 17 -41 41z" />
    <glyph glyph-name="uni0916093C094D0930" horiz-adv-x="780" 
d="M613 143c-23 -29 -65 -71 -201 -125l-239 -94l-50 53l228 68v4c-114 0 -266 85 -289 325l52 18c13 -23 33 -44 73 -44c33 0 54 18 54 64v170h-261v52h819v-52h-125v-582h-57v143h-4zM612 453h4v129h-317v-169c0 -72 -46 -115 -105 -115c-32 0 -49 6 -62 13
c26 -145 130 -217 251 -217c114 0 236 68 236 223c0 79 -50 119 -103 119c-58 0 -98 -38 -98 -96c0 -56 41 -99 116 -102l-31 -47c-70 3 -143 56 -143 149c0 89 69 151 151 151c53 0 82 -18 101 -38zM457 -61c0 24 17 41 41 41s41 -17 41 -41s-17 -41 -41 -41s-41 17 -41 41
z" />
    <glyph glyph-name="uni0917093C094D0930" horiz-adv-x="544" 
d="M381 0v185h-4l-243 -200l-56 37l303 234v326h-196v-347h-67c-31 27 -47 68 -48 109l57 40v198h-147v52h583v-52h-124v-582h-58zM250 -36c0 24 17 41 41 41s41 -17 41 -41s-17 -41 -41 -41s-41 17 -41 41z" />
    <glyph glyph-name="uni0918093C094D0930" horiz-adv-x="626" 
d="M343 19c24 0 41 -17 41 -41s-17 -41 -41 -41s-41 17 -41 41s17 41 41 41zM464 268v314h-217c-73 0 -103 -38 -103 -86c0 -46 34 -83 115 -83h62v-54h-61c-74 0 -108 -35 -108 -83s36 -95 124 -95c83 0 162 50 188 87zM-20 634h666v-52h-125v-582h-58v191h-4l-312 -198
l-55 47l173 91v4c-104 -8 -175 53 -175 137c0 61 44 99 83 112v4c-47 7 -91 42 -91 106c0 49 31 76 50 84v4h-152v52z" />
    <glyph glyph-name="uni0919093C094D0930" horiz-adv-x="613" 
d="M11 40c24 0 41 -17 41 -41s-17 -41 -41 -41s-41 17 -41 41s17 41 41 41zM531 402c24 0 42 -18 42 -43c0 -23 -18 -41 -42 -41s-42 18 -42 41c0 25 18 43 42 43zM-20 634h653v-52h-208v-163h-180c-59 0 -75 -26 -75 -62c0 -40 33 -76 70 -86l171 34c37 -21 69 -70 69 -128
c0 -71 -49 -132 -129 -153l139 -140l-68 -18l-132 151h-4l-132 -151l-68 18l140 141c-78 19 -143 74 -187 154l48 34c42 -84 112 -143 203 -143c75 0 130 40 130 107c0 28 -9 52 -31 69l-161 -32c-60 19 -119 77 -119 154c0 60 42 104 109 104h150v110h-388v52z" />
    <glyph glyph-name="uni091A093C094D0930" horiz-adv-x="629" 
d="M462 181l-312 -181l-52 49l176 79v4c-81 0 -163 53 -163 152c0 64 40 98 54 109v4h-142v54h364v-53h-87c-79 0 -127 -43 -127 -110c0 -64 48 -108 133 -108c75 0 139 44 160 70v332h-486v52h669v-52h-125v-582h-58v181h-4zM307 -22c0 24 17 41 41 41s41 -17 41 -41
s-17 -41 -41 -41s-41 17 -41 41z" />
    <glyph glyph-name="uni091B093C094D0930" horiz-adv-x="672" 
d="M86 42c24 0 41 -17 41 -41s-17 -41 -41 -41s-41 17 -41 41s17 41 41 41zM463 481v101h-197c-69 0 -121 -41 -121 -109c0 -59 42 -99 113 -99h37v-54h-24c-69 0 -113 -37 -113 -99c0 -65 50 -119 147 -119c134 0 249 102 249 229c0 62 -35 97 -79 97
c-37 0 -67 -25 -67 -64c0 -38 25 -65 70 -70l-36 -41c-58 12 -92 57 -92 111c0 61 46 112 113 117zM692 582h-173v-108c58 -19 94 -75 94 -143c0 -114 -84 -231 -215 -270l147 -148l-68 -18l-134 153l-134 -153l-68 18l134 135c-116 11 -179 88 -179 171c0 68 41 108 83 124
v4c-58 16 -96 64 -96 123c0 67 38 96 54 108v4h-157v52h712v-52z" />
    <glyph glyph-name="uni091C093C094D0930" horiz-adv-x="732" 
d="M275 417v4l27 48h267v113h-589v52h772v-52h-125v-582h-58v161h-4l-270 -194l-57 37l331 221v191h-188v-4c15 -14 49 -46 49 -110c0 -76 -58 -141 -151 -141c-157 0 -234 157 -249 277l61 22c4 -118 74 -244 184 -244c61 0 95 39 95 89c0 70 -61 103 -95 112zM103 77
c0 24 17 41 41 41s41 -17 41 -41s-17 -41 -41 -41s-41 17 -41 41z" />
    <glyph glyph-name="uni091D093C094D0930" horiz-adv-x="837" 
d="M98 -90c0 24 17 41 41 41s41 -17 41 -41s-17 -41 -41 -41s-41 17 -41 41zM681 169h-4l-156 -155l-60 32l226 194v4c-34 -15 -84 -29 -146 -29c-38 0 -78 6 -106 16c6 -15 10 -33 10 -52c0 -100 -94 -149 -176 -150l2 -2l157 -107l-73 -38l-149 143c-99 3 -143 52 -143 96
c0 20 10 39 19 45l126 -89h39c74 0 140 32 140 101c0 37 -18 58 -31 67l-161 -32c-60 19 -119 77 -119 154c0 60 42 102 109 102h158v113h-363v52h876v-52h-117v-582h-58v169zM681 582h-281v-166h-188c-59 0 -75 -24 -75 -60c0 -40 33 -76 70 -86l169 34
c28 -15 81 -34 160 -34c61 0 112 12 145 26v286z" />
    <glyph glyph-name="uni091E093C094D0930" horiz-adv-x="701" 
d="M721 634v-52h-125v-582h-58v156h-4l-267 -195l-60 39l338 224v4c-11 2 -23 5 -35 9c-38 11 -80 29 -108 48c-27 -61 -90 -105 -175 -105c-105 0 -176 65 -205 115l46 34c28 -45 77 -94 159 -94c65 0 128 42 128 121c0 75 -54 111 -113 111c-35 0 -61 -11 -80 -22l-27 50
c21 12 58 27 109 27c98 0 173 -70 173 -165c0 -6 -1 -12 -1 -18c33 -24 81 -45 122 -57v300h-558v52h741zM86 88c0 24 17 41 41 41s41 -17 41 -41s-17 -41 -41 -41s-41 17 -41 41z" />
    <glyph glyph-name="uni091F093C094D0930" horiz-adv-x="494" 
d="M11 74c24 0 41 -17 41 -41s-17 -41 -41 -41s-41 17 -41 41s17 41 41 41zM373 417l-144 -44c-94 -29 -115 -63 -115 -122c0 -76 65 -151 168 -151c77 0 123 26 155 60l35 -47c-33 -34 -78 -54 -126 -63l137 -138l-68 -18l-132 151h-4l-132 -151l-68 18l141 142
c-100 28 -168 115 -168 207c0 81 45 129 134 157l129 40v124h-335v52h534v-52h-141v-165z" />
    <glyph glyph-name="uni0920093C094D0930" horiz-adv-x="564" 
d="M7 64c24 0 41 -17 41 -41s-17 -41 -41 -41s-41 17 -41 41s17 41 41 41zM307 399l-80 -25c-94 -29 -116 -64 -116 -124c0 -75 60 -150 165 -150c122 0 177 72 177 151c0 97 -97 140 -146 148zM584 582h-213v-146c56 -22 143 -80 143 -191c0 -96 -67 -171 -167 -193
l139 -140l-68 -18l-132 151h-3h-1l-132 -151l-68 18l139 140c-101 24 -171 107 -171 207c0 82 47 130 136 158l127 40v125h-333v52h604v-52z" />
    <glyph glyph-name="uni0921093C094D0930" horiz-adv-x="536" 
d="M5 34c24 0 41 -17 41 -41s-17 -41 -41 -41s-41 17 -41 41s17 41 41 41zM425 419h-180c-59 0 -75 -26 -75 -62c0 -40 33 -76 70 -86l171 34c37 -21 69 -70 69 -128c0 -72 -50 -133 -132 -153l139 -140l-68 -18l-132 151h-4l-132 -151l-68 18l140 141
c-77 20 -140 75 -184 154l48 34c42 -84 112 -143 203 -143c75 0 130 40 130 107c0 28 -9 52 -31 69l-161 -32c-60 19 -119 77 -119 154c0 60 42 104 109 104h150v110h-388v52h576v-52h-131v-163z" />
    <glyph glyph-name="uni0922093C094D0930" horiz-adv-x="515" 
d="M-2 74c24 0 41 -17 41 -41s-17 -41 -41 -41s-41 17 -41 41s17 41 41 41zM393 441l-165 -45c-93 -25 -117 -74 -117 -133c0 -82 70 -164 179 -164c71 0 111 39 111 90c0 33 -25 61 -61 61c-48 0 -69 -42 -60 -84l-56 22c-5 54 34 118 115 118c70 0 122 -52 122 -117
c0 -64 -49 -122 -122 -139l137 -138l-68 -18l-133 152h-2l-133 -152l-68 18l144 145c-99 30 -166 116 -166 211c0 83 55 148 140 172l145 42v100h-355v52h555v-52h-142v-141z" />
    <glyph glyph-name="uni0923093C094D0930" horiz-adv-x="746" 
d="M88 121c24 0 41 -17 41 -41s-17 -41 -41 -41s-41 17 -41 41s17 41 41 41zM351 349v233h-196v-233c0 -69 35 -109 98 -109s98 40 98 109zM-20 634h786v-52h-125v-582h-57v178h-4l-303 -195l-58 35l364 222v342h-174v-239c0 -101 -67 -158 -156 -158s-156 57 -156 158v239
h-117v52z" />
    <glyph glyph-name="uni0924093C094D0930" horiz-adv-x="548" 
d="M385 239h-4l-254 -163l-47 44l276 166c-15 54 -68 124 -161 124c-49 0 -88 -17 -119 -43l-43 49c27 22 77 53 151 53c125 0 176 -80 198 -122h4v235h-406v52h588v-52h-125v-582h-58v239zM211 -1c0 24 17 41 41 41s41 -17 41 -41s-17 -41 -41 -41s-41 17 -41 41z" />
    <glyph glyph-name="uni0925093C094D0930" horiz-adv-x="638" 
d="M43 346l92 27c151 43 175 84 175 141c0 45 -29 75 -76 75c-43 0 -75 -26 -75 -71c0 -22 14 -49 30 -62l-57 -17c-14 13 -32 42 -32 82c0 67 56 123 134 123c82 0 135 -56 135 -132c0 -86 -64 -147 -197 -185l-59 -17c3 -42 48 -142 182 -142c91 0 163 56 181 93v373h182
v-52h-125v-582h-58v175h-4l-339 -196l-54 45l179 90v4c-117 9 -202 100 -214 228zM302 -32c0 24 17 41 41 41s41 -17 41 -41s-17 -41 -41 -41s-41 17 -41 41z" />
    <glyph glyph-name="uni0926093C094D0930" horiz-adv-x="514" 
d="M255 83v4c-129 -2 -205 95 -205 194c0 84 46 136 146 161l131 33v107h-347v52h554v-52h-149v-148l-160 -39c-85 -21 -113 -59 -113 -121c0 -71 55 -136 147 -136c47 0 77 11 97 28v102l47 17c18 -9 43 -36 43 -74c0 -45 -19 -64 -33 -79l100 -137l-72 -17l-66 129
l-247 -174l-56 46zM289 -67c0 24 17 41 41 41s41 -17 41 -41s-17 -41 -41 -41s-41 17 -41 41z" />
    <glyph glyph-name="uni0927093C094D0930" horiz-adv-x="627" 
d="M465 191h-4l-309 -198l-55 47l174 90v4c-108 -6 -181 49 -181 135c0 65 41 101 83 113v4c-47 8 -91 42 -91 106c0 47 31 77 52 86v4h-154v52h254l9 -51c-54 -5 -99 -36 -99 -89c0 -46 35 -84 116 -84h62v-54h-63c-74 0 -107 -32 -107 -85c0 -50 39 -90 130 -90
c96 0 161 57 183 85v316h-115v52h297v-52h-125v-582h-57v191zM314 -26c0 24 17 41 41 41s41 -17 41 -41s-17 -41 -41 -41s-41 17 -41 41z" />
    <glyph glyph-name="uni0928093C094D0930" horiz-adv-x="547" 
d="M339 283c-15 66 -72 129 -154 129c-19 0 -41 0 -59 -8v-67l-39 -13c-26 21 -41 47 -43 89l44 38c22 11 65 16 87 16c111 0 184 -67 206 -141h4v256h-405v52h588v-52h-126v-582h-58v247h-4l-241 -160l-48 41zM223 0c0 24 17 41 41 41s41 -17 41 -41s-17 -41 -41 -41
s-41 17 -41 41z" />
    <glyph glyph-name="uni092A093C094D0930" horiz-adv-x="579" 
d="M288 209v4c-101 -9 -183 37 -183 151v218h-125v52h620v-52h-126v-582h-58v251h-4l-282 -258l-63 31zM416 316v266h-253v-207c0 -79 35 -113 111 -113c56 0 116 31 142 54zM265 -23c0 24 17 41 41 41s41 -17 41 -41s-17 -41 -41 -41s-41 17 -41 41z" />
    <glyph glyph-name="uni092B093C094D0930" horiz-adv-x="807" 
d="M246 192v4c-75 3 -141 48 -141 155v231h-125v52h847v-52h-379v-183h4c17 25 64 65 138 65c91 0 166 -66 166 -166c0 -115 -92 -190 -206 -176l-9 57c97 -17 153 41 153 118c0 67 -45 111 -113 111c-74 0 -133 -58 -133 -149v-259h-58v246h-4l-273 -240l-57 38zM266 245
c63 0 108 45 124 79v258h-227v-223c0 -82 38 -114 103 -114zM233 -23c0 24 17 41 41 41s41 -17 41 -41s-17 -41 -41 -41s-41 17 -41 41z" />
    <glyph glyph-name="uni092C093C094D0930" horiz-adv-x="580" 
d="M231 117v4c-79 10 -162 74 -162 188c0 110 95 189 206 189c21 0 47 -2 66 -8l2 -57c-21 8 -44 11 -66 11c-34 0 -66 -10 -92 -27l224 -188l8 6v347h-437v52h620v-52h-125v-582h-58v168h-4l-279 -173l-51 45zM273 168c40 0 69 11 96 30l-219 183c-14 -20 -21 -46 -21 -74
c0 -82 61 -139 144 -139zM267 -33c0 24 17 41 41 41s41 -17 41 -41s-17 -41 -41 -41s-41 17 -41 41z" />
    <glyph glyph-name="uni092D093C094D0930" horiz-adv-x="576" 
d="M267 -36c0 24 17 41 41 41s41 -17 41 -41s-17 -41 -41 -41s-41 17 -41 41zM65 326l59 41v140c0 53 -24 75 -79 75h-65v52h68c84 0 134 -45 134 -122v-144h231v214h-112v52h295v-52h-125v-582h-58v211h-4l-261 -217l-53 36l320 251v33h-233v-92h-67c-30 24 -49 68 -50 104
z" />
    <glyph glyph-name="uni092E093C094D0930" horiz-adv-x="576" 
d="M266 -33c0 24 17 41 41 41s41 -17 41 -41s-17 -41 -41 -41s-41 17 -41 41zM182 314v-92h-67c-30 24 -49 68 -50 104l59 41v215h-144v52h616v-52h-125v-582h-58v211h-4l-261 -217l-53 36l320 251v33h-233zM413 582h-231v-214h231v214z" />
    <glyph glyph-name="uni092F093C094D0930" horiz-adv-x="604" 
d="M260 145v4c-101 4 -194 76 -210 217c96 22 146 58 146 118c0 40 -19 75 -47 98h-169v52h643v-52h-124v-582h-58v197h-4l-319 -209l-55 47zM119 335c9 -53 48 -136 168 -136c81 0 141 51 156 77v306h-226v-4c22 -25 40 -55 40 -103c0 -69 -58 -120 -138 -140zM285 -33
c0 24 17 41 41 41s41 -17 41 -41s-17 -41 -41 -41s-41 17 -41 41z" />
    <glyph glyph-name="uni0932093C094D0930" horiz-adv-x="707" 
d="M256 50l-44 -42c-81 51 -152 144 -152 262c0 112 74 175 154 175c66 0 108 -33 122 -81h4c15 54 59 85 112 85c44 0 74 -19 88 -35h4v168h-564v52h747v-52h-125v-582h-58v145h-4l-177 -146l-52 32l233 182v143c-16 17 -50 38 -88 38c-52 0 -90 -35 -90 -107v-86h-58v85
c0 69 -35 104 -90 104c-53 0 -97 -38 -97 -121c0 -93 50 -168 135 -219zM17 -69c0 24 17 41 41 41s41 -17 41 -41s-17 -41 -41 -41s-41 17 -41 41z" />
    <glyph glyph-name="uni0933093C094D0930" horiz-adv-x="734" 
d="M127 41c24 0 41 -17 41 -41s-17 -41 -41 -41s-41 17 -41 41s17 41 41 41zM390 244l-5 -14c26 -50 59 -94 129 -94c64 0 108 49 108 135c0 73 -36 136 -104 136c-83 0 -100 -81 -128 -163zM348 298l5 15c-25 49 -64 92 -126 92c-64 0 -110 -52 -110 -134
c0 -73 32 -137 100 -137c83 0 106 81 131 164zM754 582h-210v-122c83 -11 138 -82 138 -185c0 -89 -41 -154 -105 -180l148 -149l-68 -18l-134 153l-134 -153l-68 18l141 142c-51 15 -85 53 -102 83c-28 -51 -70 -91 -148 -91c-94 0 -155 75 -155 187c0 111 67 192 175 192
c76 0 123 -50 145 -87c22 42 55 75 109 86v124h-506v52h774v-52z" />
    <glyph glyph-name="uni0935093C094D0930" horiz-adv-x="560" 
d="M397 171h-4l-262 -176l-55 47l146 80v4c-77 8 -153 72 -153 174c0 132 121 197 235 175l6 -57c-78 21 -179 -13 -179 -116c0 -71 53 -127 132 -127c68 0 121 43 134 73v334h-417v52h600v-52h-125v-582h-58v171zM259 -38c0 24 17 41 41 41s41 -17 41 -41s-17 -41 -41 -41
s-41 17 -41 41z" />
    <glyph glyph-name="uni0936093C094D0930" horiz-adv-x="660" 
d="M497 223h-4l-260 -160l-47 42l240 130v4c-86 23 -155 54 -204 87c-51 -22 -111 -39 -175 -53l-41 51c30 5 99 17 166 41c-53 48 -73 98 -73 146c0 74 59 135 144 135c77 0 139 -52 139 -136c0 -67 -40 -117 -105 -156c73 -42 163 -69 220 -81v361h183v-52h-125v-582h-58
v223zM159 511c0 -51 27 -89 67 -122c54 27 96 64 96 121c0 51 -33 83 -79 83c-48 0 -84 -30 -84 -82zM90 1c0 24 17 41 41 41s41 -17 41 -41s-17 -41 -41 -41s-41 17 -41 41z" />
    <glyph glyph-name="uni0937093C094D0930" horiz-adv-x="565" 
d="M256 -23c0 24 17 41 41 41s41 -17 41 -41s-17 -41 -41 -41s-41 17 -41 41zM288 209v4c-101 -9 -183 37 -183 151v218h-125v52h619v-52h-125v-582h-57v251h-4l-283 -258l-63 31zM276 260c48 0 91 17 112 37l-161 155c-40 38 -70 66 -70 66s3 -27 3 -91v-60
c0 -76 48 -107 116 -107zM418 399v183h-261l252 -241c6 17 9 36 9 58z" />
    <glyph glyph-name="uni0938093C094D0930" horiz-adv-x="738" 
d="M385 117l-47 38l189 122c-18 48 -54 93 -116 93c-112 0 -155 -119 -278 -90l-2 -3c22 -26 42 -49 66 -81l123 -163l-47 -32l-251 335l44 35c14 -15 44 -43 95 -43c49 0 73 21 73 70v184h-254v52h778v-52h-125v-582h-58v242h-4zM409 424c79 0 132 -44 162 -118h4v276h-283
v-195c24 16 64 37 117 37zM24 11c0 24 17 41 41 41s41 -17 41 -41s-17 -41 -41 -41s-41 17 -41 41z" />
    <glyph glyph-name="uni0939093C094D0930" horiz-adv-x="541" 
d="M415 242h-141c-76 0 -122 -36 -122 -101c0 -78 66 -149 256 -165l-25 -53c-185 21 -292 103 -292 218c0 48 20 91 58 119c-37 24 -68 65 -68 113c0 57 44 100 113 100h198v109h-412v52h581v-52h-112v-163h-239c-51 0 -68 -21 -68 -50c0 -30 23 -63 61 -83
c20 6 43 10 68 10h147l44 -39v-195h-51v110h-4l-107 -82l-57 27l172 121v4zM40 -66c0 24 17 41 41 41s41 -17 41 -41s-17 -41 -41 -41s-41 17 -41 41z" />
    <glyph glyph-name="uni0915094D0930094D" horiz-adv-x="592" 
d="M554 464c58 0 111 -29 140 -78l-49 -39c-17 38 -55 62 -103 62c-76 0 -128 -54 -128 -135v-274h-57v186h-4l-249 -187l-49 42l146 94v4c-70 3 -147 60 -147 160c0 109 92 179 205 165l9 -55c-97 14 -152 -37 -152 -109c0 -65 47 -112 114 -112c74 0 127 54 127 135v259
h-377v52h632v-52h-198v-180h4c19 27 62 62 136 62z" />
    <glyph glyph-name="uni0916094D0930094D" horiz-adv-x="552" 
d="M382 91c118 0 239 87 239 230c0 73 -51 115 -105 115c-58 0 -98 -38 -98 -96c0 -56 43 -99 118 -102l-33 -47c-70 3 -143 56 -143 149c0 88 67 151 154 151c97 0 162 -75 162 -170c0 -129 -77 -229 -249 -297l-254 -100l-50 53l228 68v4c-114 0 -266 85 -289 325l52 18
c13 -23 33 -44 73 -44c33 0 54 18 54 64v170h-261v52h600v-52h-281v-169c0 -72 -46 -115 -105 -115c-32 0 -49 6 -62 13c26 -145 129 -220 250 -220z" />
    <glyph glyph-name="uni0917094D0930094D" horiz-adv-x="361" 
d="M381 634v-52h-196v-347h-67c-31 27 -47 68 -48 109l57 40v198h-147v52h401zM402 272v-67l-268 -220l-56 37z" />
    <glyph glyph-name="uni0918094D0930094D" horiz-adv-x="375" 
d="M476 287l41 -37c-20 -31 -56 -63 -93 -86l-277 -171l-55 47l173 91v4c-104 -8 -175 53 -175 137c0 61 44 99 83 112v4c-47 7 -91 42 -91 106c0 49 31 76 50 84v4h-152v52h416v-52h-149c-73 0 -103 -38 -103 -86c0 -46 34 -83 115 -83h62v-54h-61c-74 0 -108 -35 -108 -83
s36 -95 124 -95c97 0 163 50 200 106z" />
    <glyph glyph-name="uni0919094D0930094D" horiz-adv-x="613" 
d="M262 -173l49 18l135 -158v-4h-74zM531 402c24 0 42 -18 42 -43c0 -23 -18 -41 -42 -41s-42 18 -42 41c0 25 18 43 42 43zM-20 634h653v-52h-208v-163h-180c-59 0 -75 -26 -75 -62c0 -40 33 -76 70 -86l171 34c37 -21 69 -70 69 -128c0 -69 -46 -128 -122 -151l142 -142
l-68 -18l-132 151h-4l-132 -151l-68 18l138 139c-82 17 -149 73 -195 156l48 34c42 -84 112 -143 203 -143c75 0 130 40 130 107c0 28 -9 52 -31 69l-161 -32c-60 19 -119 77 -119 154c0 60 42 104 109 104h150v110h-388v52z" />
    <glyph glyph-name="uni091A094D0930094D" horiz-adv-x="423" 
d="M453 634v-52h-473v52h473zM493 292l41 -38c-21 -40 -58 -76 -104 -101l-280 -153l-52 49l176 79v4c-81 0 -163 53 -163 152c0 64 40 98 54 109v4h-142v54h364v-53h-87c-79 0 -127 -43 -127 -110c0 -64 48 -108 133 -108c106 0 162 63 187 112z" />
    <glyph glyph-name="uni091B094D0930094D" horiz-adv-x="672" 
d="M692 582h-426c-69 0 -121 -41 -121 -109c0 -59 42 -99 113 -99h37v-54h-24c-69 0 -113 -37 -113 -99c0 -65 50 -119 147 -119c134 0 249 102 249 229c0 62 -35 97 -79 97c-37 0 -67 -25 -67 -64c0 -38 25 -65 70 -70l-36 -41c-58 12 -92 57 -92 111c0 64 51 117 124 117
c84 0 139 -66 139 -150c0 -116 -88 -237 -223 -273l144 -145l-68 -18l-134 153l-134 -153l-68 18l136 136c-110 15 -170 89 -170 170c0 68 41 108 83 124v4c-58 16 -96 64 -96 123c0 67 38 96 54 108v4h-157v52h712v-52z" />
    <glyph glyph-name="uni091C094D0930094D" horiz-adv-x="473" 
d="M492 634v-52h-512v52h512zM623 469v-53h-242v-4c15 -14 49 -46 49 -110c0 -76 -58 -141 -151 -141c-157 0 -234 157 -249 277l61 22c4 -118 74 -244 184 -244c61 0 95 39 95 89c0 70 -61 103 -95 112v4l27 48h321zM623 261v-59l-328 -235l-57 37z" />
    <glyph glyph-name="uni091D094D0930094D" horiz-adv-x="542" 
d="M673 231l-1 3c-30 -11 -77 -19 -131 -19c-38 0 -78 6 -106 16c6 -15 10 -33 10 -52c0 -100 -94 -149 -176 -150l2 -2l157 -107l-73 -38l-149 143c-99 3 -143 52 -143 96c0 20 10 39 19 45l126 -89h39c74 0 140 32 140 101c0 37 -18 58 -31 67l-161 -32
c-60 19 -119 77 -119 154c0 60 42 102 109 102h158v113h-363v52h582v-52h-162v-166h-188c-59 0 -75 -24 -75 -60c0 -40 33 -76 70 -86l169 34c28 -15 81 -34 160 -34c76 0 131 19 156 30v-119l-171 -167l-60 32z" />
    <glyph glyph-name="uni091E094D0930094D" horiz-adv-x="526" 
d="M513 634v-52h-533v52h533zM596 199l-329 -238l-60 39l338 224v4c-11 2 -23 5 -35 9c-38 11 -80 29 -108 48c-27 -61 -90 -105 -175 -105c-105 0 -176 65 -205 115l46 34c28 -45 77 -94 159 -94c65 0 128 42 128 121c0 75 -54 111 -113 111c-35 0 -61 -11 -80 -22l-27 50
c21 12 58 27 109 27c98 0 173 -70 173 -165c0 -6 -1 -12 -1 -18c33 -24 98 -56 180 -77v-63z" />
    <glyph glyph-name="uni091F094D0930094D" horiz-adv-x="494" 
d="M248 -147l49 18l135 -158v-4h-74zM373 417l-144 -44c-94 -29 -115 -63 -115 -122c0 -76 65 -151 168 -151c77 0 123 26 155 60l35 -47c-33 -34 -78 -55 -127 -63l137 -138l-68 -18l-132 151h-4l-132 -151l-68 18l141 142c-100 28 -167 115 -167 207c0 81 45 129 134 157
l129 40v124h-335v52h534v-52h-141v-165z" />
    <glyph glyph-name="uni0920094D0930094D" horiz-adv-x="564" 
d="M248 -147l49 18l135 -158v-4h-74zM307 399l-80 -25c-94 -29 -116 -64 -116 -124c0 -75 60 -150 165 -150c122 0 177 72 177 151c0 97 -97 140 -146 148zM584 582h-213v-146c56 -22 143 -80 143 -191c0 -95 -66 -170 -165 -193l139 -140l-68 -18l-132 151h-4l-132 -151
l-68 18l139 140c-103 23 -173 107 -173 207c0 82 47 130 136 158l127 40v125h-333v52h604v-52z" />
    <glyph glyph-name="uni0921094D0930094D" horiz-adv-x="536" 
d="M248 -147l49 18l135 -158v-4h-74zM425 419h-180c-59 0 -75 -26 -75 -62c0 -40 33 -76 70 -86l171 34c37 -21 69 -70 69 -128c0 -72 -50 -133 -131 -153l139 -140l-68 -18l-132 151h-4l-132 -151l-68 18l140 141c-77 20 -141 75 -185 154l48 34c42 -84 112 -143 203 -143
c75 0 130 40 130 107c0 28 -9 52 -31 69l-161 -32c-60 19 -119 77 -119 154c0 60 42 104 109 104h150v110h-388v52h576v-52h-131v-163z" />
    <glyph glyph-name="uni0922094D0930094D" horiz-adv-x="515" 
d="M248 -147l49 18l135 -158v-4h-74zM393 441l-165 -45c-93 -25 -117 -74 -117 -133c0 -82 70 -164 179 -164c71 0 111 39 111 90c0 33 -25 61 -61 61c-48 0 -69 -42 -60 -84l-56 22c-5 54 34 118 115 118c70 0 122 -52 122 -117c0 -63 -47 -120 -118 -138l138 -139l-68 -18
l-133 151h-2l-133 -151l-68 18l143 143c-101 30 -170 117 -170 213c0 83 55 148 140 172l145 42v100h-355v52h555v-52h-142v-141z" />
    <glyph glyph-name="uni0923094D0930094D" horiz-adv-x="495" 
d="M155 582v-233c0 -69 35 -109 98 -109s98 40 98 109v233h-196zM409 582v-239c0 -101 -67 -158 -156 -158s-156 57 -156 158v239h-117v52h535v-52h-106zM226 18l400 247v-60l-342 -222z" />
    <glyph glyph-name="uni0924094D0930094D" horiz-adv-x="345" 
d="M365 634v-52h-385v52h385zM418 263l-291 -187l-47 44l275 165c-14 53 -63 125 -160 125c-49 0 -88 -17 -119 -43l-43 49c27 22 77 53 151 53c133 0 212 -92 234 -206z" />
    <glyph glyph-name="uni0925094D0930094D" horiz-adv-x="432" 
d="M499 281l37 -44c-18 -26 -62 -64 -116 -95l-288 -163l-54 45l179 90v4c-117 9 -202 100 -214 228l92 27c151 43 175 84 175 141c0 45 -29 75 -76 75c-43 0 -75 -26 -75 -71c0 -22 14 -49 30 -62l-57 -17c-14 13 -32 42 -32 82c0 67 56 123 134 123c82 0 135 -56 135 -132
c0 -86 -64 -147 -197 -185l-59 -17c3 -42 48 -142 182 -142c98 0 172 54 204 113z" />
    <glyph glyph-name="uni0926094D0930094D" horiz-adv-x="514" 
d="M470 -227v-4h-74l-110 144l49 18zM255 83v4c-129 -2 -205 95 -205 194c0 84 46 136 146 161l131 33v107h-347v52h554v-52h-149v-148l-160 -39c-85 -21 -113 -59 -113 -121c0 -71 55 -136 147 -136c47 0 77 11 97 28v102l47 17c18 -9 43 -36 43 -74c0 -45 -19 -64 -33 -79
l100 -137l-72 -17l-66 129l-247 -174l-56 46z" />
    <glyph glyph-name="uni0927094D0930094D" horiz-adv-x="375" 
d="M397 634v-52h-54v52h54zM282 181c100 0 163 59 194 117l38 -43c-16 -27 -58 -69 -104 -98l-258 -164l-55 47l174 90v4c-108 -6 -181 49 -181 135c0 65 41 101 83 113v4c-47 8 -91 42 -91 106c0 47 31 77 52 86v4h-154v52h254l9 -51c-54 -5 -99 -36 -99 -89
c0 -46 35 -84 116 -84h62v-54h-63c-74 0 -107 -32 -107 -85c0 -50 39 -90 130 -90z" />
    <glyph glyph-name="uni0928094D0930094D" horiz-adv-x="333" 
d="M352 634v-52h-372v52h372zM91 128l248 155c-17 67 -69 129 -160 129c-24 0 -36 -3 -53 -8v-67l-42 -10c-21 14 -44 49 -44 86l45 40c16 5 48 14 83 14c134 0 213 -84 234 -207l-263 -173z" />
    <glyph glyph-name="uni092A094D0930094D" horiz-adv-x="332" 
d="M460 293l-40 -37l-290 -263l-63 31l221 185v4c-101 -9 -183 37 -183 151v218h-125v52h372v-52h-189v-207c0 -79 35 -113 111 -113c56 0 116 27 160 76z" />
    <glyph glyph-name="uni092B094D0930094D" horiz-adv-x="595" 
d="M266 245c63 0 108 45 124 79v258h-227v-223c0 -82 38 -114 103 -114zM448 259v-259h-58v246h-4l-273 -240l-57 38l190 148v4c-75 3 -141 48 -141 155v231h-125v52h635v-52h-167v-183h4c17 25 64 65 138 65c60 0 114 -29 143 -78l-49 -38c-16 37 -53 60 -103 60
c-74 0 -133 -58 -133 -149z" />
    <glyph glyph-name="uni092C094D0930094D" horiz-adv-x="372" 
d="M134 -5l-51 45l148 77v4c-79 10 -162 76 -162 184c0 115 96 193 206 193c21 0 47 -2 66 -8l2 -57c-21 8 -44 11 -66 11c-34 0 -66 -10 -92 -28l217 -185c21 26 32 54 37 73l42 -29c-15 -48 -57 -101 -117 -138zM274 169c38 0 68 11 92 28l-216 184
c-14 -21 -21 -46 -21 -74c0 -77 55 -138 145 -138zM380 634v-52h-400v52h400z" />
    <glyph glyph-name="uni092D094D0930094D" horiz-adv-x="332" 
d="M352 634v-52h-51v52h51zM444 303v-62l-296 -247l-53 36zM444 368v-54h-262v-92h-67c-30 24 -49 68 -50 104l59 41v140c0 53 -24 75 -79 75h-65v52h68c84 0 134 -45 134 -122v-144h262z" />
    <glyph glyph-name="uni092E094D0930094D" horiz-adv-x="332" 
d="M352 634v-52h-170v-214h262v-54h-262v-92h-67c-30 24 -49 68 -50 104l59 41v215h-144v52h372zM444 303v-62l-296 -247l-53 36z" />
    <glyph glyph-name="uni092F094D0930094D" horiz-adv-x="374" 
d="M461 312l36 -42c-18 -33 -49 -68 -111 -108l-268 -174l-55 47l197 110v4c-101 4 -194 76 -210 217c96 22 146 58 146 118c0 40 -19 75 -47 98h-169v52h414v-52h-177v-4c22 -25 40 -55 40 -103c0 -69 -58 -120 -138 -140c9 -53 48 -136 168 -136c91 0 147 57 174 113z" />
    <glyph glyph-name="uni0932094D0930094D" horiz-adv-x="450" 
d="M470 634v-52h-490v52h490zM214 445c66 0 108 -33 122 -81h4c15 52 61 85 118 85c61 0 105 -27 131 -57l-29 -43c-10 11 -44 45 -98 45c-58 0 -96 -38 -96 -107v-86h-58v85c0 69 -35 104 -90 104c-53 0 -97 -38 -97 -121c0 -93 50 -168 135 -219l-44 -42
c-81 51 -152 144 -152 262c0 112 74 175 154 175zM555 222l30 -40l-222 -183l-52 32z" />
    <glyph glyph-name="uni0933094D0930094D" horiz-adv-x="734" 
d="M390 244l-5 -14c26 -50 59 -94 129 -94c64 0 108 49 108 135c0 73 -36 136 -104 136c-83 0 -100 -81 -128 -163zM348 298l5 15c-25 49 -64 92 -126 92c-64 0 -110 -52 -110 -134c0 -73 32 -137 100 -137c83 0 106 81 131 164zM321 -54l141 142c-51 15 -85 53 -102 83
c-28 -51 -70 -91 -148 -91c-94 0 -155 75 -155 187c0 111 67 192 175 192c76 0 123 -50 145 -87c27 51 69 89 146 89c94 0 159 -74 159 -186c0 -89 -41 -154 -105 -180l148 -149l-68 -18l-134 153l-134 -153zM-20 634h774v-52h-774v52z" />
    <glyph glyph-name="uni0935094D0930094D" horiz-adv-x="333" 
d="M354 634v-52h-374v52h374zM408 288l42 -35c-18 -39 -49 -79 -106 -117l-213 -141l-55 47l146 80v4c-77 8 -153 72 -153 174c0 132 121 197 235 175l6 -57c-78 21 -179 -13 -179 -116c0 -71 53 -127 132 -127c88 0 132 67 145 113z" />
    <glyph glyph-name="uni0936094D0930094D" horiz-adv-x="431" 
d="M532 244l-299 -181l-47 42l240 130v4c-86 23 -155 54 -204 87c-51 -22 -111 -39 -175 -53l-41 51c30 5 99 17 166 41c-53 48 -73 98 -73 146c0 74 59 135 144 135c77 0 139 -52 139 -136c0 -67 -40 -117 -105 -156c73 -42 164 -69 255 -87v-23zM159 511
c0 -51 27 -89 67 -122c54 27 96 64 96 121c0 51 -33 83 -79 83c-48 0 -84 -30 -84 -82z" />
    <glyph glyph-name="uni0937094D0930094D" horiz-adv-x="316" 
d="M276 260c48 0 91 17 112 37l-161 155c-40 38 -70 66 -70 66s3 -27 3 -91v-60c0 -76 48 -107 116 -107zM455 297v-6l-325 -298l-63 31l221 185v4c-101 -9 -183 37 -183 151v218h-125v52h356v-52h-179z" />
    <glyph glyph-name="uni0938094D0930094D" horiz-adv-x="476" 
d="M588 254l-204 -139l-47 38l185 122c-13 50 -49 93 -112 93c-112 0 -154 -117 -277 -88l-2 -3c22 -26 42 -49 66 -81l123 -163l-47 -32l-251 335l44 35c14 -15 44 -43 95 -43c49 0 73 21 73 70v184h-254v52h516v-52h-204v-195c24 16 63 35 116 35c84 0 156 -47 180 -168z
" />
    <glyph glyph-name="uni0939094D0930094D" horiz-adv-x="541" 
d="M415 242h-141c-76 0 -122 -36 -122 -101c0 -78 66 -149 256 -165l-25 -53c-185 21 -292 103 -292 218c0 48 20 91 58 119c-37 24 -68 65 -68 113c0 57 44 100 113 100h198v109h-412v52h581v-52h-112v-163h-239c-51 0 -68 -21 -68 -50c0 -30 23 -63 61 -83
c20 6 43 10 68 10h147l44 -39v-195h-51v110h-4l-107 -82l-57 27l172 121v4zM470 -277v-4h-74l-110 144l49 18z" />
    <glyph glyph-name="uni0915093C094D0930094D" horiz-adv-x="592" 
d="M212 -22c0 24 17 41 41 41s41 -17 41 -41s-17 -41 -41 -41s-41 17 -41 41zM554 464c58 0 111 -29 140 -78l-49 -39c-17 38 -55 62 -103 62c-76 0 -128 -54 -128 -135v-274h-57v186h-4l-249 -187l-49 42l146 94v4c-70 3 -147 60 -147 160c0 109 92 179 205 165l9 -55
c-97 14 -152 -37 -152 -109c0 -65 47 -112 114 -112c74 0 127 54 127 135v259h-377v52h632v-52h-198v-180h4c19 27 62 62 136 62z" />
    <glyph glyph-name="uni0916093C094D0930094D" horiz-adv-x="552" 
d="M382 91c118 0 239 87 239 230c0 73 -51 115 -105 115c-58 0 -98 -38 -98 -96c0 -56 43 -99 118 -102l-33 -47c-70 3 -143 56 -143 149c0 88 67 151 154 151c97 0 162 -75 162 -170c0 -129 -77 -229 -249 -297l-254 -100l-50 53l228 68v4c-114 0 -266 85 -289 325l52 18
c13 -23 33 -44 73 -44c33 0 54 18 54 64v170h-261v52h600v-52h-281v-169c0 -72 -46 -115 -105 -115c-32 0 -49 6 -62 13c26 -145 129 -220 250 -220zM457 -61c0 24 17 41 41 41s41 -17 41 -41s-17 -41 -41 -41s-41 17 -41 41z" />
    <glyph glyph-name="uni0917093C094D0930094D" horiz-adv-x="361" 
d="M381 634v-52h-196v-347h-67c-31 27 -47 68 -48 109l57 40v198h-147v52h401zM402 272v-67l-268 -220l-56 37zM250 -36c0 24 17 41 41 41s41 -17 41 -41s-17 -41 -41 -41s-41 17 -41 41z" />
    <glyph glyph-name="uni0918093C094D0930094D" horiz-adv-x="375" 
d="M476 287l41 -37c-20 -31 -56 -63 -93 -86l-277 -171l-55 47l173 91v4c-104 -8 -175 53 -175 137c0 61 44 99 83 112v4c-47 7 -91 42 -91 106c0 49 31 76 50 84v4h-152v52h416v-52h-149c-73 0 -103 -38 -103 -86c0 -46 34 -83 115 -83h62v-54h-61c-74 0 -108 -35 -108 -83
s36 -95 124 -95c97 0 163 50 200 106zM302 -22c0 24 17 41 41 41s41 -17 41 -41s-17 -41 -41 -41s-41 17 -41 41z" />
    <glyph glyph-name="uni0919093C094D0930094D" horiz-adv-x="613" 
d="M23 35c24 0 41 -17 41 -41s-17 -41 -41 -41s-41 17 -41 41s17 41 41 41zM262 -173l49 18l135 -158v-4h-74zM531 402c24 0 42 -18 42 -43c0 -23 -18 -41 -42 -41s-42 18 -42 41c0 25 18 43 42 43zM-20 634h653v-52h-208v-163h-180c-59 0 -75 -26 -75 -62
c0 -40 33 -76 70 -86l171 34c37 -21 69 -70 69 -128c0 -69 -46 -128 -122 -151l142 -142l-68 -18l-132 151h-4l-132 -151l-68 18l138 139c-82 17 -149 73 -195 156l48 34c42 -84 112 -143 203 -143c75 0 130 40 130 107c0 28 -9 52 -31 69l-161 -32c-60 19 -119 77 -119 154
c0 60 42 104 109 104h150v110h-388v52z" />
    <glyph glyph-name="uni091A093C094D0930094D" horiz-adv-x="423" 
d="M307 -22c0 24 17 41 41 41s41 -17 41 -41s-17 -41 -41 -41s-41 17 -41 41zM453 634v-52h-473v52h473zM493 292l41 -38c-21 -40 -58 -76 -104 -101l-280 -153l-52 49l176 79v4c-81 0 -163 53 -163 152c0 64 40 98 54 109v4h-142v54h364v-53h-87c-79 0 -127 -43 -127 -110
c0 -64 48 -108 133 -108c106 0 162 63 187 112z" />
    <glyph glyph-name="uni091B093C094D0930094D" horiz-adv-x="672" 
d="M71 45c24 0 41 -17 41 -41s-17 -41 -41 -41s-41 17 -41 41s17 41 41 41zM692 582h-426c-69 0 -121 -41 -121 -109c0 -59 42 -99 113 -99h37v-54h-24c-69 0 -113 -37 -113 -99c0 -65 50 -119 147 -119c134 0 249 102 249 229c0 62 -35 97 -79 97c-37 0 -67 -25 -67 -64
c0 -38 25 -65 70 -70l-36 -41c-58 12 -92 57 -92 111c0 64 51 117 124 117c84 0 139 -66 139 -150c0 -111 -80 -225 -205 -267l150 -151l-68 -18l-134 153l-134 -153l-68 18l134 134c-124 7 -192 86 -192 172c0 68 41 108 83 124v4c-58 16 -96 64 -96 123c0 67 38 96 54 108
v4h-157v52h712v-52z" />
    <glyph glyph-name="uni091C093C094D0930094D" horiz-adv-x="473" 
d="M492 634v-52h-512v52h512zM623 469v-53h-242v-4c15 -14 49 -46 49 -110c0 -76 -58 -141 -151 -141c-157 0 -234 157 -249 277l61 22c4 -118 74 -244 184 -244c61 0 95 39 95 89c0 70 -61 103 -95 112v4l27 48h321zM623 261v-59l-328 -235l-57 37zM103 77
c0 24 17 41 41 41s41 -17 41 -41s-17 -41 -41 -41s-41 17 -41 41z" />
    <glyph glyph-name="uni091D093C094D0930094D" horiz-adv-x="542" 
d="M673 231l-1 3c-30 -11 -77 -19 -131 -19c-38 0 -78 6 -106 16c6 -15 10 -33 10 -52c0 -100 -94 -149 -176 -150l2 -2l157 -107l-73 -38l-149 143c-99 3 -143 52 -143 96c0 20 10 39 19 45l126 -89h39c74 0 140 32 140 101c0 37 -18 58 -31 67l-161 -32
c-60 19 -119 77 -119 154c0 60 42 102 109 102h158v113h-363v52h582v-52h-162v-166h-188c-59 0 -75 -24 -75 -60c0 -40 33 -76 70 -86l169 34c28 -15 81 -34 160 -34c76 0 131 19 156 30v-119l-171 -167l-60 32zM127 -69c0 24 17 41 41 41s41 -17 41 -41s-17 -41 -41 -41
s-41 17 -41 41z" />
    <glyph glyph-name="uni091E093C094D0930094D" horiz-adv-x="526" 
d="M513 634v-52h-533v52h533zM596 199l-329 -238l-60 39l338 224v4c-11 2 -23 5 -35 9c-38 11 -80 29 -108 48c-27 -61 -90 -105 -175 -105c-105 0 -176 65 -205 115l46 34c28 -45 77 -94 159 -94c65 0 128 42 128 121c0 75 -54 111 -113 111c-35 0 -61 -11 -80 -22l-27 50
c21 12 58 27 109 27c98 0 173 -70 173 -165c0 -6 -1 -12 -1 -18c33 -24 98 -56 180 -77v-63zM86 88c0 24 17 41 41 41s41 -17 41 -41s-17 -41 -41 -41s-41 17 -41 41z" />
    <glyph glyph-name="uni091F093C094D0930094D" horiz-adv-x="494" 
d="M20 81c24 0 41 -17 41 -41s-17 -41 -41 -41s-41 17 -41 41s17 41 41 41zM247 -167l49 18l135 -158v-4h-74zM373 417l-144 -44c-94 -29 -115 -63 -115 -122c0 -76 65 -151 168 -151c77 0 123 26 155 60l35 -47c-32 -32 -74 -52 -119 -62l138 -139l-68 -18l-132 151h-2h-2
l-132 -151l-68 18l140 141c-104 25 -175 114 -175 208c0 81 45 129 134 157l129 40v124h-335v52h534v-52h-141v-165z" />
    <glyph glyph-name="uni0920093C094D0930094D" horiz-adv-x="564" 
d="M21 72c24 0 41 -17 41 -41s-17 -41 -41 -41s-41 17 -41 41s17 41 41 41zM259 -158l49 18l135 -158v-4h-74zM307 399l-80 -25c-94 -29 -116 -64 -116 -124c0 -75 60 -150 165 -150c122 0 177 72 177 151c0 97 -97 140 -146 148zM584 582h-213v-146
c56 -22 143 -80 143 -191c0 -92 -63 -165 -157 -191l142 -142l-68 -18l-133 151h-3l-132 -151l-68 18l137 138c-107 21 -182 106 -182 209c0 82 47 130 136 158l127 40v125h-333v52h604v-52z" />
    <glyph glyph-name="uni0921093C094D0930094D" horiz-adv-x="536" 
d="M10 32c24 0 41 -17 41 -41s-17 -41 -41 -41s-41 17 -41 41s17 41 41 41zM255 -183l49 18l135 -158v-4h-74zM425 419h-180c-59 0 -75 -26 -75 -62c0 -40 33 -76 70 -86l171 34c37 -21 69 -70 69 -128c0 -70 -48 -131 -126 -152l140 -141l-68 -18l-132 151h-4l-132 -151
l-68 18l139 140c-79 19 -145 74 -190 155l48 34c42 -84 112 -143 203 -143c75 0 130 40 130 107c0 28 -9 52 -31 69l-161 -32c-60 19 -119 77 -119 154c0 60 42 104 109 104h150v110h-388v52h576v-52h-131v-163z" />
    <glyph glyph-name="uni0922093C094D0930094D" horiz-adv-x="515" 
d="M-1 81c24 0 41 -17 41 -41s-17 -41 -41 -41s-41 17 -41 41s17 41 41 41zM256 -156l49 18l135 -158v-4h-74zM393 441l-165 -45c-93 -25 -117 -74 -117 -133c0 -82 70 -164 179 -164c71 0 111 39 111 90c0 33 -25 61 -61 61c-48 0 -69 -42 -60 -84l-56 22
c-5 54 34 118 115 118c70 0 122 -52 122 -117c0 -60 -43 -115 -109 -135l141 -142l-68 -18l-132 151h-4l-132 -151l-68 18l140 141c-106 26 -179 116 -179 215c0 83 55 148 140 172l145 42v100h-355v52h555v-52h-142v-141z" />
    <glyph glyph-name="uni0923093C094D0930094D" horiz-adv-x="495" 
d="M68 112c24 0 41 -17 41 -41s-17 -41 -41 -41s-41 17 -41 41s17 41 41 41zM155 582v-233c0 -69 35 -109 98 -109s98 40 98 109v233h-196zM409 582v-239c0 -101 -67 -158 -156 -158s-156 57 -156 158v239h-117v52h535v-52h-106zM226 18l400 247v-60l-342 -222z" />
    <glyph glyph-name="uni0924093C094D0930094D" horiz-adv-x="345" 
d="M365 634v-52h-385v52h385zM418 263l-291 -187l-47 44l275 165c-14 53 -63 125 -160 125c-49 0 -88 -17 -119 -43l-43 49c27 22 77 53 151 53c133 0 212 -92 234 -206zM211 -1c0 24 17 41 41 41s41 -17 41 -41s-17 -41 -41 -41s-41 17 -41 41z" />
    <glyph glyph-name="uni0925093C094D0930094D" horiz-adv-x="432" 
d="M499 281l37 -44c-18 -26 -62 -64 -116 -95l-288 -163l-54 45l179 90v4c-117 9 -202 100 -214 228l92 27c151 43 175 84 175 141c0 45 -29 75 -76 75c-43 0 -75 -26 -75 -71c0 -22 14 -49 30 -62l-57 -17c-14 13 -32 42 -32 82c0 67 56 123 134 123c82 0 135 -56 135 -132
c0 -86 -64 -147 -197 -185l-59 -17c3 -42 48 -142 182 -142c98 0 172 54 204 113zM302 -32c0 24 17 41 41 41s41 -17 41 -41s-17 -41 -41 -41s-41 17 -41 41z" />
    <glyph glyph-name="uni0926093C094D0930094D" horiz-adv-x="514" 
d="M544 -248v-4h-74l-110 144l49 18zM255 83v4c-129 -2 -205 95 -205 194c0 84 46 136 146 161l131 33v107h-347v52h554v-52h-149v-148l-160 -39c-85 -21 -113 -59 -113 -121c0 -71 55 -136 147 -136c47 0 77 11 97 28v102l47 17c18 -9 43 -36 43 -74c0 -45 -19 -64 -33 -79
l100 -137l-72 -17l-66 129l-247 -174l-56 46zM211 -130c0 24 17 41 41 41s41 -17 41 -41s-17 -41 -41 -41s-41 17 -41 41z" />
    <glyph glyph-name="uni0927093C094D0930094D" horiz-adv-x="375" 
d="M397 634v-52h-54v52h54zM282 181c100 0 163 59 194 117l38 -43c-16 -27 -58 -69 -104 -98l-258 -164l-55 47l174 90v4c-108 -6 -181 49 -181 135c0 65 41 101 83 113v4c-47 8 -91 42 -91 106c0 47 31 77 52 86v4h-154v52h254l9 -51c-54 -5 -99 -36 -99 -89
c0 -46 35 -84 116 -84h62v-54h-63c-74 0 -107 -32 -107 -85c0 -50 39 -90 130 -90zM314 -26c0 24 17 41 41 41s41 -17 41 -41s-17 -41 -41 -41s-41 17 -41 41z" />
    <glyph glyph-name="uni0928093C094D0930094D" horiz-adv-x="333" 
d="M352 634v-52h-372v52h372zM91 128l248 155c-17 67 -69 129 -160 129c-24 0 -36 -3 -53 -8v-67l-42 -10c-21 14 -44 49 -44 86l45 40c16 5 48 14 83 14c134 0 213 -84 234 -207l-263 -173zM223 0c0 24 17 41 41 41s41 -17 41 -41s-17 -41 -41 -41s-41 17 -41 41z" />
    <glyph glyph-name="uni092A093C094D0930094D" horiz-adv-x="332" 
d="M460 293l-40 -37l-290 -263l-63 31l221 185v4c-101 -9 -183 37 -183 151v218h-125v52h372v-52h-189v-207c0 -79 35 -113 111 -113c56 0 116 27 160 76zM265 -23c0 24 17 41 41 41s41 -17 41 -41s-17 -41 -41 -41s-41 17 -41 41z" />
    <glyph glyph-name="uni092B093C094D0930094D" horiz-adv-x="595" 
d="M233 -23c0 24 17 41 41 41s41 -17 41 -41s-17 -41 -41 -41s-41 17 -41 41zM266 245c63 0 108 45 124 79v258h-227v-223c0 -82 38 -114 103 -114zM448 259v-259h-58v246h-4l-273 -240l-57 38l190 148v4c-75 3 -141 48 -141 155v231h-125v52h635v-52h-167v-183h4
c17 25 64 65 138 65c60 0 114 -29 143 -78l-49 -38c-16 37 -53 60 -103 60c-74 0 -133 -58 -133 -149z" />
    <glyph glyph-name="uni092C093C094D0930094D" horiz-adv-x="372" 
d="M134 -5l-51 45l148 77v4c-79 10 -162 76 -162 184c0 115 96 193 206 193c21 0 47 -2 66 -8l2 -57c-21 8 -44 11 -66 11c-34 0 -66 -10 -92 -28l217 -185c21 26 32 54 37 73l42 -29c-15 -48 -57 -101 -117 -138zM274 169c38 0 68 11 92 28l-216 184
c-14 -21 -21 -46 -21 -74c0 -77 55 -138 145 -138zM380 634v-52h-400v52h400zM267 -33c0 24 17 41 41 41s41 -17 41 -41s-17 -41 -41 -41s-41 17 -41 41z" />
    <glyph glyph-name="uni092D093C094D0930094D" horiz-adv-x="332" 
d="M352 634v-52h-51v52h51zM444 303v-62l-296 -247l-53 36zM444 368v-54h-262v-92h-67c-30 24 -49 68 -50 104l59 41v140c0 53 -24 75 -79 75h-65v52h68c84 0 134 -45 134 -122v-144h262zM267 -36c0 24 17 41 41 41s41 -17 41 -41s-17 -41 -41 -41s-41 17 -41 41z" />
    <glyph glyph-name="uni092E093C094D0930094D" horiz-adv-x="332" 
d="M352 634v-52h-170v-214h262v-54h-262v-92h-67c-30 24 -49 68 -50 104l59 41v215h-144v52h372zM444 303v-62l-296 -247l-53 36zM266 -33c0 24 17 41 41 41s41 -17 41 -41s-17 -41 -41 -41s-41 17 -41 41z" />
    <glyph glyph-name="uni092F093C094D0930094D" horiz-adv-x="374" 
d="M461 312l36 -42c-18 -33 -49 -68 -111 -108l-268 -174l-55 47l197 110v4c-101 4 -194 76 -210 217c96 22 146 58 146 118c0 40 -19 75 -47 98h-169v52h414v-52h-177v-4c22 -25 40 -55 40 -103c0 -69 -58 -120 -138 -140c9 -53 48 -136 168 -136c91 0 147 57 174 113z
M285 -33c0 24 17 41 41 41s41 -17 41 -41s-17 -41 -41 -41s-41 17 -41 41z" />
    <glyph glyph-name="uni0932093C094D0930094D" horiz-adv-x="450" 
d="M17 -69c0 24 17 41 41 41s41 -17 41 -41s-17 -41 -41 -41s-41 17 -41 41zM470 634v-52h-490v52h490zM214 445c66 0 108 -33 122 -81h4c15 52 61 85 118 85c61 0 105 -27 131 -57l-29 -43c-10 11 -44 45 -98 45c-58 0 -96 -38 -96 -107v-86h-58v85c0 69 -35 104 -90 104
c-53 0 -97 -38 -97 -121c0 -93 50 -168 135 -219l-44 -42c-81 51 -152 144 -152 262c0 112 74 175 154 175zM555 222l30 -40l-222 -183l-52 32z" />
    <glyph glyph-name="uni0933093C094D0930094D" horiz-adv-x="734" 
d="M122 41c24 0 41 -17 41 -41s-17 -41 -41 -41s-41 17 -41 41s17 41 41 41zM390 244l-5 -14c26 -50 59 -94 129 -94c64 0 108 49 108 135c0 73 -36 136 -104 136c-83 0 -100 -81 -128 -163zM348 298l5 15c-25 49 -64 92 -126 92c-64 0 -110 -52 -110 -134
c0 -73 32 -137 100 -137c83 0 106 81 131 164zM321 -54l141 142c-51 15 -85 53 -102 83c-28 -51 -70 -91 -148 -91c-94 0 -155 75 -155 187c0 111 67 192 175 192c76 0 123 -50 145 -87c27 51 69 89 146 89c94 0 159 -74 159 -186c0 -89 -41 -154 -105 -180l148 -149
l-68 -18l-134 153l-134 -153zM-20 634h774v-52h-774v52z" />
    <glyph glyph-name="uni0935093C094D0930094D" horiz-adv-x="333" 
d="M354 634v-52h-374v52h374zM408 288l42 -35c-18 -39 -49 -79 -106 -117l-213 -141l-55 47l146 80v4c-77 8 -153 72 -153 174c0 132 121 197 235 175l6 -57c-78 21 -179 -13 -179 -116c0 -71 53 -127 132 -127c88 0 132 67 145 113zM259 -38c0 24 17 41 41 41
s41 -17 41 -41s-17 -41 -41 -41s-41 17 -41 41z" />
    <glyph glyph-name="uni0936093C094D0930094D" horiz-adv-x="431" 
d="M532 244l-299 -181l-47 42l240 130v4c-86 23 -155 54 -204 87c-51 -22 -111 -39 -175 -53l-41 51c30 5 99 17 166 41c-53 48 -73 98 -73 146c0 74 59 135 144 135c77 0 139 -52 139 -136c0 -67 -40 -117 -105 -156c73 -42 164 -69 255 -87v-23zM159 511
c0 -51 27 -89 67 -122c54 27 96 64 96 121c0 51 -33 83 -79 83c-48 0 -84 -30 -84 -82zM90 1c0 24 17 41 41 41s41 -17 41 -41s-17 -41 -41 -41s-41 17 -41 41z" />
    <glyph glyph-name="uni0937093C094D0930094D" horiz-adv-x="316" 
d="M276 260c48 0 91 17 112 37l-161 155c-40 38 -70 66 -70 66s3 -27 3 -91v-60c0 -76 48 -107 116 -107zM455 297v-6l-325 -298l-63 31l221 185v4c-101 -9 -183 37 -183 151v218h-125v52h356v-52h-179zM256 -23c0 24 17 41 41 41s41 -17 41 -41s-17 -41 -41 -41
s-41 17 -41 41z" />
    <glyph glyph-name="uni0938093C094D0930094D" horiz-adv-x="476" 
d="M24 11c0 24 17 41 41 41s41 -17 41 -41s-17 -41 -41 -41s-41 17 -41 41zM588 254l-204 -139l-47 38l185 122c-13 50 -49 93 -112 93c-112 0 -154 -117 -277 -88l-2 -3c22 -26 42 -49 66 -81l123 -163l-47 -32l-251 335l44 35c14 -15 44 -43 95 -43c49 0 73 21 73 70v184
h-254v52h516v-52h-204v-195c24 16 63 35 116 35c84 0 156 -47 180 -168z" />
    <glyph glyph-name="uni0939093C094D0930094D" horiz-adv-x="541" 
d="M415 242h-141c-76 0 -122 -36 -122 -101c0 -78 66 -149 256 -165l-25 -53c-185 21 -292 103 -292 218c0 48 20 91 58 119c-37 24 -68 65 -68 113c0 57 44 100 113 100h198v109h-412v52h581v-52h-112v-163h-239c-51 0 -68 -21 -68 -50c0 -30 23 -63 61 -83
c20 6 43 10 68 10h147l44 -39v-195h-51v110h-4l-107 -82l-57 27l172 121v4zM440 -287v-4h-74l-110 144l49 18zM40 -66c0 24 17 41 41 41s41 -17 41 -41s-17 -41 -41 -41s-41 17 -41 41z" />
    <glyph glyph-name="uni0915094D0915" horiz-adv-x="1345" 
d="M935 323v259h-525v-180h4c19 27 62 62 136 62c48 0 93 -19 124 -53c39 42 100 62 163 53l9 -55c-73 12 -152 -19 -152 -109c0 -65 45 -112 113 -112c76 0 128 54 128 135zM1365 582h-373v-180h4c19 27 62 62 136 62c87 0 163 -65 163 -165c0 -116 -100 -181 -205 -166
l-9 55c73 -12 152 19 152 109c0 66 -46 112 -113 112c-76 0 -128 -54 -128 -135v-274h-57v195h-4c-19 -27 -61 -62 -135 -62c-87 0 -164 66 -164 165c0 20 3 39 9 56c-20 33 -56 55 -103 55c-76 0 -128 -54 -128 -135v-274h-57v195h-4c-19 -27 -61 -62 -135 -62
c-87 0 -164 66 -164 165c0 116 100 181 205 166l9 -55c-73 12 -152 -19 -152 -109c0 -65 45 -112 113 -112c76 0 128 54 128 135v259h-373v52h1385v-52z" />
    <glyph glyph-name="uni0915094D0916" horiz-adv-x="1351" 
d="M871 582v-169c0 -72 -46 -115 -105 -115c-32 0 -49 6 -62 13c28 -144 128 -220 248 -220c127 0 239 81 239 227c0 76 -50 118 -103 118c-58 0 -98 -38 -98 -96c0 -56 41 -99 116 -102l-31 -47c-70 3 -143 56 -143 149c0 89 69 151 151 151c53 0 82 -18 101 -38h4v129
h-317zM683 399l4 -9c13 -22 33 -42 72 -42c33 0 54 18 54 64v170h-403v-180h4c19 27 62 62 136 62c53 0 103 -24 133 -65zM1371 634v-52h-125v-582h-57v143h-4c-47 -60 -129 -107 -232 -107c-181 0 -294 132 -317 317c-17 35 -52 56 -98 56c-76 0 -128 -54 -128 -135v-274
h-57v195h-4c-19 -27 -61 -62 -135 -62c-87 0 -164 66 -164 165c0 116 100 181 205 166l9 -55c-73 12 -152 -19 -152 -109c0 -65 45 -112 113 -112c76 0 128 54 128 135v259h-373v52h1391z" />
    <glyph glyph-name="uni0915094D091A" horiz-adv-x="1201" 
d="M1038 361v221h-628v-180h4c18 25 55 62 125 62c23 0 48 -5 69 -13h332v-53h-83c-77 0 -122 -46 -122 -110c0 -63 51 -110 129 -110c100 0 174 70 174 183zM1221 634v-52h-125v-582h-58v203h-4c-22 -32 -78 -80 -177 -80c-109 0 -184 74 -184 163c0 62 34 95 52 107v4
h-140c-16 8 -34 12 -54 12c-71 0 -121 -53 -121 -135v-274h-57v195h-4c-19 -27 -61 -62 -135 -62c-87 0 -164 66 -164 165c0 116 100 181 205 166l9 -55c-73 12 -152 -19 -152 -109c0 -65 45 -112 113 -112c76 0 128 54 128 135v259h-373v52h1241z" />
    <glyph glyph-name="uni0915094D091C" horiz-adv-x="1299" 
d="M1136 433v149h-726v-180h4c19 27 62 62 136 62c42 0 79 -14 108 -40c4 -118 74 -244 184 -244c61 0 95 39 95 89c0 70 -61 103 -95 112v4l27 48h267zM1319 634v-52h-125v-582h-58v380h-188v-4c15 -14 49 -46 49 -110c0 -76 -58 -141 -151 -141c-154 0 -231 150 -248 269
c-17 10 -38 15 -60 15c-76 0 -128 -54 -128 -135v-274h-57v195h-4c-19 -27 -61 -62 -135 -62c-87 0 -164 66 -164 165c0 116 100 181 205 166l9 -55c-73 12 -152 -19 -152 -109c0 -65 45 -112 113 -112c76 0 128 54 128 135v259h-373v52h1339z" />
    <glyph glyph-name="uni0915094D091F" horiz-adv-x="1075" 
d="M410 402h4c19 27 62 62 136 62c72 0 116 -38 139 -84c20 15 46 28 78 38l129 40v124h-486v-180zM954 417l-144 -44c-94 -29 -115 -63 -115 -122c0 -76 65 -151 168 -151c77 0 123 26 155 60l35 -47c-46 -47 -114 -68 -183 -68c-137 0 -237 104 -237 216c0 27 5 50 15 70
c-12 38 -45 78 -110 78c-76 0 -128 -54 -128 -135v-274h-57v195h-4c-19 -27 -61 -62 -135 -62c-87 0 -164 66 -164 165c0 116 100 181 205 166l9 -55c-73 12 -152 -19 -152 -109c0 -65 45 -112 113 -112c76 0 128 54 128 135v259h-373v52h1115v-52h-141v-165z" />
    <glyph glyph-name="uni0915094D0923" horiz-adv-x="1296" 
d="M892 349v233h-194v-233c0 -69 34 -109 97 -109s97 40 97 109zM410 402h4c19 27 62 62 136 62c32 0 63 -9 90 -25v143h-230v-180zM1316 634v-52h-125v-582h-58v582h-183v-239c0 -101 -66 -158 -155 -158s-155 57 -155 158v12c-20 32 -55 54 -102 54
c-76 0 -128 -54 -128 -135v-274h-57v195h-4c-19 -27 -61 -62 -135 -62c-87 0 -164 66 -164 165c0 116 100 181 205 166l9 -55c-73 12 -152 -19 -152 -109c0 -65 45 -112 113 -112c76 0 128 54 128 135v259h-373v52h1336z" />
    <glyph glyph-name="uni0915094D0924" horiz-adv-x="796" 
d="M148 355h-119v54h349v173h-398v52h836v-52h-380v-210h4c11 13 50 53 131 53c101 0 176 -74 176 -178s-73 -183 -175 -196l-21 52c79 7 134 61 134 141s-54 126 -123 126c-65 0 -126 -46 -126 -117v-253h-58v355h-102c-84 0 -123 -53 -123 -123c0 -97 68 -141 106 -160
l-40 -42c-63 30 -126 106 -126 195c0 80 41 115 55 126v4z" />
    <glyph glyph-name="uni0915094D0925" horiz-adv-x="1238" 
d="M1076 634h182v-52h-125v-582h-58v203h-4c-25 -40 -88 -92 -190 -92c-144 0 -229 107 -238 233c-16 37 -46 65 -105 65c-76 0 -128 -54 -128 -135v-274h-57v195h-4c-19 -27 -61 -62 -135 -62c-87 0 -164 66 -164 165c0 116 100 181 205 166l9 -55
c-73 12 -152 -19 -152 -109c0 -65 45 -112 113 -112c76 0 128 54 128 135v259h-373v52h622v-52h-192v-180h4c19 27 62 62 136 62c80 0 125 -42 150 -101l35 10c151 43 175 84 175 141c0 45 -29 75 -76 75c-43 0 -75 -26 -75 -71c0 -22 14 -49 30 -62l-57 -17
c-14 13 -32 42 -32 82c0 67 56 123 134 123c82 0 135 -56 135 -132c0 -86 -64 -147 -197 -185l-59 -17c5 -43 48 -144 169 -144c129 0 194 93 194 199v269z" />
    <glyph glyph-name="uni0915094D0926" horiz-adv-x="1090" 
d="M410 402h4c19 27 62 62 136 62c53 0 102 -23 134 -65c24 18 54 32 91 41l129 32v110h-494v-180zM962 431l-162 -40c-84 -21 -111 -58 -111 -114c0 -76 60 -142 150 -142c44 0 79 11 96 26v103l46 17c18 -8 43 -36 43 -74c0 -40 -18 -68 -33 -81l106 -138l-71 -18l-75 132
c-27 -14 -66 -22 -103 -22c-143 0 -221 107 -221 201c0 26 5 49 16 70c-20 34 -56 58 -105 58c-76 0 -128 -54 -128 -135v-274h-57v195h-4c-19 -27 -61 -62 -135 -62c-87 0 -164 66 -164 165c0 116 100 181 205 166l9 -55c-73 12 -152 -19 -152 -109c0 -65 45 -112 113 -112
c76 0 128 54 128 135v259h-373v52h1130v-52h-148v-151z" />
    <glyph glyph-name="uni0915094D0928" horiz-adv-x="1090" 
d="M714 255l-41 -12c-32 22 -54 72 -54 122c-20 20 -48 31 -81 31c-76 0 -128 -54 -128 -135v-261h-57v195h-4c-19 -27 -61 -62 -135 -62c-87 0 -164 66 -164 165c0 116 100 181 205 166l9 -55c-73 12 -152 -19 -152 -109c0 -65 45 -112 113 -112c76 0 128 54 128 135v259
h-373v52h1130v-52h-125v-582h-58v342h-213v-87zM550 451c52 0 94 -22 123 -55h254v186h-517v-193h4c19 27 62 62 136 62z" />
    <glyph glyph-name="uni0915094D092A" horiz-adv-x="1102" 
d="M939 409v173h-243v-211c0 -83 40 -114 108 -114c88 0 135 62 135 152zM410 402h4c19 27 62 62 136 62c32 0 62 -8 88 -24v142h-228v-180zM1122 634v-52h-125v-582h-58v268h-4c-20 -34 -61 -66 -137 -66c-86 0 -159 50 -160 156c-20 31 -55 51 -100 51
c-76 0 -128 -54 -128 -135v-274h-57v195h-4c-19 -27 -61 -62 -135 -62c-87 0 -164 66 -164 165c0 116 100 181 205 166l9 -55c-73 12 -152 -19 -152 -109c0 -65 45 -112 113 -112c76 0 128 54 128 135v259h-373v52h1142z" />
    <glyph glyph-name="uni0915094D092B" horiz-adv-x="1335" 
d="M926 406v176h-228v-216c0 -81 36 -112 97 -112c77 0 131 57 131 152zM410 402h4c19 27 62 62 136 62c32 0 63 -9 90 -25v143h-230v-180zM1355 582h-372v-184h4c17 25 64 65 138 65c91 0 166 -66 166 -166c0 -115 -92 -190 -206 -176l-9 57c97 -17 153 41 153 118
c0 67 -45 111 -113 111c-74 0 -133 -58 -133 -149v-258h-58v264h-4c-17 -30 -58 -65 -129 -65c-85 0 -151 51 -152 156c-20 32 -55 54 -102 54c-76 0 -128 -54 -128 -135v-274h-57v195h-4c-19 -27 -61 -62 -135 -62c-87 0 -164 66 -164 165c0 116 100 181 205 166l9 -55
c-73 12 -152 -19 -152 -109c0 -65 45 -112 113 -112c76 0 128 54 128 135v259h-373v52h1375v-52z" />
    <glyph glyph-name="uni0915094D092C" horiz-adv-x="1145" 
d="M982 307v275h-572v-180h4c19 27 62 62 136 62c47 0 92 -19 124 -52c38 48 99 77 166 77c21 0 47 -2 66 -8l2 -57c-21 8 -44 11 -66 11c-34 0 -66 -10 -92 -27l212 -177c13 22 20 47 20 76zM929 194l-214 178c-13 -20 -21 -45 -21 -74c0 -77 52 -136 137 -136
c39 0 73 12 98 32zM1165 634v-52h-125v-582h-58v176h-4c-22 -29 -71 -69 -154 -69c-104 0 -190 77 -190 189c0 20 3 38 8 56c-19 34 -56 57 -104 57c-76 0 -128 -54 -128 -135v-274h-57v195h-4c-19 -27 -61 -62 -135 -62c-87 0 -164 66 -164 165c0 116 100 181 205 166
l9 -55c-73 12 -152 -19 -152 -109c0 -65 45 -112 113 -112c76 0 128 54 128 135v259h-373v52h1185z" />
    <glyph glyph-name="uni0915094D092E" horiz-adv-x="1093" 
d="M930 343v239h-231v-239h231zM410 402h4c19 27 62 62 136 62c34 0 65 -11 91 -31v149h-231v-180zM1113 634v-52h-125v-582h-58v289h-231v-103h-67c-32 27 -49 74 -50 115l59 41v2c-18 43 -59 65 -103 65c-76 0 -128 -54 -128 -135v-274h-57v195h-4
c-19 -27 -61 -62 -135 -62c-87 0 -164 66 -164 165c0 116 100 181 205 166l9 -55c-73 12 -152 -19 -152 -109c0 -65 45 -112 113 -112c76 0 128 54 128 135v259h-373v52h1133z" />
    <glyph glyph-name="uni0915094D092F" horiz-adv-x="1153" 
d="M991 377v205h-225v-4c22 -25 40 -55 40 -103c0 -69 -58 -120 -138 -140c8 -53 53 -136 162 -136c91 0 161 63 161 178zM410 393h4c15 26 57 62 114 62c58 0 99 -30 121 -75c63 22 96 54 96 104c0 40 -19 75 -47 98h-288v-189zM1173 634v-52h-125v-582h-58v222h-4
c-16 -23 -63 -78 -164 -78c-108 0 -194 73 -220 198c-7 26 -29 58 -82 58c-59 0 -110 -53 -110 -135v-265h-57v195h-4c-19 -27 -61 -62 -135 -62c-87 0 -164 66 -164 165c0 116 100 181 205 166l9 -55c-73 12 -152 -19 -152 -109c0 -65 45 -112 113 -112
c76 0 128 54 128 135v259h-373v52h1193z" />
    <glyph glyph-name="uni0915094D0932" horiz-adv-x="1255" 
d="M1092 414v168h-682v-180h4c19 27 62 62 136 62c46 0 90 -18 121 -50c26 20 58 31 91 31c66 0 108 -33 122 -81h4c15 54 59 85 112 85c44 0 74 -19 88 -35h4zM1275 634v-52h-125v-582h-58v356c-16 17 -50 38 -88 38c-52 0 -90 -35 -90 -107v-95h-58v94
c0 69 -35 104 -90 104c-53 0 -97 -38 -97 -121c0 -99 57 -178 152 -229l-42 -43c-89 48 -171 146 -171 273c0 38 9 71 23 97c-21 26 -52 42 -93 42c-76 0 -128 -54 -128 -135v-274h-57v195h-4c-19 -27 -61 -62 -135 -62c-87 0 -164 66 -164 165c0 116 100 181 205 166l9 -55
c-73 12 -152 -19 -152 -109c0 -65 45 -112 113 -112c76 0 128 54 128 135v259h-373v52h1295z" />
    <glyph glyph-name="uni0915094D0935" horiz-adv-x="1126" 
d="M963 328v254h-553v-180h4c19 27 62 62 136 62c47 0 91 -18 123 -51c46 56 126 75 196 62l6 -57c-92 23 -178 -22 -178 -116c0 -71 49 -126 126 -126c85 0 140 66 140 152zM1146 634v-52h-125v-582h-58v186h-4c-21 -28 -68 -65 -146 -65c-93 0 -178 70 -178 179
c0 19 2 36 7 52c-20 34 -56 57 -104 57c-76 0 -128 -54 -128 -135v-274h-57v195h-4c-19 -27 -61 -62 -135 -62c-87 0 -164 66 -164 165c0 116 100 181 205 166l9 -55c-73 12 -152 -19 -152 -109c0 -65 45 -112 113 -112c76 0 128 54 128 135v259h-373v52h1166z" />
    <glyph glyph-name="uni0915094D0936" horiz-adv-x="1323" 
d="M839 441l-36 -44c-53 15 -83 61 -83 115c0 73 58 132 145 132c105 0 162 -84 162 -175c0 -136 -110 -214 -251 -214c-11 0 -22 0 -33 1l-2 -4c27 -26 45 -39 93 -86l143 -140l-48 -33l-227 224l-66 58c2 8 3 17 3 26c0 54 -38 106 -106 106c-72 0 -123 -52 -123 -133
v-274h-57v195h-4c-19 -27 -61 -62 -135 -62c-87 0 -164 66 -164 165c0 105 82 168 175 168c10 0 20 -1 30 -2l9 -55c-10 2 -20 2 -30 2c-63 0 -122 -33 -122 -111c0 -65 45 -112 113 -112c76 0 128 54 128 135v259h-373v52h622v-52h-192v-180h4c19 27 59 60 131 60
c84 0 146 -65 151 -144c27 -6 56 -9 79 -9c108 0 192 59 192 160c0 80 -51 121 -102 121c-53 0 -85 -32 -85 -78c0 -31 19 -62 59 -71zM1160 634h183v-52h-125v-582h-58v634z" />
    <glyph glyph-name="uni0915094D0938" horiz-adv-x="1245" 
d="M868 582v-192c0 -16 -2 -29 -6 -42c36 -11 82 -17 122 -17s73 4 98 10v241h-214zM410 382h4c16 28 53 58 107 58c52 0 81 -24 121 -69c14 -15 44 -43 95 -43c49 0 73 21 73 70v184h-400v-200zM1265 634v-52h-125v-582h-58v285c-29 -7 -56 -9 -99 -9
c-53 0 -113 11 -151 26c-22 -18 -52 -27 -83 -27c-9 0 -29 1 -40 5l-2 -3c22 -26 42 -49 66 -81l123 -163l-47 -32l-226 303c-46 59 -69 82 -105 82c-66 0 -108 -59 -108 -142v-244h-57v195h-4c-19 -27 -61 -62 -135 -62c-87 0 -164 66 -164 165c0 116 100 181 205 166
l9 -55c-73 12 -152 -19 -152 -109c0 -65 45 -112 113 -112c76 0 128 54 128 135v259h-373v52h1285z" />
    <glyph glyph-name="uni0916094D0916" horiz-adv-x="1342" 
d="M862 582v-169c0 -72 -46 -115 -105 -115c-32 0 -51 6 -64 13c28 -144 130 -220 250 -220c127 0 239 81 239 227c0 76 -50 118 -103 118c-58 0 -98 -38 -98 -96c0 -56 41 -99 116 -102l-31 -47c-70 3 -143 56 -143 149c0 89 69 151 151 151c50 0 84 -18 101 -38h4v129
h-317zM310 582v-169c0 -72 -46 -115 -105 -115c-32 0 -49 6 -62 13c28 -144 128 -220 248 -220c127 0 242 84 242 227c0 70 -53 118 -106 118c-58 0 -98 -38 -98 -96c0 -56 43 -99 118 -102l-33 -47c-70 3 -143 56 -143 149c0 88 67 151 154 151c74 0 127 -44 150 -105
c13 -21 34 -38 75 -38c33 0 54 18 54 64v170h-494zM1362 634v-52h-125v-582h-57v143h-4c-47 -60 -129 -107 -232 -107c-132 0 -226 70 -276 181c-40 -102 -139 -181 -276 -181c-188 0 -302 142 -319 338l52 18c13 -23 33 -44 73 -44c33 0 54 18 54 64v170h-261v52h1371z" />
    <glyph glyph-name="uni0916094D0924" horiz-adv-x="1120" 
d="M957 429v153h-647v-169c0 -72 -46 -115 -105 -115c-32 0 -49 6 -62 13c28 -144 128 -220 248 -220c127 0 241 84 241 227c0 70 -52 118 -105 118c-58 0 -98 -38 -98 -96c0 -56 43 -99 118 -102l-33 -47c-70 3 -143 56 -143 149c0 88 67 151 154 151
c75 0 130 -46 152 -109c29 30 70 47 118 47h162zM1140 634v-52h-125v-582h-58v375h-152c-73 0 -122 -42 -122 -123c0 -106 58 -178 119 -224l-50 -34c-50 40 -93 97 -112 168c-50 -74 -137 -126 -248 -126c-188 0 -302 142 -319 338l52 18c13 -23 33 -44 73 -44
c33 0 54 18 54 64v170h-261v52h1149z" />
    <glyph glyph-name="uni0916094D0928" horiz-adv-x="1202" 
d="M1222 634v-52h-125v-582h-58v329h-213v-87l-41 -12c-32 23 -53 73 -54 115l45 38h263v199h-740v-169c0 -72 -46 -115 -105 -115c-32 0 -49 6 -62 13c28 -144 128 -220 248 -220c127 0 240 84 240 227c0 70 -51 118 -104 118c-58 0 -98 -38 -98 -96c0 -56 43 -99 118 -102
l-33 -47c-70 3 -143 56 -143 149c0 88 67 151 154 151c99 0 162 -79 162 -174c0 -146 -116 -281 -295 -281c-188 0 -302 142 -319 338l52 18c13 -23 33 -44 73 -44c33 0 54 18 54 64v170h-261v52h1242z" />
    <glyph glyph-name="uni0916094D092E" horiz-adv-x="1141" 
d="M978 343v239h-231v-239h231zM675 333l14 9v240h-390v-169c0 -72 -46 -115 -105 -115c-32 0 -49 6 -62 13c28 -144 128 -220 248 -220c127 0 240 84 240 227c0 70 -51 118 -104 118c-58 0 -98 -38 -98 -96c0 -56 43 -99 118 -102l-33 -47c-70 3 -143 56 -143 149
c0 88 67 151 154 151c93 0 155 -70 161 -158zM1161 634v-52h-125v-582h-58v289h-231v-103h-67c-9 8 -17 17 -24 28c-40 -101 -140 -178 -275 -178c-188 0 -302 142 -319 338l52 18c13 -23 33 -44 73 -44c33 0 54 18 54 64v170h-261v52h1181z" />
    <glyph glyph-name="uni0916094D092F" horiz-adv-x="1173" 
d="M1011 377v205h-225v-4c22 -25 40 -55 40 -103c0 -69 -59 -120 -139 -140v-3c9 -53 56 -133 163 -133c91 0 161 63 161 178zM310 582v-169c0 -72 -46 -115 -105 -115c-32 0 -49 6 -62 13c28 -144 128 -220 248 -220c127 0 241 84 241 227c0 65 -49 118 -105 118
c-58 0 -98 -38 -98 -96c0 -56 43 -99 118 -102l-33 -47c-70 3 -143 56 -143 149c0 88 67 151 154 151c75 0 131 -47 153 -111c60 22 87 54 87 104c0 40 -19 75 -47 98h-408zM1193 634v-52h-125v-582h-58v222h-4c-16 -23 -63 -78 -164 -78c-71 0 -129 31 -168 88
c-35 -110 -139 -196 -282 -196c-188 0 -302 142 -319 338l52 18c13 -23 33 -44 73 -44c33 0 54 18 54 64v170h-261v52h1202z" />
    <glyph glyph-name="uni0916094D0935" horiz-adv-x="1118" 
d="M955 328v254h-645v-169c0 -72 -46 -115 -105 -115c-32 0 -49 6 -62 13c28 -144 128 -220 248 -220c127 0 240 84 240 227c0 70 -51 118 -104 118c-58 0 -98 -38 -98 -96c0 -56 43 -99 118 -102l-33 -47c-70 3 -143 56 -143 149c0 88 67 151 154 151c64 0 113 -33 140 -82
c43 59 124 80 196 66l6 -57c-92 23 -180 -22 -180 -116c0 -71 51 -126 128 -126c85 0 140 66 140 152zM1138 634v-52h-125v-582h-58v186h-4c-21 -28 -68 -65 -146 -65c-59 0 -113 30 -144 80c-43 -95 -140 -165 -269 -165c-188 0 -302 142 -319 338l52 18
c13 -23 33 -44 73 -44c33 0 54 18 54 64v170h-261v52h1147z" />
    <glyph glyph-name="uni0916094D0936" horiz-adv-x="1327" 
d="M843 441l-36 -44c-53 15 -83 61 -83 115c0 73 58 132 145 132c105 0 162 -84 162 -175c0 -146 -127 -226 -284 -213l-2 -4c27 -26 45 -39 93 -86l143 -140l-48 -33l-227 224l-38 34c-29 -119 -136 -215 -287 -215c-188 0 -302 142 -319 338l52 18c13 -23 33 -44 73 -44
c33 0 54 18 54 64v170h-261v52h604v-52h-285v-169c0 -72 -46 -115 -105 -115c-32 0 -49 6 -62 13c28 -144 128 -220 248 -220c127 0 240 84 240 227c0 70 -51 118 -104 118c-58 0 -98 -38 -98 -96c0 -56 43 -99 118 -102l-33 -47c-70 3 -143 56 -143 149
c0 88 67 151 154 151c97 0 160 -76 162 -168l1 1c32 -10 72 -15 102 -15c108 0 192 59 192 160c0 80 -51 121 -102 121c-53 0 -85 -32 -85 -78c0 -31 19 -62 59 -71zM1164 634h183v-52h-125v-582h-58v634z" />
    <glyph glyph-name="uni0917094D0917" horiz-adv-x="822" 
d="M842 634v-52h-125v-582h-58v582h-196v-365h-67c-31 27 -47 71 -48 112l57 40v213h-218v-365h-67c-31 27 -47 71 -48 112l57 40v213h-149v52h862z" />
    <glyph glyph-name="uni0917094D0918" horiz-adv-x="926" 
d="M764 357v225h-214c-73 0 -106 -39 -106 -87c0 -46 34 -83 115 -83h62v-54h-61c-74 0 -109 -34 -109 -85c0 -46 33 -95 122 -95c123 0 191 79 191 179zM946 634v-52h-125v-582h-58v208h-4c-20 -30 -78 -85 -187 -85c-125 0 -183 75 -183 149c0 62 43 100 84 111v4
c-47 7 -91 42 -91 106c0 49 30 77 49 85v4h-244v-365h-67c-31 27 -47 71 -48 112l57 40v213h-149v52h966z" />
    <glyph glyph-name="uni0917094D091C" horiz-adv-x="1049" 
d="M1069 634v-52h-125v-582h-58v380h-188v-4c15 -14 49 -46 49 -110c0 -76 -58 -141 -151 -141c-157 0 -234 157 -249 277l61 22c4 -118 74 -244 184 -244c61 0 95 39 95 89c0 70 -61 103 -95 112v4l27 48h267v149h-699v-365h-67c-31 27 -47 71 -48 112l57 40v213h-149v52
h1089z" />
    <glyph glyph-name="uni0917094D0923" horiz-adv-x="1029" 
d="M625 349v233h-194v-233c0 -69 34 -109 97 -109s97 40 97 109zM1049 634v-52h-125v-582h-58v582h-183v-239c0 -101 -66 -158 -155 -158s-155 57 -155 158v239h-186v-365h-67c-31 27 -47 71 -48 112l57 40v213h-149v52h1069z" />
    <glyph glyph-name="uni0917094D0926" horiz-adv-x="825" 
d="M697 431l-162 -40c-84 -21 -111 -58 -111 -114c0 -76 60 -142 150 -142c44 0 79 11 96 26v103l46 17c18 -8 43 -36 43 -74c0 -40 -18 -68 -33 -81l106 -138l-71 -18l-75 132c-27 -14 -66 -22 -103 -22c-143 0 -221 107 -221 201c0 82 52 135 148 159l129 32v110h-452
v-365h-67c-31 27 -47 71 -48 112l57 40v213h-149v52h865v-52h-148v-151z" />
    <glyph glyph-name="uni0917094D0927" horiz-adv-x="914" 
d="M934 634v-52h-125v-582h-58v208h-4c-20 -30 -78 -85 -187 -85c-125 0 -183 75 -183 149c0 62 43 100 84 111v4c-47 7 -91 42 -91 106c0 47 29 76 50 85v4h-233v-365h-67c-31 27 -47 71 -48 112l57 40v213h-149v52h542l9 -51c-54 -5 -99 -35 -99 -88c0 -46 34 -83 115 -83
h62v-54h-61c-74 0 -109 -34 -109 -85c0 -46 33 -95 122 -95c128 0 191 85 191 178v226h-123v52h305z" />
    <glyph glyph-name="uni0917094D0928" horiz-adv-x="814" 
d="M834 634v-52h-125v-582h-58v329h-213v-87l-41 -12c-32 23 -53 73 -54 115l45 38h263v199h-464v-365h-67c-31 27 -47 71 -48 112l57 40v213h-149v52h854z" />
    <glyph glyph-name="uni0917094D092C" horiz-adv-x="863" 
d="M647 194l-214 178c-13 -20 -21 -45 -21 -74c0 -77 52 -136 137 -136c39 0 73 12 98 32zM883 634v-52h-125v-582h-58v176h-4c-22 -29 -71 -69 -154 -69c-104 0 -190 77 -190 189c0 115 96 193 206 193c21 0 47 -2 66 -8l2 -57c-21 8 -44 11 -66 11c-34 0 -66 -10 -92 -27
l212 -177c13 22 20 47 20 76v275h-513v-365h-67c-31 27 -47 71 -48 112l57 40v213h-149v52h903z" />
    <glyph glyph-name="uni0917094D092D" horiz-adv-x="875" 
d="M600 634h295v-52h-125v-582h-58v289h-231v-103h-67c-32 27 -49 74 -50 115l59 41v165c0 53 -24 75 -79 75h-157v-365h-67c-31 27 -47 71 -48 112l57 40v213h-149v52h372c81 -2 129 -47 129 -122v-169h231v239h-112v52z" />
    <glyph glyph-name="uni0917094D092E" horiz-adv-x="874" 
d="M711 343v239h-231v-239h231zM894 634v-52h-125v-582h-58v289h-231v-103h-67c-32 27 -49 74 -50 115l59 41v240h-235v-365h-67c-31 27 -47 71 -48 112l57 40v213h-149v52h914z" />
    <glyph glyph-name="uni0917094D092F" horiz-adv-x="907" 
d="M745 377v205h-225v-4c22 -25 40 -55 40 -103c0 -69 -58 -120 -138 -140c8 -53 53 -136 162 -136c91 0 161 63 161 178zM927 634v-52h-125v-582h-58v222h-4c-16 -23 -63 -78 -164 -78c-115 0 -205 82 -224 222c96 22 147 56 147 118c0 40 -19 75 -47 98h-265v-365h-67
c-31 27 -47 71 -48 112l57 40v213h-149v52h947z" />
    <glyph glyph-name="uni0917094D0932" horiz-adv-x="1000" 
d="M1020 634v-52h-125v-582h-58v356c-16 17 -50 38 -88 38c-52 0 -90 -35 -90 -107v-95h-58v94c0 69 -35 104 -90 104c-53 0 -97 -38 -97 -121c0 -99 57 -178 152 -229l-42 -43c-89 48 -171 146 -171 273c0 112 74 175 154 175c66 0 108 -33 122 -81h4c15 54 59 85 112 85
c44 0 74 -19 88 -35h4v168h-650v-365h-67c-31 27 -47 71 -48 112l57 40v213h-149v52h1040z" />
    <glyph glyph-name="uni0917094D0935" horiz-adv-x="861" 
d="M881 634v-52h-125v-582h-58v186h-4c-21 -28 -68 -65 -146 -65c-93 0 -178 70 -178 179c0 141 129 195 234 175l6 -57c-92 23 -178 -22 -178 -116c0 -71 49 -126 126 -126c85 0 140 66 140 152v254h-511v-365h-67c-31 27 -47 71 -48 112l57 40v213h-149v52h901z" />
    <glyph glyph-name="uni0917094D0938" horiz-adv-x="987" 
d="M610 582v-202c0 -12 -1 -23 -4 -32c36 -11 80 -17 120 -17c38 0 73 5 98 11v240h-214zM1007 634v-52h-125v-582h-58v287c-21 -5 -52 -8 -99 -8c-49 0 -105 9 -143 22c-22 -25 -55 -36 -91 -36c-9 0 -29 1 -40 5l-2 -3c22 -26 42 -49 66 -81l123 -163l-47 -32l-251 335
l44 35c14 -15 44 -43 95 -43c49 0 73 21 73 70v194h-365v-365h-67c-31 27 -47 71 -48 112l57 40v213h-149v52h1027z" />
    <glyph glyph-name="uni0918094D0928" horiz-adv-x="873" 
d="M-20 582v52h913v-52h-125v-582h-58v316h-213v-87c-46 -61 -123 -108 -229 -108c-125 0 -183 74 -183 147c0 62 43 100 84 111v4c-47 7 -91 44 -91 108c0 49 30 79 49 87v4h-147zM269 176c71 0 126 26 165 62c-20 26 -31 62 -32 94l45 38h263v212h-464
c-73 0 -106 -41 -106 -89c0 -46 34 -85 115 -85h62v-54h-61c-74 0 -109 -34 -109 -85c0 -45 33 -93 122 -93z" />
    <glyph glyph-name="uni0918094D092E" horiz-adv-x="942" 
d="M779 343v239h-231v-239h231zM317 354h-61c-74 0 -109 -34 -109 -85c0 -45 33 -93 122 -93c75 0 134 30 172 70c-6 18 -10 37 -10 55l59 41v240h-244c-73 0 -106 -41 -106 -89c0 -46 34 -85 115 -85h62v-54zM962 634v-52h-125v-582h-58v289h-231v-103h-67
c-4 3 -8 7 -11 11c-47 -45 -115 -76 -202 -76c-125 0 -183 74 -183 147c0 62 43 100 84 111v4c-47 7 -91 44 -91 108c0 49 30 79 49 87v4h-147v52h982z" />
    <glyph glyph-name="uni0918094D092F" horiz-adv-x="976" 
d="M814 377v205h-225v-4c22 -25 40 -55 40 -103c0 -69 -58 -120 -138 -140c8 -53 53 -136 162 -136c91 0 161 63 161 178zM317 354h-61c-74 0 -109 -34 -109 -85c0 -45 33 -93 122 -93c84 0 147 37 185 84c-16 30 -28 66 -33 106c96 22 147 56 147 118c0 40 -19 75 -47 98
h-275c-73 0 -106 -41 -106 -89c0 -46 34 -85 115 -85h62v-54zM996 634v-52h-125v-582h-58v222h-4c-16 -23 -63 -78 -164 -78c-63 0 -119 25 -159 70c-47 -54 -121 -93 -218 -93c-125 0 -183 74 -183 147c0 62 43 100 84 111v4c-47 7 -91 44 -91 108c0 49 30 79 49 87v4h-147
v52h1016z" />
    <glyph glyph-name="uni091A094D091A" horiz-adv-x="1017" 
d="M1035 634v-52h-125v-582h-58v203h-4c-22 -32 -78 -80 -177 -80c-79 0 -140 39 -167 93c-40 -48 -105 -93 -210 -93c-113 0 -188 74 -188 163c0 62 34 94 52 106v4h-140v55h328v-54h-56c-77 0 -122 -45 -122 -109c0 -63 51 -110 133 -110c102 0 162 64 186 116
c3 57 35 88 52 99v4h-138v54h353v-53h-83c-77 0 -122 -46 -122 -110c0 -63 51 -110 129 -110c100 0 174 70 174 183v221h-872v52h1055z" />
    <glyph glyph-name="uni091A094D091B" horiz-adv-x="1043" 
d="M834 481v101h-197c-69 0 -121 -41 -121 -109c0 -59 42 -99 113 -99h37v-54h-24c-69 0 -114 -37 -114 -99c0 -65 51 -119 148 -119c134 0 249 102 249 229c0 62 -35 97 -79 97c-37 0 -67 -25 -67 -64c0 -38 25 -65 70 -70l-36 -41c-58 12 -92 57 -92 111
c0 61 46 112 113 117zM1063 582h-173v-108c58 -19 94 -75 94 -143c0 -139 -126 -284 -308 -284c-118 0 -189 62 -205 138c-39 -35 -95 -62 -177 -62c-113 0 -188 74 -188 163c0 62 34 94 52 106v4h-140v55h330v-54h-58c-77 0 -122 -45 -122 -109c0 -63 51 -110 133 -110
c90 0 148 50 177 98c15 34 43 56 72 67v4c-58 16 -96 64 -96 123c0 67 38 96 54 108v4h-528v52h1083v-52z" />
    <glyph glyph-name="uni091A094D0928" horiz-adv-x="911" 
d="M294 123c-113 0 -188 74 -188 163c0 62 34 94 52 106v4h-140v55h355v-54h-83c-77 0 -122 -45 -122 -109c0 -63 51 -110 133 -110c79 0 134 40 165 82c-16 25 -26 56 -26 85l45 38h263v199h-768v52h951v-52h-125v-582h-58v329h-213v-68c-43 -76 -121 -138 -241 -138z" />
    <glyph glyph-name="uni091A094D092E" horiz-adv-x="1000" 
d="M837 343v239h-231v-239h231zM1020 634v-52h-125v-582h-58v289h-231v-103h-67c-13 11 -24 26 -32 42c-37 -51 -97 -99 -206 -99c-113 0 -186 74 -186 163c0 62 34 94 52 106v4h-140v55h355v-54h-83c-77 0 -122 -45 -122 -109c0 -63 49 -110 131 -110c102 0 157 65 181 117
l59 41v240h-560v52h1032z" />
    <glyph glyph-name="uni091A094D092F" horiz-adv-x="1014" 
d="M852 377v205h-225v-4c22 -25 40 -55 40 -103c0 -69 -58 -120 -138 -140c8 -53 53 -136 162 -136c91 0 161 63 161 178zM1034 634v-52h-125v-582h-58v222h-4c-16 -23 -63 -78 -164 -78c-69 0 -129 30 -171 84c-38 -52 -104 -105 -218 -105c-113 0 -188 74 -188 163
c0 62 34 94 52 106v4h-140v55h355v-54h-83c-77 0 -122 -45 -122 -109c0 -63 51 -110 133 -110c94 0 153 55 180 104c-10 25 -18 53 -22 84c96 22 147 56 147 118c0 40 -19 75 -47 98h-579v52h1054z" />
    <glyph glyph-name="uni091B094D0928" horiz-adv-x="1174" 
d="M1194 634v-52h-125v-582h-58v329h-213v-87l-41 -12c-32 23 -53 73 -54 115l45 38h263v199h-745c-69 0 -121 -41 -121 -109c0 -59 42 -99 113 -99h37v-54h-24c-69 0 -113 -37 -113 -99c0 -65 50 -119 147 -119c134 0 249 102 249 229c0 62 -35 97 -79 97
c-37 0 -67 -25 -67 -64c0 -38 25 -65 70 -70l-36 -41c-58 12 -92 57 -92 111c0 64 51 117 124 117c84 0 139 -66 139 -150c0 -139 -126 -284 -308 -284c-135 0 -209 82 -209 172c0 68 41 108 83 124v4c-58 16 -96 64 -96 123c0 67 38 96 54 108v4h-157v52h1214z" />
    <glyph glyph-name="uni091B094D092F" horiz-adv-x="1215" 
d="M1052 283v299h-786c-69 0 -121 -41 -121 -109c0 -59 42 -99 113 -99h37v-54h-24c-69 0 -113 -37 -113 -99c0 -65 50 -119 147 -119c134 0 249 102 249 229c0 62 -35 97 -79 97c-37 0 -67 -25 -67 -64c0 -38 25 -65 70 -70l-36 -41c-58 12 -92 57 -92 111
c0 64 51 117 124 117c38 0 70 -14 94 -37c53 17 129 31 188 31c89 0 145 -47 145 -115c0 -69 -59 -118 -121 -146c11 -43 53 -91 125 -91c94 0 147 69 147 160zM1235 634v-52h-125v-582h-58v136h-4c-19 -26 -68 -68 -143 -68c-109 0 -180 74 -200 168l45 21
c61 29 90 59 90 103c0 42 -31 61 -92 61c-45 0 -98 -9 -149 -22c9 -20 14 -43 14 -68c0 -139 -126 -284 -308 -284c-135 0 -209 82 -209 172c0 68 41 108 83 124v4c-58 16 -96 64 -96 123c0 67 38 96 54 108v4h-157v52h1255z" />
    <glyph glyph-name="uni091B094D0935" horiz-adv-x="672" 
d="M157 -68c0 67 32 106 72 130c-84 13 -133 88 -133 157c0 68 41 108 83 124v4c-58 16 -96 64 -96 123c0 67 38 96 54 108v4h-157v52h712v-52h-173v-108c58 -19 94 -75 94 -143c0 -74 -35 -149 -95 -203v-405h-56v103h-4c-12 -18 -55 -57 -133 -57c-103 0 -168 76 -168 163
zM478 294l-36 -41c-58 12 -92 57 -92 111c0 61 46 111 113 116v102h-197c-69 0 -121 -41 -121 -109c0 -59 42 -99 113 -99h37v-54h-24c-69 0 -113 -37 -113 -99c0 -65 50 -119 147 -119c134 0 249 102 249 229c0 62 -35 97 -79 97c-37 0 -67 -25 -67 -64
c0 -38 25 -65 70 -70zM336 -177c76 0 126 53 126 130v134c-28 -16 -59 -28 -94 -34c-11 -2 -22 -3 -33 -4c-81 -7 -117 -57 -117 -114c0 -59 39 -112 118 -112z" />
    <glyph glyph-name="uni091C094D0915" horiz-adv-x="1246" 
d="M1266 582h-373v-180h4c19 27 62 62 136 62c87 0 163 -65 163 -165c0 -116 -100 -181 -205 -166l-9 55c73 -12 152 19 152 109c0 66 -46 112 -113 112c-76 0 -128 -54 -128 -135v-274h-57v195h-4c-19 -27 -61 -62 -135 -62c-87 0 -164 66 -164 165c0 31 7 59 20 82h-171
v-4c15 -14 49 -46 49 -110c0 -76 -58 -141 -151 -141c-157 0 -234 157 -249 277l61 22c4 -118 74 -244 184 -244c61 0 95 39 95 89c0 70 -61 103 -95 112v4l27 48h297c38 27 87 38 138 31l9 -55c-73 12 -152 -19 -152 -109c0 -65 45 -112 113 -112c76 0 128 54 128 135v259
h-856v52h1286v-52z" />
    <glyph glyph-name="uni091C094D091C" horiz-adv-x="1235" 
d="M1255 634v-52h-125v-582h-58v380h-188v-4c15 -14 49 -46 49 -110c0 -76 -58 -141 -151 -141c-148 0 -224 138 -244 255h-156v-4c15 -14 49 -46 49 -110c0 -76 -58 -141 -151 -141c-157 0 -234 157 -249 277l61 22c4 -118 74 -244 184 -244c61 0 95 39 95 89
c0 70 -61 103 -95 112v4l27 48h291v-9c4 -118 74 -244 184 -244c61 0 95 39 95 89c0 70 -61 103 -95 112v4l27 48h267v149h-1092v52h1275z" />
    <glyph glyph-name="uni091C094D091D" horiz-adv-x="1239" 
d="M680 270l170 34c28 -15 79 -30 134 -30c41 0 73 10 92 20v288h-203v-166h-188c-59 0 -75 -24 -75 -60c0 -40 33 -76 70 -86zM1259 634v-52h-125v-582h-58v233c-22 -9 -50 -14 -87 -14c-29 0 -56 6 -81 15c6 -16 10 -34 10 -55c0 -102 -93 -150 -175 -147v-4l154 -105
l-65 -34l-152 138c-99 3 -144 49 -144 94c0 22 13 37 22 43l123 -87h39c72 0 140 32 140 101c0 37 -18 58 -31 67l-161 -32c-60 19 -119 77 -119 154c0 4 0 9 1 13h-168v-4c15 -14 49 -46 49 -110c0 -76 -58 -141 -151 -141c-157 0 -234 157 -249 277l61 22
c4 -118 74 -244 184 -244c61 0 95 39 95 89c0 70 -61 103 -95 112v4l27 48h268c19 23 49 36 87 36h158v113h-836v52h1279z" />
    <glyph glyph-name="uni091C094D091F" horiz-adv-x="967" 
d="M846 417l-144 -44c-94 -29 -115 -63 -115 -122c0 -76 65 -151 168 -151c77 0 123 26 155 60l35 -47c-46 -47 -114 -68 -183 -68c-137 0 -237 104 -237 216c0 47 15 83 46 111c-32 7 -63 8 -85 8h-104v-4c15 -14 49 -46 49 -110c0 -76 -58 -141 -151 -141
c-157 0 -234 157 -249 277l61 22c4 -118 74 -244 184 -244c61 0 95 39 95 89c0 70 -61 103 -95 112v4l27 48h181c41 0 102 -6 148 -25c9 4 18 7 27 10l129 40v124h-808v52h1007v-52h-141v-165z" />
    <glyph glyph-name="uni091C094D0921" horiz-adv-x="1009" 
d="M898 419h-180c-59 0 -75 -26 -75 -62c0 -40 33 -76 70 -86l171 34c37 -21 69 -70 69 -128c0 -88 -75 -160 -190 -160c-107 0 -195 61 -251 162l48 34c42 -84 112 -143 203 -143c75 0 130 40 130 107c0 28 -9 52 -31 69l-161 -32c-60 19 -119 77 -119 154c0 4 0 8 1 12
h-201v-4c15 -14 49 -46 49 -110c0 -76 -58 -141 -151 -141c-157 0 -234 157 -249 277l61 22c4 -118 74 -244 184 -244c61 0 95 39 95 89c0 70 -61 103 -95 112v4l27 48h300c19 24 49 39 88 39h150v110h-861v52h1049v-52h-131v-163z" />
    <glyph glyph-name="uni091C094D0924" horiz-adv-x="1020" 
d="M1040 634v-52h-125v-582h-58v375h-150c-73 0 -121 -45 -121 -123c0 -106 55 -178 116 -224l-50 -34c-70 56 -126 143 -126 258c0 50 16 93 44 124h-188v-4c15 -14 49 -46 49 -110c0 -76 -58 -141 -151 -141c-157 0 -234 157 -249 277l61 22c4 -118 74 -244 184 -244
c61 0 95 39 95 89c0 70 -61 103 -95 112v4l27 48h554v153h-877v52h1060z" />
    <glyph glyph-name="uni091C094D0926" horiz-adv-x="986" 
d="M858 431l-162 -40c-84 -21 -111 -58 -111 -114c0 -76 60 -142 150 -142c44 0 79 11 96 26v103l46 17c18 -8 43 -36 43 -74c0 -40 -18 -68 -33 -81l106 -138l-71 -18l-75 132c-27 -14 -66 -22 -103 -22c-143 0 -221 107 -221 201c0 40 12 73 36 99h-177v-4
c15 -14 49 -46 49 -110c0 -76 -58 -141 -151 -141c-157 0 -234 157 -249 277l61 22c4 -118 74 -244 184 -244c61 0 95 39 95 89c0 70 -61 103 -95 112v4l27 48h344c7 3 16 5 24 7l129 32v110h-820v52h1026v-52h-148v-151z" />
    <glyph glyph-name="uni091C094D0928" horiz-adv-x="975" 
d="M995 634v-52h-125v-582h-58v338h-199v-87l-41 -12c-32 23 -53 78 -54 120h-138v-4c15 -14 49 -46 49 -110c0 -76 -58 -141 -151 -141c-157 0 -234 157 -249 277l61 22c4 -118 74 -244 184 -244c61 0 95 39 95 89c0 70 -61 103 -95 112v4l27 48h185c57 0 98 -13 116 -20
h210v190h-832v52h1015z" />
    <glyph glyph-name="uni091C094D092C" horiz-adv-x="1034" 
d="M818 194l-214 178c-13 -20 -21 -45 -21 -74c0 -77 52 -136 137 -136c39 0 73 12 98 32zM1054 634v-52h-125v-582h-58v176h-4c-22 -29 -71 -69 -154 -69c-104 0 -190 77 -190 189c0 31 7 59 19 84h-160v-4c15 -14 49 -46 49 -110c0 -76 -58 -141 -151 -141
c-157 0 -234 157 -249 277l61 22c4 -118 74 -244 184 -244c61 0 95 39 95 89c0 70 -61 103 -95 112v4l27 48h279c38 35 91 56 147 56c21 0 47 -2 66 -8l2 -57c-21 8 -44 11 -66 11c-34 0 -66 -10 -92 -27l212 -177c13 22 20 47 20 76v275h-891v52h1074z" />
    <glyph glyph-name="uni091C094D092E" horiz-adv-x="1044" 
d="M881 343v239h-231v-239h231zM1064 634v-52h-125v-582h-58v289h-231v-103h-67c-32 27 -49 74 -50 115l59 41v38h-210v-4c15 -14 49 -46 49 -110c0 -76 -58 -141 -151 -141c-157 0 -234 157 -249 277l61 22c4 -118 74 -244 184 -244c61 0 95 39 95 89c0 70 -61 103 -95 112
v4l27 48h289v149h-612v52h1084z" />
    <glyph glyph-name="uni091C094D092F" horiz-adv-x="1078" 
d="M916 377v205h-225v-4c22 -25 40 -55 40 -103c0 -69 -58 -120 -138 -140c8 -53 53 -136 162 -136c91 0 161 63 161 178zM1098 634v-52h-125v-582h-58v222h-4c-16 -23 -63 -78 -164 -78c-115 0 -205 82 -224 222c-21 10 -46 14 -82 14h-59v-4c15 -14 49 -46 49 -110
c0 -76 -58 -141 -151 -141c-157 0 -234 157 -249 277l61 22c4 -118 74 -244 184 -244c61 0 95 39 95 89c0 70 -61 103 -95 112v4l27 48h147c61 0 113 -18 144 -45c50 22 76 52 76 96c0 40 -19 75 -47 98h-643v52h1118z" />
    <glyph glyph-name="uni091C094D0935" horiz-adv-x="1014" 
d="M1034 634v-52h-125v-582h-58v186h-4c-21 -28 -68 -65 -146 -65c-93 0 -178 70 -178 179c0 31 6 57 17 80h-158v-4c15 -14 49 -46 49 -110c0 -76 -58 -141 -151 -141c-157 0 -234 157 -249 277l61 22c4 -118 74 -244 184 -244c61 0 95 39 95 89c0 70 -61 103 -95 112v4
l27 48h277c48 40 116 54 177 42l6 -57c-92 23 -178 -22 -178 -116c0 -71 49 -126 126 -126c85 0 140 66 140 152v254h-871v52h1054z" />
    <glyph glyph-name="uni091D094D0928" horiz-adv-x="1044" 
d="M881 393v189h-481v-166h-188c-59 0 -75 -24 -75 -60c0 -40 33 -76 70 -86l169 34c28 -15 77 -29 137 -29c30 0 56 4 77 11c-10 21 -17 46 -17 69l45 38h263zM1064 634v-52h-125v-582h-58v339h-213v-82c-50 -27 -103 -37 -150 -37c-31 0 -59 6 -83 14c6 -16 10 -34 10 -55
c0 -100 -94 -149 -176 -150l4 -2l151 -104l-65 -34l-152 138c-99 3 -144 49 -144 94c0 22 13 37 22 43l123 -87h39c72 0 140 32 140 101c0 37 -18 58 -31 67l-161 -32c-60 19 -119 77 -119 154c0 60 42 102 109 102h158v113h-363v52h1084z" />
    <glyph glyph-name="uni091D094D092E" horiz-adv-x="1113" 
d="M950 343v239h-231v-239h231zM207 270l169 34c28 -15 77 -29 137 -29c36 0 67 7 90 15l-1 11l59 41v240h-261v-166h-188c-59 0 -75 -24 -75 -60c0 -40 33 -76 70 -86zM1133 634v-52h-125v-582h-58v289h-231v-103h-67c-15 13 -27 30 -36 50c-24 -9 -57 -16 -98 -16
c-31 0 -59 6 -83 14c6 -16 10 -34 10 -55c0 -100 -94 -149 -176 -150l4 -2l151 -104l-65 -34l-152 138c-99 3 -144 49 -144 94c0 22 13 37 22 43l123 -87h39c72 0 140 32 140 101c0 37 -18 58 -31 67l-161 -32c-60 19 -119 77 -119 154c0 60 42 102 109 102h158v113h-363v52
h1153z" />
    <glyph glyph-name="uni091D094D092F" horiz-adv-x="1147" 
d="M985 377v205h-225v-4c22 -25 40 -55 40 -103c0 -69 -58 -120 -138 -140c8 -53 53 -136 162 -136c91 0 161 63 161 178zM207 270l169 34c28 -15 77 -29 137 -29c40 0 74 9 97 18c-8 22 -14 47 -18 73c96 22 147 56 147 118c0 40 -19 75 -47 98h-292v-166h-188
c-59 0 -75 -24 -75 -60c0 -40 33 -76 70 -86zM1167 634v-52h-125v-582h-58v222h-4c-16 -23 -63 -78 -164 -78c-76 0 -140 35 -181 99c-27 -12 -65 -23 -117 -23c-31 0 -59 6 -83 14c6 -16 10 -34 10 -55c0 -100 -94 -149 -176 -150l4 -2l151 -104l-65 -34l-152 138
c-99 3 -144 49 -144 94c0 22 13 37 22 43l123 -87h39c72 0 140 32 140 101c0 37 -18 58 -31 67l-161 -32c-60 19 -119 77 -119 154c0 60 42 102 109 102h158v113h-363v52h1187z" />
    <glyph glyph-name="uni091E094D091B" horiz-adv-x="1135" 
d="M926 481v101h-197c-69 0 -121 -41 -121 -109c0 -59 42 -99 113 -99h37v-54h-24c-69 0 -113 -37 -113 -99c0 -65 50 -119 147 -119c134 0 249 102 249 229c0 62 -35 97 -79 97c-37 0 -67 -25 -67 -64c0 -38 25 -65 70 -70l-36 -41c-58 12 -92 57 -92 111
c0 61 46 112 113 117zM1155 582h-173v-108c58 -19 94 -75 94 -143c0 -139 -126 -284 -308 -284c-135 0 -209 82 -209 172c0 20 4 37 10 53c-26 -5 -50 -7 -77 -7c-29 0 -63 3 -90 11c-12 -97 -89 -162 -191 -162c-103 0 -169 62 -199 111l43 38c29 -44 74 -94 157 -94
c68 0 130 47 130 131c0 77 -50 121 -120 121c-33 0 -58 -9 -77 -20l-21 49c20 11 51 26 101 26c97 0 165 -60 176 -147c24 -5 53 -8 77 -8c50 0 97 2 159 20l5 2v4c-58 16 -96 64 -96 123c0 67 38 96 54 108v4h-620v52h1175v-52z" />
    <glyph glyph-name="uni091E094D091C" horiz-adv-x="1239" 
d="M1259 634v-52h-125v-582h-58v380h-188v-4c15 -14 49 -46 49 -110c0 -76 -58 -141 -151 -141c-107 0 -177 73 -215 157c-20 -4 -48 -7 -79 -7c-29 0 -62 3 -90 10c-7 -101 -85 -171 -191 -171c-103 0 -169 62 -199 111l43 38c29 -44 74 -94 157 -94c68 0 130 47 130 131
c0 77 -50 121 -120 121c-33 0 -58 -9 -77 -20l-21 49c20 11 51 26 101 26c93 0 159 -55 175 -137c24 -5 53 -8 78 -8c28 0 52 2 73 6c-7 22 -11 44 -14 65l61 22c4 -118 74 -244 184 -244c61 0 95 39 95 89c0 70 -61 103 -95 112v4l27 48h267v149h-1096v52h1279z" />
    <glyph glyph-name="uni091E094D0936" horiz-adv-x="1220" 
d="M500 634v-52h-520v52h520zM736 441l-36 -44c-53 15 -83 61 -83 115c0 73 58 132 145 132c105 0 162 -84 162 -175c0 -146 -127 -226 -284 -213l-2 -4c27 -26 45 -39 93 -86l143 -140l-48 -33l-227 224l-65 59c-10 -1 -21 -2 -32 -2c-30 0 -69 4 -100 12
c-7 -102 -85 -172 -191 -172c-103 0 -169 62 -199 111l43 38c29 -44 74 -94 157 -94c68 0 130 47 130 131c0 77 -50 121 -120 121c-33 0 -58 -9 -77 -20l-21 49c20 11 51 26 101 26c93 0 159 -55 175 -137c24 -5 53 -8 78 -8c30 0 53 1 74 5l20 -13c32 -9 71 -14 100 -14
c108 0 192 59 192 160c0 80 -51 121 -102 121c-53 0 -85 -32 -85 -78c0 -31 19 -62 59 -71zM1057 634h183v-52h-125v-582h-58v634z" />
    <glyph glyph-name="uni091F094D091F" horiz-adv-x="568" 
d="M422 472l-219 -55c-64 -16 -82 -33 -82 -68c0 -42 50 -108 176 -108c96 0 157 31 192 60l29 -47c-25 -20 -58 -37 -96 -49v-125l-219 -55c-64 -16 -82 -33 -82 -68c0 -42 50 -108 176 -108c96 0 157 31 192 60l29 -47c-49 -40 -131 -67 -216 -67c-159 0 -243 85 -243 163
c0 60 43 96 121 115l186 47v72c-21 -3 -42 -5 -64 -5c-159 0 -243 85 -243 163c0 60 43 96 121 115l186 47v70h-386v52h608v-52h-166v-110z" />
    <glyph glyph-name="uni091F094D0920" horiz-adv-x="581" 
d="M378 60l-168 -42c-57 -14 -83 -36 -83 -79c0 -41 45 -104 179 -104c127 0 189 55 189 124c0 62 -56 95 -117 101zM420 472l-220 -53c-64 -16 -78 -42 -78 -77c0 -42 47 -111 173 -111c96 0 157 31 192 60l29 -47c-26 -22 -62 -39 -103 -51v-86c72 -17 142 -63 142 -153
c0 -87 -85 -173 -247 -173c-154 0 -242 83 -242 164c0 58 41 103 121 123l170 43v70c-19 -3 -38 -4 -57 -4c-159 0 -240 88 -240 166c0 60 39 105 117 124l187 45v70h-384v52h621v-52h-181v-110z" />
    <glyph glyph-name="uni091F094D0928" horiz-adv-x="996" 
d="M236 -57l49 18l135 -158v-4h-74zM1016 634v-52h-125v-582h-58v329h-213v-87l-41 -12c-32 23 -53 73 -54 115l45 38h263v199h-460v-165l-144 -44c-94 -29 -115 -63 -115 -122c0 -76 65 -151 168 -151c77 0 123 26 155 60l35 -47c-46 -47 -114 -68 -183 -68
c-137 0 -237 104 -237 216c0 81 45 129 134 157l129 40v124h-335v52h1036z" />
    <glyph glyph-name="uni091F094D092F" horiz-adv-x="1031" 
d="M868 286v296h-497v-142c56 17 147 35 201 35c84 0 145 -47 145 -115c0 -71 -59 -118 -121 -146c12 -44 50 -91 125 -91c97 0 147 74 147 163zM1051 634v-52h-125v-582h-58v136h-4c-19 -26 -68 -68 -143 -68c-113 0 -183 76 -200 168l45 21c61 29 90 66 90 103
c0 41 -31 61 -92 61c-52 0 -128 -16 -193 -34l-144 -44c-94 -29 -115 -63 -115 -122c0 -76 65 -151 168 -151c77 0 123 26 155 60l35 -47c-46 -47 -114 -68 -183 -68c-137 0 -237 104 -237 216c0 81 45 129 134 157l129 40v154h-333v52h1071z" />
    <glyph glyph-name="uni091F094D0935" horiz-adv-x="532" 
d="M150 174v4c-55 23 -95 77 -95 135c0 62 42 108 120 127l186 47v95h-381v52h571v-52h-134v-135l-219 -55c-64 -16 -81 -43 -81 -80c0 -47 49 -117 175 -117c96 0 157 31 192 60l29 -47c-25 -21 -58 -37 -96 -49v-348h-56v111h-4c-12 -18 -55 -57 -133 -57
c-103 0 -168 76 -168 163c0 78 49 127 94 146zM235 -81c76 0 126 53 126 130v82c-29 7 -65 14 -112 14c-92 0 -132 -54 -132 -114c0 -59 39 -112 118 -112z" />
    <glyph glyph-name="uni0920094D0928" horiz-adv-x="1066" 
d="M266 -57l49 18l135 -158v-4h-74zM307 399l-80 -25c-94 -29 -116 -64 -116 -124c0 -75 60 -150 165 -150c122 0 177 72 177 151c0 97 -97 140 -146 148zM1086 634v-52h-125v-582h-58v329h-213v-87l-41 -12c-32 23 -53 73 -54 115l45 38h263v199h-532v-146
c56 -22 143 -80 143 -191c0 -115 -97 -200 -231 -200s-233 95 -233 214c0 82 47 130 136 158l127 40v125h-333v52h1106z" />
    <glyph glyph-name="uni0920094D092F" horiz-adv-x="1125" 
d="M962 286v296h-591v-146c12 -5 24 -11 38 -19c54 22 160 60 258 60c89 0 143 -51 143 -118c0 -72 -62 -117 -122 -147c12 -44 50 -91 125 -91c97 0 149 76 149 165zM307 399l-80 -25c-94 -29 -116 -64 -116 -124c0 -75 60 -150 165 -150c122 0 177 72 177 151
c0 97 -97 140 -146 148zM1146 634v-52h-126v-582h-58v136h-4c-19 -26 -70 -70 -145 -70c-113 0 -183 76 -200 168l45 21c61 29 91 60 91 104c0 38 -24 64 -90 64c-69 0 -144 -24 -199 -45c30 -32 54 -75 54 -133c0 -115 -97 -200 -231 -200s-233 95 -233 214
c0 82 47 130 136 158l127 40v125h-333v52h1166z" />
    <glyph glyph-name="uni0921094D0921" horiz-adv-x="545" 
d="M49 255l37 34c42 -55 103 -97 203 -97c94 0 127 45 127 85c0 21 -9 35 -20 43l-178 -31c-63 13 -110 65 -110 121c0 43 29 88 93 88h168v84h-399v52h605v-52h-152v-134h-203c-43 0 -54 -25 -54 -47c0 -23 19 -54 59 -59l191 33c31 -16 55 -55 55 -98
c0 -90 -82 -137 -177 -137c-34 0 -70 5 -98 13c-19 -10 -30 -25 -30 -49c0 -23 18 -55 58 -60l192 33c31 -16 55 -54 55 -97c0 -90 -87 -138 -182 -138c-110 0 -192 54 -240 116l38 32c42 -55 102 -97 202 -97c89 0 127 46 127 87c0 21 -9 34 -20 42l-179 -31
c-63 13 -106 63 -106 119c0 25 11 49 31 65c-40 21 -69 49 -93 80z" />
    <glyph glyph-name="uni0921094D0922" horiz-adv-x="550" 
d="M476 285c0 -84 -76 -130 -163 -136c-155 -23 -179 -76 -179 -123c0 -62 57 -134 166 -134c75 0 110 41 110 82c0 27 -19 52 -54 52c-47 0 -63 -43 -54 -77l-59 22c-5 43 28 108 109 108c70 0 111 -52 111 -105c0 -69 -52 -132 -159 -132c-148 0 -229 100 -229 189
c0 64 42 117 109 135c-57 21 -101 56 -132 97l38 32c42 -55 104 -97 204 -97c94 0 126 47 126 87c0 21 -9 35 -20 43l-177 -31c-63 13 -111 65 -111 121c0 43 30 88 94 88h168v76h-394v52h590v-52h-142v-126h-203c-43 0 -54 -23 -54 -45c0 -23 19 -58 59 -63l191 33
c31 -16 55 -53 55 -96z" />
    <glyph glyph-name="uni0921094D0928" horiz-adv-x="1038" 
d="M246 -87l49 18l135 -158v-4h-74zM1058 634v-52h-125v-582h-58v329h-213v-87l-41 -12c-32 23 -53 73 -54 115l45 38h263v199h-450v-163h-180c-59 0 -75 -26 -75 -62c0 -40 33 -76 70 -86l171 34c37 -21 69 -70 69 -128c0 -88 -75 -160 -190 -160c-107 0 -195 61 -251 162
l48 34c42 -84 112 -143 203 -143c75 0 130 40 130 107c0 28 -9 52 -31 69l-161 -32c-60 19 -119 77 -119 154c0 60 42 104 109 104h150v110h-388v52h1078z" />
    <glyph glyph-name="uni0921094D092F" horiz-adv-x="1071" 
d="M908 286v296h-483v-110h193c89 0 138 -46 138 -113c0 -71 -62 -117 -122 -147c12 -44 50 -91 125 -91c97 0 149 76 149 165zM1091 634v-52h-125v-582h-58v136h-4c-19 -26 -70 -70 -145 -70c-113 0 -183 76 -200 168l45 21c61 29 91 58 91 104c0 38 -19 60 -85 60h-365
c-59 0 -75 -26 -75 -62c0 -40 33 -76 70 -86l171 34c37 -21 69 -70 69 -128c0 -88 -75 -160 -190 -160c-107 0 -195 61 -251 162l48 34c42 -84 112 -143 203 -143c75 0 130 40 130 107c0 28 -9 52 -31 69l-161 -32c-60 19 -119 77 -119 154c0 60 42 104 109 104h150v110
h-388v52h1111z" />
    <glyph glyph-name="uni0921094D0935" horiz-adv-x="538" 
d="M371 38v72h-87c-79 0 -122 -38 -122 -98c0 -53 28 -95 101 -95c59 0 108 45 108 121zM425 444h-202c-43 0 -54 -21 -54 -43c0 -28 19 -63 57 -74l195 32c25 -14 52 -50 52 -105c0 -37 -15 -75 -48 -104v-355h-54v118h-4c-12 -16 -46 -50 -114 -50c-94 0 -152 66 -152 147
c0 58 29 96 64 118c-53 21 -91 60 -119 95l42 39c38 -56 95 -104 192 -104c108 0 136 52 136 96c0 22 -7 38 -17 48l-183 -30c-62 18 -107 73 -107 136c0 43 30 87 94 87h167v87h-390v52h576v-52h-131v-138z" />
    <glyph glyph-name="uni0922094D092F" horiz-adv-x="1038" 
d="M875 286v296h-482v-92h169c97 0 162 -41 162 -130c0 -71 -59 -118 -121 -146c12 -44 50 -91 125 -91c97 0 147 74 147 163zM1058 634v-52h-125v-582h-58v136h-4c-19 -26 -68 -68 -143 -68c-113 0 -183 76 -200 168l45 21c61 28 90 66 90 103c0 51 -30 78 -100 78h-181
l-154 -42c-93 -25 -117 -74 -117 -133c0 -82 70 -164 179 -164c71 0 111 39 111 90c0 33 -25 61 -61 61c-48 0 -69 -42 -60 -84l-56 22c-5 54 34 118 115 118c70 0 122 -52 122 -117c0 -76 -69 -144 -167 -144c-140 0 -244 105 -244 223c0 83 55 148 140 172l145 42v100
h-355v52h1078z" />
    <glyph glyph-name="uni0923094D091F" horiz-adv-x="980" 
d="M342 349v233h-194v-233c0 -69 34 -109 97 -109s97 40 97 109zM859 417l-144 -44c-94 -29 -115 -63 -115 -122c0 -76 65 -151 168 -151c77 0 123 26 155 60l35 -47c-46 -47 -114 -68 -183 -68c-137 0 -237 104 -237 216c0 81 45 129 134 157l129 40v124h-401v-239
c0 -101 -66 -158 -155 -158s-155 57 -155 158v239h-110v52h1020v-52h-141v-165z" />
    <glyph glyph-name="uni0923094D0920" horiz-adv-x="1050" 
d="M793 399l-80 -25c-94 -29 -116 -64 -116 -124c0 -75 60 -150 165 -150c122 0 177 72 177 151c0 97 -97 140 -146 148zM342 349v233h-194v-233c0 -69 34 -109 97 -109s97 40 97 109zM1070 582h-213v-146c56 -22 143 -80 143 -191c0 -115 -97 -200 -231 -200
s-233 95 -233 214c0 82 47 130 136 158l127 40v125h-399v-239c0 -101 -66 -158 -155 -158s-155 57 -155 158v239h-110v52h1090v-52z" />
    <glyph glyph-name="uni0923094D0921" horiz-adv-x="1022" 
d="M342 349v233h-194v-233c0 -69 34 -109 97 -109s97 40 97 109zM911 419h-180c-59 0 -75 -26 -75 -62c0 -40 33 -76 70 -86l171 34c37 -21 69 -70 69 -128c0 -88 -75 -160 -190 -160c-107 0 -195 61 -251 162l48 34c42 -84 112 -143 203 -143c75 0 130 40 130 107
c0 28 -9 52 -31 69l-161 -32c-60 19 -119 77 -119 154c0 60 42 104 109 104h150v110h-454v-239c0 -101 -66 -158 -155 -158s-155 57 -155 158v239h-110v52h1062v-52h-131v-163z" />
    <glyph glyph-name="uni0923094D0922" horiz-adv-x="1001" 
d="M342 349v233h-194v-233c0 -69 34 -109 97 -109s97 40 97 109zM879 441l-165 -45c-93 -25 -117 -74 -117 -133c0 -82 70 -164 179 -164c71 0 111 39 111 90c0 33 -25 61 -61 61c-48 0 -69 -42 -60 -84l-56 22c-5 54 34 118 115 118c70 0 122 -52 122 -117
c0 -76 -69 -144 -167 -144c-140 0 -244 105 -244 223c0 83 55 148 140 172l145 42v100h-421v-239c0 -101 -66 -158 -155 -158s-155 57 -155 158v239h-110v52h1041v-52h-142v-141z" />
    <glyph glyph-name="uni0923094D0923" horiz-adv-x="1232" 
d="M828 349v233h-194v-233c0 -69 34 -109 97 -109s97 40 97 109zM342 349v233h-194v-233c0 -69 34 -109 97 -109s97 40 97 109zM1252 634v-52h-125v-582h-58v582h-183v-239c0 -101 -66 -158 -155 -158s-155 57 -155 158v239h-176v-239c0 -101 -66 -158 -155 -158
s-155 57 -155 158v239h-110v52h1272z" />
    <glyph glyph-name="uni0923094D092E" horiz-adv-x="1057" 
d="M894 343v239h-231v-239h231zM342 349v233h-194v-233c0 -69 34 -109 97 -109s97 40 97 109zM1077 634v-52h-125v-582h-58v289h-231v-103h-67c-32 27 -49 74 -50 115l59 41v240h-205v-239c0 -101 -66 -158 -155 -158s-155 57 -155 158v239h-110v52h1097z" />
    <glyph glyph-name="uni0923094D092F" horiz-adv-x="1091" 
d="M929 377v205h-225v-4c22 -25 40 -55 40 -103c0 -69 -58 -120 -138 -140c8 -53 53 -136 162 -136c91 0 161 63 161 178zM342 349v233h-194v-233c0 -69 34 -109 97 -109s97 40 97 109zM1111 634v-52h-125v-582h-58v222h-4c-16 -23 -63 -78 -164 -78
c-115 0 -205 82 -224 222c96 22 147 56 147 118c0 40 -19 75 -47 98h-236v-239c0 -101 -66 -158 -155 -158s-155 57 -155 158v239h-110v52h1131z" />
    <glyph glyph-name="uni0923094D0935" horiz-adv-x="1027" 
d="M342 349v233h-194v-233c0 -69 34 -109 97 -109s97 40 97 109zM1047 634v-52h-125v-582h-58v186h-4c-21 -28 -68 -65 -146 -65c-93 0 -178 70 -178 179c0 141 129 195 234 175l6 -57c-92 23 -178 -22 -178 -116c0 -71 49 -126 126 -126c85 0 140 66 140 152v254h-464v-239
c0 -101 -66 -158 -155 -158s-155 57 -155 158v239h-110v52h1067z" />
    <glyph glyph-name="uni0924094D0915" horiz-adv-x="1061" 
d="M1081 582h-373v-180h4c19 27 62 62 136 62c87 0 163 -65 163 -165c0 -116 -100 -181 -205 -166l-9 55c73 -12 152 19 152 109c0 66 -46 112 -113 112c-76 0 -128 -54 -128 -135v-274h-57v195h-4c-19 -27 -61 -62 -135 -62c-87 0 -164 66 -164 165c0 29 6 55 17 77h-131
c-73 0 -121 -45 -121 -123c0 -106 55 -178 116 -224l-50 -34c-70 56 -126 143 -126 258c0 104 70 177 169 177h188c38 30 90 43 143 35l9 -55c-73 12 -152 -19 -152 -109c0 -65 45 -112 113 -112c76 0 128 54 128 135v259h-671v52h1101v-52z" />
    <glyph glyph-name="uni0924094D0916" horiz-adv-x="1077" 
d="M597 582v-169c0 -72 -46 -115 -105 -115c-32 0 -49 6 -62 13c28 -144 128 -220 248 -220c127 0 239 81 239 227c0 76 -50 118 -103 118c-58 0 -98 -38 -98 -96c0 -56 41 -99 116 -102l-31 -47c-70 3 -143 56 -143 149c0 89 69 151 151 151c53 0 82 -18 101 -38h4v129
h-317zM1097 634v-52h-125v-582h-57v143h-4c-47 -60 -129 -107 -232 -107c-188 0 -302 141 -319 339h-126c-73 0 -121 -45 -121 -123c0 -106 55 -178 116 -224l-50 -34c-70 56 -126 143 -126 258c0 104 70 177 169 177h165l32 -48c14 -18 33 -33 66 -33s54 18 54 64v170h-559
v52h1117z" />
    <glyph glyph-name="uni0924094D0924" horiz-adv-x="589" 
d="M150 364v4h-119v54h395v160h-446v52h629v-52h-125v-582h-58v368h-149c-84 0 -122 -54 -122 -125c0 -107 64 -174 110 -209l-42 -40c-70 54 -128 145 -128 242c0 84 41 117 55 128z" />
    <glyph glyph-name="uni0924094D0925" horiz-adv-x="966" 
d="M318 634v-52h-338v52h338zM804 634h182v-52h-125v-582h-58v203h-4c-25 -40 -88 -92 -190 -92c-145 0 -230 108 -238 235c-25 21 -56 29 -106 29h-31c-73 0 -121 -45 -121 -123c0 -106 55 -178 116 -224l-50 -34c-70 56 -126 143 -126 258c0 104 70 177 169 177h52
c86 0 135 -32 161 -64l28 8c151 43 175 84 175 141c0 45 -29 75 -76 75c-43 0 -75 -26 -75 -71c0 -22 14 -49 30 -62l-57 -17c-14 13 -32 42 -32 82c0 67 56 123 134 123c82 0 135 -56 135 -132c0 -86 -64 -147 -197 -185l-59 -17c5 -43 48 -144 169 -144
c129 0 194 93 194 199v269z" />
    <glyph glyph-name="uni0924094D0928" horiz-adv-x="800" 
d="M214 31l-49 -35c-64 56 -112 134 -112 241c0 104 70 174 169 174h69c48 0 87 -10 111 -18h235v189h-657v52h840v-52h-125v-582h-58v339h-213v-87l-41 -12c-32 23 -53 75 -54 117h-95c-73 0 -121 -42 -121 -120c0 -96 47 -161 101 -206z" />
    <glyph glyph-name="uni0924094D092A" horiz-adv-x="840" 
d="M677 409v173h-243v-211c0 -83 40 -114 108 -114c88 0 135 62 135 152zM860 634v-52h-125v-582h-58v268h-4c-20 -34 -61 -66 -137 -66c-87 0 -160 51 -160 159v14h-142c-73 0 -121 -45 -121 -123c0 -106 55 -178 116 -224l-50 -34c-70 56 -126 143 -126 258
c0 104 70 177 169 177h154v153h-396v52h880z" />
    <glyph glyph-name="uni0924094D092B" horiz-adv-x="1083" 
d="M674 406v176h-228v-216c0 -81 36 -112 97 -112c77 0 131 57 131 152zM1103 582h-372v-184h4c17 25 64 65 138 65c91 0 166 -66 166 -166c0 -115 -92 -190 -206 -176l-9 57c97 -17 153 41 153 118c0 67 -45 111 -113 111c-74 0 -133 -58 -133 -149v-258h-58v264h-4
c-17 -30 -58 -65 -129 -65c-86 0 -152 52 -152 158v18h-154c-73 0 -121 -45 -121 -123c0 -106 55 -178 116 -224l-50 -34c-70 56 -126 143 -126 258c0 104 70 177 169 177h166v153h-408v52h1123v-52z" />
    <glyph glyph-name="uni0924094D092E" horiz-adv-x="869" 
d="M706 343v239h-231v-239h231zM889 634v-52h-125v-582h-58v289h-231v-103h-67c-32 27 -49 74 -50 115l59 41v33h-183c-73 0 -121 -45 -121 -123c0 -106 55 -178 116 -224l-50 -34c-70 56 -126 143 -126 258c0 104 70 177 169 177h195v153h-437v52h909z" />
    <glyph glyph-name="uni0924094D092F" horiz-adv-x="903" 
d="M741 377v205h-225v-4c22 -25 40 -55 40 -103c0 -69 -58 -120 -138 -140c8 -53 53 -136 162 -136c91 0 161 63 161 178zM923 634v-52h-125v-582h-58v222h-4c-16 -23 -63 -78 -164 -78c-115 0 -204 81 -224 221c-19 7 -42 10 -74 10h-40c-73 0 -121 -45 -121 -123
c0 -106 55 -178 116 -224l-50 -34c-70 56 -126 143 -126 258c0 104 70 177 169 177h61c58 0 107 -16 137 -40c49 21 75 51 75 95c0 40 -19 75 -47 98h-468v52h943z" />
    <glyph glyph-name="uni0924094D0932" horiz-adv-x="1005" 
d="M1025 634v-52h-125v-582h-58v356c-16 17 -50 38 -88 38c-52 0 -90 -35 -90 -107v-95h-58v94c0 69 -35 104 -90 104c-53 0 -97 -38 -97 -121c0 -99 57 -178 152 -229l-42 -43c-89 48 -171 146 -171 273c0 36 7 66 20 92c-21 9 -45 13 -81 13h-63c-73 0 -121 -45 -121 -123
c0 -106 55 -178 116 -224l-50 -34c-70 56 -126 143 -126 258c0 104 70 177 169 177h84c41 0 78 -8 107 -22c27 25 63 38 99 38c66 0 108 -33 122 -81h4c15 54 59 85 112 85c44 0 74 -19 88 -35h4v168h-862v52h1045z" />
    <glyph glyph-name="uni0924094D0935" horiz-adv-x="839" 
d="M859 634v-52h-125v-582h-58v186h-4c-21 -28 -68 -65 -146 -65c-93 0 -178 70 -178 179c0 29 5 53 15 75h-129c-73 0 -121 -45 -121 -123c0 -106 55 -178 116 -224l-50 -34c-70 56 -126 143 -126 258c0 104 70 177 169 177h179c47 44 118 58 181 46l6 -57
c-63 16 -123 0 -155 -42v-1c-15 -19 -23 -44 -23 -73c0 -71 49 -126 126 -126c85 0 140 66 140 152v254h-696v52h879z" />
    <glyph glyph-name="uni0924094D0938" horiz-adv-x="967" 
d="M590 582v-192c0 -16 -2 -29 -6 -42c36 -11 82 -17 122 -17s73 4 98 10v241h-214zM987 634v-52h-125v-582h-58v285c-22 -5 -53 -9 -99 -9c-53 0 -113 11 -151 26c-22 -18 -52 -27 -83 -27c-9 0 -29 1 -40 5l-2 -3c22 -26 42 -49 66 -81l123 -163l-47 -32l-251 335l-17 23
h-69c-73 0 -121 -43 -121 -121c0 -105 54 -170 116 -214l-50 -34c-68 53 -126 137 -126 248c0 104 70 175 169 175h109l41 -50c16 -15 44 -35 87 -35c49 0 73 21 73 70v184h-552v52h1007z" />
    <glyph glyph-name="uni0925094D0928" horiz-adv-x="925" 
d="M453 634h492v-52h-125v-582h-58v329h-213v-87l-24 -7c-42 -67 -121 -123 -240 -123c-148 0 -244 105 -252 234l92 27c151 44 176 86 176 142c0 45 -33 74 -78 74c-43 0 -74 -26 -74 -71c0 -22 14 -49 30 -62l-57 -17c-14 13 -32 42 -32 82c0 67 55 123 133 123
c80 0 137 -55 137 -131c0 -84 -65 -148 -198 -186l-59 -17c5 -46 58 -143 183 -143c94 0 158 44 193 95c-15 25 -24 56 -25 83l45 38h263v199h-309v52z" />
    <glyph glyph-name="uni0925094D092F" horiz-adv-x="1018" 
d="M856 377v205h-225v-4c22 -25 40 -55 40 -103c0 -69 -58 -120 -138 -140c8 -53 53 -136 162 -136c91 0 161 63 161 178zM462 634h576v-52h-125v-582h-58v222h-4c-16 -23 -63 -78 -164 -78c-68 0 -127 29 -168 81c-43 -62 -121 -113 -234 -113c-148 0 -244 105 -252 234
l92 27c151 44 176 86 176 142c0 45 -33 74 -78 74c-43 0 -74 -26 -74 -71c0 -22 14 -49 30 -62l-57 -17c-14 13 -32 42 -32 82c0 67 55 123 133 123c80 0 137 -55 137 -131c0 -84 -65 -148 -198 -186l-59 -17c5 -46 58 -143 183 -143c103 0 169 52 202 109
c-12 27 -20 57 -25 90c96 22 147 56 147 118c0 40 -19 75 -47 98h-101v52z" />
    <glyph glyph-name="uni0925094D0935" horiz-adv-x="962" 
d="M462 634h520v-52h-125v-582h-58v186h-4c-21 -28 -68 -65 -146 -65c-60 0 -117 29 -150 80c-45 -51 -116 -89 -214 -89c-148 0 -244 105 -252 234l92 27c151 44 176 86 176 142c0 45 -33 74 -78 74c-43 0 -74 -26 -74 -71c0 -22 14 -49 30 -62l-57 -17
c-14 13 -32 42 -32 82c0 67 55 123 133 123c80 0 137 -55 137 -131c0 -84 -65 -148 -198 -186l-59 -17c5 -46 58 -143 183 -143c91 0 154 41 190 90c-3 14 -5 28 -5 43c0 141 129 195 234 175l6 -57c-92 23 -178 -22 -178 -116c0 -71 49 -126 126 -126c85 0 140 66 140 152
v254h-337v52z" />
    <glyph glyph-name="uni0926094D0917" horiz-adv-x="524" 
d="M382 431l-162 -40c-84 -21 -111 -58 -111 -114c0 -76 60 -142 150 -142c44 0 79 11 96 26v103l46 17c18 -8 43 -36 43 -74c0 -40 -18 -68 -33 -81l106 -138l-71 -18l-75 132c-27 -14 -66 -22 -103 -22h-10v-203h-60c-27 25 -37 56 -38 88l43 34v89
c-101 27 -156 114 -156 193c0 82 52 135 148 159l129 32v110h-344v52h564v-52h-162v-151z" />
    <glyph glyph-name="uni0926094D0918" horiz-adv-x="670" 
d="M253 130c-37 31 -60 72 -69 113c-73 -15 -113 -63 -113 -111c0 -44 28 -68 71 -68c28 0 42 3 60 11c13 17 30 34 51 55zM299 101c-58 -52 -78 -83 -78 -116c0 -36 21 -61 70 -61c67 0 123 61 150 159c-36 -7 -97 -4 -142 18zM515 431l-162 -40
c-84 -21 -111 -58 -111 -114c0 -76 60 -142 150 -142c44 0 79 11 96 26v103l46 17c18 -8 43 -36 43 -74c0 -40 -18 -68 -33 -81l120 -159l-71 -18l-87 151h-4c-40 -165 -118 -227 -213 -227c-83 0 -124 53 -124 107c0 12 1 29 5 39c-14 -2 -26 -3 -41 -3
c-68 0 -116 48 -116 115c0 78 66 142 168 164c5 74 57 122 147 145l129 32v110h-477v52h709v-52h-174v-151z" />
    <glyph glyph-name="uni0926094D0926" horiz-adv-x="495" 
d="M376 432h-151c-81 0 -99 -34 -99 -68c0 -42 33 -80 127 -80c40 0 80 8 80 8l14 -50c-132 -15 -194 -51 -194 -112c0 -49 39 -78 107 -78c46 0 84 14 107 29v88l43 11c20 -13 33 -33 33 -60s-11 -50 -29 -68l94 -128l-68 -13l-64 115c-35 -18 -78 -26 -117 -26
c-103 0 -167 54 -167 129c0 68 51 105 94 117v4c-37 3 -122 30 -122 120c0 60 47 116 147 116h107v96h-338v52h535v-52h-139v-150z" />
    <glyph glyph-name="uni0926094D0927" horiz-adv-x="671" 
d="M513 100h-4c-40 -165 -118 -227 -213 -227c-81 0 -125 55 -125 109c0 12 2 27 6 37c-15 -4 -30 -4 -45 -4c-65 0 -112 41 -112 106c0 73 56 97 56 182l53 -19c0 -75 -51 -108 -51 -162c0 -42 26 -59 67 -59c63 0 73 25 115 67c-48 40 -73 97 -73 151c0 82 52 135 148 159
l129 32v110h-484v52h712v-52h-170v-151l-162 -40c-84 -21 -111 -58 -111 -114c0 -76 60 -142 150 -142c44 0 79 11 96 26v103l46 17c18 -8 43 -36 43 -74c0 -40 -18 -68 -33 -81l120 -159l-71 -18zM298 -76c67 0 123 61 150 159c-45 -6 -93 -3 -142 18
c-58 -52 -78 -83 -78 -116c0 -36 21 -61 70 -61z" />
    <glyph glyph-name="uni0926094D0928" horiz-adv-x="1015" 
d="M380 -140l49 18l135 -158v-4h-74zM1035 634v-52h-125v-582h-58v329h-213v-87l-41 -12c-32 23 -53 73 -54 115l45 38h263v199h-467v-151l-162 -40c-84 -21 -111 -58 -111 -114c0 -76 60 -142 150 -142c44 0 79 11 96 26v103l46 17c18 -8 43 -36 43 -74
c0 -40 -18 -68 -33 -81l106 -138l-71 -18l-75 132c-27 -14 -66 -22 -103 -22c-143 0 -221 107 -221 201c0 82 52 135 148 159l129 32v110h-347v52h1055z" />
    <glyph glyph-name="uni0926094D092C" horiz-adv-x="530" 
d="M281 -39l-88 143c-31 -17 -47 -44 -47 -76c0 -38 26 -78 82 -78c20 0 38 4 53 11zM237 117l80 -128c28 32 42 80 42 129c-21 2 -65 2 -85 2c-13 0 -26 -1 -37 -3zM388 457l-160 -40c-85 -21 -113 -57 -113 -119c0 -71 57 -129 149 -129c46 0 77 10 95 23v105l47 17
c16 -8 43 -33 43 -72s-17 -65 -33 -81l120 -161l-69 -17l-54 93h-4c-6 -77 -66 -178 -181 -178c-83 0 -142 56 -142 131c0 51 31 90 70 110v4c-67 24 -103 94 -103 162c0 84 46 134 146 159l131 34v84h-350v52h570v-52h-162v-125z" />
    <glyph glyph-name="uni0926094D092D" horiz-adv-x="655" 
d="M505 429l-162 -40c-84 -21 -111 -58 -111 -114c0 -76 60 -142 150 -142c44 0 79 11 96 26v103l46 17c18 -8 43 -36 43 -74c0 -40 -18 -68 -33 -81l106 -138l-71 -18l-75 132c-22 -11 -51 -19 -80 -21l-213 -113l31 -61l-54 -27c-30 5 -61 25 -78 56l26 51l-40 76
c-10 18 -20 24 -37 24s-41 -14 -60 -36l-28 47c26 27 66 46 94 46c36 0 61 -14 80 -50l42 -80l143 76c-98 28 -150 114 -150 191c0 82 52 135 148 159l129 32v112h-467v52h696v-52h-171v-153z" />
    <glyph glyph-name="uni0926094D092E" horiz-adv-x="703" 
d="M360 330v-156h180v408h-180v-154h-168c-59 0 -91 -33 -91 -79c0 -50 33 -85 94 -85c72 0 100 38 110 66h55zM305 250h-4c-16 -16 -47 -40 -110 -40c-88 0 -151 58 -151 139c0 74 56 132 153 132h109v101h-322v52h744v-52h-126v-582h-58v121h-180v-75h-59
c-22 16 -42 57 -43 90l47 35v79z" />
    <glyph glyph-name="uni0926094D092F" horiz-adv-x="643" 
d="M309 267h-88c-55 0 -86 -23 -86 -67c0 -39 28 -84 123 -84c145 0 222 86 222 216v250h-170v-138h-129c-34 0 -52 -18 -52 -45c0 -41 31 -70 67 -78h113v-54zM142 294v4c-38 10 -75 47 -75 103c0 61 47 97 104 97h80v84h-271v52h683v-52h-125v-582h-58v160h-4
c-29 -44 -99 -99 -219 -99c-128 0 -184 66 -184 138c0 48 24 81 69 95z" />
    <glyph glyph-name="uni0926094D0935" horiz-adv-x="530" 
d="M358 117c-21 2 -64 2 -84 2c-86 0 -127 -36 -127 -89c0 -39 26 -77 82 -77c90 0 128 77 129 164zM413 76h-4c-9 -84 -65 -176 -180 -176c-82 0 -143 55 -143 131c0 54 32 90 70 108v4c-67 24 -103 94 -103 162c0 84 46 134 146 159l131 34v84h-350v52h570v-52h-162v-125
l-160 -40c-85 -21 -113 -57 -113 -119c0 -71 57 -129 149 -129c46 0 77 10 95 23v105l47 17c16 -8 43 -33 43 -72s-17 -65 -33 -81l120 -161l-69 -17z" />
    <glyph glyph-name="uni0927094D0928" horiz-adv-x="877" 
d="M501 232c-46 -61 -123 -111 -229 -111c-125 0 -183 74 -183 147c0 64 43 102 84 113v4c-47 7 -91 43 -91 107c0 47 28 77 49 86v4h-151v52h256l9 -51c-57 -6 -101 -36 -101 -89c0 -46 34 -84 115 -84h62v-54h-61c-74 0 -109 -36 -109 -87c0 -45 33 -93 122 -93
c71 0 127 27 166 64c-20 26 -32 63 -33 95l45 38h263v209h-360v52h543v-52h-125v-582h-58v319h-213v-87z" />
    <glyph glyph-name="uni0927094D092E" horiz-adv-x="947" 
d="M784 343v239h-231v-239h231zM967 634v-52h-125v-582h-58v289h-231v-103h-67c-4 4 -8 7 -12 12c-47 -45 -115 -77 -202 -77c-125 0 -183 74 -183 147c0 64 43 102 84 113v4c-47 7 -91 43 -91 107c0 47 28 77 49 86v4h-151v52h256l9 -51c-57 -6 -101 -36 -101 -89
c0 -46 34 -84 115 -84h62v-54h-61c-74 0 -109 -36 -109 -87c0 -45 33 -93 122 -93c76 0 134 30 173 70c-6 18 -10 37 -10 55l59 41v240h-153v52h625z" />
    <glyph glyph-name="uni0927094D092F" horiz-adv-x="981" 
d="M819 377v205h-225v-4c22 -25 40 -55 40 -103c0 -69 -58 -120 -138 -140c8 -53 53 -136 162 -136c91 0 161 63 161 178zM1001 634v-52h-125v-582h-58v222h-4c-16 -23 -63 -78 -164 -78c-63 0 -119 25 -160 71c-47 -54 -120 -94 -218 -94c-125 0 -183 74 -183 147
c0 64 43 102 84 113v4c-47 7 -91 43 -91 107c0 47 28 77 49 86v4h-151v52h256l9 -51c-57 -6 -101 -36 -101 -89c0 -46 34 -84 115 -84h62v-54h-61c-74 0 -109 -36 -109 -87c0 -45 33 -93 122 -93c85 0 148 37 186 85c-16 30 -28 65 -33 105c96 22 147 56 147 118
c0 40 -19 75 -47 98h-184v52h659z" />
    <glyph glyph-name="uni0927094D0935" horiz-adv-x="917" 
d="M937 634v-52h-125v-582h-58v186h-4c-21 -28 -68 -65 -146 -65c-55 0 -107 24 -140 67c-47 -40 -111 -67 -192 -67c-125 0 -183 74 -183 147c0 64 43 102 84 113v4c-47 7 -91 43 -91 107c0 47 28 77 49 86v4h-151v52h256l9 -51c-57 -6 -101 -36 -101 -89
c0 -46 34 -84 115 -84h62v-54h-61c-74 0 -109 -36 -109 -87c0 -45 33 -93 122 -93c70 0 125 25 163 61c-6 19 -10 40 -10 63c0 141 129 195 234 175l6 -57c-92 23 -178 -22 -178 -116c0 -71 49 -126 126 -126c85 0 140 66 140 152v254h-412v52h595z" />
    <glyph glyph-name="uni0928094D0915" horiz-adv-x="1027" 
d="M1047 582h-373v-180h4c19 27 62 62 136 62c87 0 163 -65 163 -165c0 -116 -100 -181 -205 -166l-9 55c73 -12 152 19 152 109c0 66 -46 112 -113 112c-76 0 -128 -54 -128 -135v-274h-57v195h-4c-19 -27 -61 -62 -135 -62c-87 0 -164 66 -164 165c0 11 1 21 3 31h-191
v-87l-41 -12c-32 23 -53 73 -54 115l45 38h260c35 61 107 92 183 81l9 -55c-73 12 -152 -19 -152 -109c0 -65 45 -112 113 -112c76 0 128 54 128 135v259h-637v52h1067v-52z" />
    <glyph glyph-name="uni0928094D091A" horiz-adv-x="828" 
d="M848 634v-52h-125v-582h-58v203h-4c-22 -32 -78 -80 -177 -80c-109 0 -184 74 -184 163c0 62 34 95 52 107v4h-226v-87l-41 -12c-32 23 -53 73 -54 115l45 38h491v-53h-83c-77 0 -122 -46 -122 -110c0 -63 51 -110 129 -110c100 0 174 70 174 183v221h-685v52h868z" />
    <glyph glyph-name="uni0928094D091B" horiz-adv-x="936" 
d="M727 481v101h-197c-69 0 -121 -41 -121 -109c0 -59 42 -99 113 -99h37v-54h-24c-69 0 -113 -37 -113 -99c0 -65 50 -119 147 -119c134 0 249 102 249 229c0 62 -35 97 -79 97c-37 0 -67 -25 -67 -64c0 -38 25 -65 70 -70l-36 -41c-58 12 -92 57 -92 111
c0 61 46 112 113 117zM956 582h-173v-108c58 -19 94 -75 94 -143c0 -139 -126 -284 -308 -284c-135 0 -209 82 -209 172c0 53 25 89 56 110h-290v-87l-41 -12c-32 23 -53 73 -54 115l45 38h305c-21 23 -34 53 -34 87c0 67 38 96 54 108v4h-421v52h976v-52z" />
    <glyph glyph-name="uni0928094D091F" horiz-adv-x="758" 
d="M637 417l-144 -44c-94 -29 -115 -63 -115 -122c0 -76 65 -151 168 -151c77 0 123 26 155 60l35 -47c-46 -47 -114 -68 -183 -68c-137 0 -237 104 -237 216c0 26 5 48 14 68h-204v-87l-41 -12c-32 23 -53 73 -54 115l45 38h299v-1c20 15 45 27 75 36l129 40v124h-599v52
h798v-52h-141v-165z" />
    <glyph glyph-name="uni0928094D0921" horiz-adv-x="795" 
d="M684 419h-180c-59 0 -75 -26 -75 -62c0 -40 33 -76 70 -86l171 34c37 -21 69 -70 69 -128c0 -88 -75 -160 -190 -160c-107 0 -195 61 -251 162l48 34c42 -84 112 -143 203 -143c75 0 130 40 130 107c0 28 -9 52 -31 69l-161 -32c-49 16 -98 58 -114 115h-247v-87l-41 -12
c-32 23 -53 73 -54 115l45 38h293c6 52 47 89 108 89h150v110h-647v52h835v-52h-131v-163z" />
    <glyph glyph-name="uni0928094D0924" horiz-adv-x="811" 
d="M831 634v-52h-125v-582h-58v375h-150c-73 0 -121 -45 -121 -123c0 -106 55 -178 116 -224l-50 -34c-70 56 -126 143 -126 258c0 28 5 54 15 77h-206v-87l-41 -12c-32 23 -53 73 -54 115l45 38h292c29 29 70 46 118 46h162v153h-668v52h851z" />
    <glyph glyph-name="uni0928094D0925" horiz-adv-x="919" 
d="M279 634v-52h-299v52h299zM757 634h182v-52h-125v-582h-58v203h-4c-25 -40 -88 -92 -190 -92c-137 0 -221 97 -236 215c-14 2 -28 3 -39 3h-161v-87l-41 -12c-32 23 -53 73 -54 115l45 38h201c38 0 86 -5 119 -16l20 6c151 43 175 84 175 141c0 45 -29 75 -76 75
c-43 0 -75 -26 -75 -71c0 -22 14 -49 30 -62l-57 -17c-14 13 -32 42 -32 82c0 67 56 123 134 123c82 0 135 -56 135 -132c0 -86 -64 -147 -197 -185l-59 -17c5 -43 48 -144 169 -144c129 0 194 93 194 199v269z" />
    <glyph glyph-name="uni0928094D0926" horiz-adv-x="777" 
d="M649 431l-162 -40c-84 -21 -111 -58 -111 -114c0 -76 60 -142 150 -142c44 0 79 11 96 26v103l46 17c18 -8 43 -36 43 -74c0 -40 -18 -68 -33 -81l106 -138l-71 -18l-75 132c-27 -14 -66 -22 -103 -22c-143 0 -221 107 -221 201c0 17 2 33 7 48h-195v-87l-41 -12
c-32 23 -53 73 -54 115l45 38h277c25 26 61 45 109 57l129 32v110h-611v52h817v-52h-148v-151z" />
    <glyph glyph-name="uni0928094D0927" horiz-adv-x="891" 
d="M911 634v-52h-125v-582h-58v208h-4c-20 -30 -78 -85 -187 -85c-125 0 -183 75 -183 149c0 22 5 41 14 57h-242v-87l-41 -12c-32 23 -53 73 -54 115l45 38h362v4c-47 7 -91 42 -91 106c0 47 29 76 50 85v4h-417v52h519l9 -51c-54 -5 -99 -35 -99 -88c0 -46 34 -83 115 -83
h62v-54h-61c-74 0 -109 -34 -109 -85c0 -46 33 -95 122 -95c128 0 191 85 191 178v226h-123v52h305z" />
    <glyph glyph-name="uni0928094D0928" horiz-adv-x="766" 
d="M786 634v-52h-125v-582h-58v329h-213v-87l-41 -12c-28 20 -48 61 -53 99h-170v-87l-41 -12c-32 23 -53 73 -54 115l45 38h527v199h-623v52h806z" />
    <glyph glyph-name="uni0928094D092A" horiz-adv-x="818" 
d="M655 409v173h-243v-211c0 -83 40 -114 108 -114c88 0 135 62 135 152zM838 634v-52h-125v-582h-58v268h-4c-20 -34 -61 -66 -137 -66c-78 0 -145 41 -158 127h-230v-87l-41 -12c-32 23 -53 73 -54 115l45 38h278v199h-374v52h858z" />
    </font>
</defs>
</svg>
