<?xml version="1.0" standalone="no"?>
<!DOCTYPE svg PUBLIC "-//W3C//DTD SVG 1.1//EN" "http://www.w3.org/Graphics/SVG/1.1/DTD/svg11.dtd" >
<svg xmlns="http://www.w3.org/2000/svg" xmlns:xlink="http://www.w3.org/1999/xlink" version="1.1">
<metadata>
Created by FontForge 20170910 at Thu Jul 24 23:25:48 2014
 By Jimmy Wärting
Copyright (c) 2014 by The Indian Type Foundry. All rights reserved.
</metadata>
<defs>
<font id="KohinoorDevanagari-Demi" horiz-adv-x="0" >
  <font-face 
    font-family="Kohinoor Devanagari"
    font-weight="500"
    font-stretch="normal"
    units-per-em="1000"
    panose-1="2 0 0 0 0 0 0 0 0 0"
    ascent="800"
    descent="-200"
    x-height="550"
    cap-height="701"
    bbox="-561 -515 2065 1070"
    underline-thickness="50"
    underline-position="-100"
    stemh="76"
    stemv="95"
    unicode-range="U+000D-FB02"
  />
<missing-glyph horiz-adv-x="753" 
d="M171 0v701h410v-701h-410zM237 640v-579h279v579h-279z" />
    <glyph glyph-name="fi" unicode="fi" horiz-adv-x="610" 
d="M532 550v-550h-99v477h-221v-477h-99v477h-88v73h90v56c0 105 67 165 217 165c69 0 146 -12 182 -31l-25 -76c-31 12 -96 26 -165 26c-86 0 -110 -31 -110 -88v-52h318z" />
    <glyph glyph-name="fl" unicode="fl" horiz-adv-x="646" 
d="M532 732v-589c0 -46 16 -65 53 -65c18 0 30 5 39 8v-81c-19 -8 -45 -13 -69 -13c-81 0 -122 47 -122 125v562c-31 7 -66 11 -109 11c-85 0 -110 -31 -110 -88v-52h117v-73h-119v-477h-99v477h-88v73h90v56c0 105 67 165 217 165c96 0 168 -20 200 -39z" />
    <glyph glyph-name="f_f" unicode="ff" horiz-adv-x="687" 
d="M434 550v70c0 19 2 37 8 53c-31 9 -70 17 -118 17c-86 0 -110 -31 -110 -88v-52h220zM689 761l-17 -82c-22 6 -43 10 -71 10c-49 0 -68 -24 -68 -70v-69h136v-73h-137v-477h-99v477h-221v-477h-99v477h-88v73h90v56c0 105 67 165 216 165c62 0 129 -14 160 -29
c27 19 64 30 112 30c39 0 64 -5 86 -11z" />
    <glyph glyph-name="f_f_i" unicode="ffi" horiz-adv-x="930" 
d="M434 550v56c0 24 4 46 11 66c-30 10 -69 18 -121 18c-86 0 -110 -31 -110 -88v-52h220zM851 550v-550h-99v477h-220v-477h-99v477h-221v-477h-99v477h-88v73h90v56c0 105 67 165 216 165c63 0 133 -15 168 -34c35 22 85 34 152 34c70 0 146 -12 183 -31l-25 -76
c-31 12 -96 26 -166 26c-85 0 -110 -31 -110 -88v-52h318z" />
    <glyph glyph-name="f_f_l" unicode="ffl" horiz-adv-x="965" 
d="M434 550v56c0 24 4 46 11 66c-30 10 -69 18 -121 18c-86 0 -110 -31 -110 -88v-52h220zM851 732v-589c0 -46 17 -65 54 -65c17 0 30 5 38 8v-81c-19 -8 -44 -13 -69 -13c-80 0 -122 47 -122 125v562c-30 7 -65 11 -108 11c-86 0 -111 -31 -111 -88v-52h117v-73h-118v-477
h-99v477h-221v-477h-99v477h-88v73h90v56c0 105 67 165 216 165c63 0 133 -15 168 -34c35 22 85 34 152 34c97 0 169 -20 200 -39z" />
    <glyph glyph-name=".notdef" horiz-adv-x="753" 
d="M171 0v701h410v-701h-410zM237 640v-579h279v579h-279z" />
    <glyph glyph-name="NULL" 
 />
    <glyph glyph-name="NULL" 
 />
    <glyph glyph-name="CR" unicode="&#xd;" horiz-adv-x="286" 
 />
    <glyph glyph-name="space" unicode=" " horiz-adv-x="286" 
 />
    <glyph glyph-name="uni0905" unicode="&#x905;" horiz-adv-x="736" 
d="M451 650h309v-77h-116v-573h-94v253c-15 -7 -36 -12 -61 -12c-26 0 -48 6 -67 14c1 -6 1 -12 1 -19c0 -100 -76 -178 -198 -178c-99 0 -162 51 -192 85l65 64c22 -31 65 -67 128 -67c68 0 104 42 104 94s-37 83 -106 83h-54v82h32c62 0 99 36 99 91c0 48 -31 80 -82 80
c-42 0 -69 -19 -87 -45l-63 58c28 38 81 69 153 69c105 0 170 -65 170 -155c0 -60 -35 -106 -71 -123v-4c19 -5 40 -15 58 -30c23 -13 52 -21 86 -21c39 0 66 10 85 20v234h-99v77z" />
    <glyph glyph-name="uni0906" unicode="&#x906;" horiz-adv-x="1014" 
d="M1039 650v-77h-117v-573h-94v573h-184v-573h-94v253c-15 -7 -36 -12 -61 -12c-26 0 -48 6 -67 14c1 -6 1 -12 1 -19c0 -100 -76 -178 -198 -178c-99 0 -162 51 -192 85l65 64c22 -31 65 -67 128 -67c68 0 104 42 104 94s-37 83 -106 83h-54v82h32c62 0 99 36 99 91
c0 48 -31 80 -82 80c-42 0 -69 -19 -87 -45l-63 58c28 38 81 69 153 69c105 0 170 -65 170 -155c0 -60 -35 -106 -71 -123v-4c19 -5 40 -15 58 -30c23 -13 52 -21 86 -21c39 0 66 10 85 20v234h-99v77h588z" />
    <glyph glyph-name="uni0907" unicode="&#x907;" horiz-adv-x="537" 
d="M308 33v-4l161 -103l-100 -53l-164 146c-110 2 -155 56 -155 105c0 30 17 51 37 61l137 -91h28c66 0 130 27 130 90c0 28 -14 46 -24 53l-149 -33c-83 27 -141 98 -141 177c0 63 44 104 121 104h141v88h-354v77h585v-77h-138v-166h-189c-59 0 -69 -20 -69 -50
c0 -29 24 -60 57 -69l167 36c38 -14 83 -62 83 -139c0 -96 -79 -146 -164 -152z" />
    <glyph glyph-name="uni0908" unicode="&#x908;" horiz-adv-x="537" 
d="M423 407h-189c-59 0 -69 -20 -69 -50c0 -29 24 -60 57 -69l167 36c38 -14 83 -62 83 -139c0 -96 -79 -146 -164 -152v-4l161 -103l-100 -53l-164 146c-110 2 -155 56 -155 105c0 30 17 51 37 61l137 -91h28c66 0 130 27 130 90c0 28 -14 46 -24 53l-149 -33
c-83 27 -141 98 -141 177c0 63 44 104 121 104h141v88h-354v77h338v4c-33 21 -66 64 -66 125c0 87 74 142 155 142c50 0 82 -11 102 -22l-28 -77c-18 11 -42 18 -65 18c-46 0 -76 -31 -76 -75c0 -47 33 -91 80 -115h145v-77h-138v-166z" />
    <glyph glyph-name="uni0909" unicode="&#x909;" horiz-adv-x="485" 
d="M-5 145l78 50c27 -53 74 -95 142 -95c70 0 114 39 114 102c0 58 -37 96 -117 96h-57v83h46c52 0 99 29 99 93c0 69 -38 99 -116 99h-208v77h533v-77h-163v-5c18 -10 52 -38 52 -99c0 -57 -32 -103 -81 -120v-5c60 -13 110 -66 110 -142c0 -107 -78 -186 -211 -186
c-122 0 -193 72 -221 129z" />
    <glyph glyph-name="uni090A" unicode="&#x90a;" horiz-adv-x="694" 
d="M718 573h-372v-5c18 -10 52 -38 52 -99c0 -57 -32 -103 -81 -120v-5c27 -6 51 -19 69 -38c19 40 66 80 134 80c85 0 158 -59 158 -164c0 -108 -83 -171 -159 -188l-40 78c61 12 105 50 105 110c0 53 -35 80 -74 80c-47 0 -85 -35 -83 -96v-4c0 -106 -78 -186 -211 -186
c-122 0 -193 72 -221 129l78 50c27 -53 74 -95 142 -95c71 0 114 39 114 102c0 58 -37 96 -117 96h-57v83h46c52 0 99 29 99 93c0 69 -38 99 -116 99h-208v77h742v-77z" />
    <glyph glyph-name="uni090B" unicode="&#x90b;" horiz-adv-x="849" 
d="M873 573h-407v-229l34 20c82 48 105 77 105 125v11h89v-12c0 -41 -13 -74 -38 -104c16 -18 41 -31 81 -31h26l30 -72c-127 -97 -148 -120 -148 -155c0 -29 28 -54 73 -54c40 0 70 19 90 38l34 -76c-24 -20 -68 -42 -121 -42c-98 0 -167 60 -167 136c0 59 37 92 123 162v4
c-39 1 -68 14 -89 31c-14 -10 -29 -19 -45 -29l-77 -47v-249h-92v201l-253 -160l-63 66l268 156c-26 74 -79 108 -135 108c-41 0 -78 -17 -108 -47l-63 73c39 34 94 62 166 62c89 0 151 -48 183 -122h4v236h-397v77h897v-77z" />
    <glyph glyph-name="uni0960" unicode="&#x960;" horiz-adv-x="849" 
d="M856 -7l35 -71c-32 -24 -86 -43 -144 -43c-102 0 -158 49 -158 116c0 51 31 78 68 89v4c-40 -1 -87 26 -87 85c0 57 46 93 107 118v4c-39 1 -68 13 -89 30c-13 -9 -29 -19 -45 -29l-77 -47v-249h-92v201l-253 -160l-63 66l268 156c-26 74 -79 108 -135 108
c-41 0 -78 -17 -108 -47l-63 73c39 34 94 62 166 62c89 0 151 -48 183 -122h4v236h-397v77h897v-77h-407v-229l34 20c82 48 105 77 105 125v11h89v-12c0 -41 -13 -74 -38 -104c16 -18 40 -31 80 -31h26l37 -80c-102 -43 -136 -64 -136 -98c0 -27 27 -39 61 -39
c25 0 49 6 70 12l21 -68c-77 -16 -134 -37 -134 -81c0 -27 23 -43 66 -43c46 0 85 19 109 37z" />
    <glyph glyph-name="uni090C" unicode="&#x90c;" horiz-adv-x="722" 
d="M532 434h4v139h-560v77h771v-77h-116v-425l-75 -44c-67 -40 -80 -56 -80 -92c0 -31 30 -70 88 -70c45 0 80 17 104 40l42 -72c-32 -27 -77 -47 -136 -47c-105 0 -185 74 -185 159c0 58 31 95 76 121l72 42v168c-13 12 -43 27 -72 27c-47 0 -76 -31 -76 -95v-87h-89v90
c0 60 -28 90 -74 90c-43 0 -81 -31 -81 -107c0 -81 42 -162 148 -215l-63 -65c-104 54 -181 159 -181 283s83 186 167 186c67 0 107 -30 125 -78h4c14 54 58 82 105 82c35 0 65 -13 82 -30z" />
    <glyph glyph-name="uni0961" unicode="&#x961;" horiz-adv-x="722" 
d="M631 573v-417c-106 -42 -151 -64 -151 -96c0 -24 24 -37 72 -37c28 0 63 7 85 14l22 -67c-79 -22 -163 -33 -163 -83c0 -23 28 -43 81 -43c56 0 100 19 128 37l34 -70c-42 -27 -96 -44 -160 -44c-116 0 -172 50 -172 117c0 35 19 64 68 85c-61 8 -87 46 -87 90
c0 55 42 95 149 137v157c-13 12 -43 27 -72 27c-47 0 -76 -31 -76 -95v-87h-89v90c0 60 -28 90 -74 90c-43 0 -81 -31 -81 -107c0 -81 42 -162 148 -215l-63 -65c-104 54 -181 159 -181 283s83 186 167 186c67 0 107 -30 125 -78h4c14 54 58 82 105 82c35 0 65 -13 82 -30h4
v139h-560v77h771v-77h-116z" />
    <glyph glyph-name="uni090F" unicode="&#x90f;" horiz-adv-x="556" 
d="M398 98c45 -39 67 -74 67 -118c0 -32 -13 -65 -30 -88h-96v6c17 20 32 47 32 75c0 24 -14 44 -35 62l-255 218v320h-105v77h605v-77h-109v-160c0 -82 -25 -130 -89 -161l-72 61c44 18 67 46 67 102v158h-202v-283z" />
    <glyph glyph-name="uni0910" unicode="&#x910;" horiz-adv-x="556" 
d="M460 650h121v-77h-109v-160c0 -82 -25 -130 -89 -161l-72 61c44 18 67 46 67 102v158h-202v-283l222 -192c45 -39 67 -74 67 -118c0 -32 -13 -65 -30 -88h-96v6c17 20 32 47 32 75c0 24 -14 44 -35 62l-255 218v320h-105v77h395c-51 39 -117 106 -160 155l-82 95l107 24z
" />
    <glyph glyph-name="uni0913" unicode="&#x913;" horiz-adv-x="1014" 
d="M914 650h125v-77h-117v-573h-94v573h-184v-573h-94v253c-15 -7 -36 -12 -61 -12c-26 0 -48 6 -67 14c1 -6 1 -12 1 -19c0 -100 -76 -178 -198 -178c-99 0 -162 51 -192 85l65 64c22 -31 65 -67 128 -67c68 0 104 42 104 94s-37 83 -106 83h-54v82h32c62 0 99 36 99 91
c0 48 -31 80 -82 80c-42 0 -69 -19 -87 -45l-63 58c28 38 81 69 153 69c105 0 170 -65 170 -155c0 -60 -35 -106 -71 -123v-4c19 -5 40 -15 58 -30c23 -13 52 -21 86 -21c39 0 66 10 85 20v234h-99v77h374c-51 39 -117 106 -160 155l-82 95l107 24z" />
    <glyph glyph-name="uni0914" unicode="&#x914;" horiz-adv-x="1014" 
d="M924 650h115v-77h-117v-573h-94v573h-184v-573h-94v253c-15 -7 -36 -12 -61 -12c-26 0 -48 6 -67 14c1 -6 1 -12 1 -19c0 -100 -76 -178 -198 -178c-99 0 -162 51 -192 85l65 64c22 -31 65 -67 128 -67c68 0 104 42 104 94s-37 83 -106 83h-54v82h32c62 0 99 36 99 91
c0 48 -31 80 -82 80c-42 0 -69 -19 -87 -45l-63 58c28 38 81 69 153 69c105 0 170 -65 170 -155c0 -60 -35 -106 -71 -123v-4c19 -5 40 -15 58 -30c23 -13 52 -21 86 -21c39 0 66 10 85 20v234h-99v77h332c-84 57 -186 134 -285 221l85 53l277 -274h4l-147 254l103 24z" />
    <glyph glyph-name="uni090D" unicode="&#x90d;" horiz-adv-x="556" 
d="M398 98c45 -39 67 -74 67 -118c0 -32 -13 -65 -30 -88h-96v6c17 20 32 47 32 75c0 24 -14 44 -35 62l-255 218v320h-105v77h605v-77h-109v-160c0 -82 -25 -130 -89 -161l-72 61c44 18 67 46 67 102v158h-202v-283zM286 745c-113 0 -182 58 -215 131l74 38
c23 -52 70 -88 141 -88c72 0 118 36 142 88l72 -38c-32 -73 -101 -131 -214 -131z" />
    <glyph glyph-name="uni0972" unicode="&#x972;" horiz-adv-x="736" 
d="M451 573v77h309v-77h-116v-573h-94v253c-15 -7 -36 -12 -61 -12c-26 0 -48 6 -67 14c1 -6 1 -12 1 -19c0 -100 -76 -178 -198 -178c-99 0 -162 51 -192 85l65 64c22 -31 65 -67 128 -67c68 0 104 42 104 94s-37 83 -106 83h-54v82h32c62 0 99 36 99 91
c0 48 -31 80 -82 80c-42 0 -69 -19 -87 -45l-63 58c28 38 81 69 153 69c105 0 170 -65 170 -155c0 -60 -35 -106 -71 -123v-4c19 -5 40 -15 58 -30c23 -13 52 -21 86 -21c39 0 66 10 85 20v234h-99zM740 914l72 -38c-32 -73 -101 -131 -214 -131s-182 58 -215 131l74 38
c23 -52 70 -88 141 -88c72 0 118 36 142 88z" />
    <glyph glyph-name="uni0911" unicode="&#x911;" horiz-adv-x="1014" 
d="M879 914l72 -38c-32 -73 -101 -131 -214 -131s-182 58 -215 131l74 38c23 -52 70 -88 141 -88c72 0 118 36 142 88zM1039 650v-77h-117v-573h-94v573h-184v-573h-94v253c-15 -7 -36 -12 -61 -12c-26 0 -48 6 -67 14c1 -6 1 -12 1 -19c0 -100 -76 -178 -198 -178
c-99 0 -162 51 -192 85l65 64c22 -31 65 -67 128 -67c68 0 104 42 104 94s-37 83 -106 83h-54v82h32c62 0 99 36 99 91c0 48 -31 80 -82 80c-42 0 -69 -19 -87 -45l-63 58c28 38 81 69 153 69c105 0 170 -65 170 -155c0 -60 -35 -106 -71 -123v-4c19 -5 40 -15 58 -30
c23 -13 52 -21 86 -21c39 0 66 10 85 20v234h-99v77h588z" />
    <glyph glyph-name="uni093E" unicode="&#x93e;" horiz-adv-x="278" 
d="M303 573h-117v-573h-94v573h-116v77h327v-77z" />
    <glyph glyph-name="uni093F" unicode="&#x93f;" horiz-adv-x="278" 
d="M91 650v90c0 113 90 198 223 198c174 0 311 -100 369 -169l-57 -64c-55 67 -172 150 -313 150c-80 0 -127 -47 -127 -119v-86h117v-77h-117v-573h-94v573h-116v77h115z" />
    <glyph glyph-name="uni0940" unicode="&#x940;" horiz-adv-x="278" 
d="M303 573h-117v-573h-94v573h-116v77h116c-6 105 -67 209 -162 209c-45 0 -72 -28 -72 -67c0 -23 9 -49 31 -70l-92 -19c-22 22 -35 56 -35 92c0 78 65 142 164 142c148 0 243 -121 258 -287h119v-77z" />
    <glyph glyph-name="uni0941" unicode="&#x941;" 
d="M-426 -63c58 -83 138 -152 243 -152c57 0 107 27 107 87c0 41 -30 70 -71 70c-40 0 -65 -20 -80 -44l-65 56c33 42 79 69 149 69c92 0 162 -58 162 -151c0 -80 -57 -167 -201 -167c-155 0 -260 100 -313 169z" />
    <glyph glyph-name="uni0942" unicode="&#x942;" 
d="M153 -263l-90 -25c-27 135 -108 228 -200 228c-45 0 -78 -29 -78 -70c0 -37 27 -67 68 -67c21 0 38 6 55 15v-84c-22 -10 -48 -12 -67 -12c-91 0 -149 65 -149 146c0 90 74 153 172 153c166 0 266 -160 289 -284z" />
    <glyph glyph-name="uni0943" unicode="&#x943;" 
d="M-32 -137l34 -72c-35 -22 -83 -37 -137 -37c-96 0 -167 52 -167 146c0 88 81 146 200 150l10 -50v-22c-81 -7 -122 -35 -122 -80c0 -40 29 -66 82 -66c39 0 77 14 100 31z" />
    <glyph glyph-name="uni0944" unicode="&#x944;" 
d="M-84 -120l13 -67c-93 -8 -129 -29 -129 -64c0 -28 25 -44 69 -44c43 0 94 14 120 35l33 -69c-36 -26 -96 -41 -153 -41c-84 0 -158 34 -158 114c0 49 35 78 73 88c-40 5 -88 35 -88 95c0 86 102 125 203 120l9 -47v-22c-86 -1 -124 -22 -124 -57s35 -47 75 -47
c21 0 42 2 57 6z" />
    <glyph glyph-name="uni0962" unicode="&#x962;" 
d="M-99 -370c0 64 44 104 137 145c1 5 1 16 1 20c0 52 -35 77 -73 77c-37 0 -73 -23 -73 -85v-33h-78v33c0 59 -25 85 -66 85c-39 0 -68 -30 -68 -85c0 -58 31 -103 75 -135l-54 -55c-53 34 -104 102 -104 189c0 98 62 159 144 159c57 0 95 -30 110 -68h4
c13 34 53 68 117 68c87 0 144 -60 144 -148c0 -20 -2 -45 -7 -70c-92 -37 -128 -59 -128 -97c0 -32 27 -48 71 -48c33 0 66 11 92 30l35 -60c-37 -28 -84 -38 -128 -38c-93 0 -151 50 -151 116z" />
    <glyph glyph-name="uni0963" unicode="&#x963;" 
d="M230 -411l35 -62c-47 -31 -90 -42 -140 -42c-86 0 -140 36 -140 97c0 31 15 57 45 72v4c-41 4 -71 33 -71 77c0 49 32 85 86 108c-14 18 -36 30 -65 30c-46 0 -87 -29 -87 -90v-29h-77v33c0 59 -25 85 -67 85c-39 0 -67 -30 -67 -85c0 -58 31 -103 75 -135l-54 -55
c-54 34 -104 102 -104 189c0 98 62 159 144 159c57 0 95 -31 110 -69h4c13 33 60 69 126 69c87 0 142 -53 154 -126c0 -5 1 -9 1 -13c-58 -18 -98 -36 -98 -71c0 -20 18 -34 47 -34c23 0 51 7 63 11l17 -60c-63 -15 -102 -28 -102 -63c0 -24 21 -36 60 -36s77 16 105 36z
" />
    <glyph glyph-name="uni0947" unicode="&#x947;" 
d="M-98 646l-76 -7l-6 4c-52 37 -124 110 -170 162l-82 95l107 24z" />
    <glyph glyph-name="uni0948" unicode="&#x948;" 
d="M-153 648l3 1l-148 255l103 24l108 -290l-69 -38c-92 58 -230 155 -361 271l85 53z" />
    <glyph glyph-name="uni094B" unicode="&#x94b;" horiz-adv-x="278" 
d="M179 650h124v-77h-117v-573h-94v573h-116v77h114c-51 39 -117 106 -160 155l-82 95l107 24z" />
    <glyph glyph-name="uni094C" unicode="&#x94c;" horiz-adv-x="278" 
d="M187 650h116v-77h-117v-573h-94v573h-116v77h70c-84 57 -186 134 -285 221l85 53l277 -274h4l-147 254l103 24z" />
    <glyph glyph-name="uni0945" unicode="&#x945;" 
d="M-139 745c-113 0 -182 58 -215 131l74 38c23 -52 70 -88 141 -88c72 0 118 36 142 88l72 -38c-32 -73 -101 -131 -214 -131z" />
    <glyph glyph-name="uni0949" unicode="&#x949;" horiz-adv-x="278" 
d="M303 573h-117v-573h-94v573h-116v77h327v-77zM140 745c-113 0 -182 58 -215 131l74 38c23 -52 70 -88 141 -88c72 0 118 36 142 88l72 -38c-32 -73 -101 -131 -214 -131z" />
    <glyph glyph-name="uni090E" unicode="&#x90e;" horiz-adv-x="556" 
d="M471 650h110v-77h-109v-160c0 -82 -25 -130 -89 -161l-72 61c44 18 67 46 67 102v158h-202v-283l222 -192c45 -39 67 -74 67 -118c0 -32 -13 -65 -30 -88h-96v6c17 20 32 47 32 75c0 24 -14 44 -35 62l-255 218v320h-105v77h400c0 37 -16 53 -53 69
c-12 6 -119 47 -152 60c-67 26 -108 68 -99 150l91 -1c-7 -51 28 -68 69 -84c29 -12 138 -55 152 -64c59 -27 86 -63 87 -130z" />
    <glyph glyph-name="uni0904" unicode="&#x904;" horiz-adv-x="736" 
d="M643 650h117v-77h-116v-573h-94v253c-15 -7 -36 -12 -61 -12c-26 0 -48 6 -67 14c1 -6 1 -12 1 -19c0 -100 -76 -178 -198 -178c-99 0 -162 51 -192 85l65 64c22 -31 65 -67 128 -67c68 0 104 42 104 94s-37 83 -106 83h-54v82h32c62 0 99 36 99 91c0 48 -31 80 -82 80
c-42 0 -69 -19 -87 -45l-63 58c28 38 81 69 153 69c105 0 170 -65 170 -155c0 -60 -35 -106 -71 -123v-4c19 -5 40 -15 58 -30c23 -13 52 -21 86 -21c39 0 66 10 85 20v234h-99v77h97c0 37 -16 53 -53 69c-12 6 -119 47 -152 60c-67 26 -108 68 -99 150l91 -1
c-7 -51 28 -68 69 -84c29 -12 138 -55 152 -64c59 -27 86 -63 87 -130z" />
    <glyph glyph-name="uni0912" unicode="&#x912;" horiz-adv-x="1014" 
d="M917 650h122v-77h-117v-573h-94v573h-184v-573h-94v253c-15 -7 -36 -12 -61 -12c-26 0 -48 6 -67 14c1 -6 1 -12 1 -19c0 -100 -76 -178 -198 -178c-99 0 -162 51 -192 85l65 64c22 -31 65 -67 128 -67c68 0 104 42 104 94s-37 83 -106 83h-54v82h32c62 0 99 36 99 91
c0 48 -31 80 -82 80c-42 0 -69 -19 -87 -45l-63 58c28 38 81 69 153 69c105 0 170 -65 170 -155c0 -60 -35 -106 -71 -123v-4c19 -5 40 -15 58 -30c23 -13 52 -21 86 -21c39 0 66 10 85 20v234h-99v77h371c0 37 -16 53 -53 69c-12 6 -119 47 -152 60c-67 26 -108 68 -99 150
l91 -1c-7 -51 28 -68 69 -84c29 -12 138 -55 152 -64c59 -27 86 -63 87 -130z" />
    <glyph glyph-name="uni0976" unicode="&#x976;" horiz-adv-x="736" 
d="M276 -150l17 62c62 -15 125 -23 191 -23s128 8 191 23l16 -62c-23 -12 -86 -38 -207 -38c-116 0 -184 26 -208 38zM451 650h309v-77h-116v-573h-94v253c-15 -7 -36 -12 -61 -12c-26 0 -48 6 -67 14c1 -6 1 -12 1 -19c0 -100 -76 -178 -198 -178c-99 0 -162 51 -192 85
l65 64c22 -31 65 -67 128 -67c68 0 104 42 104 94s-37 83 -106 83h-54v82h32c62 0 99 36 99 91c0 48 -31 80 -82 80c-42 0 -69 -19 -87 -45l-63 58c28 38 81 69 153 69c105 0 170 -65 170 -155c0 -60 -35 -106 -71 -123v-4c19 -5 40 -15 58 -30c23 -13 52 -21 86 -21
c39 0 66 10 85 20v234h-99v77z" />
    <glyph glyph-name="uni0977" unicode="&#x977;" horiz-adv-x="736" 
d="M271 -286l17 60c62 -16 125 -23 191 -23s128 7 191 23l16 -60c-23 -12 -86 -38 -207 -38c-116 0 -184 26 -208 38zM271 -141l17 60c62 -15 125 -23 191 -23s128 8 191 23l16 -60c-23 -11 -86 -37 -207 -37c-116 0 -184 26 -208 37zM451 650h309v-77h-116v-573h-94v253
c-15 -7 -36 -12 -61 -12c-26 0 -48 6 -67 14c1 -6 1 -12 1 -19c0 -100 -76 -178 -198 -178c-99 0 -162 51 -192 85l65 64c22 -31 65 -67 128 -67c68 0 104 42 104 94s-37 83 -106 83h-54v82h32c62 0 99 36 99 91c0 48 -31 80 -82 80c-42 0 -69 -19 -87 -45l-63 58
c28 38 81 69 153 69c105 0 170 -65 170 -155c0 -60 -35 -106 -71 -123v-4c19 -5 40 -15 58 -30c23 -13 52 -21 86 -21c39 0 66 10 85 20v234h-99v77z" />
    <glyph glyph-name="uni0973" unicode="&#x973;" horiz-adv-x="736" 
d="M644 650h116v-77h-116v-573h-94v253c-15 -7 -36 -12 -61 -12c-26 0 -48 6 -67 14c1 -6 1 -12 1 -19c0 -100 -76 -178 -198 -178c-99 0 -162 51 -192 85l65 64c22 -31 65 -67 128 -67c68 0 104 42 104 94s-37 83 -106 83h-54v82h32c62 0 99 36 99 91c0 48 -31 80 -82 80
c-42 0 -69 -19 -87 -45l-63 58c28 38 81 69 153 69c105 0 170 -65 170 -155c0 -60 -35 -106 -71 -123v-4c19 -5 40 -15 58 -30c23 -13 52 -21 86 -21c39 0 66 10 85 20v234h-99v77h99v166h94v-166z" />
    <glyph glyph-name="uni0974" unicode="&#x974;" horiz-adv-x="1014" 
d="M922 650h117v-77h-117v-573h-94v573h-184v-573h-94v253c-15 -7 -36 -12 -61 -12c-26 0 -48 6 -67 14c1 -6 1 -12 1 -19c0 -100 -76 -178 -198 -178c-99 0 -162 51 -192 85l65 64c22 -31 65 -67 128 -67c68 0 104 42 104 94s-37 83 -106 83h-54v82h32c62 0 99 36 99 91
c0 48 -31 80 -82 80c-42 0 -69 -19 -87 -45l-63 58c28 38 81 69 153 69c105 0 170 -65 170 -155c0 -60 -35 -106 -71 -123v-4c19 -5 40 -15 58 -30c23 -13 52 -21 86 -21c39 0 66 10 85 20v234h-99v77h377v166h94v-166z" />
    <glyph glyph-name="uni0975" unicode="&#x975;" horiz-adv-x="1014" 
d="M922 650h117v-77h-117v-573h-94v573h-184v-573h-94v253c-15 -7 -36 -12 -61 -12c-26 0 -48 6 -67 14c1 -6 1 -12 1 -19c0 -100 -76 -178 -198 -178c-99 0 -162 51 -192 85l65 64c22 -31 65 -67 128 -67c68 0 104 42 104 94s-37 83 -106 83h-54v82h32c62 0 99 36 99 91
c0 48 -31 80 -82 80c-42 0 -69 -19 -87 -45l-63 58c28 38 81 69 153 69c105 0 170 -65 170 -155c0 -60 -35 -106 -71 -123v-4c19 -5 40 -15 58 -30c23 -13 52 -21 86 -21c39 0 66 10 85 20v234h-99v77h376c-26 45 -109 58 -183 85c-66 24 -111 64 -108 141h94
c-3 -50 23 -68 68 -87c74 -33 147 -51 173 -130h6c-13 95 -145 127 -145 249c0 14 2 29 4 34h89c-2 -5 -4 -21 -4 -35c0 -102 101 -138 101 -251v-6z" />
    <glyph glyph-name="uni0946" unicode="&#x946;" 
d="M-240 719c-12 6 -119 47 -152 60c-67 26 -108 68 -99 150l91 -1c-7 -51 28 -68 69 -84c29 -12 138 -55 152 -64c59 -27 86 -63 87 -131h-95c0 38 -16 54 -53 70z" />
    <glyph glyph-name="uni094A" unicode="&#x94a;" horiz-adv-x="278" 
d="M186 650h117v-77h-117v-573h-94v573h-116v77h115c0 37 -16 53 -53 69c-12 6 -119 47 -152 60c-67 26 -108 68 -99 150l91 -1c-7 -51 28 -68 69 -84c29 -12 138 -55 152 -64c59 -27 86 -63 87 -130z" />
    <glyph glyph-name="uni0956" unicode="&#x956;" 
d="M-274 -188c-116 0 -184 26 -208 38l17 62c62 -15 125 -23 191 -23s128 8 191 23l16 -62c-23 -12 -86 -38 -207 -38z" />
    <glyph glyph-name="uni0957" unicode="&#x957;" 
d="M-274 -178c-116 0 -184 26 -208 37l17 60c62 -15 125 -23 191 -23s128 8 191 23l16 -60c-23 -11 -86 -37 -207 -37zM-274 -324c-116 0 -184 26 -208 38l17 60c62 -16 125 -23 191 -23s128 7 191 23l16 -60c-23 -12 -86 -38 -207 -38z" />
    <glyph glyph-name="uni093A" unicode="&#x93a;" 
d="M-92 628h-94v188h94v-188z" />
    <glyph glyph-name="uni093B" unicode="&#x93b;" horiz-adv-x="278" 
d="M186 650h117v-77h-117v-573h-94v573h-116v77h116v166h94v-166z" />
    <glyph glyph-name="uni094F" unicode="&#x94f;" horiz-adv-x="278" 
d="M186 650h117v-77h-117v-573h-94v573h-116v77h115c-26 45 -109 58 -183 85c-66 24 -111 64 -108 141h94c-3 -50 23 -68 68 -87c74 -33 147 -51 173 -130h6c-13 95 -145 127 -145 249c0 14 2 29 4 34h89c-2 -5 -4 -21 -4 -35c0 -102 101 -138 101 -251v-6z" />
    <glyph glyph-name="uni094E" unicode="&#x94e;" horiz-adv-x="278" 
d="M303 573h-117v-573h-94v650h211v-77z" />
    <glyph glyph-name="uni0955" unicode="&#x955;" 
d="M-139 821c-100 0 -161 52 -190 116l64 32c21 -45 63 -77 126 -77s106 32 126 77l64 -32c-29 -64 -89 -116 -190 -116zM36 715h-350v65h350v-65z" />
    <glyph glyph-name="uni0915" unicode="&#x915;" horiz-adv-x="778" 
d="M642 297c0 57 -39 96 -96 96c-66 0 -110 -48 -110 -116v-277h-93v171h-4c-19 -23 -58 -52 -124 -52c-94 0 -175 71 -175 177c0 127 106 193 217 180l15 -84c-70 13 -136 -19 -136 -96c0 -55 40 -95 98 -95c66 0 109 48 109 115v257h-367v77h827v-77h-367v-151h4
c21 24 62 52 125 52c94 0 173 -69 173 -176c0 -127 -105 -194 -216 -180l-15 84c70 -13 135 19 135 95z" />
    <glyph glyph-name="uni0916" unicode="&#x916;" horiz-adv-x="805" 
d="M625 119h-4c-39 -46 -117 -97 -233 -97c-207 0 -325 158 -348 355l81 28c12 -28 30 -47 63 -47c26 0 46 15 46 54v161h-254v77h854v-77h-116v-573h-89v119zM621 465h4v108h-304v-156c0 -88 -50 -133 -118 -133c-22 0 -36 4 -48 9c28 -118 119 -192 239 -192
c128 0 233 84 233 215c0 65 -41 101 -88 101c-48 0 -82 -33 -82 -81c0 -52 42 -87 103 -90l-50 -59c-69 6 -140 58 -140 151c0 91 70 157 158 157c48 0 75 -14 93 -30z" />
    <glyph glyph-name="uni0917" unicode="&#x917;" horiz-adv-x="568" 
d="M-24 650h616v-77h-116v-573h-93v573h-168v-378h-96c-44 34 -62 92 -63 136l66 48v194h-146v77z" />
    <glyph glyph-name="uni0918" unicode="&#x918;" horiz-adv-x="645" 
d="M458 352v221h-194c-63 0 -93 -33 -93 -76c0 -41 31 -73 100 -73h62v-77h-57c-67 0 -98 -31 -98 -75c0 -40 29 -82 110 -82c109 0 170 74 170 162zM669 650v-77h-116v-573h-95v186h-4c-25 -31 -81 -75 -181 -75c-124 0 -193 71 -193 154c0 70 49 107 90 118v4
c-53 6 -98 42 -98 104c0 41 23 66 42 78v4h-138v77h693z" />
    <glyph glyph-name="uni0919" unicode="&#x919;" horiz-adv-x="631" 
d="M559 419c32 0 56 -24 56 -56c0 -31 -24 -56 -56 -56s-56 25 -56 56c0 32 24 56 56 56zM-24 650h679v-77h-208v-164h-182c-59 0 -73 -17 -73 -48c0 -28 23 -61 58 -72l165 35c49 -20 87 -74 87 -142c0 -98 -81 -176 -206 -176c-130 0 -217 83 -264 174l66 48
c41 -84 112 -142 199 -142c69 0 116 35 116 95c0 23 -9 44 -26 57l-150 -34c-83 31 -139 102 -139 177c0 63 43 106 120 106h137v86h-379v77z" />
    <glyph glyph-name="uni091A" unicode="&#x91a;" horiz-adv-x="655" 
d="M468 179h-4c-21 -29 -74 -74 -174 -74c-120 0 -191 77 -191 165c0 61 30 93 50 108v4h-135v83h371v-82h-73c-74 0 -115 -40 -115 -100c0 -54 41 -95 112 -95c93 0 159 66 159 178v207h-492v77h703v-77h-116v-573h-95v179z" />
    <glyph glyph-name="uni091B" unicode="&#x91b;" horiz-adv-x="684" 
d="M455 486v87h-182c-65 0 -106 -39 -106 -96c0 -52 35 -88 98 -88h35v-81h-21c-64 -3 -97 -37 -97 -88c0 -57 46 -104 136 -104c126 0 230 95 230 211c0 55 -28 83 -64 83c-30 0 -53 -20 -53 -51c0 -32 21 -54 58 -61l-57 -57c-49 13 -91 56 -91 119c0 62 45 115 114 126z
M708 573h-163v-97c56 -22 91 -77 91 -150c0 -142 -127 -292 -324 -292c-146 0 -228 86 -228 182c0 74 42 113 84 129v4c-62 14 -100 62 -100 122c0 56 29 84 46 98v4h-138v77h732v-77z" />
    <glyph glyph-name="uni091C" unicode="&#x91c;" horiz-adv-x="749" 
d="M271 369v7l39 70h252v127h-586v77h797v-77h-116v-573h-95v368h-159v-4c21 -17 48 -52 48 -108c0 -86 -64 -152 -164 -152c-172 0 -248 179 -263 299l90 41c5 -123 63 -256 166 -256c48 0 78 31 78 76c0 56 -46 91 -87 105z" />
    <glyph glyph-name="uni091D" unicode="&#x91d;" horiz-adv-x="781" 
d="M222 288l168 36c11 -4 22 -11 32 -20c22 -9 57 -16 92 -16c31 0 59 5 82 14v271h-173v-165h-189c-59 0 -69 -21 -69 -51c0 -29 24 -60 57 -69zM805 650v-77h-116v-573h-93v217c-19 -4 -40 -6 -62 -6c-23 0 -46 4 -66 10c2 -11 3 -23 3 -36c0 -93 -78 -146 -162 -152v-4
l160 -103l-99 -53l-163 146c-110 2 -155 56 -155 105c0 30 16 51 36 61l138 -91h28c65 0 130 27 130 90c0 28 -14 46 -24 53l-150 -33c-82 27 -140 98 -140 177c0 63 44 104 121 104h140v88h-355v77h829z" />
    <glyph glyph-name="uni091E" unicode="&#x91e;" horiz-adv-x="718" 
d="M-24 650h766v-77h-116v-573h-94v264c-13 -1 -25 -2 -39 -1c-21 1 -42 3 -61 7c-13 -105 -100 -174 -208 -174s-185 62 -220 118l61 69c34 -54 82 -100 159 -100c60 0 114 39 114 113c0 64 -39 99 -92 103c-32 4 -63 -5 -83 -20l-35 82c27 14 62 26 108 27
c92 1 168 -49 190 -136c20 -3 41 -5 61 -5c15 0 30 1 45 3v223h-556v77z" />
    <glyph glyph-name="uni091F" unicode="&#x91f;" horiz-adv-x="514" 
d="M-24 573v77h562v-77h-136v-166l-145 -41c-99 -28 -117 -63 -117 -119c0 -62 50 -127 146 -127c71 0 121 24 164 69l50 -76c-57 -56 -130 -77 -203 -77c-148 0 -252 109 -252 229c0 92 50 145 155 176l106 32v100h-330z" />
    <glyph glyph-name="uni0920" unicode="&#x920;" horiz-adv-x="585" 
d="M336 389l-80 -22c-99 -29 -118 -64 -118 -120c0 -62 48 -127 145 -127c112 0 166 65 166 138c0 74 -66 116 -113 131zM609 573h-209v-121c68 -33 141 -95 141 -201c0 -117 -96 -215 -247 -215c-146 0 -250 104 -250 228c0 92 51 145 156 176l105 32v101h-329v77h633v-77z
" />
    <glyph glyph-name="uni0921" unicode="&#x921;" horiz-adv-x="552" 
d="M447 409h-182c-59 0 -73 -17 -73 -48c0 -28 23 -61 58 -72l165 35c49 -20 87 -74 87 -142c0 -98 -81 -176 -206 -176c-130 0 -217 83 -264 174l66 48c41 -84 112 -142 199 -142c69 0 116 35 116 95c0 23 -9 44 -26 57l-150 -34c-83 31 -139 102 -139 177
c0 63 43 106 120 106h137v86h-379v77h600v-77h-129v-164z" />
    <glyph glyph-name="uni0922" unicode="&#x922;" horiz-adv-x="538" 
d="M308 113c60 0 93 32 93 75c0 28 -20 50 -50 50c-38 0 -59 -30 -56 -67l-66 45c4 46 45 104 129 104c73 0 132 -58 132 -130c0 -88 -72 -160 -182 -160c-143 0 -264 105 -264 241c0 93 61 159 160 186l126 36v80h-354v77h587v-77h-137v-146l-168 -43
c-94 -24 -118 -66 -118 -124c0 -72 66 -147 168 -147z" />
    <glyph glyph-name="uni0923" unicode="&#x923;" horiz-adv-x="767" 
d="M333 342v231h-160v-232c0 -60 30 -90 80 -90c52 0 80 30 80 91zM791 650v-77h-116v-573h-94v573h-154v-230c0 -114 -71 -175 -175 -175c-105 0 -173 60 -173 174v231h-103v77h815z" />
    <glyph glyph-name="uni0924" unicode="&#x924;" horiz-adv-x="566" 
d="M261 49l-72 -58c-73 54 -140 147 -140 269c0 123 87 188 185 188h146v125h-404v77h615v-77h-117v-573h-94v365h-128c-62 0 -106 -36 -106 -107c0 -93 50 -162 115 -209z" />
    <glyph glyph-name="uni0925" unicode="&#x925;" horiz-adv-x="663" 
d="M201 320c-8 -2 -50 -14 -58 -15c5 -39 43 -124 152 -124c124 0 182 89 182 187v282h210v-77h-116v-573h-93v181h-4c-23 -34 -83 -85 -188 -85c-152 0 -248 109 -255 258l111 30c129 36 157 77 157 130c0 40 -22 65 -61 65c-35 0 -61 -22 -61 -60c0 -19 9 -42 24 -57
l-84 -25c-18 18 -33 48 -33 87c0 75 62 136 154 136c96 0 154 -62 154 -148c0 -98 -69 -159 -191 -192z" />
    <glyph glyph-name="uni0926" unicode="&#x926;" horiz-adv-x="533" 
d="M411 419l-150 -37c-93 -24 -124 -59 -124 -116c0 -69 59 -120 132 -119c35 1 63 10 80 25v99l65 25c27 -14 59 -42 59 -90c0 -40 -18 -67 -37 -86l115 -144l-109 -27l-71 131c-25 -10 -58 -16 -89 -16c-139 0 -239 98 -239 217c0 92 53 150 162 177l111 27v88h-340v77
h582v-77h-147v-154z" />
    <glyph glyph-name="uni0927" unicode="&#x927;" horiz-adv-x="638" 
d="M662 650v-77h-116v-573h-94v187h-4c-24 -29 -84 -74 -183 -74c-125 0 -192 72 -192 154c0 70 48 107 91 118v4c-53 6 -97 40 -97 103c0 40 23 66 43 77v4h-134v77h267l13 -73c-55 -7 -91 -36 -91 -80c0 -41 31 -71 99 -71h68v-78h-62c-68 0 -99 -30 -99 -75
c0 -39 27 -80 107 -80c112 0 175 78 175 163v217h-108v77h317z" />
    <glyph glyph-name="uni0928" unicode="&#x928;" horiz-adv-x="525" 
d="M153 223l-52 -21c-44 25 -79 79 -79 150l68 51h249v170h-363v77h573v-77h-116v-573h-94v320h-186v-97z" />
    <glyph glyph-name="uni092A" unicode="&#x92a;" horiz-adv-x="571" 
d="M384 246h-4c-26 -36 -73 -58 -132 -58c-100 0 -167 63 -167 170v215h-105v77h619v-77h-116v-573h-95v246zM384 408v165h-208v-205c0 -69 32 -97 90 -97c75 0 118 56 118 137z" />
    <glyph glyph-name="uni092B" unicode="&#x92b;" horiz-adv-x="805" 
d="M366 238h-4c-17 -24 -56 -51 -119 -51c-102 0 -162 62 -162 167v219h-105v77h853v-77h-370v-154h4c17 22 60 56 130 56c97 0 175 -69 175 -176c0 -126 -99 -200 -217 -187l-14 85c83 -16 135 33 135 101c0 57 -39 94 -96 94c-70 0 -117 -55 -117 -130v-262h-93v238z
M366 390v183h-190v-206c0 -68 26 -96 80 -96c71 0 110 49 110 119z" />
    <glyph glyph-name="uni092C" unicode="&#x92c;" horiz-adv-x="574" 
d="M335 208l-187 151c-10 -17 -15 -36 -15 -58c0 -69 49 -119 120 -119c32 0 60 10 82 26zM-24 650h623v-77h-117v-573h-95v161h-4c-23 -28 -72 -59 -143 -59c-113 0 -199 81 -199 196c0 124 101 202 207 202c26 0 48 -2 71 -8l4 -84c-22 8 -45 10 -66 10
c-26 0 -50 -7 -71 -19l186 -149c10 20 16 42 16 66v257h-412v77z" />
    <glyph glyph-name="uni092D" unicode="&#x92d;" horiz-adv-x="597" 
d="M313 650h308v-77h-116v-573h-93v283h-204v-105h-94c-44 34 -63 96 -64 140l67 48v142c0 47 -22 65 -68 65h-73v77h87c78 0 147 -36 147 -136v-147h202v206h-99v77z" />
    <glyph glyph-name="uni092E" unicode="&#x92e;" horiz-adv-x="587" 
d="M402 367v206h-192v-206h192zM-24 650h636v-77h-117v-573h-93v283h-194v-105h-94c-44 34 -63 96 -64 140l67 48v207h-141v77z" />
    <glyph glyph-name="uni092F" unicode="&#x92f;" horiz-adv-x="614" 
d="M428 194h-4c-20 -24 -68 -64 -151 -64c-124 0 -219 89 -232 240c88 18 141 49 141 112c0 31 -15 68 -39 91h-167v77h663v-77h-117v-573h-94v194zM147 331c8 -55 50 -118 139 -118c86 0 142 56 142 150v210h-192v-4c27 -26 42 -60 42 -101c0 -70 -58 -120 -131 -137z" />
    <glyph glyph-name="uni0930" unicode="&#x930;" horiz-adv-x="414" 
d="M178 271l-1 -3c21 -24 41 -46 72 -85l110 -140l-77 -49l-268 344l71 56c22 -28 48 -51 89 -51c38 0 59 17 59 61v169h-257v77h462v-77h-111v-175c0 -87 -57 -125 -123 -129c-6 0 -19 0 -26 2z" />
    <glyph glyph-name="uni0932" unicode="&#x932;" horiz-adv-x="720" 
d="M529 433h4v140h-557v77h769v-77h-117v-573h-95v352c-12 12 -41 27 -70 27c-47 0 -76 -31 -76 -95v-95h-89v97c0 60 -29 90 -75 90c-41 0 -80 -29 -80 -106c0 -83 46 -161 148 -215l-63 -65c-104 54 -182 158 -182 283c0 124 84 186 168 186c64 0 108 -30 125 -78h4
c13 54 58 82 105 82c35 0 66 -13 81 -30z" />
    <glyph glyph-name="uni0933" unicode="&#x933;" horiz-adv-x="733" 
d="M401 229l-2 -6c22 -45 53 -80 108 -80c56 0 93 47 93 122c0 70 -28 121 -85 121c-68 0 -86 -75 -114 -157zM333 302l2 7c-21 45 -55 79 -105 79c-57 0 -95 -49 -95 -122c0 -70 26 -121 83 -121c71 0 89 67 115 157zM757 573h-202v-109c84 -16 137 -91 137 -196
c0 -123 -77 -203 -183 -203c-79 0 -125 46 -145 80c-31 -49 -76 -81 -151 -81c-104 0 -169 80 -169 199c0 120 74 203 183 203c77 0 122 -46 143 -79c21 34 51 61 93 73v113h-487v77h781v-77z" />
    <glyph glyph-name="uni0935" unicode="&#x935;" horiz-adv-x="556" 
d="M464 573v-573h-95v163h-4c-20 -24 -64 -55 -136 -55c-102 0 -189 74 -189 187c0 143 125 206 244 185l7 -85c-75 20 -152 -15 -152 -99c0 -61 42 -105 107 -105c77 0 123 61 123 137v245h-393v77h604v-77h-116z" />
    <glyph glyph-name="uni0936" unicode="&#x936;" horiz-adv-x="735" 
d="M237 450l-56 -60c-59 16 -92 64 -92 125c0 79 67 145 163 145c125 0 186 -91 186 -187c0 -153 -127 -231 -267 -226l-1 -4c29 -22 61 -44 110 -89l121 -116l-79 -54l-235 226l-74 59l55 73c33 -13 72 -18 103 -18c98 0 171 55 171 148c0 72 -42 109 -87 109
s-71 -29 -71 -65c0 -29 17 -57 53 -66zM548 0v650h211v-77h-116v-573h-95z" />
    <glyph glyph-name="uni0937" unicode="&#x937;" horiz-adv-x="580" 
d="M393 241h-4c-25 -36 -76 -60 -137 -60c-101 0 -171 62 -171 170v222h-105v77h628v-77h-116v-573h-95v241zM272 261c40 0 74 15 95 44l-135 131l-65 67l5 -93v-52c0 -69 42 -97 100 -97zM396 405v168h-219l213 -208c4 12 6 25 6 40z" />
    <glyph glyph-name="uni0938" unicode="&#x938;" horiz-adv-x="691" 
d="M324 573v-181c0 -12 -1 -24 -3 -35c26 -7 58 -11 91 -11c34 0 66 5 92 14v213h-180zM-24 650h739v-77h-116v-573h-95v271c-23 -5 -50 -8 -84 -8c-52 0 -104 11 -139 27c-22 -17 -50 -26 -80 -28c-7 0 -19 0 -27 2l-1 -3c22 -24 42 -46 73 -85l109 -140l-77 -49l-265 341
l71 57c22 -26 45 -49 87 -49c37 0 59 18 59 61v176h-254v77z" />
    <glyph glyph-name="uni0939" unicode="&#x939;" horiz-adv-x="515" 
d="M433 408h-217c-43 0 -57 -19 -57 -43c0 -29 20 -57 52 -75c27 9 58 14 91 14c111 0 166 -68 166 -142c0 -50 -23 -87 -49 -113l-80 47c24 21 41 44 41 72c0 32 -27 57 -77 57c-81 0 -134 -42 -134 -99c0 -68 62 -126 268 -139l-40 -79c-191 15 -322 88 -322 222
c0 47 24 92 66 124c-45 27 -76 71 -76 125c0 63 47 107 130 107h146v87h-365v77h564v-77h-107v-165z" />
    <glyph glyph-name="uni0915093C" unicode="&#x958;" horiz-adv-x="778" 
d="M642 297c0 57 -39 96 -96 96c-66 0 -110 -48 -110 -116v-277h-93v171h-4c-19 -23 -58 -52 -124 -52c-94 0 -175 71 -175 177c0 127 106 193 217 180l15 -84c-70 13 -136 -19 -136 -96c0 -55 40 -95 98 -95c66 0 109 48 109 115v257h-367v77h827v-77h-367v-151h4
c21 24 62 52 125 52c94 0 173 -69 173 -176c0 -127 -105 -194 -216 -180l-15 84c70 -13 135 19 135 95zM80 17c0 32 23 56 55 56s56 -24 56 -56s-24 -55 -56 -55s-55 23 -55 55z" />
    <glyph glyph-name="uni0916093C" unicode="&#x959;" horiz-adv-x="805" 
d="M625 119h-4c-39 -46 -117 -97 -233 -97c-207 0 -325 158 -348 355l81 28c12 -28 30 -47 63 -47c26 0 46 15 46 54v161h-254v77h854v-77h-116v-573h-89v119zM621 465h4v108h-304v-156c0 -88 -50 -133 -118 -133c-22 0 -36 4 -48 9c28 -118 119 -192 239 -192
c128 0 233 84 233 215c0 65 -41 101 -88 101c-48 0 -82 -33 -82 -81c0 -52 42 -87 103 -90l-50 -59c-69 6 -140 58 -140 151c0 91 70 157 158 157c48 0 75 -14 93 -30zM89 -28c0 32 23 56 55 56s56 -24 56 -56s-24 -55 -56 -55s-55 23 -55 55z" />
    <glyph glyph-name="uni0917093C" unicode="&#x95a;" horiz-adv-x="568" 
d="M161 107c32 0 56 -24 56 -56s-24 -55 -56 -55s-55 23 -55 55s23 56 55 56zM-24 650h616v-77h-116v-573h-93v573h-168v-378h-96c-44 34 -62 92 -63 136l66 48v194h-146v77z" />
    <glyph glyph-name="uni0918093C" horiz-adv-x="645" 
d="M123 74c32 0 56 -24 56 -56s-24 -55 -56 -55s-55 23 -55 55s23 56 55 56zM458 352v221h-194c-63 0 -93 -33 -93 -76c0 -41 31 -73 100 -73h62v-77h-57c-67 0 -98 -31 -98 -75c0 -40 29 -82 110 -82c109 0 170 74 170 162zM669 650v-77h-116v-573h-95v186h-4
c-25 -31 -81 -75 -181 -75c-124 0 -193 71 -193 154c0 70 49 107 90 118v4c-53 6 -98 42 -98 104c0 41 23 66 42 78v4h-138v77h693z" />
    <glyph glyph-name="uni0919093C" horiz-adv-x="631" 
d="M297 -51c32 0 56 -24 56 -56s-24 -55 -56 -55s-55 23 -55 55s23 56 55 56zM559 419c32 0 56 -24 56 -56c0 -31 -24 -56 -56 -56s-56 25 -56 56c0 32 24 56 56 56zM-24 650h679v-77h-208v-164h-182c-59 0 -73 -17 -73 -48c0 -28 23 -61 58 -72l165 35
c49 -20 87 -74 87 -142c0 -98 -81 -176 -206 -176c-130 0 -217 83 -264 174l66 48c41 -84 112 -142 199 -142c69 0 116 35 116 95c0 23 -9 44 -26 57l-150 -34c-83 31 -139 102 -139 177c0 63 43 106 120 106h137v86h-379v77z" />
    <glyph glyph-name="uni091A093C" horiz-adv-x="655" 
d="M468 179h-4c-21 -29 -74 -74 -174 -74c-120 0 -191 77 -191 165c0 61 30 93 50 108v4h-135v83h371v-82h-73c-74 0 -115 -40 -115 -100c0 -54 41 -95 112 -95c93 0 159 66 159 178v207h-492v77h703v-77h-116v-573h-95v179zM70 12c0 32 23 56 55 56s56 -24 56 -56
s-24 -55 -56 -55s-55 23 -55 55z" />
    <glyph glyph-name="uni091B093C" horiz-adv-x="684" 
d="M331 -25c32 0 56 -24 56 -56s-24 -55 -56 -55s-55 23 -55 55s23 56 55 56zM455 486v87h-182c-65 0 -106 -39 -106 -96c0 -52 35 -88 98 -88h35v-81h-21c-64 -3 -97 -37 -97 -88c0 -57 46 -104 136 -104c126 0 230 95 230 211c0 55 -28 83 -64 83c-30 0 -53 -20 -53 -51
c0 -32 21 -54 58 -61l-57 -57c-49 13 -91 56 -91 119c0 62 45 115 114 126zM708 573h-163v-97c56 -22 91 -77 91 -150c0 -142 -127 -292 -324 -292c-146 0 -228 86 -228 182c0 74 42 113 84 129v4c-62 14 -100 62 -100 122c0 56 29 84 46 98v4h-138v77h732v-77z" />
    <glyph glyph-name="uni091C093C" unicode="&#x95b;" horiz-adv-x="749" 
d="M271 369v7l39 70h252v127h-586v77h797v-77h-116v-573h-95v368h-159v-4c21 -17 48 -52 48 -108c0 -86 -64 -152 -164 -152c-172 0 -248 179 -263 299l90 41c5 -123 63 -256 166 -256c48 0 78 31 78 76c0 56 -46 91 -87 105zM88 4c0 32 23 56 55 56s56 -24 56 -56
s-24 -55 -56 -55s-55 23 -55 55z" />
    <glyph glyph-name="uni091D093C" horiz-adv-x="781" 
d="M115 -31c32 0 56 -24 56 -56s-24 -55 -56 -55s-55 23 -55 55s23 56 55 56zM222 288l168 36c11 -4 22 -11 32 -20c22 -9 57 -16 92 -16c31 0 59 5 82 14v271h-173v-165h-189c-59 0 -69 -21 -69 -51c0 -29 24 -60 57 -69zM805 650v-77h-116v-573h-93v217
c-19 -4 -40 -6 -62 -6c-23 0 -46 4 -66 10c2 -11 3 -23 3 -36c0 -93 -78 -146 -162 -152v-4l160 -103l-99 -53l-163 146c-110 2 -155 56 -155 105c0 30 16 51 36 61l138 -91h28c65 0 130 27 130 90c0 28 -14 46 -24 53l-150 -33c-82 27 -140 98 -140 177
c0 63 44 104 121 104h140v88h-355v77h829z" />
    <glyph glyph-name="uni091E093C" horiz-adv-x="718" 
d="M109 47c32 0 56 -24 56 -56s-24 -55 -56 -55s-55 23 -55 55s23 56 55 56zM-24 650h766v-77h-116v-573h-94v264c-13 -1 -25 -2 -39 -1c-21 1 -42 3 -61 7c-13 -105 -100 -174 -208 -174s-185 62 -220 118l61 69c34 -54 82 -100 159 -100c60 0 114 39 114 113
c0 64 -39 99 -92 103c-32 4 -63 -5 -83 -20l-35 82c27 14 62 26 108 27c92 1 168 -49 190 -136c20 -3 41 -5 61 -5c15 0 30 1 45 3v223h-556v77z" />
    <glyph glyph-name="uni091F093C" horiz-adv-x="514" 
d="M-24 573v77h562v-77h-136v-166l-145 -41c-99 -28 -117 -63 -117 -119c0 -62 50 -127 146 -127c71 0 121 24 164 69l50 -76c-57 -56 -130 -77 -203 -77c-148 0 -252 109 -252 229c0 92 50 145 155 176l106 32v100h-330zM246 -77c0 32 23 56 55 56s56 -24 56 -56
s-24 -55 -56 -55s-55 23 -55 55z" />
    <glyph glyph-name="uni0920093C" horiz-adv-x="585" 
d="M297 -21c32 0 56 -24 56 -56s-24 -55 -56 -55s-55 23 -55 55s23 56 55 56zM336 389l-80 -22c-99 -29 -118 -64 -118 -120c0 -62 48 -127 145 -127c112 0 166 65 166 138c0 74 -66 116 -113 131zM609 573h-209v-121c68 -33 141 -95 141 -201c0 -117 -96 -215 -247 -215
c-146 0 -250 104 -250 228c0 92 51 145 156 176l105 32v101h-329v77h633v-77z" />
    <glyph glyph-name="uni0921093C" unicode="&#x95c;" horiz-adv-x="552" 
d="M296 -51c32 0 56 -24 56 -56s-24 -55 -56 -55s-55 23 -55 55s23 56 55 56zM447 409h-182c-59 0 -73 -17 -73 -48c0 -28 23 -61 58 -72l165 35c49 -20 87 -74 87 -142c0 -98 -81 -176 -206 -176c-130 0 -217 83 -264 174l66 48c41 -84 112 -142 199 -142
c69 0 116 35 116 95c0 23 -9 44 -26 57l-150 -34c-83 31 -139 102 -139 177c0 63 43 106 120 106h137v86h-379v77h600v-77h-129v-164z" />
    <glyph glyph-name="uni0922093C" unicode="&#x95d;" horiz-adv-x="538" 
d="M308 113c60 0 93 32 93 75c0 28 -20 50 -50 50c-38 0 -59 -30 -56 -67l-66 45c4 46 45 104 129 104c73 0 132 -58 132 -130c0 -88 -72 -160 -182 -160c-143 0 -264 105 -264 241c0 93 61 159 160 186l126 36v80h-354v77h587v-77h-137v-146l-168 -43
c-94 -24 -118 -66 -118 -124c0 -72 66 -147 168 -147zM244 -85c0 32 23 56 55 56s56 -24 56 -56s-24 -55 -56 -55s-55 23 -55 55z" />
    <glyph glyph-name="uni0923093C" horiz-adv-x="767" 
d="M259 81c32 0 56 -24 56 -56s-24 -55 -56 -55s-55 23 -55 55s23 56 55 56zM333 342v231h-160v-232c0 -60 30 -90 80 -90c52 0 80 30 80 91zM791 650v-77h-116v-573h-94v573h-154v-230c0 -114 -71 -175 -175 -175c-105 0 -173 60 -173 174v231h-103v77h815z" />
    <glyph glyph-name="uni0924093C" horiz-adv-x="566" 
d="M261 49l-72 -58c-73 54 -140 147 -140 269c0 123 87 188 185 188h146v125h-404v77h615v-77h-117v-573h-94v365h-128c-62 0 -106 -36 -106 -107c0 -93 50 -162 115 -209zM-22 -49c0 32 23 56 55 56s56 -24 56 -56s-24 -55 -56 -55s-55 23 -55 55z" />
    <glyph glyph-name="uni0925093C" horiz-adv-x="663" 
d="M201 320c-8 -2 -50 -14 -58 -15c5 -39 43 -124 152 -124c124 0 182 89 182 187v282h210v-77h-116v-573h-93v181h-4c-23 -34 -83 -85 -188 -85c-152 0 -248 109 -255 258l111 30c129 36 157 77 157 130c0 40 -22 65 -61 65c-35 0 -61 -22 -61 -60c0 -19 9 -42 24 -57
l-84 -25c-18 18 -33 48 -33 87c0 75 62 136 154 136c96 0 154 -62 154 -148c0 -98 -69 -159 -191 -192zM68 -11c0 32 23 56 55 56s56 -24 56 -56s-24 -55 -56 -55s-55 23 -55 55z" />
    <glyph glyph-name="uni0926093C" horiz-adv-x="533" 
d="M411 419l-150 -37c-93 -24 -124 -59 -124 -116c0 -69 59 -120 132 -119c35 1 63 10 80 25v99l65 25c27 -14 59 -42 59 -90c0 -40 -18 -67 -37 -86l115 -144l-109 -27l-71 131c-25 -10 -58 -16 -89 -16c-139 0 -239 98 -239 217c0 92 53 150 162 177l111 27v88h-340v77
h582v-77h-147v-154zM63 -30c0 32 23 56 55 56s56 -24 56 -56s-24 -55 -56 -55s-55 23 -55 55z" />
    <glyph glyph-name="uni0927093C" horiz-adv-x="638" 
d="M129 59c32 0 56 -24 56 -56s-24 -55 -56 -55s-55 23 -55 55s23 56 55 56zM662 650v-77h-116v-573h-94v187h-4c-24 -29 -84 -74 -183 -74c-125 0 -192 72 -192 154c0 70 48 107 91 118v4c-53 6 -97 40 -97 103c0 40 23 66 43 77v4h-134v77h267l13 -73
c-55 -7 -91 -36 -91 -80c0 -41 31 -71 99 -71h68v-78h-62c-68 0 -99 -30 -99 -75c0 -39 27 -80 107 -80c112 0 175 78 175 163v217h-108v77h317z" />
    <glyph glyph-name="uni0928093C" unicode="&#x929;" horiz-adv-x="525" 
d="M153 223l-52 -21c-44 25 -79 79 -79 150l68 51h249v170h-363v77h573v-77h-116v-573h-94v320h-186v-97zM53 58c0 32 23 56 55 56s56 -24 56 -56s-24 -55 -56 -55s-55 23 -55 55z" />
    <glyph glyph-name="uni092A093C" horiz-adv-x="571" 
d="M70 45c0 32 23 56 55 56s56 -24 56 -56s-24 -55 -56 -55s-55 23 -55 55zM384 246h-4c-26 -36 -73 -58 -132 -58c-100 0 -167 63 -167 170v215h-105v77h619v-77h-116v-573h-95v246zM384 408v165h-208v-205c0 -69 32 -97 90 -97c75 0 118 56 118 137z" />
    <glyph glyph-name="uni092B093C" unicode="&#x95e;" horiz-adv-x="805" 
d="M366 238h-4c-17 -24 -56 -51 -119 -51c-102 0 -162 62 -162 167v219h-105v77h853v-77h-370v-154h4c17 22 60 56 130 56c97 0 175 -69 175 -176c0 -126 -99 -200 -217 -187l-14 85c83 -16 135 33 135 101c0 57 -39 94 -96 94c-70 0 -117 -55 -117 -130v-262h-93v238z
M366 390v183h-190v-206c0 -68 26 -96 80 -96c71 0 110 49 110 119zM94 48c0 32 23 56 55 56s56 -24 56 -56s-24 -55 -56 -55s-55 23 -55 55z" />
    <glyph glyph-name="uni092C093C" horiz-adv-x="574" 
d="M98 51c32 0 56 -24 56 -56s-24 -55 -56 -55s-55 23 -55 55s23 56 55 56zM335 208l-187 151c-10 -17 -15 -36 -15 -58c0 -69 49 -119 120 -119c32 0 60 10 82 26zM-24 650h623v-77h-117v-573h-95v161h-4c-23 -28 -72 -59 -143 -59c-113 0 -199 81 -199 196
c0 124 101 202 207 202c26 0 48 -2 71 -8l4 -84c-22 8 -45 10 -66 10c-26 0 -50 -7 -71 -19l186 -149c10 20 16 42 16 66v257h-412v77z" />
    <glyph glyph-name="uni092D093C" horiz-adv-x="597" 
d="M146 95c32 0 56 -24 56 -56s-24 -55 -56 -55s-55 23 -55 55s23 56 55 56zM313 650h308v-77h-116v-573h-93v283h-204v-105h-94c-44 34 -63 96 -64 140l67 48v142c0 47 -22 65 -68 65h-73v77h87c78 0 147 -36 147 -136v-147h202v206h-99v77z" />
    <glyph glyph-name="uni092E093C" horiz-adv-x="587" 
d="M150 93c32 0 56 -24 56 -56s-24 -55 -56 -55s-55 23 -55 55s23 56 55 56zM402 367v206h-192v-206h192zM-24 650h636v-77h-117v-573h-93v283h-194v-105h-94c-44 34 -63 96 -64 140l67 48v207h-141v77z" />
    <glyph glyph-name="uni092F093C" unicode="&#x95f;" horiz-adv-x="614" 
d="M428 194h-4c-20 -24 -68 -64 -151 -64c-124 0 -219 89 -232 240c88 18 141 49 141 112c0 31 -15 68 -39 91h-167v77h663v-77h-117v-573h-94v194zM147 331c8 -55 50 -118 139 -118c86 0 142 56 142 150v210h-192v-4c27 -26 42 -60 42 -101c0 -70 -58 -120 -131 -137z
M63 26c0 32 23 56 55 56s56 -24 56 -56s-24 -55 -56 -55s-55 23 -55 55z" />
    <glyph glyph-name="uni0930093C" unicode="&#x931;" horiz-adv-x="425" 
d="M189 271l-1 -3c22 -24 42 -46 73 -85l109 -140l-77 -49l-267 344l71 56c21 -28 47 -51 89 -51c37 0 59 17 59 61v169h-269v77h473v-77h-110v-175c0 -87 -57 -125 -123 -129c-7 0 -19 0 -27 2zM-15 65c0 32 23 56 55 56s56 -24 56 -56s-24 -55 -56 -55s-55 23 -55 55z" />
    <glyph glyph-name="uni0932093C" horiz-adv-x="720" 
d="M529 433h4v140h-557v77h769v-77h-117v-573h-95v352c-12 12 -41 27 -70 27c-47 0 -76 -31 -76 -95v-95h-89v97c0 60 -29 90 -75 90c-41 0 -80 -29 -80 -106c0 -83 46 -161 148 -215l-63 -65c-104 54 -182 158 -182 283c0 124 84 186 168 186c64 0 108 -30 125 -78h4
c13 54 58 82 105 82c35 0 66 -13 81 -30zM8 -71c0 32 23 56 55 56s56 -24 56 -56s-24 -55 -56 -55s-55 23 -55 55z" />
    <glyph glyph-name="uni0933093C" unicode="&#x934;" horiz-adv-x="733" 
d="M364 26c33 0 57 -24 57 -57c0 -31 -24 -55 -57 -55c-31 0 -55 24 -55 55c0 33 24 57 55 57zM401 229l-2 -6c22 -45 53 -80 108 -80c56 0 93 47 93 122c0 70 -28 121 -85 121c-68 0 -86 -75 -114 -157zM333 302l2 7c-21 45 -55 79 -105 79c-57 0 -95 -49 -95 -122
c0 -70 26 -121 83 -121c71 0 89 67 115 157zM757 573h-202v-109c84 -16 137 -91 137 -196c0 -123 -77 -203 -183 -203c-79 0 -125 46 -145 80c-31 -49 -76 -81 -151 -81c-104 0 -169 80 -169 199c0 120 74 203 183 203c77 0 122 -46 143 -79c21 34 51 61 93 73v113h-487v77
h781v-77z" />
    <glyph glyph-name="uni0935093C" horiz-adv-x="556" 
d="M464 573v-573h-95v163h-4c-20 -24 -64 -55 -136 -55c-102 0 -189 74 -189 187c0 143 125 206 244 185l7 -85c-75 20 -152 -15 -152 -99c0 -61 42 -105 107 -105c77 0 123 61 123 137v245h-393v77h604v-77h-116zM39 1c0 32 23 56 55 56s56 -24 56 -56s-24 -55 -56 -55
s-55 23 -55 55z" />
    <glyph glyph-name="uni0936093C" horiz-adv-x="735" 
d="M237 450l-56 -60c-59 16 -92 64 -92 125c0 79 67 145 163 145c125 0 186 -91 186 -187c0 -153 -127 -231 -267 -226l-1 -4c29 -22 61 -44 110 -89l121 -116l-79 -54l-235 226l-74 59l55 73c33 -13 72 -18 103 -18c98 0 171 55 171 148c0 72 -42 109 -87 109
s-71 -29 -71 -65c0 -29 17 -57 53 -66zM548 0v650h211v-77h-116v-573h-95zM22 9c0 32 23 56 55 56s56 -24 56 -56s-24 -55 -56 -55s-55 23 -55 55z" />
    <glyph glyph-name="uni0937093C" horiz-adv-x="580" 
d="M393 241h-4c-25 -36 -76 -60 -137 -60c-101 0 -171 62 -171 170v222h-105v77h628v-77h-116v-573h-95v241zM272 261c40 0 74 15 95 44l-135 131l-65 67l5 -93v-52c0 -69 42 -97 100 -97zM396 405v168h-219l213 -208c4 12 6 25 6 40zM69 32c0 32 23 56 55 56s56 -24 56 -56
s-24 -55 -56 -55s-55 23 -55 55z" />
    <glyph glyph-name="uni0938093C" horiz-adv-x="691" 
d="M70 64c32 0 56 -24 56 -56s-24 -55 -56 -55s-55 23 -55 55s23 56 55 56zM324 573v-181c0 -12 -1 -24 -3 -35c26 -7 58 -11 91 -11c34 0 66 5 92 14v213h-180zM-24 650h739v-77h-116v-573h-95v271c-23 -5 -50 -8 -84 -8c-52 0 -104 11 -139 27c-22 -17 -50 -26 -80 -28
c-7 0 -19 0 -27 2l-1 -3c22 -24 42 -46 73 -85l109 -140l-77 -49l-265 341l71 57c22 -26 45 -49 87 -49c37 0 59 18 59 61v176h-254v77z" />
    <glyph glyph-name="uni0939093C" horiz-adv-x="515" 
d="M78 -37c32 0 56 -24 56 -56s-24 -55 -56 -55s-55 23 -55 55s23 56 55 56zM433 408h-217c-43 0 -57 -19 -57 -43c0 -29 20 -57 52 -75c27 9 58 14 91 14c111 0 166 -68 166 -142c0 -50 -23 -87 -49 -113l-80 47c24 21 41 44 41 72c0 32 -27 57 -77 57
c-81 0 -134 -42 -134 -99c0 -68 62 -126 268 -139l-40 -79c-191 15 -322 88 -322 222c0 47 24 92 66 124c-45 27 -76 71 -76 125c0 63 47 107 130 107h146v87h-365v77h564v-77h-107v-165z" />
    <glyph glyph-name="uni0915094D" horiz-adv-x="566" 
d="M343 171h-4c-19 -23 -58 -52 -124 -52c-94 0 -175 71 -175 177c0 127 106 193 217 180l15 -84c-70 13 -136 -19 -136 -96c0 -55 40 -95 98 -95c66 0 109 48 109 115v257h-367v77h628v-77h-168v-151h4c20 25 64 52 124 52c62 0 111 -26 141 -64l-59 -68
c-19 29 -51 51 -98 51c-67 0 -112 -48 -112 -116v-277h-93v171z" />
    <glyph glyph-name="uni0916094D" horiz-adv-x="583" 
d="M608 573h-287v-156c0 -88 -50 -133 -118 -133c-22 0 -36 4 -48 9c28 -119 120 -191 240 -191c129 0 232 86 232 216c0 62 -41 100 -88 100c-48 0 -82 -32 -82 -80c0 -52 42 -86 102 -89l-50 -59c-69 5 -138 56 -138 149c0 91 69 159 165 159c103 0 175 -79 175 -184
c0 -147 -123 -291 -321 -291c-206 0 -327 158 -350 354l81 28c12 -28 32 -47 65 -47c26 0 44 15 44 54v161h-254v77h632v-77z" />
    <glyph glyph-name="uni0917094D" horiz-adv-x="328" 
d="M352 650v-77h-137v-378h-96c-44 34 -62 92 -63 136l66 48v194h-146v77h376z" />
    <glyph glyph-name="uni0918094D" horiz-adv-x="380" 
d="M285 189c88 0 154 53 185 106l53 -66c-44 -61 -124 -119 -252 -119c-125 0 -193 70 -193 153c0 70 48 107 90 118v4c-53 6 -99 43 -99 105c0 41 23 67 42 79v4h-135v77h429v-77h-144c-63 0 -92 -34 -92 -77c0 -42 30 -74 99 -74h63v-78h-58c-67 0 -97 -30 -97 -75
c0 -39 28 -80 109 -80z" />
    <glyph glyph-name="uni0919094D" horiz-adv-x="631" 
d="M227 -90l75 29l156 -175v-4h-122zM559 419c32 0 56 -24 56 -56c0 -31 -24 -56 -56 -56s-56 25 -56 56c0 32 24 56 56 56zM-24 650h679v-77h-208v-164h-182c-59 0 -73 -17 -73 -48c0 -28 23 -61 58 -72l165 35c49 -20 87 -74 87 -142c0 -98 -81 -176 -206 -176
c-130 0 -217 83 -264 174l66 48c41 -84 112 -142 199 -142c69 0 116 35 116 95c0 23 -9 44 -26 57l-150 -34c-83 31 -139 102 -139 177c0 63 43 106 120 106h137v86h-379v77z" />
    <glyph glyph-name="uni091A094D" horiz-adv-x="420" 
d="M444 650v-77h-468v77h468zM298 105c-126 0 -199 77 -199 165c0 61 30 92 50 107v4h-135v84h371v-83h-73c-74 0 -115 -39 -115 -99c0 -54 43 -95 117 -95c96 0 150 61 172 103l59 -64c-44 -62 -119 -122 -247 -122z" />
    <glyph glyph-name="uni091B094D" horiz-adv-x="684" 
d="M489 306l-57 -57c-49 12 -91 56 -91 119c0 70 57 128 141 128c91 0 154 -64 154 -162c0 -143 -124 -300 -327 -300c-146 0 -225 86 -225 182c0 74 42 113 84 129v4c-62 14 -100 62 -100 122c0 56 29 84 46 98v4h-138v77h732v-77h-435c-65 0 -106 -39 -106 -96
c0 -52 35 -88 98 -88h35v-81h-20c-65 -2 -98 -36 -98 -88c0 -57 43 -104 133 -104c126 0 233 99 233 219c0 56 -29 83 -65 83c-29 0 -52 -20 -52 -51c0 -32 21 -54 58 -61z" />
    <glyph glyph-name="uni091C094D" horiz-adv-x="495" 
d="M519 650v-77h-543v77h543zM618 446v-78h-215v-4c21 -17 48 -52 48 -108c0 -86 -64 -152 -164 -152c-172 0 -248 179 -263 299l90 41c5 -123 63 -256 166 -256c48 0 78 31 78 76c0 56 -46 91 -87 105v7l39 70h308z" />
    <glyph glyph-name="uni091D094D" horiz-adv-x="546" 
d="M644 325l22 -82c-31 -18 -77 -32 -133 -32c-23 0 -44 3 -63 9c2 -11 3 -23 3 -35c0 -92 -79 -146 -164 -154l3 -3l159 -102l-101 -53l-163 146c-110 2 -155 56 -155 105c0 30 17 51 36 61l138 -91h28c66 0 130 27 130 90c0 28 -14 46 -24 53l-149 -33
c-83 27 -141 98 -141 177c0 63 44 104 120 104h142v88h-356v77h594v-77h-146v-166h-189c-58 0 -69 -20 -69 -50c0 -29 25 -60 57 -69l167 36c11 -4 23 -12 35 -22c21 -8 53 -14 88 -14c56 0 104 17 131 37z" />
    <glyph glyph-name="uni091E094D" horiz-adv-x="499" 
d="M524 650v-77h-548v77h548zM593 360l14 -83c-23 -7 -60 -14 -104 -14c-25 0 -50 2 -72 6c-12 -104 -96 -173 -207 -173c-108 0 -185 62 -220 118l61 69c34 -54 82 -100 158 -100c61 0 115 42 115 113c0 68 -44 104 -103 104c-30 0 -55 -10 -72 -20l-35 81
c27 14 63 27 108 27c96 0 169 -51 190 -136c22 -3 46 -5 67 -5c43 0 78 7 100 13z" />
    <glyph glyph-name="uni091F094D" horiz-adv-x="514" 
d="M471 -207v-4h-122l-109 150l75 29zM-24 573v77h562v-77h-136v-166l-145 -41c-99 -28 -117 -63 -117 -119c0 -62 50 -127 146 -127c71 0 121 24 164 69l50 -76c-57 -56 -130 -77 -203 -77c-148 0 -252 109 -252 229c0 92 50 145 155 176l106 32v100h-330z" />
    <glyph glyph-name="uni0920094D" horiz-adv-x="585" 
d="M255 -61l75 29l156 -175v-4h-122zM336 389l-80 -22c-99 -29 -118 -64 -118 -120c0 -62 48 -127 145 -127c112 0 166 65 166 138c0 74 -66 116 -113 131zM609 573h-209v-121c68 -33 141 -95 141 -201c0 -117 -96 -215 -247 -215c-146 0 -250 104 -250 228
c0 92 51 145 156 176l105 32v101h-329v77h633v-77z" />
    <glyph glyph-name="uni0921094D" horiz-adv-x="552" 
d="M242 -90l75 29l156 -175v-4h-122zM447 409h-182c-59 0 -73 -17 -73 -48c0 -28 23 -61 58 -72l165 35c49 -20 87 -74 87 -142c0 -98 -81 -176 -206 -176c-130 0 -217 83 -264 174l66 48c41 -84 112 -142 199 -142c69 0 116 35 116 95c0 23 -9 44 -26 57l-150 -34
c-83 31 -139 102 -139 177c0 63 43 106 120 106h137v86h-379v77h600v-77h-129v-164z" />
    <glyph glyph-name="uni0922094D" horiz-adv-x="538" 
d="M482 -221v-4h-122l-109 150l75 29zM308 113c60 0 93 32 93 75c0 28 -20 50 -50 50c-38 0 -59 -30 -56 -67l-66 45c4 46 45 104 129 104c73 0 132 -58 132 -130c0 -88 -72 -160 -182 -160c-143 0 -264 105 -264 241c0 93 61 159 160 186l126 36v80h-354v77h587v-77h-137
v-146l-168 -43c-94 -24 -118 -66 -118 -124c0 -72 66 -147 168 -147z" />
    <glyph glyph-name="uni0923094D" horiz-adv-x="494" 
d="M329 342v231h-156v-231c0 -60 27 -91 78 -91c52 0 78 31 78 91zM518 650v-77h-96v-229c0 -114 -68 -176 -172 -176c-105 0 -171 61 -171 175v230h-103v77h542z" />
    <glyph glyph-name="uni0924094D" horiz-adv-x="316" 
d="M340 650v-77h-364v77h364zM444 448v-83h-192c-62 0 -106 -36 -106 -107c0 -93 50 -162 115 -209l-72 -58c-73 54 -140 147 -140 269c0 123 87 188 185 188h210z" />
    <glyph glyph-name="uni0925094D" horiz-adv-x="443" 
d="M296 97c-154 0 -258 109 -265 257l111 30c129 37 158 78 158 130c0 40 -25 65 -63 65c-35 0 -60 -22 -60 -60c0 -19 9 -42 24 -57l-84 -25c-18 18 -33 48 -33 87c0 75 62 136 153 136c95 0 156 -62 156 -148c0 -95 -69 -158 -190 -192c-8 -2 -51 -14 -60 -15
c5 -41 51 -124 162 -124c106 0 164 60 192 110l62 -64c-41 -62 -118 -130 -263 -130z" />
    <glyph glyph-name="uni0926094D" horiz-adv-x="531" 
d="M612 -265v-4h-122l-109 150l75 29zM411 419l-150 -37c-93 -24 -124 -59 -124 -116c0 -69 59 -120 132 -119c35 1 63 10 80 25v99l65 25c27 -14 59 -42 59 -90c0 -40 -18 -67 -37 -86l115 -144l-109 -27l-71 131c-25 -10 -58 -16 -89 -16c-139 0 -239 98 -239 217
c0 92 53 150 162 177l111 27v88h-340v77h582v-77h-147v-154z" />
    <glyph glyph-name="uni0927094D" horiz-adv-x="386" 
d="M72 265c0 71 49 108 91 119v4c-52 6 -97 41 -97 103c0 41 22 67 43 78v4h-133v77h267l14 -73c-58 -7 -92 -37 -92 -80c0 -41 31 -72 98 -72h68v-78h-62c-67 0 -99 -31 -99 -76c0 -39 28 -80 108 -80c91 0 153 47 187 100l53 -62c-41 -58 -122 -117 -253 -117
c-125 0 -193 71 -193 153zM411 650v-77h-66v77h66z" />
    <glyph glyph-name="uni0928094D" horiz-adv-x="279" 
d="M303 650v-77h-327v77h327zM399 403v-83h-246v-97l-52 -21c-44 25 -79 79 -79 150l68 51h309z" />
    <glyph glyph-name="uni092A094D" horiz-adv-x="313" 
d="M254 188c-108 0 -173 65 -173 170v215h-105v77h361v-77h-161v-205c0 -69 32 -97 90 -97c68 0 112 48 135 89l57 -61c-34 -52 -93 -111 -204 -111z" />
    <glyph glyph-name="uni092B094D" horiz-adv-x="584" 
d="M573 392c-66 0 -114 -50 -114 -124v-268h-93v238h-4c-17 -24 -56 -51 -119 -51c-102 0 -162 62 -162 167v219h-105v77h632v-77h-149v-153h4c19 24 65 54 127 54c52 0 100 -22 131 -60l-57 -68c-15 27 -47 46 -91 46zM366 390v183h-190v-206c0 -68 26 -96 80 -96
c71 0 110 49 110 119z" />
    <glyph glyph-name="uni092C094D" horiz-adv-x="353" 
d="M377 650v-77h-401v77h401zM339 205l-191 154c-10 -17 -15 -36 -15 -58c0 -69 49 -119 125 -119c33 0 59 9 81 23zM411 296l64 -55c-30 -59 -101 -139 -223 -139c-117 0 -211 73 -211 196c0 124 101 202 207 202c26 0 48 -2 71 -8l4 -84c-22 8 -45 10 -66 10
c-26 0 -50 -7 -71 -20l194 -155c15 20 25 39 31 53z" />
    <glyph glyph-name="uni092D094D" horiz-adv-x="345" 
d="M370 650v-77h-57v77h57zM210 367h240v-84h-242v-105h-94c-44 34 -63 96 -64 140l67 48v142c0 47 -22 65 -68 65h-73v77h87c78 0 147 -36 147 -136v-147z" />
    <glyph glyph-name="uni092E094D" horiz-adv-x="343" 
d="M210 367h237v-84h-239v-105h-94c-44 34 -63 96 -64 140l67 48v207h-141v77h392v-77h-158v-206z" />
    <glyph glyph-name="uni092F094D" horiz-adv-x="365" 
d="M284 130c-126 0 -230 84 -243 240c88 18 141 49 141 112c0 31 -15 68 -39 91h-167v77h413v-77h-153v-4c27 -26 42 -60 42 -101c0 -70 -58 -120 -131 -137c8 -54 50 -118 143 -118c90 0 132 54 157 98l58 -61c-43 -68 -112 -120 -221 -120z" />
    <glyph glyph-name="uni0930094D" horiz-adv-x="414" 
d="M375 -248v-4h-122l-109 150l75 29zM178 271l-1 -3c21 -24 41 -46 72 -85l110 -140l-77 -49l-268 344l71 56c22 -28 48 -51 89 -51c38 0 59 17 59 61v169h-257v77h462v-77h-111v-175c0 -87 -57 -125 -123 -129c-6 0 -19 0 -26 2z" />
    <glyph glyph-name="uni0932094D" horiz-adv-x="460" 
d="M484 650v-77h-508v77h508zM214 459c64 0 108 -30 125 -78h4c13 46 54 83 118 83c63 0 106 -27 132 -55l-43 -70c-12 14 -40 40 -84 40c-48 0 -79 -32 -79 -92v-98h-89v98c0 59 -29 88 -75 88c-41 0 -80 -28 -80 -105c0 -83 46 -161 148 -215l-63 -65
c-104 54 -182 158 -182 283c0 124 84 186 168 186z" />
    <glyph glyph-name="uni0933094D" horiz-adv-x="733" 
d="M401 229l-2 -6c22 -46 53 -80 107 -80c57 0 94 47 94 122c0 70 -28 121 -85 121c-75 0 -92 -89 -114 -157zM333 302l2 7c-21 45 -55 79 -104 79c-57 0 -96 -49 -96 -122c0 -70 26 -121 83 -121c75 0 95 89 115 157zM520 467c104 0 172 -80 172 -199
c0 -123 -77 -203 -183 -203c-79 0 -125 46 -145 80c-31 -49 -76 -81 -151 -81c-103 0 -169 80 -169 199s74 203 183 203c77 0 122 -46 143 -79c30 48 75 80 150 80zM-24 650h781v-77h-781v77z" />
    <glyph glyph-name="uni0935094D" horiz-adv-x="320" 
d="M344 650v-77h-368v77h368zM239 108c-109 0 -199 73 -199 187c0 130 102 190 201 189c13 0 28 -1 43 -4l7 -85c-15 4 -28 5 -42 5c-61 1 -110 -37 -110 -104c0 -63 44 -104 108 -104c82 0 119 62 133 104l68 -56c-29 -59 -89 -132 -209 -132z" />
    <glyph glyph-name="uni0936094D" horiz-adv-x="470" 
d="M237 450l-56 -60c-59 16 -92 64 -92 125c0 79 67 145 163 145c125 0 186 -91 186 -187c0 -153 -127 -231 -267 -226l-1 -4c29 -22 61 -44 110 -89l121 -116l-79 -54l-235 226l-74 59l55 73c33 -13 72 -18 103 -18c98 0 171 55 171 148c0 72 -42 109 -87 109
s-71 -29 -71 -65c0 -29 17 -57 53 -66z" />
    <glyph glyph-name="uni0937094D" horiz-adv-x="320" 
d="M173 410v-52c0 -69 41 -97 99 -97c42 0 74 19 97 41l-138 135l-63 67zM415 365l58 -58c-35 -60 -91 -127 -217 -127c-104 0 -174 62 -174 169v224h-106v77h368v-77h-165l227 -223c4 6 7 11 9 15z" />
    <glyph glyph-name="uni0938094D" horiz-adv-x="430" 
d="M524 369l29 -81c-35 -17 -77 -27 -133 -27c-53 0 -104 11 -140 29c-19 -15 -44 -23 -70 -26c-9 -1 -25 -2 -36 0l-1 -3c22 -24 42 -46 73 -85l109 -140l-77 -49l-265 341l71 57c20 -25 45 -49 87 -49c37 0 59 18 59 61v176h-254v77h479v-77h-131v-182
c0 -12 -1 -23 -3 -33c27 -8 59 -12 91 -12c44 0 84 7 112 23z" />
    <glyph glyph-name="uni0939094D" horiz-adv-x="525" 
d="M609 220h-318c-97 0 -123 -49 -123 -89c0 -74 78 -129 256 -141l-34 -77c-180 16 -318 87 -318 221c0 45 23 92 71 125c-47 23 -80 69 -80 120c0 60 48 106 127 106h158v88h-372v77h574v-77h-110v-165h-224c-40 0 -59 -14 -59 -43c0 -25 23 -57 68 -73c21 4 45 7 72 7
h312v-79z" />
    <glyph glyph-name="uni0915093C094D" horiz-adv-x="579" 
d="M343 171h-4c-19 -23 -58 -52 -124 -52c-94 0 -175 71 -175 177c0 127 106 193 217 180l15 -84c-70 13 -136 -19 -136 -96c0 -55 40 -95 98 -95c66 0 109 48 109 115v257h-367v77h628v-77h-168v-151h4c20 25 64 52 124 52c62 0 111 -26 141 -64l-59 -68
c-19 29 -51 51 -98 51c-67 0 -112 -48 -112 -116v-277h-93v171zM80 14c0 32 23 56 55 56s56 -24 56 -56s-24 -55 -56 -55s-55 23 -55 55z" />
    <glyph glyph-name="uni0916093C094D" horiz-adv-x="590" 
d="M608 573h-287v-156c0 -88 -50 -133 -118 -133c-22 0 -36 4 -48 9c28 -119 120 -191 240 -191c129 0 232 86 232 216c0 62 -41 100 -88 100c-48 0 -82 -32 -82 -80c0 -52 42 -86 102 -89l-50 -59c-69 5 -138 56 -138 149c0 91 69 159 165 159c103 0 175 -79 175 -184
c0 -147 -123 -291 -321 -291c-206 0 -327 158 -350 354l81 28c12 -28 32 -47 65 -47c26 0 44 15 44 54v161h-254v77h632v-77zM89 -28c0 32 23 56 55 56s56 -24 56 -56s-24 -55 -56 -55s-55 23 -55 55z" />
    <glyph glyph-name="uni0917093C094D" horiz-adv-x="328" 
d="M158 89c32 0 56 -24 56 -56s-24 -55 -56 -55s-55 23 -55 55s23 56 55 56zM352 650v-77h-137v-378h-96c-44 34 -62 92 -63 136l66 48v194h-146v77h376z" />
    <glyph glyph-name="uni0918093C094D" horiz-adv-x="380" 
d="M68 18c0 32 23 56 55 56s56 -24 56 -56s-24 -55 -56 -55s-55 23 -55 55zM285 189c88 0 154 53 185 106l53 -66c-44 -61 -124 -119 -252 -119c-125 0 -193 70 -193 153c0 70 48 107 90 118v4c-53 6 -99 43 -99 105c0 41 23 67 42 79v4h-135v77h429v-77h-144
c-63 0 -92 -34 -92 -77c0 -42 30 -74 99 -74h63v-78h-58c-67 0 -97 -30 -97 -75c0 -39 28 -80 109 -80z" />
    <glyph glyph-name="uni0919093C094D" horiz-adv-x="631" 
d="M59 11c32 0 56 -24 56 -56s-24 -55 -56 -55s-55 23 -55 55s23 56 55 56zM229 -92l75 29l156 -175v-4h-122zM559 419c32 0 56 -24 56 -56c0 -31 -24 -56 -56 -56s-56 25 -56 56c0 32 24 56 56 56zM-24 650h679v-77h-208v-164h-182c-59 0 -73 -17 -73 -48
c0 -28 23 -61 58 -72l165 35c49 -20 87 -74 87 -142c0 -98 -81 -176 -206 -176c-130 0 -217 83 -264 174l66 48c41 -84 112 -142 199 -142c69 0 116 35 116 95c0 23 -9 44 -26 57l-150 -34c-83 31 -139 102 -139 177c0 63 43 106 120 106h137v86h-379v77z" />
    <glyph glyph-name="uni091A093C094D" horiz-adv-x="420" 
d="M70 12c0 32 23 56 55 56s56 -24 56 -56s-24 -55 -56 -55s-55 23 -55 55zM444 650v-77h-468v77h468zM298 105c-126 0 -199 77 -199 165c0 61 30 92 50 107v4h-135v84h371v-83h-73c-74 0 -115 -39 -115 -99c0 -54 43 -95 117 -95c96 0 150 61 172 103l59 -64
c-44 -62 -119 -122 -247 -122z" />
    <glyph glyph-name="uni091B093C094D" horiz-adv-x="684" 
d="M276 -81c0 32 23 56 55 56s56 -24 56 -56s-24 -55 -56 -55s-55 23 -55 55zM489 306l-57 -57c-49 12 -91 56 -91 119c0 70 57 128 141 128c91 0 154 -64 154 -162c0 -143 -124 -300 -327 -300c-146 0 -225 86 -225 182c0 74 42 113 84 129v4c-62 14 -100 62 -100 122
c0 56 29 84 46 98v4h-138v77h732v-77h-435c-65 0 -106 -39 -106 -96c0 -52 35 -88 98 -88h35v-81h-20c-65 -2 -98 -36 -98 -88c0 -57 43 -104 133 -104c126 0 233 99 233 219c0 56 -29 83 -65 83c-29 0 -52 -20 -52 -51c0 -32 21 -54 58 -61z" />
    <glyph glyph-name="uni091C093C094D" horiz-adv-x="495" 
d="M88 -5c0 32 23 56 55 56s56 -24 56 -56s-24 -55 -56 -55s-55 23 -55 55zM519 650v-77h-543v77h543zM618 446v-78h-215v-4c21 -17 48 -52 48 -108c0 -86 -64 -152 -164 -152c-172 0 -248 179 -263 299l90 41c5 -123 63 -256 166 -256c48 0 78 31 78 76
c0 56 -46 91 -87 105v7l39 70h308z" />
    <glyph glyph-name="uni091D093C094D" horiz-adv-x="546" 
d="M115 -31c32 0 56 -24 56 -56s-24 -55 -56 -55s-55 23 -55 55s23 56 55 56zM644 325l22 -82c-31 -18 -77 -32 -133 -32c-23 0 -44 3 -63 9c2 -11 3 -23 3 -35c0 -92 -79 -146 -164 -154l3 -3l159 -102l-101 -53l-163 146c-110 2 -155 56 -155 105c0 30 17 51 36 61
l138 -91h28c66 0 130 27 130 90c0 28 -14 46 -24 53l-149 -33c-83 27 -141 98 -141 177c0 63 44 104 120 104h142v88h-356v77h594v-77h-146v-166h-189c-58 0 -69 -20 -69 -50c0 -29 25 -60 57 -69l167 36c11 -4 23 -12 35 -22c21 -8 53 -14 88 -14c56 0 104 17 131 37z" />
    <glyph glyph-name="uni091E093C094D" horiz-adv-x="499" 
d="M524 650v-77h-548v77h548zM109 47c32 0 56 -24 56 -56s-24 -55 -56 -55s-55 23 -55 55s23 56 55 56zM593 360l14 -83c-23 -7 -60 -14 -104 -14c-25 0 -50 2 -72 6c-12 -104 -96 -173 -207 -173c-108 0 -185 62 -220 118l61 69c34 -54 82 -100 158 -100
c61 0 115 42 115 113c0 68 -44 104 -103 104c-30 0 -55 -10 -72 -20l-35 81c27 14 63 27 108 27c96 0 169 -51 190 -136c22 -3 46 -5 67 -5c43 0 78 7 100 13z" />
    <glyph glyph-name="uni091F093C094D" horiz-adv-x="514" 
d="M465 -238v-4h-122l-109 150l75 29zM-24 573v77h562v-77h-136v-166l-145 -41c-99 -28 -117 -63 -117 -119c0 -62 50 -127 146 -127c71 0 121 24 164 69l50 -76c-57 -56 -130 -77 -203 -77c-148 0 -252 109 -252 229c0 92 50 145 155 176l106 32v100h-330zM25 -36
c0 32 23 56 55 56s56 -24 56 -56s-24 -55 -56 -55s-55 23 -55 55z" />
    <glyph glyph-name="uni0920093C094D" horiz-adv-x="585" 
d="M78 26c32 0 56 -24 56 -56s-24 -55 -56 -55s-55 23 -55 55s23 56 55 56zM238 -92l75 29l156 -175v-4h-122zM336 389l-80 -22c-99 -29 -118 -64 -118 -120c0 -62 48 -127 145 -127c112 0 166 65 166 138c0 74 -66 116 -113 131zM609 573h-209v-121
c68 -33 141 -95 141 -201c0 -117 -96 -215 -247 -215c-146 0 -250 104 -250 228c0 92 51 145 156 176l105 32v101h-329v77h633v-77z" />
    <glyph glyph-name="uni0921093C094D" horiz-adv-x="552" 
d="M66 6c32 0 56 -24 56 -56s-24 -55 -56 -55s-55 23 -55 55s23 56 55 56zM231 -92l75 29l156 -175v-4h-122zM447 409h-182c-59 0 -73 -17 -73 -48c0 -28 23 -61 58 -72l165 35c49 -20 87 -74 87 -142c0 -98 -81 -176 -206 -176c-130 0 -217 83 -264 174l66 48
c41 -84 112 -142 199 -142c69 0 116 35 116 95c0 23 -9 44 -26 57l-150 -34c-83 31 -139 102 -139 177c0 63 43 106 120 106h137v86h-379v77h600v-77h-129v-164z" />
    <glyph glyph-name="uni0922093C094D" horiz-adv-x="538" 
d="M476 -238v-4h-122l-109 150l75 29zM308 113c60 0 93 32 93 75c0 28 -20 50 -50 50c-38 0 -59 -30 -56 -67l-66 45c4 46 45 104 129 104c73 0 132 -58 132 -130c0 -88 -72 -160 -182 -160c-143 0 -264 105 -264 241c0 93 61 159 160 186l126 36v80h-354v77h587v-77h-137
v-146l-168 -43c-94 -24 -118 -66 -118 -124c0 -72 66 -147 168 -147zM21 -25c0 32 23 56 55 56s56 -24 56 -56s-24 -55 -56 -55s-55 23 -55 55z" />
    <glyph glyph-name="uni0923093C094D" horiz-adv-x="494" 
d="M259 81c32 0 56 -24 56 -56s-24 -55 -56 -55s-55 23 -55 55s23 56 55 56zM329 342v231h-156v-231c0 -60 27 -91 78 -91c52 0 78 31 78 91zM518 650v-77h-96v-229c0 -114 -68 -176 -172 -176c-105 0 -171 61 -171 175v230h-103v77h542z" />
    <glyph glyph-name="uni0924093C094D" horiz-adv-x="316" 
d="M340 650v-77h-364v77h364zM444 448v-83h-192c-62 0 -106 -36 -106 -107c0 -93 50 -162 115 -209l-72 -58c-73 54 -140 147 -140 269c0 123 87 188 185 188h210zM-22 -49c0 32 23 56 55 56s56 -24 56 -56s-24 -55 -56 -55s-55 23 -55 55z" />
    <glyph glyph-name="uni0925093C094D" horiz-adv-x="443" 
d="M296 97c-154 0 -258 109 -265 257l111 30c129 37 158 78 158 130c0 40 -25 65 -63 65c-35 0 -60 -22 -60 -60c0 -19 9 -42 24 -57l-84 -25c-18 18 -33 48 -33 87c0 75 62 136 153 136c95 0 156 -62 156 -148c0 -95 -69 -158 -190 -192c-8 -2 -51 -14 -60 -15
c5 -41 51 -124 162 -124c106 0 164 60 192 110l62 -64c-41 -62 -118 -130 -263 -130zM68 -11c0 32 23 56 55 56s56 -24 56 -56s-24 -55 -56 -55s-55 23 -55 55z" />
    <glyph glyph-name="uni0926093C094D" horiz-adv-x="533" 
d="M612 -265v-4h-122l-109 150l75 29zM411 419l-150 -37c-93 -24 -124 -59 -124 -116c0 -69 59 -120 132 -119c35 1 63 10 80 25v99l65 25c27 -14 59 -42 59 -90c0 -40 -18 -67 -37 -86l115 -144l-109 -27l-71 131c-25 -10 -58 -16 -89 -16c-139 0 -239 98 -239 217
c0 92 53 150 162 177l111 27v88h-340v77h582v-77h-147v-154zM63 -30c0 32 23 56 55 56s56 -24 56 -56s-24 -55 -56 -55s-55 23 -55 55z" />
    <glyph glyph-name="uni0927093C094D" horiz-adv-x="386" 
d="M72 265c0 71 49 108 91 119v4c-52 6 -97 41 -97 103c0 41 22 67 43 78v4h-133v77h267l14 -73c-58 -7 -92 -37 -92 -80c0 -41 31 -72 98 -72h68v-78h-62c-67 0 -99 -31 -99 -76c0 -39 28 -80 108 -80c91 0 153 47 187 100l53 -62c-41 -58 -122 -117 -253 -117
c-125 0 -193 71 -193 153zM411 650v-77h-66v77h66zM74 3c0 32 23 56 55 56s56 -24 56 -56s-24 -55 -56 -55s-55 23 -55 55z" />
    <glyph glyph-name="uni0928093C094D" horiz-adv-x="279" 
d="M303 650v-77h-327v77h327zM399 403v-83h-246v-97l-52 -21c-44 25 -79 79 -79 150l68 51h309zM53 58c0 32 23 56 55 56s56 -24 56 -56s-24 -55 -56 -55s-55 23 -55 55z" />
    <glyph glyph-name="uni092A093C094D" horiz-adv-x="313" 
d="M254 188c-108 0 -173 65 -173 170v215h-105v77h361v-77h-161v-205c0 -69 32 -97 90 -97c68 0 112 48 135 89l57 -61c-34 -52 -93 -111 -204 -111zM70 45c0 32 23 56 55 56s56 -24 56 -56s-24 -55 -56 -55s-55 23 -55 55z" />
    <glyph glyph-name="uni092B093C094D" horiz-adv-x="584" 
d="M573 392c-66 0 -114 -50 -114 -124v-268h-93v238h-4c-17 -24 -56 -51 -119 -51c-102 0 -162 62 -162 167v219h-105v77h632v-77h-149v-153h4c19 24 65 54 127 54c52 0 100 -22 131 -60l-57 -68c-15 27 -47 46 -91 46zM366 390v183h-190v-206c0 -68 26 -96 80 -96
c71 0 110 49 110 119zM94 44c0 32 23 56 55 56s56 -24 56 -56s-24 -55 -56 -55s-55 23 -55 55z" />
    <glyph glyph-name="uni092C093C094D" horiz-adv-x="353" 
d="M377 650v-77h-401v77h401zM98 51c32 0 56 -24 56 -56s-24 -55 -56 -55s-55 23 -55 55s23 56 55 56zM339 205l-191 154c-10 -17 -15 -36 -15 -58c0 -69 49 -119 125 -119c33 0 59 9 81 23zM411 296l64 -55c-30 -59 -101 -139 -223 -139c-117 0 -211 73 -211 196
c0 124 101 202 207 202c26 0 48 -2 71 -8l4 -84c-22 8 -45 10 -66 10c-26 0 -50 -7 -71 -20l194 -155c15 20 25 39 31 53z" />
    <glyph glyph-name="uni092D093C094D" horiz-adv-x="345" 
d="M370 650v-77h-57v77h57zM146 95c32 0 56 -24 56 -56s-24 -55 -56 -55s-55 23 -55 55s23 56 55 56zM210 367h240v-84h-242v-105h-94c-44 34 -63 96 -64 140l67 48v142c0 47 -22 65 -68 65h-73v77h87c78 0 147 -36 147 -136v-147z" />
    <glyph glyph-name="uni092E093C094D" horiz-adv-x="343" 
d="M150 93c32 0 56 -24 56 -56s-24 -55 -56 -55s-55 23 -55 55s23 56 55 56zM210 367h237v-84h-239v-105h-94c-44 34 -63 96 -64 140l67 48v207h-141v77h392v-77h-158v-206z" />
    <glyph glyph-name="uni092F093C094D" horiz-adv-x="365" 
d="M284 130c-126 0 -230 84 -243 240c88 18 141 49 141 112c0 31 -15 68 -39 91h-167v77h413v-77h-153v-4c27 -26 42 -60 42 -101c0 -70 -58 -120 -131 -137c8 -54 50 -118 143 -118c90 0 132 54 157 98l58 -61c-43 -68 -112 -120 -221 -120zM63 26c0 32 23 56 55 56
s56 -24 56 -56s-24 -55 -56 -55s-55 23 -55 55z" />
    <glyph glyph-name="uni0930093C094D" horiz-adv-x="425" 
d="M189 271l-1 -3c22 -24 42 -46 73 -85l109 -140l-77 -49l-267 344l71 56c21 -28 47 -51 89 -51c37 0 59 17 59 61v169h-269v77h473v-77h-110v-175c0 -87 -57 -125 -123 -129c-7 0 -19 0 -27 2zM409 -238v-4h-122l-109 150l75 29zM-15 65c0 32 23 56 55 56s56 -24 56 -56
s-24 -55 -56 -55s-55 23 -55 55z" />
    <glyph glyph-name="uni0932093C094D" horiz-adv-x="460" 
d="M484 650v-77h-508v77h508zM214 459c64 0 108 -30 125 -78h4c13 46 54 83 118 83c63 0 106 -27 132 -55l-43 -70c-12 14 -40 40 -84 40c-48 0 -79 -32 -79 -92v-98h-89v98c0 59 -29 88 -75 88c-41 0 -80 -28 -80 -105c0 -83 46 -161 148 -215l-63 -65
c-104 54 -182 158 -182 283c0 124 84 186 168 186zM8 -71c0 32 23 56 55 56s56 -24 56 -56s-24 -55 -56 -55s-55 23 -55 55z" />
    <glyph glyph-name="uni0933093C094D" horiz-adv-x="733" 
d="M364 42c33 0 57 -24 57 -57c0 -32 -24 -56 -57 -56c-32 0 -56 24 -56 56c0 33 24 57 56 57zM401 229l-2 -6c22 -46 53 -80 107 -80c57 0 94 47 94 122c0 70 -28 121 -85 121c-75 0 -92 -89 -114 -157zM333 302l2 7c-21 45 -55 79 -104 79c-57 0 -96 -49 -96 -122
c0 -70 26 -121 83 -121c75 0 95 89 115 157zM520 467c104 0 172 -80 172 -199c0 -123 -77 -203 -183 -203c-79 0 -125 46 -145 80c-31 -49 -76 -81 -151 -81c-103 0 -169 80 -169 199s74 203 183 203c77 0 122 -46 143 -79c30 48 75 80 150 80zM-24 650h781v-77h-781v77z
" />
    <glyph glyph-name="uni0935093C094D" horiz-adv-x="320" 
d="M344 650v-77h-368v77h368zM239 108c-109 0 -199 73 -199 187c0 130 102 190 201 189c13 0 28 -1 43 -4l7 -85c-15 4 -28 5 -42 5c-61 1 -110 -37 -110 -104c0 -63 44 -104 108 -104c82 0 119 62 133 104l68 -56c-29 -59 -89 -132 -209 -132zM39 1c0 32 23 56 55 56
s56 -24 56 -56s-24 -55 -56 -55s-55 23 -55 55z" />
    <glyph glyph-name="uni0936093C094D" horiz-adv-x="470" 
d="M237 450l-56 -60c-59 16 -92 64 -92 125c0 79 67 145 163 145c125 0 186 -91 186 -187c0 -153 -127 -231 -267 -226l-1 -4c29 -22 61 -44 110 -89l121 -116l-79 -54l-235 226l-74 59l55 73c33 -13 72 -18 103 -18c98 0 171 55 171 148c0 72 -42 109 -87 109
s-71 -29 -71 -65c0 -29 17 -57 53 -66zM22 9c0 32 23 56 55 56s56 -24 56 -56s-24 -55 -56 -55s-55 23 -55 55z" />
    <glyph glyph-name="uni0937093C094D" horiz-adv-x="320" 
d="M124 88c32 0 56 -24 56 -56s-24 -55 -56 -55s-55 23 -55 55s23 56 55 56zM173 410v-52c0 -69 41 -97 99 -97c42 0 74 19 97 41l-138 135l-63 67zM415 365l58 -58c-35 -60 -91 -127 -217 -127c-104 0 -174 62 -174 169v224h-106v77h368v-77h-165l227 -223c4 6 7 11 9 15z
" />
    <glyph glyph-name="uni0938093C094D" horiz-adv-x="430" 
d="M70 64c32 0 56 -24 56 -56s-24 -55 -56 -55s-55 23 -55 55s23 56 55 56zM524 369l29 -81c-35 -17 -77 -27 -133 -27c-53 0 -104 11 -140 29c-19 -15 -44 -23 -70 -26c-9 -1 -25 -2 -36 0l-1 -3c22 -24 42 -46 73 -85l109 -140l-77 -49l-265 341l71 57
c20 -25 45 -49 87 -49c37 0 59 18 59 61v176h-254v77h479v-77h-131v-182c0 -12 -1 -23 -3 -33c27 -8 59 -12 91 -12c44 0 84 7 112 23z" />
    <glyph glyph-name="uni0939093C094D" horiz-adv-x="515" 
d="M78 -37c32 0 56 -24 56 -56s-24 -55 -56 -55s-55 23 -55 55s23 56 55 56zM240 -164l75 29l156 -175v-4h-122zM-24 650h564v-77h-107v-165h-217c-43 0 -57 -19 -57 -43c0 -29 20 -57 52 -75c27 9 58 14 91 14c111 0 166 -68 166 -142c0 -50 -23 -87 -49 -113l-80 47
c24 21 41 44 41 72c0 32 -27 57 -77 57c-81 0 -134 -42 -134 -99c0 -68 62 -126 268 -139l-40 -79c-191 15 -322 88 -322 222c0 47 24 92 66 124c-45 27 -76 71 -76 125c0 63 47 107 130 107h146v87h-365v77z" />
    <glyph glyph-name="uni0915094D0937" horiz-adv-x="759" 
d="M368 385c13 -2 41 -2 57 -2c50 0 109 9 148 28v239h210v-77h-115v-573h-95v321c-44 -12 -94 -17 -133 -17c-69 0 -116 9 -165 26c-99 -40 -146 -66 -146 -133c0 -55 47 -100 122 -100c36 0 68 9 84 23v93l65 21c24 -10 54 -41 54 -85c0 -39 -17 -67 -35 -83l100 -135
l-110 -24l-56 123c-24 -9 -57 -14 -88 -14c-139 0 -231 83 -231 193c0 88 76 137 152 172c-48 34 -71 80 -71 132c0 86 69 147 165 147c101 0 160 -65 160 -146c0 -59 -31 -100 -72 -125v-4zM205 512c0 -38 22 -71 64 -94c50 20 83 49 83 96c0 41 -27 69 -73 69
s-74 -28 -74 -71z" />
    <glyph glyph-name="uni091C094D091E" horiz-adv-x="712" 
d="M303 226c0 78 -97 133 -194 157v7l32 66h384v117h-549v77h761v-77h-117v-573h-95v378h-269v-4c58 -18 142 -66 142 -158c0 -89 -73 -142 -158 -140c-3 0 -8 -2 -11 -2l145 -112l-99 -45l-139 152c-82 7 -124 50 -124 99c0 30 12 52 38 67l104 -93c14 -4 29 -6 43 -6
c63 0 106 32 106 90z" />
    <glyph glyph-name="uni0915094D0937094D" horiz-adv-x="495" 
d="M653 348c-52 -25 -131 -44 -213 -44c-69 0 -116 9 -165 26c-99 -40 -146 -66 -146 -133c0 -55 47 -100 122 -100c36 0 68 9 84 23v93l65 21c24 -10 54 -41 54 -85c0 -39 -17 -67 -35 -83l100 -135l-110 -24l-56 123c-24 -9 -57 -14 -88 -14c-139 0 -231 83 -231 193
c0 88 76 137 152 172c-48 34 -71 80 -71 132c0 86 69 147 165 147c101 0 160 -65 160 -146c0 -59 -31 -100 -72 -125v-4c13 -2 41 -2 57 -2c66 0 145 14 203 49zM205 512c0 -38 22 -71 64 -94c50 20 83 49 83 96c0 41 -27 69 -73 69s-74 -28 -74 -71z" />
    <glyph glyph-name="uni091C094D091E094D" horiz-adv-x="462" 
d="M485 650v-77h-509v77h509zM567 456v-78h-311v-4c58 -18 142 -66 142 -158c0 -89 -73 -142 -158 -140c-3 0 -8 -2 -11 -2l145 -112l-99 -45l-139 152c-82 7 -124 50 -124 99c0 30 12 52 38 67l104 -93c14 -4 29 -6 43 -6c63 0 106 32 106 90c0 78 -97 133 -194 157v7
l32 66h426z" />
    <glyph glyph-name="uni097B" unicode="&#x97b;" horiz-adv-x="568" 
d="M-24 650h616v-77h-116v-588h-388v74h295v514h-168v-374h-96c-44 34 -62 91 -63 135l66 48v191h-146v77z" />
    <glyph glyph-name="uni097C" unicode="&#x97c;" horiz-adv-x="749" 
d="M-24 650h797v-77h-116v-588h-591v74h496v335h-159v-4c21 -18 48 -51 48 -107c0 -86 -64 -149 -164 -149c-172 0 -248 175 -263 295l90 41c5 -123 63 -253 166 -253c48 0 78 29 78 75c0 56 -46 89 -87 103v6l39 71h252v101h-586v77z" />
    <glyph glyph-name="uni097E" unicode="&#x97e;" horiz-adv-x="564" 
d="M304 107c-115 0 -211 44 -268 119l54 50c47 -61 122 -96 213 -96c75 0 117 30 117 77c0 18 -8 31 -19 38l-171 -29c-86 22 -132 81 -132 143c0 51 36 96 108 96h156v68h-392v77h624v-77h-142v-137h-211c-37 0 -51 -16 -51 -41c0 -22 17 -46 46 -52l195 31
c42 -16 71 -63 71 -114c0 -94 -78 -153 -198 -153zM515 59v-74h-456v74h456z" />
    <glyph glyph-name="uni097F" unicode="&#x97f;" horiz-adv-x="574" 
d="M334 232l-190 139c-9 -16 -14 -34 -14 -55c0 -68 48 -109 123 -109c31 0 59 9 81 25zM-24 650h623v-77h-117v-588h-418v74h323v127h-4c-23 -28 -72 -59 -143 -59c-113 0 -201 72 -201 186c0 124 102 195 209 195c25 0 48 -2 70 -9l5 -84c-23 8 -45 11 -67 11
c-25 0 -50 -6 -71 -17l186 -135c11 20 17 43 17 67v232h-412v77z" />
    <glyph glyph-name="uni0979" unicode="&#x979;" horiz-adv-x="749" 
d="M271 369v7l39 70h252v127h-586v77h797v-77h-116v-573h-95v368h-159v-4c21 -17 48 -52 48 -108c0 -86 -64 -152 -164 -152c-172 0 -248 179 -263 299l90 41c5 -123 63 -256 166 -256c48 0 78 31 78 76c0 56 -46 91 -87 105zM153 21c0 27 19 46 45 46c27 0 46 -19 46 -46
c0 -25 -19 -45 -46 -45c-26 0 -45 20 -45 45zM332 21c0 27 19 46 45 46c27 0 46 -19 46 -46c0 -25 -19 -45 -46 -45c-26 0 -45 20 -45 45zM244 -94c0 27 19 46 45 46c27 0 46 -19 46 -46c0 -25 -19 -45 -46 -45c-26 0 -45 20 -45 45z" />
    <glyph glyph-name="uni097A" unicode="&#x97a;" horiz-adv-x="614" 
d="M395 259l-125 167c-18 -48 -66 -82 -123 -95c8 -55 50 -118 139 -118c47 0 84 16 109 46zM428 573h-192v-1l10 -14c4 -4 7 -9 11 -14l166 -225c3 13 5 28 5 44v210zM-24 650h663v-77h-117v-573h-94v194h-4c-20 -24 -68 -64 -151 -64c-124 0 -219 89 -232 240
c88 18 141 49 141 112c0 31 -15 68 -39 91h-167v77z" />
    <glyph glyph-name="uni0978" unicode="&#x978;" horiz-adv-x="525" 
d="M550 573h-342v-170h96c108 0 175 -63 175 -165c0 -87 -42 -187 -69 -238h-102c30 55 77 157 77 237c0 56 -31 82 -87 82h-92v-100h-94c-42 33 -61 94 -62 136l65 47v171h-142v77h577v-77z" />
    <glyph glyph-name="uni200B" unicode="&#x200b;" 
 />
    <glyph glyph-name="uni200C" unicode="&#x200c;" 
d="M24 -230h-47v1041h47v-1041z" />
    <glyph glyph-name="uni200D" unicode="&#x200d;" 
d="M129 593l-33 -33l-72 75v-865h-47v865l-69 -73l-33 33l93 93l-95 95l33 33l95 -95l96 95l32 -32l-96 -96z" />
    <glyph glyph-name="uni25CC" unicode="&#x25cc;" horiz-adv-x="660" 
d="M139 517c0 25 18 44 44 44s44 -19 44 -44c0 -26 -18 -45 -44 -45s-44 19 -44 45zM57 407c0 25 20 44 46 44c24 0 44 -19 44 -44s-20 -44 -44 -44c-26 0 -46 19 -46 44zM44 281c0 26 19 45 44 45c26 0 44 -19 44 -45c0 -25 -18 -43 -44 -43c-25 0 -44 18 -44 43zM96 165
c0 25 18 44 44 44c25 0 44 -19 44 -44c0 -26 -19 -44 -44 -44c-26 0 -44 18 -44 44zM197 90c0 24 19 44 45 44c25 0 44 -20 44 -44c0 -26 -19 -46 -44 -46c-26 0 -45 20 -45 46zM324 74c0 26 18 44 44 44s45 -18 45 -44s-19 -44 -45 -44s-44 18 -44 44zM445 127
c0 25 19 44 44 44s45 -19 45 -44c0 -26 -20 -44 -45 -44s-44 18 -44 44zM518 225c0 26 19 45 45 45c24 0 43 -19 43 -45c0 -25 -19 -44 -43 -44c-26 0 -45 19 -45 44zM528 359c0 26 18 44 44 44c25 0 44 -18 44 -44s-19 -44 -44 -44c-26 0 -44 18 -44 44zM478 477
c0 26 19 45 44 45c26 0 44 -19 44 -45c0 -25 -18 -44 -44 -44c-25 0 -44 19 -44 44zM383 545c0 26 19 45 45 45c25 0 43 -19 43 -45c0 -24 -18 -44 -43 -44c-26 0 -45 20 -45 44zM257 560c0 26 18 44 44 44s44 -18 44 -44s-18 -44 -44 -44s-44 18 -44 44z" />
    <glyph glyph-name="uni20A8" unicode="&#x20a8;" horiz-adv-x="1068" 
d="M917 148c0 111 -272 68 -272 253c0 83 70 158 193 158c76 0 137 -26 172 -64l-64 -66c-24 26 -66 47 -111 47c-62 0 -92 -32 -92 -70c0 -112 273 -68 273 -254c0 -75 -62 -161 -203 -161c-100 0 -170 39 -203 73l60 72c31 -32 84 -63 148 -63c68 0 99 34 99 75zM91 701
h191c148 0 236 -58 236 -200c0 -117 -72 -181 -155 -192v-4c30 -14 55 -38 87 -94l123 -211h-121l-124 225c-22 40 -50 57 -96 57h-41v-282h-100v701zM191 614v-248h81c92 0 143 38 143 126s-52 122 -147 122h-77z" />
    <glyph glyph-name="uni20B9" unicode="&#x20b9;" horiz-adv-x="500" 
d="M308 583v-4c16 -10 37 -30 48 -63h142l-35 -75h-99c-11 -119 -125 -171 -211 -167l-1 -3c27 -26 54 -57 79 -86l149 -176v-9h-116l-170 209l-60 62l21 76c97 -24 195 -1 211 94h-225v75h219c-16 45 -58 67 -114 67h-105v75h457l-35 -75h-155z" />
    <glyph glyph-name="uni0902" unicode="&#x902;" 
d="M-204 815c0 39 28 68 64 68c38 0 66 -29 66 -68c0 -35 -28 -63 -66 -63c-36 0 -64 28 -64 63z" />
    <glyph glyph-name="uni0901" unicode="&#x901;" 
d="M-198 973c0 36 26 62 60 62s60 -26 60 -62c0 -32 -26 -58 -60 -58s-60 26 -60 58zM-139 745c-113 0 -182 58 -215 131l74 38c23 -52 70 -88 141 -88c72 0 118 36 142 88l72 -38c-32 -73 -101 -131 -214 -131z" />
    <glyph glyph-name="uni0903" unicode="&#x903;" horiz-adv-x="272" 
d="M100 460c0 39 28 67 65 67c38 0 66 -28 66 -67c0 -36 -28 -64 -66 -64c-37 0 -65 28 -65 64zM100 140c0 39 28 68 65 68c38 0 66 -29 66 -68c0 -35 -28 -63 -66 -63c-37 0 -65 28 -65 63z" />
    <glyph glyph-name="uni093D" unicode="&#x93d;" horiz-adv-x="505" 
d="M247 109c77 0 116 36 116 89c0 65 -62 92 -142 131c-70 34 -144 76 -144 171c0 91 69 150 176 150h172v-83h-163c-56 0 -88 -24 -88 -66c0 -51 58 -78 133 -115c79 -39 152 -84 152 -186c0 -98 -71 -178 -214 -178c-114 0 -193 55 -222 82l56 75c34 -33 94 -70 168 -70z
" />
    <glyph glyph-name="uni094D" unicode="&#x94d;" 
d="M57 -238v-4h-122l-109 150l75 29z" />
    <glyph glyph-name="uni093C" unicode="&#x93c;" 
d="M-333 -101c0 33 24 57 56 57c33 0 57 -24 57 -57c0 -32 -24 -56 -57 -56c-32 0 -56 24 -56 56z" />
    <glyph glyph-name="uni0950" unicode="&#x950;" horiz-adv-x="1223" 
d="M700 719c-33 0 -60 25 -60 57c0 36 27 63 60 63c35 0 60 -27 60 -63c0 -32 -25 -57 -60 -57zM845 701l74 -32c-31 -74 -109 -137 -222 -137c-114 0 -190 63 -221 137l75 33c25 -49 74 -88 146 -88c71 0 124 37 148 87zM816 240l-6 -9c23 -60 65 -103 119 -103
c64 0 114 66 114 165c0 69 -37 110 -83 110c-54 0 -86 -70 -144 -163zM385 337v-4c44 -10 74 -45 97 -90c25 -47 44 -97 110 -97c64 0 100 57 146 132c61 100 108 211 215 211c104 0 179 -77 179 -210c0 -111 -69 -233 -188 -233c-93 0 -148 54 -179 115
c-40 -55 -89 -100 -160 -100c-69 0 -110 43 -128 78c-18 -67 -83 -127 -191 -127c-104 0 -172 60 -207 112l73 58c24 -40 65 -86 136 -86s106 47 106 97c0 46 -30 85 -93 85c-6 0 -16 -1 -22 -2l-44 -6l-17 83c102 8 148 40 148 105c0 47 -31 80 -84 80
c-45 0 -72 -22 -91 -46l-62 57c30 38 84 71 157 71c102 0 172 -63 172 -157c0 -64 -36 -106 -73 -126z" />
    <glyph glyph-name="uni0970" unicode="&#x970;" horiz-adv-x="509" 
d="M170 308c0 -51 31 -88 82 -88s78 33 78 86c0 51 -31 88 -82 88s-78 -33 -78 -86zM90 305c0 98 66 160 163 160c95 0 157 -57 157 -156c0 -98 -66 -160 -163 -160c-95 0 -157 57 -157 156z" />
    <glyph glyph-name="uni0964" unicode="&#x964;" horiz-adv-x="532" 
d="M333 0h-96v651h96v-651z" />
    <glyph glyph-name="uni0965" unicode="&#x965;" horiz-adv-x="770" 
d="M328 0h-96v651h96v-651zM589 0h-96v651h96v-651z" />
    <glyph glyph-name="uni0966" unicode="&#x966;" horiz-adv-x="454" 
d="M38 346c0 118 74 200 193 200s193 -82 193 -200s-74 -200 -193 -200s-193 81 -193 200zM127 346c0 -70 38 -120 104 -120s104 50 104 120s-37 119 -104 119c-66 0 -104 -49 -104 -119z" />
    <glyph glyph-name="uni0967" unicode="&#x967;" horiz-adv-x="455" 
d="M156 505c0 -58 54 -92 110 -92c4 0 8 0 12 1c22 26 30 54 30 90c0 46 -32 76 -77 76s-75 -27 -75 -75zM82 241v56c62 28 109 51 142 72h-11c-69 0 -146 48 -146 140c0 89 67 152 163 152c97 0 167 -68 167 -158c0 -115 -72 -180 -207 -245c119 -96 158 -145 158 -200
c0 -22 -9 -44 -19 -58h-90v9c9 11 15 29 15 47c0 42 -38 79 -172 185z" />
    <glyph glyph-name="uni0968" unicode="&#x968;" horiz-adv-x="466" 
d="M119 543l-52 76c37 28 89 41 147 41c114 0 208 -71 208 -199c0 -139 -115 -206 -201 -228l159 -185l-97 -40l-136 207c-69 14 -109 58 -109 105c0 41 23 65 52 74l80 -87c76 13 159 61 159 153c0 75 -48 114 -110 114c-37 0 -71 -8 -100 -31z" />
    <glyph glyph-name="uni0969" unicode="&#x969;" horiz-adv-x="468" 
d="M261 90v-4l142 -102l-98 -51l-137 141c-88 5 -133 50 -133 97c0 31 15 52 35 64l102 -78c15 -3 26 -3 39 -3c75 0 120 34 120 90c0 53 -41 82 -112 82c-17 0 -36 -2 -53 -6l-17 80c97 5 151 41 151 102c0 48 -32 77 -86 77c-49 0 -85 -24 -103 -43l-61 70
c32 25 79 55 164 55c103 0 179 -60 179 -153c0 -71 -40 -107 -84 -128v-4c49 -9 116 -44 116 -132c0 -99 -79 -149 -164 -154z" />
    <glyph glyph-name="uni096A" unicode="&#x96a;" horiz-adv-x="511" 
d="M260 109c56 0 90 29 90 84c0 49 -39 86 -90 122c-50 -36 -89 -73 -89 -122c0 -55 34 -84 89 -84zM360 622l88 31c12 -19 20 -44 20 -83c0 -96 -67 -155 -137 -205c60 -44 112 -95 112 -173c0 -98 -72 -162 -183 -162c-110 0 -182 64 -182 162c0 78 51 129 111 173
c-70 50 -137 109 -137 205c0 39 9 64 20 83l89 -31c-8 -13 -15 -33 -15 -56c0 -66 53 -110 114 -152c61 42 114 86 114 152c0 23 -7 43 -14 56z" />
    <glyph glyph-name="uni096B" unicode="&#x96b;" horiz-adv-x="524" 
d="M521 16l-100 -11l-59 200c-28 -14 -71 -28 -122 -28c-113 0 -205 77 -205 211c0 118 46 214 82 276l87 -33c-33 -57 -74 -145 -74 -239c0 -81 43 -130 117 -130c40 0 72 13 93 29l-21 127l61 21c34 -36 74 -85 74 -131c0 -25 -6 -48 -25 -71z" />
    <glyph glyph-name="uni096C" unicode="&#x96c;" horiz-adv-x="507" 
d="M356 408l16 -80c-148 -11 -198 -60 -198 -114c0 -56 43 -90 119 -90c29 0 63 9 81 23v80l61 16c23 -15 43 -42 43 -79c0 -28 -9 -57 -27 -77l101 -146l-106 -19l-56 136c-19 -7 -59 -16 -102 -16c-112 0 -212 60 -212 173c0 74 52 125 113 148v4c-75 18 -122 72 -122 141
c0 88 73 153 205 153c58 0 109 -13 130 -23l-25 -82c-23 10 -56 21 -105 21c-57 0 -105 -20 -105 -75c0 -60 46 -97 141 -97c14 0 30 0 48 3z" />
    <glyph glyph-name="uni096D" unicode="&#x96d;" horiz-adv-x="644" 
d="M504 303v13c0 125 -52 162 -98 162c-44 0 -73 -30 -73 -84c0 -75 62 -104 123 -104c16 0 33 6 48 13zM100 641l89 -20c-28 -64 -45 -145 -45 -226c0 -156 65 -283 197 -283c75 0 135 42 155 129c-22 -10 -46 -17 -69 -17c-96 0 -184 56 -184 173c0 97 63 165 161 165
c90 0 190 -69 190 -250c0 -166 -98 -280 -245 -280c-205 0 -295 173 -295 365c0 88 19 173 46 244z" />
    <glyph glyph-name="uni096E" unicode="&#x96e;" horiz-adv-x="460" 
d="M365 593l-155 -224c-42 -62 -61 -94 -61 -147c0 -58 44 -97 125 -97c62 0 107 17 147 51l47 -76c-46 -38 -106 -61 -187 -61c-140 0 -229 73 -229 183c0 68 23 113 77 193l151 219z" />
    <glyph glyph-name="uni096F" unicode="&#x96f;" horiz-adv-x="456" 
d="M178 370h4c80 0 131 43 131 116c0 56 -40 91 -91 91c-56 0 -93 -40 -93 -94c0 -41 16 -77 49 -113zM230 313l105 -114c32 -34 55 -72 55 -116c0 -34 -11 -61 -27 -83h-99v6c18 20 30 47 30 71c0 27 -12 51 -36 77l-149 160c-52 55 -74 110 -74 169c0 100 71 178 186 178
c109 0 187 -74 187 -173c0 -119 -90 -172 -176 -175h-2z" />
    <glyph glyph-name="uni097D" unicode="&#x97d;" horiz-adv-x="467" 
d="M216 562h-135v88h132c121 0 196 -62 196 -163c0 -92 -82 -170 -127 -225c-26 -31 -32 -48 -32 -92v-170h-95v196c0 46 14 78 40 109c50 60 117 124 117 181c0 53 -35 76 -96 76z" />
    <glyph glyph-name="uni0971" unicode="&#x971;" horiz-adv-x="319" 
d="M92 610c0 39 28 68 64 68c38 0 66 -29 66 -68c0 -35 -28 -63 -66 -63c-36 0 -64 28 -64 63z" />
    <glyph glyph-name="uni0951" unicode="&#x951;" 
d="M-180 941h82v-229h-82v229z" />
    <glyph glyph-name="uni0952" unicode="&#x952;" 
d="M-81 -225h-480v74h480v-74z" />
    <glyph glyph-name="uni0953" unicode="&#x953;" 
d="M-308 897l63 50l161 -195l-63 -50z" />
    <glyph glyph-name="uni0954" unicode="&#x954;" 
d="M-39 947l62 -50l-161 -195l-62 50z" />
    <glyph glyph-name="uni0900" unicode="&#x900;" 
d="M-199 820c0 32 26 57 59 57c35 0 61 -25 61 -57c0 -37 -26 -63 -61 -63c-33 0 -59 26 -59 63zM-280 883l-73 38c32 72 101 130 215 130c113 0 181 -58 214 -130l-73 -38c-23 51 -70 88 -141 88c-72 0 -119 -37 -142 -88z" />
    <glyph glyph-name="itfLogo" horiz-adv-x="1686" 
d="M147 0v650h201v-650h-201zM389 460v190h201v-190h-201zM631 0v650h201v-650h-201zM873 460v190h201v-190h-201zM1115 0v650h201v-650h-201zM1357 460v190h201v-190h-201zM1357 230v190h201v-190h-201z" />
    <glyph glyph-name="uni0930094D.2" 
d="M-82 839c-47 0 -78 -32 -78 -77c0 -50 34 -90 78 -112v-4h-105v8c-30 20 -61 61 -61 121c0 85 73 146 155 146c51 0 83 -13 102 -24l-28 -77c-17 12 -38 19 -63 19z" />
    <glyph glyph-name="uni0930094D.1" horiz-adv-x="194" 
d="M218 573h-242v77h242v-77zM285 393l23 -80c-37 -20 -97 -44 -174 -44c-82 0 -140 34 -163 55l31 65c24 -18 64 -41 130 -41c61 0 113 22 153 45z" />
    <glyph glyph-name="uni094D0930" 
d="M-29 -180l-110 137l-113 -137l-106 27l161 160h115l159 -163z" />
    <glyph glyph-name="uni0915094D0930" horiz-adv-x="788" 
d="M353 169h-4l-234 -174l-75 67l138 78v4c-60 9 -128 63 -128 161c0 116 103 187 217 174l15 -84c-84 14 -136 -28 -136 -95c0 -56 40 -96 98 -96c64 0 109 47 109 116v253h-377v77h836v-77h-366v-151h4c20 24 61 52 124 52c95 0 174 -69 174 -176
c0 -124 -101 -193 -216 -180l-15 84c83 -14 135 29 135 95c0 57 -39 96 -96 96c-66 0 -110 -48 -110 -116v-277h-93v169z" />
    <glyph glyph-name="uni0916094D0930" horiz-adv-x="815" 
d="M630 120c-32 -30 -83 -66 -188 -106l-261 -98l-71 76l216 60v4c-99 9 -240 90 -275 330l79 28c12 -28 30 -48 63 -48c26 0 46 16 46 55v152h-255v77h855v-77h-117v-573h-88v120h-4zM630 470h4v103h-304v-151c0 -83 -47 -126 -114 -126c-22 0 -37 4 -48 8
c25 -120 123 -191 239 -191c127 0 233 75 233 205c0 67 -42 105 -92 105s-85 -32 -85 -81c0 -52 40 -85 100 -88l-47 -59c-68 5 -140 56 -140 149c0 91 73 157 161 157c45 0 72 -13 93 -31z" />
    <glyph glyph-name="uni0917094D0930" horiz-adv-x="571" 
d="M386 0v160h-4l-235 -181l-81 62l320 216v316h-168v-345h-96c-43 33 -58 89 -59 127l62 45v173h-149v77h619v-77h-116v-573h-93z" />
    <glyph glyph-name="uni0918094D0930" horiz-adv-x="644" 
d="M458 272v301h-196c-63 0 -91 -33 -91 -76c0 -41 31 -73 100 -73h62v-78h-57c-67 0 -97 -30 -97 -73c0 -41 30 -82 110 -82c82 0 149 49 169 81zM-24 650h693v-77h-116v-573h-95v172h-4l-293 -194l-80 69l150 80v4c-81 0 -150 53 -150 137c0 67 49 103 89 115v4
c-53 6 -98 42 -98 104c0 41 23 66 42 78v4h-138v77z" />
    <glyph glyph-name="uni0919094D0930" horiz-adv-x="631" 
d="M559 419c32 0 56 -24 56 -56c0 -31 -24 -56 -56 -56s-56 25 -56 56c0 32 24 56 56 56zM-24 650h679v-77h-208v-164h-182c-59 0 -73 -17 -73 -48c0 -28 23 -61 58 -72l165 35c49 -20 87 -74 87 -142c0 -78 -51 -143 -134 -166l143 -147l-105 -24l-111 137l-113 -137
l-106 27l145 144c-89 25 -152 92 -189 164l66 48c41 -84 112 -142 199 -142c69 0 116 35 116 95c0 23 -9 44 -26 57l-150 -34c-83 31 -139 102 -139 177c0 63 43 106 120 106h137v86h-379v77z" />
    <glyph glyph-name="uni091A094D0930" horiz-adv-x="655" 
d="M464 163l-312 -176l-79 69l158 72v4c-65 9 -127 57 -127 141c0 58 33 90 51 105v4h-136v83h376v-82h-75c-75 0 -118 -38 -118 -99c0 -56 40 -96 116 -96c78 0 134 47 150 70v315h-492v77h703v-77h-116v-573h-95v163h-4z" />
    <glyph glyph-name="uni091B094D0930" horiz-adv-x="684" 
d="M455 486v87h-182c-65 0 -106 -39 -106 -96c0 -52 35 -88 98 -88h35v-81h-21c-64 -3 -97 -37 -97 -88c0 -57 46 -104 136 -104c126 0 230 95 230 211c0 55 -28 83 -64 83c-30 0 -53 -20 -53 -51c0 -32 21 -54 58 -61l-57 -57c-49 13 -91 56 -91 119c0 62 45 115 114 126z
M708 573h-163v-97c56 -22 91 -77 91 -150c0 -116 -84 -237 -223 -278l147 -149l-105 -24l-110 137l-114 -137l-105 27l136 136c-114 17 -178 93 -178 178c0 74 42 113 84 129v4c-62 14 -100 62 -100 122c0 56 29 84 46 98v4h-138v77h732v-77z" />
    <glyph glyph-name="uni091C094D0930" horiz-adv-x="751" 
d="M273 407v7l39 70h252v89h-588v77h799v-77h-116v-573h-95v124h-4l-263 -178l-81 62l348 208v190h-157v-4c18 -17 45 -48 45 -101c0 -82 -66 -147 -165 -147c-169 0 -248 165 -261 287l90 41c5 -123 64 -245 165 -245c51 0 79 31 79 73c0 57 -47 87 -87 97z" />
    <glyph glyph-name="uni091D094D0930" horiz-adv-x="867" 
d="M689 142h-4l-140 -150l-81 47l228 204l-1 3c-42 -23 -99 -33 -146 -33c-28 0 -56 4 -78 10c4 -11 6 -24 6 -38c0 -92 -79 -146 -163 -154l1 -3l162 -104l-104 -55l-162 149c-110 2 -155 57 -155 106c0 28 15 52 35 62l139 -92h28c67 0 130 27 130 90c0 28 -14 46 -24 53
l-149 -33c-83 27 -141 98 -141 177c0 63 44 104 121 104h141v88h-356v77h915v-77h-112v-586h-91zM687 573h-262v-166h-189c-59 0 -69 -20 -69 -50c0 -29 24 -60 57 -69l163 35c29 -14 77 -33 142 -33c53 0 112 10 158 42v241z" />
    <glyph glyph-name="uni091E094D0930" horiz-adv-x="736" 
d="M760 650v-77h-116v-573h-95v130h-4l-256 -187l-83 64l353 222v4c-9 1 -18 3 -27 5c-38 6 -81 19 -107 32c-30 -66 -103 -108 -189 -108c-110 0 -187 65 -221 119l66 64c31 -52 84 -98 155 -98c62 0 111 37 111 99c0 63 -46 91 -95 91c-31 0 -58 -10 -77 -24l-39 80
c30 17 71 31 119 31c93 0 171 -60 183 -152c0 -7 0 -13 1 -19c30 -17 73 -30 110 -37v257h-573v77h784z" />
    <glyph glyph-name="uni091F094D0930" horiz-adv-x="514" 
d="M402 407l-145 -41c-99 -28 -117 -63 -117 -119c0 -62 50 -127 146 -127c71 0 121 24 164 69l50 -76c-38 -37 -83 -59 -130 -69l140 -143l-105 -25l-110 138l-114 -138l-106 27l145 144c-106 30 -175 120 -175 218c0 92 50 145 155 176l106 32v100h-330v77h562v-77h-136
v-166z" />
    <glyph glyph-name="uni0920094D0930" horiz-adv-x="585" 
d="M336 389l-80 -22c-99 -29 -118 -64 -118 -120c0 -62 48 -127 145 -127c112 0 166 65 166 138c0 74 -66 116 -113 131zM609 573h-209v-121c68 -33 141 -95 141 -201c0 -95 -63 -177 -167 -205l146 -149l-106 -24l-110 137l-113 -137l-106 27l145 143
c-112 25 -186 116 -186 221c0 92 51 145 156 176l105 32v101h-329v77h633v-77z" />
    <glyph glyph-name="uni0921094D0930" horiz-adv-x="552" 
d="M447 409h-182c-59 0 -73 -17 -73 -48c0 -28 23 -61 58 -72l165 35c49 -20 87 -74 87 -142c0 -77 -50 -142 -132 -166l143 -147l-106 -24l-110 137l-113 -137l-106 27l144 144c-90 24 -152 91 -190 164l66 48c41 -84 112 -142 199 -142c69 0 116 35 116 95
c0 23 -9 44 -26 57l-150 -34c-83 31 -139 102 -139 177c0 63 43 106 120 106h137v86h-379v77h600v-77h-129v-164z" />
    <glyph glyph-name="uni0922094D0930" horiz-adv-x="538" 
d="M426 427l-168 -43c-94 -24 -118 -66 -118 -124c0 -72 66 -147 168 -147c60 0 93 32 93 75c0 28 -20 50 -50 50c-38 0 -59 -30 -56 -67l-66 45c4 46 45 104 129 104c73 0 132 -58 132 -130c0 -71 -47 -132 -124 -153l144 -147l-105 -24l-111 137l-113 -137l-106 27
l150 149c-104 32 -181 120 -181 229c0 93 61 159 160 186l126 36v80h-354v77h587v-77h-137v-146z" />
    <glyph glyph-name="uni0923094D0930" horiz-adv-x="766" 
d="M337 361v212h-161v-213c0 -60 30 -90 81 -90c52 0 80 31 80 91zM-24 650h815v-77h-117v-573h-93v159h-4l-273 -182l-82 62l358 211v323h-149v-210c0 -114 -71 -176 -175 -176c-105 0 -174 61 -174 174v212h-106v77z" />
    <glyph glyph-name="uni0924094D0930" horiz-adv-x="569" 
d="M382 226h-4l-248 -171l-69 71l269 169c-20 48 -64 97 -139 97c-44 0 -82 -16 -118 -47l-63 79c40 32 96 60 170 60c114 0 173 -69 199 -120h4v209h-407v77h618v-77h-117v-573h-95v226z" />
    <glyph glyph-name="uni0925094D0930" horiz-adv-x="671" 
d="M40 354l110 30c130 36 158 77 158 130c0 40 -23 65 -62 65c-35 0 -61 -22 -61 -60c0 -19 10 -42 25 -57l-85 -25c-17 18 -32 48 -32 87c0 75 62 136 153 136c96 0 155 -62 155 -148c0 -96 -67 -157 -185 -191c-10 -2 -54 -14 -65 -16c5 -41 43 -123 160 -123
c95 0 158 57 175 95v373h210v-77h-116v-573h-93v160h-4l-329 -189l-82 69l155 77v4c-87 11 -178 88 -187 233z" />
    <glyph glyph-name="uni0926094D0930" horiz-adv-x="539" 
d="M226 77v4c-102 8 -180 93 -180 200c0 93 51 148 162 177l111 29v86h-343v77h587v-77h-149v-152l-152 -38c-94 -24 -122 -58 -122 -118c0 -66 54 -116 129 -116c37 0 63 9 82 25v100l65 24c28 -14 59 -42 59 -90c0 -43 -18 -65 -37 -85l112 -143l-109 -27l-66 129
l-241 -170l-80 68z" />
    <glyph glyph-name="uni0927094D0930" horiz-adv-x="645" 
d="M459 174h-4l-291 -196l-80 69l150 80v4c-83 -1 -155 48 -155 134c0 73 49 108 90 118v4c-52 7 -97 41 -97 104c0 40 24 67 44 78v4h-140v77h273l13 -73c-56 -7 -91 -37 -91 -81c0 -41 31 -72 99 -72h68v-78h-63c-68 0 -98 -29 -98 -75c0 -41 31 -79 112 -79
c89 0 150 55 170 83v298h-103v77h313v-77h-116v-573h-94v174z" />
    <glyph glyph-name="uni0928094D0930" horiz-adv-x="585" 
d="M324 283c-15 61 -65 111 -136 111c-12 0 -27 0 -39 -5v-67l-51 -20c-34 22 -63 60 -66 115l60 49c21 8 58 12 80 12c111 0 192 -61 223 -151h4v246h-423v77h634v-77h-117v-573h-94v232h-4l-245 -178l-75 64z" />
    <glyph glyph-name="uni092A094D0930" horiz-adv-x="588" 
d="M255 210v4c-89 -2 -162 41 -162 151v208h-117v77h637v-77h-117v-573h-95v227h-4l-262 -241l-91 54zM401 333v240h-214v-192c0 -67 29 -97 93 -97c49 0 99 25 121 49z" />
    <glyph glyph-name="uni092B094D0930" horiz-adv-x="820" 
d="M217 192v4c-72 9 -124 57 -124 151v226h-117v77h868v-77h-374v-153h4c18 22 60 56 131 56c96 0 174 -70 174 -176c0 -126 -99 -200 -216 -188l-15 85c84 -16 135 33 135 101c0 57 -38 95 -96 95c-70 0 -117 -55 -117 -130v-263h-93v225h-4l-243 -232l-88 61zM271 265
c52 0 92 33 106 61v247h-190v-210c0 -69 28 -98 84 -98z" />
    <glyph glyph-name="uni092C094D0930" horiz-adv-x="580" 
d="M196 124v4c-59 12 -139 67 -139 181c0 118 99 196 207 196c26 0 48 -2 71 -8l4 -84c-22 8 -46 10 -67 10c-25 0 -50 -7 -70 -19l194 -158l8 6v321h-428v77h628v-77h-106v-573h-95v156h-4l-261 -172l-78 67zM273 185c33 0 58 9 81 25l-190 153c-10 -16 -15 -36 -15 -58
c0 -72 54 -120 124 -120z" />
    <glyph glyph-name="uni092D094D0930" horiz-adv-x="599" 
d="M58 344l63 47v117c0 47 -21 65 -68 65h-77v77h90c78 0 148 -36 148 -136v-121h200v180h-98v77h308v-77h-116v-573h-94v187h-4l-252 -203l-79 62l346 243v20h-211v-89h-96c-37 27 -59 83 -60 124z" />
    <glyph glyph-name="uni092E094D0930" horiz-adv-x="590" 
d="M214 309v-89h-96c-37 27 -59 83 -60 124l63 47v182h-145v77h638v-77h-112v-573h-93v185h-4l-248 -201l-79 62l341 243v20h-205zM409 573h-195v-180h195v180z" />
    <glyph glyph-name="uni092F094D0930" horiz-adv-x="618" 
d="M227 147v4c-88 11 -171 81 -181 220c86 20 140 49 140 111c0 31 -15 68 -39 91h-171v77h666v-77h-116v-573h-94v179h-4l-295 -198l-81 68zM150 334c9 -56 48 -121 144 -121c70 0 122 41 139 70v290h-192v-4c27 -27 41 -61 41 -101c0 -72 -57 -117 -132 -134z" />
    <glyph glyph-name="uni0932094D0930" horiz-adv-x="720" 
d="M264 71l-70 -62c-85 57 -148 152 -148 264c0 124 84 186 168 186c64 0 108 -30 125 -78h4c13 54 58 82 105 82c35 0 67 -13 82 -30h4v140h-558v77h769v-77h-117v-586h-91v130h-4l-166 -135l-74 54l242 178v138c-13 12 -43 27 -72 27c-47 0 -76 -31 -76 -95v-87h-89v89
c0 60 -29 90 -75 90c-41 0 -80 -29 -80 -106c0 -76 39 -147 121 -199z" />
    <glyph glyph-name="uni0933094D0930" horiz-adv-x="733" 
d="M401 229l-2 -6c22 -45 53 -80 108 -80c56 0 93 47 93 122c0 70 -28 121 -85 121c-68 0 -86 -75 -114 -157zM333 302l2 7c-21 45 -55 79 -105 79c-57 0 -95 -49 -95 -122c0 -70 26 -121 83 -121c71 0 89 67 115 157zM757 573h-202v-109c84 -16 137 -91 137 -196
c0 -91 -42 -158 -106 -187l152 -155l-106 -24l-110 137l-113 -137l-106 27l147 146c-43 15 -71 45 -86 70c-31 -49 -76 -81 -151 -81c-104 0 -169 80 -169 199c0 120 74 203 183 203c77 0 122 -46 143 -79c21 34 51 61 93 73v113h-487v77h781v-77z" />
    <glyph glyph-name="uni0935094D0930" horiz-adv-x="574" 
d="M387 160h-4l-245 -172l-83 68l134 73v4c-59 11 -131 69 -131 170c0 133 121 203 244 181l8 -85c-66 20 -153 -10 -153 -96c0 -62 45 -106 111 -106c64 0 108 38 119 67v309h-411v77h622v-77h-116v-573h-95v160z" />
    <glyph glyph-name="uni0937094D0930" horiz-adv-x="588" 
d="M255 205v4c-89 -3 -162 40 -162 150v214h-117v77h639v-77h-116v-573h-94v221h-4l-260 -237l-91 55zM284 277c40 0 74 13 94 30l-133 129c-39 37 -66 67 -66 67s6 -29 6 -93v-40c0 -65 41 -93 99 -93zM408 405v168h-218l212 -208c4 12 6 25 6 40z" />
    <glyph glyph-name="uni0936094D0930" horiz-adv-x="693" 
d="M508 213h-4l-245 -162l-75 68l227 127v4c-70 20 -124 44 -167 70c-51 -24 -111 -43 -179 -61l-63 76c44 9 107 23 163 43c-52 45 -69 96 -69 140c0 76 62 143 159 143c88 0 156 -59 156 -145c0 -62 -33 -113 -91 -150c57 -30 131 -53 188 -67v351h209v-77h-116v-573h-93
v213zM185 516c0 -37 18 -72 58 -103c50 25 79 59 79 103s-28 69 -66 69c-43 0 -71 -27 -71 -69z" />
    <glyph glyph-name="uni0938094D0930" horiz-adv-x="795" 
d="M426 102l-70 63l175 106c-13 48 -45 91 -104 91c-102 0 -143 -107 -252 -91l-1 -4c21 -23 39 -41 67 -77l116 -150l-78 -48l-262 342l70 59c20 -25 46 -50 87 -50c38 0 59 17 59 61v169h-257v77h843v-77h-116v-573h-95v219h-4zM435 448c93 0 143 -54 169 -129h4v254h-281
v-154c25 14 63 29 108 29z" />
    <glyph glyph-name="uni0939094D0930" horiz-adv-x="562" 
d="M398 232h-108c-77 0 -116 -41 -116 -98c0 -66 50 -134 227 -151l-50 -73c-167 24 -271 105 -271 226c0 49 21 94 61 125c-46 26 -72 70 -72 117c0 62 49 108 129 108h183v87h-405v77h610v-77h-113v-167h-250c-46 0 -61 -16 -61 -41s22 -51 55 -66c23 7 48 9 76 9h141
l62 -59v-191h-81l2 99h-4l-93 -81l-80 35l158 117v4z" />
    <glyph glyph-name="uni0915093C094D0930" horiz-adv-x="788" 
d="M351 169h-4l-234 -174l-75 67l138 78v4c-60 9 -128 63 -128 161c0 116 103 187 217 174l15 -84c-84 14 -136 -28 -136 -95c0 -56 40 -96 98 -96c64 0 109 47 109 116v253h-377v77h836v-77h-366v-151h4c20 24 61 52 124 52c95 0 174 -69 174 -176
c0 -124 -101 -193 -216 -180l-15 84c83 -14 135 29 135 95c0 57 -39 96 -96 96c-66 0 -110 -48 -110 -116v-277h-93v169zM197 -54c0 33 24 57 56 57c33 0 57 -24 57 -57c0 -32 -24 -56 -57 -56c-32 0 -56 24 -56 56z" />
    <glyph glyph-name="uni0916093C094D0930" horiz-adv-x="809" 
d="M621 120c-32 -30 -83 -66 -188 -106l-261 -98l-71 76l216 60v4c-99 9 -240 90 -275 330l79 28c12 -28 30 -48 63 -48c26 0 46 16 46 55v152h-255v77h855v-77h-117v-573h-88v120h-4zM621 470h4v103h-304v-151c0 -83 -47 -126 -114 -126c-22 0 -37 4 -48 8
c25 -120 123 -191 239 -191c127 0 233 75 233 205c0 67 -42 105 -92 105s-85 -32 -85 -81c0 -52 40 -85 100 -88l-47 -59c-68 5 -140 56 -140 149c0 91 73 157 161 157c45 0 72 -13 93 -31zM441 -81c0 33 24 57 56 57c33 0 57 -24 57 -57c0 -32 -24 -56 -57 -56
c-32 0 -56 24 -56 56z" />
    <glyph glyph-name="uni0917093C094D0930" horiz-adv-x="571" 
d="M386 0v160h-4l-235 -181l-81 62l320 216v316h-168v-345h-96c-43 33 -58 89 -59 127l62 45v173h-149v77h619v-77h-116v-573h-93zM239 -70c0 33 24 57 56 57c33 0 57 -24 57 -57c0 -32 -24 -56 -57 -56c-32 0 -56 24 -56 56z" />
    <glyph glyph-name="uni0918093C094D0930" horiz-adv-x="644" 
d="M349 3c33 0 57 -24 57 -57c0 -32 -24 -56 -57 -56c-32 0 -56 24 -56 56c0 33 24 57 56 57zM458 272v301h-196c-63 0 -91 -33 -91 -76c0 -41 31 -73 100 -73h62v-78h-57c-67 0 -97 -30 -97 -73c0 -41 30 -82 110 -82c82 0 149 49 169 81zM-24 650h693v-77h-116v-573h-95
v172h-4l-293 -194l-80 69l150 80v4c-81 0 -150 53 -150 137c0 67 49 103 89 115v4c-53 6 -98 42 -98 104c0 41 23 66 42 78v4h-138v77z" />
    <glyph glyph-name="uni0919093C094D0930" horiz-adv-x="631" 
d="M12 43c33 0 57 -24 57 -57c0 -32 -24 -56 -57 -56c-32 0 -56 24 -56 56c0 33 24 57 56 57zM559 419c32 0 56 -24 56 -56c0 -31 -24 -56 -56 -56s-56 25 -56 56c0 32 24 56 56 56zM-24 650h679v-77h-208v-164h-182c-59 0 -73 -17 -73 -48c0 -28 23 -61 58 -72l165 35
c49 -20 87 -74 87 -142c0 -76 -49 -140 -129 -165l145 -148l-106 -24l-110 137l-113 -137l-106 27l143 143c-92 23 -156 91 -194 165l66 48c41 -84 112 -142 199 -142c69 0 116 35 116 95c0 23 -9 44 -26 57l-150 -34c-83 31 -139 102 -139 177c0 63 43 106 120 106h137v86
h-379v77z" />
    <glyph glyph-name="uni091A093C094D0930" horiz-adv-x="655" 
d="M464 163l-312 -176l-79 69l158 72v4c-65 9 -127 57 -127 141c0 58 33 90 51 105v4h-136v83h376v-82h-75c-75 0 -118 -38 -118 -99c0 -56 40 -96 116 -96c78 0 134 47 150 70v315h-492v77h703v-77h-116v-573h-95v163h-4zM298 -54c0 33 24 57 56 57c33 0 57 -24 57 -57
c0 -32 -24 -56 -57 -56c-32 0 -56 24 -56 56z" />
    <glyph glyph-name="uni091B093C094D0930" horiz-adv-x="684" 
d="M65 47c33 0 57 -24 57 -57c0 -32 -24 -56 -57 -56c-32 0 -56 24 -56 56c0 33 24 57 56 57zM455 486v87h-182c-65 0 -106 -39 -106 -96c0 -52 35 -88 98 -88h35v-81h-21c-64 -3 -97 -37 -97 -88c0 -57 46 -104 136 -104c126 0 230 95 230 211c0 55 -28 83 -64 83
c-30 0 -53 -20 -53 -51c0 -32 21 -54 58 -61l-57 -57c-49 13 -91 56 -91 119c0 62 45 115 114 126zM708 573h-163v-97c56 -22 91 -77 91 -150c0 -114 -82 -233 -216 -276l149 -151l-106 -24l-110 137l-113 -137l-106 27l136 134c-120 15 -186 94 -186 180
c0 74 42 113 84 129v4c-62 14 -100 62 -100 122c0 56 29 84 46 98v4h-138v77h732v-77z" />
    <glyph glyph-name="uni091C093C094D0930" horiz-adv-x="751" 
d="M273 407v7l39 70h252v89h-588v77h799v-77h-116v-573h-95v124h-4l-263 -178l-81 62l348 208v190h-157v-4c18 -17 45 -48 45 -101c0 -82 -66 -147 -165 -147c-169 0 -248 165 -261 287l90 41c5 -123 64 -245 165 -245c51 0 79 31 79 73c0 57 -47 87 -87 97zM55 78
c0 33 24 57 56 57c33 0 57 -24 57 -57c0 -32 -24 -56 -57 -56c-32 0 -56 24 -56 56z" />
    <glyph glyph-name="uni091D093C094D0930" horiz-adv-x="867" 
d="M86 -103c0 33 24 57 56 57c33 0 57 -24 57 -57c0 -32 -24 -56 -57 -56c-32 0 -56 24 -56 56zM689 142h-4l-140 -150l-81 47l228 204l-1 3c-42 -23 -99 -33 -146 -33c-28 0 -56 4 -78 10c4 -11 6 -24 6 -38c0 -92 -79 -146 -163 -154l1 -3l162 -104l-104 -55l-162 149
c-110 2 -155 57 -155 106c0 28 15 52 35 62l139 -92h28c67 0 130 27 130 90c0 28 -14 46 -24 53l-149 -33c-83 27 -141 98 -141 177c0 63 44 104 121 104h141v88h-356v77h915v-77h-112v-586h-91zM687 573h-262v-166h-189c-59 0 -69 -20 -69 -50c0 -29 24 -60 57 -69l163 35
c29 -14 77 -33 142 -33c53 0 112 10 158 42v241z" />
    <glyph glyph-name="uni091E093C094D0930" horiz-adv-x="736" 
d="M760 650v-77h-116v-573h-95v130h-4l-256 -187l-83 64l353 222v4c-9 1 -18 3 -27 5c-38 6 -81 19 -107 32c-30 -66 -103 -108 -189 -108c-110 0 -187 65 -221 119l66 64c31 -52 84 -98 155 -98c62 0 111 37 111 99c0 63 -46 91 -95 91c-31 0 -58 -10 -77 -24l-39 80
c30 17 71 31 119 31c93 0 171 -60 183 -152c0 -7 0 -13 1 -19c30 -17 73 -30 110 -37v257h-573v77h784zM46 64c0 33 24 57 56 57c33 0 57 -24 57 -57c0 -32 -24 -56 -57 -56c-32 0 -56 24 -56 56z" />
    <glyph glyph-name="uni091F093C094D0930" horiz-adv-x="514" 
d="M8 79c33 0 57 -24 57 -57c0 -32 -24 -56 -57 -56c-32 0 -56 24 -56 56c0 33 24 57 56 57zM402 407l-145 -41c-99 -28 -117 -63 -117 -119c0 -62 50 -127 146 -127c71 0 121 24 164 69l50 -76c-38 -37 -82 -59 -129 -69l140 -143l-106 -25l-110 138l-113 -138l-106 27
l144 143c-106 30 -175 121 -175 219c0 92 50 145 155 176l106 32v100h-330v77h562v-77h-136v-166z" />
    <glyph glyph-name="uni0920093C094D0930" horiz-adv-x="585" 
d="M10 69c33 0 57 -24 57 -57c0 -32 -24 -56 -57 -56c-32 0 -56 24 -56 56c0 33 24 57 56 57zM336 389l-80 -22c-99 -29 -118 -64 -118 -120c0 -62 48 -127 145 -127c112 0 166 65 166 138c0 74 -66 116 -113 131zM609 573h-209v-121c68 -33 141 -95 141 -201
c0 -95 -63 -177 -166 -205l146 -149l-105 -24l-110 137l-114 -137l-106 27l145 143c-112 25 -187 116 -187 221c0 92 51 145 156 176l105 32v101h-329v77h633v-77z" />
    <glyph glyph-name="uni0921093C094D0930" horiz-adv-x="552" 
d="M4 41c33 0 57 -24 57 -57c0 -32 -24 -56 -57 -56c-32 0 -56 24 -56 56c0 33 24 57 56 57zM447 409h-182c-59 0 -73 -17 -73 -48c0 -28 23 -61 58 -72l165 35c49 -20 87 -74 87 -142c0 -77 -50 -142 -133 -166l143 -147l-105 -24l-111 137l-113 -137l-106 27l145 144
c-90 24 -153 92 -190 164l66 48c41 -84 112 -142 199 -142c69 0 116 35 116 95c0 23 -9 44 -26 57l-150 -34c-83 31 -139 102 -139 177c0 63 43 106 120 106h137v86h-379v77h600v-77h-129v-164z" />
    <glyph glyph-name="uni0922093C094D0930" horiz-adv-x="538" 
d="M8 73c33 0 57 -24 57 -57c0 -32 -24 -56 -57 -56c-32 0 -56 24 -56 56c0 33 24 57 56 57zM426 427l-168 -43c-94 -24 -118 -66 -118 -124c0 -72 66 -147 168 -147c60 0 93 32 93 75c0 28 -20 50 -50 50c-38 0 -59 -30 -56 -67l-66 45c4 46 45 104 129 104
c73 0 132 -58 132 -130s-48 -133 -126 -153l143 -147l-105 -24l-110 137l-114 -137l-106 27l151 150c-103 32 -179 120 -179 228c0 93 61 159 160 186l126 36v80h-354v77h587v-77h-137v-146z" />
    <glyph glyph-name="uni0923093C094D0930" horiz-adv-x="766" 
d="M90 132c33 0 57 -24 57 -57c0 -32 -24 -56 -57 -56c-32 0 -56 24 -56 56c0 33 24 57 56 57zM337 361v212h-161v-213c0 -60 30 -90 81 -90c52 0 80 31 80 91zM-24 650h815v-77h-117v-573h-93v159h-4l-273 -182l-82 62l358 211v323h-149v-210c0 -114 -71 -176 -175 -176
c-105 0 -174 61 -174 174v212h-106v77z" />
    <glyph glyph-name="uni0924093C094D0930" horiz-adv-x="569" 
d="M382 226h-4l-248 -171l-69 71l269 169c-20 48 -64 97 -139 97c-44 0 -82 -16 -118 -47l-63 79c40 32 96 60 170 60c114 0 173 -69 199 -120h4v209h-407v77h618v-77h-117v-573h-95v226zM197 -37c0 33 24 57 56 57c33 0 57 -24 57 -57c0 -32 -24 -56 -57 -56
c-32 0 -56 24 -56 56z" />
    <glyph glyph-name="uni0925093C094D0930" horiz-adv-x="671" 
d="M40 354l110 30c130 36 158 77 158 130c0 40 -23 65 -62 65c-35 0 -61 -22 -61 -60c0 -19 10 -42 25 -57l-85 -25c-17 18 -32 48 -32 87c0 75 62 136 153 136c96 0 155 -62 155 -148c0 -96 -67 -157 -185 -191c-10 -2 -54 -14 -65 -16c5 -41 43 -123 160 -123
c95 0 158 57 175 95v373h210v-77h-116v-573h-93v160h-4l-329 -189l-82 69l155 77v4c-87 11 -178 88 -187 233zM308 -52c0 33 24 57 56 57c33 0 57 -24 57 -57c0 -32 -24 -56 -57 -56c-32 0 -56 24 -56 56z" />
    <glyph glyph-name="uni0926093C094D0930" horiz-adv-x="539" 
d="M226 77v4c-102 8 -180 93 -180 200c0 93 51 148 162 177l111 29v86h-343v77h587v-77h-149v-152l-152 -38c-94 -24 -122 -58 -122 -118c0 -66 54 -116 129 -116c37 0 63 9 82 25v100l65 24c28 -14 59 -42 59 -90c0 -43 -18 -65 -37 -85l112 -143l-109 -27l-66 129
l-241 -170l-80 68zM271 -110c0 33 24 57 56 57c33 0 57 -24 57 -57c0 -32 -24 -56 -57 -56c-32 0 -56 24 -56 56z" />
    <glyph glyph-name="uni0927093C094D0930" horiz-adv-x="645" 
d="M459 174h-4l-291 -196l-80 69l150 80v4c-83 -1 -155 48 -155 134c0 73 49 108 90 118v4c-52 7 -97 41 -97 104c0 40 24 67 44 78v4h-140v77h273l13 -73c-56 -7 -91 -37 -91 -81c0 -41 31 -72 99 -72h68v-78h-63c-68 0 -98 -29 -98 -75c0 -41 31 -79 112 -79
c89 0 150 55 170 83v298h-103v77h313v-77h-116v-573h-94v174zM297 -56c0 33 24 57 56 57c33 0 57 -24 57 -57c0 -32 -24 -56 -57 -56c-32 0 -56 24 -56 56z" />
    <glyph glyph-name="uni0928093C094D0930" horiz-adv-x="585" 
d="M324 283c-15 61 -65 111 -136 111c-12 0 -27 0 -39 -5v-67l-51 -20c-34 22 -63 60 -66 115l60 49c21 8 58 12 80 12c111 0 192 -61 223 -151h4v246h-423v77h634v-77h-117v-573h-94v232h-4l-245 -178l-75 64zM226 -42c0 33 24 57 56 57c33 0 57 -24 57 -57
c0 -32 -24 -56 -57 -56c-32 0 -56 24 -56 56z" />
    <glyph glyph-name="uni092A093C094D0930" horiz-adv-x="588" 
d="M255 210v4c-89 -2 -162 41 -162 151v208h-117v77h637v-77h-117v-573h-95v227h-4l-262 -241l-91 54zM401 333v240h-214v-192c0 -67 29 -97 93 -97c49 0 99 25 121 49zM244 -55c0 33 24 57 56 57c33 0 57 -24 57 -57c0 -32 -24 -56 -57 -56c-32 0 -56 24 -56 56z" />
    <glyph glyph-name="uni092B093C094D0930" horiz-adv-x="820" 
d="M217 192v4c-72 9 -124 57 -124 151v226h-117v77h868v-77h-374v-153h4c18 22 60 56 131 56c96 0 174 -70 174 -176c0 -126 -99 -200 -216 -188l-15 85c84 -16 135 33 135 101c0 57 -38 95 -96 95c-70 0 -117 -55 -117 -130v-263h-93v225h-4l-243 -232l-88 61zM271 265
c52 0 92 33 106 61v247h-190v-210c0 -69 28 -98 84 -98zM217 -59c0 33 24 57 56 57c33 0 57 -24 57 -57c0 -32 -24 -56 -57 -56c-32 0 -56 24 -56 56z" />
    <glyph glyph-name="uni092C093C094D0930" horiz-adv-x="580" 
d="M196 124v4c-59 12 -139 67 -139 181c0 118 99 196 207 196c26 0 48 -2 71 -8l4 -84c-22 8 -46 10 -67 10c-25 0 -50 -7 -70 -19l194 -158l8 6v321h-428v77h628v-77h-106v-573h-95v156h-4l-261 -172l-78 67zM273 185c33 0 58 9 81 25l-190 153c-10 -16 -15 -36 -15 -58
c0 -72 54 -120 124 -120zM246 -64c0 33 24 57 56 57c33 0 57 -24 57 -57c0 -32 -24 -56 -57 -56c-32 0 -56 24 -56 56z" />
    <glyph glyph-name="uni092D093C094D0930" horiz-adv-x="599" 
d="M260 -66c0 33 24 57 56 57c33 0 57 -24 57 -57c0 -32 -24 -56 -57 -56c-32 0 -56 24 -56 56zM58 344l63 47v117c0 47 -21 65 -68 65h-77v77h90c78 0 148 -36 148 -136v-121h200v180h-98v77h308v-77h-116v-573h-94v187h-4l-252 -203l-79 62l346 243v20h-211v-89h-96
c-37 27 -59 83 -60 124z" />
    <glyph glyph-name="uni092E093C094D0930" horiz-adv-x="590" 
d="M260 -65c0 33 24 57 56 57c33 0 57 -24 57 -57c0 -32 -24 -56 -57 -56c-32 0 -56 24 -56 56zM214 309v-89h-96c-37 27 -59 83 -60 124l63 47v182h-145v77h638v-77h-112v-573h-93v185h-4l-248 -201l-79 62l341 243v20h-205zM409 573h-195v-180h195v180z" />
    <glyph glyph-name="uni092F093C094D0930" horiz-adv-x="618" 
d="M227 147v4c-88 11 -171 81 -181 220c86 20 140 49 140 111c0 31 -15 68 -39 91h-171v77h666v-77h-116v-573h-94v179h-4l-295 -198l-81 68zM150 334c9 -56 48 -121 144 -121c70 0 122 41 139 70v290h-192v-4c27 -27 41 -61 41 -101c0 -72 -57 -117 -132 -134zM268 -52
c0 33 24 57 56 57c33 0 57 -24 57 -57c0 -32 -24 -56 -57 -56c-32 0 -56 24 -56 56z" />
    <glyph glyph-name="uni0932093C094D0930" horiz-adv-x="720" 
d="M264 71l-70 -62c-85 57 -148 152 -148 264c0 124 84 186 168 186c64 0 108 -30 125 -78h4c13 54 58 82 105 82c35 0 67 -13 82 -30h4v140h-558v77h769v-77h-117v-586h-91v130h-4l-166 -135l-74 54l242 178v138c-13 12 -43 27 -72 27c-47 0 -76 -31 -76 -95v-87h-89v89
c0 60 -29 90 -75 90c-41 0 -80 -29 -80 -106c0 -76 39 -147 121 -199zM20 -75c0 32 23 56 55 56s56 -24 56 -56s-24 -55 -56 -55s-55 23 -55 55z" />
    <glyph glyph-name="uni0933093C094D0930" horiz-adv-x="733" 
d="M115 25c33 0 57 -24 57 -57c0 -32 -24 -56 -57 -56c-32 0 -56 24 -56 56c0 33 24 57 56 57zM401 229l-2 -6c22 -45 53 -80 108 -80c56 0 93 47 93 122c0 70 -28 121 -85 121c-68 0 -86 -75 -114 -157zM333 302l2 7c-21 45 -55 79 -105 79c-57 0 -95 -49 -95 -122
c0 -70 26 -121 83 -121c71 0 89 67 115 157zM757 573h-202v-109c84 -16 137 -91 137 -196c0 -91 -42 -158 -106 -187l152 -155l-106 -24l-110 137l-113 -137l-106 27l147 146c-43 15 -71 45 -86 70c-31 -49 -76 -81 -151 -81c-104 0 -169 80 -169 199c0 120 74 203 183 203
c77 0 122 -46 143 -79c21 34 51 61 93 73v113h-487v77h781v-77z" />
    <glyph glyph-name="uni0935093C094D0930" horiz-adv-x="574" 
d="M387 160h-4l-245 -172l-83 68l134 73v4c-59 11 -131 69 -131 170c0 133 121 203 244 181l8 -85c-66 20 -153 -10 -153 -96c0 -62 45 -106 111 -106c64 0 108 38 119 67v309h-411v77h622v-77h-116v-573h-95v160zM238 -63c0 33 24 57 56 57c33 0 57 -24 57 -57
c0 -32 -24 -56 -57 -56c-32 0 -56 24 -56 56z" />
    <glyph glyph-name="uni0936093C094D0930" horiz-adv-x="693" 
d="M508 213h-4l-245 -162l-75 68l227 127v4c-70 20 -124 44 -167 70c-51 -24 -111 -43 -179 -61l-63 76c44 9 107 23 163 43c-52 45 -69 96 -69 140c0 76 62 143 159 143c88 0 156 -59 156 -145c0 -62 -33 -113 -91 -150c57 -30 131 -53 188 -67v351h209v-77h-116v-573h-93
v213zM185 516c0 -37 18 -72 58 -103c50 25 79 59 79 103s-28 69 -66 69c-43 0 -71 -27 -71 -69zM69 1c0 33 24 57 56 57c33 0 57 -24 57 -57c0 -32 -24 -56 -57 -56c-32 0 -56 24 -56 56z" />
    <glyph glyph-name="uni0937093C094D0930" horiz-adv-x="580" 
d="M243 -44c0 32 23 56 55 56s56 -24 56 -56s-24 -55 -56 -55s-55 23 -55 55zM255 205v4c-89 -3 -162 40 -162 150v214h-117v77h639v-77h-116v-573h-94v221h-4l-260 -237l-91 55zM284 277c40 0 74 13 94 30l-133 129c-39 37 -66 67 -66 67s6 -29 6 -93v-40
c0 -65 41 -93 99 -93zM408 405v168h-218l212 -208c4 12 6 25 6 40z" />
    <glyph glyph-name="uni0938093C094D0930" horiz-adv-x="795" 
d="M426 102l-70 63l175 106c-13 48 -45 91 -104 91c-102 0 -143 -107 -252 -91l-1 -4c21 -23 39 -41 67 -77l116 -150l-78 -48l-262 342l70 59c20 -25 46 -50 87 -50c38 0 59 17 59 61v169h-257v77h843v-77h-116v-573h-95v219h-4zM435 448c93 0 143 -54 169 -129h4v254h-281
v-154c25 14 63 29 108 29zM15 8c0 32 23 56 55 56s56 -24 56 -56s-24 -55 -56 -55s-55 23 -55 55z" />
    <glyph glyph-name="uni0939093C094D0930" horiz-adv-x="562" 
d="M398 232h-108c-77 0 -116 -41 -116 -98c0 -66 50 -134 227 -151l-50 -73c-167 24 -271 105 -271 226c0 49 21 94 61 125c-46 26 -72 70 -72 117c0 62 49 108 129 108h183v87h-405v77h610v-77h-113v-167h-250c-46 0 -61 -16 -61 -41s22 -51 55 -66c23 7 48 9 76 9h141
l62 -59v-191h-81l2 99h-4l-93 -81l-80 35l158 117v4zM23 -93c0 32 23 56 55 56s56 -24 56 -56s-24 -55 -56 -55s-55 23 -55 55z" />
    <glyph glyph-name="uni0915094D0930094D" horiz-adv-x="589" 
d="M574 474c51 0 101 -22 131 -59l-56 -69c-16 27 -48 47 -92 47c-66 0 -111 -48 -111 -116v-277h-93v169h-4l-234 -174l-75 67l138 78v4c-60 9 -128 63 -128 161c0 116 103 187 217 174l15 -84c-84 14 -136 -28 -136 -95c0 -56 40 -96 98 -96c64 0 109 47 109 116v253h-377
v77h637v-77h-167v-151h4c20 25 63 52 124 52z" />
    <glyph glyph-name="uni0916094D0930094D" horiz-adv-x="581" 
d="M400 107c126 0 230 89 230 211c0 65 -42 101 -89 101c-50 0 -81 -33 -81 -81c0 -50 41 -84 101 -87l-49 -59c-68 5 -139 55 -139 148c0 90 71 157 166 157s173 -73 173 -180c0 -137 -90 -237 -268 -304l-270 -102l-71 76l217 61v4c-100 9 -240 89 -276 329l79 29
c12 -29 30 -48 63 -48c27 0 46 15 46 54v157h-254v77h624v-77h-279v-156c0 -82 -46 -126 -114 -126c-21 0 -36 4 -48 9c26 -121 123 -193 239 -193z" />
    <glyph glyph-name="uni0917094D0930094D" horiz-adv-x="349" 
d="M374 650v-77h-156v-345h-96c-43 33 -58 89 -59 127l62 45v173h-149v77h398zM435 288v-88l-288 -221l-81 62z" />
    <glyph glyph-name="uni0918094D0930094D" horiz-adv-x="382" 
d="M470 291l55 -63c-11 -17 -70 -62 -91 -75l-273 -175l-80 69l150 80v4c-81 0 -150 53 -150 137c0 67 49 103 89 115v4c-53 6 -98 42 -98 104c0 41 23 66 42 78v4h-138v77h431v-77h-145c-63 0 -91 -33 -91 -76c0 -41 31 -73 100 -73h62v-78h-57c-67 0 -97 -30 -97 -73
c0 -41 30 -82 110 -82c84 0 148 47 181 100z" />
    <glyph glyph-name="uni0919094D0930094D" horiz-adv-x="631" 
d="M249 -215l75 29l156 -175v-4h-122zM559 419c32 0 56 -24 56 -56c0 -31 -24 -56 -56 -56s-56 25 -56 56c0 32 24 56 56 56zM-24 650h679v-77h-208v-164h-182c-59 0 -73 -17 -73 -48c0 -28 23 -61 58 -72l165 35c49 -20 87 -74 87 -142c0 -75 -47 -138 -125 -164l146 -149
l-105 -24l-110 137l-114 -137l-105 27l142 142c-95 22 -160 91 -199 166l66 48c41 -84 112 -142 199 -142c69 0 116 35 116 95c0 23 -9 44 -26 57l-150 -34c-83 31 -139 102 -139 177c0 63 43 106 120 106h137v86h-379v77z" />
    <glyph glyph-name="uni091A094D0930094D" horiz-adv-x="423" 
d="M453 650v-77h-477v77h477zM492 294l51 -59c-23 -37 -64 -71 -112 -97l-279 -151l-79 69l158 72v4c-65 9 -127 57 -127 141c0 58 33 90 51 105v4h-136v83h376v-82h-75c-75 0 -118 -38 -118 -99c0 -56 40 -96 116 -96c101 0 152 64 174 106z" />
    <glyph glyph-name="uni091B094D0930094D" horiz-adv-x="684" 
d="M708 573h-435c-65 0 -106 -39 -106 -96c0 -52 35 -88 98 -88h35v-81h-20c-65 -2 -98 -36 -98 -88c0 -57 43 -104 133 -104c126 0 233 99 233 219c0 56 -29 83 -65 83c-29 0 -52 -20 -52 -51c0 -32 21 -54 58 -61l-57 -57c-49 12 -91 56 -91 119c0 70 57 128 141 128
c91 0 154 -64 154 -162c0 -117 -83 -243 -223 -285l147 -150l-105 -24l-110 137l-114 -137l-105 27l136 135c-116 17 -178 94 -178 179c0 74 42 113 84 129v4c-62 14 -100 62 -100 122c0 56 29 84 46 98v4h-138v77h732v-77z" />
    <glyph glyph-name="uni091C094D0930094D" horiz-adv-x="484" 
d="M508 650v-77h-532v77h532zM618 484v-78h-211v-4c18 -17 45 -48 45 -101c0 -82 -66 -147 -165 -147c-169 0 -248 165 -261 287l90 41c5 -123 64 -245 165 -245c51 0 79 31 79 73c0 57 -47 87 -87 97v7l39 70h306zM618 249v-87l-321 -216l-81 62z" />
    <glyph glyph-name="uni091D094D0930094D" horiz-adv-x="546" 
d="M684 238l-1 3c-41 -22 -95 -28 -138 -28c-28 0 -56 4 -78 10c4 -11 6 -24 6 -38c0 -92 -79 -146 -163 -154l1 -3l162 -104l-104 -55l-162 149c-110 2 -155 57 -155 106c0 28 15 52 35 62l139 -92h28c67 0 130 27 130 90c0 28 -14 46 -24 53l-149 -33
c-83 27 -141 98 -141 177c0 63 44 104 121 104h141v88h-356v77h594v-77h-145v-166h-189c-59 0 -69 -20 -69 -50c0 -29 24 -60 57 -69l163 35c29 -14 77 -33 142 -33c83 0 141 25 178 49v-175l-162 -172l-81 47z" />
    <glyph glyph-name="uni091E094D0930094D" horiz-adv-x="518" 
d="M524 650v-77h-548v77h548zM608 173l-319 -230l-83 64l353 224v4c-9 1 -18 2 -27 4c-38 6 -81 18 -107 31c-30 -66 -103 -108 -189 -108c-110 0 -187 65 -221 119l66 64c31 -52 84 -98 155 -98c62 0 111 37 111 99c0 63 -46 91 -95 91c-31 0 -58 -10 -77 -24l-39 80
c30 17 71 31 119 31c93 0 171 -60 183 -152c0 -4 1 -16 1 -19c30 -17 99 -37 169 -46v-134z" />
    <glyph glyph-name="uni091F094D0930094D" horiz-adv-x="514" 
d="M237 -184l75 29l156 -175v-4h-122zM402 407l-145 -41c-99 -28 -117 -63 -117 -119c0 -62 50 -127 146 -127c71 0 121 24 164 69l50 -76c-38 -37 -83 -59 -130 -69l140 -143l-105 -25l-110 138l-114 -138l-106 27l145 144c-106 30 -175 120 -175 218c0 92 50 145 155 176
l106 32v100h-330v77h562v-77h-136v-166z" />
    <glyph glyph-name="uni0920094D0930094D" horiz-adv-x="585" 
d="M242 -184l75 29l156 -175v-4h-122zM336 389l-80 -22c-99 -29 -118 -64 -118 -120c0 -62 48 -127 145 -127c112 0 166 65 166 138c0 74 -66 116 -113 131zM609 573h-209v-121c68 -33 141 -95 141 -201c0 -95 -63 -177 -167 -205l146 -149l-106 -24l-110 137l-113 -137
l-106 27l145 143c-112 25 -186 116 -186 221c0 92 51 145 156 176l105 32v101h-329v77h633v-77z" />
    <glyph glyph-name="uni0921094D0930094D" horiz-adv-x="552" 
d="M237 -197l75 29l156 -175v-4h-122zM447 409h-182c-59 0 -73 -17 -73 -48c0 -28 23 -61 58 -72l165 35c49 -20 87 -74 87 -142c0 -77 -50 -142 -132 -166l143 -147l-106 -24l-110 137l-113 -137l-106 27l144 144c-90 24 -152 91 -190 164l66 48c41 -84 112 -142 199 -142
c69 0 116 35 116 95c0 23 -9 44 -26 57l-150 -34c-83 31 -139 102 -139 177c0 63 43 106 120 106h137v86h-379v77h600v-77h-129v-164z" />
    <glyph glyph-name="uni0922094D0930094D" horiz-adv-x="538" 
d="M237 -197l75 29l156 -175v-4h-122zM426 427l-168 -43c-94 -24 -118 -66 -118 -124c0 -72 66 -147 168 -147c60 0 93 32 93 75c0 28 -20 50 -50 50c-38 0 -59 -30 -56 -67l-66 45c4 46 45 104 129 104c73 0 132 -58 132 -130c0 -71 -47 -132 -124 -153l144 -147l-105 -24
l-111 137l-113 -137l-106 27l150 149c-104 32 -181 120 -181 229c0 93 61 159 160 186l126 36v80h-354v77h587v-77h-137v-146z" />
    <glyph glyph-name="uni0923094D0930094D" horiz-adv-x="499" 
d="M176 573v-213c0 -60 30 -90 81 -90c52 0 80 31 80 91v212h-161zM431 573v-210c0 -114 -71 -176 -175 -176c-105 0 -174 61 -174 174v212h-106v77h547v-77h-92zM226 39l403 239v-87l-321 -214z" />
    <glyph glyph-name="uni0924094D0930094D" horiz-adv-x="335" 
d="M359 650v-77h-383v77h383zM428 262l-298 -207l-69 71l268 168c-19 48 -62 98 -138 98c-44 0 -82 -16 -118 -47l-63 79c40 32 96 60 170 60c127 0 215 -86 248 -222z" />
    <glyph glyph-name="uni0925094D0930094D" horiz-adv-x="460" 
d="M499 291l55 -65c-23 -31 -65 -66 -119 -96l-286 -159l-82 69l156 77v4c-87 11 -178 88 -187 233l110 30c129 36 157 77 157 130c0 40 -22 65 -61 65c-35 0 -61 -22 -61 -60c0 -19 9 -42 24 -57l-84 -25c-18 18 -32 48 -32 87c0 75 62 136 153 136c96 0 154 -62 154 -148
c0 -96 -66 -157 -185 -191c-10 -2 -53 -14 -64 -16c4 -41 43 -123 159 -123c100 0 166 58 193 109z" />
    <glyph glyph-name="uni0926094D0930094D" horiz-adv-x="539" 
d="M501 -261v-4h-122l-109 150l75 29zM226 77v4c-102 8 -180 93 -180 200c0 93 51 148 162 177l111 29v86h-343v77h587v-77h-149v-152l-152 -38c-94 -24 -122 -58 -122 -118c0 -66 54 -116 129 -116c37 0 63 9 82 25v100l65 24c28 -14 59 -42 59 -90c0 -43 -18 -65 -37 -85
l112 -143l-109 -27l-66 129l-241 -170l-80 68z" />
    <glyph glyph-name="uni0927094D0930094D" horiz-adv-x="393" 
d="M419 650v-77h-67v77h67zM289 192c90 0 149 50 180 100l53 -60c-16 -23 -46 -55 -101 -90l-257 -164l-80 69l150 80v4c-83 -1 -155 48 -155 134c0 73 49 108 90 118v4c-52 7 -97 41 -97 104c0 40 24 67 44 78v4h-140v77h273l13 -73c-56 -7 -91 -37 -91 -81
c0 -41 31 -72 99 -72h68v-78h-63c-68 0 -98 -29 -98 -75c0 -41 31 -79 112 -79z" />
    <glyph glyph-name="uni0928094D0930094D" horiz-adv-x="328" 
d="M352 650v-77h-376v77h376zM75 118l249 165c-17 61 -63 111 -139 111c-15 0 -24 -2 -36 -5v-67l-53 -19c-31 19 -65 62 -66 114l60 50c18 5 49 11 78 11c134 0 224 -80 253 -225l-271 -199z" />
    <glyph glyph-name="uni092A094D0930094D" horiz-adv-x="332" 
d="M470 293c-3 -3 -28 -27 -36 -36l-299 -271l-91 54l211 170v4c-89 -2 -162 41 -162 151v208h-117v77h381v-77h-170v-192c0 -67 29 -97 93 -97c52 0 103 29 140 75z" />
    <glyph glyph-name="uni092B094D0930094D" horiz-adv-x="595" 
d="M271 265c52 0 92 33 106 61v247h-190v-210c0 -69 28 -98 84 -98zM470 269v-269h-93v225h-4l-243 -232l-88 61l175 138v4c-72 9 -124 57 -124 151v226h-117v77h644v-77h-150v-152h4c20 24 65 54 127 54c53 0 101 -22 131 -60l-57 -68c-15 27 -46 46 -91 46
c-65 0 -114 -50 -114 -124z" />
    <glyph glyph-name="uni092C094D0930094D" horiz-adv-x="368" 
d="M138 -16l-78 67l136 73v4c-59 12 -139 68 -139 179c0 121 100 198 207 198c26 0 48 -2 71 -8l4 -84c-22 8 -44 10 -65 10c-27 0 -52 -7 -72 -20l193 -157c15 19 24 39 29 54l57 -46c-20 -43 -58 -85 -106 -116zM274 186c31 0 57 9 78 23l-188 154
c-10 -17 -15 -36 -15 -58c0 -69 50 -119 125 -119zM385 650v-77h-405v77h405z" />
    <glyph glyph-name="uni092D094D0930094D" horiz-adv-x="348" 
d="M373 650v-77h-57v77h57zM453 301v-90l-295 -227l-79 62zM453 393v-84h-239v-89h-96c-37 27 -59 83 -60 124l63 47v117c0 47 -21 65 -68 65h-77v77h90c78 0 148 -36 148 -136v-121h239z" />
    <glyph glyph-name="uni092E094D0930094D" horiz-adv-x="348" 
d="M373 650v-77h-159v-180h239v-84h-239v-89h-96c-37 27 -59 83 -60 124l63 47v182h-145v77h397zM453 301v-90l-295 -227l-79 62z" />
    <glyph glyph-name="uni092F094D0930094D" horiz-adv-x="375" 
d="M451 311l52 -65c-10 -18 -57 -58 -92 -80l-278 -185l-81 68l175 98v4c-88 11 -171 81 -181 220c86 20 140 49 140 111c0 31 -15 68 -39 91h-171v77h423v-77h-158v-4c27 -27 41 -61 41 -101c0 -72 -57 -117 -132 -134c9 -56 48 -121 144 -121c85 0 134 53 157 98z" />
    <glyph glyph-name="uni0932094D0930094D" horiz-adv-x="460" 
d="M484 650v-77h-508v77h508zM214 459c64 0 108 -30 125 -78h4c13 46 54 83 118 83c63 0 106 -27 132 -55l-43 -70c-12 14 -40 40 -84 40c-48 0 -79 -32 -79 -92v-93h-89v93c0 59 -29 88 -75 88c-41 0 -80 -28 -80 -105c0 -76 39 -147 121 -199l-71 -60
c-84 57 -147 151 -147 262c0 124 84 186 168 186zM560 232l44 -57l-237 -193l-74 54z" />
    <glyph glyph-name="uni0933094D0930094D" horiz-adv-x="733" 
d="M401 229l-2 -6c22 -46 53 -80 107 -80c57 0 94 47 94 122c0 70 -28 121 -85 121c-75 0 -92 -89 -114 -157zM333 302l2 7c-21 45 -55 79 -104 79c-57 0 -96 -49 -96 -122c0 -70 26 -121 83 -121c75 0 95 89 115 157zM303 -71l147 146c-43 15 -71 45 -86 70
c-31 -49 -76 -81 -151 -81c-103 0 -169 80 -169 199s74 203 183 203c77 0 122 -46 143 -79c30 48 75 80 150 80c104 0 172 -80 172 -199c0 -91 -42 -158 -106 -187l152 -155l-106 -24l-110 137l-113 -137zM-24 650h781v-77h-781v77z" />
    <glyph glyph-name="uni0935094D0930094D" horiz-adv-x="329" 
d="M354 650v-77h-378v77h378zM400 299l64 -50c-19 -38 -49 -75 -98 -108l-228 -153l-83 68l134 73v4c-59 11 -131 69 -131 170c0 133 121 203 244 181l8 -85c-66 20 -153 -10 -153 -96c0 -62 45 -106 111 -106c81 0 119 63 132 102z" />
    <glyph glyph-name="uni0936094D0930094D" horiz-adv-x="456" 
d="M549 243l-290 -192l-75 68l227 127v4c-70 20 -124 44 -167 70c-51 -24 -111 -43 -179 -61l-63 76c44 9 107 23 163 43c-52 45 -69 96 -69 140c0 76 62 143 159 143c88 0 156 -59 156 -145c0 -62 -33 -113 -91 -150c57 -30 150 -59 229 -77v-46zM185 516
c0 -37 18 -72 58 -103c50 25 79 59 79 103s-28 69 -66 69c-43 0 -71 -27 -71 -69z" />
    <glyph glyph-name="uni0937094D0930094D" horiz-adv-x="320" 
d="M280 275c40 0 76 14 97 34l-136 136c-39 40 -66 67 -66 67s6 -30 6 -92v-53c0 -66 41 -92 99 -92zM469 301v-10l-326 -300l-91 55l201 160v4c-89 -2 -163 40 -163 150v213h-114v77h368v-77h-150z" />
    <glyph glyph-name="uni0938094D0930094D" horiz-adv-x="520" 
d="M627 236l-201 -136l-71 64l176 108c-13 52 -47 89 -104 89c-102 0 -143 -106 -252 -90c1 -1 0 -2 0 -3c21 -23 38 -41 66 -78l116 -150l-78 -48l-262 342l70 59c20 -25 46 -50 87 -50c38 0 59 17 59 61v169h-257v77h568v-77h-217v-154c25 14 62 28 107 28
c100 0 182 -70 193 -211z" />
    <glyph glyph-name="uni0939094D0930094D" horiz-adv-x="562" 
d="M398 232h-108c-77 0 -116 -41 -116 -98c0 -66 50 -134 227 -151l-50 -73c-167 24 -271 105 -271 226c0 49 21 94 61 125c-46 26 -72 70 -72 117c0 62 49 108 129 108h183v87h-405v77h610v-77h-113v-167h-250c-46 0 -61 -16 -61 -41s22 -51 55 -66c23 7 48 9 76 9h141
l62 -59v-191h-81l2 99h-4l-93 -81l-80 35l158 117v4zM507 -288v-4h-122l-109 150l75 29z" />
    <glyph glyph-name="uni0915093C094D0930094D" horiz-adv-x="589" 
d="M197 -54c0 33 24 57 56 57c33 0 57 -24 57 -57c0 -32 -24 -56 -57 -56c-32 0 -56 24 -56 56zM574 474c51 0 101 -22 131 -59l-56 -69c-16 27 -48 47 -92 47c-66 0 -111 -48 -111 -116v-277h-93v169h-4l-234 -174l-75 67l138 78v4c-60 9 -128 63 -128 161
c0 116 103 187 217 174l15 -84c-84 14 -136 -28 -136 -95c0 -56 40 -96 98 -96c64 0 109 47 109 116v253h-377v77h637v-77h-167v-151h4c20 25 63 52 124 52z" />
    <glyph glyph-name="uni0916093C094D0930094D" horiz-adv-x="570" 
d="M398 107c126 0 230 89 230 211c0 65 -42 101 -89 101c-50 0 -81 -33 -81 -81c0 -50 41 -84 101 -87l-49 -59c-68 5 -139 55 -139 148c0 90 71 157 166 157s173 -73 173 -180c0 -137 -90 -237 -268 -304l-270 -102l-71 76l217 61v4c-100 9 -240 89 -276 329l79 29
c12 -29 30 -48 63 -48c27 0 46 15 46 54v157h-254v77h624v-77h-279v-156c0 -82 -46 -126 -114 -126c-21 0 -36 4 -48 9c26 -121 123 -193 239 -193zM441 -81c0 33 24 57 56 57c33 0 57 -24 57 -57c0 -32 -24 -56 -57 -56c-32 0 -56 24 -56 56z" />
    <glyph glyph-name="uni0917093C094D0930094D" horiz-adv-x="349" 
d="M374 650v-77h-156v-345h-96c-43 33 -58 89 -59 127l62 45v173h-149v77h398zM435 288v-88l-288 -221l-81 62zM239 -70c0 33 24 57 56 57c33 0 57 -24 57 -57c0 -32 -24 -56 -57 -56c-32 0 -56 24 -56 56z" />
    <glyph glyph-name="uni0918093C094D0930094D" horiz-adv-x="382" 
d="M470 291l55 -63c-11 -17 -70 -62 -91 -75l-273 -175l-80 69l150 80v4c-81 0 -150 53 -150 137c0 67 49 103 89 115v4c-53 6 -98 42 -98 104c0 41 23 66 42 78v4h-138v77h431v-77h-145c-63 0 -91 -33 -91 -76c0 -41 31 -73 100 -73h62v-78h-57c-67 0 -97 -30 -97 -73
c0 -41 30 -82 110 -82c84 0 148 47 181 100zM293 -54c0 33 24 57 56 57c33 0 57 -24 57 -57c0 -32 -24 -56 -57 -56c-32 0 -56 24 -56 56z" />
    <glyph glyph-name="uni0919093C094D0930094D" horiz-adv-x="631" 
d="M19 40c33 0 57 -24 57 -57c0 -32 -24 -56 -57 -56c-32 0 -56 24 -56 56c0 33 24 57 56 57zM249 -215l75 29l156 -175v-4h-122zM559 419c32 0 56 -24 56 -56c0 -31 -24 -56 -56 -56s-56 25 -56 56c0 32 24 56 56 56zM-24 650h679v-77h-208v-164h-182
c-59 0 -73 -17 -73 -48c0 -28 23 -61 58 -72l165 35c49 -20 87 -74 87 -142c0 -75 -47 -138 -125 -164l146 -149l-105 -24l-110 137l-114 -137l-105 27l142 142c-95 22 -160 91 -199 166l66 48c41 -84 112 -142 199 -142c69 0 116 35 116 95c0 23 -9 44 -26 57l-150 -34
c-83 31 -139 102 -139 177c0 63 43 106 120 106h137v86h-379v77z" />
    <glyph glyph-name="uni091A093C094D0930094D" horiz-adv-x="423" 
d="M298 -54c0 33 24 57 56 57c33 0 57 -24 57 -57c0 -32 -24 -56 -57 -56c-32 0 -56 24 -56 56zM453 650v-77h-477v77h477zM492 294l51 -59c-23 -37 -64 -71 -112 -97l-279 -151l-79 69l158 72v4c-65 9 -127 57 -127 141c0 58 33 90 51 105v4h-136v83h376v-82h-75
c-75 0 -118 -38 -118 -99c0 -56 40 -96 116 -96c101 0 152 64 174 106z" />
    <glyph glyph-name="uni091B093C094D0930094D" horiz-adv-x="684" 
d="M57 49c33 0 57 -24 57 -57c0 -32 -24 -56 -57 -56c-32 0 -56 24 -56 56c0 33 24 57 56 57zM708 573h-435c-65 0 -106 -39 -106 -96c0 -52 35 -88 98 -88h35v-81h-20c-65 -2 -98 -36 -98 -88c0 -57 43 -104 133 -104c126 0 233 99 233 219c0 56 -29 83 -65 83
c-29 0 -52 -20 -52 -51c0 -32 21 -54 58 -61l-57 -57c-49 12 -91 56 -91 119c0 70 57 128 141 128c91 0 154 -64 154 -162c0 -113 -78 -235 -211 -281l151 -154l-105 -24l-111 137l-113 -137l-106 27l135 134c-125 11 -192 91 -192 180c0 74 42 113 84 129v4
c-62 14 -100 62 -100 122c0 56 29 84 46 98v4h-138v77h732v-77z" />
    <glyph glyph-name="uni091C093C094D0930094D" horiz-adv-x="484" 
d="M508 650v-77h-532v77h532zM618 484v-78h-211v-4c18 -17 45 -48 45 -101c0 -82 -66 -147 -165 -147c-169 0 -248 165 -261 287l90 41c5 -123 64 -245 165 -245c51 0 79 31 79 73c0 57 -47 87 -87 97v7l39 70h306zM618 249v-87l-321 -216l-81 62zM55 78c0 33 24 57 56 57
c33 0 57 -24 57 -57c0 -32 -24 -56 -57 -56c-32 0 -56 24 -56 56z" />
    <glyph glyph-name="uni091D093C094D0930094D" horiz-adv-x="546" 
d="M684 238l-1 3c-41 -22 -95 -28 -138 -28c-28 0 -56 4 -78 10c4 -11 6 -24 6 -38c0 -92 -79 -146 -163 -154l1 -3l162 -104l-104 -55l-162 149c-110 2 -155 57 -155 106c0 28 15 52 35 62l139 -92h28c67 0 130 27 130 90c0 28 -14 46 -24 53l-149 -33
c-83 27 -141 98 -141 177c0 63 44 104 121 104h141v88h-356v77h594v-77h-145v-166h-189c-59 0 -69 -20 -69 -50c0 -29 24 -60 57 -69l163 35c29 -14 77 -33 142 -33c83 0 141 25 178 49v-175l-162 -172l-81 47zM102 -91c0 33 24 57 56 57c33 0 57 -24 57 -57
c0 -32 -24 -56 -57 -56c-32 0 -56 24 -56 56z" />
    <glyph glyph-name="uni091E093C094D0930094D" horiz-adv-x="518" 
d="M524 650v-77h-548v77h548zM608 173l-319 -230l-83 64l353 224v4c-9 1 -18 2 -27 4c-38 6 -81 18 -107 31c-30 -66 -103 -108 -189 -108c-110 0 -187 65 -221 119l66 64c31 -52 84 -98 155 -98c62 0 111 37 111 99c0 63 -46 91 -95 91c-31 0 -58 -10 -77 -24l-39 80
c30 17 71 31 119 31c93 0 171 -60 183 -152c0 -4 1 -16 1 -19c30 -17 99 -37 169 -46v-134zM46 64c0 33 24 57 56 57c33 0 57 -24 57 -57c0 -32 -24 -56 -57 -56c-32 0 -56 24 -56 56z" />
    <glyph glyph-name="uni091F093C094D0930094D" horiz-adv-x="514" 
d="M13 83c33 0 57 -24 57 -57c0 -32 -24 -56 -57 -56c-32 0 -56 24 -56 56c0 33 24 57 56 57zM237 -195l75 29l156 -175v-4h-122zM402 407l-145 -41c-99 -28 -117 -63 -117 -119c0 -62 50 -127 146 -127c71 0 121 24 164 69l50 -76c-37 -36 -80 -58 -126 -68l141 -144
l-105 -25l-110 138l-114 -138l-106 27l143 143c-107 29 -178 120 -178 219c0 92 50 145 155 176l106 32v100h-330v77h562v-77h-136v-166z" />
    <glyph glyph-name="uni0920093C094D0930094D" horiz-adv-x="585" 
d="M18 74c33 0 57 -24 57 -57c0 -32 -24 -56 -57 -56c-32 0 -56 24 -56 56c0 33 24 57 56 57zM248 -190l75 29l156 -175v-4h-122zM336 389l-80 -22c-99 -29 -118 -64 -118 -120c0 -62 48 -127 145 -127c112 0 166 65 166 138c0 74 -66 116 -113 131zM609 573h-209v-121
c68 -33 141 -95 141 -201c0 -93 -61 -174 -161 -203l148 -151l-105 -24l-110 137l-113 -137l-106 27l143 142c-116 23 -193 115 -193 222c0 92 51 145 156 176l105 32v101h-329v77h633v-77z" />
    <glyph glyph-name="uni0921093C094D0930094D" horiz-adv-x="552" 
d="M7 40c33 0 57 -24 57 -57c0 -32 -24 -56 -57 -56c-32 0 -56 24 -56 56c0 33 24 57 56 57zM241 -217l75 29l156 -175v-4h-122zM447 409h-182c-59 0 -73 -17 -73 -48c0 -28 23 -61 58 -72l165 35c49 -20 87 -74 87 -142c0 -76 -49 -141 -130 -165l144 -148l-105 -24
l-111 137l-113 -137l-106 27l144 143c-91 24 -155 92 -193 165l66 48c41 -84 112 -142 199 -142c69 0 116 35 116 95c0 23 -9 44 -26 57l-150 -34c-83 31 -139 102 -139 177c0 63 43 106 120 106h137v86h-379v77h600v-77h-129v-164z" />
    <glyph glyph-name="uni0922093C094D0930094D" horiz-adv-x="538" 
d="M9 77c33 0 57 -24 57 -57c0 -32 -24 -56 -57 -56c-32 0 -56 24 -56 56c0 33 24 57 56 57zM242 -202l75 29l156 -175v-4h-122zM426 427l-168 -43c-94 -24 -118 -66 -118 -124c0 -72 66 -147 168 -147c60 0 93 32 93 75c0 28 -20 50 -50 50c-38 0 -59 -30 -56 -67l-66 45
c4 46 45 104 129 104c73 0 132 -58 132 -130c0 -70 -45 -129 -118 -151l145 -149l-106 -24l-110 137l-113 -137l-106 27l149 148c-107 29 -187 120 -187 230c0 93 61 159 160 186l126 36v80h-354v77h587v-77h-137v-146z" />
    <glyph glyph-name="uni0923093C094D0930094D" horiz-adv-x="499" 
d="M337 361v212h-161v-213c0 -60 30 -90 81 -90c52 0 80 31 80 91zM82 361v212h-106v77h547v-77h-92v-210c0 -114 -71 -176 -175 -176c-105 0 -174 61 -174 174zM79 127c33 0 57 -24 57 -57c0 -32 -24 -56 -57 -56c-32 0 -56 24 -56 56c0 33 24 57 56 57zM226 39l403 239
v-87l-321 -214z" />
    <glyph glyph-name="uni0924093C094D0930094D" horiz-adv-x="335" 
d="M359 650v-77h-383v77h383zM428 262l-298 -207l-69 71l268 168c-19 48 -62 98 -138 98c-44 0 -82 -16 -118 -47l-63 79c40 32 96 60 170 60c127 0 215 -86 248 -222zM197 -37c0 33 24 57 56 57c33 0 57 -24 57 -57c0 -32 -24 -56 -57 -56c-32 0 -56 24 -56 56z" />
    <glyph glyph-name="uni0925093C094D0930094D" horiz-adv-x="409" 
d="M503 291l55 -65c-23 -31 -65 -66 -119 -96l-286 -159l-82 69l156 77v4c-87 11 -178 88 -187 233l110 30c129 36 157 77 157 130c0 40 -22 65 -61 65c-35 0 -61 -22 -61 -60c0 -19 9 -42 24 -57l-84 -25c-18 18 -32 48 -32 87c0 75 62 136 153 136c96 0 154 -62 154 -148
c0 -96 -66 -157 -185 -191c-10 -2 -53 -14 -64 -16c4 -41 43 -123 159 -123c100 0 166 58 193 109zM308 -52c0 33 24 57 56 57c33 0 57 -24 57 -57c0 -32 -24 -56 -57 -56c-32 0 -56 24 -56 56z" />
    <glyph glyph-name="uni0926093C094D0930094D" horiz-adv-x="539" 
d="M577 -273v-4h-122l-109 150l75 29zM226 77v4c-102 8 -180 93 -180 200c0 93 51 148 162 177l111 29v86h-343v77h587v-77h-149v-152l-152 -38c-94 -24 -122 -58 -122 -118c0 -66 54 -116 129 -116c37 0 63 9 82 25v100l65 24c28 -14 59 -42 59 -90c0 -43 -18 -65 -37 -85
l112 -143l-109 -27l-66 129l-241 -170l-80 68zM182 -170c0 33 24 57 56 57c33 0 57 -24 57 -57c0 -32 -24 -56 -57 -56c-32 0 -56 24 -56 56z" />
    <glyph glyph-name="uni0927093C094D0930094D" horiz-adv-x="393" 
d="M419 650v-77h-67v77h67zM289 192c90 0 149 50 180 100l53 -60c-16 -23 -46 -55 -101 -90l-257 -164l-80 69l150 80v4c-83 -1 -155 48 -155 134c0 73 49 108 90 118v4c-52 7 -97 41 -97 104c0 40 24 67 44 78v4h-140v77h273l13 -73c-56 -7 -91 -37 -91 -81
c0 -41 31 -72 99 -72h68v-78h-63c-68 0 -98 -29 -98 -75c0 -41 31 -79 112 -79zM297 -56c0 33 24 57 56 57c33 0 57 -24 57 -57c0 -32 -24 -56 -57 -56c-32 0 -56 24 -56 56z" />
    <glyph glyph-name="uni0928093C094D0930094D" horiz-adv-x="328" 
d="M352 650v-77h-376v77h376zM75 118l249 165c-17 61 -63 111 -139 111c-15 0 -24 -2 -36 -5v-67l-53 -19c-31 19 -65 62 -66 114l60 50c18 5 49 11 78 11c134 0 224 -80 253 -225l-271 -199zM226 -42c0 33 24 57 56 57c33 0 57 -24 57 -57c0 -32 -24 -56 -57 -56
c-32 0 -56 24 -56 56z" />
    <glyph glyph-name="uni092A093C094D0930094D" horiz-adv-x="332" 
d="M470 293c-3 -3 -28 -27 -36 -36l-299 -271l-91 54l211 170v4c-89 -2 -162 41 -162 151v208h-117v77h381v-77h-170v-192c0 -67 29 -97 93 -97c52 0 103 29 140 75zM244 -55c0 33 24 57 56 57c33 0 57 -24 57 -57c0 -32 -24 -56 -57 -56c-32 0 -56 24 -56 56z" />
    <glyph glyph-name="uni092B093C094D0930094D" horiz-adv-x="595" 
d="M217 -59c0 33 24 57 56 57c33 0 57 -24 57 -57c0 -32 -24 -56 -57 -56c-32 0 -56 24 -56 56zM271 265c52 0 92 33 106 61v247h-190v-210c0 -69 28 -98 84 -98zM470 269v-269h-93v225h-4l-243 -232l-88 61l175 138v4c-72 9 -124 57 -124 151v226h-117v77h644v-77h-150
v-152h4c20 24 65 54 127 54c53 0 101 -22 131 -60l-57 -68c-15 27 -46 46 -91 46c-65 0 -114 -50 -114 -124z" />
    <glyph glyph-name="uni092C093C094D0930094D" horiz-adv-x="368" 
d="M138 -16l-78 67l136 73v4c-59 12 -139 68 -139 179c0 121 100 198 207 198c26 0 48 -2 71 -8l4 -84c-22 8 -44 10 -65 10c-27 0 -52 -7 -72 -20l193 -157c15 19 24 39 29 54l57 -46c-20 -43 -58 -85 -106 -116zM274 186c31 0 57 9 78 23l-188 154
c-10 -17 -15 -36 -15 -58c0 -69 50 -119 125 -119zM385 650v-77h-405v77h405zM246 -64c0 33 24 57 56 57c33 0 57 -24 57 -57c0 -32 -24 -56 -57 -56c-32 0 -56 24 -56 56z" />
    <glyph glyph-name="uni092D093C094D0930094D" horiz-adv-x="348" 
d="M373 650v-77h-57v77h57zM453 301v-90l-295 -227l-79 62zM453 393v-84h-239v-89h-96c-37 27 -59 83 -60 124l63 47v117c0 47 -21 65 -68 65h-77v77h90c78 0 148 -36 148 -136v-121h239zM260 -66c0 33 24 57 56 57c33 0 57 -24 57 -57c0 -32 -24 -56 -57 -56
c-32 0 -56 24 -56 56z" />
    <glyph glyph-name="uni092E093C094D0930094D" horiz-adv-x="348" 
d="M373 650v-77h-159v-180h239v-84h-239v-89h-96c-37 27 -59 83 -60 124l63 47v182h-145v77h397zM453 301v-90l-295 -227l-79 62zM260 -65c0 33 24 57 56 57c33 0 57 -24 57 -57c0 -32 -24 -56 -57 -56c-32 0 -56 24 -56 56z" />
    <glyph glyph-name="uni092F093C094D0930094D" horiz-adv-x="375" 
d="M451 311l52 -65c-10 -18 -57 -58 -92 -80l-278 -185l-81 68l175 98v4c-88 11 -171 81 -181 220c86 20 140 49 140 111c0 31 -15 68 -39 91h-171v77h423v-77h-158v-4c27 -27 41 -61 41 -101c0 -72 -57 -117 -132 -134c9 -56 48 -121 144 -121c85 0 134 53 157 98zM268 -52
c0 33 24 57 56 57c33 0 57 -24 57 -57c0 -32 -24 -56 -57 -56c-32 0 -56 24 -56 56z" />
    <glyph glyph-name="uni0932093C094D0930094D" horiz-adv-x="460" 
d="M21 -76c0 33 24 56 54 56c33 0 56 -23 56 -56c0 -30 -23 -54 -56 -54c-30 0 -54 24 -54 54zM484 650v-77h-508v77h508zM214 459c64 0 108 -30 125 -78h4c13 46 54 83 118 83c63 0 106 -27 132 -55l-43 -70c-12 14 -40 40 -84 40c-48 0 -79 -32 -79 -92v-93h-89v93
c0 59 -29 88 -75 88c-41 0 -80 -28 -80 -105c0 -76 39 -147 121 -199l-71 -60c-84 57 -147 151 -147 262c0 124 84 186 168 186zM560 232l44 -57l-237 -193l-74 54z" />
    <glyph glyph-name="uni0933093C094D0930094D" horiz-adv-x="733" 
d="M112 25c33 0 57 -24 57 -57c0 -32 -24 -56 -57 -56c-32 0 -56 24 -56 56c0 33 24 57 56 57zM401 229l-2 -6c22 -46 53 -80 107 -80c57 0 94 47 94 122c0 70 -28 121 -85 121c-75 0 -92 -89 -114 -157zM333 302l2 7c-21 45 -55 79 -104 79c-57 0 -96 -49 -96 -122
c0 -70 26 -121 83 -121c75 0 95 89 115 157zM303 -71l147 146c-43 15 -71 45 -86 70c-31 -49 -76 -81 -151 -81c-103 0 -169 80 -169 199s74 203 183 203c77 0 122 -46 143 -79c30 48 75 80 150 80c104 0 172 -80 172 -199c0 -91 -42 -158 -106 -187l152 -155l-106 -24
l-110 137l-113 -137zM-24 650h781v-77h-781v77z" />
    <glyph glyph-name="uni0935093C094D0930094D" horiz-adv-x="329" 
d="M354 650v-77h-378v77h378zM400 299l64 -50c-19 -38 -49 -75 -98 -108l-228 -153l-83 68l134 73v4c-59 11 -131 69 -131 170c0 133 121 203 244 181l8 -85c-66 20 -153 -10 -153 -96c0 -62 45 -106 111 -106c81 0 119 63 132 102zM238 -63c0 33 24 57 56 57
c33 0 57 -24 57 -57c0 -32 -24 -56 -57 -56c-32 0 -56 24 -56 56z" />
    <glyph glyph-name="uni0936093C094D0930094D" horiz-adv-x="456" 
d="M549 243l-290 -192l-75 68l227 127v4c-70 20 -124 44 -167 70c-51 -24 -111 -43 -179 -61l-63 76c44 9 107 23 163 43c-52 45 -69 96 -69 140c0 76 62 143 159 143c88 0 156 -59 156 -145c0 -62 -33 -113 -91 -150c57 -30 150 -59 229 -77v-46zM185 516
c0 -37 18 -72 58 -103c50 25 79 59 79 103s-28 69 -66 69c-43 0 -71 -27 -71 -69zM69 1c0 33 24 57 56 57c33 0 57 -24 57 -57c0 -32 -24 -56 -57 -56c-32 0 -56 24 -56 56z" />
    <glyph glyph-name="uni0937093C094D0930094D" horiz-adv-x="320" 
d="M280 275c40 0 76 14 97 34l-136 136c-39 40 -66 67 -66 67s6 -30 6 -92v-53c0 -66 41 -92 99 -92zM469 301v-10l-326 -300l-91 55l201 160v4c-89 -2 -163 40 -163 150v213h-114v77h368v-77h-150zM243 -44c0 32 23 56 55 56s55 -24 55 -56c0 -31 -23 -55 -55 -55
s-55 24 -55 55z" />
    <glyph glyph-name="uni0938093C094D0930094D" horiz-adv-x="520" 
d="M15 8c0 32 23 56 55 56s56 -24 56 -56s-24 -55 -56 -55s-55 23 -55 55zM627 236l-201 -136l-71 64l176 108c-13 52 -47 89 -104 89c-102 0 -143 -106 -252 -90c1 -1 0 -2 0 -3c21 -23 38 -41 66 -78l116 -150l-78 -48l-262 342l70 59c20 -25 46 -50 87 -50
c38 0 59 17 59 61v169h-257v77h568v-77h-217v-154c25 14 62 28 107 28c100 0 182 -70 193 -211z" />
    <glyph glyph-name="uni0939093C094D0930094D" horiz-adv-x="562" 
d="M398 232h-108c-77 0 -116 -41 -116 -98c0 -66 50 -134 227 -151l-50 -73c-167 24 -271 105 -271 226c0 49 21 94 61 125c-46 26 -72 70 -72 117c0 62 49 108 129 108h183v87h-405v77h610v-77h-113v-167h-250c-46 0 -61 -16 -61 -41s22 -51 55 -66c23 7 48 9 76 9h141
l62 -59v-191h-81l2 99h-4l-93 -81l-80 35l158 117v4zM490 -294v-4h-122l-109 150l75 29zM23 -93c0 32 23 56 55 56s56 -24 56 -56s-24 -55 -56 -55s-55 23 -55 55z" />
    <glyph glyph-name="uni0915094D0915" horiz-adv-x="1361" 
d="M925 316v257h-489v-151h4c20 25 64 52 124 52c48 0 89 -16 118 -41c41 35 98 50 157 43l15 -84c-70 13 -136 -19 -136 -96c0 -55 40 -95 98 -95c66 0 109 48 109 115zM1385 573h-367v-151h4c21 24 62 52 125 52c94 0 173 -69 173 -176c0 -127 -105 -194 -216 -180l-15 84
c70 -13 135 19 135 95c0 57 -39 96 -96 96c-66 0 -110 -48 -110 -116v-277h-93v171h-4c-19 -23 -58 -52 -124 -52c-94 0 -175 71 -175 177c0 23 4 44 10 63c-19 20 -47 34 -84 34c-67 0 -112 -48 -112 -116v-277h-93v171h-4c-19 -23 -58 -52 -124 -52
c-94 0 -175 71 -175 177c0 127 106 193 217 180l15 -84c-70 13 -136 -19 -136 -96c0 -55 40 -95 98 -95c66 0 109 48 109 115v257h-367v77h1409v-77z" />
    <glyph glyph-name="uni0915094D0916" horiz-adv-x="1376" 
d="M891 573v-156c0 -88 -50 -133 -118 -133c-21 0 -36 4 -47 9c26 -118 118 -192 238 -192c128 0 234 84 234 215c0 65 -42 101 -88 101c-49 0 -83 -33 -83 -81c0 -52 42 -87 103 -90l-50 -59c-68 6 -140 58 -140 151c0 91 71 157 158 157c48 0 75 -14 93 -30h4v108h-304z
M696 395c12 -22 29 -37 58 -37c27 0 46 15 46 54v161h-364v-151h4c20 25 64 52 124 52c49 0 91 -18 121 -52zM1400 650v-77h-116v-573h-88v119h-4c-39 -46 -118 -97 -233 -97c-207 0 -325 158 -345 351c-16 12 -38 20 -66 20c-67 0 -112 -48 -112 -116v-277h-93v171h-4
c-19 -23 -58 -52 -124 -52c-94 0 -175 71 -175 177c0 127 106 193 217 180l15 -84c-70 13 -136 -19 -136 -96c0 -55 40 -95 98 -95c66 0 109 48 109 115v257h-367v77h1424z" />
    <glyph glyph-name="uni0915094D091A" horiz-adv-x="1221" 
d="M1034 366v207h-598v-151h4c20 23 58 52 117 52c19 0 40 -3 60 -9h334v-82h-73c-74 0 -115 -40 -115 -100c0 -54 41 -95 112 -95c93 0 159 66 159 178zM1245 650v-77h-116v-573h-95v179h-4c-21 -29 -74 -74 -173 -74c-121 0 -192 77 -192 165c0 61 30 93 50 108v4h-119
c-15 7 -33 11 -54 11c-63 0 -106 -47 -106 -116v-277h-93v171h-4c-19 -23 -58 -52 -124 -52c-94 0 -175 71 -175 177c0 127 106 193 217 180l15 -84c-70 13 -136 -19 -136 -96c0 -55 40 -95 98 -95c66 0 109 48 109 115v257h-367v77h1269z" />
    <glyph glyph-name="uni0915094D091C" horiz-adv-x="1313" 
d="M1126 446v127h-690v-151h4c20 25 64 52 124 52c43 0 83 -13 113 -38c7 -121 66 -248 166 -248c49 0 79 31 79 76c0 56 -46 91 -87 105v7l38 70h253zM1337 650v-77h-116v-573h-95v368h-160v-4c22 -17 49 -52 49 -108c0 -86 -65 -152 -165 -152c-163 0 -238 161 -256 281
c-13 5 -29 8 -46 8c-67 0 -112 -48 -112 -116v-277h-93v171h-4c-19 -23 -58 -52 -124 -52c-94 0 -175 71 -175 177c0 127 106 193 217 180l15 -84c-70 13 -136 -19 -136 -96c0 -55 40 -95 98 -95c66 0 109 48 109 115v257h-367v77h1361z" />
    <glyph glyph-name="uni0915094D091F" horiz-adv-x="1089" 
d="M436 422h4c20 25 64 52 124 52c65 0 109 -30 134 -66c21 13 47 24 77 33l106 32v100h-445v-151zM977 407l-145 -41c-99 -28 -117 -63 -117 -119c0 -62 51 -127 146 -127c72 0 121 24 164 69l50 -76c-57 -56 -130 -77 -202 -77c-148 0 -252 109 -252 229c0 31 5 57 17 80
c-14 24 -43 48 -90 48c-67 0 -112 -48 -112 -116v-277h-93v171h-4c-19 -23 -58 -52 -124 -52c-94 0 -175 71 -175 177c0 127 106 193 217 180l15 -84c-70 13 -136 -19 -136 -96c0 -55 40 -95 98 -95c66 0 109 48 109 115v257h-367v77h1137v-77h-136v-166z" />
    <glyph glyph-name="uni0915094D0923" horiz-adv-x="1325" 
d="M891 342v231h-160v-232c0 -60 30 -90 80 -90c52 0 80 30 80 91zM436 422h4c20 25 64 52 124 52c27 0 51 -5 73 -14v113h-201v-151zM1349 650v-77h-116v-573h-94v573h-154v-230c0 -114 -71 -175 -175 -175c-105 0 -173 60 -173 174v12c-20 23 -49 39 -89 39
c-67 0 -112 -48 -112 -116v-277h-93v171h-4c-19 -23 -58 -52 -124 -52c-94 0 -175 71 -175 177c0 127 106 193 217 180l15 -84c-70 13 -136 -19 -136 -96c0 -55 40 -95 98 -95c66 0 109 48 109 115v257h-367v77h1373z" />
    <glyph glyph-name="uni0915094D0924" horiz-adv-x="841" 
d="M152 353h-110v83h345v137h-411v77h890v-77h-386v-177l3 -1c15 15 52 48 125 48c106 0 188 -75 188 -193c0 -124 -93 -202 -202 -205l-23 83c74 -3 129 47 129 121c0 71 -47 112 -109 112c-60 0 -111 -44 -111 -109v-252h-93v354h-83c-74 0 -114 -47 -114 -115
c0 -80 51 -125 105 -155l-62 -64c-73 37 -137 111 -137 205c0 80 42 114 56 124v4z" />
    <glyph glyph-name="uni0915094D0925" horiz-adv-x="1260" 
d="M1075 650h210v-77h-116v-573h-93v181h-4c-24 -34 -84 -85 -188 -85c-140 0 -233 93 -252 224c-14 32 -40 56 -91 56c-60 0 -105 -43 -105 -114v-262h-94v171h-4c-18 -23 -57 -52 -123 -52c-95 0 -175 71 -175 177c0 127 106 193 217 180l14 -84c-69 13 -135 -19 -135 -96
c0 -55 40 -95 98 -95c65 0 108 48 108 115v257h-367v77h622v-77h-161v-164h4c20 24 58 50 117 50c70 0 114 -33 140 -86l42 11c130 36 158 77 158 130c0 40 -23 65 -62 65c-35 0 -61 -22 -61 -60c0 -19 10 -42 25 -57l-85 -25c-17 18 -32 48 -32 87c0 75 62 136 153 136
c96 0 155 -62 155 -148c0 -98 -69 -159 -191 -192c-8 -2 -50 -14 -59 -15c6 -39 43 -124 153 -124c124 0 182 89 182 187v282z" />
    <glyph glyph-name="uni0915094D0926" horiz-adv-x="1102" 
d="M436 422h4c20 25 64 52 124 52c53 0 97 -19 127 -49c23 14 50 25 83 33l111 27v88h-449v-151zM980 419l-150 -37c-93 -24 -124 -59 -124 -116c0 -69 59 -120 132 -119c35 1 63 10 80 25v99l65 25c27 -14 59 -42 59 -90c0 -40 -18 -67 -37 -86l115 -144l-109 -27l-71 131
c-25 -10 -58 -16 -89 -16c-139 0 -239 98 -239 217c0 31 6 58 18 81c-19 18 -46 31 -82 31c-67 0 -112 -48 -112 -116v-277h-93v171h-4c-19 -23 -58 -52 -124 -52c-94 0 -175 71 -175 177c0 127 106 193 217 180l15 -84c-70 13 -136 -19 -136 -96c0 -55 40 -95 98 -95
c66 0 109 48 109 115v257h-367v77h1151v-77h-147v-154z" />
    <glyph glyph-name="uni0915094D0928" horiz-adv-x="1104" 
d="M732 230l-52 -21c-43 24 -79 80 -79 159c-14 11 -32 17 -53 17c-67 0 -112 -47 -112 -115v-270h-93v171h-4c-19 -23 -58 -52 -124 -52c-94 0 -175 71 -175 177c0 127 106 193 217 180l15 -84c-70 13 -136 -19 -136 -96c0 -55 40 -95 98 -95c66 0 109 48 109 115v257h-367
v77h1152v-77h-116v-573h-94v327h-186v-97zM564 467c47 0 96 -16 133 -56h221v162h-482v-158h4c20 24 64 52 124 52z" />
    <glyph glyph-name="uni0915094D092A" horiz-adv-x="1128" 
d="M941 408v165h-208v-205c0 -69 32 -97 90 -97c75 0 118 56 118 137zM436 422h4c20 25 64 52 124 52c27 0 52 -5 74 -14v113h-202v-151zM1152 650v-77h-116v-573h-95v246h-4c-26 -36 -73 -58 -132 -58c-98 0 -165 61 -167 165c-19 23 -49 40 -90 40
c-67 0 -112 -48 -112 -116v-277h-93v171h-4c-19 -23 -58 -52 -124 -52c-94 0 -175 71 -175 177c0 127 106 193 217 180l15 -84c-70 13 -136 -19 -136 -96c0 -55 40 -95 98 -95c66 0 109 48 109 115v257h-367v77h1176z" />
    <glyph glyph-name="uni0915094D092B" horiz-adv-x="1363" 
d="M924 390v183h-190v-206c0 -68 26 -96 80 -96c71 0 110 49 110 119zM436 422h4c20 25 64 52 124 52c28 0 53 -5 75 -14v113h-203v-151zM1387 573h-370v-154h4c17 22 60 56 130 56c97 0 175 -69 175 -176c0 -126 -99 -200 -217 -187l-14 85c83 -16 135 33 135 101
c0 57 -39 94 -96 94c-70 0 -117 -55 -117 -130v-262h-93v238h-4c-17 -24 -56 -51 -119 -51c-101 0 -161 61 -162 165c-19 24 -49 41 -91 41c-67 0 -112 -48 -112 -116v-277h-93v171h-4c-19 -23 -58 -52 -124 -52c-94 0 -175 71 -175 177c0 127 106 193 217 180l15 -84
c-70 13 -136 -19 -136 -96c0 -55 40 -95 98 -95c66 0 109 48 109 115v257h-367v77h1411v-77z" />
    <glyph glyph-name="uni0915094D092C" horiz-adv-x="1158" 
d="M972 316v257h-536v-151h4c20 25 64 52 124 52c46 0 86 -15 115 -38c39 41 95 64 153 64c26 0 48 -2 71 -8l4 -84c-22 8 -45 10 -66 10c-26 0 -50 -7 -71 -19l186 -149c10 20 16 42 16 66zM919 208l-187 151c-10 -17 -15 -36 -15 -58c0 -69 49 -119 120 -119
c32 0 60 10 82 26zM1183 650v-77h-117v-573h-95v161h-4c-23 -28 -72 -59 -143 -59c-113 0 -199 81 -199 196c0 21 3 41 9 60c-20 21 -48 35 -86 35c-67 0 -112 -48 -112 -116v-277h-93v171h-4c-19 -23 -58 -52 -124 -52c-94 0 -175 71 -175 177c0 127 106 193 217 180
l15 -84c-70 13 -136 -19 -136 -96c0 -55 40 -95 98 -95c66 0 109 48 109 115v257h-367v77h1207z" />
    <glyph glyph-name="uni0915094D092E" horiz-adv-x="1130" 
d="M944 367v206h-191v-206h191zM436 409h4c20 24 62 51 122 51c39 0 71 -13 97 -35v148h-223v-164zM1154 650v-77h-116v-573h-94v283h-194v-105h-94c-44 34 -63 96 -63 140l33 24c-18 23 -45 37 -78 37c-67 0 -112 -47 -112 -116v-263h-93v171h-4c-19 -23 -58 -52 -124 -52
c-94 0 -175 71 -175 177c0 127 106 193 217 180l15 -84c-70 13 -136 -19 -136 -96c0 -55 40 -95 98 -95c66 0 109 48 109 115v257h-367v77h1178z" />
    <glyph glyph-name="uni0915094D092F" horiz-adv-x="1171" 
d="M985 363v210h-192v-4c27 -26 42 -60 42 -101c0 -70 -58 -120 -131 -137c8 -55 50 -118 139 -118c85 0 142 56 142 150zM436 414h4c18 24 58 51 107 51c54 0 98 -26 122 -74c45 19 70 47 70 91c0 31 -15 68 -39 91h-264v-159zM1195 650v-77h-116v-573h-94v194h-4
c-21 -24 -68 -64 -152 -64c-110 0 -198 72 -224 195h-1c-7 27 -26 56 -73 56c-50 0 -95 -41 -95 -114v-267h-93v171h-4c-19 -23 -58 -52 -124 -52c-94 0 -175 71 -175 177c0 124 104 194 217 180l15 -84c-66 13 -136 -16 -136 -96c0 -55 40 -95 98 -95c66 0 109 48 109 115
v257h-367v77h1219z" />
    <glyph glyph-name="uni0915094D0932" horiz-adv-x="1277" 
d="M1090 433v140h-654v-151h4c20 25 64 52 124 52c48 0 88 -16 118 -40c27 17 58 25 89 25c64 0 108 -30 125 -78h4c13 54 58 82 105 82c35 0 66 -13 81 -30h4zM1302 650v-77h-117v-573h-95v352c-12 12 -41 27 -70 27c-47 0 -76 -31 -76 -95v-95h-89v97c0 60 -29 90 -75 90
c-41 0 -80 -29 -80 -106c0 -83 46 -161 148 -215l-63 -65c-104 54 -182 158 -182 283c0 37 8 69 20 95c-18 15 -43 25 -75 25c-67 0 -112 -48 -112 -116v-277h-93v171h-4c-19 -23 -58 -52 -124 -52c-94 0 -175 71 -175 177c0 127 106 193 217 180l15 -84
c-70 13 -136 -19 -136 -96c0 -55 40 -95 98 -95c66 0 109 48 109 115v257h-367v77h1326z" />
    <glyph glyph-name="uni0915094D0935" horiz-adv-x="1135" 
d="M948 328v245h-512v-151h4c20 25 64 52 124 52c47 0 86 -15 115 -38c48 41 117 56 184 44l7 -85c-75 20 -152 -15 -152 -99c0 -61 42 -105 107 -105c77 0 123 61 123 137zM1159 650v-77h-116v-573h-95v163h-4c-20 -24 -64 -55 -136 -55c-102 0 -189 74 -189 187
c0 25 4 47 11 67c-20 19 -47 31 -82 31c-67 0 -112 -48 -112 -116v-277h-93v171h-4c-19 -23 -58 -52 -124 -52c-94 0 -175 71 -175 177c0 127 106 193 217 180l15 -84c-70 13 -136 -19 -136 -96c0 -55 40 -95 98 -95c66 0 109 48 109 115v257h-367v77h1183z" />
    <glyph glyph-name="uni0915094D0936" horiz-adv-x="1346" 
d="M854 451l-57 -61c-59 17 -93 64 -93 125c0 79 65 145 161 145c125 0 186 -91 186 -187c0 -141 -109 -218 -236 -225c-11 -1 -22 -1 -33 -1l-1 -4c30 -22 61 -44 110 -89l121 -116l-79 -54l-235 226l-74 59c2 7 2 14 2 21c0 47 -31 88 -87 88c-63 0 -103 -46 -103 -114
v-264h-93v171h-4c-19 -23 -58 -52 -124 -52c-94 0 -175 71 -175 177c0 116 89 181 189 181c10 0 19 0 28 -1l15 -84c-10 2 -20 2 -30 2c-57 0 -106 -32 -106 -98c0 -55 40 -95 98 -95c66 0 109 48 109 115v257h-367v77h619v-77h-159v-164h4c21 24 59 49 118 49
c75 0 131 -52 143 -123c28 -8 58 -11 81 -11c98 0 173 55 173 148c0 72 -42 109 -87 109s-69 -29 -69 -65c0 -29 18 -56 55 -65zM1159 650h211v-77h-116v-573h-95v650z" />
    <glyph glyph-name="uni0915094D0938" horiz-adv-x="1268" 
d="M901 573v-175c0 -15 -2 -28 -5 -40c28 -8 60 -12 94 -12s66 4 91 14v213h-180zM807 403v170h-371v-164h4c19 24 53 48 99 48c49 0 80 -18 122 -67c22 -26 46 -48 87 -48c38 0 59 18 59 61zM1293 650v-77h-116v-573h-96v270c-25 -6 -52 -9 -83 -9c-56 0 -109 12 -145 31
c-21 -15 -47 -23 -75 -24c-6 0 -19 0 -26 2l-1 -4c21 -23 41 -45 72 -85l110 -139l-77 -50l-255 328c-30 37 -50 56 -79 56c-50 0 -86 -45 -86 -117v-259h-93v171h-4c-19 -23 -58 -52 -124 -52c-94 0 -175 71 -175 177c0 127 106 193 217 180l15 -84
c-70 13 -136 -19 -136 -96c0 -55 40 -95 98 -95c66 0 109 48 109 115v257h-367v77h1317z" />
    <glyph glyph-name="uni0916094D0916" horiz-adv-x="1383" 
d="M899 573v-156c0 -88 -52 -132 -120 -132c-21 0 -37 4 -49 8c27 -117 117 -192 242 -192c127 0 233 84 233 215c0 65 -41 101 -88 101c-48 0 -82 -33 -82 -81c0 -52 42 -87 102 -90l-49 -59c-69 6 -140 58 -140 151c0 91 70 157 158 157c46 0 76 -14 93 -30h4v108h-304z
M327 573v-156c0 -88 -50 -133 -118 -133c-21 0 -36 4 -48 9c28 -119 121 -191 241 -191c128 0 235 85 235 215c0 64 -45 101 -92 101c-48 0 -82 -32 -82 -80c0 -52 42 -86 102 -89l-50 -59c-68 5 -138 56 -138 149c0 91 69 159 165 159c74 0 131 -41 158 -103
c14 -22 30 -37 62 -37c27 0 46 15 46 54v161h-481zM1408 650v-77h-116v-573h-89v119h-4c-39 -46 -117 -97 -233 -97c-131 0 -226 66 -281 166c-48 -94 -150 -165 -289 -165c-206 0 -327 158 -350 354l81 28c12 -28 32 -47 65 -47c26 0 44 15 44 54v161h-254v77h1426z" />
    <glyph glyph-name="uni0916094D0924" horiz-adv-x="1147" 
d="M961 448v125h-634v-156c0 -88 -50 -133 -118 -133c-21 0 -36 4 -48 9c28 -119 121 -191 241 -191c128 0 233 86 233 216c0 62 -43 100 -90 100c-48 0 -82 -32 -82 -80c0 -52 42 -86 102 -89l-50 -59c-68 5 -138 56 -138 149c0 91 69 159 165 159c69 0 124 -36 153 -91
c33 27 75 41 120 41h146zM1172 650v-77h-117v-573h-94v365h-131c-62 0 -107 -35 -107 -107c0 -93 53 -162 119 -210l-72 -57c-46 35 -90 85 -115 149c-55 -69 -145 -117 -259 -117c-206 0 -327 158 -350 354l81 28c12 -28 32 -47 65 -47c26 0 44 15 44 54v161h-254v77h1190z
" />
    <glyph glyph-name="uni0916094D0928" horiz-adv-x="1261" 
d="M1285 650v-77h-116v-573h-94v320h-186v-97l-52 -21c-44 25 -79 79 -79 150l68 51h249v170h-754v-156c0 -88 -50 -133 -118 -133c-22 0 -36 4 -48 9c28 -119 120 -191 240 -191c129 0 232 86 232 216c0 62 -41 100 -88 100c-48 0 -82 -32 -82 -80c0 -52 42 -86 102 -89
l-50 -59c-69 5 -138 56 -138 149c0 91 69 159 165 159c103 0 175 -79 175 -184c0 -147 -123 -291 -321 -291c-206 0 -327 158 -350 354l81 28c12 -28 32 -47 65 -47c26 0 44 15 44 54v161h-254v77h1309z" />
    <glyph glyph-name="uni0916094D092E" horiz-adv-x="1181" 
d="M996 367v206h-192v-206h192zM321 573v-156c0 -88 -50 -133 -118 -133c-22 0 -36 4 -48 9c28 -119 120 -191 240 -191c129 0 232 86 232 216c0 62 -41 100 -88 100c-48 0 -82 -32 -82 -80c0 -52 42 -86 102 -89l-50 -59c-69 5 -138 56 -138 149c0 91 69 159 165 159
c87 0 151 -56 170 -136l5 4v207h-390zM1206 650v-77h-117v-573h-93v283h-194v-105h-94c-8 6 -16 14 -22 22c-46 -99 -151 -177 -296 -177c-206 0 -327 158 -350 354l81 28c12 -28 32 -47 65 -47c26 0 44 15 44 54v161h-254v77h1230z" />
    <glyph glyph-name="uni0916094D092F" horiz-adv-x="1194" 
d="M1008 363v210h-192v-4c27 -26 42 -60 42 -101c0 -70 -60 -120 -133 -137c8 -54 52 -118 141 -118c86 0 142 56 142 150zM327 573v-156c0 -88 -50 -133 -118 -133c-21 0 -36 4 -48 9c28 -119 121 -191 241 -191c128 0 232 86 232 216c0 59 -40 100 -89 100
c-48 0 -82 -32 -82 -80c0 -52 42 -86 102 -89l-50 -59c-68 5 -138 56 -138 149c0 91 69 159 165 159c75 0 134 -42 160 -106c40 19 60 48 60 90c0 31 -15 68 -39 91h-396zM1219 650v-77h-117v-573h-94v194h-4c-21 -24 -68 -64 -151 -64c-66 0 -121 25 -161 71
c-45 -100 -150 -178 -296 -178c-206 0 -327 158 -350 354l81 28c12 -28 32 -47 65 -47c26 0 44 15 44 54v161h-254v77h1237z" />
    <glyph glyph-name="uni0916094D0935" horiz-adv-x="1144" 
d="M958 328v245h-631v-156c0 -88 -50 -133 -118 -133c-21 0 -36 4 -48 9c28 -119 121 -191 241 -191c128 0 232 86 232 216c0 62 -42 100 -89 100c-48 0 -82 -32 -82 -80c0 -52 42 -86 102 -89l-50 -59c-68 5 -138 56 -138 149c0 91 69 159 165 159c60 0 110 -27 141 -70
c45 47 117 65 189 52l7 -85c-74 21 -154 -14 -154 -98c0 -62 45 -106 109 -106c78 0 124 61 124 137zM1169 650v-77h-116v-573h-95v163h-4c-20 -24 -64 -55 -136 -55c-57 0 -107 24 -141 64c-51 -86 -150 -149 -281 -149c-206 0 -327 158 -350 354l81 28
c12 -28 32 -47 65 -47c26 0 44 15 44 54v161h-254v77h1187z" />
    <glyph glyph-name="uni0916094D0936" horiz-adv-x="1375" 
d="M877 450l-56 -60c-59 16 -92 64 -92 125c0 79 67 145 163 145c125 0 186 -91 186 -187c0 -153 -127 -231 -267 -226l-1 -4c29 -22 61 -44 110 -89l121 -116l-79 -54l-235 226l-29 23c-36 -115 -147 -210 -308 -210c-206 0 -327 158 -350 354l81 28c12 -28 32 -47 65 -47
c26 0 44 15 44 54v161h-254v77h632v-77h-287v-156c0 -88 -50 -133 -118 -133c-22 0 -36 4 -48 9c28 -119 120 -191 240 -191c129 0 232 86 232 216c0 62 -41 100 -88 100c-48 0 -82 -32 -82 -80c0 -52 42 -86 102 -89l-50 -59c-69 5 -138 56 -138 149c0 91 69 159 165 159
c94 0 162 -66 173 -157c33 -12 71 -17 102 -17c98 0 171 55 171 148c0 72 -42 109 -87 109s-71 -29 -71 -65c0 -29 17 -57 53 -66zM1188 650h211v-77h-116v-573h-95v650z" />
    <glyph glyph-name="uni0917094D0917" horiz-adv-x="865" 
d="M889 650v-77h-116v-573h-93v573h-168v-378h-96c-44 34 -62 92 -63 136l66 48v194h-204v-378h-96c-44 34 -62 92 -63 136l66 48v194h-146v77h913z" />
    <glyph glyph-name="uni0917094D0918" horiz-adv-x="954" 
d="M768 352v221h-194c-63 0 -93 -33 -93 -76c0 -41 31 -73 100 -73h62v-77h-57c-67 0 -98 -31 -98 -75c0 -40 29 -82 110 -82c109 0 170 74 170 162zM979 650v-77h-116v-573h-95v186h-4c-25 -31 -81 -75 -181 -75c-124 0 -193 71 -193 154c0 70 49 107 90 118v4
c-53 6 -98 42 -98 104c0 41 23 66 42 78v4h-209v-378h-96c-44 34 -62 92 -63 136l66 48v194h-146v77h1003z" />
    <glyph glyph-name="uni0917094D091C" horiz-adv-x="1068" 
d="M1092 650v-77h-116v-573h-95v368h-159v-4c21 -17 48 -52 48 -108c0 -86 -64 -152 -164 -152c-172 0 -248 179 -263 299l90 41c5 -123 63 -256 166 -256c48 0 78 31 78 76c0 56 -46 91 -87 105v7l39 70h252v127h-666v-378h-96c-44 34 -62 92 -63 136l66 48v194h-146v77
h1116z" />
    <glyph glyph-name="uni0917094D0923" horiz-adv-x="1068" 
d="M634 342v231h-160v-232c0 -60 30 -90 80 -90c52 0 80 30 80 91zM1092 650v-77h-116v-573h-94v573h-154v-230c0 -114 -71 -175 -175 -175c-105 0 -173 60 -173 174v231h-165v-378h-96c-44 34 -62 92 -63 136l66 48v194h-146v77h1116z" />
    <glyph glyph-name="uni0917094D0926" horiz-adv-x="850" 
d="M728 419l-150 -37c-93 -24 -124 -59 -124 -116c0 -69 59 -120 132 -119c35 1 63 10 80 25v99l65 25c27 -14 59 -42 59 -90c0 -40 -18 -67 -37 -86l115 -144l-109 -27l-71 131c-25 -10 -58 -16 -89 -16c-139 0 -239 98 -239 217c0 92 53 150 162 177l111 27v88h-418v-378
h-96c-44 34 -62 92 -63 136l66 48v194h-146v77h899v-77h-147v-154z" />
    <glyph glyph-name="uni0917094D0927" horiz-adv-x="941" 
d="M965 650v-77h-116v-573h-94v187h-4c-24 -29 -84 -74 -183 -74c-125 0 -192 72 -192 154c0 70 48 107 91 118v4c-53 6 -97 40 -97 103c0 40 23 66 43 77v4h-198v-378h-96c-44 34 -62 92 -63 136l66 48v194h-146v77h570l13 -73c-55 -7 -91 -36 -91 -80c0 -41 31 -71 99 -71
h68v-78h-62c-68 0 -99 -30 -99 -75c0 -39 27 -80 107 -80c112 0 175 78 175 163v217h-108v77h317z" />
    <glyph glyph-name="uni0917094D0928" horiz-adv-x="842" 
d="M866 650v-77h-116v-573h-94v320h-186v-97l-52 -21c-44 25 -79 79 -79 150l68 51h249v170h-441v-378h-96c-44 34 -62 92 -63 136l66 48v194h-146v77h890z" />
    <glyph glyph-name="uni0917094D092C" horiz-adv-x="885" 
d="M646 208l-187 151c-10 -17 -15 -36 -15 -58c0 -69 49 -119 120 -119c32 0 60 10 82 26zM910 650v-77h-117v-573h-95v161h-4c-23 -28 -72 -59 -143 -59c-113 0 -199 81 -199 196c0 124 101 202 207 202c26 0 48 -2 71 -8l4 -84c-22 8 -45 10 -66 10c-26 0 -50 -7 -71 -19
l186 -149c10 20 16 42 16 66v257h-484v-378h-96c-44 34 -62 92 -63 136l66 48v194h-146v77h934z" />
    <glyph glyph-name="uni0917094D092D" horiz-adv-x="909" 
d="M625 650h308v-77h-116v-573h-93v283h-204v-105h-94c-44 34 -63 96 -64 140l67 48v142c0 47 -22 65 -68 65h-146v-378h-96c-44 34 -62 92 -63 136l66 48v194h-146v77h399c78 0 147 -36 147 -136v-147h202v206h-99v77z" />
    <glyph glyph-name="uni0917094D092E" horiz-adv-x="899" 
d="M714 367v206h-192v-206h192zM924 650v-77h-117v-573h-93v283h-194v-105h-94c-44 34 -63 96 -64 140l67 48v207h-214v-378h-96c-44 34 -62 92 -63 136l66 48v194h-146v77h948z" />
    <glyph glyph-name="uni0917094D092F" horiz-adv-x="925" 
d="M739 363v210h-192v-4c27 -26 42 -60 42 -101c0 -70 -58 -120 -131 -137c8 -55 50 -118 139 -118c86 0 142 56 142 150zM950 650v-77h-117v-573h-94v194h-4c-20 -24 -68 -64 -151 -64c-124 0 -219 89 -232 240c88 18 141 49 141 112c0 31 -15 68 -39 91h-239v-378h-96
c-44 34 -62 92 -63 136l66 48v194h-146v77h974z" />
    <glyph glyph-name="uni0917094D0932" horiz-adv-x="1026" 
d="M1051 650v-77h-117v-573h-95v352c-12 12 -41 27 -70 27c-47 0 -76 -31 -76 -95v-95h-89v97c0 60 -29 90 -75 90c-41 0 -80 -29 -80 -106c0 -83 46 -161 148 -215l-63 -65c-104 54 -182 158 -182 283c0 124 84 186 168 186c64 0 108 -30 125 -78h4c13 54 58 82 105 82
c35 0 66 -13 81 -30h4v140h-624v-378h-96c-44 34 -62 92 -63 136l66 48v194h-146v77h1075z" />
    <glyph glyph-name="uni0917094D0935" horiz-adv-x="877" 
d="M901 650v-77h-116v-573h-95v163h-4c-20 -24 -64 -55 -136 -55c-102 0 -189 74 -189 187c0 143 125 206 244 185l7 -85c-75 20 -152 -15 -152 -99c0 -61 42 -105 107 -105c77 0 123 61 123 137v245h-475v-378h-96c-44 34 -62 92 -63 136l66 48v194h-146v77h925z" />
    <glyph glyph-name="uni0917094D0938" horiz-adv-x="1011" 
d="M644 573v-181c0 -12 -1 -24 -3 -35c26 -7 58 -11 91 -11c34 0 66 5 92 14v213h-180zM1035 650v-77h-116v-573h-95v271c-23 -5 -50 -8 -84 -8c-52 0 -104 11 -139 27c-22 -17 -50 -26 -80 -28c-7 0 -19 0 -27 2l-1 -3c22 -24 42 -46 73 -85l109 -140l-77 -49l-265 341
l71 57c22 -26 45 -49 87 -49c37 0 59 18 59 61v176h-335v-378h-96c-44 34 -62 92 -63 136l66 48v194h-146v77h1059z" />
    <glyph glyph-name="uni0918094D0928" horiz-adv-x="905" 
d="M-24 573v77h954v-77h-117v-573h-94v312h-185v-82c-67 -76 -154 -120 -263 -120c-125 0 -193 70 -193 153c0 70 48 107 90 118v4c-53 6 -99 43 -99 105c0 41 23 67 42 79v4h-135zM285 189c60 0 109 24 145 56c-18 26 -27 62 -28 99l68 52h249v177h-458
c-63 0 -92 -34 -92 -77c0 -42 30 -74 99 -74h63v-78h-58c-67 0 -97 -30 -97 -75c0 -39 28 -80 109 -80z" />
    <glyph glyph-name="uni0918094D092E" horiz-adv-x="968" 
d="M782 367v206h-192v-206h192zM331 344h-58c-67 0 -97 -30 -97 -75c0 -39 28 -80 109 -80c66 0 120 30 156 68c-7 21 -11 43 -11 61l67 48v207h-236c-63 0 -92 -34 -92 -77c0 -42 30 -74 99 -74h63v-78zM992 650v-77h-117v-573h-93v283h-194v-105h-94c-3 3 -6 5 -9 8
c-48 -43 -117 -76 -214 -76c-125 0 -193 70 -193 153c0 70 48 107 90 118v4c-53 6 -99 43 -99 105c0 41 23 67 42 79v4h-135v77h1016z" />
    <glyph glyph-name="uni0918094D092F" horiz-adv-x="994" 
d="M808 363v210h-192v-4c27 -26 42 -60 42 -101c0 -70 -58 -120 -131 -137c8 -55 50 -118 139 -118c86 0 142 56 142 150zM331 344h-58c-67 0 -97 -30 -97 -75c0 -39 28 -80 109 -80c71 0 127 34 162 75c-13 31 -23 66 -26 106c88 18 141 49 141 112c0 31 -15 68 -39 91
h-262c-63 0 -92 -34 -92 -77c0 -42 30 -74 99 -74h63v-78zM1019 650v-77h-117v-573h-94v194h-4c-20 -24 -68 -64 -151 -64c-63 0 -118 23 -159 65c-47 -47 -119 -85 -223 -85c-125 0 -193 70 -193 153c0 70 48 107 90 118v4c-53 6 -99 43 -99 105c0 41 23 67 42 79v4h-135
v77h1043z" />
    <glyph glyph-name="uni091A094D091A" horiz-adv-x="1041" 
d="M1064 650v-77h-116v-573h-95v179h-4c-21 -29 -74 -74 -174 -74c-80 0 -138 34 -168 83c-44 -46 -108 -83 -209 -83c-126 0 -199 77 -199 165c0 61 30 92 50 107v4h-135v84h347v-83h-49c-74 0 -115 -39 -115 -99c0 -54 43 -95 117 -95c94 0 149 60 171 102
c6 48 31 75 49 88v4h-122v83h358v-82h-73c-74 0 -115 -40 -115 -100c0 -54 41 -95 112 -95c93 0 159 66 159 178v207h-877v77h1088z" />
    <glyph glyph-name="uni091A094D091B" horiz-adv-x="1077" 
d="M848 486v87h-182c-65 0 -106 -39 -106 -96c0 -52 35 -88 98 -88h35v-81h-21c-64 -3 -98 -37 -98 -88c0 -57 47 -104 137 -104c126 0 230 95 230 211c0 55 -28 83 -64 83c-30 0 -53 -20 -53 -51c0 -32 21 -54 58 -61l-57 -57c-49 13 -91 56 -91 119c0 62 45 115 114 126z
M1101 573h-163v-97c56 -22 91 -77 91 -150c0 -142 -127 -292 -324 -292c-120 0 -196 58 -220 131c-44 -35 -104 -60 -187 -60c-126 0 -199 77 -199 165c0 61 30 92 50 107v4h-135v84h349v-83h-51c-74 0 -115 -39 -115 -99c0 -54 43 -95 117 -95c89 0 145 44 178 96
c16 31 42 51 69 61v4c-62 14 -100 62 -100 122c0 56 29 84 46 98v4h-531v77h1125v-77z" />
    <glyph glyph-name="uni091A094D0928" horiz-adv-x="944" 
d="M298 105c-126 0 -199 77 -199 165c0 61 30 92 50 107v4h-135v84h368v-83h-70c-74 0 -115 -39 -115 -99c0 -54 43 -95 117 -95c72 0 122 35 150 71c-14 26 -23 58 -23 93l68 51h249v170h-782v77h993v-77h-116v-573h-95v320h-185v-71c-69 -92 -161 -144 -275 -144z" />
    <glyph glyph-name="uni091A094D092E" horiz-adv-x="1014" 
d="M828 367v206h-191v-206h191zM1038 650v-77h-116v-573h-94v283h-193v-105h-95c-8 6 -15 13 -21 21c-45 -50 -112 -91 -218 -91c-125 0 -197 77 -197 166c0 61 30 91 50 106v4h-135v84h367v-83h-69c-74 0 -115 -39 -115 -98c0 -55 42 -96 116 -96c88 0 138 51 163 92
c-3 12 -4 24 -4 35l67 48v207h-564v77h1058z" />
    <glyph glyph-name="uni091A094D092F" horiz-adv-x="1034" 
d="M848 363v210h-192v-4c27 -26 42 -60 42 -101c0 -70 -58 -120 -131 -137c8 -55 50 -118 139 -118c86 0 142 56 142 150zM1059 650v-77h-117v-573h-94v194h-4c-20 -24 -68 -64 -151 -64c-67 0 -125 26 -167 73c-45 -53 -117 -98 -228 -98c-126 0 -199 77 -199 165
c0 61 30 92 50 107v4h-135v84h371v-83h-73c-74 0 -115 -39 -115 -99c0 -54 43 -95 117 -95c89 0 141 52 166 93c-10 27 -16 56 -19 89c88 18 141 49 141 112c0 31 -15 68 -39 91h-587v77h1083z" />
    <glyph glyph-name="uni091B094D0928" horiz-adv-x="1209" 
d="M1233 650v-77h-116v-573h-94v320h-186v-97l-52 -21c-44 25 -79 79 -79 150l68 51h249v170h-750c-65 0 -106 -39 -106 -96c0 -52 35 -88 98 -88h35v-81h-20c-65 -2 -98 -36 -98 -88c0 -57 43 -104 133 -104c126 0 233 99 233 219c0 56 -29 83 -65 83
c-29 0 -52 -20 -52 -51c0 -32 21 -54 58 -61l-57 -57c-49 12 -91 56 -91 119c0 70 57 128 141 128c91 0 154 -64 154 -162c0 -143 -124 -300 -327 -300c-146 0 -225 86 -225 182c0 74 42 113 84 129v4c-62 14 -100 62 -100 122c0 56 29 84 46 98v4h-138v77h1257z" />
    <glyph glyph-name="uni091B094D092F" horiz-adv-x="1258" 
d="M1072 280v293h-799c-65 0 -106 -39 -106 -96c0 -52 35 -88 98 -88h35v-81h-20c-65 -2 -98 -36 -98 -88c0 -57 43 -104 133 -104c126 0 233 99 233 219c0 56 -29 83 -65 83c-29 0 -52 -20 -52 -51c0 -32 21 -54 58 -61l-57 -57c-49 12 -91 56 -91 119c0 70 57 128 141 128
c44 0 82 -15 109 -42c58 17 131 32 193 32c96 0 161 -48 161 -129c0 -63 -50 -116 -121 -148c10 -37 46 -75 110 -75c89 0 138 64 138 146zM1283 650v-77h-117v-573h-94v117h-4c-23 -27 -74 -61 -142 -61c-116 0 -192 71 -214 178l60 30c68 33 87 61 87 94s-24 49 -71 49
c-51 0 -108 -9 -158 -22c4 -15 6 -33 6 -51c0 -143 -124 -300 -327 -300c-146 0 -225 86 -225 182c0 74 42 113 84 129v4c-62 14 -100 62 -100 122c0 56 29 84 46 98v4h-138v77h1307z" />
    <glyph glyph-name="uni091B094D0935" horiz-adv-x="684" 
d="M456 -40v98c-22 -8 -47 -14 -73 -17c-10 -1 -20 -1 -29 -2c-75 -4 -110 -46 -110 -100c0 -51 33 -95 100 -95c69 0 112 48 112 116zM489 301l-57 -57c-49 13 -91 56 -91 120c0 62 45 115 114 125v84h-182c-65 0 -106 -39 -106 -96c0 -52 35 -88 98 -88h35v-81h-21
c-64 -3 -97 -37 -97 -88c0 -57 43 -104 133 -104c126 0 233 94 233 215c0 55 -29 83 -65 83c-29 0 -52 -20 -52 -51c0 -33 21 -55 58 -62zM455 -186h-4c-14 -18 -53 -49 -122 -49c-105 0 -178 75 -178 171c0 57 24 93 56 118c-79 23 -123 93 -123 162c0 74 42 113 84 129v4
c-62 14 -100 62 -100 122c0 56 29 84 46 98v4h-138v77h732v-77h-163v-93c56 -22 91 -77 91 -150c0 -74 -33 -149 -92 -205v-417h-89v106z" />
    <glyph glyph-name="uni091C094D0915" horiz-adv-x="1279" 
d="M1303 573h-366v-151h4c20 24 61 52 124 52c95 0 174 -69 174 -176c0 -127 -106 -194 -216 -180l-15 84c70 -13 135 19 135 95c0 57 -40 96 -96 96c-66 0 -110 -48 -110 -116v-277h-94v171h-4c-18 -23 -57 -52 -123 -52c-95 0 -175 71 -175 177c0 27 5 51 13 72h-151v-4
c21 -17 48 -52 48 -108c0 -86 -64 -152 -164 -152c-172 0 -248 179 -263 299l90 41c5 -123 63 -256 166 -256c48 0 78 31 78 76c0 56 -46 91 -87 105v7l39 70h309c39 25 88 36 139 30l15 -84c-70 13 -136 -19 -136 -96c0 -55 40 -95 98 -95c65 0 108 48 108 115v257h-867v77
h1327v-77z" />
    <glyph glyph-name="uni091C094D091C" horiz-adv-x="1252" 
d="M1276 650v-77h-116v-573h-95v368h-159v-4c21 -17 48 -52 48 -108c0 -86 -64 -152 -165 -152c-155 0 -231 148 -254 264h-132v-4c21 -17 48 -52 48 -108c0 -86 -64 -152 -164 -152c-172 0 -248 179 -263 299l90 41c5 -123 63 -256 166 -256c48 0 78 31 78 76
c0 56 -46 91 -87 105v7l39 70h307l-1 -5h1c6 -122 64 -253 165 -253c49 0 79 31 79 76c0 56 -46 91 -87 105v7l38 70h253v127h-1089v77h1300z" />
    <glyph glyph-name="uni091C094D091D" horiz-adv-x="1275" 
d="M717 288l167 36c11 -4 22 -11 32 -20c22 -9 58 -16 92 -16c31 0 59 5 83 14v271h-174v-165h-188c-59 0 -69 -21 -69 -51c0 -29 24 -60 57 -69zM1299 650v-77h-116v-573h-92v217c-19 -4 -40 -6 -62 -6c-24 0 -46 4 -66 10c2 -11 3 -23 3 -36c0 -93 -79 -146 -163 -152v-4
l161 -103l-99 -53l-164 146c-110 2 -155 56 -155 105c0 30 17 51 36 61l138 -91h28c66 0 131 27 131 90c0 28 -14 46 -24 53l-150 -33c-78 26 -134 90 -139 164h-163v-4c21 -17 48 -52 48 -108c0 -86 -64 -152 -164 -152c-172 0 -248 179 -263 299l90 41
c5 -123 63 -256 166 -256c48 0 78 31 78 76c0 56 -46 91 -87 105v7l39 70h276c20 25 54 39 99 39h141v88h-850v77h1323z" />
    <glyph glyph-name="uni091C094D091F" horiz-adv-x="1008" 
d="M896 407l-144 -41c-100 -28 -118 -63 -118 -119c0 -62 51 -127 147 -127c71 0 120 24 164 69l49 -76c-57 -56 -130 -77 -202 -77c-148 0 -252 109 -252 229c0 36 8 66 23 91c-22 8 -46 12 -73 12h-87v-4c21 -17 48 -52 48 -108c0 -86 -64 -152 -164 -152
c-172 0 -248 179 -263 299l90 38c5 -122 64 -253 166 -253c48 0 78 31 78 76c0 56 -46 91 -87 105v7l39 70h181c44 0 98 -7 142 -29c18 9 38 17 62 24l105 32v100h-824v77h1057v-77h-137v-166z" />
    <glyph glyph-name="uni091C094D0921" horiz-adv-x="1046" 
d="M942 409h-183c-59 0 -72 -17 -72 -48c0 -28 22 -61 57 -72l165 35c50 -20 87 -74 87 -142c0 -98 -81 -176 -206 -176c-130 0 -216 83 -263 174l66 48c40 -84 112 -142 199 -142c69 0 116 35 116 95c0 23 -9 44 -26 57l-150 -34c-79 29 -133 94 -139 164h-190v-4
c21 -17 48 -52 48 -108c0 -86 -64 -152 -164 -152c-172 0 -248 179 -263 299l90 41c5 -123 63 -256 166 -256c48 0 78 31 78 76c0 56 -46 91 -87 105v7l39 70h303c20 26 54 41 100 41h136v86h-873v77h1095v-77h-129v-164z" />
    <glyph glyph-name="uni091C094D0924" horiz-adv-x="1060" 
d="M1085 650v-77h-116v-573h-95v365h-128c-61 0 -106 -36 -106 -107c0 -93 50 -162 116 -209l-73 -58c-72 54 -140 147 -140 269c0 42 10 78 28 106h-168v-4c21 -18 48 -53 48 -108c0 -86 -64 -152 -164 -152c-172 0 -248 179 -263 299l90 41c5 -123 63 -256 166 -256
c48 0 78 30 78 76c0 56 -46 91 -87 105v7l39 70h377c13 3 27 4 41 4h146v125h-898v77h1109z" />
    <glyph glyph-name="uni091C094D0926" horiz-adv-x="1028" 
d="M906 419l-150 -37c-94 -24 -124 -59 -124 -116c0 -69 58 -120 132 -119c34 1 63 10 79 25v99l65 25c28 -14 59 -42 59 -90c0 -40 -17 -67 -37 -86l116 -144l-109 -27l-71 131c-26 -10 -58 -16 -89 -16c-139 0 -239 98 -239 217c0 33 7 62 21 87h-156v-4
c21 -17 48 -52 48 -108c0 -86 -64 -152 -164 -152c-172 0 -248 179 -263 299l90 41c5 -123 63 -256 166 -256c48 0 78 31 78 76c0 56 -46 91 -87 105v7l39 70h350c13 5 26 9 40 12l110 27v88h-834v77h1076v-77h-146v-154z" />
    <glyph glyph-name="uni091C094D0928" horiz-adv-x="1019" 
d="M1044 650v-77h-116v-573h-95v325h-174v-97l-52 -21c-43 25 -78 80 -79 149h-126v-4c21 -17 48 -52 48 -108c0 -86 -64 -151 -165 -151c-171 0 -248 179 -262 299l89 40c6 -123 64 -256 166 -256c49 0 79 31 79 76c0 56 -46 92 -87 105v7l38 70h181c78 0 132 -17 155 -26
h189v165h-857v77h1068z" />
    <glyph glyph-name="uni091C094D092C" horiz-adv-x="1069" 
d="M829 208l-187 151c-10 -17 -15 -36 -15 -58c0 -69 49 -119 120 -119c32 0 60 10 82 26zM1093 650v-77h-116v-573h-95v161h-4c-23 -28 -72 -59 -144 -59c-112 0 -198 81 -198 196c0 25 4 49 12 70h-145v-4c21 -17 48 -52 48 -108c0 -86 -64 -152 -164 -152
c-172 0 -248 179 -263 299l90 41c5 -123 63 -256 166 -256c48 0 78 31 78 76c0 56 -46 91 -87 105v7l39 70h290c38 35 90 54 143 54c25 0 48 -2 70 -8l5 -84c-23 8 -45 10 -67 10c-25 0 -50 -7 -70 -20l185 -147c10 19 16 41 16 65v257h-906v77h1117z" />
    <glyph glyph-name="uni091C094D092E" horiz-adv-x="1070" 
d="M885 367v206h-192v-206h192zM1095 650v-77h-117v-573h-93v283h-194v-105h-94c-44 34 -63 96 -64 140l67 48v2h-197v-4c21 -17 48 -52 48 -108c0 -86 -64 -152 -164 -152c-172 0 -248 179 -263 299l90 41c5 -123 63 -256 166 -256c48 0 78 31 78 76c0 56 -46 91 -87 105v7
l39 70h290v127h-624v77h1119z" />
    <glyph glyph-name="uni091C094D092F" horiz-adv-x="1109" 
d="M923 363v210h-192v-4c27 -26 41 -60 41 -101c0 -70 -57 -120 -131 -137c8 -55 50 -118 140 -118c85 0 142 56 142 150zM1133 650v-77h-116v-573h-95v194h-4c-20 -24 -67 -64 -151 -64c-118 0 -210 82 -229 222c-20 11 -44 16 -81 16h-54v-4c21 -17 48 -52 48 -108
c0 -86 -64 -152 -164 -152c-172 0 -248 179 -263 299l90 38c5 -122 64 -253 166 -253c48 0 78 31 78 76c0 56 -46 91 -87 105v7l39 70h155c60 0 117 -16 154 -49c37 19 58 46 58 85c0 31 -15 68 -39 91h-662v77h1157z" />
    <glyph glyph-name="uni091C094D0935" horiz-adv-x="1050" 
d="M1074 650v-77h-116v-573h-94v163h-4c-21 -24 -65 -55 -136 -55c-102 0 -189 74 -189 187c0 27 5 52 13 73h-145v-4c21 -17 48 -52 48 -108c0 -86 -64 -152 -164 -152c-172 0 -248 179 -263 299l90 41c5 -123 63 -256 166 -256c48 0 78 31 78 76c0 56 -46 91 -87 105v7
l39 70h298c46 33 109 45 170 34l8 -85c-75 20 -153 -15 -153 -99c0 -61 43 -105 107 -105c78 0 124 61 124 137v245h-888v77h1098z" />
    <glyph glyph-name="uni091D094D0928" horiz-adv-x="1070" 
d="M884 413v160h-460v-166h-189c-58 0 -69 -20 -69 -50c0 -29 25 -60 57 -69l167 36c16 -6 33 -18 48 -36c20 -6 47 -10 75 -10c26 0 51 3 73 10c-9 22 -14 48 -14 76l63 49h249zM1095 650v-77h-116v-573h-95v330h-185v-88c-41 -23 -101 -41 -163 -41c-23 0 -45 3 -65 9
c1 -8 2 -16 2 -25c0 -92 -79 -146 -164 -154l3 -3l159 -102l-101 -53l-163 146c-110 2 -155 56 -155 105c0 30 17 51 36 61l138 -91h28c66 0 130 27 130 90c0 28 -14 46 -24 53l-149 -33c-83 27 -141 98 -141 177c0 63 44 104 120 104h142v88h-356v77h1119z" />
    <glyph glyph-name="uni091D094D092E" horiz-adv-x="1133" 
d="M948 367v206h-192v-206h192zM223 288l167 36c11 -4 23 -12 35 -22c21 -8 53 -14 88 -14c31 0 60 5 84 13c-1 6 -1 12 -1 17l67 48v207h-239v-166h-189c-58 0 -69 -20 -69 -50c0 -29 25 -60 57 -69zM1158 650v-77h-117v-573h-93v283h-194v-105h-94c-16 12 -29 28 -38 46
c-26 -8 -56 -13 -89 -13c-23 0 -44 3 -63 9c2 -11 3 -23 3 -35c0 -92 -79 -146 -164 -154l3 -3l159 -102l-101 -53l-163 146c-110 2 -155 56 -155 105c0 30 17 51 36 61l138 -91h28c66 0 130 27 130 90c0 28 -14 46 -24 53l-149 -33c-83 27 -141 98 -141 177
c0 63 44 104 120 104h142v88h-356v77h1182z" />
    <glyph glyph-name="uni091D094D092F" horiz-adv-x="1160" 
d="M974 363v210h-192v-4c27 -26 42 -60 42 -101c0 -70 -58 -120 -131 -137c8 -55 50 -118 139 -118c86 0 142 56 142 150zM223 288l167 36c11 -4 23 -12 35 -22c21 -8 53 -14 88 -14c32 0 62 6 86 14c-6 21 -10 44 -12 68c88 18 141 49 141 112c0 31 -15 68 -39 91h-265
v-166h-189c-58 0 -69 -20 -69 -50c0 -29 25 -60 57 -69zM1185 650v-77h-117v-573h-94v194h-4c-20 -24 -68 -64 -151 -64c-78 0 -144 35 -186 98c-27 -10 -61 -17 -100 -17c-23 0 -44 3 -63 9c2 -11 3 -23 3 -35c0 -92 -79 -146 -164 -154l3 -3l159 -102l-101 -53l-163 146
c-110 2 -155 56 -155 105c0 30 17 51 36 61l138 -91h28c66 0 130 27 130 90c0 28 -14 46 -24 53l-149 -33c-83 27 -141 98 -141 177c0 63 44 104 120 104h142v88h-356v77h1209z" />
    <glyph glyph-name="uni091E094D091B" horiz-adv-x="1166" 
d="M937 486v87h-182c-65 0 -105 -39 -105 -96c0 -52 35 -88 97 -88h36v-81h-21c-64 -3 -98 -37 -98 -88c0 -57 47 -104 137 -104c125 0 230 95 230 211c0 55 -29 83 -65 83c-29 0 -53 -20 -53 -51c0 -32 22 -54 59 -61l-57 -57c-50 13 -91 56 -91 119c0 62 45 115 113 126z
M1191 573h-164v-97c56 -22 91 -77 91 -150c0 -142 -127 -292 -323 -292c-147 0 -229 86 -229 182c0 13 1 25 4 36c-21 -2 -40 -3 -58 -3c-29 0 -59 3 -82 9c-18 -98 -100 -162 -206 -162c-108 0 -185 62 -220 118l61 69c34 -54 82 -100 158 -100c61 0 115 42 115 113
c0 68 -44 104 -103 104c-30 0 -55 -10 -72 -20l-35 81c27 14 63 27 108 27c101 0 176 -56 193 -149c23 -4 49 -6 73 -6c38 0 101 2 148 14v2c-62 14 -99 62 -99 122c0 56 29 84 45 98v4h-620v77h1215v-77z" />
    <glyph glyph-name="uni091E094D091C" horiz-adv-x="1257" 
d="M1281 650v-77h-116v-573h-95v368h-159v-4c21 -17 48 -52 48 -108c0 -86 -64 -152 -164 -152c-113 0 -185 77 -225 165c-19 -4 -42 -6 -67 -6s-50 2 -72 6c-12 -104 -96 -173 -207 -173c-108 0 -185 62 -220 118l61 69c34 -54 82 -100 158 -100c61 0 115 42 115 113
c0 68 -44 104 -103 104c-30 0 -55 -10 -72 -20l-35 81c27 14 63 27 108 27c96 0 169 -51 190 -136c22 -3 46 -5 67 -5c18 0 34 1 49 3c-5 18 -8 36 -10 53l90 41c5 -123 63 -256 166 -256c48 0 78 31 78 76c0 56 -46 91 -87 105v7l39 70h252v127h-1094v77h1305z" />
    <glyph glyph-name="uni091E094D0936" horiz-adv-x="1257" 
d="M512 650v-77h-536v77h536zM759 450l-56 -60c-60 16 -92 64 -92 125c0 79 67 145 163 145c125 0 186 -91 186 -187c0 -153 -127 -231 -267 -226l-1 -4c29 -22 61 -44 109 -89l121 -116l-78 -54l-235 226l-68 55c-10 -1 -21 -2 -32 -2c-26 0 -54 2 -78 7
c-12 -105 -96 -174 -207 -174c-108 0 -185 62 -220 118l61 69c34 -54 82 -100 158 -100c61 0 115 42 115 113c0 68 -44 104 -103 104c-30 0 -55 -10 -72 -20l-35 81c27 14 63 27 108 27c96 0 169 -51 190 -136c22 -3 46 -5 67 -5c29 0 61 2 82 7l16 -12
c33 -13 71 -18 102 -18c98 0 171 55 171 148c0 72 -42 109 -87 109c-46 0 -71 -29 -71 -65c0 -29 17 -57 53 -66zM1070 650h211v-77h-116v-573h-95v650z" />
    <glyph glyph-name="uni091F094D091F" horiz-adv-x="583" 
d="M445 466l-218 -55c-65 -16 -81 -33 -81 -65c0 -35 41 -87 151 -87c89 0 159 33 198 69l46 -74c-27 -23 -60 -41 -96 -54v-129l-218 -55c-65 -16 -81 -31 -81 -63c0 -35 41 -88 151 -88c89 0 159 33 198 70l46 -74c-60 -53 -153 -77 -234 -77c-166 0 -255 91 -255 179
c0 70 44 107 135 129l169 42v46c-17 -2 -33 -3 -49 -3c-166 0 -255 91 -255 180c0 70 44 107 135 130l168 42v44h-379v77h631v-77h-162v-107z" />
    <glyph glyph-name="uni091F094D0920" horiz-adv-x="598" 
d="M390 53l-158 -40c-64 -16 -83 -36 -83 -71c0 -33 34 -86 156 -86c125 0 183 50 183 109c0 52 -47 79 -98 88zM443 466l-218 -54c-65 -16 -79 -38 -79 -70c0 -35 39 -89 149 -89c89 0 159 33 198 69l46 -74c-28 -24 -63 -42 -100 -55v-75c78 -22 140 -71 140 -158
c0 -97 -89 -186 -263 -186c-162 0 -261 84 -261 180c0 69 45 112 135 135l160 40v44c-15 -1 -30 -2 -45 -2c-166 0 -253 93 -253 182c0 70 42 113 132 135l169 41v44h-377v77h647v-77h-180v-107z" />
    <glyph glyph-name="uni091F094D0928" horiz-adv-x="1039" 
d="M226 -62l75 29l156 -175v-4h-122zM1063 650v-77h-116v-573h-94v320h-186v-97l-52 -21c-44 25 -79 79 -79 150l68 51h249v170h-451v-166l-145 -41c-99 -28 -117 -63 -117 -119c0 -62 50 -127 146 -127c71 0 121 24 164 69l50 -76c-57 -56 -130 -77 -203 -77
c-148 0 -252 109 -252 229c0 92 50 145 155 176l106 32v100h-330v77h1087z" />
    <glyph glyph-name="uni091F094D092F" horiz-adv-x="1054" 
d="M868 282v291h-468v-116c49 16 126 32 180 32c93 0 161 -48 161 -129c0 -65 -50 -117 -121 -148c10 -38 44 -78 110 -78c91 0 138 67 138 148zM1078 650v-77h-116v-573h-94v117h-4c-23 -27 -75 -61 -142 -61c-114 0 -193 77 -214 181c14 6 51 24 60 29c67 35 87 66 87 95
c0 32 -24 49 -71 49c-41 0 -98 -10 -184 -32l-144 -41c-99 -28 -118 -56 -118 -111c0 -62 51 -123 147 -123c65 0 108 22 147 55l48 -77c-52 -44 -118 -62 -184 -62c-148 0 -252 104 -252 225c0 91 50 137 155 168l106 32v129h-329v77h1102z" />
    <glyph glyph-name="uni091F094D0935" horiz-adv-x="555" 
d="M143 187v4c-55 24 -88 77 -88 134c0 72 43 114 134 137l168 42v69h-381v77h603v-77h-132v-132l-218 -54c-65 -17 -80 -40 -80 -72c0 -38 40 -93 150 -93c89 0 159 33 198 70l46 -74c-26 -24 -59 -41 -96 -54v-353h-89v110h-4c-14 -18 -53 -48 -123 -48
c-103 0 -177 74 -177 170c0 75 42 121 89 144zM249 -48c70 0 110 49 110 116v67c-27 6 -60 11 -95 11c-82 0 -118 -46 -118 -100s39 -94 103 -94z" />
    <glyph glyph-name="uni0920094D0928" horiz-adv-x="1110" 
d="M256 -62l75 29l156 -175v-4h-122zM336 389l-80 -22c-99 -29 -118 -64 -118 -120c0 -62 48 -127 145 -127c112 0 166 65 166 138c0 74 -66 116 -113 131zM1134 650v-77h-116v-573h-94v320h-186v-97l-52 -21c-44 25 -79 79 -79 150l68 51h249v170h-524v-121
c68 -33 141 -95 141 -201c0 -117 -96 -215 -247 -215c-146 0 -250 104 -250 228c0 92 51 145 156 176l105 32v101h-329v77h1158z" />
    <glyph glyph-name="uni0920094D092F" horiz-adv-x="1163" 
d="M977 279v294h-577v-121c14 -7 29 -15 43 -25c47 25 142 65 238 65c100 0 169 -53 169 -133c0 -73 -57 -114 -123 -148c11 -40 44 -78 110 -78c88 0 140 67 140 146zM336 389l-80 -22c-99 -29 -118 -64 -118 -120c0 -62 48 -127 145 -127c112 0 166 65 166 138
c0 74 -66 116 -113 131zM1188 650v-77h-117v-573h-94v118h-4c-23 -27 -74 -63 -143 -63c-114 0 -190 76 -214 181l81 44c43 22 67 44 67 79c0 29 -18 53 -78 53c-58 0 -126 -19 -181 -46c22 -31 36 -69 36 -115c0 -117 -96 -215 -247 -215c-146 0 -250 104 -250 228
c0 92 51 145 156 176l105 32v101h-329v77h1212z" />
    <glyph glyph-name="uni0921094D0921" horiz-adv-x="564" 
d="M38 242l53 48c49 -63 117 -100 209 -100c82 0 120 36 120 76c0 18 -9 29 -20 36l-169 -30c-86 22 -133 81 -133 140c0 48 34 93 106 93h158v68h-392v77h624v-77h-142v-137h-214c-36 0 -48 -17 -48 -37c0 -19 15 -44 47 -49l194 32c42 -16 72 -62 72 -113
c0 -91 -81 -152 -201 -152c-31 0 -67 3 -92 10c-12 -8 -21 -20 -21 -39s14 -46 47 -52l195 32c41 -16 72 -60 72 -112c0 -91 -85 -153 -204 -153c-125 0 -216 66 -261 126l53 49c49 -63 117 -102 209 -102c79 0 120 37 120 77c0 18 -8 29 -19 36l-170 -29
c-83 17 -126 73 -126 131c0 24 8 48 26 68c-38 21 -71 54 -93 83z" />
    <glyph glyph-name="uni0921094D0922" horiz-adv-x="568" 
d="M507 270c-1 -104 -93 -145 -192 -154c-120 -16 -156 -59 -156 -114c0 -59 55 -123 159 -123c67 0 97 35 97 70c0 23 -16 44 -45 44c-37 0 -52 -32 -50 -60l-71 36c2 37 38 99 123 99c78 0 127 -56 127 -117c0 -77 -64 -147 -180 -147c-153 0 -251 96 -251 202
c0 61 34 113 94 136c-50 21 -94 55 -123 95l54 55c43 -56 99 -101 208 -101c84 0 118 38 118 74c0 18 -8 32 -19 39l-165 -30c-86 21 -133 84 -133 143c0 48 34 93 106 93h159v63h-391v77h616v-77h-136v-133h-212c-36 0 -48 -18 -48 -39c0 -18 15 -47 47 -52l193 32
c41 -17 71 -60 71 -111z" />
    <glyph glyph-name="uni0921094D0928" horiz-adv-x="1077" 
d="M236 -92l75 29l156 -175v-4h-122zM1101 650v-77h-116v-573h-94v320h-186v-97l-52 -21c-44 25 -79 79 -79 150l68 51h249v170h-444v-164h-182c-59 0 -73 -17 -73 -48c0 -28 23 -61 58 -72l165 35c49 -20 87 -74 87 -142c0 -98 -81 -176 -206 -176c-130 0 -217 83 -264 174
l66 48c41 -84 112 -142 199 -142c69 0 116 35 116 95c0 23 -9 44 -26 57l-150 -34c-83 31 -139 102 -139 177c0 63 43 106 120 106h137v86h-379v77h1125z" />
    <glyph glyph-name="uni0921094D092F" horiz-adv-x="1111" 
d="M925 284v289h-478v-86h194c105 0 157 -53 157 -126s-57 -115 -123 -145c11 -40 45 -78 111 -78c88 0 139 67 139 146zM1135 650v-77h-116v-573h-94v121h-4c-23 -26 -76 -61 -142 -61c-115 0 -192 76 -215 181l80 39c44 22 68 44 68 80c0 29 -14 49 -74 49h-373
c-59 0 -73 -17 -73 -48c0 -28 23 -61 58 -72l165 35c49 -20 87 -74 87 -142c0 -98 -81 -176 -206 -176c-130 0 -217 83 -264 174l66 48c41 -84 112 -142 199 -142c69 0 116 35 116 95c0 23 -9 44 -26 57l-150 -34c-83 31 -139 102 -139 177c0 63 43 106 120 106h137v86h-379
v77h1159z" />
    <glyph glyph-name="uni0921094D0935" horiz-adv-x="553" 
d="M367 -4v63c-12 2 -72 3 -80 3c-74 0 -114 -36 -114 -92c0 -48 28 -85 92 -85c60 0 102 43 102 111zM447 423h-195c-50 0 -60 -15 -60 -37s14 -54 50 -66l178 34c43 -16 78 -62 78 -129c0 -40 -15 -80 -45 -110v-378h-87v114h-4c-15 -17 -52 -45 -114 -45
c-100 0 -167 70 -167 162c0 61 29 101 64 125c-51 30 -85 74 -109 112l63 51c38 -69 102 -120 192 -120c88 0 120 41 120 88c0 20 -8 36 -18 45l-162 -32c-85 30 -133 99 -133 167c0 53 37 96 112 96h146v73h-380v77h600v-77h-129v-150z" />
    <glyph glyph-name="uni0922094D092F" horiz-adv-x="1077" 
d="M891 284v289h-466v-83c36 5 151 11 177 11c98 0 162 -45 162 -136c0 -69 -50 -116 -122 -147c11 -41 44 -79 110 -79c88 0 139 65 139 145zM1102 650v-77h-117v-573h-94v121h-4c-23 -27 -75 -60 -142 -60c-114 0 -193 76 -211 181c12 7 48 25 57 30c65 35 87 65 87 94
c0 37 -24 58 -77 58c-15 0 -134 -5 -178 -14l-166 -43c-94 -24 -118 -65 -118 -123c0 -72 66 -148 168 -148c60 0 93 32 93 76c0 28 -20 50 -51 50c-37 0 -58 -31 -55 -67l-66 45c3 46 45 103 129 103c73 0 131 -57 131 -129c0 -88 -72 -160 -181 -160
c-143 0 -264 104 -264 241c0 92 61 159 160 186l126 35v97h-353v77h1126z" />
    <glyph glyph-name="uni0923094D091F" horiz-adv-x="1008" 
d="M329 342v231h-156v-231c0 -60 27 -91 78 -91c52 0 78 31 78 91zM896 407l-145 -41c-99 -28 -117 -63 -117 -119c0 -62 50 -127 146 -127c71 0 121 24 164 69l50 -76c-57 -56 -130 -77 -203 -77c-148 0 -252 109 -252 229c0 92 50 145 155 176l106 32v100h-378v-229
c0 -114 -68 -176 -172 -176c-105 0 -171 61 -171 175v230h-103v77h1056v-77h-136v-166z" />
    <glyph glyph-name="uni0923094D0920" horiz-adv-x="1079" 
d="M830 389l-80 -22c-99 -29 -118 -64 -118 -120c0 -62 48 -127 145 -127c112 0 166 65 166 138c0 74 -66 116 -113 131zM329 342v231h-156v-231c0 -60 27 -91 78 -91c52 0 78 31 78 91zM1103 573h-209v-121c68 -33 141 -95 141 -201c0 -117 -96 -215 -247 -215
c-146 0 -250 104 -250 228c0 92 51 145 156 176l105 32v101h-377v-229c0 -114 -68 -176 -172 -176c-105 0 -171 61 -171 175v230h-103v77h1127v-77z" />
    <glyph glyph-name="uni0923094D0921" horiz-adv-x="1046" 
d="M329 342v231h-156v-231c0 -60 27 -91 78 -91c52 0 78 31 78 91zM941 409h-182c-59 0 -73 -17 -73 -48c0 -28 23 -61 58 -72l165 35c49 -20 87 -74 87 -142c0 -98 -81 -176 -206 -176c-130 0 -217 83 -264 174l66 48c41 -84 112 -142 199 -142c69 0 116 35 116 95
c0 23 -9 44 -26 57l-150 -34c-83 31 -139 102 -139 177c0 63 43 106 120 106h137v86h-427v-229c0 -114 -68 -176 -172 -176c-105 0 -171 61 -171 175v230h-103v77h1094v-77h-129v-164z" />
    <glyph glyph-name="uni0923094D0922" horiz-adv-x="1032" 
d="M329 342v231h-156v-231c0 -60 27 -91 78 -91c52 0 78 31 78 91zM919 427l-168 -43c-94 -24 -118 -66 -118 -124c0 -72 66 -147 168 -147c60 0 93 32 93 75c0 28 -20 50 -50 50c-38 0 -59 -30 -56 -67l-66 45c4 46 45 104 129 104c73 0 132 -58 132 -130
c0 -88 -72 -160 -182 -160c-143 0 -264 105 -264 241c0 93 61 159 160 186l126 36v80h-401v-229c0 -114 -68 -176 -172 -176c-105 0 -171 61 -171 175v230h-103v77h1080v-77h-137v-146z" />
    <glyph glyph-name="uni0923094D0923" horiz-adv-x="1261" 
d="M826 342v231h-160v-232c0 -60 30 -90 80 -90c52 0 80 30 80 91zM329 342v231h-156v-231c0 -60 27 -91 78 -91c52 0 78 31 78 91zM1284 650v-77h-116v-573h-94v573h-154v-230c0 -114 -71 -175 -175 -175c-105 0 -173 60 -173 174v231h-150v-229c0 -114 -68 -176 -172 -176
c-105 0 -171 61 -171 175v230h-103v77h1308z" />
    <glyph glyph-name="uni0923094D092E" horiz-adv-x="1081" 
d="M895 367v206h-192v-206h192zM329 342v231h-156v-231c0 -60 27 -91 78 -91c52 0 78 31 78 91zM1105 650v-77h-117v-573h-93v283h-194v-105h-94c-44 34 -63 96 -64 140l67 48v207h-188v-229c0 -114 -68 -176 -172 -176c-105 0 -171 61 -171 175v230h-103v77h1129z" />
    <glyph glyph-name="uni0923094D092F" horiz-adv-x="1108" 
d="M921 363v210h-192v-4c27 -26 42 -60 42 -101c0 -70 -58 -120 -131 -137c8 -55 50 -118 139 -118c86 0 142 56 142 150zM329 342v231h-156v-231c0 -60 27 -91 78 -91c52 0 78 31 78 91zM1132 650v-77h-117v-573h-94v194h-4c-20 -24 -68 -64 -151 -64
c-124 0 -219 89 -232 240c88 18 141 49 141 112c0 31 -15 68 -39 91h-214v-229c0 -114 -68 -176 -172 -176c-105 0 -171 61 -171 175v230h-103v77h1156z" />
    <glyph glyph-name="uni0923094D0935" horiz-adv-x="1049" 
d="M329 342v231h-156v-231c0 -60 27 -91 78 -91c52 0 78 31 78 91zM1074 650v-77h-116v-573h-95v163h-4c-20 -24 -64 -55 -136 -55c-102 0 -189 74 -189 187c0 143 125 206 244 185l7 -85c-75 20 -152 -15 -152 -99c0 -61 42 -105 107 -105c77 0 123 61 123 137v245h-441
v-229c0 -114 -68 -176 -172 -176c-105 0 -171 61 -171 175v230h-103v77h1098z" />
    <glyph glyph-name="uni0924094D0915" horiz-adv-x="1094" 
d="M1118 573h-366v-151h4c20 24 61 52 124 52c95 0 174 -69 174 -176c0 -127 -106 -194 -216 -180l-15 84c70 -13 135 19 135 95c0 57 -40 96 -96 96c-66 0 -110 -48 -110 -116v-277h-94v171h-4c-18 -23 -57 -52 -123 -52c-95 0 -175 71 -175 177c0 26 4 49 12 69h-116
c-62 0 -106 -36 -106 -107c0 -93 50 -162 115 -209l-72 -58c-73 54 -140 147 -140 269c0 123 87 188 185 188h203c38 24 87 34 136 28l15 -84c-70 13 -136 -19 -136 -96c0 -55 40 -95 98 -95c65 0 108 48 108 115v257h-682v77h1142v-77z" />
    <glyph glyph-name="uni0924094D0916" horiz-adv-x="1121" 
d="M637 573v-156c0 -88 -51 -133 -119 -133c-21 0 -36 4 -47 9c27 -118 119 -192 238 -192c128 0 234 84 234 215c0 65 -41 101 -88 101c-49 0 -83 -33 -83 -81c0 -52 43 -87 103 -90l-49 -59c-69 6 -141 58 -141 151c0 91 71 157 158 157c48 0 76 -14 93 -30h4v108h-303z
M1145 650v-77h-116v-573h-88v119h-4c-39 -46 -117 -97 -233 -97c-202 0 -320 151 -347 343h-105c-62 0 -106 -36 -106 -107c0 -93 50 -162 115 -209l-72 -58c-73 54 -140 147 -140 269c0 123 87 188 185 188h181l20 -43h1c13 -28 31 -47 64 -47c26 0 46 15 46 54v161h-570
v77h1169z" />
    <glyph glyph-name="uni0924094D0924" horiz-adv-x="603" 
d="M129 356v4h-108v84h395v129h-440v77h651v-77h-116v-573h-95v361h-129c-71 0 -110 -45 -110 -112c0 -93 56 -156 113 -197l-68 -61c-74 53 -140 147 -140 247c0 71 31 103 47 118z" />
    <glyph glyph-name="uni0924094D0925" horiz-adv-x="1006" 
d="M336 650v-77h-360v77h360zM820 650h210v-77h-116v-573h-93v181h-4c-24 -34 -84 -85 -188 -85c-144 0 -238 98 -253 235c-22 22 -51 34 -105 34h-20c-61 0 -106 -36 -106 -107c0 -93 50 -162 116 -209l-73 -58c-72 54 -140 147 -140 269c0 123 87 188 185 188h45
c77 0 137 -26 174 -73l33 9c129 36 157 77 157 130c0 40 -22 65 -62 65c-35 0 -60 -22 -60 -60c0 -19 8 -40 22 -55l-85 -21c-15 16 -29 46 -29 82c0 74 61 135 152 135c97 0 155 -62 155 -148c0 -98 -69 -159 -191 -192c-8 -2 -50 -14 -59 -15c6 -39 44 -124 153 -124
c124 0 182 89 182 187v282z" />
    <glyph glyph-name="uni0924094D0928" horiz-adv-x="840" 
d="M253 48l-72 -58c-69 54 -132 142 -132 260c0 123 87 186 185 186h69c71 0 118 -16 143 -27h208v164h-678v77h889v-77h-116v-573h-95v325h-185v-97l-52 -21c-44 25 -77 78 -80 146h-85c-62 0 -106 -35 -106 -105c0 -88 45 -153 107 -200z" />
    <glyph glyph-name="uni0924094D092A" horiz-adv-x="880" 
d="M693 408v165h-208v-205c0 -69 32 -97 90 -97c75 0 118 56 118 137zM904 650v-77h-116v-573h-95v246h-4c-26 -36 -73 -58 -132 -58c-100 0 -167 63 -167 170v7h-138c-62 0 -106 -36 -106 -107c0 -93 50 -162 115 -209l-72 -58c-73 54 -140 147 -140 269
c0 123 87 188 185 188h156v125h-414v77h928z" />
    <glyph glyph-name="uni0924094D092B" horiz-adv-x="1120" 
d="M682 390v183h-190v-206c0 -68 26 -96 80 -96c71 0 110 49 110 119zM1145 573h-370v-154h4c17 22 60 56 130 56c97 0 175 -69 175 -176c0 -126 -99 -200 -217 -187l-14 85c83 -16 135 33 135 101c0 57 -39 94 -96 94c-70 0 -117 -55 -117 -130v-262h-93v238h-4
c-17 -24 -56 -51 -119 -51c-102 0 -162 62 -162 167v11h-145c-62 0 -106 -36 -106 -107c0 -93 50 -162 115 -209l-72 -58c-73 54 -140 147 -140 269c0 123 87 188 185 188h163v125h-421v77h1169v-77z" />
    <glyph glyph-name="uni0924094D092E" horiz-adv-x="903" 
d="M718 367v206h-192v-206h192zM928 650v-77h-117v-573h-93v283h-194v-105h-94c-44 34 -63 96 -64 140l66 47h-180c-62 0 -106 -36 -106 -107c0 -93 50 -162 115 -209l-72 -58c-73 54 -140 147 -140 269c0 123 87 188 185 188h199v125h-457v77h952z" />
    <glyph glyph-name="uni0924094D092F" horiz-adv-x="930" 
d="M744 363v210h-192v-4c27 -26 41 -60 41 -101c0 -70 -57 -120 -131 -137c8 -55 50 -118 140 -118c85 0 142 56 142 150zM954 650v-77h-116v-573h-94v194h-4c-21 -24 -68 -64 -152 -64c-117 0 -208 80 -228 217c-20 12 -44 18 -84 18h-25c-61 0 -106 -36 -106 -107
c0 -93 50 -162 116 -209l-73 -58c-72 54 -140 147 -140 269c0 123 87 188 185 188h50c63 0 121 -17 156 -52c38 19 59 46 59 86c0 31 -15 68 -39 91h-483v77h978z" />
    <glyph glyph-name="uni0924094D0932" horiz-adv-x="1036" 
d="M1060 650v-77h-116v-573h-95v352c-13 12 -42 27 -70 27c-48 0 -77 -31 -77 -95v-95h-89v97c0 60 -29 90 -74 90c-42 0 -81 -29 -81 -106c0 -83 47 -161 148 -215l-62 -65c-104 54 -182 158 -182 283c0 31 5 58 14 81c-18 8 -39 11 -69 11h-56c-61 0 -106 -36 -106 -107
c0 -93 50 -162 116 -209l-73 -58c-72 54 -140 147 -140 269c0 123 87 188 185 188h81c42 0 82 -7 115 -23c29 23 65 34 101 34c64 0 108 -30 124 -78h4c14 54 59 82 106 82c35 0 65 -13 81 -30h4v140h-873v77h1084z" />
    <glyph glyph-name="uni0924094D0935" horiz-adv-x="871" 
d="M896 650v-77h-117v-573h-94v163h-4c-21 -24 -65 -55 -136 -55c-102 0 -189 74 -189 187c0 26 4 49 12 70h-116c-62 0 -106 -36 -106 -107c0 -93 50 -162 115 -209l-72 -58c-73 54 -140 147 -140 269c0 123 87 188 185 188h198c46 32 107 43 167 32l8 -85
c-75 20 -153 -15 -153 -99c0 -61 43 -105 108 -105c77 0 123 61 123 137v245h-709v77h920z" />
    <glyph glyph-name="uni0924094D0938" horiz-adv-x="1011" 
d="M643 573v-175c0 -15 -2 -28 -5 -40c28 -8 60 -12 94 -12s65 4 91 14v213h-180zM1035 650v-77h-116v-573h-96v270c-24 -6 -52 -9 -83 -9c-56 0 -109 12 -145 31c-21 -15 -47 -23 -75 -24c-6 0 -19 0 -26 2l-1 -4c21 -23 41 -45 72 -85l110 -139l-77 -50l-266 342l-17 22
h-63c-62 0 -106 -35 -106 -106c0 -92 49 -157 115 -204l-72 -57c-71 52 -140 143 -140 264c0 122 87 186 185 186h130l45 -55c20 -23 43 -42 81 -42s59 18 59 61v170h-573v77h1059z" />
    <glyph glyph-name="uni0925094D0928" horiz-adv-x="976" 
d="M468 650h533v-77h-116v-573h-95v320h-185v-97l-52 -21l-8 5c-44 -56 -119 -110 -249 -110c-154 0 -258 109 -265 257l111 30c129 37 158 78 158 130c0 40 -25 65 -63 65c-35 0 -60 -22 -60 -60c0 -19 9 -42 24 -57l-84 -25c-18 18 -33 48 -33 87c0 75 62 136 153 136
c95 0 156 -62 156 -148c0 -95 -69 -158 -190 -192c-8 -2 -51 -14 -60 -15c5 -41 51 -124 162 -124c96 0 153 49 183 96c-9 22 -15 47 -15 75l68 51h249v170h-322v77z" />
    <glyph glyph-name="uni0925094D092F" horiz-adv-x="1051" 
d="M866 363v210h-192v-4c27 -26 41 -60 41 -101c0 -70 -58 -120 -131 -137c8 -55 50 -118 140 -118c85 0 142 56 142 150zM483 650h593v-77h-116v-573h-95v194h-4c-20 -24 -68 -64 -151 -64c-67 0 -126 27 -168 75c-44 -55 -118 -108 -246 -108c-154 0 -258 109 -265 257
l111 30c129 37 158 78 158 130c0 40 -25 65 -63 65c-35 0 -60 -22 -60 -60c0 -19 9 -42 24 -57l-84 -25c-18 18 -33 48 -33 87c0 75 62 136 153 136c95 0 156 -62 156 -148c0 -95 -69 -158 -190 -192c-8 -2 -51 -14 -60 -15c5 -41 51 -124 162 -124c103 0 163 54 191 104
c-9 26 -15 54 -18 85c88 18 141 49 141 112c0 31 -15 68 -39 91h-97v77z" />
    <glyph glyph-name="uni0925094D0935" horiz-adv-x="1000" 
d="M483 650h542v-77h-117v-573h-94v163h-4c-21 -24 -65 -55 -136 -55c-62 0 -118 27 -152 73c-46 -45 -117 -84 -226 -84c-154 0 -258 109 -265 257l111 30c129 37 158 78 158 130c0 40 -25 65 -63 65c-35 0 -60 -22 -60 -60c0 -19 9 -42 24 -57l-84 -25
c-18 18 -33 48 -33 87c0 75 62 136 153 136c95 0 156 -62 156 -148c0 -95 -69 -158 -190 -192c-8 -2 -51 -14 -60 -15c5 -41 51 -124 162 -124c93 0 151 44 182 88c-1 9 -2 17 -2 26c0 143 125 206 243 185l8 -85c-75 20 -152 -15 -152 -99c0 -61 42 -105 107 -105
c77 0 123 61 123 137v245h-331v77z" />
    <glyph glyph-name="uni0926094D0917" horiz-adv-x="538" 
d="M410 419l-150 -37c-94 -24 -124 -59 -124 -116c0 -68 57 -119 130 -119c35 0 65 10 82 25v99l64 25c28 -14 59 -42 59 -90c0 -40 -17 -67 -37 -86l116 -144l-109 -27l-71 131c-26 -10 -58 -16 -90 -16h-3v-206h-84c-33 26 -47 66 -47 103l49 38v78
c-92 31 -153 111 -153 204c0 92 53 150 162 177l110 27v88h-338v77h586v-77h-152v-154z" />
    <glyph glyph-name="uni0926094D0918" horiz-adv-x="685" 
d="M307 88c-55 -47 -68 -79 -68 -107s18 -50 58 -50c55 0 102 54 122 138c-31 -2 -76 3 -112 19zM191 74c14 20 32 39 51 59c-26 25 -45 56 -55 90c-62 -15 -97 -54 -97 -95c0 -37 23 -61 63 -61c17 0 27 2 38 7zM546 419l-150 -37c-94 -24 -125 -59 -125 -116
c0 -68 58 -120 131 -120c35 0 65 9 81 24v101l65 25c28 -14 59 -42 59 -90c0 -40 -17 -67 -37 -86l132 -166l-109 -27l-85 152h-4c-32 -139 -105 -215 -208 -215c-87 0 -137 58 -137 119c0 7 0 19 3 25c-10 -1 -18 -2 -28 -2c-80 0 -127 52 -127 119c0 84 69 149 172 171
c6 83 57 137 161 162l110 27v88h-474v77h733v-77h-163v-154z" />
    <glyph glyph-name="uni0926094D0926" horiz-adv-x="507" 
d="M536 -91l-103 -20l-55 118c-33 -12 -70 -19 -107 -19c-122 0 -186 61 -186 139c0 63 44 100 86 116v4c-44 8 -115 43 -115 126c0 65 51 127 169 127h75v73h-324v77h556v-77h-138v-150h-143c-78 0 -99 -27 -99 -59c0 -35 29 -65 105 -65c36 0 78 7 86 9l23 -74
c-110 -13 -186 -43 -186 -104c0 -41 33 -66 94 -66c36 0 67 8 90 19v85l67 17c20 -15 38 -38 38 -72c0 -27 -12 -50 -31 -69z" />
    <glyph glyph-name="uni0926094D0927" horiz-adv-x="684" 
d="M511 80h-4c-32 -139 -106 -216 -209 -216c-90 0 -133 57 -133 110c0 10 2 22 5 30c-12 -3 -31 -4 -42 -4c-76 0 -117 45 -117 107c0 76 54 104 54 189l76 -35c0 -64 -48 -100 -48 -149c0 -33 20 -49 56 -49c49 0 67 31 98 67c-41 39 -65 91 -65 151c0 92 51 150 160 177
l111 27v88h-477v77h733v-77h-161v-154l-150 -37c-93 -24 -124 -59 -124 -116c0 -68 58 -120 131 -120c35 0 64 9 81 24v101l65 25c27 -14 59 -42 59 -90c0 -40 -18 -67 -37 -86l131 -166l-109 -27zM299 -69c55 0 103 54 123 138c-36 -2 -76 3 -113 20
c-53 -48 -68 -77 -68 -107c0 -29 18 -51 58 -51z" />
    <glyph glyph-name="uni0926094D0928" horiz-adv-x="1056" 
d="M370 -145l75 29l156 -175v-4h-122zM1080 650v-77h-116v-573h-94v320h-186v-97l-52 -21c-44 25 -79 79 -79 150l68 51h249v170h-459v-154l-150 -37c-93 -24 -124 -59 -124 -116c0 -69 59 -120 132 -119c35 1 63 10 80 25v99l65 25c27 -14 59 -42 59 -90
c0 -40 -18 -67 -37 -86l115 -144l-109 -27l-71 131c-25 -10 -58 -16 -89 -16c-139 0 -239 98 -239 217c0 92 53 150 162 177l111 27v88h-340v77h1104z" />
    <glyph glyph-name="uni0926094D092C" horiz-adv-x="561" 
d="M289 -31l-78 127c-29 -15 -43 -39 -43 -67c0 -35 22 -69 75 -69c17 0 32 3 46 9zM261 110l69 -112c24 28 38 67 41 111c-18 1 -55 3 -80 3c-11 0 -21 -1 -30 -2zM421 442l-149 -37c-94 -24 -125 -53 -125 -114c0 -64 53 -109 126 -109c37 0 67 9 85 22v101l65 24
c27 -13 59 -40 59 -89c0 -39 -17 -65 -37 -86l135 -168l-104 -32l-45 78h-4c-17 -66 -80 -145 -189 -145c-96 0 -159 60 -159 141c0 55 33 92 67 111v4c-60 27 -93 90 -93 164c0 93 50 145 161 173l112 28v65h-350v77h610v-77h-165v-131z" />
    <glyph glyph-name="uni0926094D092D" horiz-adv-x="711" 
d="M577 418l-150 -37c-94 -24 -125 -59 -125 -116c0 -68 57 -119 130 -119c35 0 65 9 82 24v100l65 24c28 -13 59 -41 59 -89c0 -40 -17 -68 -37 -86l116 -144l-110 -27l-70 131c-26 -11 -58 -16 -88 -16l-194 -101l35 -67l-77 -39c-47 6 -84 39 -102 74l31 62l-38 73
c-11 19 -21 25 -38 25c-15 0 -38 -10 -60 -34l-41 66c34 34 77 53 116 53s73 -15 99 -64l41 -77l107 56c-73 37 -120 108 -120 189c0 93 53 150 163 177l110 28v89h-505v77h761v-77h-160v-155z" />
    <glyph glyph-name="uni0926094D092E" horiz-adv-x="723" 
d="M378 324v-132h159v381h-159v-153h-185c-53 0 -78 -28 -78 -65c0 -40 27 -69 81 -69c55 0 84 25 106 58zM296 249h-4c-17 -18 -51 -38 -110 -38c-95 0 -158 58 -158 145c0 82 65 137 158 137h102v80h-308v77h772v-77h-117v-573h-94v112h-161v-73h-81
c-31 20 -54 69 -55 107l56 43v60z" />
    <glyph glyph-name="uni0926094D092F" horiz-adv-x="658" 
d="M129 299v4c-39 14 -71 52 -71 103c0 63 50 99 112 99h66v68h-260v77h707v-77h-116v-573h-94v138h-4c-35 -44 -106 -86 -208 -86c-135 0 -197 70 -197 148c0 48 24 82 65 99zM268 132c129 0 205 76 205 195v246h-144v-140h-130c-30 0 -44 -16 -44 -38c0 -30 22 -55 52 -64
c6 0 26 1 33 1h80v-76h-88c-47 0 -71 -19 -71 -55c0 -30 21 -69 107 -69z" />
    <glyph glyph-name="uni0926094D0935" horiz-adv-x="551" 
d="M364 108c-23 2 -62 2 -78 2c-83 0 -120 -32 -120 -80c0 -35 22 -67 74 -67c76 0 119 60 124 145zM426 32h-4c-18 -69 -79 -144 -188 -144c-95 0 -159 60 -159 141c0 57 33 92 67 110v4c-60 27 -93 90 -93 164c0 93 49 145 161 173l111 28v65h-345v77h599v-77h-158v-131
l-149 -37c-94 -24 -125 -53 -125 -114c0 -64 53 -109 126 -109c37 0 67 9 84 22v101l66 24c26 -13 59 -40 59 -89c0 -39 -17 -65 -37 -86l135 -168l-104 -32z" />
    <glyph glyph-name="uni0927094D0928" horiz-adv-x="911" 
d="M530 229c-71 -74 -155 -117 -265 -117c-125 0 -193 71 -193 153c0 71 49 108 91 119v4c-52 6 -97 41 -97 103c0 41 22 67 43 78v4h-133v77h267l14 -73c-58 -7 -92 -37 -92 -80c0 -41 31 -72 98 -72h68v-78h-62c-67 0 -99 -31 -99 -76c0 -39 28 -80 108 -80
c63 0 113 23 149 55c-17 27 -27 62 -28 100l68 52h249v175h-349v77h559v-77h-116v-573h-94v314h-186v-85z" />
    <glyph glyph-name="uni0927094D092E" horiz-adv-x="974" 
d="M789 367v206h-192v-206h192zM999 650v-77h-117v-573h-93v283h-194v-105h-94c-5 4 -11 9 -15 14c-46 -44 -118 -80 -221 -80c-125 0 -193 71 -193 153c0 71 49 108 91 119v4c-52 6 -97 41 -97 103c0 41 22 67 43 78v4h-133v77h267l14 -73c-58 -7 -92 -37 -92 -80
c0 -41 31 -72 98 -72h68v-78h-62c-67 0 -99 -31 -99 -76c0 -39 28 -80 108 -80c76 0 131 33 168 74c-6 19 -9 37 -9 53l67 48v207h-159v77h654z" />
    <glyph glyph-name="uni0927094D092F" horiz-adv-x="1001" 
d="M815 363v210h-192v-4c27 -26 42 -60 42 -101c0 -70 -58 -120 -131 -137c8 -55 50 -118 139 -118c86 0 142 56 142 150zM1026 650v-77h-117v-573h-94v194h-4c-20 -24 -68 -64 -151 -64c-66 0 -123 25 -165 71c-45 -47 -120 -89 -230 -89c-125 0 -193 71 -193 153
c0 71 49 108 91 119v4c-52 6 -97 41 -97 103c0 41 22 67 43 78v4h-133v77h267l14 -73c-58 -7 -92 -37 -92 -80c0 -41 31 -72 98 -72h68v-78h-62c-67 0 -99 -31 -99 -76c0 -39 28 -80 108 -80s137 36 173 81c-12 29 -20 61 -23 98c88 18 141 49 141 112c0 31 -15 68 -39 91
h-185v77h681z" />
    <glyph glyph-name="uni0927094D0935" horiz-adv-x="943" 
d="M967 650v-77h-116v-573h-95v163h-4c-20 -24 -64 -55 -136 -55c-59 0 -113 25 -148 67c-45 -35 -111 -63 -203 -63c-125 0 -193 71 -193 153c0 71 49 108 91 119v4c-52 6 -97 41 -97 103c0 41 22 67 43 78v4h-133v77h267l14 -73c-58 -7 -92 -37 -92 -80
c0 -41 31 -72 98 -72h68v-78h-62c-67 0 -99 -31 -99 -76c0 -39 28 -80 108 -80c66 0 117 25 154 59c-3 14 -5 29 -5 45c0 143 125 206 244 185l7 -85c-75 20 -152 -15 -152 -99c0 -61 42 -105 107 -105c77 0 123 61 123 137v245h-411v77h622z" />
    <glyph glyph-name="uni0928094D0915" horiz-adv-x="1057" 
d="M1082 573h-367v-151h4c21 24 62 52 125 52c94 0 173 -69 173 -176c0 -127 -105 -194 -216 -180l-15 84c70 -13 135 19 135 95c0 57 -39 96 -96 96c-66 0 -110 -48 -110 -116v-277h-93v171h-4c-19 -23 -58 -52 -124 -52c-94 0 -175 71 -175 177c0 8 0 16 1 24h-167v-97
l-52 -21c-44 25 -79 79 -79 150l68 51h261c40 56 111 82 185 73l15 -84c-70 13 -136 -19 -136 -96c0 -55 40 -95 98 -95c66 0 109 48 109 115v257h-646v77h1106v-77z" />
    <glyph glyph-name="uni0928094D091A" horiz-adv-x="872" 
d="M896 650v-77h-116v-573h-94v174h-4c-22 -29 -75 -75 -174 -75c-121 0 -192 78 -192 166c0 61 30 92 50 107v4h-213v-97l-52 -21c-44 25 -79 79 -79 150l68 51h512v-82h-73c-74 0 -115 -40 -115 -99c0 -55 42 -96 113 -96c93 0 159 67 159 179v212h-710v77h920z" />
    <glyph glyph-name="uni0928094D091B" horiz-adv-x="962" 
d="M734 486v87h-182c-65 0 -106 -39 -106 -96c0 -52 35 -88 98 -88h35v-81h-21c-64 -3 -98 -37 -98 -88c0 -57 47 -104 137 -104c125 0 230 95 230 211c0 55 -29 83 -65 83c-29 0 -53 -20 -53 -51c0 -32 22 -54 59 -61l-57 -57c-50 13 -91 56 -91 119c0 62 45 115 114 126z
M987 573h-164v-97c56 -22 91 -77 91 -150c0 -142 -127 -292 -323 -292c-146 0 -229 86 -229 182c0 45 16 77 38 99h-247v-97l-52 -21c-44 25 -79 79 -79 150l68 52h279c-14 20 -22 45 -22 72c0 56 29 84 46 98v4h-417v77h1011v-77z" />
    <glyph glyph-name="uni0928094D091F" horiz-adv-x="792" 
d="M681 407l-145 -41c-99 -28 -117 -63 -117 -119c0 -62 50 -127 146 -127c71 0 121 24 164 69l50 -76c-57 -56 -130 -77 -203 -77c-148 0 -252 109 -252 229c0 20 2 38 7 55h-178v-97l-52 -21c-44 25 -79 79 -79 150l68 51h304c22 15 51 28 85 38l106 32v100h-609v77h841
v-77h-136v-166z" />
    <glyph glyph-name="uni0928094D0921" horiz-adv-x="828" 
d="M723 409h-182c-59 0 -73 -17 -73 -48c0 -28 23 -61 58 -72l165 35c49 -20 87 -74 87 -142c0 -98 -81 -176 -206 -176c-130 0 -217 83 -264 174l66 48c41 -84 112 -142 199 -142c69 0 116 35 116 95c0 23 -9 44 -26 57l-150 -34c-60 22 -106 66 -127 116h-233v-97l-52 -21
c-44 25 -79 79 -79 150l68 51h286c9 51 50 84 118 84h137v86h-655v77h876v-77h-129v-164z" />
    <glyph glyph-name="uni0928094D0924" horiz-adv-x="844" 
d="M870 650v-77h-117v-573h-94v365h-128c-62 0 -106 -36 -106 -107c0 -93 50 -162 115 -209l-72 -58c-73 54 -140 147 -140 269c0 22 3 42 8 60h-183v-97l-52 -21c-44 25 -79 79 -79 150l68 51h297c34 30 79 45 126 45h146v125h-683v77h894z" />
    <glyph glyph-name="uni0928094D0925" horiz-adv-x="958" 
d="M297 650v-77h-321v77h321zM773 650h210v-77h-117v-573h-92v181h-4c-24 -34 -84 -85 -188 -85c-136 0 -227 87 -250 213c-18 4 -36 6 -53 6h-126v-97l-52 -21c-44 25 -79 79 -79 150l68 51h180c49 0 96 -8 135 -23l32 9c130 36 158 77 158 130c0 40 -23 65 -62 65
c-35 0 -61 -22 -61 -60c0 -19 9 -42 24 -57l-84 -25c-17 18 -32 48 -32 87c0 75 62 136 153 136c96 0 154 -62 154 -148c0 -98 -68 -159 -190 -192c-8 -2 -50 -14 -59 -15c5 -39 43 -124 152 -124c124 0 183 89 183 187v282z" />
    <glyph glyph-name="uni0928094D0926" horiz-adv-x="812" 
d="M690 419l-150 -37c-93 -24 -124 -59 -124 -116c0 -69 59 -120 132 -119c35 1 63 10 80 25v99l65 25c27 -14 59 -42 59 -90c0 -40 -18 -67 -37 -86l115 -144l-109 -27l-71 131c-25 -10 -58 -16 -89 -16c-139 0 -239 98 -239 217c0 14 1 27 4 39h-173v-97l-52 -21
c-44 25 -79 79 -79 150l68 51h281c27 25 64 43 113 55l111 27v88h-619v77h861v-77h-147v-154z" />
    </font>
</defs>
</svg>
