<?xml version="1.0" standalone="no"?>
<!DOCTYPE svg PUBLIC "-//W3C//DTD SVG 1.1//EN" "http://www.w3.org/Graphics/SVG/1.1/DTD/svg11.dtd" >
<svg xmlns="http://www.w3.org/2000/svg" xmlns:xlink="http://www.w3.org/1999/xlink" version="1.1">
<metadata>
Created by FontForge 20170910 at Thu Jul 24 23:25:51 2014
 By Jimmy Wärting
Copyright (c) 2014 by The Indian Type Foundry. All rights reserved.
</metadata>
<defs>
<font id="KohinoorDevanagari-Bold" horiz-adv-x="0" >
  <font-face 
    font-family="Kohinoor Devanagari"
    font-weight="700"
    font-stretch="normal"
    units-per-em="1000"
    panose-1="2 0 0 0 0 0 0 0 0 0"
    ascent="800"
    descent="-200"
    x-height="565"
    cap-height="701"
    bbox="-591 -574 2108 1132"
    underline-thickness="50"
    underline-position="-100"
    stemh="109"
    stemv="141"
    unicode-range="U+000D-FB02"
  />
<missing-glyph horiz-adv-x="756" 
d="M160 0v701h436v-701h-436zM241 625v-549h275v549h-275z" />
    <glyph glyph-name="fi" unicode="fi" horiz-adv-x="645" 
d="M577 565v-565h-151v461h-174v-461h-151v461h-83v104h86v42c0 112 73 175 244 175c59 0 151 -4 207 -32l-32 -110c-50 18 -129 23 -182 23c-77 0 -86 -29 -86 -71v-27h322z" />
    <glyph glyph-name="fl" unicode="fl" horiz-adv-x="672" 
d="M577 745v-567c0 -42 19 -56 47 -56c11 0 16 1 21 2v-119c-18 -7 -39 -14 -72 -14c-92 0 -147 54 -147 148v520c-27 3 -56 4 -85 4c-77 0 -86 -29 -86 -71v-27h94v-104h-97v-461h-151v461h-83v104h86v42c0 112 73 175 244 175c115 0 193 -17 229 -37z" />
    <glyph glyph-name="f_f" unicode="ff" horiz-adv-x="716" 
d="M429 565v40c0 16 2 31 5 46c-30 8 -61 12 -93 12c-77 0 -86 -29 -86 -71v-27h174zM580 601v-36h123v-104h-126v-461h-151v461h-174v-461h-151v461h-83v104h86v42c0 112 72 175 243 175c48 0 122 -12 161 -30c31 19 72 30 123 30c41 0 68 -4 92 -10l-21 -122
c-23 6 -46 10 -65 10c-42 0 -57 -20 -57 -59z" />
    <glyph glyph-name="f_f_i" unicode="ffi" horiz-adv-x="970" 
d="M429 565v42c0 16 1 30 4 44c-30 8 -60 12 -92 12c-77 0 -86 -29 -86 -71v-27h174zM902 565v-565h-151v461h-174v-461h-151v461h-174v-461h-151v461h-83v104h86v42c0 112 72 175 243 175c49 0 125 -13 163 -31c39 20 93 31 163 31c59 0 151 -4 207 -32l-32 -110
c-50 18 -129 23 -182 23c-77 0 -86 -29 -86 -71v-27h322z" />
    <glyph glyph-name="f_f_l" unicode="ffl" horiz-adv-x="997" 
d="M429 565v42c0 16 1 30 4 44c-30 8 -60 12 -92 12c-77 0 -86 -29 -86 -71v-27h174zM902 745v-567c0 -42 19 -56 47 -56c11 0 16 1 21 2v-119c-18 -7 -39 -14 -72 -14c-92 0 -147 54 -147 148v520c-27 3 -56 4 -85 4c-77 0 -86 -29 -86 -71v-27h94v-104h-97v-461h-151v461
h-174v-461h-151v461h-83v104h86v42c0 112 72 175 243 175c49 0 125 -13 163 -31c39 20 93 31 163 31c115 0 193 -17 229 -37z" />
    <glyph glyph-name=".notdef" horiz-adv-x="756" 
d="M160 0v701h436v-701h-436zM241 625v-549h275v549h-275z" />
    <glyph glyph-name="NULL" 
 />
    <glyph glyph-name="NULL" 
 />
    <glyph glyph-name="CR" unicode="&#xd;" horiz-adv-x="280" 
 />
    <glyph glyph-name="space" unicode=" " horiz-adv-x="280" 
 />
    <glyph glyph-name="uni0905" unicode="&#x905;" horiz-adv-x="764" 
d="M470 671h324v-109h-105v-562h-141v236c-13 -4 -28 -7 -45 -7c-18 0 -34 4 -49 10v-6c0 -113 -85 -196 -221 -196c-131 0 -199 71 -224 108l97 89c21 -37 64 -80 129 -80c53 0 84 32 84 76c0 43 -31 69 -95 69h-54v117h35c61 0 86 32 86 77c0 39 -27 66 -70 66
c-40 0 -67 -19 -86 -50l-88 83c32 46 95 84 178 84c117 0 195 -67 195 -169c0 -57 -26 -106 -73 -129v-4c11 -2 23 -6 34 -12h1l6 -4c27 -14 55 -20 80 -20c35 0 61 7 80 17v207h-78v109z" />
    <glyph glyph-name="uni0906" unicode="&#x906;" horiz-adv-x="1055" 
d="M1085 671v-109h-105v-562h-141v562h-150v-562h-141v236c-13 -4 -28 -7 -45 -7c-18 0 -34 4 -49 10v-6c0 -113 -85 -196 -221 -196c-131 0 -199 71 -224 108l97 89c21 -37 64 -80 129 -80c53 0 84 32 84 76c0 43 -31 69 -95 69h-54v117h35c61 0 86 32 86 77
c0 39 -27 66 -70 66c-40 0 -67 -19 -86 -50l-88 83c32 46 95 84 178 84c117 0 195 -67 195 -169c0 -57 -26 -106 -73 -129v-4c11 -2 23 -6 34 -12h1l6 -4c27 -14 55 -20 80 -20c35 0 61 7 80 17v207h-78v109h615z" />
    <glyph glyph-name="uni0907" unicode="&#x907;" horiz-adv-x="551" 
d="M360 34v-4l169 -100l-145 -77l-178 156c-124 0 -169 64 -169 118c0 40 21 69 54 84l157 -96h14c58 0 117 22 117 76c0 17 -9 31 -16 35l-133 -34c-112 37 -169 125 -169 206c0 67 46 108 135 108h120v56h-346v109h611v-109h-127v-166h-190c-58 0 -61 -16 -61 -37
c0 -15 13 -40 40 -48l163 39c59 -18 101 -74 101 -157c0 -82 -60 -142 -147 -159z" />
    <glyph glyph-name="uni0908" unicode="&#x908;" horiz-adv-x="551" 
d="M454 396h-190c-58 0 -61 -16 -61 -37c0 -15 13 -40 40 -48l163 39c59 -18 101 -74 101 -157c0 -82 -60 -142 -147 -159v-4l169 -100l-145 -77l-178 156c-124 0 -169 64 -169 118c0 40 21 69 54 84l157 -96h14c58 0 117 22 117 76c0 17 -9 31 -16 35l-133 -34
c-112 37 -169 125 -169 206c0 67 46 108 135 108h120v56h-346v109h346v4c-37 24 -74 69 -74 139c0 97 82 159 176 159c49 0 84 -8 112 -20l-34 -110c-20 10 -41 15 -60 15c-42 0 -69 -27 -69 -71c0 -41 29 -86 73 -116h141v-109h-127v-166z" />
    <glyph glyph-name="uni0909" unicode="&#x909;" horiz-adv-x="509" 
d="M-8 142l113 70c26 -53 65 -92 128 -92c51 0 90 25 90 82c0 48 -27 79 -100 79h-50v120h35c50 0 84 27 84 78c0 57 -26 83 -86 83h-236v109h569v-109h-152v-5c19 -10 49 -30 49 -90c0 -52 -24 -97 -79 -115v-5c68 -13 111 -72 111 -143c0 -122 -88 -204 -232 -204
c-138 0 -212 75 -244 142z" />
    <glyph glyph-name="uni090A" unicode="&#x90a;" horiz-adv-x="740" 
d="M770 562h-383v-5c19 -10 49 -30 49 -90c0 -52 -24 -97 -79 -115v-5c20 -4 38 -12 54 -23c23 41 73 79 140 79c91 0 173 -59 173 -184c0 -109 -71 -185 -164 -216l-66 107c68 24 93 64 93 109c0 43 -25 62 -56 62c-34 0 -63 -25 -63 -74v-3c0 -122 -88 -204 -232 -204
c-138 0 -212 75 -244 142l113 70c26 -53 65 -92 128 -92c51 0 90 25 90 82c0 48 -27 79 -100 79h-50v120h35c50 0 84 27 84 78c0 57 -26 83 -86 83h-236v109h800v-109z" />
    <glyph glyph-name="uni090B" unicode="&#x90b;" horiz-adv-x="908" 
d="M938 562h-419v-211c85 47 120 74 120 131v13h131v-16c0 -51 -16 -89 -44 -121c18 -16 45 -30 88 -30h17l42 -104c-143 -97 -151 -112 -151 -137c0 -20 19 -39 50 -39c34 0 61 12 84 30l41 -113c-26 -19 -70 -32 -117 -32c-114 0 -191 69 -191 157c0 58 44 97 126 159v4
c-41 0 -71 9 -95 24c-14 -9 -29 -18 -45 -27l-56 -33v-217h-141v141l-236 -140l-91 99l274 147c-22 62 -64 94 -116 94c-39 0 -74 -14 -106 -49l-88 111c52 44 110 67 184 67c80 0 144 -41 174 -108h4v200h-407v109h968v-109z" />
    <glyph glyph-name="uni0960" unicode="&#x960;" horiz-adv-x="908" 
d="M942 -74l43 -103c-38 -26 -103 -44 -162 -44c-124 0 -183 63 -183 137c0 59 37 88 73 97v4c-38 -6 -104 21 -104 99c0 62 48 103 106 134v4c-41 0 -71 9 -95 23c-14 -9 -29 -18 -45 -27l-56 -33v-217h-141v141l-236 -140l-91 99l274 147c-22 62 -64 94 -116 94
c-39 0 -74 -14 -106 -49l-88 111c52 44 110 67 184 67c80 0 144 -41 174 -108h4v200h-407v109h968v-109h-419v-211c85 47 120 74 120 131v13h131v-16c0 -52 -16 -89 -44 -121c17 -16 43 -30 86 -30h17l51 -100c-97 -50 -137 -77 -137 -107c0 -20 15 -31 43 -31
c29 0 54 7 78 15l36 -96c-86 -20 -127 -49 -127 -83c0 -22 18 -37 51 -37c53 0 101 25 118 37z" />
    <glyph glyph-name="uni090C" unicode="&#x90c;" horiz-adv-x="737" 
d="M516 461h4v101h-550v109h797v-109h-105v-417l-82 -47c-63 -36 -74 -48 -74 -79c0 -27 24 -54 68 -54c46 0 82 23 110 51l60 -102c-37 -35 -87 -62 -158 -62c-110 0 -201 82 -201 179c0 65 35 107 81 133l54 31v154c-9 6 -31 14 -48 14c-41 0 -59 -26 -59 -80v-77h-128v85
c0 48 -19 71 -54 71c-31 0 -61 -21 -61 -88c0 -62 30 -141 145 -197l-94 -92c-120 61 -192 173 -192 295c0 139 94 199 185 199c63 0 108 -26 128 -74h4c12 54 58 79 97 79c24 0 54 -5 73 -23z" />
    <glyph glyph-name="uni0961" unicode="&#x961;" horiz-adv-x="737" 
d="M737 -117l47 -100c-38 -26 -108 -47 -167 -47c-126 0 -183 60 -183 138c0 39 22 71 62 94c-63 12 -93 51 -93 108c0 60 43 107 117 150v123c-9 6 -31 14 -48 14c-41 0 -59 -26 -59 -80v-77h-128v85c0 48 -19 71 -54 71c-31 0 -61 -21 -61 -88c0 -62 30 -141 145 -197
l-94 -92c-120 61 -192 173 -192 295c0 139 94 199 185 199c63 0 108 -26 128 -74h4c12 54 58 79 97 79c24 0 54 -5 73 -23h4v101h-550v109h797v-109h-105v-385c-98 -52 -124 -74 -124 -99c0 -20 18 -28 43 -28c27 0 60 9 84 19l35 -95c-75 -26 -132 -49 -132 -91
c0 -18 15 -37 50 -37c55 0 100 24 119 37z" />
    <glyph glyph-name="uni090F" unicode="&#x90f;" horiz-adv-x="577" 
d="M437 92c42 -36 55 -76 55 -114c0 -34 -10 -74 -28 -99h-136v7c16 19 27 51 27 76c0 22 -13 40 -30 55l-255 216v329h-100v109h637v-109h-100v-140c0 -98 -18 -155 -95 -194l-107 90c46 20 61 53 61 109v135h-155v-276z" />
    <glyph glyph-name="uni0910" unicode="&#x910;" horiz-adv-x="577" 
d="M481 671h126v-109h-100v-140c0 -98 -18 -155 -95 -194l-107 90c46 20 61 53 61 109v135h-155v-276l226 -194c42 -36 55 -76 55 -114c0 -34 -10 -74 -28 -99h-136v7c16 19 27 51 27 76c0 22 -13 40 -30 55l-255 216v329h-100v109h380c-60 34 -123 91 -181 157l-85 96
l158 33z" />
    <glyph glyph-name="uni0913" unicode="&#x913;" horiz-adv-x="1055" 
d="M968 671h117v-109h-105v-562h-141v562h-150v-562h-141v236c-13 -4 -28 -7 -45 -7c-18 0 -34 4 -49 10v-6c0 -113 -85 -196 -221 -196c-131 0 -199 71 -224 108l97 89c21 -37 64 -80 129 -80c53 0 84 32 84 76c0 43 -31 69 -95 69h-54v117h35c61 0 86 32 86 77
c0 39 -27 66 -70 66c-40 0 -67 -19 -86 -50l-88 83c32 46 95 84 178 84c117 0 195 -67 195 -169c0 -57 -26 -106 -73 -129v-4c11 -2 23 -6 34 -12h1l6 -4c27 -14 55 -20 80 -20c35 0 61 7 80 17v207h-78v109h367c-60 34 -123 91 -181 157l-85 96l158 33z" />
    <glyph glyph-name="uni0914" unicode="&#x914;" horiz-adv-x="1054" 
d="M977 671h107v-109h-105v-562h-141v562h-149v-562h-141v236c-13 -4 -28 -7 -45 -7c-18 0 -34 4 -49 10v-6c0 -113 -85 -196 -221 -196c-131 0 -199 71 -224 108l97 89c21 -37 64 -80 129 -80c53 0 84 32 84 76c0 43 -31 69 -95 69h-54v117h35c61 0 86 32 86 77
c0 39 -27 66 -70 66c-40 0 -67 -19 -86 -50l-88 83c32 46 95 84 178 84c117 0 195 -67 195 -169c0 -57 -26 -106 -73 -129v-4c11 -2 23 -6 34 -12h1l6 -4c27 -14 55 -20 80 -20c35 0 61 7 80 17v207h-78v109h289c-96 62 -208 143 -277 210l121 76l274 -286h6l-169 261
l151 33z" />
    <glyph glyph-name="uni090D" unicode="&#x90d;" horiz-adv-x="577" 
d="M437 92c42 -36 55 -76 55 -114c0 -34 -10 -74 -28 -99h-136v7c16 19 27 51 27 76c0 22 -13 40 -30 55l-255 216v329h-100v109h637v-109h-100v-140c0 -98 -18 -155 -95 -194l-107 90c46 20 61 53 61 109v135h-155v-276zM299 734c-125 0 -207 65 -240 153l108 53
c20 -60 64 -93 132 -93s112 33 132 93l108 -53c-33 -88 -115 -153 -240 -153z" />
    <glyph glyph-name="uni0972" unicode="&#x972;" horiz-adv-x="764" 
d="M470 562v109h324v-109h-105v-562h-141v236c-13 -4 -28 -7 -45 -7c-18 0 -34 4 -49 10v-6c0 -113 -85 -196 -221 -196c-131 0 -199 71 -224 108l97 89c21 -37 64 -80 129 -80c53 0 84 32 84 76c0 43 -31 69 -95 69h-54v117h35c61 0 86 32 86 77c0 39 -27 66 -70 66
c-40 0 -67 -19 -86 -50l-88 83c32 46 95 84 178 84c117 0 195 -67 195 -169c0 -57 -26 -106 -73 -129v-4c11 -2 23 -6 34 -12h1l6 -4c27 -14 55 -20 80 -20c35 0 61 7 80 17v207h-78zM753 940l108 -53c-33 -88 -115 -153 -240 -153s-207 65 -240 153l108 53
c20 -60 64 -93 132 -93s112 33 132 93z" />
    <glyph glyph-name="uni0911" unicode="&#x911;" horiz-adv-x="1055" 
d="M897 940l108 -53c-33 -88 -115 -153 -240 -153s-207 65 -240 153l108 53c20 -60 64 -93 132 -93s112 33 132 93zM1085 671v-109h-105v-562h-141v562h-150v-562h-141v236c-13 -4 -28 -7 -45 -7c-18 0 -34 4 -49 10v-6c0 -113 -85 -196 -221 -196c-131 0 -199 71 -224 108
l97 89c21 -37 64 -80 129 -80c53 0 84 32 84 76c0 43 -31 69 -95 69h-54v117h35c61 0 86 32 86 77c0 39 -27 66 -70 66c-40 0 -67 -19 -86 -50l-88 83c32 46 95 84 178 84c117 0 195 -67 195 -169c0 -57 -26 -106 -73 -129v-4c11 -2 23 -6 34 -12h1l6 -4
c27 -14 55 -20 80 -20c35 0 61 7 80 17v207h-78v109h615z" />
    <glyph glyph-name="uni093E" unicode="&#x93e;" horiz-adv-x="291" 
d="M321 562h-105v-562h-141v562h-105v109h351v-109z" />
    <glyph glyph-name="uni093F" unicode="&#x93f;" horiz-adv-x="291" 
d="M74 671v81c0 115 92 215 251 215c182 0 330 -86 387 -152l-74 -99c-60 71 -181 131 -315 131c-68 0 -108 -38 -108 -101v-75h106v-109h-105v-562h-141v562h-105v109h104z" />
    <glyph glyph-name="uni0940" unicode="&#x940;" horiz-adv-x="291" 
d="M321 562h-105v-562h-141v562h-105v109h105c-6 84 -63 188 -148 188c-37 0 -57 -24 -57 -55c0 -22 8 -47 34 -70l-131 -26c-29 27 -42 64 -42 102c0 86 72 157 187 157c181 0 274 -141 293 -296h110v-109z" />
    <glyph glyph-name="uni0941" unicode="&#x941;" 
d="M-423 -51c63 -88 136 -146 231 -146c45 0 88 19 88 68c0 32 -24 52 -53 52c-33 0 -54 -16 -70 -42l-91 81c38 47 88 74 171 74c102 0 181 -60 181 -163c0 -90 -64 -180 -223 -180c-158 0 -272 94 -331 165z" />
    <glyph glyph-name="uni0942" unicode="&#x942;" 
d="M174 -275l-132 -37c-24 142 -104 233 -185 233c-32 0 -55 -20 -55 -50c0 -29 23 -48 52 -48c22 0 44 10 63 22v-120c-28 -14 -60 -17 -88 -17c-97 0 -160 69 -160 158c0 101 80 168 189 168c184 0 297 -175 316 -309z" />
    <glyph glyph-name="uni0943" unicode="&#x943;" 
d="M-26 -120l46 -100c-43 -29 -97 -44 -149 -44c-101 0 -187 53 -187 168c0 91 81 162 231 158l10 -62v-38c-85 -3 -116 -28 -116 -62c0 -37 28 -55 67 -55c35 0 74 14 98 35z" />
    <glyph glyph-name="uni0944" unicode="&#x944;" 
d="M-68 -114l21 -94c-87 -12 -121 -25 -121 -58c0 -21 22 -30 52 -30c40 0 94 16 121 38l47 -100c-36 -27 -105 -45 -172 -45c-91 0 -179 34 -179 127c0 46 30 81 72 92c-49 11 -93 44 -93 107c0 114 148 143 236 131l9 -54v-38c-87 -1 -120 -21 -120 -48
c0 -28 31 -36 64 -36c24 0 48 4 63 8z" />
    <glyph glyph-name="uni0962" unicode="&#x962;" 
d="M-125 -362c0 63 41 104 130 145v13c0 40 -29 59 -57 59c-27 0 -52 -18 -52 -67v-39h-107v39c0 47 -17 67 -46 67s-50 -22 -50 -66c0 -49 27 -94 74 -128l-71 -72c-62 38 -114 110 -114 198c0 98 60 165 148 165c52 0 91 -24 110 -67h4c15 37 59 67 118 67
c90 0 149 -62 149 -153c0 -13 -1 -45 -7 -76c-87 -36 -120 -57 -120 -85c0 -24 22 -34 52 -34c35 0 70 13 89 28l48 -79c-45 -32 -94 -40 -140 -40c-98 0 -158 55 -158 125z" />
    <glyph glyph-name="uni0963" unicode="&#x963;" 
d="M225 -390l46 -81c-54 -36 -101 -50 -153 -50c-87 0 -147 33 -147 100c0 31 18 58 44 73v4c-43 8 -69 39 -69 77c0 45 27 79 73 103c-10 12 -25 21 -50 21c-41 0 -74 -28 -74 -77v-31h-104v39c0 47 -17 67 -46 67s-50 -22 -50 -66c0 -49 27 -94 74 -128l-71 -72
c-62 38 -114 110 -114 198c0 98 60 165 148 165c52 0 91 -26 110 -69h4c15 37 69 69 128 69c88 0 142 -46 160 -106c2 -4 3 -8 4 -13c1 -4 1 -8 2 -12c1 -8 2 -16 2 -26c-56 -22 -89 -38 -89 -63c0 -14 13 -19 30 -19c26 0 59 10 70 14l22 -78c-66 -20 -98 -30 -98 -53
c0 -16 12 -25 40 -25c44 0 79 17 108 39z" />
    <glyph glyph-name="uni0947" unicode="&#x947;" 
d="M-81 664h-124l-7 4c-62 33 -127 92 -187 160l-85 96l158 33z" />
    <glyph glyph-name="uni0948" unicode="&#x948;" 
d="M-170 665l3 2l-172 265l151 33l119 -312l-99 -57c-101 53 -299 185 -403 285l121 76z" />
    <glyph glyph-name="uni094B" unicode="&#x94b;" horiz-adv-x="291" 
d="M204 671h117v-109h-105v-562h-141v562h-105v109h103c-60 34 -123 91 -181 157l-85 96l158 33z" />
    <glyph glyph-name="uni094C" unicode="&#x94c;" horiz-adv-x="291" 
d="M214 671h107v-109h-105v-562h-141v562h-105v109h26c-96 62 -208 143 -277 210l121 76l274 -286h6l-169 261l151 33z" />
    <glyph glyph-name="uni0945" unicode="&#x945;" 
d="M-145 734c-125 0 -207 65 -240 153l108 53c20 -60 64 -93 132 -93s112 33 132 93l108 -53c-33 -88 -115 -153 -240 -153z" />
    <glyph glyph-name="uni0949" unicode="&#x949;" horiz-adv-x="291" 
d="M321 562h-105v-562h-141v562h-105v109h351v-109zM145 734c-125 0 -207 65 -240 153l108 53c20 -60 64 -93 132 -93s112 33 132 93l108 -53c-33 -88 -115 -153 -240 -153z" />
    <glyph glyph-name="uni090E" unicode="&#x90e;" horiz-adv-x="577" 
d="M503 671h104v-109h-100v-140c0 -98 -18 -155 -95 -194l-107 90c46 20 61 53 61 109v135h-155v-276l226 -194c42 -36 55 -76 55 -114c0 -34 -10 -74 -28 -99h-136v7c16 19 27 51 27 76c0 22 -13 40 -30 55l-255 216v329h-100v109h391c0 27 -9 40 -34 55
c-26 15 -71 30 -145 61c-81 33 -130 81 -110 182l134 -3c-16 -58 34 -77 69 -91c66 -27 114 -47 148 -68c60 -36 78 -71 80 -136z" />
    <glyph glyph-name="uni0904" unicode="&#x904;" horiz-adv-x="764" 
d="M687 671h107v-109h-105v-562h-141v236c-13 -4 -28 -7 -45 -7c-18 0 -34 4 -49 10v-6c0 -113 -85 -196 -221 -196c-131 0 -199 71 -224 108l97 89c21 -37 64 -80 129 -80c53 0 84 32 84 76c0 43 -31 69 -95 69h-54v117h35c61 0 86 32 86 77c0 39 -27 66 -70 66
c-40 0 -67 -19 -86 -50l-88 83c32 46 95 84 178 84c117 0 195 -67 195 -169c0 -57 -26 -106 -73 -129v-4c11 -2 23 -6 34 -12h1l6 -4c27 -14 55 -20 80 -20c35 0 61 7 80 17v207h-78v109h75c0 27 -9 40 -34 55c-26 15 -71 30 -145 61c-81 33 -130 81 -110 182l134 -3
c-16 -58 34 -77 69 -91c66 -27 114 -47 148 -68c60 -36 78 -71 80 -136z" />
    <glyph glyph-name="uni0912" unicode="&#x912;" horiz-adv-x="1055" 
d="M969 671h116v-109h-105v-562h-141v562h-150v-562h-141v236c-13 -4 -28 -7 -45 -7c-18 0 -34 4 -49 10v-6c0 -113 -85 -196 -221 -196c-131 0 -199 71 -224 108l97 89c21 -37 64 -80 129 -80c53 0 84 32 84 76c0 43 -31 69 -95 69h-54v117h35c61 0 86 32 86 77
c0 39 -27 66 -70 66c-40 0 -67 -19 -86 -50l-88 83c32 46 95 84 178 84c117 0 195 -67 195 -169c0 -57 -26 -106 -73 -129v-4c11 -2 23 -6 34 -12h1l6 -4c27 -14 55 -20 80 -20c35 0 61 7 80 17v207h-78v109h357c0 27 -9 40 -34 55c-26 15 -71 30 -145 61
c-81 33 -130 81 -110 182l134 -3c-16 -58 34 -77 69 -91c66 -27 114 -47 148 -68c60 -36 78 -71 80 -136z" />
    <glyph glyph-name="uni0976" unicode="&#x976;" horiz-adv-x="764" 
d="M270 -158l23 87c62 -17 131 -25 199 -25s137 8 199 25l23 -87c-53 -27 -135 -44 -222 -44s-169 17 -222 44zM470 671h324v-109h-105v-562h-141v236c-13 -4 -28 -7 -45 -7c-18 0 -34 4 -49 10v-6c0 -113 -85 -196 -221 -196c-131 0 -199 71 -224 108l97 89
c21 -37 64 -80 129 -80c53 0 84 32 84 76c0 43 -31 69 -95 69h-54v117h35c61 0 86 32 86 77c0 39 -27 66 -70 66c-40 0 -67 -19 -86 -50l-88 83c32 46 95 84 178 84c117 0 195 -67 195 -169c0 -57 -26 -106 -73 -129v-4c11 -2 23 -6 34 -12h1l6 -4c27 -14 55 -20 80 -20
c35 0 61 7 80 17v207h-78v109z" />
    <glyph glyph-name="uni0977" unicode="&#x977;" horiz-adv-x="764" 
d="M271 -296l23 81c62 -17 131 -25 199 -25s137 8 199 25l23 -81c-53 -27 -135 -44 -222 -44s-169 17 -222 44zM271 -145l23 81c62 -17 131 -25 199 -25s137 8 199 25l23 -81c-53 -27 -135 -44 -222 -44s-169 17 -222 44zM470 671h324v-109h-105v-562h-141v236
c-13 -4 -28 -7 -45 -7c-18 0 -34 4 -49 10v-6c0 -113 -85 -196 -221 -196c-131 0 -199 71 -224 108l97 89c21 -37 64 -80 129 -80c53 0 84 32 84 76c0 43 -31 69 -95 69h-54v117h35c61 0 86 32 86 77c0 39 -27 66 -70 66c-40 0 -67 -19 -86 -50l-88 83c32 46 95 84 178 84
c117 0 195 -67 195 -169c0 -57 -26 -106 -73 -129v-4c11 -2 23 -6 34 -12h1l6 -4c27 -14 55 -20 80 -20c35 0 61 7 80 17v207h-78v109z" />
    <glyph glyph-name="uni0973" unicode="&#x973;" horiz-adv-x="764" 
d="M689 671h105v-109h-105v-562h-141v236c-13 -4 -28 -7 -45 -7c-18 0 -34 4 -49 10v-6c0 -113 -85 -196 -221 -196c-131 0 -199 71 -224 108l97 89c21 -37 64 -80 129 -80c53 0 84 32 84 76c0 43 -31 69 -95 69h-54v117h35c61 0 86 32 86 77c0 39 -27 66 -70 66
c-40 0 -67 -19 -86 -50l-88 83c32 46 95 84 178 84c117 0 195 -67 195 -169c0 -57 -26 -106 -73 -129v-4c11 -2 23 -6 34 -12h1l6 -4c27 -14 55 -20 80 -20c35 0 61 7 80 17v207h-78v109h78v168h141v-168z" />
    <glyph glyph-name="uni0974" unicode="&#x974;" horiz-adv-x="1055" 
d="M980 671h105v-109h-105v-562h-141v562h-150v-562h-141v236c-13 -4 -28 -7 -45 -7c-18 0 -34 4 -49 10v-6c0 -113 -85 -196 -221 -196c-131 0 -199 71 -224 108l97 89c21 -37 64 -80 129 -80c53 0 84 32 84 76c0 43 -31 69 -95 69h-54v117h35c61 0 86 32 86 77
c0 39 -27 66 -70 66c-40 0 -67 -19 -86 -50l-88 83c32 46 95 84 178 84c117 0 195 -67 195 -169c0 -57 -26 -106 -73 -129v-4c11 -2 23 -6 34 -12h1l6 -4c27 -14 55 -20 80 -20c35 0 61 7 80 17v207h-78v109h369v168h141v-168z" />
    <glyph glyph-name="uni0975" unicode="&#x975;" horiz-adv-x="1055" 
d="M979 671h106v-109h-105v-562h-141v562h-150v-562h-141v236c-13 -4 -28 -7 -45 -7c-18 0 -34 4 -49 10v-6c0 -113 -85 -196 -221 -196c-131 0 -199 71 -224 108l97 89c21 -37 64 -80 129 -80c53 0 84 32 84 76c0 43 -31 69 -95 69h-54v117h35c61 0 86 32 86 77
c0 39 -27 66 -70 66c-40 0 -67 -19 -86 -50l-88 83c32 46 95 84 178 84c117 0 195 -67 195 -169c0 -57 -26 -106 -73 -129v-4c11 -2 23 -6 34 -12h1l6 -4c27 -14 55 -20 80 -20c35 0 61 7 80 17v207h-78v109h366c-29 33 -97 44 -160 64c-81 25 -133 63 -128 162h139
c-7 -58 23 -72 68 -90c51 -21 116 -46 151 -126h7c-30 104 -146 130 -146 251c0 11 1 23 4 35h131c-3 -12 -4 -26 -4 -36c0 -98 79 -132 81 -260z" />
    <glyph glyph-name="uni0946" unicode="&#x946;" 
d="M-251 726c-26 15 -71 30 -145 61c-81 33 -130 81 -110 182l134 -3c-16 -58 34 -77 69 -91c66 -27 114 -47 148 -68c61 -36 78 -72 80 -138h-142c0 28 -8 42 -34 57z" />
    <glyph glyph-name="uni094A" unicode="&#x94a;" horiz-adv-x="291" 
d="M215 671h106v-109h-105v-562h-141v562h-105v109h103c0 27 -9 40 -34 55c-26 15 -71 30 -145 61c-81 33 -130 81 -110 182l134 -3c-16 -58 34 -77 69 -91c66 -27 114 -47 148 -68c60 -36 78 -71 80 -136z" />
    <glyph glyph-name="uni0956" unicode="&#x956;" 
d="M-272 -202c-87 0 -169 17 -222 44l23 87c62 -17 131 -25 199 -25s137 8 199 25l23 -87c-53 -27 -135 -44 -222 -44z" />
    <glyph glyph-name="uni0957" unicode="&#x957;" 
d="M-272 -189c-87 0 -169 17 -222 44l23 81c62 -17 131 -25 199 -25s137 8 199 25l23 -81c-53 -27 -135 -44 -222 -44zM-272 -340c-87 0 -169 17 -222 44l23 81c62 -17 131 -25 199 -25s137 8 199 25l23 -81c-53 -27 -135 -44 -222 -44z" />
    <glyph glyph-name="uni093A" unicode="&#x93a;" 
d="M-75 645h-141v194h141v-194z" />
    <glyph glyph-name="uni093B" unicode="&#x93b;" horiz-adv-x="291" 
d="M216 671h105v-109h-105v-562h-141v562h-105v109h105v168h141v-168z" />
    <glyph glyph-name="uni094F" unicode="&#x94f;" horiz-adv-x="291" 
d="M215 671h106v-109h-105v-562h-141v562h-105v109h102c-29 33 -97 44 -160 64c-81 25 -133 63 -128 162h139c-7 -58 23 -72 68 -90c51 -21 116 -46 151 -126h7c-30 104 -146 130 -146 251c0 11 1 23 4 35h131c-3 -12 -4 -26 -4 -36c0 -98 79 -132 81 -260z" />
    <glyph glyph-name="uni094E" unicode="&#x94e;" horiz-adv-x="291" 
d="M321 562h-105v-562h-141v671h246v-109z" />
    <glyph glyph-name="uni0955" unicode="&#x955;" 
d="M-146 851c-107 0 -177 55 -206 131l93 45c17 -51 55 -79 113 -79s96 28 113 79l93 -45c-29 -76 -99 -131 -206 -131zM43 731h-378v88h378v-88z" />
    <glyph glyph-name="uni0915" unicode="&#x915;" horiz-adv-x="798" 
d="M631 298c0 44 -31 74 -75 74c-52 0 -86 -40 -86 -91v-281h-140v140h-4c-18 -17 -54 -38 -109 -38c-104 0 -189 76 -189 192c0 140 114 208 232 197l22 -121c-66 14 -115 -18 -115 -78c0 -44 34 -75 79 -75c52 0 84 40 84 91v254h-360v109h858v-109h-358v-115h4
c22 21 60 40 109 40c104 0 187 -75 187 -191c0 -140 -112 -209 -230 -198l-22 121c66 -14 113 19 113 79z" />
    <glyph glyph-name="uni0916" unicode="&#x916;" horiz-adv-x="839" 
d="M636 88h-4c-29 -28 -102 -84 -234 -84c-232 0 -355 179 -387 376l119 42c11 -35 26 -52 50 -52c18 0 36 12 36 42v150h-246v109h899v-109h-105v-562h-128v88zM632 481h4v81h-287v-141c0 -107 -56 -154 -135 -154c-8 0 -20 1 -29 3c27 -85 107 -156 226 -156
c129 0 227 88 227 199c0 52 -30 80 -69 80c-37 0 -63 -26 -63 -61c0 -48 44 -72 86 -76l-73 -73c-67 9 -137 59 -137 152c0 95 73 166 167 166c42 0 67 -10 83 -20z" />
    <glyph glyph-name="uni0917" unicode="&#x917;" horiz-adv-x="596" 
d="M-30 671h656v-109h-105v-562h-139v562h-131v-394h-134c-60 43 -81 117 -81 165l77 57v172h-143v109z" />
    <glyph glyph-name="uni0918" unicode="&#x918;" horiz-adv-x="667" 
d="M450 345v217h-169c-51 0 -76 -25 -76 -62c0 -36 26 -60 80 -60h63v-108h-53c-58 0 -83 -26 -83 -62c0 -32 23 -65 93 -65c91 0 145 69 145 140zM-30 671h727v-109h-105v-562h-142v157h-4c-32 -31 -85 -61 -172 -61c-124 0 -206 66 -206 160c0 80 55 117 98 128v4
c-61 4 -108 41 -108 100c0 32 14 53 33 70v4h-121v109z" />
    <glyph glyph-name="uni0919" unicode="&#x919;" horiz-adv-x="654" 
d="M595 441c42 0 73 -33 73 -74s-32 -74 -74 -74s-74 33 -74 74s33 74 75 74zM-30 671h714v-109h-208v-166h-186c-59 0 -69 -6 -69 -29c0 -14 9 -42 41 -55l157 36c66 -18 110 -78 110 -160c0 -110 -88 -196 -226 -196c-159 0 -244 112 -280 189l90 67
c38 -85 112 -141 193 -141c62 0 98 29 98 79c0 17 -9 34 -19 42l-136 -36c-113 46 -166 132 -166 206c0 67 46 108 135 108h120v56h-368v109z" />
    <glyph glyph-name="uni091A" unicode="&#x91a;" horiz-adv-x="681" 
d="M465 149h-4c-21 -25 -70 -68 -170 -68c-136 0 -201 83 -201 169c0 60 24 89 47 108v4h-128v120h391v-119h-60c-70 0 -107 -32 -107 -86c0 -44 30 -77 92 -77c84 0 140 62 140 172v190h-495v109h741v-109h-105v-562h-141v149z" />
    <glyph glyph-name="uni091B" unicode="&#x91b;" horiz-adv-x="699" 
d="M445 493v69h-163c-60 0 -86 -38 -86 -81c0 -42 26 -74 78 -74h33v-114c-6 0 -12 0 -17 -1c-58 -5 -78 -36 -78 -74c0 -47 42 -84 123 -84c115 0 206 87 206 188c0 47 -20 66 -46 66c-20 0 -35 -14 -35 -35c0 -25 17 -41 44 -50l-84 -78c-39 14 -90 55 -90 130
c0 65 45 120 115 138zM729 562h-152v-82c54 -27 88 -81 88 -160c0 -147 -129 -303 -343 -303c-161 0 -254 92 -254 195c0 81 44 120 85 135v4c-67 11 -103 61 -103 121c0 42 17 69 35 86v4h-115v109h759v-109z" />
    <glyph glyph-name="uni091C" unicode="&#x91c;" horiz-adv-x="769" 
d="M264 354v10l54 99h234v99h-582v109h829v-109h-105v-562h-142v353h-123v-4c30 -22 47 -61 47 -106c0 -98 -72 -165 -181 -165c-191 0 -266 207 -280 327l126 64c7 -129 51 -271 143 -271c33 0 58 20 58 60c0 38 -27 76 -78 96z" />
    <glyph glyph-name="uni091D" unicode="&#x91d;" horiz-adv-x="799" 
d="M241 311l165 39c24 -7 45 -21 61 -40c13 -3 34 -5 50 -5c24 0 48 3 71 9v248h-136v-164h-190c-58 0 -61 -18 -61 -39c0 -15 13 -40 40 -48zM829 671v-109h-105v-562h-136v201c-11 -1 -21 -1 -31 -1c-18 0 -36 2 -52 5v-12c0 -82 -60 -142 -147 -159v-4l169 -100l-143 -77
l-178 156c-124 0 -169 64 -169 118c0 40 21 69 54 84l157 -96h14c58 0 119 22 119 76c0 17 -9 31 -16 35l-135 -34c-112 37 -167 125 -167 206c0 67 46 108 135 108h118v56h-346v109h859z" />
    <glyph glyph-name="uni091E" unicode="&#x91e;" horiz-adv-x="760" 
d="M-30 671h820v-109h-105v-562h-141v247c-14 0 -28 0 -41 1c-12 0 -24 2 -35 3c-18 -111 -114 -178 -227 -178c-115 0 -205 63 -248 127l85 109c39 -68 93 -108 161 -108c50 0 95 29 95 91c0 47 -26 71 -58 79c-31 8 -68 0 -89 -19l-54 122c37 19 77 28 116 29
c90 2 177 -42 209 -133c17 -1 33 -2 49 -2c13 0 25 0 37 1v193h-574v109z" />
    <glyph glyph-name="uni091F" unicode="&#x91f;" horiz-adv-x="539" 
d="M-30 562v109h599v-109h-131v-168l-145 -37c-106 -27 -121 -64 -121 -114c0 -45 33 -97 119 -97c64 0 118 20 176 81l68 -113c-71 -68 -150 -89 -227 -89c-162 0 -271 114 -271 245c0 105 55 165 181 200l76 21v71h-324z" />
    <glyph glyph-name="uni0920" unicode="&#x920;" horiz-adv-x="611" 
d="M371 377l-78 -20c-106 -27 -121 -64 -121 -114c0 -45 33 -97 119 -97c100 0 154 55 154 120c0 47 -30 87 -74 111zM641 562h-203v-89c92 -50 137 -120 137 -214c0 -119 -94 -234 -267 -234c-162 0 -271 114 -271 245c0 105 55 165 181 200l76 21v71h-324v109h671v-109z
" />
    <glyph glyph-name="uni0921" unicode="&#x921;" horiz-adv-x="572" 
d="M476 396h-186c-59 0 -69 -6 -69 -29c0 -14 9 -42 41 -55l157 36c66 -18 110 -78 110 -160c0 -110 -88 -196 -226 -196c-159 0 -244 112 -280 189l90 67c38 -85 112 -141 193 -141c62 0 98 29 98 79c0 17 -9 34 -19 42l-136 -36c-113 46 -166 132 -166 206
c0 67 46 108 135 108h120v56h-368v109h632v-109h-126v-166z" />
    <glyph glyph-name="uni0922" unicode="&#x922;" horiz-adv-x="568" 
d="M331 130c46 0 71 23 71 57c0 21 -15 36 -38 36c-24 0 -45 -16 -50 -45l-79 74c15 35 59 85 147 85c78 0 144 -65 144 -145c0 -104 -76 -180 -200 -180c-147 0 -289 103 -289 263c0 105 68 173 185 204l102 27v56h-354v109h628v-109h-130v-152l-172 -42
c-94 -23 -118 -55 -118 -111c0 -60 60 -127 153 -127z" />
    <glyph glyph-name="uni0923" unicode="&#x923;" horiz-adv-x="794" 
d="M322 332v230h-117v-231c0 -49 24 -66 59 -66c37 0 58 18 58 67zM-30 671h853v-109h-104v-562h-141v562h-117v-218c0 -131 -77 -198 -200 -198c-125 0 -196 65 -196 195v221h-95v109z" />
    <glyph glyph-name="uni0924" unicode="&#x924;" horiz-adv-x="590" 
d="M302 75l-101 -88c-75 51 -158 152 -158 284c0 147 109 202 206 202h125v89h-404v109h651v-109h-106v-562h-141v352h-100c-47 0 -87 -25 -87 -86c0 -76 44 -141 115 -191z" />
    <glyph glyph-name="uni0925" unicode="&#x925;" horiz-adv-x="707" 
d="M251 311c-18 -5 -38 -9 -58 -12c6 -34 37 -100 131 -100c118 0 168 85 168 173v299h245v-109h-105v-562h-137v152h-4c-22 -26 -78 -74 -185 -74c-161 0 -271 109 -277 286l134 35c102 27 135 67 135 114c0 34 -14 53 -43 53c-25 0 -43 -17 -43 -45c0 -17 3 -33 17 -52
l-119 -34c-22 23 -33 56 -33 92c0 85 70 154 178 154c114 0 179 -71 179 -170c0 -112 -75 -173 -183 -200z" />
    <glyph glyph-name="uni0926" unicode="&#x926;" horiz-adv-x="559" 
d="M445 404l-135 -34c-106 -27 -141 -59 -141 -117c0 -60 57 -93 110 -90c22 1 42 8 58 22v96l89 33c40 -20 79 -49 79 -110c0 -40 -16 -66 -42 -92l128 -151l-158 -39l-65 130c-24 -6 -48 -9 -72 -9c-134 0 -262 88 -262 237c0 105 54 169 181 200l86 21v61h-331v109h619
v-109h-144v-158z" />
    <glyph glyph-name="uni0927" unicode="&#x927;" horiz-adv-x="652" 
d="M349 671h333v-109h-105v-562h-140v161h-4c-30 -28 -91 -60 -178 -60c-125 0 -204 67 -204 160c0 80 55 116 100 126v4c-60 5 -105 39 -105 99c0 32 15 55 34 68v4h-110v109h283l19 -102c-58 -9 -81 -38 -81 -69c0 -34 27 -57 78 -57h75v-108h-63c-59 0 -86 -24 -86 -62
c0 -30 20 -62 89 -62c90 0 153 70 153 145v206h-88v109z" />
    <glyph glyph-name="uni0928" unicode="&#x928;" horiz-adv-x="554" 
d="M188 198l-66 -32c-60 27 -112 86 -112 194l97 69h231v133h-368v109h614v-109h-105v-562h-141v308h-150v-110z" />
    <glyph glyph-name="uni092A" unicode="&#x92a;" horiz-adv-x="592" 
d="M376 217h-4c-35 -38 -89 -47 -126 -47c-117 0 -176 78 -176 185v207h-100v109h652v-109h-105v-562h-141v217zM376 407v155h-165v-197c0 -52 22 -76 67 -76c60 0 98 48 98 118z" />
    <glyph glyph-name="uni092B" unicode="&#x92b;" horiz-adv-x="830" 
d="M354 205h-4c-17 -16 -52 -34 -106 -34c-123 0 -174 75 -174 179v212h-100v109h890v-109h-369v-116h4c19 19 56 45 121 45c104 0 186 -74 186 -189c0 -140 -108 -213 -230 -202l-22 121c67 -15 113 22 113 79c0 44 -31 74 -75 74c-65 0 -97 -52 -97 -106v-268h-137v205z
M354 370v192h-143v-193c0 -52 15 -77 60 -77c62 0 83 39 83 78z" />
    <glyph glyph-name="uni092C" unicode="&#x92c;" horiz-adv-x="591" 
d="M322 226l-153 115c-4 -11 -7 -23 -7 -37c0 -58 45 -97 98 -97c23 0 44 7 62 19zM-30 671h651v-109h-105v-562h-142v141h-4c-25 -25 -74 -46 -131 -46c-123 0 -209 87 -209 206c0 135 106 213 208 213c32 0 50 -2 77 -9l7 -118c-24 8 -46 10 -67 10c-15 0 -30 -3 -43 -10
l150 -113c9 17 13 35 13 54v234h-405v109z" />
    <glyph glyph-name="uni092D" unicode="&#x92d;" horiz-adv-x="630" 
d="M334 671h326v-109h-105v-562h-139v275h-168v-107h-129c-60 43 -81 123 -81 171l77 58v112c0 39 -19 53 -54 53h-91v109h119c69 0 164 -26 164 -154v-119h163v164h-82v109z" />
    <glyph glyph-name="uni092E" unicode="&#x92e;" horiz-adv-x="608" 
d="M394 398v164h-141v-164h141zM-30 671h668v-109h-105v-562h-139v275h-146v-107h-129c-60 43 -81 123 -81 171l77 57v166h-145v109z" />
    <glyph glyph-name="uni092F" unicode="&#x92f;" horiz-adv-x="626" 
d="M410 159h-4c-26 -27 -74 -47 -135 -47c-134 0 -235 97 -241 262c77 15 133 42 133 105c0 20 -10 59 -29 83h-164v109h686v-109h-105v-562h-141v159zM181 326c8 -57 46 -96 111 -96c78 0 118 47 118 115v217h-150v-4c33 -28 43 -67 43 -98c0 -72 -57 -122 -122 -134z" />
    <glyph glyph-name="uni0930" unicode="&#x930;" horiz-adv-x="441" 
d="M235 260v-4c21 -21 41 -42 81 -90l92 -110l-115 -72l-289 356l106 84c31 -45 52 -62 81 -62c23 0 41 13 41 49v151h-262v109h501v-109h-99v-154c0 -98 -58 -138 -128 -147c-3 0 -6 -1 -9 -1z" />
    <glyph glyph-name="uni0932" unicode="&#x932;" horiz-adv-x="737" 
d="M516 458h4v104h-550v109h797v-109h-105v-562h-142v346c-9 6 -31 14 -48 14c-41 0 -59 -26 -59 -80v-94h-128v101c0 47 -22 72 -55 72c-27 0 -60 -19 -60 -88c0 -62 33 -139 143 -197l-89 -94c-122 63 -195 175 -195 297c0 139 95 199 186 199c61 0 107 -26 127 -74h4
c12 54 58 79 97 79c24 0 55 -5 73 -23z" />
    <glyph glyph-name="uni0933" unicode="&#x933;" horiz-adv-x="731" 
d="M497 151c47 0 76 45 76 107c0 65 -18 101 -62 101c-49 0 -69 -65 -94 -146c16 -37 44 -62 80 -62zM220 158c54 0 67 49 94 146c-16 39 -44 62 -80 62c-48 0 -76 -44 -76 -107c0 -65 18 -101 62 -101zM761 562h-191v-95c84 -22 134 -100 134 -209
c0 -129 -83 -215 -194 -215c-81 0 -123 39 -141 71c-35 -46 -84 -71 -155 -71c-116 0 -187 86 -187 216c0 131 83 215 194 215c80 0 122 -38 140 -69c19 25 43 44 73 55v102h-464v109h791v-109z" />
    <glyph glyph-name="uni0935" unicode="&#x935;" horiz-adv-x="574" 
d="M499 562v-562h-141v133h-4c-20 -19 -60 -42 -123 -42c-114 0 -203 79 -203 198c0 145 119 220 255 198l10 -122c-53 18 -120 -5 -120 -76c0 -50 34 -79 83 -79c68 0 102 54 102 117v235h-388v109h634v-109h-105z" />
    <glyph glyph-name="uni0936" unicode="&#x936;" horiz-adv-x="775" 
d="M261 461l-83 -81c-67 18 -103 70 -103 138c0 87 79 162 187 162c149 0 215 -100 215 -202c0 -162 -127 -238 -245 -242v-4c33 -17 82 -50 131 -94l93 -84l-117 -81l-245 227l-85 62l79 104c34 -17 72 -23 103 -23c86 0 144 50 144 133c0 61 -30 93 -67 93
c-36 0 -54 -24 -54 -48c0 -26 16 -50 47 -60zM558 0v671h247v-109h-105v-562h-142z" />
    <glyph glyph-name="uni0937" unicode="&#x937;" horiz-adv-x="599" 
d="M382 207h-4c-34 -38 -96 -47 -132 -47c-117 0 -176 77 -176 184v218h-100v109h659v-109h-105v-562h-142v207zM284 275c31 0 59 13 76 37l-103 103l-59 68l8 -95v-37c0 -52 33 -76 78 -76zM385 413v149h-164l163 -166c1 5 1 11 1 17z" />
    <glyph glyph-name="uni0938" unicode="&#x938;" horiz-adv-x="719" 
d="M364 562v-154c0 -14 -1 -26 -3 -37c15 -4 34 -6 57 -6c29 0 58 4 83 15v182h-137zM-30 671h779v-109h-105v-562h-143v249c-21 -5 -42 -7 -64 -7c-57 0 -99 14 -133 39c-20 -12 -43 -20 -68 -23c-3 0 -6 -1 -9 -1v-4c21 -21 41 -42 81 -90l92 -110l-115 -72l-284 350
l106 84c31 -40 47 -56 76 -56c23 0 41 14 41 50v153h-254v109z" />
    <glyph glyph-name="uni0939" unicode="&#x939;" horiz-adv-x="535" 
d="M455 393h-223c-37 0 -48 -14 -48 -34c0 -19 14 -40 43 -54c28 8 59 12 93 12c113 0 173 -75 173 -155c0 -56 -26 -98 -52 -129l-114 67c23 23 43 46 43 74c0 22 -20 35 -50 35c-76 0 -124 -36 -124 -86c0 -57 49 -107 264 -124l-61 -113c-182 18 -339 90 -339 242
c0 50 25 96 68 130c-56 33 -80 77 -80 128c0 69 57 116 150 116h121v60h-349v109h595v-109h-110v-169z" />
    <glyph glyph-name="uni0915093C" unicode="&#x958;" horiz-adv-x="798" 
d="M631 298c0 44 -31 74 -75 74c-52 0 -86 -40 -86 -91v-281h-140v140h-4c-18 -17 -54 -38 -109 -38c-104 0 -189 76 -189 192c0 140 114 208 232 197l22 -121c-66 14 -115 -18 -115 -78c0 -44 34 -75 79 -75c52 0 84 40 84 91v254h-360v109h858v-109h-358v-115h4
c22 21 60 40 109 40c104 0 187 -75 187 -191c0 -140 -112 -209 -230 -198l-22 121c66 -14 113 19 113 79zM55 12c0 44 32 75 71 75c43 0 74 -31 74 -75c0 -38 -31 -70 -74 -70c-39 0 -71 32 -71 70z" />
    <glyph glyph-name="uni0916093C" unicode="&#x959;" horiz-adv-x="839" 
d="M636 88h-4c-29 -28 -102 -84 -234 -84c-232 0 -355 179 -387 376l119 42c11 -35 26 -52 50 -52c18 0 36 12 36 42v150h-246v109h899v-109h-105v-562h-128v88zM632 481h4v81h-287v-141c0 -107 -56 -154 -135 -154c-8 0 -20 1 -29 3c27 -85 107 -156 226 -156
c129 0 227 88 227 199c0 52 -30 80 -69 80c-37 0 -63 -26 -63 -61c0 -48 44 -72 86 -76l-73 -73c-67 9 -137 59 -137 152c0 95 73 166 167 166c42 0 67 -10 83 -20zM102 -66c0 44 32 75 71 75c43 0 74 -31 74 -75c0 -38 -31 -70 -74 -70c-39 0 -71 32 -71 70z" />
    <glyph glyph-name="uni0917093C" unicode="&#x95a;" horiz-adv-x="596" 
d="M169 123c43 0 74 -31 74 -75c0 -38 -31 -70 -74 -70c-39 0 -71 32 -71 70c0 44 32 75 71 75zM-30 671h656v-109h-105v-562h-139v562h-131v-394h-134c-60 43 -81 117 -81 165l77 57v172h-143v109z" />
    <glyph glyph-name="uni0918093C" horiz-adv-x="667" 
d="M118 74c43 0 74 -31 74 -75c0 -38 -31 -70 -74 -70c-39 0 -71 32 -71 70c0 44 32 75 71 75zM450 345v217h-169c-51 0 -76 -25 -76 -62c0 -36 26 -60 80 -60h63v-108h-53c-58 0 -83 -26 -83 -62c0 -32 23 -65 93 -65c91 0 145 69 145 140zM-30 671h727v-109h-105v-562
h-142v157h-4c-32 -31 -85 -61 -172 -61c-124 0 -206 66 -206 160c0 80 55 117 98 128v4c-61 4 -108 41 -108 100c0 32 14 53 33 70v4h-121v109z" />
    <glyph glyph-name="uni0919093C" horiz-adv-x="654" 
d="M301 -50c43 0 74 -31 74 -75c0 -38 -31 -70 -74 -70c-39 0 -71 32 -71 70c0 44 32 75 71 75zM595 441c42 0 73 -33 73 -74s-32 -74 -74 -74s-74 33 -74 74s33 74 75 74zM-30 671h714v-109h-208v-166h-186c-59 0 -69 -6 -69 -29c0 -14 9 -42 41 -55l157 36
c66 -18 110 -78 110 -160c0 -110 -88 -196 -226 -196c-159 0 -244 112 -280 189l90 67c38 -85 112 -141 193 -141c62 0 98 29 98 79c0 17 -9 34 -19 42l-136 -36c-113 46 -166 132 -166 206c0 67 46 108 135 108h120v56h-368v109z" />
    <glyph glyph-name="uni091A093C" horiz-adv-x="681" 
d="M465 149h-4c-21 -25 -70 -68 -170 -68c-136 0 -201 83 -201 169c0 60 24 89 47 108v4h-128v120h391v-119h-60c-70 0 -107 -32 -107 -86c0 -44 30 -77 92 -77c84 0 140 62 140 172v190h-495v109h741v-109h-105v-562h-141v149zM50 -15c0 44 32 75 71 75c43 0 74 -31 74 -75
c0 -38 -31 -70 -74 -70c-39 0 -71 32 -71 70z" />
    <glyph glyph-name="uni091B093C" horiz-adv-x="699" 
d="M324 -25c43 0 74 -31 74 -75c0 -38 -31 -70 -74 -70c-39 0 -71 32 -71 70c0 44 32 75 71 75zM445 493v69h-163c-60 0 -86 -38 -86 -81c0 -42 26 -74 78 -74h33v-114c-6 0 -12 0 -17 -1c-58 -5 -78 -36 -78 -74c0 -47 42 -84 123 -84c115 0 206 87 206 188
c0 47 -20 66 -46 66c-20 0 -35 -14 -35 -35c0 -25 17 -41 44 -50l-84 -78c-39 14 -90 55 -90 130c0 65 45 120 115 138zM729 562h-152v-82c54 -27 88 -81 88 -160c0 -147 -129 -303 -343 -303c-161 0 -254 92 -254 195c0 81 44 120 85 135v4c-67 11 -103 61 -103 121
c0 42 17 69 35 86v4h-115v109h759v-109z" />
    <glyph glyph-name="uni091C093C" unicode="&#x95b;" horiz-adv-x="769" 
d="M264 354v10l54 99h234v99h-582v109h829v-109h-105v-562h-142v353h-123v-4c30 -22 47 -61 47 -106c0 -98 -72 -165 -181 -165c-191 0 -266 207 -280 327l126 64c7 -129 51 -271 143 -271c33 0 58 20 58 60c0 38 -27 76 -78 96zM102 -30c0 44 32 75 71 75
c43 0 74 -31 74 -75c0 -38 -31 -70 -74 -70c-39 0 -71 32 -71 70z" />
    <glyph glyph-name="uni091D093C" horiz-adv-x="799" 
d="M119 -19c43 0 74 -31 74 -75c0 -38 -31 -70 -74 -70c-39 0 -71 32 -71 70c0 44 32 75 71 75zM241 311l165 39c24 -7 45 -21 61 -40c13 -3 34 -5 50 -5c24 0 48 3 71 9v248h-136v-164h-190c-58 0 -61 -18 -61 -39c0 -15 13 -40 40 -48zM829 671v-109h-105v-562h-136v201
c-11 -1 -21 -1 -31 -1c-18 0 -36 2 -52 5v-12c0 -82 -60 -142 -147 -159v-4l169 -100l-143 -77l-178 156c-124 0 -169 64 -169 118c0 40 21 69 54 84l157 -96h14c58 0 119 22 119 76c0 17 -9 31 -16 35l-135 -34c-112 37 -167 125 -167 206c0 67 46 108 135 108h118v56h-346
v109h859z" />
    <glyph glyph-name="uni091E093C" horiz-adv-x="760" 
d="M98 53c43 0 74 -31 74 -75c0 -38 -31 -70 -74 -70c-39 0 -71 32 -71 70c0 44 32 75 71 75zM-30 671h820v-109h-105v-562h-141v247c-14 0 -28 0 -41 1c-12 0 -24 2 -35 3c-18 -111 -114 -178 -227 -178c-115 0 -205 63 -248 127l85 109c39 -68 93 -108 161 -108
c50 0 95 29 95 91c0 47 -26 71 -58 79c-31 8 -68 0 -89 -19l-54 122c37 19 77 28 116 29c90 2 177 -42 209 -133c17 -1 33 -2 49 -2c13 0 25 0 37 1v193h-574v109z" />
    <glyph glyph-name="uni091F093C" horiz-adv-x="539" 
d="M-30 562v109h599v-109h-131v-168l-145 -37c-106 -27 -121 -64 -121 -114c0 -45 33 -97 119 -97c64 0 118 20 176 81l68 -113c-71 -68 -150 -89 -227 -89c-162 0 -271 114 -271 245c0 105 55 165 181 200l76 21v71h-324zM240 -92c0 44 32 75 71 75c43 0 74 -31 74 -75
c0 -38 -31 -70 -74 -70c-39 0 -71 32 -71 70z" />
    <glyph glyph-name="uni0920093C" horiz-adv-x="611" 
d="M311 -17c43 0 74 -31 74 -75c0 -38 -31 -70 -74 -70c-39 0 -71 32 -71 70c0 44 32 75 71 75zM371 377l-78 -20c-106 -27 -121 -64 -121 -114c0 -45 33 -97 119 -97c100 0 154 55 154 120c0 47 -30 87 -74 111zM641 562h-203v-89c92 -50 137 -120 137 -214
c0 -119 -94 -234 -267 -234c-162 0 -271 114 -271 245c0 105 55 165 181 200l76 21v71h-324v109h671v-109z" />
    <glyph glyph-name="uni0921093C" unicode="&#x95c;" horiz-adv-x="572" 
d="M301 -50c43 0 74 -31 74 -75c0 -38 -31 -70 -74 -70c-39 0 -71 32 -71 70c0 44 32 75 71 75zM476 396h-186c-59 0 -69 -6 -69 -29c0 -14 9 -42 41 -55l157 36c66 -18 110 -78 110 -160c0 -110 -88 -196 -226 -196c-159 0 -244 112 -280 189l90 67
c38 -85 112 -141 193 -141c62 0 98 29 98 79c0 17 -9 34 -19 42l-136 -36c-113 46 -166 132 -166 206c0 67 46 108 135 108h120v56h-368v109h632v-109h-126v-166z" />
    <glyph glyph-name="uni0922093C" unicode="&#x95d;" horiz-adv-x="568" 
d="M331 130c46 0 71 23 71 57c0 21 -15 36 -38 36c-24 0 -45 -16 -50 -45l-79 74c15 35 59 85 147 85c78 0 144 -65 144 -145c0 -104 -76 -180 -200 -180c-147 0 -289 103 -289 263c0 105 68 173 185 204l102 27v56h-354v109h628v-109h-130v-152l-172 -42
c-94 -23 -118 -55 -118 -111c0 -60 60 -127 153 -127zM247 -105c0 44 32 75 71 75c43 0 74 -31 74 -75c0 -38 -31 -70 -74 -70c-39 0 -71 32 -71 70z" />
    <glyph glyph-name="uni0923093C" horiz-adv-x="794" 
d="M261 90c43 0 74 -31 74 -75c0 -38 -31 -70 -74 -70c-39 0 -71 32 -71 70c0 44 32 75 71 75zM322 332v230h-117v-231c0 -49 24 -66 59 -66c37 0 58 18 58 67zM-30 671h853v-109h-104v-562h-141v562h-117v-218c0 -131 -77 -198 -200 -198c-125 0 -196 65 -196 195v221h-95
v109z" />
    <glyph glyph-name="uni0924093C" horiz-adv-x="590" 
d="M302 75l-101 -88c-75 51 -158 152 -158 284c0 147 109 202 206 202h125v89h-404v109h651v-109h-106v-562h-141v352h-100c-47 0 -87 -25 -87 -86c0 -76 44 -141 115 -191zM-44 -27c0 44 32 75 71 75c43 0 74 -31 74 -75c0 -38 -31 -70 -74 -70c-39 0 -71 32 -71 70z" />
    <glyph glyph-name="uni0925093C" horiz-adv-x="707" 
d="M251 311c-18 -5 -38 -9 -58 -12c6 -34 37 -100 131 -100c118 0 168 85 168 173v299h245v-109h-105v-562h-137v152h-4c-22 -26 -78 -74 -185 -74c-161 0 -271 109 -277 286l134 35c102 27 135 67 135 114c0 34 -14 53 -43 53c-25 0 -43 -17 -43 -45c0 -17 3 -33 17 -52
l-119 -34c-22 23 -33 56 -33 92c0 85 70 154 178 154c114 0 179 -71 179 -170c0 -112 -75 -173 -183 -200zM47 -22c0 44 32 75 71 75c43 0 74 -31 74 -75c0 -38 -31 -70 -74 -70c-39 0 -71 32 -71 70z" />
    <glyph glyph-name="uni0926093C" horiz-adv-x="559" 
d="M445 404l-135 -34c-106 -27 -141 -59 -141 -117c0 -60 57 -93 110 -90c22 1 42 8 58 22v96l89 33c40 -20 79 -49 79 -110c0 -40 -16 -66 -42 -92l128 -151l-158 -39l-65 130c-24 -6 -48 -9 -72 -9c-134 0 -262 88 -262 237c0 105 54 169 181 200l86 21v61h-331v109h619
v-109h-144v-158zM45 -37c0 44 32 75 71 75c43 0 74 -31 74 -75c0 -38 -31 -70 -74 -70c-39 0 -71 32 -71 70z" />
    <glyph glyph-name="uni0927093C" horiz-adv-x="652" 
d="M132 66c43 0 74 -31 74 -75c0 -38 -31 -70 -74 -70c-39 0 -71 32 -71 70c0 44 32 75 71 75zM349 671h333v-109h-105v-562h-140v161h-4c-30 -28 -91 -60 -178 -60c-125 0 -204 67 -204 160c0 80 55 116 100 126v4c-60 5 -105 39 -105 99c0 32 15 55 34 68v4h-110v109h283
l19 -102c-58 -9 -81 -38 -81 -69c0 -34 27 -57 78 -57h75v-108h-63c-59 0 -86 -24 -86 -62c0 -30 20 -62 89 -62c90 0 153 70 153 145v206h-88v109z" />
    <glyph glyph-name="uni0928093C" unicode="&#x929;" horiz-adv-x="554" 
d="M188 198l-66 -32c-60 27 -112 86 -112 194l97 69h231v133h-368v109h614v-109h-105v-562h-141v308h-150v-110zM51 52c0 44 32 75 71 75c43 0 74 -31 74 -75c0 -38 -31 -70 -74 -70c-39 0 -71 32 -71 70z" />
    <glyph glyph-name="uni092A093C" horiz-adv-x="592" 
d="M50 47c0 44 32 75 71 75c43 0 74 -31 74 -75c0 -38 -31 -70 -74 -70c-39 0 -71 32 -71 70zM376 217h-4c-35 -38 -89 -47 -126 -47c-117 0 -176 78 -176 185v207h-100v109h652v-109h-105v-562h-141v217zM376 407v155h-165v-197c0 -52 22 -76 67 -76c60 0 98 48 98 118z
" />
    <glyph glyph-name="uni092B093C" unicode="&#x95e;" horiz-adv-x="830" 
d="M354 205h-4c-17 -16 -52 -34 -106 -34c-123 0 -174 75 -174 179v212h-100v109h890v-109h-369v-116h4c19 19 56 45 121 45c104 0 186 -74 186 -189c0 -140 -108 -213 -230 -202l-22 121c67 -15 113 22 113 79c0 44 -31 74 -75 74c-65 0 -97 -52 -97 -106v-268h-137v205z
M354 370v192h-143v-193c0 -52 15 -77 60 -77c62 0 83 39 83 78zM77 54c0 44 32 75 71 75c43 0 74 -31 74 -75c0 -38 -31 -70 -74 -70c-39 0 -71 32 -71 70z" />
    <glyph glyph-name="uni092C093C" horiz-adv-x="591" 
d="M76 77c43 0 74 -31 74 -75c0 -38 -31 -70 -74 -70c-39 0 -71 32 -71 70c0 44 32 75 71 75zM322 226l-153 115c-4 -11 -7 -23 -7 -37c0 -58 45 -97 98 -97c23 0 44 7 62 19zM-30 671h651v-109h-105v-562h-142v141h-4c-25 -25 -74 -46 -131 -46c-123 0 -209 87 -209 206
c0 135 106 213 208 213c32 0 50 -2 77 -9l7 -118c-24 8 -46 10 -67 10c-15 0 -30 -3 -43 -10l150 -113c9 17 13 35 13 54v234h-405v109z" />
    <glyph glyph-name="uni092D093C" horiz-adv-x="630" 
d="M153 122c43 0 74 -31 74 -75c0 -38 -31 -70 -74 -70c-39 0 -71 32 -71 70c0 44 32 75 71 75zM334 671h326v-109h-105v-562h-139v275h-168v-107h-129c-60 43 -81 123 -81 171l77 58v112c0 39 -19 53 -54 53h-91v109h119c69 0 164 -26 164 -154v-119h163v164h-82v109z" />
    <glyph glyph-name="uni092E093C" horiz-adv-x="608" 
d="M153 118c43 0 74 -31 74 -75c0 -38 -31 -70 -74 -70c-39 0 -71 32 -71 70c0 44 32 75 71 75zM394 398v164h-141v-164h141zM-30 671h668v-109h-105v-562h-139v275h-146v-107h-129c-60 43 -81 123 -81 171l77 57v166h-145v109z" />
    <glyph glyph-name="uni092F093C" unicode="&#x95f;" horiz-adv-x="626" 
d="M410 159h-4c-26 -27 -74 -47 -135 -47c-134 0 -235 97 -241 262c77 15 133 42 133 105c0 20 -10 59 -29 83h-164v109h686v-109h-105v-562h-141v159zM181 326c8 -57 46 -96 111 -96c78 0 118 47 118 115v217h-150v-4c33 -28 43 -67 43 -98c0 -72 -57 -122 -122 -134z
M36 17c0 44 32 75 71 75c43 0 74 -31 74 -75c0 -38 -31 -70 -74 -70c-39 0 -71 32 -71 70z" />
    <glyph glyph-name="uni0930093C" unicode="&#x931;" horiz-adv-x="467" 
d="M261 260v-4c21 -21 41 -42 81 -90l92 -110l-115 -72l-289 356l106 84c31 -45 52 -62 81 -62c23 0 41 13 41 49v151h-288v109h527v-109h-99v-154c0 -98 -58 -138 -128 -147c-3 0 -6 -1 -9 -1zM10 67c0 44 32 75 71 75c43 0 74 -31 74 -75c0 -38 -31 -70 -74 -70
c-39 0 -71 32 -71 70z" />
    <glyph glyph-name="uni0932093C" horiz-adv-x="737" 
d="M516 458h4v104h-550v109h797v-109h-105v-562h-142v346c-9 6 -31 14 -48 14c-41 0 -59 -26 -59 -80v-94h-128v101c0 47 -22 72 -55 72c-27 0 -60 -19 -60 -88c0 -62 33 -139 143 -197l-89 -94c-122 63 -195 175 -195 297c0 139 95 199 186 199c61 0 107 -26 127 -74h4
c12 54 58 79 97 79c24 0 55 -5 73 -23zM-3 -76c0 44 32 75 71 75c43 0 74 -31 74 -75c0 -38 -31 -70 -74 -70c-39 0 -71 32 -71 70z" />
    <glyph glyph-name="uni0933093C" unicode="&#x934;" horiz-adv-x="731" 
d="M368 14c44 0 77 -33 77 -78c0 -40 -33 -73 -77 -73c-41 0 -74 33 -74 73c0 45 33 78 74 78zM497 151c47 0 76 45 76 107c0 65 -18 101 -62 101c-49 0 -69 -65 -94 -146c16 -37 44 -62 80 -62zM220 158c54 0 67 49 94 146c-16 39 -44 62 -80 62c-48 0 -76 -44 -76 -107
c0 -65 18 -101 62 -101zM761 562h-191v-95c84 -22 134 -100 134 -209c0 -129 -83 -215 -194 -215c-81 0 -123 39 -141 71c-35 -46 -84 -71 -155 -71c-116 0 -187 86 -187 216c0 131 83 215 194 215c80 0 122 -38 140 -69c19 25 43 44 73 55v102h-464v109h791v-109z" />
    <glyph glyph-name="uni0935093C" horiz-adv-x="574" 
d="M499 562v-562h-141v133h-4c-20 -19 -60 -42 -123 -42c-114 0 -203 79 -203 198c0 145 119 220 255 198l10 -122c-53 18 -120 -5 -120 -76c0 -50 34 -79 83 -79c68 0 102 54 102 117v235h-388v109h634v-109h-105zM5 2c0 44 32 75 71 75c43 0 74 -31 74 -75
c0 -38 -31 -70 -74 -70c-39 0 -71 32 -71 70z" />
    <glyph glyph-name="uni0936093C" horiz-adv-x="775" 
d="M261 461l-83 -81c-67 18 -103 70 -103 138c0 87 79 162 187 162c149 0 215 -100 215 -202c0 -162 -127 -238 -245 -242v-4c33 -17 82 -50 131 -94l93 -84l-117 -81l-245 227l-85 62l79 104c34 -17 72 -23 103 -23c86 0 144 50 144 133c0 61 -30 93 -67 93
c-36 0 -54 -24 -54 -48c0 -26 16 -50 47 -60zM558 0v671h247v-109h-105v-562h-142zM6 4c0 44 32 75 71 75c43 0 74 -31 74 -75c0 -38 -31 -70 -74 -70c-39 0 -71 32 -71 70z" />
    <glyph glyph-name="uni0937093C" horiz-adv-x="599" 
d="M382 207h-4c-34 -38 -96 -47 -132 -47c-117 0 -176 77 -176 184v218h-100v109h659v-109h-105v-562h-142v207zM284 275c31 0 59 13 76 37l-103 103l-59 68l8 -95v-37c0 -52 33 -76 78 -76zM385 413v149h-164l163 -166c1 5 1 11 1 17zM36 17c0 44 32 75 71 75
c43 0 74 -31 74 -75c0 -38 -31 -70 -74 -70c-39 0 -71 32 -71 70z" />
    <glyph glyph-name="uni0938093C" horiz-adv-x="719" 
d="M77 77c43 0 74 -31 74 -75c0 -38 -31 -70 -74 -70c-39 0 -71 32 -71 70c0 44 32 75 71 75zM364 562v-154c0 -14 -1 -26 -3 -37c15 -4 34 -6 57 -6c29 0 58 4 83 15v182h-137zM-30 671h779v-109h-105v-562h-143v249c-21 -5 -42 -7 -64 -7c-57 0 -99 14 -133 39
c-20 -12 -43 -20 -68 -23c-3 0 -6 -1 -9 -1v-4c21 -21 41 -42 81 -90l92 -110l-115 -72l-284 350l106 84c31 -40 47 -56 76 -56c23 0 41 14 41 50v153h-254v109z" />
    <glyph glyph-name="uni0939093C" horiz-adv-x="535" 
d="M73 -54c43 0 74 -31 74 -75c0 -38 -31 -70 -74 -70c-39 0 -71 32 -71 70c0 44 32 75 71 75zM455 393h-223c-37 0 -48 -14 -48 -34c0 -19 14 -40 43 -54c28 8 59 12 93 12c113 0 173 -75 173 -155c0 -56 -26 -98 -52 -129l-114 67c23 23 43 46 43 74c0 22 -20 35 -50 35
c-76 0 -124 -36 -124 -86c0 -57 49 -107 264 -124l-61 -113c-182 18 -339 90 -339 242c0 50 25 96 68 130c-56 33 -80 77 -80 128c0 69 57 116 150 116h121v60h-349v109h595v-109h-110v-169z" />
    <glyph glyph-name="uni0915094D" horiz-adv-x="568" 
d="M330 140h-4c-18 -17 -54 -38 -109 -38c-104 0 -189 76 -189 192c0 140 114 208 232 197l22 -121c-66 14 -115 -18 -115 -78c0 -44 34 -75 79 -75c52 0 84 40 84 91v254h-360v109h628v-109h-128v-114h4c21 21 65 39 108 39c68 0 109 -24 138 -48l-71 -105
c-20 20 -46 38 -89 38c-54 0 -90 -39 -90 -91v-281h-140v140z" />
    <glyph glyph-name="uni0916094D" horiz-adv-x="608" 
d="M638 562h-289v-141c0 -107 -56 -154 -135 -154c-8 0 -20 1 -29 3c27 -87 110 -153 230 -153c130 0 222 87 222 200c0 53 -30 79 -68 79c-37 0 -63 -25 -63 -60c0 -48 42 -70 83 -74l-73 -74c-66 8 -131 57 -131 150c0 95 72 168 179 168c108 0 191 -77 191 -196
c0 -148 -132 -303 -353 -303c-229 0 -360 177 -391 373l119 42c11 -35 30 -51 54 -51c18 0 32 11 32 41v150h-246v109h668v-109z" />
    <glyph glyph-name="uni0917094D" horiz-adv-x="323" 
d="M353 671v-109h-102v-394h-134c-60 43 -81 117 -81 165l77 57v172h-143v109h383z" />
    <glyph glyph-name="uni0918094D" horiz-adv-x="392" 
d="M305 205c70 0 129 50 157 93l74 -96c-45 -47 -120 -106 -262 -106c-124 0 -206 66 -206 160c0 80 55 117 98 128v4c-61 4 -108 41 -108 100c0 32 14 53 33 70v4h-121v109h452v-109h-141c-51 0 -76 -25 -76 -62c0 -36 26 -60 80 -60h63v-108h-53c-58 0 -83 -26 -83 -62
c0 -32 23 -65 93 -65z" />
    <glyph glyph-name="uni0919094D" horiz-adv-x="654" 
d="M205 -99l107 43l184 -197v-4h-183zM595 441c42 0 73 -33 73 -74s-32 -74 -74 -74s-74 33 -74 74s33 74 75 74zM-30 671h714v-109h-208v-166h-186c-59 0 -69 -6 -69 -29c0 -14 9 -42 41 -55l157 36c66 -18 110 -78 110 -160c0 -110 -88 -196 -226 -196
c-159 0 -244 112 -280 189l90 67c38 -85 112 -141 193 -141c62 0 98 29 98 79c0 17 -9 34 -19 42l-136 -36c-113 46 -166 132 -166 206c0 67 46 108 135 108h120v56h-368v109z" />
    <glyph glyph-name="uni091A094D" horiz-adv-x="433" 
d="M463 671v-109h-493v109h493zM302 81c-142 0 -212 82 -212 169c0 60 24 89 47 108v4h-128v120h391v-119h-60c-70 0 -107 -32 -107 -86c0 -44 33 -77 97 -77c88 0 134 56 154 86l81 -91c-54 -67 -140 -114 -263 -114z" />
    <glyph glyph-name="uni091B094D" horiz-adv-x="699" 
d="M504 321l-84 -78c-39 14 -90 55 -90 130c0 78 65 143 162 143c101 0 173 -63 173 -178c0 -148 -122 -321 -351 -321c-161 0 -246 92 -246 195c0 81 44 120 85 135v4c-67 11 -103 61 -103 121c0 42 17 69 35 86v4h-115v109h759v-109h-447c-60 0 -86 -38 -86 -81
c0 -42 26 -74 78 -74h33v-114c-6 0 -11 0 -16 -1c-59 -4 -79 -35 -79 -74c0 -47 34 -84 115 -84c116 0 214 94 214 206c0 48 -23 66 -48 66c-18 0 -33 -14 -33 -35c0 -25 17 -41 44 -50z" />
    <glyph glyph-name="uni091C094D" horiz-adv-x="522" 
d="M552 671v-109h-582v109h582zM612 463v-110h-183v-4c30 -22 47 -61 47 -106c0 -98 -72 -165 -181 -165c-191 0 -266 207 -280 327l126 64c7 -129 51 -271 143 -271c33 0 58 20 58 60c0 38 -27 76 -78 96v10l54 99h294z" />
    <glyph glyph-name="uni091D094D" horiz-adv-x="550" 
d="M647 345l29 -119c-39 -20 -87 -26 -124 -26c-15 0 -30 1 -44 4v-11c0 -82 -60 -142 -147 -159v-4l169 -100l-145 -77l-178 156c-124 0 -169 64 -169 118c0 40 21 69 54 84l157 -96h14c58 0 117 22 117 76c0 17 -9 31 -16 35l-133 -34c-112 37 -169 125 -169 206
c0 67 46 108 135 108h120v56h-347v109h610v-109h-125v-166h-190c-58 0 -61 -16 -61 -37c0 -15 13 -40 40 -48l163 39c25 -8 46 -22 63 -42c13 -2 29 -3 42 -3c47 0 96 11 135 40z" />
    <glyph glyph-name="uni091E094D" horiz-adv-x="507" 
d="M537 671v-109h-567v109h567zM590 377l23 -116c-31 -8 -63 -13 -96 -13c-18 0 -35 1 -49 3c-18 -109 -110 -178 -227 -178c-115 0 -205 63 -248 127l85 109c39 -68 91 -108 159 -108c53 0 97 35 97 91c0 55 -37 82 -82 82c-27 0 -52 -11 -66 -20l-54 120
c36 18 80 29 119 29c99 0 179 -45 208 -133c18 -1 35 -2 53 -2c28 0 57 4 78 9z" />
    <glyph glyph-name="uni091F094D" horiz-adv-x="539" 
d="M505 -223v-4h-183l-108 158l107 43zM-30 562v109h599v-109h-131v-168l-145 -37c-106 -27 -121 -64 -121 -114c0 -45 33 -97 119 -97c64 0 118 20 176 81l68 -113c-71 -68 -150 -89 -227 -89c-162 0 -271 114 -271 245c0 105 55 165 181 200l76 21v71h-324z" />
    <glyph glyph-name="uni0920094D" horiz-adv-x="611" 
d="M244 -69l107 43l184 -197v-4h-183zM371 377l-78 -20c-106 -27 -121 -64 -121 -114c0 -45 33 -97 119 -97c100 0 154 55 154 120c0 47 -30 87 -74 111zM641 562h-203v-89c92 -50 137 -120 137 -214c0 -119 -94 -234 -267 -234c-162 0 -271 114 -271 245
c0 105 55 165 181 200l76 21v71h-324v109h671v-109z" />
    <glyph glyph-name="uni0921094D" horiz-adv-x="572" 
d="M224 -99l107 43l184 -197v-4h-183zM476 396h-186c-59 0 -69 -6 -69 -29c0 -14 9 -42 41 -55l157 36c66 -18 110 -78 110 -160c0 -110 -88 -196 -226 -196c-159 0 -244 112 -280 189l90 67c38 -85 112 -141 193 -141c62 0 98 29 98 79c0 17 -9 34 -19 42l-136 -36
c-113 46 -166 132 -166 206c0 67 46 108 135 108h120v56h-368v109h632v-109h-126v-166z" />
    <glyph glyph-name="uni0922094D" horiz-adv-x="568" 
d="M522 -253v-4h-183l-108 158l107 43zM331 130c46 0 71 23 71 57c0 21 -15 36 -38 36c-24 0 -45 -16 -50 -45l-79 74c15 35 59 85 147 85c78 0 144 -65 144 -145c0 -104 -76 -180 -200 -180c-147 0 -289 103 -289 263c0 105 68 173 185 204l102 27v56h-354v109h628v-109
h-130v-152l-172 -42c-94 -23 -118 -55 -118 -111c0 -60 60 -127 153 -127z" />
    <glyph glyph-name="uni0923094D" horiz-adv-x="504" 
d="M312 334v228h-107v-229c0 -49 19 -68 54 -68c37 0 53 20 53 69zM-30 671h564v-109h-83v-217c0 -131 -72 -199 -195 -199c-125 0 -191 66 -191 196v220h-95v109z" />
    <glyph glyph-name="uni0924094D" horiz-adv-x="338" 
d="M368 671v-109h-398v109h398zM457 473v-121h-183c-47 0 -87 -25 -87 -86c0 -76 44 -141 115 -191l-101 -88c-75 51 -158 152 -158 284c0 147 109 202 206 202h208z" />
    <glyph glyph-name="uni0925094D" horiz-adv-x="468" 
d="M311 78c-162 0 -276 113 -282 286l134 35c102 27 135 67 135 114c0 34 -14 53 -43 53c-25 0 -43 -17 -43 -45c0 -17 3 -33 17 -52l-119 -34c-22 23 -33 56 -33 92c0 85 70 154 178 154c114 0 179 -71 179 -170c0 -110 -73 -171 -178 -199c-20 -6 -41 -10 -63 -13
c5 -36 43 -100 136 -100c107 0 155 67 177 106l96 -91c-41 -55 -116 -136 -291 -136z" />
    <glyph glyph-name="uni0926094D" horiz-adv-x="555" 
d="M649 -306v-4h-183l-108 158l107 43zM445 404l-135 -34c-106 -27 -141 -59 -141 -117c0 -60 57 -93 110 -90c22 1 42 8 58 22v96l89 33c40 -20 79 -49 79 -110c0 -40 -16 -66 -42 -92l128 -151l-158 -39l-65 130c-24 -6 -48 -9 -72 -9c-134 0 -262 88 -262 237
c0 105 54 169 181 200l86 21v61h-331v109h619v-109h-144v-158z" />
    <glyph glyph-name="uni0927094D" horiz-adv-x="401" 
d="M51 261c0 80 55 116 100 126v4c-60 5 -105 39 -105 99c0 32 15 55 34 68v4h-110v109h283l19 -102c-58 -9 -81 -38 -81 -69c0 -34 27 -57 78 -57h75v-108h-63c-59 0 -86 -24 -86 -62c0 -30 20 -62 89 -62c76 0 127 35 163 78l74 -87c-38 -42 -117 -101 -266 -101
c-125 0 -204 67 -204 160zM431 671v-109h-82v109h82z" />
    <glyph glyph-name="uni0928094D" horiz-adv-x="297" 
d="M327 671v-109h-357v109h357zM430 429v-121h-242v-110l-66 -32c-60 27 -112 86 -112 194l97 69h323z" />
    <glyph glyph-name="uni092A094D" horiz-adv-x="307" 
d="M258 170c-133 0 -188 84 -188 185v207h-100v109h367v-109h-126v-197c0 -52 22 -76 67 -76c48 0 89 31 117 74l80 -93c-35 -47 -100 -100 -217 -100z" />
    <glyph glyph-name="uni092B094D" horiz-adv-x="589" 
d="M581 372c-54 0 -90 -39 -90 -91v-281h-137v205h-4c-17 -16 -52 -34 -106 -34c-123 0 -174 75 -174 179v212h-100v109h649v-109h-128v-114h4c23 22 67 39 113 39c43 0 84 -13 116 -36l-67 -106c-14 13 -38 27 -76 27zM354 370v192h-143v-193c0 -52 15 -77 60 -77
c62 0 83 39 83 78z" />
    <glyph glyph-name="uni092C094D" horiz-adv-x="352" 
d="M382 671v-109h-412v109h412zM327 224l-158 117c-4 -11 -7 -23 -7 -37c0 -58 47 -97 100 -97c25 0 47 7 65 17zM396 294l87 -78c-48 -78 -136 -121 -226 -121c-120 0 -227 69 -227 206c0 135 106 213 208 213c32 0 50 -2 77 -9l7 -118c-24 8 -46 10 -67 10
c-15 0 -30 -3 -42 -10l162 -121c8 10 15 19 21 28z" />
    <glyph glyph-name="uni092D094D" horiz-adv-x="369" 
d="M399 671v-109h-65v109h65zM253 398h210v-123h-215v-107h-129c-60 43 -81 123 -81 171l77 58v112c0 39 -19 53 -54 53h-91v109h119c69 0 164 -26 164 -154v-119z" />
    <glyph glyph-name="uni092E094D" horiz-adv-x="364" 
d="M253 398h205v-123h-210v-107h-129c-60 43 -81 123 -81 171l77 57v166h-145v109h424v-109h-141v-164z" />
    <glyph glyph-name="uni092F094D" horiz-adv-x="352" 
d="M290 112c-134 0 -256 86 -260 262c77 15 133 42 133 105c0 20 -10 59 -29 83h-164v109h412v-109h-122v-4c33 -28 43 -67 43 -98c0 -72 -57 -122 -122 -134c8 -55 46 -96 111 -96c78 0 114 45 136 79l87 -84c-50 -73 -132 -113 -225 -113z" />
    <glyph glyph-name="uni0930094D" horiz-adv-x="441" 
d="M413 -253v-4h-183l-108 158l107 43zM235 260v-4c21 -21 41 -42 81 -90l92 -110l-115 -72l-289 356l106 84c31 -45 52 -62 81 -62c23 0 41 13 41 49v151h-262v109h501v-109h-99v-154c0 -98 -58 -138 -128 -147c-3 0 -6 -1 -9 -1z" />
    <glyph glyph-name="uni0932094D" horiz-adv-x="472" 
d="M502 671v-109h-532v109h532zM215 476c61 0 107 -26 127 -74h4c12 40 47 80 119 80c65 0 107 -26 134 -51l-61 -104c-15 17 -35 33 -66 33c-37 0 -59 -24 -59 -73v-101h-128v102c0 47 -22 69 -55 69c-27 0 -60 -17 -60 -86c0 -62 33 -139 143 -197l-89 -94
c-122 63 -195 175 -195 297c0 139 95 199 186 199z" />
    <glyph glyph-name="uni0933094D" horiz-adv-x="731" 
d="M496 151c47 0 77 45 77 107c0 65 -18 101 -62 101c-63 0 -81 -98 -95 -147c17 -38 46 -61 80 -61zM220 158c62 0 81 98 95 147c-17 38 -46 61 -80 61c-47 0 -77 -45 -77 -107c0 -65 18 -101 62 -101zM517 474c115 0 187 -86 187 -216c0 -129 -83 -215 -194 -215
c-81 0 -123 39 -141 71c-35 -46 -84 -71 -155 -71c-115 0 -187 86 -187 216c0 129 83 215 194 215c80 0 122 -38 141 -70c33 46 81 70 155 70zM-30 671h791v-109h-791v109z" />
    <glyph glyph-name="uni0935094D" horiz-adv-x="328" 
d="M358 671v-109h-388v109h388zM247 91c-127 0 -219 79 -219 198c0 137 105 202 207 202c14 0 32 -1 48 -4l10 -122c-15 5 -26 5 -39 5c-45 0 -81 -29 -81 -81c0 -51 36 -79 85 -79c72 0 102 60 115 88l102 -76c-38 -66 -104 -131 -228 -131z" />
    <glyph glyph-name="uni0936094D" horiz-adv-x="490" 
d="M261 461l-83 -81c-67 18 -103 70 -103 138c0 87 79 162 187 162c149 0 215 -100 215 -202c0 -162 -127 -238 -245 -242v-4c33 -17 82 -50 131 -94l93 -84l-117 -81l-245 227l-85 62l79 104c34 -17 72 -23 103 -23c86 0 144 50 144 133c0 61 -30 93 -67 93
c-36 0 -54 -24 -54 -48c0 -26 16 -50 47 -60z" />
    <glyph glyph-name="uni0937094D" horiz-adv-x="325" 
d="M207 388v-37c0 -52 33 -76 78 -76c32 0 58 15 79 34l-106 106l-59 68zM419 385l82 -86c-37 -67 -94 -140 -246 -140c-124 0 -184 75 -184 182v221h-101v109h385v-109h-131l187 -191z" />
    <glyph glyph-name="uni0938094D" horiz-adv-x="456" 
d="M538 403l57 -116c-51 -31 -103 -45 -158 -45c-57 0 -99 14 -133 39c-14 -9 -30 -15 -47 -19c-10 -2 -20 -4 -30 -5v-4c21 -21 41 -42 81 -90l92 -110l-115 -72l-284 350l106 84c28 -38 47 -56 76 -56c23 0 41 13 41 49v154h-254v109h516v-109h-122v-157
c0 -12 -1 -24 -3 -35c16 -3 34 -5 57 -5c44 0 88 10 120 38z" />
    <glyph glyph-name="uni0939094D" horiz-adv-x="508" 
d="M584 196h-290c-71 0 -101 -29 -101 -70c0 -70 92 -111 256 -118l-47 -108c-173 9 -349 74 -349 233c0 57 30 101 79 130c-60 24 -87 74 -87 123c0 64 51 114 143 114h142v62h-360v109h569v-109h-73v-168h-238c-27 0 -48 -6 -48 -33c0 -19 18 -47 69 -59c20 3 42 4 64 4
h271v-110z" />
    <glyph glyph-name="uni0915093C094D" horiz-adv-x="568" 
d="M330 140h-4c-18 -17 -54 -38 -109 -38c-104 0 -189 76 -189 192c0 140 114 208 232 197l22 -121c-66 14 -115 -18 -115 -78c0 -44 34 -75 79 -75c52 0 84 40 84 91v254h-360v109h628v-109h-128v-114h4c21 21 65 39 108 39c68 0 109 -24 138 -48l-71 -105
c-20 20 -46 38 -89 38c-54 0 -90 -39 -90 -91v-281h-140v140zM55 4c0 44 32 75 71 75c43 0 74 -31 74 -75c0 -38 -31 -70 -74 -70c-39 0 -71 32 -71 70z" />
    <glyph glyph-name="uni0916093C094D" horiz-adv-x="608" 
d="M638 562h-289v-141c0 -107 -56 -154 -135 -154c-8 0 -20 1 -29 3c27 -87 110 -153 230 -153c130 0 222 87 222 200c0 53 -30 79 -68 79c-37 0 -63 -25 -63 -60c0 -48 42 -70 83 -74l-73 -74c-66 8 -131 57 -131 150c0 95 72 168 179 168c108 0 191 -77 191 -196
c0 -148 -132 -303 -353 -303c-229 0 -360 177 -391 373l119 42c11 -35 30 -51 54 -51c18 0 32 11 32 41v150h-246v109h668v-109zM102 -66c0 44 32 75 71 75c43 0 74 -31 74 -75c0 -38 -31 -70 -74 -70c-39 0 -71 32 -71 70z" />
    <glyph glyph-name="uni0917093C094D" horiz-adv-x="323" 
d="M162 82c43 0 74 -31 74 -75c0 -38 -31 -70 -74 -70c-39 0 -71 32 -71 70c0 44 32 75 71 75zM353 671v-109h-102v-394h-134c-60 43 -81 117 -81 165l77 57v172h-143v109h383z" />
    <glyph glyph-name="uni0918093C094D" horiz-adv-x="392" 
d="M47 -1c0 44 32 75 71 75c43 0 74 -31 74 -75c0 -38 -31 -70 -74 -70c-39 0 -71 32 -71 70zM305 205c70 0 129 50 157 93l74 -96c-45 -47 -120 -106 -262 -106c-124 0 -206 66 -206 160c0 80 55 117 98 128v4c-61 4 -108 41 -108 100c0 32 14 53 33 70v4h-121v109h452
v-109h-141c-51 0 -76 -25 -76 -62c0 -36 26 -60 80 -60h63v-108h-53c-58 0 -83 -26 -83 -62c0 -32 23 -65 93 -65z" />
    <glyph glyph-name="uni0919093C094D" horiz-adv-x="654" 
d="M54 13c43 0 74 -31 74 -75c0 -38 -31 -70 -74 -70c-39 0 -71 32 -71 70c0 44 32 75 71 75zM223 -99l107 43l184 -197v-4h-183zM595 441c42 0 73 -33 73 -74s-32 -74 -74 -74s-74 33 -74 74s33 74 75 74zM-30 671h714v-109h-208v-166h-186c-59 0 -69 -6 -69 -29
c0 -14 9 -42 41 -55l157 36c66 -18 110 -78 110 -160c0 -110 -88 -196 -226 -196c-159 0 -244 112 -280 189l90 67c38 -85 112 -141 193 -141c62 0 98 29 98 79c0 17 -9 34 -19 42l-136 -36c-113 46 -166 132 -166 206c0 67 46 108 135 108h120v56h-368v109z" />
    <glyph glyph-name="uni091A093C094D" horiz-adv-x="433" 
d="M50 -15c0 44 32 75 71 75c43 0 74 -31 74 -75c0 -38 -31 -70 -74 -70c-39 0 -71 32 -71 70zM463 671v-109h-493v109h493zM302 81c-142 0 -212 82 -212 169c0 60 24 89 47 108v4h-128v120h391v-119h-60c-70 0 -107 -32 -107 -86c0 -44 33 -77 97 -77c88 0 134 56 154 86
l81 -91c-54 -67 -140 -114 -263 -114z" />
    <glyph glyph-name="uni091B093C094D" horiz-adv-x="699" 
d="M504 321l-84 -78c-39 14 -90 55 -90 130c0 78 65 143 162 143c101 0 173 -63 173 -178c0 -148 -122 -321 -351 -321c-161 0 -246 92 -246 195c0 81 44 120 85 135v4c-67 11 -103 61 -103 121c0 42 17 69 35 86v4h-115v109h759v-109h-447c-60 0 -86 -38 -86 -81
c0 -42 26 -74 78 -74h33v-114c-6 0 -11 0 -16 -1c-59 -4 -79 -35 -79 -74c0 -47 34 -84 115 -84c116 0 214 94 214 206c0 48 -23 66 -48 66c-18 0 -33 -14 -33 -35c0 -25 17 -41 44 -50zM253 -100c0 44 32 75 71 75c43 0 74 -31 74 -75c0 -38 -31 -70 -74 -70
c-39 0 -71 32 -71 70z" />
    <glyph glyph-name="uni091C093C094D" horiz-adv-x="522" 
d="M102 -50c0 44 32 75 71 75c43 0 74 -31 74 -75c0 -38 -31 -70 -74 -70c-39 0 -71 32 -71 70zM552 671v-109h-582v109h582zM612 463v-110h-183v-4c30 -22 47 -61 47 -106c0 -98 -72 -165 -181 -165c-191 0 -266 207 -280 327l126 64c7 -129 51 -271 143 -271
c33 0 58 20 58 60c0 38 -27 76 -78 96v10l54 99h294z" />
    <glyph glyph-name="uni091D093C094D" horiz-adv-x="550" 
d="M119 -19c43 0 74 -31 74 -75c0 -38 -31 -70 -74 -70c-39 0 -71 32 -71 70c0 44 32 75 71 75zM647 345l29 -119c-39 -20 -87 -26 -124 -26c-15 0 -30 1 -44 4v-11c0 -82 -60 -142 -147 -159v-4l169 -100l-145 -77l-178 156c-124 0 -169 64 -169 118c0 40 21 69 54 84
l157 -96h14c58 0 117 22 117 76c0 17 -9 31 -16 35l-133 -34c-112 37 -169 125 -169 206c0 67 46 108 135 108h120v56h-347v109h610v-109h-125v-166h-190c-58 0 -61 -16 -61 -37c0 -15 13 -40 40 -48l163 39c25 -8 46 -22 63 -42c13 -2 29 -3 42 -3c47 0 96 11 135 40z" />
    <glyph glyph-name="uni091E093C094D" horiz-adv-x="507" 
d="M537 671v-109h-567v109h567zM98 53c43 0 74 -31 74 -75c0 -38 -31 -70 -74 -70c-39 0 -71 32 -71 70c0 44 32 75 71 75zM590 377l23 -116c-31 -8 -63 -13 -96 -13c-18 0 -35 1 -49 3c-18 -109 -110 -178 -227 -178c-115 0 -205 63 -248 127l85 109
c39 -68 91 -108 159 -108c53 0 97 35 97 91c0 55 -37 82 -82 82c-27 0 -52 -11 -66 -20l-54 120c36 18 80 29 119 29c99 0 179 -45 208 -133c18 -1 35 -2 53 -2c28 0 57 4 78 9z" />
    <glyph glyph-name="uni091F093C094D" horiz-adv-x="539" 
d="M515 -253v-4h-183l-108 158l107 43zM-30 562v109h599v-109h-131v-168l-145 -37c-106 -27 -121 -64 -121 -114c0 -45 33 -97 119 -97c64 0 118 20 176 81l68 -113c-71 -68 -150 -89 -227 -89c-162 0 -271 114 -271 245c0 105 55 165 181 200l76 21v71h-324zM0 -40
c0 44 32 75 71 75c43 0 74 -31 74 -75c0 -38 -31 -70 -74 -70c-39 0 -71 32 -71 70z" />
    <glyph glyph-name="uni0920093C094D" horiz-adv-x="611" 
d="M60 45c43 0 74 -31 74 -75c0 -38 -31 -70 -74 -70c-39 0 -71 32 -71 70c0 44 32 75 71 75zM232 -99l107 43l184 -197v-4h-183zM371 377l-78 -20c-106 -27 -121 -64 -121 -114c0 -45 33 -97 119 -97c100 0 154 55 154 120c0 47 -30 87 -74 111zM641 562h-203v-89
c92 -50 137 -120 137 -214c0 -119 -94 -234 -267 -234c-162 0 -271 114 -271 245c0 105 55 165 181 200l76 21v71h-324v109h671v-109z" />
    <glyph glyph-name="uni0921093C094D" horiz-adv-x="572" 
d="M69 2c43 0 74 -31 74 -75c0 -38 -31 -70 -74 -70c-39 0 -71 32 -71 70c0 44 32 75 71 75zM225 -99l107 43l184 -197v-4h-183zM476 396h-186c-59 0 -69 -6 -69 -29c0 -14 9 -42 41 -55l157 36c66 -18 110 -78 110 -160c0 -110 -88 -196 -226 -196
c-159 0 -244 112 -280 189l90 67c38 -85 112 -141 193 -141c62 0 98 29 98 79c0 17 -9 34 -19 42l-136 -36c-113 46 -166 132 -166 206c0 67 46 108 135 108h120v56h-368v109h632v-109h-126v-166z" />
    <glyph glyph-name="uni0922093C094D" horiz-adv-x="568" 
d="M546 -253v-4h-183l-108 158l107 43zM331 130c46 0 71 23 71 57c0 21 -15 36 -38 36c-24 0 -45 -16 -50 -45l-79 74c15 35 59 85 147 85c78 0 144 -65 144 -145c0 -104 -76 -180 -200 -180c-147 0 -289 103 -289 263c0 105 68 173 185 204l102 27v56h-354v109h628v-109
h-130v-152l-172 -42c-94 -23 -118 -55 -118 -111c0 -60 60 -127 153 -127zM0 -42c0 44 32 75 71 75c43 0 74 -31 74 -75c0 -38 -31 -70 -74 -70c-39 0 -71 32 -71 70z" />
    <glyph glyph-name="uni0923093C094D" horiz-adv-x="504" 
d="M261 90c43 0 74 -31 74 -75c0 -38 -31 -70 -74 -70c-39 0 -71 32 -71 70c0 44 32 75 71 75zM312 334v228h-107v-229c0 -49 19 -68 54 -68c37 0 53 20 53 69zM-30 671h564v-109h-83v-217c0 -131 -72 -199 -195 -199c-125 0 -191 66 -191 196v220h-95v109z" />
    <glyph glyph-name="uni0924093C094D" horiz-adv-x="338" 
d="M368 671v-109h-398v109h398zM457 473v-121h-183c-47 0 -87 -25 -87 -86c0 -76 44 -141 115 -191l-101 -88c-75 51 -158 152 -158 284c0 147 109 202 206 202h208zM-44 -27c0 44 32 75 71 75c43 0 74 -31 74 -75c0 -38 -31 -70 -74 -70c-39 0 -71 32 -71 70z" />
    <glyph glyph-name="uni0925093C094D" horiz-adv-x="468" 
d="M311 78c-162 0 -276 113 -282 286l134 35c102 27 135 67 135 114c0 34 -14 53 -43 53c-25 0 -43 -17 -43 -45c0 -17 3 -33 17 -52l-119 -34c-22 23 -33 56 -33 92c0 85 70 154 178 154c114 0 179 -71 179 -170c0 -110 -73 -171 -178 -199c-20 -6 -41 -10 -63 -13
c5 -36 43 -100 136 -100c107 0 155 67 177 106l96 -91c-41 -55 -116 -136 -291 -136zM47 -22c0 44 32 75 71 75c43 0 74 -31 74 -75c0 -38 -31 -70 -74 -70c-39 0 -71 32 -71 70z" />
    <glyph glyph-name="uni0926093C094D" horiz-adv-x="559" 
d="M649 -306v-4h-183l-108 158l107 43zM445 404l-135 -34c-106 -27 -141 -59 -141 -117c0 -60 57 -93 110 -90c22 1 42 8 58 22v96l89 33c40 -20 79 -49 79 -110c0 -40 -16 -66 -42 -92l128 -151l-158 -39l-65 130c-24 -6 -48 -9 -72 -9c-134 0 -262 88 -262 237
c0 105 54 169 181 200l86 21v61h-331v109h619v-109h-144v-158zM45 -37c0 44 32 75 71 75c43 0 74 -31 74 -75c0 -38 -31 -70 -74 -70c-39 0 -71 32 -71 70z" />
    <glyph glyph-name="uni0927093C094D" horiz-adv-x="401" 
d="M51 261c0 80 55 116 100 126v4c-60 5 -105 39 -105 99c0 32 15 55 34 68v4h-110v109h283l19 -102c-58 -9 -81 -38 -81 -69c0 -34 27 -57 78 -57h75v-108h-63c-59 0 -86 -24 -86 -62c0 -30 20 -62 89 -62c76 0 127 35 163 78l74 -87c-38 -42 -117 -101 -266 -101
c-125 0 -204 67 -204 160zM431 671v-109h-82v109h82zM61 -9c0 44 32 75 71 75c43 0 74 -31 74 -75c0 -38 -31 -70 -74 -70c-39 0 -71 32 -71 70z" />
    <glyph glyph-name="uni0928093C094D" horiz-adv-x="297" 
d="M327 671v-109h-357v109h357zM430 429v-121h-242v-110l-66 -32c-60 27 -112 86 -112 194l97 69h323zM51 52c0 44 32 75 71 75c43 0 74 -31 74 -75c0 -38 -31 -70 -74 -70c-39 0 -71 32 -71 70z" />
    <glyph glyph-name="uni092A093C094D" horiz-adv-x="307" 
d="M258 170c-133 0 -188 84 -188 185v207h-100v109h367v-109h-126v-197c0 -52 22 -76 67 -76c48 0 89 31 117 74l80 -93c-35 -47 -100 -100 -217 -100zM50 47c0 44 32 75 71 75c43 0 74 -31 74 -75c0 -38 -31 -70 -74 -70c-39 0 -71 32 -71 70z" />
    <glyph glyph-name="uni092B093C094D" horiz-adv-x="589" 
d="M581 372c-54 0 -90 -39 -90 -91v-281h-137v205h-4c-17 -16 -52 -34 -106 -34c-123 0 -174 75 -174 179v212h-100v109h649v-109h-128v-114h4c23 22 67 39 113 39c43 0 84 -13 116 -36l-67 -106c-14 13 -38 27 -76 27zM354 370v192h-143v-193c0 -52 15 -77 60 -77
c62 0 83 39 83 78zM77 46c0 44 32 75 71 75c43 0 74 -31 74 -75c0 -38 -31 -70 -74 -70c-39 0 -71 32 -71 70z" />
    <glyph glyph-name="uni092C093C094D" horiz-adv-x="352" 
d="M382 671v-109h-412v109h412zM76 77c43 0 74 -31 74 -75c0 -38 -31 -70 -74 -70c-39 0 -71 32 -71 70c0 44 32 75 71 75zM327 224l-158 117c-4 -11 -7 -23 -7 -37c0 -58 47 -97 100 -97c25 0 47 7 65 17zM396 294l87 -78c-48 -78 -136 -121 -226 -121
c-120 0 -227 69 -227 206c0 135 106 213 208 213c32 0 50 -2 77 -9l7 -118c-24 8 -46 10 -67 10c-15 0 -30 -3 -42 -10l162 -121c8 10 15 19 21 28z" />
    <glyph glyph-name="uni092D093C094D" horiz-adv-x="369" 
d="M399 671v-109h-65v109h65zM153 122c43 0 74 -31 74 -75c0 -38 -31 -70 -74 -70c-39 0 -71 32 -71 70c0 44 32 75 71 75zM253 398h210v-123h-215v-107h-129c-60 43 -81 123 -81 171l77 58v112c0 39 -19 53 -54 53h-91v109h119c69 0 164 -26 164 -154v-119z" />
    <glyph glyph-name="uni092E093C094D" horiz-adv-x="364" 
d="M153 118c43 0 74 -31 74 -75c0 -38 -31 -70 -74 -70c-39 0 -71 32 -71 70c0 44 32 75 71 75zM253 398h205v-123h-210v-107h-129c-60 43 -81 123 -81 171l77 57v166h-145v109h424v-109h-141v-164z" />
    <glyph glyph-name="uni092F093C094D" horiz-adv-x="352" 
d="M290 112c-134 0 -256 86 -260 262c77 15 133 42 133 105c0 20 -10 59 -29 83h-164v109h412v-109h-122v-4c33 -28 43 -67 43 -98c0 -72 -57 -122 -122 -134c8 -55 46 -96 111 -96c78 0 114 45 136 79l87 -84c-50 -73 -132 -113 -225 -113zM36 17c0 44 32 75 71 75
c43 0 74 -31 74 -75c0 -38 -31 -70 -74 -70c-39 0 -71 32 -71 70z" />
    <glyph glyph-name="uni0930093C094D" horiz-adv-x="467" 
d="M261 260v-4c21 -21 41 -42 81 -90l92 -110l-115 -72l-289 356l106 84c31 -45 52 -62 81 -62c23 0 41 13 41 49v151h-288v109h527v-109h-99v-154c0 -98 -58 -138 -128 -147c-3 0 -6 -1 -9 -1zM485 -253v-4h-183l-108 158l107 43zM10 67c0 44 32 75 71 75
c43 0 74 -31 74 -75c0 -38 -31 -70 -74 -70c-39 0 -71 32 -71 70z" />
    <glyph glyph-name="uni0932093C094D" horiz-adv-x="472" 
d="M502 671v-109h-532v109h532zM215 476c61 0 107 -26 127 -74h4c12 40 47 80 119 80c65 0 107 -26 134 -51l-61 -104c-15 17 -35 33 -66 33c-37 0 -59 -24 -59 -73v-101h-128v102c0 47 -22 69 -55 69c-27 0 -60 -17 -60 -86c0 -62 33 -139 143 -197l-89 -94
c-122 63 -195 175 -195 297c0 139 95 199 186 199zM-3 -76c0 44 32 75 71 75c43 0 74 -31 74 -75c0 -38 -31 -70 -74 -70c-39 0 -71 32 -71 70z" />
    <glyph glyph-name="uni0933093C094D" horiz-adv-x="731" 
d="M368 24c44 0 77 -33 77 -78c0 -40 -33 -73 -77 -73c-41 0 -74 33 -74 73c0 45 33 78 74 78zM496 151c47 0 77 45 77 107c0 65 -18 101 -62 101c-63 0 -81 -98 -95 -147c17 -38 46 -61 80 -61zM220 158c62 0 81 98 95 147c-17 38 -46 61 -80 61c-47 0 -77 -45 -77 -107
c0 -65 18 -101 62 -101zM517 474c115 0 187 -86 187 -216c0 -129 -83 -215 -194 -215c-81 0 -123 39 -141 71c-35 -46 -84 -71 -155 -71c-115 0 -187 86 -187 216c0 129 83 215 194 215c80 0 122 -38 141 -70c33 46 81 70 155 70zM-30 671h791v-109h-791v109z" />
    <glyph glyph-name="uni0935093C094D" horiz-adv-x="328" 
d="M358 671v-109h-388v109h388zM247 91c-127 0 -219 79 -219 198c0 137 105 202 207 202c14 0 32 -1 48 -4l10 -122c-15 5 -26 5 -39 5c-45 0 -81 -29 -81 -81c0 -51 36 -79 85 -79c72 0 102 60 115 88l102 -76c-38 -66 -104 -131 -228 -131zM5 2c0 44 32 75 71 75
c43 0 74 -31 74 -75c0 -38 -31 -70 -74 -70c-39 0 -71 32 -71 70z" />
    <glyph glyph-name="uni0936093C094D" horiz-adv-x="490" 
d="M261 461l-83 -81c-67 18 -103 70 -103 138c0 87 79 162 187 162c149 0 215 -100 215 -202c0 -162 -127 -238 -245 -242v-4c33 -17 82 -50 131 -94l93 -84l-117 -81l-245 227l-85 62l79 104c34 -17 72 -23 103 -23c86 0 144 50 144 133c0 61 -30 93 -67 93
c-36 0 -54 -24 -54 -48c0 -26 16 -50 47 -60zM6 4c0 44 32 75 71 75c43 0 74 -31 74 -75c0 -38 -31 -70 -74 -70c-39 0 -71 32 -71 70z" />
    <glyph glyph-name="uni0937093C094D" horiz-adv-x="325" 
d="M107 92c43 0 74 -31 74 -75c0 -38 -31 -70 -74 -70c-39 0 -71 32 -71 70c0 44 32 75 71 75zM207 388v-37c0 -52 33 -76 78 -76c32 0 58 15 79 34l-106 106l-59 68zM419 385l82 -86c-37 -67 -94 -140 -246 -140c-124 0 -184 75 -184 182v221h-101v109h385v-109h-131
l187 -191z" />
    <glyph glyph-name="uni0938093C094D" horiz-adv-x="456" 
d="M77 77c43 0 74 -31 74 -75c0 -38 -31 -70 -74 -70c-39 0 -71 32 -71 70c0 44 32 75 71 75zM538 403l57 -116c-51 -31 -103 -45 -158 -45c-57 0 -99 14 -133 39c-14 -9 -30 -15 -47 -19c-10 -2 -20 -4 -30 -5v-4c21 -21 41 -42 81 -90l92 -110l-115 -72l-284 350l106 84
c28 -38 47 -56 76 -56c23 0 41 13 41 49v154h-254v109h516v-109h-122v-157c0 -12 -1 -24 -3 -35c16 -3 34 -5 57 -5c44 0 88 10 120 38z" />
    <glyph glyph-name="uni0939093C094D" horiz-adv-x="535" 
d="M73 -54c43 0 74 -31 74 -75c0 -38 -31 -70 -74 -70c-39 0 -71 32 -71 70c0 44 32 75 71 75zM234 -199l107 43l184 -197v-4h-183zM-30 671h595v-109h-110v-169h-223c-37 0 -48 -14 -48 -34c0 -19 14 -40 43 -54c28 8 59 12 93 12c113 0 173 -75 173 -155
c0 -56 -26 -98 -52 -129l-114 67c23 23 43 46 43 74c0 22 -20 35 -50 35c-76 0 -124 -36 -124 -86c0 -57 49 -107 264 -124l-61 -113c-182 18 -339 90 -339 242c0 50 25 96 68 130c-56 33 -80 77 -80 128c0 69 57 116 150 116h121v60h-349v109z" />
    <glyph glyph-name="uni0915094D0937" horiz-adv-x="784" 
d="M411 401h27c39 0 80 7 130 29v241h245v-109h-104v-562h-141v304c-37 -11 -79 -16 -110 -16c-76 0 -113 9 -166 27c-106 -46 -133 -67 -133 -119c0 -45 41 -80 98 -80c25 0 57 7 72 20v80l89 28c31 -14 68 -49 68 -101c0 -37 -15 -64 -38 -84l116 -134l-158 -39l-56 122
c-21 -4 -50 -7 -74 -7c-137 0 -255 81 -255 215c0 92 78 142 149 175c-46 35 -63 82 -63 130c0 94 80 160 182 160c114 0 179 -74 179 -159c0 -54 -25 -95 -57 -117v-4zM236 518c0 -26 12 -51 44 -72c34 12 62 38 62 75c0 32 -18 51 -53 51c-31 0 -53 -21 -53 -54z" />
    <glyph glyph-name="uni091C094D091E" horiz-adv-x="738" 
d="M293 228c0 49 -62 107 -185 137v10l41 88h372v99h-551v109h798v-109h-105v-562h-142v353h-226v-4c68 -15 135 -58 135 -139c0 -91 -74 -139 -148 -136v-4l144 -94l-139 -67l-138 147c-86 5 -136 50 -136 110c0 36 16 65 56 86l109 -94c10 -2 21 -4 32 -4
c50 0 83 24 83 74z" />
    <glyph glyph-name="uni0915094D0937094D" horiz-adv-x="526" 
d="M692 345c-56 -32 -152 -57 -234 -57c-76 0 -113 9 -166 27c-106 -46 -133 -67 -133 -119c0 -45 41 -80 98 -80c25 0 57 7 72 20v80l89 28c31 -14 68 -49 68 -101c0 -37 -15 -64 -38 -84l116 -134l-158 -39l-56 122c-21 -4 -50 -7 -74 -7c-137 0 -255 81 -255 215
c0 92 78 142 149 175c-46 35 -63 82 -63 130c0 94 80 160 182 160c114 0 179 -74 179 -159c0 -54 -25 -95 -57 -117v-4h27c54 0 145 16 217 66zM236 518c0 -26 12 -51 44 -72c34 12 62 38 62 75c0 32 -18 51 -53 51c-31 0 -53 -21 -53 -54z" />
    <glyph glyph-name="uni091C094D091E094D" horiz-adv-x="493" 
d="M523 671v-109h-553v109h553zM581 463v-110h-286v-4c68 -15 135 -58 135 -139c0 -91 -74 -139 -148 -136v-4l144 -94l-139 -67l-138 147c-86 5 -136 50 -136 110c0 36 16 65 56 86l109 -94c10 -2 21 -4 32 -4c50 0 83 24 83 74c0 49 -62 107 -185 137v10l41 88h432z" />
    <glyph glyph-name="uni097B" unicode="&#x97b;" horiz-adv-x="596" 
d="M-30 671h656v-109h-105v-597h-443v101h304v496h-131v-386h-134c-60 43 -81 117 -81 165l77 57v164h-143v109z" />
    <glyph glyph-name="uni097C" unicode="&#x97c;" horiz-adv-x="769" 
d="M-30 671h829v-109h-105v-597h-643v101h501v320h-123v-4c30 -22 47 -58 47 -103c0 -98 -72 -160 -181 -160c-191 0 -266 199 -280 319l126 64c7 -129 51 -263 143 -263c33 0 58 17 58 57c0 38 -27 71 -78 91v10l54 99h234v66h-582v109z" />
    <glyph glyph-name="uni097E" unicode="&#x97e;" horiz-adv-x="588" 
d="M312 96c-127 0 -236 48 -293 124l73 70c58 -72 140 -97 223 -97c66 0 111 21 111 59c0 15 -7 23 -18 29l-160 -30c-115 33 -162 101 -162 164c0 55 40 99 122 99h146v48h-384v109h648v-109h-130v-142h-226c-29 0 -42 -5 -42 -24c0 -13 11 -30 33 -36l198 30
c56 -16 92 -69 92 -131c0 -92 -79 -163 -231 -163zM552 66v-101h-519v101h519z" />
    <glyph glyph-name="uni097F" unicode="&#x97f;" horiz-adv-x="591" 
d="M320 250l-156 106c-5 -11 -8 -23 -8 -37c0 -55 43 -87 104 -87c23 0 43 7 60 18zM-30 671h651v-109h-105v-597h-471v101h329v100h-4c-25 -25 -74 -46 -131 -46c-124 0 -215 79 -215 196c0 135 111 208 213 208c32 0 50 -2 77 -9l7 -118c-24 8 -46 11 -67 11
c-15 0 -29 -3 -42 -8l150 -103c8 17 13 37 13 56v209h-405v109z" />
    <glyph glyph-name="uni0979" unicode="&#x979;" horiz-adv-x="769" 
d="M264 354v10l54 99h234v99h-582v109h829v-109h-105v-562h-142v353h-123v-4c30 -22 47 -61 47 -106c0 -98 -72 -165 -181 -165c-191 0 -266 207 -280 327l126 64c7 -129 51 -271 143 -271c33 0 58 20 58 60c0 38 -27 76 -78 96zM147 2c0 36 27 63 60 63c35 0 62 -27 62 -63
c0 -32 -27 -59 -62 -59c-33 0 -60 27 -60 59zM326 2c0 36 27 63 60 63c35 0 62 -27 62 -63c0 -32 -27 -59 -62 -59c-33 0 -60 27 -60 59zM238 -114c0 36 27 63 60 63c35 0 62 -27 62 -63c0 -32 -27 -59 -62 -59c-33 0 -60 27 -60 59z" />
    <glyph glyph-name="uni097A" unicode="&#x97a;" horiz-adv-x="626" 
d="M381 263l-96 131c-22 -36 -61 -60 -104 -68c8 -57 46 -96 111 -96c40 0 69 12 89 33zM410 353v209h-148l15 -22l5 -7zM-30 671h686v-109h-105v-562h-141v159h-4c-26 -27 -74 -47 -135 -47c-134 0 -235 97 -241 262c77 15 133 42 133 105c0 20 -10 59 -29 83h-164v109z
" />
    <glyph glyph-name="uni0978" unicode="&#x978;" horiz-adv-x="551" 
d="M581 562h-328v-131h73c117 0 194 -68 194 -186c0 -88 -40 -190 -67 -245h-152c34 59 79 173 79 243c0 46 -24 65 -68 65h-64v-107h-129c-60 43 -81 123 -81 171l77 57v133h-145v109h611v-109z" />
    <glyph glyph-name="uni200B" unicode="&#x200b;" 
 />
    <glyph glyph-name="uni200C" unicode="&#x200c;" 
d="M24 -230h-47v1041h47v-1041z" />
    <glyph glyph-name="uni200D" unicode="&#x200d;" 
d="M129 593l-33 -33l-72 75v-865h-47v865l-69 -73l-33 33l93 93l-95 95l33 33l95 -95l96 95l32 -32l-96 -96z" />
    <glyph glyph-name="uni25CC" unicode="&#x25cc;" horiz-adv-x="660" 
d="M139 517c0 25 18 44 44 44s44 -19 44 -44c0 -26 -18 -45 -44 -45s-44 19 -44 45zM57 407c0 25 20 44 46 44c24 0 44 -19 44 -44s-20 -44 -44 -44c-26 0 -46 19 -46 44zM44 281c0 26 19 45 44 45c26 0 44 -19 44 -45c0 -25 -18 -43 -44 -43c-25 0 -44 18 -44 43zM96 165
c0 25 18 44 44 44c25 0 44 -19 44 -44c0 -26 -19 -44 -44 -44c-26 0 -44 18 -44 44zM197 90c0 24 19 44 45 44c25 0 44 -20 44 -44c0 -26 -19 -46 -44 -46c-26 0 -45 20 -45 46zM324 74c0 26 18 44 44 44s45 -18 45 -44s-19 -44 -45 -44s-44 18 -44 44zM445 127
c0 25 19 44 44 44s45 -19 45 -44c0 -26 -20 -44 -45 -44s-44 18 -44 44zM518 225c0 26 19 45 45 45c24 0 43 -19 43 -45c0 -25 -19 -44 -43 -44c-26 0 -45 19 -45 44zM528 359c0 26 18 44 44 44c25 0 44 -18 44 -44s-19 -44 -44 -44c-26 0 -44 18 -44 44zM478 477
c0 26 19 45 44 45c26 0 44 -19 44 -45c0 -25 -18 -44 -44 -44c-25 0 -44 19 -44 44zM383 545c0 26 19 45 45 45c25 0 43 -19 43 -45c0 -24 -18 -44 -43 -44c-26 0 -45 20 -45 44zM257 560c0 26 18 44 44 44s44 -18 44 -44s-18 -44 -44 -44s-44 18 -44 44z" />
    <glyph glyph-name="uni20A8" unicode="&#x20a8;" horiz-adv-x="1114" 
d="M927 157c0 82 -266 55 -266 243c0 92 79 175 210 175c102 0 167 -36 204 -79l-97 -95c-20 23 -59 53 -111 53c-34 0 -56 -18 -56 -44c0 -85 266 -55 266 -244c0 -75 -59 -176 -223 -176c-124 0 -199 52 -230 85l90 104c25 -29 80 -70 148 -70c47 0 65 22 65 48zM81 701
h228c155 0 243 -59 243 -206c0 -122 -66 -179 -148 -195v-4c37 -18 60 -44 93 -103l107 -193h-182l-116 228c-13 25 -32 33 -64 33h-10v-261h-151v701zM232 575v-193h58c81 0 107 35 107 100c0 64 -38 93 -105 93h-60z" />
    <glyph glyph-name="uni20B9" unicode="&#x20b9;" horiz-adv-x="549" 
d="M364 568v-4c13 -9 33 -25 47 -52h145l-48 -103h-86c-22 -116 -147 -161 -215 -159l-1 -4c27 -23 57 -52 83 -82l136 -153v-11h-178l-142 166l-73 69l29 110c77 -21 176 -11 204 64h-223v103h221c-16 37 -53 56 -118 56h-103v103h514l-48 -103h-144z" />
    <glyph glyph-name="uni0902" unicode="&#x902;" 
d="M-233 833c0 52 38 90 86 90c51 0 89 -38 89 -90c0 -47 -38 -85 -89 -85c-48 0 -86 38 -86 85z" />
    <glyph glyph-name="uni0901" unicode="&#x901;" 
d="M-223 987c0 48 35 83 79 83c47 0 82 -35 82 -83c0 -43 -35 -78 -82 -78c-44 0 -79 35 -79 78zM-144 734c-125 0 -207 65 -240 153l108 53c20 -60 64 -93 132 -93s112 33 132 93l108 -53c-33 -88 -115 -153 -240 -153z" />
    <glyph glyph-name="uni0903" unicode="&#x903;" horiz-adv-x="285" 
d="M82 482c0 52 38 90 86 90c51 0 89 -38 89 -90c0 -47 -38 -85 -89 -85c-48 0 -86 38 -86 85zM82 150c0 52 38 90 86 90c51 0 89 -38 89 -90c0 -47 -38 -85 -89 -85c-48 0 -86 38 -86 85z" />
    <glyph glyph-name="uni093D" unicode="&#x93d;" horiz-adv-x="540" 
d="M270 113c61 0 96 25 96 74c0 60 -74 90 -147 127s-147 86 -147 185c0 102 73 172 198 172h190v-120h-174c-43 0 -69 -15 -69 -51c0 -47 71 -75 144 -111s147 -92 147 -197c0 -110 -74 -202 -239 -202c-142 0 -232 73 -256 99l82 108c31 -34 95 -84 175 -84z" />
    <glyph glyph-name="uni094D" unicode="&#x94d;" 
d="M105 -253v-4h-183l-108 158l107 43z" />
    <glyph glyph-name="uni093C" unicode="&#x93c;" 
d="M-360 -83c0 45 33 78 74 78c44 0 77 -33 77 -78c0 -40 -33 -73 -77 -73c-41 0 -74 33 -74 73z" />
    <glyph glyph-name="uni0950" unicode="&#x950;" horiz-adv-x="1222" 
d="M707 718c-41 0 -74 33 -74 73c0 45 33 78 74 78c44 0 77 -33 77 -78c0 -40 -33 -73 -77 -73zM843 713l111 -41c-30 -91 -127 -167 -251 -167c-127 0 -217 76 -247 167l112 42c24 -54 66 -92 135 -92c68 0 117 34 140 91zM840 244c23 -55 59 -82 95 -82
c59 0 104 58 104 145c0 57 -27 88 -61 88c-44 0 -69 -50 -138 -151zM402 344v-4c38 -6 74 -39 101 -91c18 -34 36 -66 87 -66c54 0 82 41 134 115c74 105 120 218 240 218c122 0 198 -88 198 -229c0 -120 -75 -240 -200 -240c-83 0 -145 44 -180 113
c-40 -54 -90 -100 -163 -100c-63 0 -100 36 -120 69c-29 -77 -107 -129 -214 -129c-109 0 -189 61 -235 131l103 78c34 -59 76 -92 134 -92c53 0 86 34 86 78c0 33 -19 66 -71 66c-6 0 -13 0 -20 -1l-54 -8l-27 114c112 11 146 44 146 90c0 39 -25 64 -68 64
c-37 0 -66 -18 -84 -45l-87 78c32 44 93 84 175 84c118 0 193 -65 193 -168c0 -57 -29 -102 -74 -125z" />
    <glyph glyph-name="uni0970" unicode="&#x970;" horiz-adv-x="533" 
d="M182 320c0 -44 30 -78 74 -78s68 30 68 76c0 44 -28 78 -73 78c-43 0 -69 -30 -69 -76zM74 318c0 105 76 173 181 173s178 -65 178 -171c0 -105 -76 -173 -182 -173c-105 0 -177 65 -177 171z" />
    <glyph glyph-name="uni0964" unicode="&#x964;" horiz-adv-x="557" 
d="M357 0h-142v672h142v-672z" />
    <glyph glyph-name="uni0965" unicode="&#x965;" horiz-adv-x="806" 
d="M357 0h-142v672h142v-672zM606 0h-142v672h142v-672z" />
    <glyph glyph-name="uni0966" unicode="&#x966;" horiz-adv-x="472" 
d="M35 362c0 127 83 210 210 210s210 -83 210 -210s-83 -210 -210 -210s-210 83 -210 210zM162 362c0 -61 31 -97 83 -97s83 36 83 97s-31 97 -83 97s-83 -36 -83 -97z" />
    <glyph glyph-name="uni0967" unicode="&#x967;" horiz-adv-x="448" 
d="M225 568c-35 0 -56 -23 -56 -60c0 -45 43 -72 87 -74c19 23 27 47 27 74c0 36 -19 60 -58 60zM55 244v71c54 22 96 43 129 62c-71 3 -140 57 -140 140c0 97 70 166 179 166c108 0 186 -75 186 -176c0 -118 -87 -190 -194 -245c126 -100 146 -142 146 -191
c0 -25 -10 -51 -23 -71h-130v11c12 15 17 39 17 55c0 28 -9 61 -170 178z" />
    <glyph glyph-name="uni0968" unicode="&#x968;" horiz-adv-x="498" 
d="M141 533l-63 118c38 20 90 30 139 30c126 0 235 -72 235 -216c0 -138 -112 -204 -185 -226l163 -159l-130 -64l-139 194c-73 11 -124 61 -124 117c0 57 36 85 73 96l85 -83c59 12 125 55 125 124c0 65 -43 92 -93 92c-28 0 -59 -6 -86 -23z" />
    <glyph glyph-name="uni0969" unicode="&#x969;" horiz-adv-x="490" 
d="M300 74v-4l144 -99l-133 -72l-140 145c-87 3 -143 54 -143 115c0 47 24 76 54 89l108 -88c9 -2 16 -2 24 -2c69 0 110 30 110 76c0 38 -27 68 -90 68c-19 0 -40 -3 -58 -8l-28 113c104 12 145 46 145 96c0 36 -21 63 -67 63c-41 0 -80 -21 -101 -42l-83 100
c38 27 85 59 184 59c115 0 199 -70 199 -169c0 -67 -35 -115 -81 -137v-4c53 -12 116 -50 116 -140c0 -112 -89 -153 -160 -159z" />
    <glyph glyph-name="uni096A" unicode="&#x96a;" horiz-adv-x="550" 
d="M286 136c46 0 75 26 75 73c0 41 -32 74 -75 107c-42 -33 -74 -66 -74 -107c0 -47 28 -73 74 -73zM371 649l127 40c11 -19 21 -48 21 -95c0 -95 -65 -157 -135 -209c60 -45 111 -98 111 -178c0 -110 -84 -183 -209 -183c-124 0 -209 74 -209 183c0 80 51 134 111 179
c-70 52 -135 114 -135 208c0 48 11 76 21 95l128 -40c-6 -11 -14 -35 -14 -61c0 -56 43 -96 98 -134c54 38 98 78 98 134c0 26 -7 50 -13 61z" />
    <glyph glyph-name="uni096B" unicode="&#x96b;" horiz-adv-x="570" 
d="M565 10l-142 -16l-49 190c-32 -12 -80 -19 -116 -19c-128 0 -229 86 -229 230c0 103 33 196 93 295l126 -55c-46 -72 -79 -159 -79 -233c0 -72 34 -114 104 -114c27 0 54 8 75 19l-22 137l81 30c45 -36 96 -100 96 -151c0 -35 -9 -64 -30 -92z" />
    <glyph glyph-name="uni096C" unicode="&#x96c;" horiz-adv-x="530" 
d="M369 434l25 -109c-119 -10 -184 -46 -184 -91c0 -51 37 -77 97 -77c18 0 44 5 60 14v74l84 26c20 -14 49 -42 49 -92c0 -31 -6 -62 -27 -82l111 -142l-142 -25l-53 121c-21 -7 -58 -10 -85 -10c-111 0 -235 57 -235 193c0 66 47 121 106 147v4c-87 22 -118 85 -118 141
c0 92 79 158 225 158c54 0 123 -16 153 -32l-37 -113c-20 10 -53 26 -121 26c-40 0 -74 -12 -74 -51c0 -55 44 -82 126 -82c10 0 25 0 40 2z" />
    <glyph glyph-name="uni096D" unicode="&#x96d;" horiz-adv-x="702" 
d="M500 315c5 0 10 0 15 1v25c-1 92 -36 121 -72 121c-28 0 -48 -20 -48 -58c0 -64 58 -89 105 -89zM93 657l124 -29c-19 -53 -31 -124 -31 -192c0 -162 54 -300 187 -300c59 0 106 30 128 97c-17 -4 -35 -6 -52 -6c-92 0 -183 56 -183 181c0 107 72 175 172 175
c107 0 204 -83 204 -251c0 -185 -109 -308 -258 -308c-229 0 -324 199 -324 413c0 74 12 150 33 220z" />
    <glyph glyph-name="uni096E" unicode="&#x96e;" horiz-adv-x="498" 
d="M405 602l-184 -255c-33 -46 -46 -73 -46 -109c0 -52 37 -87 102 -87c52 0 107 12 152 51l64 -110c-44 -33 -100 -66 -210 -66c-135 0 -249 78 -249 207c0 67 19 113 64 174l185 252z" />
    <glyph glyph-name="uni096F" unicode="&#x96f;" horiz-adv-x="450" 
d="M219 562c-40 0 -67 -27 -67 -69c0 -36 22 -69 40 -91c58 5 91 44 91 92c0 38 -26 68 -64 68zM257 324l85 -101c30 -36 50 -78 50 -125c0 -34 -10 -68 -28 -98h-136v7c18 24 28 53 28 81s-10 57 -29 79l-150 175c-40 47 -59 102 -59 153c0 110 76 188 201 188
c118 0 201 -78 201 -184c0 -117 -84 -165 -163 -175z" />
    <glyph glyph-name="uni097D" unicode="&#x97d;" horiz-adv-x="497" 
d="M212 541h-140v130h135c148 0 240 -73 240 -197c0 -103 -91 -179 -132 -229c-29 -35 -34 -38 -34 -92v-153h-142v208c0 45 17 69 38 94c53 61 123 120 123 174c0 43 -30 65 -88 65z" />
    <glyph glyph-name="uni0971" unicode="&#x971;" horiz-adv-x="333" 
d="M74 615c0 52 38 90 86 90c51 0 89 -38 89 -90c0 -47 -38 -85 -89 -85c-48 0 -86 38 -86 85z" />
    <glyph glyph-name="uni0951" unicode="&#x951;" 
d="M-201 982h111v-271h-111v271z" />
    <glyph glyph-name="uni0952" unicode="&#x952;" 
d="M-55 -240h-447v109h447v-109z" />
    <glyph glyph-name="uni0953" unicode="&#x953;" 
d="M-340 919l86 67l182 -228l-86 -66z" />
    <glyph glyph-name="uni0954" unicode="&#x954;" 
d="M-46 986l86 -67l-182 -227l-86 66z" />
    <glyph glyph-name="uni0900" unicode="&#x900;" 
d="M-226 847c0 43 35 78 79 78c47 0 82 -35 82 -78c0 -48 -35 -83 -82 -83c-44 0 -79 35 -79 83zM-276 890l-108 53c33 88 115 153 240 153s207 -65 240 -153l-108 -53c-20 60 -64 93 -132 93s-112 -33 -132 -93z" />
    <glyph glyph-name="itfLogo" horiz-adv-x="1734" 
d="M147 0v671h207v-671h-207zM397 475v196h207v-196h-207zM647 0v671h207v-671h-207zM896 475v196h208v-196h-208zM1146 0v671h208v-671h-208zM1396 475v196h207v-196h-207zM1396 237v196h207v-196h-207z" />
    <glyph glyph-name="uni0930094D.2" 
d="M-90 855c-41 0 -71 -27 -71 -72c0 -43 28 -82 72 -112v-4h-129v8c-38 26 -66 69 -66 130c0 96 80 168 176 168c51 0 83 -11 109 -23l-32 -110c-18 10 -38 15 -59 15z" />
    <glyph glyph-name="uni0930094D.1" horiz-adv-x="192" 
d="M222 562h-252v109h252v-109zM288 415l32 -111c-35 -19 -99 -46 -190 -46c-85 0 -145 32 -168 53l39 91c23 -14 61 -34 127 -34c71 0 120 24 160 47z" />
    <glyph glyph-name="uni094D0930" 
d="M-63 -191l-80 117l-87 -117l-154 38l172 168h134l168 -174z" />
    <glyph glyph-name="uni0915094D0930" horiz-adv-x="815" 
d="M347 147h-4l-215 -156l-107 97l127 59v4c-46 15 -104 66 -104 161c0 126 118 197 233 187l22 -121c-66 14 -115 -18 -115 -78c0 -44 32 -75 77 -75c51 0 86 38 86 91v246h-377v109h875v-109h-358v-115h4c22 21 60 40 109 40c104 0 187 -75 187 -191
c0 -140 -112 -209 -230 -198l-22 121c66 -14 113 19 113 79c0 44 -31 74 -75 74c-52 0 -86 -40 -86 -91v-281h-140v147z" />
    <glyph glyph-name="uni0916094D0930" horiz-adv-x="859" 
d="M652 91c-44 -32 -107 -59 -171 -82l-290 -104l-98 105l202 52v4c-81 20 -207 95 -258 335l113 41c11 -35 26 -52 50 -52c18 0 36 12 36 42v130h-246v109h899v-109h-105v-562h-128v91h-4zM652 492h4v70h-287v-129c0 -96 -47 -140 -126 -140c-8 0 -20 1 -29 3
c24 -90 115 -159 223 -159c144 0 230 83 230 183c0 52 -32 87 -78 87c-39 0 -68 -25 -68 -62c0 -48 39 -68 79 -71l-67 -74c-67 7 -136 55 -136 148c0 94 78 165 172 165c36 0 61 -7 83 -21z" />
    <glyph glyph-name="uni0917094D0930" horiz-adv-x="606" 
d="M392 0v128h-4l-225 -157l-112 95l341 193v303h-131v-344h-134c-58 41 -72 117 -72 150l68 53v141h-153v109h666v-109h-105v-562h-139z" />
    <glyph glyph-name="uni0918094D0930" horiz-adv-x="668" 
d="M451 278v284h-170c-51 0 -75 -26 -75 -63c0 -36 26 -61 80 -61h63v-108h-53c-58 0 -83 -25 -83 -61c0 -32 23 -66 93 -66c81 0 133 49 145 75zM-30 671h728v-109h-105v-562h-142v148h-4l-268 -188l-112 95l121 68v4c-53 8 -119 52 -119 135c0 75 55 110 98 120v4
c-61 4 -108 42 -108 101c0 32 14 54 33 71v4h-122v109z" />
    <glyph glyph-name="uni0919094D0930" horiz-adv-x="654" 
d="M595 441c42 0 73 -33 73 -74s-32 -74 -74 -74s-74 33 -74 74s33 74 75 74zM-30 671h714v-109h-208v-166h-186c-59 0 -69 -6 -69 -29c0 -14 9 -42 41 -55l157 36c66 -18 110 -78 110 -160c0 -84 -51 -153 -136 -182l150 -155l-153 -32l-80 117l-87 -117l-154 38l150 146
c-106 31 -167 116 -196 178l90 67c38 -85 112 -141 193 -141c62 0 98 29 98 79c0 17 -9 34 -19 42l-136 -36c-113 46 -166 132 -166 206c0 67 46 108 135 108h120v56h-368v109z" />
    <glyph glyph-name="uni091A094D0930" horiz-adv-x="687" 
d="M466 141l-312 -170l-112 95l135 61v4c-45 21 -82 62 -82 129c0 49 24 79 47 98v4h-128v120h391v-119h-60c-70 0 -107 -31 -107 -85c0 -44 31 -79 95 -79c81 0 129 49 137 70v293h-500v109h747v-109h-105v-562h-142v141h-4z" />
    <glyph glyph-name="uni091B094D0930" horiz-adv-x="699" 
d="M445 493v69h-163c-60 0 -86 -38 -86 -81c0 -42 26 -74 78 -74h33v-114c-6 0 -12 0 -17 -1c-58 -5 -78 -36 -78 -74c0 -47 42 -84 123 -84c115 0 206 87 206 188c0 47 -20 66 -46 66c-20 0 -35 -14 -35 -35c0 -25 17 -41 44 -50l-84 -78c-39 14 -90 55 -90 130
c0 65 45 120 115 138zM729 562h-152v-82c54 -27 88 -81 88 -160c0 -116 -81 -238 -221 -284l150 -155l-153 -32l-80 117l-87 -117l-154 38l138 135c-121 21 -190 101 -190 190c0 81 44 120 85 135v4c-67 11 -103 61 -103 121c0 42 17 69 35 86v4h-115v109h759v-109z" />
    <glyph glyph-name="uni091C094D0930" horiz-adv-x="775" 
d="M270 394v10l54 99h234v59h-588v109h835v-109h-105v-562h-142v76h-4l-255 -157l-112 95l371 191v188h-119v-4c24 -20 42 -51 42 -90c0 -90 -78 -154 -183 -154c-186 0 -267 175 -277 300l126 64c7 -129 51 -245 141 -245c38 0 60 20 60 53c0 39 -30 67 -78 77z" />
    <glyph glyph-name="uni091D094D0930" horiz-adv-x="905" 
d="M700 107h-4l-120 -143l-109 65l232 217l-2 3c-54 -34 -119 -39 -147 -39c-15 0 -29 1 -42 3c1 -7 1 -13 1 -20c0 -82 -60 -142 -147 -159v-4l169 -100l-145 -77l-178 156c-124 0 -169 64 -169 118c0 40 21 69 54 84l157 -96h14c58 0 117 22 117 76c0 17 -9 31 -16 35
l-133 -34c-112 37 -169 125 -169 206c0 67 46 108 135 108h120v56h-348v109h965v-109h-105v-592h-132zM694 562h-238v-166h-190c-58 0 -61 -16 -61 -37c0 -15 13 -40 40 -48l157 37c29 -14 71 -33 118 -33c42 0 111 8 174 63v184z" />
    <glyph glyph-name="uni091E094D0930" horiz-adv-x="780" 
d="M810 671v-109h-105v-562h-141v97h-4l-243 -176l-112 95l372 220v4c-6 0 -11 -1 -17 -1c-38 0 -83 6 -105 13c-35 -74 -120 -114 -208 -114c-117 0 -201 65 -242 125l92 102c36 -61 93 -102 151 -102s88 29 88 71c0 46 -35 65 -72 65c-26 0 -54 -9 -72 -26l-54 118
c40 23 86 35 130 35c88 0 170 -46 196 -136c1 -7 3 -13 4 -20c27 -7 64 -10 96 -11v203h-594v109h840z" />
    <glyph glyph-name="uni091F094D0930" horiz-adv-x="539" 
d="M438 394l-145 -37c-106 -27 -121 -64 -121 -114c0 -45 33 -97 119 -97c64 0 118 20 176 81l68 -113c-43 -41 -88 -65 -134 -77l145 -151l-153 -32l-80 117l-87 -117l-154 38l149 145c-113 33 -184 127 -184 233c0 105 55 165 181 200l76 21v71h-324v109h599v-109h-131
v-168z" />
    <glyph glyph-name="uni0920094D0930" horiz-adv-x="611" 
d="M371 377l-78 -20c-106 -27 -121 -64 -121 -114c0 -45 33 -97 119 -97c100 0 154 55 154 120c0 47 -30 87 -74 111zM641 562h-203v-89c92 -50 137 -120 137 -214s-59 -186 -170 -220l155 -161l-153 -32l-80 117l-87 -117l-154 38l152 149c-123 27 -201 126 -201 237
c0 105 55 165 181 200l76 21v71h-324v109h671v-109z" />
    <glyph glyph-name="uni0921094D0930" horiz-adv-x="572" 
d="M476 396h-186c-59 0 -69 -6 -69 -29c0 -14 9 -42 41 -55l157 36c66 -18 110 -78 110 -160c0 -83 -50 -153 -135 -182l150 -155l-153 -32l-80 117l-87 -117l-154 38l150 146c-107 31 -168 116 -197 178l90 67c38 -85 112 -141 193 -141c62 0 98 29 98 79
c0 17 -9 34 -19 42l-136 -36c-113 46 -166 132 -166 206c0 67 46 108 135 108h120v56h-368v109h632v-109h-126v-166z" />
    <glyph glyph-name="uni0922094D0930" horiz-adv-x="568" 
d="M468 410l-172 -42c-94 -23 -118 -55 -118 -111c0 -60 60 -127 153 -127c46 0 71 23 71 57c0 21 -15 36 -38 36c-24 0 -45 -16 -50 -45l-79 74c15 35 59 85 147 85c78 0 144 -65 144 -145c0 -83 -49 -148 -131 -171l152 -158l-153 -32l-80 117l-87 -117l-154 38l160 157
c-108 33 -196 123 -196 249c0 105 68 173 185 204l102 27v56h-354v109h628v-109h-130v-152z" />
    <glyph glyph-name="uni0923094D0930" horiz-adv-x="792" 
d="M320 376v186h-117v-187c0 -49 24 -66 59 -66c37 0 58 18 58 67zM-30 671h852v-109h-105v-562h-139v134h-4l-236 -164l-112 95l350 198v299h-117v-174c0 -131 -77 -198 -200 -198c-125 0 -196 65 -196 195v177h-93v109z" />
    <glyph glyph-name="uni0924094D0930" horiz-adv-x="596" 
d="M379 210h-4l-241 -181l-98 104l260 173c-26 41 -58 63 -109 63c-38 0 -76 -14 -118 -53l-89 119c57 43 121 67 194 67c100 0 170 -53 201 -117h4v177h-409v109h656v-109h-105v-562h-142v210z" />
    <glyph glyph-name="uni0925094D0930" horiz-adv-x="714" 
d="M36 364l134 35c102 27 135 67 135 114c0 34 -14 53 -43 53c-25 0 -43 -17 -43 -45c0 -17 3 -33 17 -52l-119 -34c-22 23 -33 56 -33 92c0 85 70 154 178 154c114 0 179 -71 179 -170c0 -107 -69 -168 -170 -197c-22 -6 -46 -11 -71 -15c6 -39 37 -100 131 -100
c100 0 151 58 168 98v374h245v-109h-105v-562h-137v142h-4l-317 -182l-117 101l125 60v4c-48 13 -147 73 -153 239z" />
    <glyph glyph-name="uni0926094D0930" horiz-adv-x="570" 
d="M189 70v4c-67 19 -148 89 -148 206c0 105 57 164 183 199l84 23v60h-338v109h630v-109h-148v-158l-144 -37c-105 -27 -132 -56 -132 -114s53 -90 105 -90c24 0 46 7 63 22v96l89 33c40 -20 79 -49 79 -110c0 -40 -16 -66 -42 -92l128 -151l-158 -39l-65 129l-233 -165
l-112 95z" />
    <glyph glyph-name="uni0927094D0930" horiz-adv-x="668" 
d="M451 153h-4l-268 -193l-112 95l121 68v4c-53 5 -122 48 -122 134c0 81 58 115 99 124v4c-60 5 -105 40 -105 100c0 32 15 56 34 69v4h-124v109h297l19 -102c-58 -9 -81 -39 -81 -70c0 -34 27 -58 78 -58h75v-108h-63c-59 0 -86 -24 -86 -62c0 -30 20 -64 90 -64
c80 0 136 52 152 79v276h-88v109h335v-109h-105v-562h-142v153z" />
    <glyph glyph-name="uni0928094D0930" horiz-adv-x="633" 
d="M306 283c-17 54 -57 88 -114 88c-4 0 -9 -1 -13 -1v-67l-68 -30c-44 24 -91 78 -94 149l80 62c19 5 50 8 71 8c111 0 203 -53 245 -163h4v233h-447v109h693v-109h-105v-562h-141v214h-4l-248 -203l-110 95z" />
    <glyph glyph-name="uni092A094D0930" horiz-adv-x="600" 
d="M214 212v4c-74 6 -137 45 -137 150v196h-107v109h660v-109h-105v-562h-142v196h-4l-237 -220l-128 85zM383 354v208h-165v-174c0 -52 22 -76 69 -76c40 0 78 18 96 42z" />
    <glyph glyph-name="uni092B094D0930" horiz-adv-x="836" 
d="M180 191v4c-67 17 -103 69 -103 147v220h-107v109h896v-109h-368v-116h4c19 19 56 45 121 45c104 0 186 -74 186 -189c0 -140 -108 -213 -230 -202l-22 121c67 -15 113 22 113 79c0 44 -31 74 -75 74c-65 0 -97 -52 -97 -106v-268h-137v198h-4l-206 -221l-126 89z
M278 290c37 0 71 19 83 38v234h-143v-195c0 -52 15 -77 60 -77z" />
    <glyph glyph-name="uni092C094D0930" horiz-adv-x="580" 
d="M152 134v4c-35 14 -111 57 -111 172c0 128 105 204 209 204c32 0 50 -2 77 -9l7 -118c-24 8 -48 10 -69 10c-14 0 -29 -3 -41 -10l156 -119l7 5v289h-417v109h640v-109h-82v-562h-142v141h-4l-239 -171l-112 95zM274 207c23 0 43 7 60 18l-153 116c-5 -12 -7 -24 -7 -38
c0 -60 45 -96 100 -96z" />
    <glyph glyph-name="uni092D094D0930" horiz-adv-x="629" 
d="M50 367l68 54v88c0 39 -19 53 -54 53h-94v109h120c69 0 164 -26 164 -154v-93h162v138h-81v109h324v-109h-105v-562h-138v157h-4l-241 -186l-112 95l378 233v4h-183v-85h-132c-46 30 -72 101 -72 149z" />
    <glyph glyph-name="uni092E094D0930" horiz-adv-x="607" 
d="M254 303v-85h-132c-46 30 -72 101 -72 149l68 54v141h-148v109h667v-109h-95v-562h-138v151h-4l-232 -180l-112 95l369 233v4h-171zM404 562h-150v-138h150v138z" />
    <glyph glyph-name="uni092F094D0930" horiz-adv-x="636" 
d="M184 149v4c-71 21 -141 89 -144 225c75 16 133 37 133 101c0 20 -10 59 -29 83h-174v109h696v-109h-105v-562h-141v156h-4l-265 -185l-112 95zM189 332c9 -58 48 -102 114 -102c57 0 98 28 117 61v271h-148v-4c34 -30 41 -70 41 -99c0 -75 -56 -114 -124 -127z" />
    <glyph glyph-name="uni0932094D0930" horiz-adv-x="737" 
d="M274 97l-102 -86c-91 65 -143 162 -143 266c0 139 95 199 186 199c61 0 107 -26 127 -74h4c12 54 58 79 97 79c24 0 57 -5 75 -23h4v104h-552v109h797v-109h-105v-592h-134v111h-4l-151 -120l-102 81l253 174v130c-9 6 -35 14 -52 14c-41 0 -59 -26 -59 -80v-87h-128v94
c0 47 -22 72 -55 72c-27 0 -60 -19 -60 -88c0 -54 25 -119 104 -174z" />
    <glyph glyph-name="uni0933094D0930" horiz-adv-x="731" 
d="M497 151c47 0 76 45 76 107c0 65 -18 101 -62 101c-49 0 -69 -65 -94 -146c16 -37 44 -62 80 -62zM220 158c54 0 67 49 94 146c-16 39 -44 62 -80 62c-48 0 -76 -44 -76 -107c0 -65 18 -101 62 -101zM761 562h-191v-95c84 -22 134 -100 134 -209
c0 -92 -42 -162 -107 -195l157 -162l-153 -32l-80 117l-87 -117l-154 38l154 150c-33 15 -54 37 -65 57c-35 -46 -84 -71 -155 -71c-116 0 -187 86 -187 216c0 131 83 215 194 215c80 0 122 -38 140 -69c19 25 43 44 73 55v102h-464v109h791v-109z" />
    <glyph glyph-name="uni0935094D0930" horiz-adv-x="591" 
d="M375 146h-4l-225 -167l-118 95l118 64v4c-35 15 -102 65 -102 164c0 134 120 211 255 189l11 -121c-51 19 -120 -5 -120 -69c0 -51 35 -81 85 -81c58 0 91 33 100 60v278h-405v109h651v-109h-105v-562h-141v146z" />
    <glyph glyph-name="uni0937094D0930" horiz-adv-x="599" 
d="M214 199v4c-74 6 -137 45 -137 150v209h-107v109h666v-109h-105v-562h-142v183h-4l-229 -210l-128 85zM294 298c31 0 53 9 71 21l-98 96c-36 36 -59 68 -59 68s8 -31 8 -95v-14c0 -52 33 -76 78 -76zM395 413v149h-164l163 -166c1 5 1 11 1 17z" />
    <glyph glyph-name="uni0936094D0930" horiz-adv-x="735" 
d="M521 201h-4l-225 -165l-111 101l212 123v4c-50 16 -86 31 -121 48c-50 -26 -111 -48 -184 -71l-91 109c62 14 118 30 160 45c-51 40 -64 93 -64 133c0 77 66 152 177 152c102 0 178 -67 178 -157c0 -56 -25 -108 -73 -141c37 -15 89 -34 146 -50v339h244v-109h-105v-562
h-139v201zM218 522c0 -19 6 -50 46 -79c45 23 58 54 58 80c0 35 -22 51 -49 51c-36 0 -55 -23 -55 -52z" />
    <glyph glyph-name="uni0938094D0930" horiz-adv-x="867" 
d="M479 82l-101 95l159 87c-8 48 -35 88 -89 88c-89 0 -128 -93 -219 -93v-4c20 -20 34 -31 69 -73l107 -132l-118 -69l-276 351l102 89c28 -38 49 -59 78 -59c23 0 41 13 41 49v151h-262v109h927v-109h-105v-562h-143v189h-4zM468 479c111 0 157 -67 177 -143h4v226h-277
v-103c25 12 61 20 96 20z" />
    <glyph glyph-name="uni0939094D0930" horiz-adv-x="588" 
d="M377 219h-67c-79 0 -109 -46 -109 -94c0 -51 30 -114 191 -132l-81 -100c-144 29 -246 107 -246 237c0 50 23 97 65 133c-57 28 -77 75 -77 121c0 69 57 118 150 118h164v60h-397v109h648v-109h-115v-172h-263c-41 0 -52 -11 -52 -31c0 -18 21 -35 47 -43c26 7 54 8 85 8
h135l85 -86v-184h-119l3 85h-4l-74 -81l-109 46l140 111v4z" />
    <glyph glyph-name="uni0915093C094D0930" horiz-adv-x="815" 
d="M347 147h-4l-215 -156l-107 97l127 59v4c-46 15 -104 66 -104 161c0 126 118 197 233 187l22 -121c-66 14 -115 -18 -115 -78c0 -44 32 -75 77 -75c51 0 86 38 86 91v246h-377v109h875v-109h-358v-115h4c22 21 60 40 109 40c104 0 187 -75 187 -191
c0 -140 -112 -209 -230 -198l-22 121c66 -14 113 19 113 79c0 44 -31 74 -75 74c-52 0 -86 -40 -86 -91v-281h-140v147zM180 -96c0 45 33 78 74 78c44 0 77 -33 77 -78c0 -40 -33 -73 -77 -73c-41 0 -74 33 -74 73z" />
    <glyph glyph-name="uni0916093C094D0930" horiz-adv-x="845" 
d="M632 91c-44 -32 -107 -59 -171 -82l-290 -104l-98 105l202 52v4c-81 20 -207 95 -258 335l113 41c11 -35 26 -52 50 -52c18 0 36 12 36 42v130h-246v109h899v-109h-105v-562h-128v91h-4zM632 492h4v70h-287v-129c0 -96 -47 -140 -126 -140c-8 0 -20 1 -29 3
c24 -90 115 -159 223 -159c144 0 230 83 230 183c0 52 -32 87 -78 87c-39 0 -68 -25 -68 -62c0 -48 39 -68 79 -71l-67 -74c-67 7 -136 55 -136 148c0 94 78 165 172 165c36 0 61 -7 83 -21zM422 -107c0 45 33 78 74 78c44 0 77 -33 77 -78c0 -40 -33 -73 -77 -73
c-41 0 -74 33 -74 73z" />
    <glyph glyph-name="uni0917093C094D0930" horiz-adv-x="606" 
d="M392 0v128h-4l-225 -157l-112 95l341 193v303h-131v-344h-134c-58 41 -72 117 -72 150l68 53v141h-153v109h666v-109h-105v-562h-139zM225 -115c0 45 33 78 74 78c44 0 77 -33 77 -78c0 -40 -33 -73 -77 -73c-41 0 -74 33 -74 73z" />
    <glyph glyph-name="uni0918093C094D0930" horiz-adv-x="668" 
d="M356 -18c44 0 77 -33 77 -78c0 -40 -33 -73 -77 -73c-41 0 -74 33 -74 73c0 45 33 78 74 78zM451 278v284h-170c-51 0 -75 -26 -75 -63c0 -36 26 -61 80 -61h63v-108h-53c-58 0 -83 -25 -83 -61c0 -32 23 -66 93 -66c81 0 133 49 145 75zM-30 671h728v-109h-105v-562
h-142v148h-4l-268 -188l-112 95l121 68v4c-53 8 -119 52 -119 135c0 75 55 110 98 120v4c-61 4 -108 42 -108 101c0 32 14 54 33 71v4h-122v109z" />
    <glyph glyph-name="uni0919093C094D0930" horiz-adv-x="654" 
d="M13 47c44 0 77 -33 77 -78c0 -40 -33 -73 -77 -73c-41 0 -74 33 -74 73c0 45 33 78 74 78zM595 441c42 0 73 -33 73 -74s-32 -74 -74 -74s-74 33 -74 74s33 74 75 74zM-30 671h714v-109h-208v-166h-186c-59 0 -69 -6 -69 -29c0 -14 9 -42 41 -55l157 36
c66 -18 110 -78 110 -160c0 -81 -48 -149 -128 -179l152 -158l-153 -32l-80 117l-87 -117l-154 38l148 144c-111 29 -174 116 -204 180l90 67c38 -85 112 -141 193 -141c62 0 98 29 98 79c0 17 -9 34 -19 42l-136 -36c-113 46 -166 132 -166 206c0 67 46 108 135 108h120v56
h-368v109z" />
    <glyph glyph-name="uni091A093C094D0930" horiz-adv-x="687" 
d="M466 141l-312 -170l-112 95l135 61v4c-45 21 -82 62 -82 129c0 49 24 79 47 98v4h-128v120h391v-119h-60c-70 0 -107 -31 -107 -85c0 -44 31 -79 95 -79c81 0 129 49 137 70v293h-500v109h747v-109h-105v-562h-142v141h-4zM287 -96c0 45 33 78 74 78c44 0 77 -33 77 -78
c0 -40 -33 -73 -77 -73c-41 0 -74 33 -74 73z" />
    <glyph glyph-name="uni091B093C094D0930" horiz-adv-x="699" 
d="M38 54c44 0 77 -33 77 -78c0 -40 -33 -73 -77 -73c-41 0 -74 33 -74 73c0 45 33 78 74 78zM445 493v69h-163c-60 0 -86 -38 -86 -81c0 -42 26 -74 78 -74h33v-114c-6 0 -12 0 -17 -1c-58 -5 -78 -36 -78 -74c0 -47 42 -84 123 -84c115 0 206 87 206 188
c0 47 -20 66 -46 66c-20 0 -35 -14 -35 -35c0 -25 17 -41 44 -50l-84 -78c-39 14 -90 55 -90 130c0 65 45 120 115 138zM729 562h-152v-82c54 -27 88 -81 88 -160c0 -115 -79 -236 -217 -283l151 -156l-153 -32l-80 117l-87 -117l-154 38l138 134c-125 20 -195 101 -195 191
c0 81 44 120 85 135v4c-67 11 -103 61 -103 121c0 42 17 69 35 86v4h-115v109h759v-109z" />
    <glyph glyph-name="uni091C093C094D0930" horiz-adv-x="775" 
d="M270 394v10l54 99h234v59h-588v109h835v-109h-105v-562h-142v76h-4l-255 -157l-112 95l371 191v188h-119v-4c24 -20 42 -51 42 -90c0 -90 -78 -154 -183 -154c-186 0 -267 175 -277 300l126 64c7 -129 51 -245 141 -245c38 0 60 20 60 53c0 39 -30 67 -78 77zM-5 78
c0 45 33 78 74 78c44 0 77 -33 77 -78c0 -40 -33 -73 -77 -73c-41 0 -74 33 -74 73z" />
    <glyph glyph-name="uni091D093C094D0930" horiz-adv-x="905" 
d="M72 -120c0 45 33 78 74 78c44 0 77 -33 77 -78c0 -40 -33 -73 -77 -73c-41 0 -74 33 -74 73zM700 107h-4l-120 -143l-109 65l232 217l-2 3c-54 -34 -119 -39 -147 -39c-15 0 -29 1 -42 3c1 -7 1 -13 1 -20c0 -82 -60 -142 -147 -159v-4l169 -100l-145 -77l-178 156
c-124 0 -169 64 -169 118c0 40 21 69 54 84l157 -96h14c58 0 117 22 117 76c0 17 -9 31 -16 35l-133 -34c-112 37 -169 125 -169 206c0 67 46 108 135 108h120v56h-348v109h965v-109h-105v-592h-132zM694 562h-238v-166h-190c-58 0 -61 -16 -61 -37c0 -15 13 -40 40 -48
l157 37c29 -14 71 -33 118 -33c42 0 111 8 174 63v184z" />
    <glyph glyph-name="uni091E093C094D0930" horiz-adv-x="780" 
d="M810 671v-109h-105v-562h-141v97h-4l-243 -176l-112 95l372 220v4c-6 0 -11 -1 -17 -1c-38 0 -83 6 -105 13c-35 -74 -120 -114 -208 -114c-117 0 -201 65 -242 125l92 102c36 -61 93 -102 151 -102s88 29 88 71c0 46 -35 65 -72 65c-26 0 -54 -9 -72 -26l-54 118
c40 23 86 35 130 35c88 0 170 -46 196 -136c1 -7 3 -13 4 -20c27 -7 64 -10 96 -11v203h-594v109h840zM-5 33c0 45 33 78 74 78c44 0 77 -33 77 -78c0 -40 -33 -73 -77 -73c-41 0 -74 33 -74 73z" />
    <glyph glyph-name="uni091F093C094D0930" horiz-adv-x="539" 
d="M5 84c44 0 77 -33 77 -78c0 -40 -33 -73 -77 -73c-41 0 -74 33 -74 73c0 45 33 78 74 78zM438 394l-145 -37c-106 -27 -121 -64 -121 -114c0 -45 33 -97 119 -97c64 0 118 20 176 81l68 -113c-43 -41 -88 -65 -134 -77l145 -151l-153 -32l-80 117l-87 -117l-154 38
l149 145c-113 33 -184 127 -184 233c0 105 55 165 181 200l76 21v71h-324v109h599v-109h-131v-168z" />
    <glyph glyph-name="uni0920093C094D0930" horiz-adv-x="611" 
d="M14 75c44 0 77 -33 77 -78c0 -40 -33 -73 -77 -73c-41 0 -74 33 -74 73c0 45 33 78 74 78zM371 377l-78 -20c-106 -27 -121 -64 -121 -114c0 -45 33 -97 119 -97c100 0 154 55 154 120c0 47 -30 87 -74 111zM641 562h-203v-89c92 -50 137 -120 137 -214
c0 -93 -58 -184 -166 -219l157 -162l-153 -32l-80 117l-87 -117l-154 38l151 147c-125 26 -206 126 -206 239c0 105 55 165 181 200l76 21v71h-324v109h671v-109z" />
    <glyph glyph-name="uni0921093C094D0930" horiz-adv-x="572" 
d="M2 50c44 0 77 -33 77 -78c0 -40 -33 -73 -77 -73c-41 0 -74 33 -74 73c0 45 33 78 74 78zM476 396h-186c-59 0 -69 -6 -69 -29c0 -14 9 -42 41 -55l157 36c66 -18 110 -78 110 -160c0 -83 -50 -153 -135 -182l150 -155l-153 -32l-80 117l-87 -117l-154 38l150 146
c-107 31 -168 116 -197 178l90 67c38 -85 112 -141 193 -141c62 0 98 29 98 79c0 17 -9 34 -19 42l-136 -36c-113 46 -166 132 -166 206c0 67 46 108 135 108h120v56h-368v109h632v-109h-126v-166z" />
    <glyph glyph-name="uni0922093C094D0930" horiz-adv-x="568" 
d="M98 -6c0 -40 -33 -73 -77 -73c-41 0 -74 33 -74 73c0 45 33 78 74 78c44 0 77 -33 77 -78zM468 410l-172 -42c-94 -23 -118 -55 -118 -111c0 -60 60 -127 153 -127c46 0 71 23 71 57c0 21 -15 36 -38 36c-24 0 -45 -16 -50 -45l-79 74c15 35 59 85 147 85
c78 0 144 -65 144 -145c0 -83 -49 -148 -131 -171l152 -158l-153 -32l-80 117l-87 -117l-154 38l160 157c-108 33 -196 123 -196 249c0 105 68 173 185 204l102 27v56h-354v109h628v-109h-130v-152z" />
    <glyph glyph-name="uni0923093C094D0930" horiz-adv-x="792" 
d="M92 145c44 0 77 -33 77 -78c0 -40 -33 -73 -77 -73c-41 0 -74 33 -74 73c0 45 33 78 74 78zM320 376v186h-117v-187c0 -49 24 -66 59 -66c37 0 58 18 58 67zM-30 671h852v-109h-105v-562h-139v134h-4l-236 -164l-112 95l350 198v299h-117v-174c0 -131 -77 -198 -200 -198
c-125 0 -196 65 -196 195v177h-93v109z" />
    <glyph glyph-name="uni0924093C094D0930" horiz-adv-x="596" 
d="M379 210h-4l-241 -181l-98 104l260 173c-26 41 -58 63 -109 63c-38 0 -76 -14 -118 -53l-89 119c57 43 121 67 194 67c100 0 170 -53 201 -117h4v177h-409v109h656v-109h-105v-562h-142v210zM180 -85c0 45 33 78 74 78c44 0 77 -33 77 -78c0 -40 -33 -73 -77 -73
c-41 0 -74 33 -74 73z" />
    <glyph glyph-name="uni0925093C094D0930" horiz-adv-x="714" 
d="M36 364l134 35c102 27 135 67 135 114c0 34 -14 53 -43 53c-25 0 -43 -17 -43 -45c0 -17 3 -33 17 -52l-119 -34c-22 23 -33 56 -33 92c0 85 70 154 178 154c114 0 179 -71 179 -170c0 -107 -69 -168 -170 -197c-22 -6 -46 -11 -71 -15c6 -39 37 -100 131 -100
c100 0 151 58 168 98v374h245v-109h-105v-562h-137v142h-4l-317 -182l-117 101l125 60v4c-48 13 -147 73 -153 239zM317 -78c0 45 33 78 74 78c44 0 77 -33 77 -78c0 -40 -33 -73 -77 -73c-41 0 -74 33 -74 73z" />
    <glyph glyph-name="uni0926093C094D0930" horiz-adv-x="570" 
d="M189 70v4c-67 19 -148 89 -148 206c0 105 57 164 183 199l84 23v60h-338v109h630v-109h-148v-158l-144 -37c-105 -27 -132 -56 -132 -114s53 -90 105 -90c24 0 46 7 63 22v96l89 33c40 -20 79 -49 79 -110c0 -40 -16 -66 -42 -92l128 -151l-158 -39l-65 129l-233 -165
l-112 95zM248 -165c0 45 33 78 74 78c44 0 77 -33 77 -78c0 -40 -33 -73 -77 -73c-41 0 -74 33 -74 73z" />
    <glyph glyph-name="uni0927093C094D0930" horiz-adv-x="668" 
d="M451 153h-4l-268 -193l-112 95l121 68v4c-53 5 -122 48 -122 134c0 81 58 115 99 124v4c-60 5 -105 40 -105 100c0 32 15 56 34 69v4h-124v109h297l19 -102c-58 -9 -81 -39 -81 -70c0 -34 27 -58 78 -58h75v-108h-63c-59 0 -86 -24 -86 -62c0 -30 20 -64 90 -64
c80 0 136 52 152 79v276h-88v109h335v-109h-105v-562h-142v153zM277 -96c0 45 33 78 74 78c44 0 77 -33 77 -78c0 -40 -33 -73 -77 -73c-41 0 -74 33 -74 73z" />
    <glyph glyph-name="uni0928093C094D0930" horiz-adv-x="633" 
d="M306 283c-17 54 -57 88 -114 88c-4 0 -9 -1 -13 -1v-67l-68 -30c-44 24 -91 78 -94 149l80 62c19 5 50 8 71 8c111 0 203 -53 245 -163h4v233h-447v109h693v-109h-105v-562h-141v214h-4l-248 -203l-110 95zM230 -96c0 45 33 78 74 78c44 0 77 -33 77 -78
c0 -40 -33 -73 -77 -73c-41 0 -74 33 -74 73z" />
    <glyph glyph-name="uni092A093C094D0930" horiz-adv-x="600" 
d="M214 212v4c-74 6 -137 45 -137 150v196h-107v109h660v-109h-105v-562h-142v196h-4l-237 -220l-128 85zM383 354v208h-165v-174c0 -52 22 -76 69 -76c40 0 78 18 96 42zM219 -96c0 45 33 78 74 78c44 0 77 -33 77 -78c0 -40 -33 -73 -77 -73c-41 0 -74 33 -74 73z" />
    <glyph glyph-name="uni092B093C094D0930" horiz-adv-x="836" 
d="M180 191v4c-67 17 -103 69 -103 147v220h-107v109h896v-109h-368v-116h4c19 19 56 45 121 45c104 0 186 -74 186 -189c0 -140 -108 -213 -230 -202l-22 121c67 -15 113 22 113 79c0 44 -31 74 -75 74c-65 0 -97 -52 -97 -106v-268h-137v198h-4l-206 -221l-126 89z
M278 290c37 0 71 19 83 38v234h-143v-195c0 -52 15 -77 60 -77zM198 -105c0 45 33 78 74 78c44 0 77 -33 77 -78c0 -40 -33 -73 -77 -73c-41 0 -74 33 -74 73z" />
    <glyph glyph-name="uni092C093C094D0930" horiz-adv-x="580" 
d="M152 134v4c-35 14 -111 57 -111 172c0 128 105 204 209 204c32 0 50 -2 77 -9l7 -118c-24 8 -48 10 -69 10c-14 0 -29 -3 -41 -10l156 -119l7 5v289h-417v109h640v-109h-82v-562h-142v141h-4l-239 -171l-112 95zM274 207c23 0 43 7 60 18l-153 116c-5 -12 -7 -24 -7 -38
c0 -60 45 -96 100 -96zM221 -104c0 45 33 78 74 78c44 0 77 -33 77 -78c0 -40 -33 -73 -77 -73c-41 0 -74 33 -74 73z" />
    <glyph glyph-name="uni092D093C094D0930" horiz-adv-x="629" 
d="M253 -106c0 45 33 78 74 78c44 0 77 -33 77 -78c0 -40 -33 -73 -77 -73c-41 0 -74 33 -74 73zM50 367l68 54v88c0 39 -19 53 -54 53h-94v109h120c69 0 164 -26 164 -154v-93h162v138h-81v109h324v-109h-105v-562h-138v157h-4l-241 -186l-112 95l378 233v4h-183v-85h-132
c-46 30 -72 101 -72 149z" />
    <glyph glyph-name="uni092E093C094D0930" horiz-adv-x="607" 
d="M253 -106c0 45 33 78 74 78c44 0 77 -33 77 -78c0 -40 -33 -73 -77 -73c-41 0 -74 33 -74 73zM254 303v-85h-132c-46 30 -72 101 -72 149l68 54v141h-148v109h667v-109h-95v-562h-138v151h-4l-232 -180l-112 95l369 233v4h-171zM404 562h-150v-138h150v138z" />
    <glyph glyph-name="uni092F093C094D0930" horiz-adv-x="636" 
d="M184 149v4c-71 21 -141 89 -144 225c75 16 133 37 133 101c0 20 -10 59 -29 83h-174v109h696v-109h-105v-562h-141v156h-4l-265 -185l-112 95zM189 332c9 -58 48 -102 114 -102c57 0 98 28 117 61v271h-148v-4c34 -30 41 -70 41 -99c0 -75 -56 -114 -124 -127zM248 -77
c0 45 33 78 74 78c44 0 77 -33 77 -78c0 -40 -33 -73 -77 -73c-41 0 -74 33 -74 73z" />
    <glyph glyph-name="uni0932093C094D0930" horiz-adv-x="737" 
d="M274 97l-102 -86c-91 65 -143 162 -143 266c0 139 95 199 186 199c61 0 107 -26 127 -74h4c12 54 58 79 97 79c24 0 57 -5 75 -23h4v104h-552v109h797v-109h-105v-592h-134v111h-4l-151 -120l-102 81l253 174v130c-9 6 -35 14 -52 14c-41 0 -59 -26 -59 -80v-87h-128v94
c0 47 -22 72 -55 72c-27 0 -60 -19 -60 -88c0 -54 25 -119 104 -174zM26 -85c0 44 32 75 71 75c43 0 74 -31 74 -75c0 -38 -31 -70 -74 -70c-39 0 -71 32 -71 70z" />
    <glyph glyph-name="uni0933093C094D0930" horiz-adv-x="731" 
d="M99 5c44 0 77 -33 77 -78c0 -40 -33 -73 -77 -73c-41 0 -74 33 -74 73c0 45 33 78 74 78zM497 151c47 0 76 45 76 107c0 65 -18 101 -62 101c-49 0 -69 -65 -94 -146c16 -37 44 -62 80 -62zM220 158c54 0 67 49 94 146c-16 39 -44 62 -80 62c-48 0 -76 -44 -76 -107
c0 -65 18 -101 62 -101zM761 562h-191v-95c84 -22 134 -100 134 -209c0 -92 -42 -162 -107 -195l157 -162l-153 -32l-80 117l-87 -117l-154 38l154 150c-33 15 -54 37 -65 57c-35 -46 -84 -71 -155 -71c-116 0 -187 86 -187 216c0 131 83 215 194 215c80 0 122 -38 140 -69
c19 25 43 44 73 55v102h-464v109h791v-109z" />
    <glyph glyph-name="uni0935093C094D0930" horiz-adv-x="591" 
d="M375 146h-4l-225 -167l-118 95l118 64v4c-35 15 -102 65 -102 164c0 134 120 211 255 189l11 -121c-51 19 -120 -5 -120 -69c0 -51 35 -81 85 -81c58 0 91 33 100 60v278h-405v109h651v-109h-105v-562h-141v146zM212 -96c0 45 33 78 74 78c44 0 77 -33 77 -78
c0 -40 -33 -73 -77 -73c-41 0 -74 33 -74 73z" />
    <glyph glyph-name="uni0936093C094D0930" horiz-adv-x="735" 
d="M521 201h-4l-225 -165l-111 101l212 123v4c-50 16 -86 31 -121 48c-50 -26 -111 -48 -184 -71l-91 109c62 14 118 30 160 45c-51 40 -64 93 -64 133c0 77 66 152 177 152c102 0 178 -67 178 -157c0 -56 -25 -108 -73 -141c37 -15 89 -34 146 -50v339h244v-109h-105v-562
h-139v201zM218 522c0 -19 6 -50 46 -79c45 23 58 54 58 80c0 35 -22 51 -49 51c-36 0 -55 -23 -55 -52zM44 -1c0 45 33 78 74 78c44 0 77 -33 77 -78c0 -40 -33 -73 -77 -73c-41 0 -74 33 -74 73z" />
    <glyph glyph-name="uni0937093C094D0930" horiz-adv-x="599" 
d="M227 -74c0 44 32 75 71 75c43 0 74 -31 74 -75c0 -38 -31 -70 -74 -70c-39 0 -71 32 -71 70zM214 199v4c-74 6 -137 45 -137 150v209h-107v109h666v-109h-105v-562h-142v183h-4l-229 -210l-128 85zM294 298c31 0 53 9 71 21l-98 96c-36 36 -59 68 -59 68s8 -31 8 -95v-14
c0 -52 33 -76 78 -76zM395 413v149h-164l163 -166c1 5 1 11 1 17z" />
    <glyph glyph-name="uni0938093C094D0930" horiz-adv-x="867" 
d="M479 82l-101 95l159 87c-8 48 -35 88 -89 88c-89 0 -128 -93 -219 -93v-4c20 -20 34 -31 69 -73l107 -132l-118 -69l-276 351l102 89c28 -38 49 -59 78 -59c23 0 41 13 41 49v151h-262v109h927v-109h-105v-562h-143v189h-4zM468 479c111 0 157 -67 177 -143h4v226h-277
v-103c25 12 61 20 96 20zM6 2c0 44 32 75 71 75c43 0 74 -31 74 -75c0 -38 -31 -70 -74 -70c-39 0 -71 32 -71 70z" />
    <glyph glyph-name="uni0939093C094D0930" horiz-adv-x="588" 
d="M377 219h-67c-79 0 -109 -46 -109 -94c0 -51 30 -114 191 -132l-81 -100c-144 29 -246 107 -246 237c0 50 23 97 65 133c-57 28 -77 75 -77 121c0 69 57 118 150 118h164v60h-397v109h648v-109h-115v-172h-263c-41 0 -52 -11 -52 -31c0 -18 21 -35 47 -43c26 7 54 8 85 8
h135l85 -86v-184h-119l3 85h-4l-74 -81l-109 46l140 111v4zM2 -129c0 44 32 75 71 75c43 0 74 -31 74 -75c0 -38 -31 -70 -74 -70c-39 0 -71 32 -71 70z" />
    <glyph glyph-name="uni0915094D0930094D" horiz-adv-x="585" 
d="M599 487c43 0 89 -13 121 -36l-67 -106c-14 13 -38 27 -76 27c-54 0 -90 -39 -90 -91v-281h-140v147h-4l-215 -156l-107 97l127 59v4c-46 15 -104 66 -104 161c0 126 118 197 233 187l22 -121c-66 14 -115 -18 -115 -78c0 -44 32 -75 77 -75c51 0 86 38 86 91v246h-377
v109h645v-109h-128v-115l4 1c21 21 65 39 108 39z" />
    <glyph glyph-name="uni0916094D0930094D" horiz-adv-x="619" 
d="M422 127c136 0 220 91 220 187c0 56 -32 83 -69 83c-39 0 -60 -26 -60 -61c0 -44 39 -66 79 -69l-69 -74c-64 8 -134 54 -134 146c0 94 77 165 182 165c93 0 186 -69 186 -192c0 -148 -106 -247 -291 -313l-290 -104l-98 105l202 52v4c-81 20 -207 95 -258 335l113 41
c11 -35 26 -52 50 -52c18 0 36 12 36 42v140h-246v109h654v-109h-275v-139c0 -96 -47 -140 -126 -140c-8 0 -20 1 -29 3c24 -90 115 -159 223 -159z" />
    <glyph glyph-name="uni0917094D0930094D" horiz-adv-x="334" 
d="M364 671v-109h-103v-344h-134c-58 41 -72 117 -72 150l68 53v141h-153v109h394zM478 308v-115l-315 -222l-112 95z" />
    <glyph glyph-name="uni0918094D0930094D" horiz-adv-x="392" 
d="M463 296l73 -96l-89 -60l-268 -180l-112 95l121 68v4c-53 8 -119 52 -119 135c0 75 55 110 98 120v4c-61 4 -108 42 -108 101c0 32 14 54 33 71v4h-122v109h452v-109h-141c-51 0 -75 -26 -75 -63c0 -36 26 -61 80 -61h63v-108h-53c-58 0 -83 -25 -83 -61
c0 -32 23 -66 93 -66c66 0 129 44 157 93z" />
    <glyph glyph-name="uni0919094D0930094D" horiz-adv-x="654" 
d="M233 -269l107 43l184 -197v-4h-183zM595 441c42 0 73 -33 73 -74s-32 -74 -74 -74s-74 33 -74 74s33 74 75 74zM-30 671h714v-109h-208v-166h-186c-59 0 -69 -6 -69 -29c0 -14 9 -42 41 -55l157 36c66 -18 110 -78 110 -160c0 -81 -48 -149 -128 -179l152 -158l-153 -32
l-80 117l-87 -117l-154 38l148 144c-111 29 -174 116 -204 180l90 67c38 -85 112 -141 193 -141c62 0 98 29 98 79c0 17 -9 34 -19 42l-136 -36c-113 46 -166 132 -166 206c0 67 46 108 135 108h120v56h-368v109z" />
    <glyph glyph-name="uni091A094D0930094D" horiz-adv-x="423" 
d="M453 671v-109h-483v109h483zM490 297l65 -87c-27 -33 -72 -63 -122 -90l-279 -149l-112 95l135 61v4c-45 21 -82 62 -82 129c0 49 24 79 47 98v4h-128v120h391v-119h-60c-70 0 -107 -31 -107 -85c0 -44 31 -79 95 -79c96 0 140 64 157 98z" />
    <glyph glyph-name="uni091B094D0930094D" horiz-adv-x="699" 
d="M729 562h-447c-60 0 -86 -38 -86 -81c0 -42 26 -74 78 -74h33v-114c-6 0 -11 0 -16 -1c-59 -4 -79 -35 -79 -74c0 -47 34 -84 115 -84c116 0 214 94 214 206c0 48 -23 66 -48 66c-18 0 -33 -14 -33 -35c0 -25 17 -41 44 -50l-84 -78c-39 14 -90 55 -90 130
c0 78 65 143 162 143c101 0 173 -63 173 -178c0 -117 -77 -250 -222 -300l151 -157l-153 -32l-80 117l-87 -117l-154 38l137 134c-124 19 -189 101 -189 191c0 81 44 120 85 135v4c-67 11 -103 61 -103 121c0 42 17 69 35 86v4h-115v109h759v-109z" />
    <glyph glyph-name="uni091C094D0930094D" horiz-adv-x="498" 
d="M528 671v-109h-558v109h558zM612 503v-110h-173v-4c24 -20 42 -51 42 -90c0 -90 -78 -154 -183 -154c-186 0 -267 175 -277 300l126 64c7 -129 51 -245 141 -245c38 0 60 20 60 53c0 39 -30 67 -78 77v10l54 99h288zM612 233v-121l-313 -193l-112 95z" />
    <glyph glyph-name="uni091D094D0930094D" horiz-adv-x="550" 
d="M699 246l-2 3c-54 -34 -119 -39 -147 -39c-15 0 -29 1 -42 3c1 -7 1 -13 1 -20c0 -82 -60 -142 -147 -159v-4l169 -100l-145 -77l-178 156c-124 0 -169 64 -169 118c0 40 21 69 54 84l157 -96h14c58 0 117 22 117 76c0 17 -9 31 -16 35l-133 -34
c-112 37 -169 125 -169 206c0 67 46 108 135 108h120v56h-348v109h610v-109h-124v-166h-190c-58 0 -61 -16 -61 -37c0 -15 13 -40 40 -48l157 37c29 -14 71 -33 118 -33c91 0 153 32 205 74v-247l-149 -178l-109 65z" />
    <glyph glyph-name="uni091E094D0930094D" horiz-adv-x="507" 
d="M537 671v-109h-567v109h567zM624 140l-307 -219l-112 95l372 223v4c-6 0 -11 -1 -17 -1c-38 0 -83 3 -105 10c-35 -74 -120 -114 -208 -114c-117 0 -201 65 -242 125l92 102c36 -61 93 -102 151 -102s88 29 88 71c0 46 -35 65 -72 65c-26 0 -54 -9 -72 -26l-54 118
c40 23 86 35 130 35c88 0 170 -46 196 -136l4 -20c27 -7 101 -11 156 -5v-225z" />
    <glyph glyph-name="uni091F094D0930094D" horiz-adv-x="539" 
d="M224 -231l107 43l184 -197v-4h-183zM438 394l-145 -37c-106 -27 -121 -64 -121 -114c0 -45 33 -97 119 -97c64 0 118 20 176 81l68 -113c-43 -41 -88 -65 -134 -77l145 -151l-153 -32l-80 117l-87 -117l-154 38l149 145c-113 33 -184 127 -184 233c0 105 55 165 181 200
l76 21v71h-324v109h599v-109h-131v-168z" />
    <glyph glyph-name="uni0920094D0930094D" horiz-adv-x="611" 
d="M234 -231l107 43l184 -197v-4h-183zM371 377l-78 -20c-106 -27 -121 -64 -121 -114c0 -45 33 -97 119 -97c100 0 154 55 154 120c0 47 -30 87 -74 111zM641 562h-203v-89c92 -50 137 -120 137 -214s-59 -186 -170 -220l155 -161l-153 -32l-80 117l-87 -117l-154 38
l152 149c-123 27 -201 126 -201 237c0 105 55 165 181 200l76 21v71h-324v109h671v-109z" />
    <glyph glyph-name="uni0921094D0930094D" horiz-adv-x="572" 
d="M224 -261l107 43l184 -197v-4h-183zM476 396h-186c-59 0 -69 -6 -69 -29c0 -14 9 -42 41 -55l157 36c66 -18 110 -78 110 -160c0 -83 -50 -153 -135 -182l150 -155l-153 -32l-80 117l-87 -117l-154 38l150 146c-107 31 -168 116 -197 178l90 67c38 -85 112 -141 193 -141
c62 0 98 29 98 79c0 17 -9 34 -19 42l-136 -36c-113 46 -166 132 -166 206c0 67 46 108 135 108h120v56h-368v109h632v-109h-126v-166z" />
    <glyph glyph-name="uni0922094D0930094D" horiz-adv-x="568" 
d="M224 -261l107 43l184 -197v-4h-183zM468 410l-172 -42c-94 -23 -118 -55 -118 -111c0 -60 60 -127 153 -127c46 0 71 23 71 57c0 21 -15 36 -38 36c-24 0 -45 -16 -50 -45l-79 74c15 35 59 85 147 85c78 0 144 -65 144 -145c0 -83 -49 -148 -131 -171l152 -158l-153 -32
l-80 117l-87 -117l-154 38l160 157c-108 33 -196 123 -196 249c0 105 68 173 185 204l102 27v56h-354v109h628v-109h-130v-152z" />
    <glyph glyph-name="uni0923094D0930094D" horiz-adv-x="504" 
d="M203 562v-187c0 -49 24 -66 59 -66c37 0 58 18 58 67v186h-117zM459 562v-174c0 -131 -77 -198 -200 -198c-125 0 -196 65 -196 195v177h-93v109h564v-109h-75zM226 65l407 230v-121l-295 -204z" />
    <glyph glyph-name="uni0924094D0930094D" horiz-adv-x="322" 
d="M352 671v-109h-382v109h382zM440 261l-306 -232l-98 104l260 173c-26 41 -60 63 -109 63c-38 0 -76 -14 -118 -53l-89 119c57 43 121 67 194 67c121 0 219 -78 266 -241z" />
    <glyph glyph-name="uni0925094D0930094D" horiz-adv-x="496" 
d="M498 303l79 -91c-29 -37 -70 -68 -124 -98l-282 -154l-117 101l125 60v4c-48 13 -147 73 -153 239l134 35c102 27 135 67 135 114c0 34 -14 53 -43 53c-25 0 -43 -17 -43 -45c0 -17 3 -33 17 -52l-119 -34c-22 23 -33 56 -33 92c0 85 70 154 178 154
c114 0 179 -71 179 -170c0 -107 -69 -168 -170 -197c-22 -6 -46 -11 -71 -15c6 -39 37 -100 131 -100c102 0 157 65 177 104z" />
    <glyph glyph-name="uni0926094D0930094D" horiz-adv-x="570" 
d="M541 -305v-4h-183l-108 158l107 43zM189 70v4c-67 19 -148 89 -148 206c0 105 57 164 183 199l84 23v60h-338v109h630v-109h-148v-158l-144 -37c-105 -27 -132 -56 -132 -114s53 -90 105 -90c24 0 46 7 63 22v96l89 33c40 -20 79 -49 79 -110c0 -40 -16 -66 -42 -92
l128 -151l-158 -39l-65 129l-233 -165l-112 95z" />
    <glyph glyph-name="uni0927094D0930094D" horiz-adv-x="416" 
d="M446 671v-109h-83v109h83zM299 207c76 0 131 38 162 78l72 -83c-16 -18 -32 -37 -98 -79l-256 -163l-112 95l121 68v4c-53 5 -122 48 -122 134c0 81 58 115 99 124v4c-60 5 -105 40 -105 100c0 32 15 56 34 69v4h-124v109h297l19 -102c-58 -9 -81 -39 -81 -70
c0 -34 27 -58 78 -58h75v-108h-63c-59 0 -86 -24 -86 -62c0 -30 20 -64 90 -64z" />
    <glyph glyph-name="uni0928094D0930094D" horiz-adv-x="322" 
d="M352 671v-109h-382v109h382zM55 106l251 177c-17 54 -57 88 -114 88c-4 0 -9 -1 -13 -1v-67l-68 -30c-44 24 -91 78 -94 149l80 62c19 5 50 8 71 8c134 0 238 -74 278 -247l-281 -234z" />
    <glyph glyph-name="uni092A094D0930094D" horiz-adv-x="333" 
d="M482 293c-5 -7 -11 -15 -31 -34l-309 -283l-128 85l200 151v4c-74 6 -137 45 -137 150v196h-107v109h393v-109h-145v-174c0 -52 22 -76 69 -76c48 0 87 31 115 74z" />
    <glyph glyph-name="uni092B094D0930094D" horiz-adv-x="596" 
d="M278 290c37 0 71 19 83 38v234h-143v-195c0 -52 15 -77 60 -77zM498 282v-282h-137v198h-4l-206 -221l-126 89l155 125v4c-67 17 -103 69 -103 147v220h-107v109h656v-109h-128v-113h4c23 22 67 39 113 39c43 0 84 -13 116 -36l-67 -106c-14 13 -38 27 -76 27
c-54 0 -90 -39 -90 -91z" />
    <glyph glyph-name="uni092C094D0930094D" horiz-adv-x="362" 
d="M143 -30l-112 95l121 69v4c-35 14 -111 57 -111 172c0 128 105 204 209 204c32 0 50 -2 77 -9l7 -118c-24 8 -43 10 -64 10c-18 0 -34 -3 -46 -10l161 -121c9 9 16 20 21 28l74 -66c-25 -37 -58 -66 -90 -88zM274 207c23 0 43 7 60 18l-153 116c-5 -12 -7 -24 -7 -38
c0 -60 45 -96 100 -96zM392 671v-109h-412v109h412z" />
    <glyph glyph-name="uni092D094D0930094D" horiz-adv-x="369" 
d="M399 671v-109h-64v109h64zM465 299v-127l-294 -201l-112 95zM465 424v-121h-211v-85h-132c-46 30 -72 101 -72 149l68 54v88c0 39 -19 53 -54 53h-94v109h120c69 0 164 -26 164 -154v-93h211z" />
    <glyph glyph-name="uni092E094D0930094D" horiz-adv-x="369" 
d="M399 671v-109h-145v-138h211v-121h-211v-85h-132c-46 30 -72 101 -72 149l68 54v141h-148v109h429zM465 299v-127l-294 -201l-112 95z" />
    <glyph glyph-name="uni092F094D0930094D" horiz-adv-x="376" 
d="M439 309l72 -93l-68 -46l-292 -199l-112 95l145 83v4c-71 21 -141 89 -144 225c75 16 133 37 133 101c0 20 -10 59 -29 83h-174v109h436v-109h-134v-4c34 -30 41 -70 41 -99c0 -75 -56 -114 -124 -127c9 -58 48 -102 114 -102c78 0 118 48 136 79z" />
    <glyph glyph-name="uni0932094D0930094D" horiz-adv-x="472" 
d="M502 671v-109h-532v109h532zM215 476c61 0 107 -26 127 -74h4c12 40 47 80 119 80c65 0 107 -26 134 -51l-61 -104c-15 17 -35 33 -66 33c-37 0 -59 -24 -59 -73v-101h-128v102c0 47 -22 69 -55 69c-27 0 -60 -17 -60 -86c0 -54 25 -120 104 -174l-105 -83
c-88 65 -140 161 -140 263c0 139 95 199 186 199zM566 245l62 -79l-255 -205l-102 81z" />
    <glyph glyph-name="uni0933094D0930094D" horiz-adv-x="731" 
d="M220 158c62 0 81 98 95 147c-17 38 -46 61 -80 61c-47 0 -77 -45 -77 -107c0 -65 18 -101 62 -101zM511 359c-63 0 -81 -98 -95 -147c17 -38 46 -61 80 -61c47 0 77 45 77 107c0 65 -18 101 -62 101zM280 -93l154 150c-33 15 -54 37 -65 57c-35 -46 -84 -71 -155 -71
c-115 0 -187 86 -187 216c0 129 83 215 194 215c80 0 122 -38 141 -70c33 46 81 70 155 70c115 0 187 -86 187 -216c0 -92 -42 -162 -107 -195l157 -162l-153 -32l-80 117l-87 -117zM-30 671h791v-109h-791v109z" />
    <glyph glyph-name="uni0935094D0930094D" horiz-adv-x="325" 
d="M355 671v-109h-385v109h385zM390 312l92 -69c-20 -35 -50 -68 -89 -95l-247 -169l-118 95l118 64v4c-35 15 -102 65 -102 164c0 134 120 211 255 189l11 -121c-51 19 -120 -5 -120 -69c0 -51 35 -81 85 -81c72 0 102 60 115 88z" />
    <glyph glyph-name="uni0936094D0930094D" horiz-adv-x="487" 
d="M571 241l-279 -205l-111 101l212 123v4c-50 16 -86 31 -121 48c-50 -26 -111 -48 -184 -71l-91 109c62 14 118 30 160 45c-51 40 -64 93 -64 133c0 77 66 152 177 152c102 0 178 -67 178 -157c0 -56 -25 -108 -73 -141c37 -16 133 -48 196 -65v-76zM218 522
c0 -19 6 -50 46 -79c45 23 58 54 58 80c0 35 -22 51 -49 51c-36 0 -55 -23 -55 -52z" />
    <glyph glyph-name="uni0937094D0930094D" horiz-adv-x="325" 
d="M284 295c31 0 58 10 79 29l-105 113c-38 41 -59 67 -59 67s8 -34 8 -93v-45c0 -52 32 -71 77 -71zM486 305v-14l-326 -303l-128 85l176 129v4c-74 6 -137 45 -137 150v206h-101v109h385v-109h-113z" />
    <glyph glyph-name="uni0938094D0930094D" horiz-adv-x="575" 
d="M677 212l-198 -130l-101 95l164 91c-13 55 -45 84 -94 84c-89 0 -128 -93 -219 -93l2 -2c20 -20 32 -32 67 -75l107 -132l-118 -69l-276 351l102 89c28 -38 49 -59 78 -59c23 0 41 13 41 49v151h-262v109h635v-109h-233v-103c25 12 61 20 96 20c120 0 214 -100 209 -267z
" />
    <glyph glyph-name="uni0939094D0930094D" horiz-adv-x="588" 
d="M377 219h-67c-79 0 -109 -46 -109 -94c0 -51 30 -114 191 -132l-81 -100c-144 29 -246 107 -246 237c0 50 23 97 65 133c-57 28 -77 75 -77 121c0 69 57 118 150 118h164v60h-397v109h648v-109h-115v-172h-263c-41 0 -52 -11 -52 -31c0 -18 21 -35 47 -43c26 7 54 8 85 8
h135l85 -86v-184h-119l3 85h-4l-74 -81l-109 46l140 111v4zM555 -303v-4h-183l-108 158l107 43z" />
    <glyph glyph-name="uni0915093C094D0930094D" horiz-adv-x="585" 
d="M180 -96c0 45 33 78 74 78c44 0 77 -33 77 -78c0 -40 -33 -73 -77 -73c-41 0 -74 33 -74 73zM599 487c43 0 89 -13 121 -36l-67 -106c-14 13 -38 27 -76 27c-54 0 -90 -39 -90 -91v-281h-140v147h-4l-215 -156l-107 97l127 59v4c-46 15 -104 66 -104 161
c0 126 118 197 233 187l22 -121c-66 14 -115 -18 -115 -78c0 -44 32 -75 77 -75c51 0 86 38 86 91v246h-377v109h645v-109h-128v-115l4 1c21 21 65 39 108 39z" />
    <glyph glyph-name="uni0916093C094D0930094D" horiz-adv-x="594" 
d="M417 127c136 0 220 91 220 187c0 56 -32 83 -69 83c-39 0 -60 -26 -60 -61c0 -44 39 -66 79 -69l-69 -74c-64 8 -134 54 -134 146c0 94 77 165 182 165c93 0 186 -69 186 -192c0 -148 -106 -247 -291 -313l-290 -104l-98 105l202 52v4c-81 20 -207 95 -258 335l113 41
c11 -35 26 -52 50 -52c18 0 36 12 36 42v140h-246v109h654v-109h-275v-139c0 -96 -47 -140 -126 -140c-8 0 -20 1 -29 3c24 -90 115 -159 223 -159zM422 -107c0 45 33 78 74 78c44 0 77 -33 77 -78c0 -40 -33 -73 -77 -73c-41 0 -74 33 -74 73z" />
    <glyph glyph-name="uni0917093C094D0930094D" horiz-adv-x="334" 
d="M364 671v-109h-103v-344h-134c-58 41 -72 117 -72 150l68 53v141h-153v109h394zM478 308v-115l-315 -222l-112 95zM225 -115c0 45 33 78 74 78c44 0 77 -33 77 -78c0 -40 -33 -73 -77 -73c-41 0 -74 33 -74 73z" />
    <glyph glyph-name="uni0918093C094D0930094D" horiz-adv-x="392" 
d="M463 296l73 -96l-89 -60l-268 -180l-112 95l121 68v4c-53 8 -119 52 -119 135c0 75 55 110 98 120v4c-61 4 -108 42 -108 101c0 32 14 54 33 71v4h-122v109h452v-109h-141c-51 0 -75 -26 -75 -63c0 -36 26 -61 80 -61h63v-108h-53c-58 0 -83 -25 -83 -61
c0 -32 23 -66 93 -66c66 0 129 44 157 93zM282 -96c0 45 33 78 74 78c44 0 77 -33 77 -78c0 -40 -33 -73 -77 -73c-41 0 -74 33 -74 73z" />
    <glyph glyph-name="uni0919093C094D0930094D" horiz-adv-x="654" 
d="M13 47c44 0 77 -33 77 -78c0 -40 -33 -73 -77 -73c-41 0 -74 33 -74 73c0 45 33 78 74 78zM233 -269l107 43l184 -197v-4h-183zM595 441c42 0 73 -33 73 -74s-32 -74 -74 -74s-74 33 -74 74s33 74 75 74zM-30 671h714v-109h-208v-166h-186c-59 0 -69 -6 -69 -29
c0 -14 9 -42 41 -55l157 36c66 -18 110 -78 110 -160c0 -81 -48 -149 -128 -179l152 -158l-153 -32l-80 117l-87 -117l-154 38l148 144c-111 29 -174 116 -204 180l90 67c38 -85 112 -141 193 -141c62 0 98 29 98 79c0 17 -9 34 -19 42l-136 -36c-113 46 -166 132 -166 206
c0 67 46 108 135 108h120v56h-368v109z" />
    <glyph glyph-name="uni091A093C094D0930094D" horiz-adv-x="423" 
d="M287 -96c0 45 33 78 74 78c44 0 77 -33 77 -78c0 -40 -33 -73 -77 -73c-41 0 -74 33 -74 73zM453 671v-109h-483v109h483zM490 297l65 -87c-27 -33 -72 -63 -122 -90l-279 -149l-112 95l135 61v4c-45 21 -82 62 -82 129c0 49 24 79 47 98v4h-128v120h391v-119h-60
c-70 0 -107 -31 -107 -85c0 -44 31 -79 95 -79c96 0 140 64 157 98z" />
    <glyph glyph-name="uni091B093C094D0930094D" horiz-adv-x="699" 
d="M38 54c44 0 77 -33 77 -78c0 -40 -33 -73 -77 -73c-41 0 -74 33 -74 73c0 45 33 78 74 78zM729 562h-447c-60 0 -86 -38 -86 -81c0 -42 26 -74 78 -74h33v-114c-6 0 -11 0 -16 -1c-59 -4 -79 -35 -79 -74c0 -47 34 -84 115 -84c116 0 214 94 214 206c0 48 -23 66 -48 66
c-18 0 -33 -14 -33 -35c0 -25 17 -41 44 -50l-84 -78c-39 14 -90 55 -90 130c0 78 65 143 162 143c101 0 173 -63 173 -178c0 -116 -75 -248 -218 -299l152 -158l-153 -32l-80 117l-87 -117l-154 38l137 133c-127 18 -194 101 -194 192c0 81 44 120 85 135v4
c-67 11 -103 61 -103 121c0 42 17 69 35 86v4h-115v109h759v-109z" />
    <glyph glyph-name="uni091C093C094D0930094D" horiz-adv-x="498" 
d="M528 671v-109h-558v109h558zM612 503v-110h-173v-4c24 -20 42 -51 42 -90c0 -90 -78 -154 -183 -154c-186 0 -267 175 -277 300l126 64c7 -129 51 -245 141 -245c38 0 60 20 60 53c0 39 -30 67 -78 77v10l54 99h288zM612 233v-121l-313 -193l-112 95zM-5 78
c0 45 33 78 74 78c44 0 77 -33 77 -78c0 -40 -33 -73 -77 -73c-41 0 -74 33 -74 73z" />
    <glyph glyph-name="uni091D093C094D0930094D" horiz-adv-x="550" 
d="M699 246l-2 3c-54 -34 -119 -39 -147 -39c-15 0 -29 1 -42 3c1 -7 1 -13 1 -20c0 -82 -60 -142 -147 -159v-4l169 -100l-145 -77l-178 156c-124 0 -169 64 -169 118c0 40 21 69 54 84l157 -96h14c58 0 117 22 117 76c0 17 -9 31 -16 35l-133 -34
c-112 37 -169 125 -169 206c0 67 46 108 135 108h120v56h-348v109h610v-109h-124v-166h-190c-58 0 -61 -16 -61 -37c0 -15 13 -40 40 -48l157 37c29 -14 71 -33 118 -33c91 0 153 32 205 74v-247l-149 -178l-109 65zM72 -120c0 45 33 78 74 78c44 0 77 -33 77 -78
c0 -40 -33 -73 -77 -73c-41 0 -74 33 -74 73z" />
    <glyph glyph-name="uni091E093C094D0930094D" horiz-adv-x="507" 
d="M537 671v-109h-567v109h567zM624 140l-307 -219l-112 95l372 223v4c-6 0 -11 -1 -17 -1c-38 0 -83 3 -105 10c-35 -74 -120 -114 -208 -114c-117 0 -201 65 -242 125l92 102c36 -61 93 -102 151 -102s88 29 88 71c0 46 -35 65 -72 65c-26 0 -54 -9 -72 -26l-54 118
c40 23 86 35 130 35c88 0 170 -46 196 -136l4 -20c27 -7 101 -11 156 -5v-225zM-5 33c0 45 33 78 74 78c44 0 77 -33 77 -78c0 -40 -33 -73 -77 -73c-41 0 -74 33 -74 73z" />
    <glyph glyph-name="uni091F093C094D0930094D" horiz-adv-x="539" 
d="M5 84c44 0 77 -33 77 -78c0 -40 -33 -73 -77 -73c-41 0 -74 33 -74 73c0 45 33 78 74 78zM224 -231l107 43l184 -197v-4h-183zM438 394l-145 -37c-106 -27 -121 -64 -121 -114c0 -45 33 -97 119 -97c64 0 118 20 176 81l68 -113c-43 -41 -88 -65 -134 -77l145 -151
l-153 -32l-80 117l-87 -117l-154 38l149 145c-113 33 -184 127 -184 233c0 105 55 165 181 200l76 21v71h-324v109h599v-109h-131v-168z" />
    <glyph glyph-name="uni0920093C094D0930094D" horiz-adv-x="611" 
d="M14 75c44 0 77 -33 77 -78c0 -40 -33 -73 -77 -73c-41 0 -74 33 -74 73c0 45 33 78 74 78zM234 -231l107 43l184 -197v-4h-183zM371 377l-78 -20c-106 -27 -121 -64 -121 -114c0 -45 33 -97 119 -97c100 0 154 55 154 120c0 47 -30 87 -74 111zM641 562h-203v-89
c92 -50 137 -120 137 -214c0 -93 -58 -184 -166 -219l157 -162l-153 -32l-80 117l-87 -117l-154 38l151 147c-125 26 -206 126 -206 239c0 105 55 165 181 200l76 21v71h-324v109h671v-109z" />
    <glyph glyph-name="uni0921093C094D0930094D" horiz-adv-x="572" 
d="M2 50c44 0 77 -33 77 -78c0 -40 -33 -73 -77 -73c-41 0 -74 33 -74 73c0 45 33 78 74 78zM224 -261l107 43l184 -197v-4h-183zM476 396h-186c-59 0 -69 -6 -69 -29c0 -14 9 -42 41 -55l157 36c66 -18 110 -78 110 -160c0 -83 -50 -153 -135 -182l150 -155l-153 -32
l-80 117l-87 -117l-154 38l150 146c-107 31 -168 116 -197 178l90 67c38 -85 112 -141 193 -141c62 0 98 29 98 79c0 17 -9 34 -19 42l-136 -36c-113 46 -166 132 -166 206c0 67 46 108 135 108h120v56h-368v109h632v-109h-126v-166z" />
    <glyph glyph-name="uni0922093C094D0930094D" horiz-adv-x="568" 
d="M98 -6c0 -40 -33 -73 -77 -73c-41 0 -74 33 -74 73c0 45 33 78 74 78c44 0 77 -33 77 -78zM224 -261l107 43l184 -197v-4h-183zM468 410l-172 -42c-94 -23 -118 -55 -118 -111c0 -60 60 -127 153 -127c46 0 71 23 71 57c0 21 -15 36 -38 36c-24 0 -45 -16 -50 -45l-79 74
c15 35 59 85 147 85c78 0 144 -65 144 -145c0 -83 -49 -148 -131 -171l152 -158l-153 -32l-80 117l-87 -117l-154 38l160 157c-108 33 -196 123 -196 249c0 105 68 173 185 204l102 27v56h-354v109h628v-109h-130v-152z" />
    <glyph glyph-name="uni0923093C094D0930094D" horiz-adv-x="504" 
d="M320 376v186h-117v-187c0 -49 24 -66 59 -66c37 0 58 18 58 67zM63 385v177h-93v109h564v-109h-75v-174c0 -131 -77 -198 -200 -198c-125 0 -196 65 -196 195zM92 145c44 0 77 -33 77 -78c0 -40 -33 -73 -77 -73c-41 0 -74 33 -74 73c0 45 33 78 74 78zM226 65l407 230
v-121l-295 -204z" />
    <glyph glyph-name="uni0924093C094D0930094D" horiz-adv-x="322" 
d="M352 671v-109h-382v109h382zM440 261l-306 -232l-98 104l260 173c-26 41 -60 63 -109 63c-38 0 -76 -14 -118 -53l-89 119c57 43 121 67 194 67c121 0 219 -78 266 -241zM180 -85c0 45 33 78 74 78c44 0 77 -33 77 -78c0 -40 -33 -73 -77 -73c-41 0 -74 33 -74 73z" />
    <glyph glyph-name="uni0925093C094D0930094D" horiz-adv-x="379" 
d="M508 303l79 -91c-29 -37 -70 -68 -124 -98l-282 -154l-117 101l125 60v4c-48 13 -147 73 -153 239l134 35c102 27 135 67 135 114c0 34 -14 53 -43 53c-25 0 -43 -17 -43 -45c0 -17 3 -33 17 -52l-119 -34c-22 23 -33 56 -33 92c0 85 70 154 178 154
c114 0 179 -71 179 -170c0 -107 -69 -168 -170 -197c-22 -6 -46 -11 -71 -15c6 -39 37 -100 131 -100c102 0 157 65 177 104zM317 -78c0 45 33 78 74 78c44 0 77 -33 77 -78c0 -40 -33 -73 -77 -73c-41 0 -74 33 -74 73z" />
    <glyph glyph-name="uni0926093C094D0930094D" horiz-adv-x="570" 
d="M621 -305v-4h-183l-108 158l107 43zM189 70v4c-67 19 -148 89 -148 206c0 105 57 164 183 199l84 23v60h-338v109h630v-109h-148v-158l-144 -37c-105 -27 -132 -56 -132 -114s53 -90 105 -90c24 0 46 7 63 22v96l89 33c40 -20 79 -49 79 -110c0 -40 -16 -66 -42 -92
l128 -151l-158 -39l-65 129l-233 -165l-112 95zM145 -222c0 45 33 78 74 78c44 0 77 -33 77 -78c0 -40 -33 -73 -77 -73c-41 0 -74 33 -74 73z" />
    <glyph glyph-name="uni0927093C094D0930094D" horiz-adv-x="416" 
d="M446 671v-109h-83v109h83zM299 207c76 0 131 38 162 78l72 -83c-16 -18 -32 -37 -98 -79l-256 -163l-112 95l121 68v4c-53 5 -122 48 -122 134c0 81 58 115 99 124v4c-60 5 -105 40 -105 100c0 32 15 56 34 69v4h-124v109h297l19 -102c-58 -9 -81 -39 -81 -70
c0 -34 27 -58 78 -58h75v-108h-63c-59 0 -86 -24 -86 -62c0 -30 20 -64 90 -64zM277 -96c0 45 33 78 74 78c44 0 77 -33 77 -78c0 -40 -33 -73 -77 -73c-41 0 -74 33 -74 73z" />
    <glyph glyph-name="uni0928093C094D0930094D" horiz-adv-x="322" 
d="M352 671v-109h-382v109h382zM55 106l251 177c-17 54 -57 88 -114 88c-4 0 -9 -1 -13 -1v-67l-68 -30c-44 24 -91 78 -94 149l80 62c19 5 50 8 71 8c134 0 238 -74 278 -247l-281 -234zM230 -96c0 45 33 78 74 78c44 0 77 -33 77 -78c0 -40 -33 -73 -77 -73
c-41 0 -74 33 -74 73z" />
    <glyph glyph-name="uni092A093C094D0930094D" horiz-adv-x="333" 
d="M482 293c-5 -7 -11 -15 -31 -34l-309 -283l-128 85l200 151v4c-74 6 -137 45 -137 150v196h-107v109h393v-109h-145v-174c0 -52 22 -76 69 -76c48 0 87 31 115 74zM219 -96c0 45 33 78 74 78c44 0 77 -33 77 -78c0 -40 -33 -73 -77 -73c-41 0 -74 33 -74 73z" />
    <glyph glyph-name="uni092B093C094D0930094D" horiz-adv-x="596" 
d="M198 -105c0 45 33 78 74 78c44 0 77 -33 77 -78c0 -40 -33 -73 -77 -73c-41 0 -74 33 -74 73zM278 290c37 0 71 19 83 38v234h-143v-195c0 -52 15 -77 60 -77zM498 282v-282h-137v198h-4l-206 -221l-126 89l155 125v4c-67 17 -103 69 -103 147v220h-107v109h656v-109
h-128v-113h4c23 22 67 39 113 39c43 0 84 -13 116 -36l-67 -106c-14 13 -38 27 -76 27c-54 0 -90 -39 -90 -91z" />
    <glyph glyph-name="uni092C093C094D0930094D" horiz-adv-x="362" 
d="M143 -30l-112 95l121 69v4c-35 14 -111 57 -111 172c0 128 105 204 209 204c32 0 50 -2 77 -9l7 -118c-24 8 -43 10 -64 10c-18 0 -34 -3 -46 -10l161 -121c9 9 16 20 21 28l74 -66c-25 -37 -58 -66 -90 -88zM274 207c23 0 43 7 60 18l-153 116c-5 -12 -7 -24 -7 -38
c0 -60 45 -96 100 -96zM392 671v-109h-412v109h412zM221 -104c0 45 33 78 74 78c44 0 77 -33 77 -78c0 -40 -33 -73 -77 -73c-41 0 -74 33 -74 73z" />
    <glyph glyph-name="uni092D093C094D0930094D" horiz-adv-x="369" 
d="M399 671v-109h-64v109h64zM465 299v-127l-294 -201l-112 95zM465 424v-121h-211v-85h-132c-46 30 -72 101 -72 149l68 54v88c0 39 -19 53 -54 53h-94v109h120c69 0 164 -26 164 -154v-93h211zM253 -106c0 45 33 78 74 78c44 0 77 -33 77 -78c0 -40 -33 -73 -77 -73
c-41 0 -74 33 -74 73z" />
    <glyph glyph-name="uni092E093C094D0930094D" horiz-adv-x="369" 
d="M399 671v-109h-145v-138h211v-121h-211v-85h-132c-46 30 -72 101 -72 149l68 54v141h-148v109h429zM465 299v-127l-294 -201l-112 95zM253 -106c0 45 33 78 74 78c44 0 77 -33 77 -78c0 -40 -33 -73 -77 -73c-41 0 -74 33 -74 73z" />
    <glyph glyph-name="uni092F093C094D0930094D" horiz-adv-x="376" 
d="M439 309l72 -93l-68 -46l-292 -199l-112 95l145 83v4c-71 21 -141 89 -144 225c75 16 133 37 133 101c0 20 -10 59 -29 83h-174v109h436v-109h-134v-4c34 -30 41 -70 41 -99c0 -75 -56 -114 -124 -127c9 -58 48 -102 114 -102c78 0 118 48 136 79zM248 -77
c0 45 33 78 74 78c44 0 77 -33 77 -78c0 -40 -33 -73 -77 -73c-41 0 -74 33 -74 73z" />
    <glyph glyph-name="uni0932093C094D0930094D" horiz-adv-x="472" 
d="M26 -85c0 44 32 75 71 75c43 0 74 -31 74 -75c0 -38 -31 -70 -74 -70c-39 0 -71 32 -71 70zM502 671v-109h-532v109h532zM215 476c61 0 107 -26 127 -74h4c12 40 47 80 119 80c65 0 107 -26 134 -51l-61 -104c-15 17 -35 33 -66 33c-37 0 -59 -24 -59 -73v-101h-128v102
c0 47 -22 69 -55 69c-27 0 -60 -17 -60 -86c0 -54 25 -120 104 -174l-105 -83c-88 65 -140 161 -140 263c0 139 95 199 186 199zM566 245l62 -79l-255 -205l-102 81z" />
    <glyph glyph-name="uni0933093C094D0930094D" horiz-adv-x="731" 
d="M99 5c44 0 77 -33 77 -78c0 -40 -33 -73 -77 -73c-41 0 -74 33 -74 73c0 45 33 78 74 78zM220 158c62 0 81 98 95 147c-17 38 -46 61 -80 61c-47 0 -77 -45 -77 -107c0 -65 18 -101 62 -101zM511 359c-63 0 -81 -98 -95 -147c17 -38 46 -61 80 -61c47 0 77 45 77 107
c0 65 -18 101 -62 101zM280 -93l154 150c-33 15 -54 37 -65 57c-35 -46 -84 -71 -155 -71c-115 0 -187 86 -187 216c0 129 83 215 194 215c80 0 122 -38 141 -70c33 46 81 70 155 70c115 0 187 -86 187 -216c0 -92 -42 -162 -107 -195l157 -162l-153 -32l-80 117l-87 -117z
M-30 671h791v-109h-791v109z" />
    <glyph glyph-name="uni0935093C094D0930094D" horiz-adv-x="325" 
d="M355 671v-109h-385v109h385zM390 312l92 -69c-20 -35 -50 -68 -89 -95l-247 -169l-118 95l118 64v4c-35 15 -102 65 -102 164c0 134 120 211 255 189l11 -121c-51 19 -120 -5 -120 -69c0 -51 35 -81 85 -81c72 0 102 60 115 88zM212 -96c0 45 33 78 74 78
c44 0 77 -33 77 -78c0 -40 -33 -73 -77 -73c-41 0 -74 33 -74 73z" />
    <glyph glyph-name="uni0936093C094D0930094D" horiz-adv-x="487" 
d="M571 241l-279 -205l-111 101l212 123v4c-50 16 -86 31 -121 48c-50 -26 -111 -48 -184 -71l-91 109c62 14 118 30 160 45c-51 40 -64 93 -64 133c0 77 66 152 177 152c102 0 178 -67 178 -157c0 -56 -25 -108 -73 -141c37 -16 133 -48 196 -65v-76zM218 522
c0 -19 6 -50 46 -79c45 23 58 54 58 80c0 35 -22 51 -49 51c-36 0 -55 -23 -55 -52zM44 -1c0 45 33 78 74 78c44 0 77 -33 77 -78c0 -40 -33 -73 -77 -73c-41 0 -74 33 -74 73z" />
    <glyph glyph-name="uni0937093C094D0930094D" horiz-adv-x="325" 
d="M284 295c31 0 58 10 79 29l-105 113c-38 41 -59 67 -59 67s8 -34 8 -93v-45c0 -52 32 -71 77 -71zM486 305v-14l-326 -303l-128 85l176 129v4c-74 6 -137 45 -137 150v206h-101v109h385v-109h-113zM228 -73c0 43 31 74 70 74c42 0 74 -31 74 -74c0 -38 -32 -70 -74 -70
c-39 0 -70 32 -70 70z" />
    <glyph glyph-name="uni0938093C094D0930094D" horiz-adv-x="575" 
d="M677 212l-198 -130l-101 95l164 91c-13 55 -45 84 -94 84c-89 0 -128 -93 -219 -93l2 -2c20 -20 32 -32 67 -75l107 -132l-118 -69l-276 351l102 89c28 -38 49 -59 78 -59c23 0 41 13 41 49v151h-262v109h635v-109h-233v-103c25 12 61 20 96 20c120 0 214 -100 209 -267z
M6 2c0 44 32 75 71 75c43 0 74 -31 74 -75c0 -38 -31 -70 -74 -70c-39 0 -71 32 -71 70z" />
    <glyph glyph-name="uni0939093C094D0930094D" horiz-adv-x="588" 
d="M377 219h-67c-79 0 -109 -46 -109 -94c0 -51 30 -114 191 -132l-81 -100c-144 29 -246 107 -246 237c0 50 23 97 65 133c-57 28 -77 75 -77 121c0 69 57 118 150 118h164v60h-397v109h648v-109h-115v-172h-263c-41 0 -52 -11 -52 -31c0 -18 21 -35 47 -43c26 7 54 8 85 8
h135l85 -86v-184h-119l3 85h-4l-74 -81l-109 46l140 111v4zM555 -303v-4h-183l-108 158l107 43zM2 -129c0 44 32 75 71 75c43 0 74 -31 74 -75c0 -38 -31 -70 -74 -70c-39 0 -71 32 -71 70z" />
    <glyph glyph-name="uni0915094D0915" horiz-adv-x="1381" 
d="M913 308v254h-443v-114h4c21 21 65 39 108 39c50 0 86 -13 112 -30c42 28 95 39 149 34l22 -121c-66 14 -115 -18 -115 -78c0 -44 34 -75 79 -75c52 0 84 40 84 91zM1411 562h-358v-115h4c22 21 60 40 109 40c104 0 187 -75 187 -191c0 -140 -112 -209 -230 -198l-22 121
c66 -14 113 19 113 79c0 44 -31 74 -75 74c-52 0 -86 -40 -86 -91v-281h-140v140h-4c-18 -17 -54 -38 -109 -38c-104 0 -189 76 -189 192c0 23 3 44 9 63c-16 9 -35 15 -60 15c-54 0 -90 -39 -90 -91v-281h-140v140h-4c-18 -17 -54 -38 -109 -38c-104 0 -189 76 -189 192
c0 140 114 208 232 197l22 -121c-66 14 -115 -18 -115 -78c0 -44 34 -75 79 -75c52 0 84 40 84 91v254h-360v109h1441v-109z" />
    <glyph glyph-name="uni0915094D0916" horiz-adv-x="1407" 
d="M917 562v-141c0 -107 -56 -154 -135 -154c-8 0 -20 1 -29 3c25 -84 107 -156 226 -156c129 0 227 88 227 199c0 52 -30 80 -69 80c-37 0 -63 -26 -63 -61c0 -48 44 -72 86 -76l-73 -73c-67 9 -137 59 -137 152c0 95 73 166 167 166c42 0 67 -10 83 -20h4v81h-287z
M688 451l15 -43c10 -25 24 -38 45 -38c18 0 36 12 36 42v150h-314v-114h4c21 21 65 39 108 39s75 -10 106 -36zM1437 671v-109h-105v-562h-128v88h-4c-29 -28 -102 -84 -234 -84c-228 0 -351 176 -377 365c-8 2 -18 3 -29 3c-54 0 -90 -39 -90 -91v-281h-140v140h-4
c-18 -17 -54 -38 -109 -38c-104 0 -189 76 -189 192c0 140 114 208 232 197l22 -121c-66 14 -115 -18 -115 -78c0 -44 34 -75 79 -75c52 0 84 40 84 91v254h-360v109h1467z" />
    <glyph glyph-name="uni0915094D091A" horiz-adv-x="1246" 
d="M1030 372v190h-560v-114h4c21 21 62 39 105 39c16 0 32 -2 47 -5h339v-119h-60c-70 0 -107 -32 -107 -86c0 -44 30 -77 92 -77c84 0 140 62 140 172zM1276 671v-109h-105v-562h-141v149h-4c-21 -25 -70 -68 -170 -68c-136 0 -201 83 -201 169c0 60 24 89 47 108v4h-93
c-13 6 -30 10 -52 10c-54 0 -87 -39 -87 -91v-281h-140v140h-4c-18 -17 -54 -38 -109 -38c-104 0 -189 76 -189 192c0 140 114 208 232 197l22 -121c-66 14 -115 -18 -115 -78c0 -44 34 -75 79 -75c52 0 84 40 84 91v254h-360v109h1306z" />
    <glyph glyph-name="uni0915094D091C" horiz-adv-x="1330" 
d="M1113 463v99h-643v-114h4c21 21 65 39 108 39s87 -13 119 -36c10 -124 56 -253 144 -253c33 0 58 20 58 60c0 38 -27 76 -78 96v10l54 99h234zM1360 671v-109h-105v-562h-142v353h-123v-4c30 -22 47 -61 47 -106c0 -98 -72 -165 -181 -165c-173 0 -246 170 -267 291
c-9 2 -18 3 -29 3c-54 0 -90 -39 -90 -91v-281h-140v140h-4c-18 -17 -54 -38 -109 -38c-104 0 -189 76 -189 192c0 140 114 208 232 197l22 -121c-66 14 -115 -18 -115 -78c0 -44 34 -75 79 -75c52 0 84 40 84 91v254h-360v109h1390z" />
    <glyph glyph-name="uni0915094D091F" horiz-adv-x="1107" 
d="M470 448h4c21 21 65 39 108 39c58 0 99 -22 126 -46c22 11 48 21 78 29l76 21v71h-392v-114zM1006 394l-145 -37c-106 -27 -121 -64 -121 -114c0 -45 33 -97 119 -97c64 0 118 20 176 81l68 -113c-71 -68 -150 -89 -227 -89c-162 0 -271 114 -271 245c0 32 5 60 16 84
c-14 10 -33 18 -61 18c-54 0 -90 -39 -90 -91v-281h-140v140h-4c-18 -17 -54 -38 -109 -38c-104 0 -189 76 -189 192c0 140 114 208 232 197l22 -121c-66 14 -115 -18 -115 -78c0 -44 34 -75 79 -75c52 0 84 40 84 91v254h-360v109h1167v-109h-131v-168z" />
    <glyph glyph-name="uni0915094D0923" horiz-adv-x="1362" 
d="M890 332v230h-117v-231c0 -49 24 -66 59 -66c37 0 58 18 58 67zM470 448h4c21 21 65 39 108 39c19 0 36 -2 51 -5v80h-163v-114zM1391 671v-109h-104v-562h-141v562h-117v-218c0 -131 -77 -198 -200 -198c-125 0 -196 65 -196 195v7c-18 14 -41 24 -73 24
c-54 0 -90 -39 -90 -91v-281h-140v140h-4c-18 -17 -54 -38 -109 -38c-104 0 -189 76 -189 192c0 140 114 208 232 197l22 -121c-66 14 -115 -18 -115 -78c0 -44 34 -75 79 -75c52 0 84 40 84 91v254h-360v109h1421z" />
    <glyph glyph-name="uni0915094D0924" horiz-adv-x="899" 
d="M158 350h-100v120h340v92h-428v109h959v-109h-394v-136l3 -1c19 16 54 40 117 40c112 0 203 -76 203 -211c0 -149 -119 -227 -237 -216l-24 121c66 -14 122 29 122 96c0 60 -39 94 -91 94c-54 0 -93 -42 -93 -99v-250h-137v352h-58c-62 0 -103 -38 -103 -105
c0 -57 29 -104 104 -147l-90 -93c-85 46 -151 118 -151 219c0 79 44 111 58 120v4z" />
    <glyph glyph-name="uni0915094D0925" horiz-adv-x="1289" 
d="M1074 671h245v-109h-105v-562h-137v152h-4c-22 -26 -78 -74 -185 -74c-135 0 -234 76 -266 205c-12 28 -34 50 -77 50c-40 0 -76 -27 -76 -87v-246h-140v140h-4c-18 -17 -54 -38 -109 -38c-104 0 -189 76 -189 192c0 140 114 208 232 197l22 -121
c-66 14 -115 -18 -115 -78c0 -44 34 -75 79 -75c52 0 84 40 84 91v254h-360v109h622v-109h-122v-145h4c21 21 53 36 92 36c57 0 100 -23 127 -68l53 14c102 27 135 67 135 114c0 34 -14 53 -43 53c-25 0 -43 -17 -43 -45c0 -17 3 -33 17 -52l-119 -34c-22 23 -33 56 -33 92
c0 85 70 154 178 154c114 0 179 -71 179 -170c0 -112 -75 -173 -183 -200c-18 -5 -38 -9 -58 -12c6 -34 37 -100 131 -100c118 0 168 85 168 173v299z" />
    <glyph glyph-name="uni0915094D0926" horiz-adv-x="1118" 
d="M470 448h4c21 21 65 39 108 39c53 0 90 -15 118 -33c21 10 46 19 74 26l86 21v61h-390v-114zM1022 112l128 -151l-158 -39l-65 130c-24 -6 -48 -9 -72 -9c-134 0 -262 88 -262 237c0 31 5 59 15 83c-13 6 -29 9 -48 9c-54 0 -90 -39 -90 -91v-281h-140v140h-4
c-18 -17 -54 -38 -109 -38c-104 0 -189 76 -189 192c0 140 114 208 232 197l22 -121c-66 14 -115 -18 -115 -78c0 -44 34 -75 79 -75c52 0 84 40 84 91v254h-360v109h1178v-109h-144v-158l-135 -34c-106 -27 -141 -59 -141 -117c0 -60 57 -93 110 -90c22 1 42 8 58 22v96
l89 33c40 -20 79 -49 79 -110c0 -40 -16 -66 -42 -92z" />
    <glyph glyph-name="uni0915094D0928" horiz-adv-x="1122" 
d="M756 198l-66 -32c-59 26 -111 90 -112 205c-6 0 -12 1 -18 1c-54 0 -90 -39 -90 -91v-281h-140v140h-4c-18 -17 -54 -38 -109 -38c-104 0 -189 76 -189 192c0 140 114 208 232 197l22 -121c-66 14 -115 -18 -115 -78c0 -44 34 -75 79 -75c52 0 84 40 84 91v254h-360v109
h1182v-109h-105v-562h-141v308h-150v-110zM582 487c40 0 99 -9 145 -58h179v133h-436v-114h4c21 21 65 39 108 39z" />
    <glyph glyph-name="uni0915094D092A" horiz-adv-x="1160" 
d="M944 407v155h-165v-197c0 -52 22 -76 67 -76c60 0 98 48 98 118zM470 448h4c21 21 65 39 108 39c21 0 40 -2 56 -6v81h-168v-114zM1190 671v-109h-105v-562h-141v217h-4c-35 -38 -89 -47 -126 -47c-113 0 -172 73 -176 174c-18 16 -42 28 -78 28c-54 0 -90 -39 -90 -91
v-281h-140v140h-4c-18 -17 -54 -38 -109 -38c-104 0 -189 76 -189 192c0 140 114 208 232 197l22 -121c-66 14 -115 -18 -115 -78c0 -44 34 -75 79 -75c52 0 84 40 84 91v254h-360v109h1220z" />
    <glyph glyph-name="uni0915094D092B" horiz-adv-x="1398" 
d="M922 370v192h-143v-193c0 -52 15 -77 60 -77c62 0 83 39 83 78zM470 448h4c21 21 65 39 108 39c21 0 40 -2 56 -6v81h-168v-114zM1428 562h-369v-116h4c19 19 56 45 121 45c104 0 186 -74 186 -189c0 -140 -108 -213 -230 -202l-22 121c67 -15 113 22 113 79
c0 44 -31 74 -75 74c-65 0 -97 -52 -97 -106v-268h-137v205h-4c-17 -16 -52 -34 -106 -34c-121 0 -172 72 -174 173c-18 16 -42 28 -78 28c-54 0 -90 -39 -90 -91v-281h-140v140h-4c-18 -17 -54 -38 -109 -38c-104 0 -189 76 -189 192c0 140 114 208 232 197l22 -121
c-66 14 -115 -18 -115 -78c0 -44 34 -75 79 -75c52 0 84 40 84 91v254h-360v109h1458v-109z" />
    <glyph glyph-name="uni0915094D092C" horiz-adv-x="1175" 
d="M906 226l-153 115c-4 -11 -7 -23 -7 -37c0 -58 45 -97 98 -97c23 0 44 7 62 19zM470 448h4c21 21 65 39 108 39c45 0 77 -10 103 -24c39 33 88 51 137 51c32 0 50 -2 77 -9l7 -118c-24 8 -46 10 -67 10c-15 0 -30 -3 -43 -10l150 -113c9 17 13 35 13 54v234h-489v-114z
M1205 671v-109h-105v-562h-142v141h-4c-25 -25 -74 -46 -131 -46c-123 0 -209 87 -209 206c0 20 2 38 6 56c-15 9 -35 15 -60 15c-54 0 -90 -39 -90 -91v-281h-140v140h-4c-18 -17 -54 -38 -109 -38c-104 0 -189 76 -189 192c0 140 114 208 232 197l22 -121
c-66 14 -115 -18 -115 -78c0 -44 34 -75 79 -75c52 0 84 40 84 91v254h-360v109h1235z" />
    <glyph glyph-name="uni0915094D092E" horiz-adv-x="1176" 
d="M962 398v164h-141v-164h141zM470 417h4c21 21 61 39 104 39c45 0 80 -17 105 -40v146h-213v-145zM1206 671v-109h-105v-562h-139v275h-146v-107h-129c-55 40 -77 111 -81 159c-12 8 -26 14 -46 14c-54 0 -90 -39 -90 -91v-250h-140v140h-4c-18 -17 -54 -38 -109 -38
c-104 0 -189 76 -189 192c0 140 114 208 232 197l22 -121c-66 14 -115 -18 -115 -78c0 -44 34 -75 79 -75c52 0 84 40 84 91v254h-360v109h1236z" />
    <glyph glyph-name="uni0915094D092F" horiz-adv-x="1194" 
d="M978 345v217h-150v-4c33 -28 43 -67 43 -98c0 -72 -57 -122 -122 -134c8 -57 46 -96 111 -96c78 0 118 47 118 115zM470 441h4c21 21 59 36 98 36c45 0 92 -20 121 -68c24 16 38 39 38 70c0 20 -10 59 -29 83h-232v-121zM1224 671v-109h-105v-562h-141v159h-4
c-26 -27 -74 -47 -135 -47c-117 0 -209 74 -234 203c-11 26 -28 42 -59 42c-40 0 -76 -27 -76 -87v-270h-140v140h-4c-18 -17 -54 -38 -109 -38c-104 0 -189 76 -189 192c0 133 109 211 232 197l22 -121c-56 14 -115 -12 -115 -78c0 -44 34 -75 79 -75c52 0 84 40 84 91v254
h-360v109h1254z" />
    <glyph glyph-name="uni0915094D0932" horiz-adv-x="1305" 
d="M1088 458v104h-618v-114h4c21 21 65 39 108 39c51 0 87 -14 114 -31c27 14 57 20 87 20c61 0 107 -26 127 -74h4c12 54 58 79 97 79c24 0 55 -5 73 -23h4zM1335 671v-109h-105v-562h-142v346c-9 6 -31 14 -48 14c-41 0 -59 -26 -59 -80v-94h-128v101c0 47 -22 72 -55 72
c-27 0 -60 -19 -60 -88c0 -62 33 -139 143 -197l-89 -94c-122 63 -195 175 -195 297c0 32 5 60 14 84c-14 7 -30 11 -51 11c-54 0 -90 -39 -90 -91v-281h-140v140h-4c-18 -17 -54 -38 -109 -38c-104 0 -189 76 -189 192c0 140 114 208 232 197l22 -121
c-66 14 -115 -18 -115 -78c0 -44 34 -75 79 -75c52 0 84 40 84 91v254h-360v109h1365z" />
    <glyph glyph-name="uni0915094D0935" horiz-adv-x="1146" 
d="M929 327v235h-459v-114h4c21 21 65 39 108 39c47 0 82 -12 108 -27c45 27 103 37 164 27l10 -122c-53 18 -120 -5 -120 -76c0 -50 34 -79 83 -79c68 0 102 54 102 117zM1175 671v-109h-105v-562h-141v133h-4c-20 -19 -60 -42 -123 -42c-114 0 -203 79 -203 198
c0 27 4 51 11 73c-13 6 -30 10 -50 10c-54 0 -90 -39 -90 -91v-281h-140v140h-4c-18 -17 -54 -38 -109 -38c-104 0 -189 76 -189 192c0 140 114 208 232 197l22 -121c-66 14 -115 -18 -115 -78c0 -44 34 -75 79 -75c52 0 84 40 84 91v254h-360v109h1205z" />
    <glyph glyph-name="uni0915094D0936" horiz-adv-x="1375" 
d="M872 463l-83 -81c-67 18 -105 68 -105 136c0 87 74 162 182 162c149 0 215 -100 215 -202c0 -147 -108 -223 -216 -239c-11 -2 -22 -3 -33 -3v-4c33 -17 82 -50 131 -94l93 -84l-117 -81l-245 227l-85 62c1 4 1 9 1 13c0 38 -23 67 -63 67c-51 0 -77 -40 -77 -91v-251
h-140v140h-4c-18 -17 -54 -38 -109 -38c-104 0 -189 76 -189 192c0 130 98 198 207 198c8 0 17 0 25 -1l22 -121c-10 2 -20 3 -30 3c-50 0 -85 -31 -85 -81c0 -44 34 -75 79 -75c52 0 84 40 84 91v254h-360v109h617v-109h-117v-145h4c22 21 57 37 101 37
c63 0 112 -38 131 -97c29 -11 60 -14 85 -14c86 0 148 50 148 133c0 61 -30 93 -67 93c-36 0 -49 -24 -49 -48c0 -26 18 -48 49 -58zM1158 671h247v-109h-105v-562h-142v671z" />
    <glyph glyph-name="uni0915094D0938" horiz-adv-x="1298" 
d="M943 562v-154c0 -14 -1 -26 -3 -37c15 -4 34 -6 57 -6c29 0 58 4 83 15v182h-137zM803 409v153h-333v-119h4c21 20 51 35 87 35c46 0 80 -11 125 -63c31 -40 47 -56 76 -56c23 0 41 14 41 50zM1328 671v-109h-105v-562h-143v249c-21 -5 -42 -7 -64 -7
c-57 0 -99 14 -133 39c-20 -12 -43 -20 -68 -23c-3 0 -6 -1 -9 -1v-4c21 -21 41 -42 81 -90l92 -110l-115 -72l-281 347c-17 19 -32 35 -55 35c-30 0 -58 -27 -58 -85v-278h-140v140h-4c-18 -17 -54 -38 -109 -38c-104 0 -189 76 -189 192c0 140 114 208 232 197l22 -121
c-66 14 -115 -18 -115 -78c0 -44 34 -75 79 -75c52 0 84 40 84 91v254h-360v109h1358z" />
    <glyph glyph-name="uni0916094D0916" horiz-adv-x="1436" 
d="M946 562v-141c0 -107 -60 -153 -139 -153c-8 0 -20 1 -29 3c25 -84 99 -157 230 -157c129 0 227 88 227 199c0 52 -30 80 -69 80c-37 0 -63 -26 -63 -61c0 -48 44 -72 86 -76l-73 -73c-67 9 -137 59 -137 152c0 95 73 166 167 166c42 0 67 -10 83 -20h4v81h-287zM642 315
v3c-2 10 -4 20 -5 30c-11 33 -39 48 -68 48c-37 0 -63 -25 -63 -60c0 -48 42 -70 83 -74l-73 -74c-66 8 -131 57 -131 150c0 95 72 168 179 168c77 0 141 -39 171 -105c13 -21 24 -31 43 -31c18 0 35 12 35 42v150h-464v-141c0 -107 -56 -154 -135 -154c-8 0 -20 1 -29 3
c27 -87 110 -153 230 -153c130 0 227 85 227 198zM1466 671v-109h-105v-562h-128v88h-4c-29 -28 -102 -84 -234 -84c-131 0 -228 63 -288 153c-57 -85 -162 -150 -305 -150c-229 0 -360 177 -391 373l119 42c11 -35 30 -51 54 -51c18 0 32 11 32 41v150h-246v109h1496z" />
    <glyph glyph-name="uni0916094D0924" horiz-adv-x="1182" 
d="M966 473v89h-617v-141c0 -107 -56 -154 -135 -154c-8 0 -20 1 -29 3c27 -87 110 -153 230 -153c130 0 223 87 223 200c0 53 -31 79 -69 79c-37 0 -63 -25 -63 -60c0 -48 42 -70 83 -74l-73 -74c-66 8 -131 57 -131 150c0 95 72 168 179 168c62 0 116 -25 150 -70
c38 26 83 37 127 37h125zM1213 671v-109h-106v-562h-141v352h-105c-47 0 -87 -25 -87 -86c0 -76 47 -142 118 -192l-99 -87c-42 29 -87 73 -117 130c-61 -65 -155 -110 -274 -110c-229 0 -360 177 -391 373l119 42c11 -35 30 -51 54 -51c18 0 32 11 32 41v150h-246v109h1243
z" />
    <glyph glyph-name="uni0916094D0928" horiz-adv-x="1336" 
d="M1366 671v-109h-105v-562h-141v308h-150v-110l-66 -32c-60 27 -112 86 -112 194l97 69h231v133h-771v-141c0 -107 -56 -154 -135 -154c-8 0 -20 1 -29 3c27 -87 110 -153 230 -153c130 0 222 87 222 200c0 53 -30 79 -68 79c-37 0 -63 -25 -63 -60c0 -48 42 -70 83 -74
l-73 -74c-66 8 -131 57 -131 150c0 95 72 168 179 168c108 0 191 -77 191 -196c0 -148 -132 -303 -353 -303c-229 0 -360 177 -391 373l119 42c11 -35 30 -51 54 -51c18 0 32 11 32 41v150h-246v109h1396z" />
    <glyph glyph-name="uni0916094D092E" horiz-adv-x="1233" 
d="M1019 398v164h-141v-164h141zM349 562v-141c0 -107 -56 -154 -135 -154c-8 0 -20 1 -29 3c27 -87 110 -153 230 -153c130 0 222 87 222 200c0 53 -30 79 -68 79c-37 0 -63 -25 -63 -60c0 -48 42 -70 83 -74l-73 -74c-66 8 -131 57 -131 150c0 95 72 168 179 168
c79 0 145 -42 175 -111l1 1v166h-391zM1263 671v-109h-105v-562h-139v275h-146v-107h-129c-7 5 -14 11 -20 17c-52 -99 -164 -178 -322 -178c-229 0 -360 177 -391 373l119 42c11 -35 30 -51 54 -51c18 0 32 11 32 41v150h-246v109h1293z" />
    <glyph glyph-name="uni0916094D092F" horiz-adv-x="1221" 
d="M1005 345v217h-150v-4c33 -28 43 -67 43 -98c0 -72 -60 -121 -125 -133c8 -57 49 -97 114 -97c78 0 118 47 118 115zM589 262l-73 -74c-66 8 -131 57 -131 150c0 95 72 168 179 168c73 0 134 -35 166 -94c18 17 28 38 28 67c0 20 -10 59 -29 83h-380v-141
c0 -107 -56 -154 -135 -154c-8 0 -20 1 -29 3c27 -87 110 -153 230 -153c130 0 222 87 222 200c0 53 -30 79 -68 79c-37 0 -63 -25 -63 -60c0 -48 42 -70 83 -74zM1251 671v-109h-105v-562h-141v159h-4c-26 -27 -74 -47 -135 -47s-112 20 -152 56
c-55 -91 -163 -161 -312 -161c-229 0 -360 177 -391 373l119 42c11 -35 30 -51 54 -51c18 0 32 11 32 41v150h-246v109h1281z" />
    <glyph glyph-name="uni0916094D0935" horiz-adv-x="1178" 
d="M962 327v235h-613v-141c0 -107 -56 -154 -135 -154c-8 0 -20 1 -29 3c27 -87 110 -153 230 -153c123 0 212 78 221 181l1 13v6c0 53 -30 79 -68 79c-37 0 -63 -25 -63 -60c0 -48 42 -70 83 -74l-73 -74c-66 8 -131 57 -131 150c0 95 72 168 179 168c57 0 107 -21 141 -59
c46 37 110 51 180 40l10 -122c-51 20 -122 -4 -122 -75c0 -50 37 -80 86 -80c68 0 103 54 103 117zM1208 671v-109h-105v-562h-141v133h-4c-20 -19 -60 -42 -123 -42c-55 0 -103 18 -139 51c-59 -78 -160 -135 -294 -135c-229 0 -360 177 -391 373l119 42
c11 -35 30 -51 54 -51c18 0 32 11 32 41v150h-246v109h1238z" />
    <glyph glyph-name="uni0916094D0936" horiz-adv-x="1435" 
d="M921 461l-83 -81c-67 18 -103 70 -103 138c0 87 79 162 187 162c149 0 215 -100 215 -202c0 -162 -127 -238 -245 -242v-4c33 -17 82 -50 131 -94l93 -84l-117 -81l-245 227l-18 13c-43 -112 -162 -206 -334 -206c-229 0 -360 177 -391 373l119 42c11 -35 30 -51 54 -51
c18 0 32 11 32 41v150h-246v109h668v-109h-289v-141c0 -107 -56 -154 -135 -154c-8 0 -20 1 -29 3c27 -87 110 -153 230 -153c130 0 222 87 222 200c0 53 -30 79 -68 79c-37 0 -63 -25 -63 -60c0 -48 42 -70 83 -74l-73 -74c-66 8 -131 57 -131 150c0 95 72 168 179 168
c90 0 163 -53 184 -140c34 -17 72 -23 103 -23c86 0 144 50 144 133c0 61 -30 93 -67 93c-36 0 -54 -24 -54 -48c0 -26 16 -50 47 -60zM1218 671h247v-109h-105v-562h-142v671z" />
    <glyph glyph-name="uni0917094D0917" horiz-adv-x="919" 
d="M949 671v-109h-105v-562h-139v562h-131v-394h-134c-60 43 -81 117 -81 165l77 57v172h-185v-394h-134c-60 43 -81 117 -81 165l77 57v172h-143v109h979z" />
    <glyph glyph-name="uni0917094D0918" horiz-adv-x="990" 
d="M773 345v217h-169c-51 0 -76 -25 -76 -62c0 -36 26 -60 80 -60h63v-108h-53c-58 0 -83 -26 -83 -62c0 -32 23 -65 93 -65c91 0 145 69 145 140zM1020 671v-109h-105v-562h-142v157h-4c-32 -31 -85 -61 -172 -61c-124 0 -206 66 -206 160c0 80 55 117 98 128v4
c-61 4 -108 41 -108 100c0 32 14 53 33 70v4h-163v-394h-134c-60 43 -81 117 -81 165l77 57v172h-143v109h1050z" />
    <glyph glyph-name="uni0917094D091C" horiz-adv-x="1092" 
d="M1122 671v-109h-105v-562h-142v353h-123v-4c30 -22 47 -61 47 -106c0 -98 -72 -165 -181 -165c-191 0 -266 207 -280 327l126 64c7 -129 51 -271 143 -271c33 0 58 20 58 60c0 38 -27 76 -78 96v10l54 99h234v99h-624v-394h-134c-60 43 -81 117 -81 165l77 57v172h-143
v109h1152z" />
    <glyph glyph-name="uni0917094D0923" horiz-adv-x="1117" 
d="M645 332v230h-117v-231c0 -49 24 -66 59 -66c37 0 58 18 58 67zM1146 671v-109h-104v-562h-141v562h-117v-218c0 -131 -77 -198 -200 -198c-125 0 -196 65 -196 195v221h-137v-394h-134c-60 43 -81 117 -81 165l77 57v172h-143v109h1176z" />
    <glyph glyph-name="uni0917094D0926" horiz-adv-x="882" 
d="M786 112l128 -151l-158 -39l-65 130c-24 -6 -48 -9 -72 -9c-134 0 -262 88 -262 237c0 105 54 169 181 200l86 21v61h-373v-394h-134c-60 43 -81 117 -81 165l77 57v172h-143v109h942v-109h-144v-158l-135 -34c-106 -27 -141 -59 -141 -117c0 -60 57 -93 110 -90
c22 1 42 8 58 22v96l89 33c40 -20 79 -49 79 -110c0 -40 -16 -66 -42 -92z" />
    <glyph glyph-name="uni0917094D0927" horiz-adv-x="975" 
d="M672 671h333v-109h-105v-562h-140v161h-4c-30 -28 -91 -60 -178 -60c-125 0 -204 67 -204 160c0 80 55 116 100 126v4c-60 5 -105 39 -105 99c0 32 15 55 34 68v4h-152v-394h-134c-60 43 -81 117 -81 165l77 57v172h-143v109h606l19 -102c-58 -9 -81 -38 -81 -69
c0 -34 27 -57 78 -57h75v-108h-63c-59 0 -86 -24 -86 -62c0 -30 20 -62 89 -62c90 0 153 70 153 145v206h-88v109z" />
    <glyph glyph-name="uni0917094D0928" horiz-adv-x="877" 
d="M907 671v-109h-105v-562h-141v308h-150v-110l-66 -32c-60 27 -112 86 -112 194l97 69h231v133h-410v-394h-134c-60 43 -81 117 -81 165l77 57v172h-143v109h937z" />
    <glyph glyph-name="uni0917094D092C" horiz-adv-x="914" 
d="M645 226l-153 115c-4 -11 -7 -23 -7 -37c0 -58 45 -97 98 -97c23 0 44 7 62 19zM944 671v-109h-105v-562h-142v141h-4c-25 -25 -74 -46 -131 -46c-123 0 -209 87 -209 206c0 135 106 213 208 213c32 0 50 -2 77 -9l7 -118c-24 8 -46 10 -67 10c-15 0 -30 -3 -43 -10
l150 -113c9 17 13 35 13 54v234h-447v-394h-134c-60 43 -81 117 -81 165l77 57v172h-143v109h974z" />
    <glyph glyph-name="uni0917094D092D" horiz-adv-x="953" 
d="M657 671h326v-109h-105v-562h-139v275h-168v-107h-129c-60 43 -81 123 -81 171l77 58v112c0 39 -19 53 -54 53h-133v-394h-134c-60 43 -81 117 -81 165l77 57v172h-143v109h442c69 0 164 -26 164 -154v-119h163v164h-82v109z" />
    <glyph glyph-name="uni0917094D092E" horiz-adv-x="931" 
d="M717 398v164h-141v-164h141zM961 671v-109h-105v-562h-139v275h-146v-107h-129c-60 43 -81 123 -81 171l77 57v166h-187v-394h-134c-60 43 -81 117 -81 165l77 57v172h-143v109h991z" />
    <glyph glyph-name="uni0917094D092F" horiz-adv-x="949" 
d="M733 345v217h-150v-4c33 -28 43 -67 43 -98c0 -72 -57 -122 -122 -134c8 -57 46 -96 111 -96c78 0 118 47 118 115zM979 671v-109h-105v-562h-141v159h-4c-26 -27 -74 -47 -135 -47c-134 0 -235 97 -241 262c77 15 133 42 133 105c0 20 -10 59 -29 83h-206v-394h-134
c-60 43 -81 117 -81 165l77 57v172h-143v109h1009z" />
    <glyph glyph-name="uni0917094D0932" horiz-adv-x="1060" 
d="M1090 671v-109h-105v-562h-142v346c-9 6 -31 14 -48 14c-41 0 -59 -26 -59 -80v-94h-128v101c0 47 -22 72 -55 72c-27 0 -60 -19 -60 -88c0 -62 33 -139 143 -197l-89 -94c-122 63 -195 175 -195 297c0 139 95 199 186 199c61 0 107 -26 127 -74h4c12 54 58 79 97 79
c24 0 55 -5 73 -23h4v104h-592v-394h-134c-60 43 -81 117 -81 165l77 57v172h-143v109h1120z" />
    <glyph glyph-name="uni0917094D0935" horiz-adv-x="897" 
d="M927 671v-109h-105v-562h-141v133h-4c-20 -19 -60 -42 -123 -42c-114 0 -203 79 -203 198c0 145 119 220 255 198l10 -122c-53 18 -120 -5 -120 -76c0 -50 34 -79 83 -79c68 0 102 54 102 117v235h-430v-394h-134c-60 43 -81 117 -81 165l77 57v172h-143v109h957z" />
    <glyph glyph-name="uni0917094D0938" horiz-adv-x="1042" 
d="M687 562v-154c0 -14 -1 -26 -3 -37c15 -4 34 -6 57 -6c29 0 58 4 83 15v182h-137zM1072 671v-109h-105v-562h-143v249c-21 -5 -42 -7 -64 -7c-57 0 -99 14 -133 39c-20 -12 -43 -20 -68 -23c-3 0 -6 -1 -9 -1v-4c21 -21 41 -42 81 -90l92 -110l-115 -72l-284 350l106 84
c31 -40 47 -56 76 -56c23 0 41 14 41 50v153h-296v-394h-134c-60 43 -81 117 -81 165l77 57v172h-143v109h1102z" />
    <glyph glyph-name="uni0918094D0928" horiz-adv-x="946" 
d="M-30 562v109h1006v-109h-105v-562h-141v308h-150v-77c-93 -95 -193 -135 -306 -135c-124 0 -206 66 -206 160c0 80 55 117 98 128v4c-61 4 -108 41 -108 100c0 32 14 53 33 70v4h-121zM305 205c46 0 88 21 119 49c-14 27 -22 62 -22 106l97 69h231v133h-449
c-51 0 -76 -25 -76 -62c0 -36 26 -60 80 -60h63v-108h-53c-58 0 -83 -26 -83 -62c0 -32 23 -65 93 -65z" />
    <glyph glyph-name="uni0918094D092E" horiz-adv-x="1000" 
d="M786 398v164h-141v-164h141zM348 332h-53c-58 0 -83 -26 -83 -62c0 -32 23 -65 93 -65c56 0 104 32 136 66c-8 25 -11 49 -11 68l77 57v166h-226c-51 0 -76 -25 -76 -62c0 -36 26 -60 80 -60h63v-108zM1030 671v-109h-105v-562h-139v275h-146v-107h-129l-6 5
c-47 -39 -118 -77 -231 -77c-124 0 -206 66 -206 160c0 80 55 117 98 128v4c-61 4 -108 41 -108 100c0 32 14 53 33 70v4h-121v109h1060z" />
    <glyph glyph-name="uni0918094D092F" horiz-adv-x="1018" 
d="M802 345v217h-150v-4c33 -28 43 -67 43 -98c0 -72 -57 -122 -122 -134c8 -57 46 -96 111 -96c78 0 118 47 118 115zM348 332h-53c-58 0 -83 -26 -83 -62c0 -32 23 -65 93 -65c55 0 104 31 136 66c-11 30 -18 65 -19 103c77 15 133 42 133 105c0 20 -10 59 -29 83h-245
c-51 0 -76 -25 -76 -62c0 -36 26 -60 80 -60h63v-108zM1048 671v-109h-105v-562h-141v159h-4c-26 -27 -74 -47 -135 -47c-62 0 -117 21 -159 60c-47 -39 -117 -76 -230 -76c-124 0 -206 66 -206 160c0 80 55 117 98 128v4c-61 4 -108 41 -108 100c0 32 14 53 33 70v4h-121
v109h1078z" />
    <glyph glyph-name="uni091A094D091A" horiz-adv-x="1072" 
d="M1101 671v-109h-105v-562h-141v149h-4c-21 -25 -70 -68 -170 -68c-82 0 -138 30 -170 73c-48 -44 -113 -73 -209 -73c-142 0 -212 82 -212 169c0 60 24 89 47 108v4h-128v120h371v-119h-40c-70 0 -107 -32 -107 -86c0 -44 33 -77 97 -77c86 0 135 57 154 89
c8 35 26 55 43 69v4h-102v120h365v-119h-60c-70 0 -107 -32 -107 -86c0 -44 30 -77 92 -77c84 0 140 62 140 172v190h-885v109h1131z" />
    <glyph glyph-name="uni091A094D091B" horiz-adv-x="1120" 
d="M866 493v69h-163c-60 0 -86 -38 -86 -81c0 -42 26 -74 78 -74h33v-114c-6 0 -12 0 -17 -1c-58 -5 -78 -36 -78 -74c0 -47 42 -84 123 -84c115 0 206 87 206 188c0 47 -20 66 -46 66c-20 0 -35 -14 -35 -35c0 -25 17 -41 44 -50l-84 -78c-39 14 -90 55 -90 130
c0 65 45 120 115 138zM1150 562h-152v-82c54 -27 88 -81 88 -160c0 -147 -129 -303 -343 -303c-121 0 -204 52 -238 122c-51 -36 -118 -58 -203 -58c-142 0 -212 82 -212 169c0 60 24 89 47 108v4h-128v120h373v-119h-42c-70 0 -107 -32 -107 -86c0 -44 33 -77 97 -77
c87 0 139 35 177 91c17 30 43 47 67 56v4c-67 11 -103 61 -103 121c0 42 17 69 35 86v4h-536v109h1180v-109z" />
    <glyph glyph-name="uni091A094D0928" horiz-adv-x="987" 
d="M302 81c-142 0 -212 82 -212 169c0 60 24 89 47 108v4h-128v120h385v-119h-54c-70 0 -107 -32 -107 -86c0 -44 33 -77 97 -77s107 30 132 58c-12 27 -19 61 -19 102l97 69h231v133h-801v109h1047v-109h-105v-562h-141v308h-150v-75c-101 -112 -211 -152 -319 -152z" />
    <glyph glyph-name="uni091A094D092E" horiz-adv-x="1031" 
d="M817 398v164h-141v-164h141zM1061 671v-109h-105v-562h-139v275h-146v-107h-129l-1 1c-54 -53 -133 -88 -239 -88c-142 0 -212 82 -212 169c0 60 24 89 47 108v4h-128v120h381v-119h-50c-70 0 -107 -32 -107 -86c0 -44 33 -77 97 -77c74 0 118 40 142 70
c-8 25 -11 50 -11 69l77 57v166h-568v109h1091z" />
    <glyph glyph-name="uni091A094D092F" horiz-adv-x="1059" 
d="M843 345v217h-150v-4c33 -28 43 -67 43 -98c0 -72 -57 -122 -122 -134c8 -57 46 -96 111 -96c78 0 118 47 118 115zM1089 671v-109h-105v-562h-141v159h-4c-26 -27 -74 -47 -135 -47c-62 0 -118 21 -159 60c-55 -54 -135 -91 -243 -91c-142 0 -212 82 -212 169
c0 60 24 89 47 108v4h-128v120h391v-119h-60c-70 0 -107 -32 -107 -86c0 -44 33 -77 97 -77c81 0 127 48 149 79c-9 28 -15 60 -16 95c77 15 133 42 133 105c0 20 -10 59 -29 83h-597v109h1119z" />
    <glyph glyph-name="uni091B094D0928" horiz-adv-x="1253" 
d="M1283 671v-109h-105v-562h-141v308h-150v-110l-66 -32c-60 27 -112 86 -112 194l97 69h231v133h-755c-60 0 -86 -38 -86 -81c0 -42 26 -74 78 -74h33v-114c-6 0 -11 0 -16 -1c-59 -4 -79 -35 -79 -74c0 -47 34 -84 115 -84c116 0 214 94 214 206c0 48 -23 66 -48 66
c-18 0 -33 -14 -33 -35c0 -25 17 -41 44 -50l-84 -78c-39 14 -90 55 -90 130c0 78 65 143 162 143c101 0 173 -63 173 -178c0 -148 -122 -321 -351 -321c-161 0 -246 92 -246 195c0 81 44 120 85 135v4c-67 11 -103 61 -103 121c0 42 17 69 35 86v4h-115v109h1313z" />
    <glyph glyph-name="uni091B094D092F" horiz-adv-x="1313" 
d="M1097 276v286h-815c-60 0 -86 -38 -86 -81c0 -42 26 -74 78 -74h33v-114c-6 0 -11 0 -16 -1c-59 -4 -79 -35 -79 -74c0 -47 34 -84 115 -84c116 0 214 94 214 206c0 48 -23 66 -48 66c-18 0 -33 -14 -33 -35c0 -25 17 -41 44 -50l-84 -78c-39 14 -90 55 -90 130
c0 78 65 143 162 143c52 0 96 -17 127 -49c63 17 135 33 201 33c105 0 182 -49 182 -146c0 -57 -40 -115 -122 -151c8 -29 38 -55 91 -55c83 0 126 57 126 128zM1343 671v-109h-105v-562h-141v93h-4c-27 -29 -82 -53 -140 -53c-125 0 -208 68 -232 192l79 40
c77 39 83 65 83 84c0 20 -14 34 -43 34c-59 0 -121 -10 -177 -23c1 -9 2 -19 2 -29c0 -148 -122 -321 -351 -321c-161 0 -246 92 -246 195c0 81 44 120 85 135v4c-67 11 -103 61 -103 121c0 42 17 69 35 86v4h-115v109h1373z" />
    <glyph glyph-name="uni091B094D0935" horiz-adv-x="699" 
d="M143 -59c0 44 14 77 36 103c-73 35 -111 99 -111 168c0 81 44 120 85 135v4c-67 11 -103 61 -103 121c0 42 17 69 35 86v4h-115v109h759v-109h-152v-74c54 -27 88 -81 88 -160c0 -74 -30 -148 -88 -206v-432h-130v108h-4c-18 -18 -52 -37 -110 -37
c-106 0 -190 72 -190 180zM504 311l-84 -78c-39 14 -90 55 -90 130c0 64 44 120 115 137v62h-163c-60 0 -86 -38 -86 -81c0 -42 26 -74 78 -74h33v-114c-6 0 -12 0 -17 -1c-58 -5 -78 -36 -78 -74c0 -47 34 -84 115 -84c116 0 214 84 214 196c0 48 -23 66 -48 66
c-18 0 -33 -14 -33 -35c0 -25 17 -41 44 -50zM354 -129c61 0 95 42 95 99v50c-16 3 -33 5 -47 6c-9 1 -17 1 -24 1c-67 0 -102 -33 -102 -83c0 -41 27 -73 78 -73z" />
    <glyph glyph-name="uni091C094D0915" horiz-adv-x="1321" 
d="M1351 562h-358v-115h4c22 21 60 40 109 40c104 0 187 -75 187 -191c0 -140 -112 -209 -230 -198l-22 121c66 -14 113 19 113 79c0 44 -31 74 -75 74c-52 0 -86 -40 -86 -91v-281h-140v140h-4c-18 -17 -54 -38 -109 -38c-104 0 -189 76 -189 192c0 21 3 41 8 59h-130v-4
c30 -22 47 -61 47 -106c0 -98 -72 -165 -181 -165c-191 0 -266 207 -280 327l126 64c7 -129 51 -271 143 -271c33 0 58 20 58 60c0 38 -27 76 -78 96v10l54 99h326c40 23 89 33 139 28l22 -121c-66 14 -115 -18 -115 -78c0 -44 34 -75 79 -75c52 0 84 40 84 91v254h-883v109
h1381v-109z" />
    <glyph glyph-name="uni091C094D091C" horiz-adv-x="1273" 
d="M1303 671v-109h-105v-562h-142v353h-123v-4c30 -22 47 -61 47 -106c0 -98 -72 -165 -181 -165c-165 0 -241 157 -267 275h-103v-4c30 -22 47 -61 47 -106c0 -98 -72 -165 -181 -165c-191 0 -266 207 -280 327l126 64c7 -129 51 -271 143 -271c33 0 58 20 58 60
c0 38 -27 76 -78 96v10l54 99h328c8 -128 51 -265 142 -265c33 0 58 20 58 60c0 38 -27 76 -78 96v10l54 99h234v99h-1086v109h1333z" />
    <glyph glyph-name="uni091C094D091D" horiz-adv-x="1321" 
d="M763 311l165 39c24 -7 45 -21 61 -40c13 -3 34 -5 50 -5c24 0 48 3 71 9v248h-136v-164h-190c-58 0 -61 -18 -61 -39c0 -15 13 -40 40 -48zM1351 671v-109h-105v-562h-136v201c-11 -1 -21 -1 -31 -1c-18 0 -36 2 -52 5v-12c0 -82 -60 -142 -147 -159v-4l169 -100
l-143 -77l-178 156c-124 0 -169 64 -169 118c0 40 21 69 54 84l157 -96h14c58 0 119 22 119 76c0 17 -9 31 -16 35l-135 -34c-91 30 -145 94 -161 161h-162v-4c30 -22 47 -61 47 -106c0 -98 -72 -165 -181 -165c-191 0 -266 207 -280 327l126 64c7 -129 51 -271 143 -271
c33 0 58 20 58 60c0 38 -27 76 -78 96v10l54 99h287c22 28 60 43 115 43h118v56h-868v109h1381z" />
    <glyph glyph-name="uni091C094D091F" horiz-adv-x="1061" 
d="M960 394l-145 -37c-106 -27 -121 -64 -121 -114c0 -45 33 -97 119 -97c64 0 118 20 176 81l68 -113c-71 -68 -150 -89 -227 -89c-162 0 -271 114 -271 245c0 25 3 47 9 67c-16 10 -39 16 -73 16h-66v-4c30 -22 47 -61 47 -106c0 -98 -72 -165 -181 -165
c-191 0 -266 207 -280 327l126 57c8 -127 53 -264 143 -264c33 0 58 20 58 60c0 38 -27 76 -78 96v10l54 99h182c48 0 100 -9 141 -35c26 17 59 31 99 42l76 21v71h-846v109h1121v-109h-131v-168z" />
    <glyph glyph-name="uni091C094D0921" horiz-adv-x="1094" 
d="M998 396h-186c-59 0 -69 -6 -69 -29c0 -14 9 -42 41 -55l157 36c66 -18 110 -78 110 -160c0 -110 -88 -196 -226 -196c-159 0 -244 112 -280 189l90 67c38 -85 112 -141 193 -141c62 0 98 29 98 79c0 17 -9 34 -19 42l-136 -36c-91 37 -143 99 -160 161h-182v-4
c30 -22 47 -61 47 -106c0 -98 -72 -165 -181 -165c-191 0 -266 207 -280 327l126 64c7 -129 51 -271 143 -271c33 0 58 20 58 60c0 38 -27 76 -78 96v10l54 99h307c22 28 60 43 115 43h120v56h-890v109h1154v-109h-126v-166z" />
    <glyph glyph-name="uni091C094D0924" horiz-adv-x="1112" 
d="M1143 671v-109h-106v-562h-141v352h-100c-47 0 -87 -25 -87 -86c0 -76 44 -141 115 -191l-101 -88c-75 51 -158 152 -158 284c0 31 5 59 14 82h-150v-4c30 -22 47 -61 47 -106c0 -98 -72 -165 -181 -165c-191 0 -266 207 -280 327l126 64c7 -129 51 -271 143 -271
c33 0 58 20 58 60c0 38 -27 76 -78 96v10l54 99h383c23 7 47 10 70 10h125v89h-926v109h1173z" />
    <glyph glyph-name="uni091C094D0926" horiz-adv-x="1081" 
d="M985 112l128 -151l-158 -39l-65 130c-24 -6 -48 -9 -72 -9c-134 0 -262 88 -262 237c0 27 4 51 11 73h-138v-4c30 -22 47 -61 47 -106c0 -98 -72 -165 -181 -165c-191 0 -266 207 -280 327l126 64c7 -129 51 -271 143 -271c33 0 58 20 58 60c0 38 -27 76 -78 96v10l54 99
h365c16 6 34 12 54 17l86 21v61h-853v109h1141v-109h-144v-158l-135 -34c-106 -27 -141 -59 -141 -117c0 -60 57 -93 110 -90c22 1 42 8 58 22v96l89 33c40 -20 79 -49 79 -110c0 -40 -16 -66 -42 -92z" />
    <glyph glyph-name="uni091C094D0928" horiz-adv-x="1076" 
d="M1106 671v-109h-105v-562h-141v308h-142v-110l-66 -32c-59 26 -110 83 -112 187h-111v-4c30 -22 47 -61 47 -106c0 -98 -72 -165 -181 -165c-191 0 -266 207 -280 327l126 64c7 -129 51 -271 143 -271c33 0 58 20 58 60c0 38 -27 76 -78 96v10l54 99h175
c102 0 170 -21 202 -34h165v133h-890v109h1136z" />
    <glyph glyph-name="uni091C094D092C" horiz-adv-x="1113" 
d="M844 226l-153 115c-4 -11 -7 -23 -7 -37c0 -58 45 -97 98 -97c23 0 44 7 62 19zM1143 671v-109h-105v-562h-142v141h-4c-25 -25 -74 -46 -131 -46c-123 0 -209 87 -209 206c0 18 2 36 6 52h-129v-4c30 -22 47 -61 47 -106c0 -98 -72 -165 -181 -165
c-191 0 -266 207 -280 327l126 64c7 -129 51 -271 143 -271c33 0 58 20 58 60c0 38 -27 76 -78 96v10l54 99h305c39 33 88 51 137 51c32 0 50 -2 77 -9l7 -118c-24 8 -46 10 -67 10c-15 0 -30 -3 -43 -10l150 -113c9 17 13 35 13 54v234h-927v109h1173z" />
    <glyph glyph-name="uni091C094D092E" horiz-adv-x="1104" 
d="M890 398v164h-141v-164h141zM1134 671v-109h-105v-562h-139v275h-146v-107h-129c-60 43 -81 123 -81 171l19 14h-124v-4c30 -22 47 -61 47 -106c0 -98 -72 -165 -181 -165c-191 0 -266 207 -280 327l126 64c7 -129 51 -271 143 -271c33 0 58 20 58 60c0 38 -27 76 -78 96
v10l54 99h293v99h-641v109h1164z" />
    <glyph glyph-name="uni091C094D092F" horiz-adv-x="1148" 
d="M932 345v217h-150v-4c33 -28 43 -67 43 -98c0 -72 -57 -122 -122 -134c8 -57 46 -96 111 -96c78 0 118 47 118 115zM1178 671v-109h-105v-562h-141v159h-4c-26 -27 -74 -47 -135 -47c-123 0 -218 82 -238 223c-17 10 -40 18 -77 18h-49v-4c30 -22 47 -61 47 -106
c0 -98 -72 -165 -181 -165c-191 0 -266 207 -280 327l126 57c8 -127 53 -264 143 -264c33 0 58 20 58 60c0 38 -27 76 -78 96v10l54 99h165c59 0 123 -13 165 -54c23 17 37 39 37 70c0 20 -10 59 -29 83h-686v109h1208z" />
    <glyph glyph-name="uni091C094D0935" horiz-adv-x="1096" 
d="M1126 671v-109h-105v-562h-141v133h-4c-20 -19 -60 -42 -123 -42c-114 0 -203 79 -203 198c0 23 3 45 9 64h-130v-4c30 -22 47 -61 47 -106c0 -98 -72 -165 -181 -165c-191 0 -266 207 -280 327l126 64c7 -129 51 -271 143 -271c33 0 58 20 58 60c0 38 -27 76 -78 96v10
l54 99h328c44 25 100 34 159 24l10 -122c-53 18 -120 -5 -120 -76c0 -50 34 -79 83 -79c68 0 102 54 102 117v235h-910v109h1156z" />
    <glyph glyph-name="uni091D094D0928" horiz-adv-x="1104" 
d="M888 439v123h-433v-166h-190c-58 0 -61 -16 -61 -37c0 -15 13 -40 40 -48l163 39c34 -10 62 -33 80 -67c9 -1 18 -1 25 -1c23 0 46 2 69 8c-8 23 -11 51 -11 86l87 63h231zM1134 671v-109h-105v-562h-141v318h-150v-95c-29 -19 -97 -46 -179 -46c-17 0 -35 1 -51 4
c-6 -76 -64 -131 -147 -147v-4l169 -100l-145 -77l-178 156c-124 0 -169 64 -169 118c0 40 21 69 54 84l157 -96h14c58 0 117 22 117 76c0 17 -9 31 -16 35l-133 -34c-112 37 -169 125 -169 206c0 67 46 108 135 108h120v56h-347v109h1164z" />
    <glyph glyph-name="uni091D094D092E" horiz-adv-x="1158" 
d="M944 398v164h-141v-164h141zM244 311l163 39c25 -8 46 -22 63 -42c13 -2 29 -3 42 -3c26 0 52 3 77 11c-1 8 -1 16 -1 23l77 57v166h-210v-166h-190c-58 0 -61 -16 -61 -37c0 -15 13 -40 40 -48zM1188 671v-109h-105v-562h-139v275h-146v-107h-129c-16 11 -29 26 -40 41
c-27 -7 -54 -9 -77 -9c-15 0 -30 1 -44 4v-11c0 -82 -60 -142 -147 -159v-4l169 -100l-145 -77l-178 156c-124 0 -169 64 -169 118c0 40 21 69 54 84l157 -96h14c58 0 117 22 117 76c0 17 -9 31 -16 35l-133 -34c-112 37 -169 125 -169 206c0 67 46 108 135 108h120v56h-347
v109h1218z" />
    <glyph glyph-name="uni091D094D092F" horiz-adv-x="1176" 
d="M960 345v217h-150v-4c33 -28 43 -67 43 -98c0 -72 -57 -122 -122 -134c8 -57 46 -96 111 -96c78 0 118 47 118 115zM244 311l163 39c25 -8 46 -22 63 -42c13 -2 29 -3 42 -3c25 0 50 3 75 10c-4 19 -6 38 -7 59c77 15 133 42 133 105c0 20 -10 59 -29 83h-229v-166h-190
c-58 0 -61 -16 -61 -37c0 -15 13 -40 40 -48zM1206 671v-109h-105v-562h-141v159h-4c-26 -27 -74 -47 -135 -47c-80 0 -148 34 -191 97c-27 -7 -55 -9 -78 -9c-15 0 -30 1 -44 4v-11c0 -82 -60 -142 -147 -159v-4l169 -100l-145 -77l-178 156c-124 0 -169 64 -169 118
c0 40 21 69 54 84l157 -96h14c58 0 117 22 117 76c0 17 -9 31 -16 35l-133 -34c-112 37 -169 125 -169 206c0 67 46 108 135 108h120v56h-347v109h1236z" />
    <glyph glyph-name="uni091E094D091B" horiz-adv-x="1206" 
d="M952 493v69h-163c-60 0 -86 -38 -86 -81c0 -42 26 -74 78 -74h33v-114c-6 0 -12 0 -17 -1c-58 -5 -78 -36 -78 -74c0 -47 42 -84 123 -84c115 0 206 87 206 188c0 47 -20 66 -46 66c-20 0 -35 -14 -35 -35c0 -25 17 -41 44 -50l-84 -78c-39 14 -90 55 -90 130
c0 65 45 120 115 138zM1236 562h-152v-82c54 -27 88 -81 88 -160c0 -147 -129 -303 -343 -303c-161 0 -254 92 -254 195c0 6 0 11 1 17c-15 -1 -29 -1 -39 -1c-28 0 -54 3 -73 7c-24 -99 -112 -162 -223 -162c-115 0 -205 63 -248 127l85 109c39 -68 91 -108 159 -108
c53 0 97 35 97 91c0 55 -37 82 -82 82c-27 0 -52 -11 -66 -20l-54 120c36 18 80 29 119 29c106 0 190 -51 213 -151c22 -3 44 -4 68 -4c20 0 79 2 118 5c-61 14 -93 62 -93 119c0 42 17 69 35 86v4h-622v109h1266v-109z" />
    <glyph glyph-name="uni091E094D091C" horiz-adv-x="1280" 
d="M1309 671v-109h-105v-562h-142v353h-123v-4c30 -22 47 -61 47 -106c0 -98 -72 -165 -181 -165c-121 0 -195 83 -237 174c-17 -3 -34 -4 -51 -4c-18 0 -35 1 -49 3c-18 -109 -110 -178 -227 -178c-115 0 -205 63 -248 127l85 109c39 -68 91 -108 159 -108
c53 0 97 35 97 91c0 55 -37 82 -82 82c-27 0 -52 -11 -66 -20l-54 120c36 18 80 29 119 29c99 0 179 -45 208 -133c18 -1 35 -2 53 -2c6 0 12 0 19 1c-3 12 -5 25 -6 36l126 64c7 -129 51 -271 143 -271c33 0 58 20 58 60c0 38 -27 76 -78 96v10l54 99h234v99h-1092v109
h1339z" />
    <glyph glyph-name="uni091E094D0936" horiz-adv-x="1303" 
d="M527 671v-109h-557v109h557zM789 461l-83 -81c-67 18 -103 70 -103 138c0 87 79 162 187 162c149 0 215 -100 215 -202c0 -162 -127 -238 -245 -242v-4c33 -17 82 -50 131 -94l93 -84l-117 -81l-245 227l-68 50c-13 -1 -25 -2 -37 -2c-18 0 -35 1 -49 3
c-18 -109 -110 -178 -227 -178c-115 0 -205 63 -248 127l85 109c39 -68 91 -108 159 -108c53 0 97 35 97 91c0 55 -37 82 -82 82c-27 0 -52 -11 -66 -20l-54 120c36 18 80 29 119 29c99 0 179 -45 208 -133c18 -1 35 -2 53 -2c28 0 72 3 93 8l12 -11c34 -16 71 -22 102 -22
c86 0 144 50 144 133c0 61 -30 93 -67 93c-36 0 -54 -24 -54 -48c0 -26 16 -50 47 -60zM1086 671h247v-109h-105v-562h-142v671z" />
    <glyph glyph-name="uni091F094D091F" horiz-adv-x="601" 
d="M474 458l-216 -54c-66 -16 -80 -34 -80 -62c0 -26 30 -61 118 -61c80 0 162 36 207 81l68 -108c-29 -26 -62 -46 -97 -60v-135l-216 -54c-66 -16 -80 -30 -80 -58c0 -26 30 -61 118 -61c80 0 162 36 207 81l68 -108c-74 -68 -181 -90 -258 -90c-174 0 -270 99 -270 201
c0 83 46 120 153 146l148 36v13c-11 -1 -21 -1 -31 -1c-174 0 -270 99 -270 201c0 83 46 123 153 149l145 36v12h-371v109h661v-109h-157v-104z" />
    <glyph glyph-name="uni091F094D0920" horiz-adv-x="619" 
d="M405 43l-146 -36c-72 -18 -83 -36 -83 -61c0 -22 22 -63 128 -63c123 0 175 43 175 89c0 39 -35 58 -74 71zM472 458l-216 -54c-66 -16 -80 -34 -80 -62c0 -26 30 -61 118 -61c80 0 162 36 207 81l68 -108c-29 -26 -62 -46 -97 -60v-60c88 -32 137 -83 137 -167
c0 -109 -94 -201 -282 -201c-173 0 -286 85 -286 199c0 84 50 125 153 151l148 36v13c-11 -1 -21 -1 -31 -1c-174 0 -270 99 -270 201c0 83 46 123 153 149l145 36v12h-369v109h680v-109h-178v-104z" />
    <glyph glyph-name="uni091F094D0928" horiz-adv-x="1093" 
d="M214 -69l107 43l184 -197v-4h-183zM1123 671v-109h-105v-562h-141v308h-150v-110l-66 -32c-60 27 -112 86 -112 194l97 69h231v133h-439v-168l-145 -37c-106 -27 -121 -64 -121 -114c0 -45 33 -97 119 -97c64 0 118 20 176 81l68 -113c-71 -68 -150 -89 -227 -89
c-162 0 -271 114 -271 245c0 105 55 165 181 200l76 21v71h-324v109h1153z" />
    <glyph glyph-name="uni091F094D092F" horiz-adv-x="1083" 
d="M867 276v286h-429v-82c40 13 100 26 152 26c105 0 182 -49 182 -146c0 -57 -40 -115 -122 -151c8 -29 38 -61 91 -61c83 0 126 57 126 128zM1113 671v-109h-105v-562h-141v93h-4c-27 -29 -82 -53 -140 -53c-116 0 -205 78 -232 199c32 14 58 27 79 39c75 41 83 65 83 84
c0 20 -14 34 -43 34c-27 0 -60 -3 -172 -29l-145 -37c-106 -27 -121 -47 -121 -97c0 -45 33 -87 119 -87c50 0 90 17 138 47l64 -114c-59 -41 -123 -54 -185 -54c-162 0 -271 104 -271 235c0 105 55 148 181 183l76 21v98h-324v109h1143z" />
    <glyph glyph-name="uni091F094D0935" horiz-adv-x="584" 
d="M133 203v4c-54 26 -79 77 -79 134c0 83 46 122 153 149l145 36v36h-382v109h644v-109h-129v-128l-216 -54c-66 -17 -80 -35 -80 -62c0 -26 30 -61 118 -61c80 0 162 36 207 81l68 -108c-29 -27 -62 -46 -97 -60v-358h-130v108h-4c-18 -18 -52 -37 -110 -37
c-105 0 -190 71 -190 180c0 70 33 113 82 140zM266 -7c63 0 91 44 91 99v48c-26 5 -54 8 -74 8c-69 0 -99 -37 -99 -83c0 -47 37 -72 82 -72z" />
    <glyph glyph-name="uni0920094D0928" horiz-adv-x="1165" 
d="M244 -69l107 43l184 -197v-4h-183zM371 377l-78 -20c-106 -27 -121 -64 -121 -114c0 -45 33 -97 119 -97c100 0 154 55 154 120c0 47 -30 87 -74 111zM1195 671v-109h-105v-562h-141v308h-150v-110l-66 -32c-60 27 -112 86 -112 194l97 69h231v133h-511v-89
c92 -50 137 -120 137 -214c0 -119 -94 -234 -267 -234c-162 0 -271 114 -271 245c0 105 55 165 181 200l76 21v71h-324v109h1225z" />
    <glyph glyph-name="uni0920094D092F" horiz-adv-x="1212" 
d="M996 270v292h-558v-89c19 -10 36 -22 51 -34c40 28 117 71 210 71c113 0 202 -55 202 -151c0 -75 -51 -111 -124 -149c9 -35 37 -62 91 -62c76 0 128 55 128 122zM371 377l-78 -20c-106 -27 -121 -64 -121 -114c0 -45 33 -97 119 -97c100 0 154 55 154 120
c0 47 -30 87 -74 111zM1242 671v-109h-105v-562h-141v94h-4c-28 -28 -78 -54 -140 -54c-116 0 -200 77 -232 199l126 73c21 12 37 24 37 46c0 18 -11 41 -63 41c-35 0 -92 -7 -159 -56c9 -26 14 -54 14 -84c0 -119 -94 -234 -267 -234c-162 0 -271 114 -271 245
c0 105 55 165 181 200l76 21v71h-324v109h1272z" />
    <glyph glyph-name="uni0921094D0921" horiz-adv-x="588" 
d="M25 225l73 66c58 -74 134 -103 217 -103c66 0 109 25 109 63c0 15 -7 23 -18 29l-158 -30c-115 33 -162 102 -162 165c0 55 40 99 122 99h146v48h-384v109h648v-109h-130v-142h-226c-29 0 -42 -5 -42 -24c0 -13 11 -30 33 -36l198 30c56 -16 92 -69 92 -131
c0 -92 -79 -172 -231 -172c-28 0 -62 2 -84 6c-4 -4 -9 -12 -9 -26s8 -34 32 -41l200 31c53 -17 92 -69 92 -132c0 -91 -81 -171 -231 -171c-145 0 -246 80 -287 139l72 69c58 -73 135 -107 218 -107c66 0 109 26 109 64c0 14 -6 23 -17 29l-159 -28
c-107 22 -151 87 -151 147c0 23 5 47 21 71c-37 21 -75 60 -93 87z" />
    <glyph glyph-name="uni0921094D0922" horiz-adv-x="590" 
d="M546 252c-2 -131 -115 -165 -229 -178c-74 -8 -127 -38 -127 -102c0 -56 53 -110 151 -110c56 0 80 28 80 55c0 18 -12 34 -33 34c-25 0 -39 -17 -46 -38l-86 53c11 30 51 88 142 88c88 0 147 -60 147 -132c0 -88 -80 -166 -208 -166c-159 0 -277 91 -277 219
c0 56 23 107 74 137c-42 20 -85 53 -111 91l74 85c44 -57 93 -107 212 -107c73 0 108 28 108 58c0 15 -6 28 -17 34l-149 -29c-115 33 -162 109 -162 172c0 55 40 99 122 99h146v47h-387v109h650v-109h-129v-143h-222c-29 0 -42 -11 -42 -30c0 -13 11 -33 33 -39l194 30
c55 -17 92 -67 92 -128z" />
    <glyph glyph-name="uni0921094D0928" horiz-adv-x="1126" 
d="M224 -99l107 43l184 -197v-4h-183zM1156 671v-109h-105v-562h-141v308h-150v-110l-66 -32c-60 27 -112 86 -112 194l97 69h231v133h-434v-166h-186c-59 0 -69 -6 -69 -29c0 -14 9 -42 41 -55l157 36c66 -18 110 -78 110 -160c0 -110 -88 -196 -226 -196
c-159 0 -244 112 -280 189l90 67c38 -85 112 -141 193 -141c62 0 98 29 98 79c0 17 -9 34 -19 42l-136 -36c-113 46 -166 132 -166 206c0 67 46 108 135 108h120v56h-368v109h1186z" />
    <glyph glyph-name="uni0921094D092F" horiz-adv-x="1162" 
d="M946 282v280h-470v-57h194c126 0 181 -60 181 -142c0 -75 -51 -112 -124 -141c9 -35 39 -62 93 -62c76 0 126 55 126 122zM1192 671v-109h-105v-562h-141v103h-4c-28 -28 -82 -51 -138 -51c-116 0 -202 77 -234 199l126 61c21 12 37 27 37 49c0 18 -7 35 -59 35h-384
c-59 0 -69 -6 -69 -29c0 -14 9 -42 41 -55l157 36c66 -18 110 -78 110 -160c0 -110 -88 -196 -226 -196c-159 0 -244 112 -280 189l90 67c38 -85 112 -141 193 -141c62 0 98 29 98 79c0 17 -9 34 -19 42l-136 -36c-113 46 -166 132 -166 206c0 67 46 108 135 108h120v56
h-368v109h1222z" />
    <glyph glyph-name="uni0921094D0935" horiz-adv-x="572" 
d="M361 -58v51c-26 5 -51 7 -71 7c-66 0 -102 -33 -102 -83c0 -41 28 -73 79 -73c61 0 94 41 94 98zM476 396h-186c-59 0 -69 -6 -69 -29c0 -14 9 -42 41 -55l157 36c66 -18 110 -78 110 -160c0 -44 -14 -84 -40 -116v-409h-130v108h-4c-18 -18 -58 -37 -113 -37
c-108 0 -187 75 -187 180c0 66 31 110 70 137c-50 39 -83 89 -102 130l90 67c38 -85 112 -141 193 -141c62 0 98 29 98 79c0 17 -9 34 -19 42l-136 -36c-113 46 -166 132 -166 206c0 67 46 108 135 108h120v56h-368v109h632v-109h-126v-166z" />
    <glyph glyph-name="uni0922094D092F" horiz-adv-x="1127" 
d="M911 281v281h-446v-77c40 13 122 30 187 30c101 0 164 -50 164 -144c0 -65 -40 -112 -124 -149c10 -37 37 -63 91 -63c76 0 128 55 128 122zM1157 671v-109h-105v-562h-141v102h-4c-28 -28 -84 -51 -140 -51c-116 0 -205 76 -226 199c29 15 53 29 72 40
c72 44 83 64 83 83c0 20 -15 34 -47 34c-35 0 -97 -14 -184 -34l-172 -42c-94 -23 -118 -55 -118 -111c0 -60 60 -127 153 -127c46 0 71 23 71 57c0 21 -15 36 -38 36c-24 0 -45 -16 -50 -45l-79 74c15 35 59 85 147 85c78 0 144 -65 144 -145c0 -104 -76 -180 -200 -180
c-147 0 -289 103 -289 263c0 105 68 173 185 204l102 27v93h-351v109h1187z" />
    <glyph glyph-name="uni0923094D091F" horiz-adv-x="1043" 
d="M312 334v228h-107v-229c0 -49 19 -68 54 -68c37 0 53 20 53 69zM942 394l-145 -37c-106 -27 -121 -64 -121 -114c0 -45 33 -97 119 -97c64 0 118 20 176 81l68 -113c-71 -68 -150 -89 -227 -89c-162 0 -271 114 -271 245c0 105 55 165 181 200l76 21v71h-347v-217
c0 -131 -72 -199 -195 -199c-125 0 -191 66 -191 196v220h-95v109h1103v-109h-131v-168z" />
    <glyph glyph-name="uni0923094D0920" horiz-adv-x="1115" 
d="M875 377l-78 -20c-106 -27 -121 -64 -121 -114c0 -45 33 -97 119 -97c100 0 154 55 154 120c0 47 -30 87 -74 111zM312 334v228h-107v-229c0 -49 19 -68 54 -68c37 0 53 20 53 69zM1145 562h-203v-89c92 -50 137 -120 137 -214c0 -119 -94 -234 -267 -234
c-162 0 -271 114 -271 245c0 105 55 165 181 200l76 21v71h-347v-217c0 -131 -72 -199 -195 -199c-125 0 -191 66 -191 196v220h-95v109h1175v-109z" />
    <glyph glyph-name="uni0923094D0921" horiz-adv-x="1076" 
d="M312 334v228h-107v-229c0 -49 19 -68 54 -68c37 0 53 20 53 69zM980 396h-186c-59 0 -69 -6 -69 -29c0 -14 9 -42 41 -55l157 36c66 -18 110 -78 110 -160c0 -110 -88 -196 -226 -196c-159 0 -244 112 -280 189l90 67c38 -85 112 -141 193 -141c62 0 98 29 98 79
c0 17 -9 34 -19 42l-136 -36c-113 46 -166 132 -166 206c0 67 46 108 135 108h120v56h-391v-217c0 -131 -72 -199 -195 -199c-125 0 -191 66 -191 196v220h-95v109h1136v-109h-126v-166z" />
    <glyph glyph-name="uni0923094D0922" horiz-adv-x="1071" 
d="M312 334v228h-107v-229c0 -49 19 -68 54 -68c37 0 53 20 53 69zM971 410l-172 -42c-94 -23 -118 -55 -118 -111c0 -60 60 -127 153 -127c46 0 71 23 71 57c0 21 -15 36 -38 36c-24 0 -45 -16 -50 -45l-79 74c15 35 59 85 147 85c78 0 144 -65 144 -145
c0 -104 -76 -180 -200 -180c-147 0 -289 103 -289 263c0 105 68 173 185 204l102 27v56h-376v-217c0 -131 -72 -199 -195 -199c-125 0 -191 66 -191 196v220h-95v109h1131v-109h-130v-152z" />
    <glyph glyph-name="uni0923094D0923" horiz-adv-x="1297" 
d="M825 332v230h-117v-231c0 -49 24 -66 59 -66c37 0 58 18 58 67zM312 334v228h-107v-229c0 -49 19 -68 54 -68c37 0 53 20 53 69zM1326 671v-109h-104v-562h-141v562h-117v-218c0 -131 -77 -198 -200 -198c-125 0 -196 65 -196 195v221h-117v-217
c0 -131 -72 -199 -195 -199c-125 0 -191 66 -191 196v220h-95v109h1356z" />
    <glyph glyph-name="uni0923094D092E" horiz-adv-x="1111" 
d="M897 398v164h-141v-164h141zM312 334v228h-107v-229c0 -49 19 -68 54 -68c37 0 53 20 53 69zM1141 671v-109h-105v-562h-139v275h-146v-107h-129c-60 43 -81 123 -81 171l77 57v166h-167v-217c0 -131 -72 -199 -195 -199c-125 0 -191 66 -191 196v220h-95v109h1171z" />
    <glyph glyph-name="uni0923094D092F" horiz-adv-x="1129" 
d="M913 345v217h-150v-4c33 -28 43 -67 43 -98c0 -72 -57 -122 -122 -134c8 -57 46 -96 111 -96c78 0 118 47 118 115zM312 334v228h-107v-229c0 -49 19 -68 54 -68c37 0 53 20 53 69zM1159 671v-109h-105v-562h-141v159h-4c-26 -27 -74 -47 -135 -47
c-134 0 -235 97 -241 262c77 15 133 42 133 105c0 20 -10 59 -29 83h-186v-217c0 -131 -72 -199 -195 -199c-125 0 -191 66 -191 196v220h-95v109h1189z" />
    <glyph glyph-name="uni0923094D0935" horiz-adv-x="1078" 
d="M312 334v228h-107v-229c0 -49 19 -68 54 -68c37 0 53 20 53 69zM1108 671v-109h-105v-562h-141v133h-4c-20 -19 -60 -42 -123 -42c-114 0 -203 79 -203 198c0 145 119 220 255 198l10 -122c-53 18 -120 -5 -120 -76c0 -50 34 -79 83 -79c68 0 102 54 102 117v235h-411
v-217c0 -131 -72 -199 -195 -199c-125 0 -191 66 -191 196v220h-95v109h1138z" />
    <glyph glyph-name="uni0924094D0915" horiz-adv-x="1136" 
d="M1166 562h-358v-115h4c22 21 60 40 109 40c104 0 187 -75 187 -191c0 -140 -112 -209 -230 -198l-22 121c66 -14 113 19 113 79c0 44 -31 74 -75 74c-52 0 -86 -40 -86 -91v-281h-140v140h-4c-18 -17 -54 -38 -109 -38c-104 0 -189 76 -189 192c0 21 3 40 7 58h-99
c-47 0 -87 -25 -87 -86c0 -76 44 -141 115 -191l-101 -88c-75 51 -158 152 -158 284c0 147 109 202 206 202h229c36 16 78 22 120 18l22 -121c-66 14 -115 -18 -115 -78c0 -44 34 -75 79 -75c52 0 84 40 84 91v254h-698v109h1196v-109z" />
    <glyph glyph-name="uni0924094D0916" horiz-adv-x="1177" 
d="M687 562v-141c0 -107 -56 -154 -135 -154c-8 0 -20 1 -29 3c27 -85 107 -156 226 -156c129 0 227 88 227 199c0 52 -30 80 -69 80c-37 0 -63 -26 -63 -61c0 -48 44 -72 86 -76l-73 -73c-67 9 -137 59 -137 152c0 95 73 166 167 166c42 0 67 -10 83 -20h4v81h-287z
M1207 671v-109h-105v-562h-128v88h-4c-29 -28 -102 -84 -234 -84c-221 0 -343 162 -382 348h-80c-47 0 -87 -25 -87 -86c0 -76 44 -141 115 -191l-101 -88c-75 51 -158 152 -158 284c0 147 109 202 206 202h202l25 -71c10 -21 23 -32 42 -32c18 0 36 12 36 42v150h-584v109
h1237z" />
    <glyph glyph-name="uni0924094D0924" horiz-adv-x="620" 
d="M103 346v4h-94v123h395v89h-434v109h679v-109h-104v-562h-141v352h-105c-54 0 -94 -33 -94 -96c0 -75 45 -132 116 -182l-101 -87c-78 53 -155 149 -155 254c0 54 18 85 38 105z" />
    <glyph glyph-name="uni0924094D0925" horiz-adv-x="1056" 
d="M358 671v-109h-388v109h388zM841 671h245v-109h-105v-562h-137v152h-4c-22 -26 -78 -74 -185 -74c-144 0 -247 87 -272 233c-19 21 -43 41 -104 41h-6c-47 0 -87 -25 -87 -86c0 -76 44 -141 115 -191l-101 -88c-75 51 -158 152 -158 284c0 147 109 202 206 202h36
c65 0 137 -17 188 -85l40 11c102 27 135 67 135 114c0 34 -14 53 -43 53c-25 0 -43 -17 -43 -45c0 -15 2 -30 13 -47l-121 -25c-16 19 -25 51 -25 80c0 85 68 152 176 152c114 0 179 -71 179 -170c0 -112 -75 -173 -183 -200c-18 -5 -38 -9 -58 -12c6 -34 37 -100 131 -100
c118 0 168 85 168 173v299z" />
    <glyph glyph-name="uni0924094D0928" horiz-adv-x="892" 
d="M302 70l-101 -88c-75 51 -158 152 -158 284c0 147 109 202 206 202h69c100 0 157 -23 185 -39h173v133h-706v109h952v-109h-105v-562h-141v308h-150v-110l-66 -32c-58 26 -108 81 -112 181h-74c-47 0 -87 -25 -87 -86c0 -76 44 -141 115 -191z" />
    <glyph glyph-name="uni0924094D092A" horiz-adv-x="930" 
d="M714 407v155h-165v-197c0 -52 22 -76 67 -76c60 0 98 48 98 118zM960 671v-109h-105v-562h-141v217h-4c-35 -38 -89 -47 -126 -47c-116 0 -175 77 -176 182h-134c-47 0 -87 -25 -87 -86c0 -76 44 -141 115 -191l-101 -88c-75 51 -158 152 -158 284c0 147 109 202 206 202
h159v89h-438v109h990z" />
    <glyph glyph-name="uni0924094D092B" horiz-adv-x="1168" 
d="M692 370v192h-143v-193c0 -52 15 -77 60 -77c62 0 83 39 83 78zM1198 562h-369v-116h4c19 19 56 45 121 45c104 0 186 -74 186 -189c0 -140 -108 -213 -230 -202l-22 121c67 -15 113 22 113 79c0 44 -31 74 -75 74c-65 0 -97 -52 -97 -106v-268h-137v205h-4
c-17 -16 -52 -34 -106 -34c-123 0 -174 75 -174 179v2h-134c-47 0 -87 -25 -87 -86c0 -76 44 -141 115 -191l-101 -88c-75 51 -158 152 -158 284c0 147 109 202 206 202h159v89h-438v109h1228v-109z" />
    <glyph glyph-name="uni0924094D092E" horiz-adv-x="946" 
d="M732 398v164h-141v-164h141zM976 671v-109h-105v-562h-139v275h-146v-107h-129c-60 43 -81 123 -81 171l18 13h-120c-47 0 -87 -25 -87 -86c0 -76 44 -141 115 -191l-101 -88c-75 51 -158 152 -158 284c0 147 109 202 206 202h204v89h-483v109h1006z" />
    <glyph glyph-name="uni0924094D092F" horiz-adv-x="964" 
d="M748 345v217h-150v-4c33 -28 43 -67 43 -98c0 -72 -57 -122 -122 -134c8 -57 46 -96 111 -96c78 0 118 47 118 115zM994 671v-109h-105v-562h-141v159h-4c-26 -27 -74 -47 -135 -47c-118 0 -211 75 -235 206c-18 18 -40 34 -95 34h-6c-47 0 -87 -25 -87 -86
c0 -76 44 -141 115 -191l-101 -88c-75 51 -158 152 -158 284c0 147 109 202 206 202h36c64 0 135 -15 177 -66c25 16 40 39 40 72c0 20 -10 59 -29 83h-502v109h1024z" />
    <glyph glyph-name="uni0924094D0932" horiz-adv-x="1075" 
d="M1105 671v-109h-105v-562h-142v346c-9 6 -31 14 -48 14c-41 0 -59 -26 -59 -80v-94h-128v101c0 47 -22 72 -55 72c-27 0 -60 -19 -60 -88c0 -62 33 -139 143 -197l-89 -94c-122 63 -195 175 -195 297c0 25 3 47 8 67c-14 5 -32 8 -56 8h-46c-47 0 -87 -25 -87 -86
c0 -76 44 -141 115 -191l-101 -88c-75 51 -158 152 -158 284c0 147 109 202 206 202h76c43 0 88 -7 126 -26c31 20 67 29 103 29c61 0 107 -26 127 -74h4c12 54 58 79 97 79c24 0 55 -5 73 -23h4v104h-888v109h1135z" />
    <glyph glyph-name="uni0924094D0935" horiz-adv-x="912" 
d="M942 671v-109h-105v-562h-141v133h-4c-20 -19 -60 -42 -123 -42c-114 0 -203 79 -203 198c0 23 3 44 8 63h-100c-47 0 -87 -25 -87 -86c0 -76 44 -141 115 -191l-101 -88c-75 51 -158 152 -158 284c0 147 109 202 206 202h233c41 17 89 22 139 14l10 -122
c-53 18 -120 -5 -120 -76c0 -50 34 -79 83 -79c68 0 102 54 102 117v235h-726v109h972z" />
    <glyph glyph-name="uni0924094D0938" horiz-adv-x="1066" 
d="M711 562v-154c0 -14 -1 -26 -3 -37c15 -4 34 -6 57 -6c29 0 58 4 83 15v182h-137zM1096 671v-109h-105v-562h-143v249c-21 -5 -42 -7 -64 -7c-57 0 -99 14 -133 39c-20 -12 -43 -20 -68 -23c-3 0 -6 -1 -9 -1v-4c21 -21 41 -42 81 -90l92 -110l-115 -72l-255 314l-46 57
h-57c-47 0 -87 -25 -87 -86c0 -76 44 -141 115 -191l-101 -88c-75 51 -158 152 -158 284c0 147 109 202 206 202h158l47 -58c31 -40 47 -56 76 -56c23 0 41 14 41 50v153h-601v109h1126z" />
    <glyph glyph-name="uni0925094D0928" horiz-adv-x="1042" 
d="M488 671h584v-109h-105v-562h-141v308h-150v-110l-66 -32c-11 5 -22 11 -32 18c-45 -50 -122 -106 -267 -106c-162 0 -276 113 -282 286l134 35c102 27 135 67 135 114c0 34 -14 53 -43 53c-25 0 -43 -17 -43 -45c0 -17 3 -33 17 -52l-119 -34c-22 23 -33 56 -33 92
c0 85 70 154 178 154c114 0 179 -71 179 -170c0 -110 -73 -171 -178 -199c-20 -6 -41 -10 -63 -13c5 -36 43 -100 136 -100c104 0 152 63 175 102c-4 18 -6 38 -6 59l97 69h231v133h-338v109z" />
    <glyph glyph-name="uni0925094D092F" horiz-adv-x="1094" 
d="M878 345v217h-150v-4c33 -28 43 -67 43 -98c0 -72 -57 -122 -122 -134c8 -57 46 -96 111 -96c78 0 118 47 118 115zM509 671h615v-109h-105v-562h-141v159h-4c-26 -27 -74 -47 -135 -47c-67 0 -125 24 -168 68c-44 -49 -119 -102 -260 -102c-162 0 -276 113 -282 286
l134 35c102 27 135 67 135 114c0 34 -14 53 -43 53c-25 0 -43 -17 -43 -45c0 -17 3 -33 17 -52l-119 -34c-22 23 -33 56 -33 92c0 85 70 154 178 154c114 0 179 -71 179 -170c0 -110 -73 -171 -178 -199c-20 -6 -41 -10 -63 -13c5 -36 43 -100 136 -100c103 0 156 60 180 99
c-6 23 -10 49 -11 76c77 15 133 42 133 105c0 20 -10 59 -29 83h-93v109z" />
    <glyph glyph-name="uni0925094D0935" horiz-adv-x="1049" 
d="M509 671h570v-109h-105v-562h-141v133h-4c-20 -19 -60 -42 -123 -42c-64 0 -119 25 -156 67c-47 -42 -119 -80 -239 -80c-162 0 -276 113 -282 286l134 35c102 27 135 67 135 114c0 34 -14 53 -43 53c-25 0 -43 -17 -43 -45c0 -17 3 -33 17 -52l-119 -34
c-22 23 -33 56 -33 92c0 85 70 154 178 154c114 0 179 -71 179 -170c0 -110 -73 -171 -178 -199c-20 -6 -41 -10 -63 -13c5 -36 43 -100 136 -100c98 0 149 51 174 90c0 145 119 220 255 198l10 -122c-53 18 -120 -5 -120 -76c0 -50 34 -79 83 -79c68 0 102 54 102 117v235
h-324v109z" />
    <glyph glyph-name="uni0926094D0917" horiz-adv-x="556" 
d="M464 112l128 -151l-158 -39l-65 130c-22 -6 -45 -8 -67 -9v-210h-115c-40 28 -59 80 -59 123l56 44v65c-85 34 -149 109 -149 215c0 105 54 169 181 200l86 21v61h-332v109h616v-109h-140v-158l-135 -34c-106 -27 -141 -59 -141 -117s53 -90 104 -90c24 0 47 7 64 22v96
l89 33c40 -20 79 -49 79 -110c0 -40 -16 -66 -42 -92z" />
    <glyph glyph-name="uni0926094D0918" horiz-adv-x="704" 
d="M304 -61c40 0 77 46 88 113c-26 4 -51 10 -75 20c-50 -42 -54 -74 -54 -95c0 -19 13 -38 41 -38zM178 72c14 25 33 47 50 65c-14 17 -27 38 -36 62c-50 -16 -77 -44 -77 -77c0 -28 16 -51 52 -51c4 0 7 1 11 1zM603 112l147 -174l-158 -39l-81 154h-4
c-22 -106 -89 -200 -203 -200c-92 0 -153 64 -153 134v7h-10c-95 0 -141 57 -141 123c0 91 72 157 178 180c6 95 57 154 177 183l86 21v61h-471v109h764v-109h-149v-158l-135 -34c-106 -27 -141 -59 -141 -117c0 -59 55 -92 106 -92c23 0 46 6 62 21v99l89 33
c40 -20 79 -49 79 -110c0 -40 -16 -66 -42 -92z" />
    <glyph glyph-name="uni0926094D0926" horiz-adv-x="523" 
d="M571 -110l-148 -29l-45 124c-29 -8 -60 -12 -92 -12c-145 0 -210 69 -210 151c0 57 35 93 76 116v4c-52 14 -106 58 -106 132c0 72 55 141 196 141h34v45h-306v109h583v-109h-137v-150h-131c-75 0 -99 -19 -99 -48c0 -26 22 -47 76 -47c32 0 76 7 94 11l35 -105
c-82 -10 -176 -31 -176 -92c0 -31 24 -52 77 -52c26 0 49 4 69 11v76l97 25c20 -18 43 -44 43 -87c0 -26 -12 -50 -32 -69z" />
    <glyph glyph-name="uni0926094D0927" horiz-adv-x="701" 
d="M508 55h-4c-22 -106 -90 -202 -204 -202c-102 0 -142 60 -142 110c0 9 1 17 2 21c-6 -1 -31 -4 -38 -4c-89 0 -123 50 -123 109c0 81 53 113 53 198l105 -55c0 -51 -44 -90 -44 -132c0 -22 12 -38 40 -38c32 0 61 39 77 68c-31 37 -54 83 -54 150c0 105 49 169 176 200
l86 21v61h-468v109h761v-109h-149v-158l-135 -34c-106 -27 -141 -59 -141 -117c0 -59 56 -92 107 -92c23 0 44 6 61 21v99l89 33c40 -20 79 -49 79 -110c0 -40 -16 -66 -42 -92l147 -174l-158 -39zM301 -61c40 0 77 46 88 113c-24 3 -55 10 -77 21c-45 -42 -54 -68 -54 -94
c0 -20 14 -40 43 -40z" />
    <glyph glyph-name="uni0926094D0928" horiz-adv-x="1109" 
d="M358 -152l107 43l184 -197v-4h-183zM1139 671v-109h-105v-562h-141v308h-150v-110l-66 -32c-60 27 -112 86 -112 194l97 69h231v133h-448v-158l-135 -34c-106 -27 -141 -59 -141 -117c0 -60 57 -93 110 -90c22 1 42 8 58 22v96l89 33c40 -20 79 -49 79 -110
c0 -40 -16 -66 -42 -92l128 -151l-158 -39l-65 130c-24 -6 -48 -9 -72 -9c-134 0 -262 88 -262 237c0 105 54 169 181 200l86 21v61h-331v109h1169z" />
    <glyph glyph-name="uni0926094D092C" horiz-adv-x="601" 
d="M292 100l56 -90c19 21 33 51 38 87c-14 1 -43 4 -74 4c-7 0 -14 0 -20 -1zM299 -22l-66 108c-26 -13 -37 -33 -37 -56c0 -30 17 -57 66 -57c13 0 25 2 37 5zM482 146l154 -178l-148 -52l-35 59h-4c-29 -50 -98 -103 -199 -103c-111 0 -180 66 -180 154c0 61 36 96 64 112
v4c-52 31 -81 85 -81 168c0 105 54 159 181 190l86 21v41h-350v109h661v-109h-167v-138l-135 -34c-106 -27 -141 -49 -141 -107c0 -55 48 -84 97 -84c26 0 54 7 71 20v96l89 33c40 -20 79 -49 79 -110c0 -40 -16 -66 -42 -92z" />
    <glyph glyph-name="uni0926094D092D" horiz-adv-x="783" 
d="M668 404l-135 -34c-106 -27 -141 -59 -141 -117s53 -90 104 -90c24 0 47 7 64 22v96l89 33c40 -20 79 -49 79 -110c0 -40 -16 -66 -42 -92l128 -151l-158 -39l-65 130c-24 -6 -49 -9 -73 -9c-9 0 -17 0 -26 1l-168 -86l39 -76l-105 -55c-68 9 -114 57 -134 97l39 76
l-37 70c-11 20 -22 27 -38 27c-12 0 -35 -6 -61 -32l-58 91c45 42 92 60 145 60c42 0 89 -16 123 -81l39 -74l71 37c-54 41 -90 103 -90 182c0 105 54 169 181 200l86 21v61h-554v109h844v-109h-146v-158z" />
    <glyph glyph-name="uni0926094D092E" horiz-adv-x="749" 
d="M400 317v-102h134v347h-133v-152h-207c-46 0 -61 -21 -61 -47c0 -27 19 -48 64 -48c33 0 65 8 102 46zM285 247h-4c-19 -19 -57 -35 -110 -35c-104 0 -167 58 -167 152s77 145 165 145h93v53h-292v109h809v-109h-105v-562h-140v101h-138v-72h-109c-41 26 -70 86 -70 129
l68 54v35z" />
    <glyph glyph-name="uni0926094D092F" horiz-adv-x="678" 
d="M113 305v4c-40 19 -67 58 -67 103c0 67 55 103 123 103h49v47h-248v109h739v-109h-106v-562h-140v111h-4c-42 -46 -113 -71 -192 -71c-145 0 -215 76 -215 162c0 47 24 83 61 103zM281 152c109 0 182 64 182 169v241h-110v-144h-132c-23 0 -34 -13 -34 -29s11 -35 34 -46
c14 1 29 2 44 2h70v-103h-90c-36 0 -51 -14 -51 -39c0 -19 12 -51 87 -51z" />
    <glyph glyph-name="uni0926094D0935" horiz-adv-x="577" 
d="M372 96c-26 2 -59 3 -70 3c-79 0 -112 -28 -112 -69c0 -29 18 -54 65 -54c57 0 106 37 117 120zM443 -25h-4c-29 -50 -98 -103 -199 -103c-111 0 -180 66 -180 154c0 61 36 96 64 112v4c-52 31 -81 85 -81 168c0 105 54 159 181 190l86 21v41h-340v109h637v-109h-153
v-138l-135 -34c-106 -27 -141 -49 -141 -107c0 -55 48 -84 97 -84c26 0 54 7 71 20v96l89 33c40 -20 79 -49 79 -110c0 -40 -16 -66 -42 -92l154 -178l-148 -52z" />
    <glyph glyph-name="uni0927094D0928" horiz-adv-x="954" 
d="M568 225c-105 -91 -197 -124 -313 -124c-125 0 -204 67 -204 160c0 80 55 116 100 126v4c-60 5 -105 39 -105 99c0 32 15 55 34 68v4h-110v109h283l19 -102c-58 -9 -81 -38 -81 -69c0 -34 27 -57 78 -57h75v-108h-63c-59 0 -86 -24 -86 -62c0 -30 20 -62 89 -62
c53 0 95 17 127 42c-13 28 -21 62 -21 107l97 69h231v133h-335v109h581v-109h-105v-562h-141v308h-150v-83z" />
    <glyph glyph-name="uni0927094D092E" horiz-adv-x="1009" 
d="M795 398v164h-141v-164h141zM1039 671v-109h-105v-562h-139v275h-146v-107h-129l-18 15c-43 -39 -119 -82 -247 -82c-125 0 -204 67 -204 160c0 80 55 116 100 126v4c-60 5 -105 39 -105 99c0 32 15 55 34 68v4h-110v109h283l19 -102c-58 -9 -81 -38 -81 -69
c0 -34 27 -57 78 -57h75v-108h-63c-59 0 -86 -24 -86 -62c0 -30 20 -62 89 -62c75 0 126 34 162 76c-5 19 -7 37 -7 52l77 57v166h-167v109h690z" />
    <glyph glyph-name="uni0927094D092F" horiz-adv-x="1027" 
d="M811 345v217h-150v-4c33 -28 43 -67 43 -98c0 -72 -57 -122 -122 -134c8 -57 46 -96 111 -96c78 0 118 47 118 115zM1057 671v-109h-105v-562h-141v159h-4c-26 -27 -74 -47 -135 -47c-68 0 -127 25 -170 71c-43 -39 -120 -82 -247 -82c-125 0 -204 67 -204 160
c0 80 55 116 100 126v4c-60 5 -105 39 -105 99c0 32 15 55 34 68v4h-110v109h283l19 -102c-58 -9 -81 -38 -81 -69c0 -34 27 -57 78 -57h75v-108h-63c-59 0 -86 -24 -86 -62c0 -30 20 -62 89 -62c74 0 125 34 161 75c-8 27 -13 56 -14 88c77 15 133 42 133 105
c0 20 -10 59 -29 83h-186v109h708z" />
    <glyph glyph-name="uni0927094D0935" horiz-adv-x="975" 
d="M1005 671v-109h-105v-562h-141v133h-4c-20 -19 -60 -42 -123 -42c-65 0 -122 26 -159 70c-45 -32 -115 -60 -218 -60c-125 0 -204 67 -204 160c0 80 55 116 100 126v4c-60 5 -105 39 -105 99c0 32 15 55 34 68v4h-110v109h283l19 -102c-58 -9 -81 -38 -81 -69
c0 -34 27 -57 78 -57h75v-108h-63c-59 0 -86 -24 -86 -62c0 -30 20 -62 89 -62c65 0 111 25 146 59c-1 6 -1 13 -1 19c0 145 119 220 255 198l10 -122c-53 18 -120 -5 -120 -76c0 -50 34 -79 83 -79c68 0 102 54 102 117v235h-410v109h656z" />
    <glyph glyph-name="uni0928094D0915" horiz-adv-x="1095" 
d="M1125 562h-358v-115h4c22 21 60 40 109 40c104 0 187 -75 187 -191c0 -140 -112 -209 -230 -198l-22 121c66 -14 113 19 113 79c0 44 -31 74 -75 74c-52 0 -86 -40 -86 -91v-281h-140v140h-4c-18 -17 -54 -38 -109 -38c-104 0 -189 76 -189 192v14h-137v-110l-66 -32
c-60 27 -112 86 -112 194l97 69h268c44 47 112 69 182 62l22 -121c-66 14 -115 -18 -115 -78c0 -44 34 -75 79 -75c52 0 84 40 84 91v254h-657v109h1155v-109z" />
    <glyph glyph-name="uni0928094D091A" horiz-adv-x="928" 
d="M958 671v-109h-105v-562h-141v137h-4c-21 -25 -70 -68 -170 -68c-136 0 -201 83 -201 169c0 60 24 88 47 107v4h-196v-110l-66 -32c-60 27 -112 86 -112 194l97 69h540v-119h-60c-70 0 -107 -32 -107 -86c0 -44 30 -77 92 -77c84 0 140 62 140 172v202h-742v109h988z" />
    <glyph glyph-name="uni0928094D091B" horiz-adv-x="996" 
d="M742 493v69h-163c-60 0 -86 -38 -86 -81c0 -42 26 -74 78 -74h33v-114c-6 0 -12 0 -17 -1c-58 -5 -78 -36 -78 -74c0 -47 42 -84 123 -84c115 0 206 87 206 188c0 47 -20 66 -46 66c-20 0 -35 -14 -35 -35c0 -25 17 -41 44 -50l-84 -78c-39 14 -90 55 -90 130
c0 65 45 120 115 138zM1026 562h-152v-82c54 -27 88 -81 88 -160c0 -147 -129 -303 -343 -303c-161 0 -254 92 -254 195c0 37 9 65 23 86h-200v-110l-66 -32c-60 27 -112 86 -112 194l97 69h251c-7 16 -11 34 -11 53c0 42 17 69 35 86v4h-412v109h1056v-109z" />
    <glyph glyph-name="uni0928094D091F" horiz-adv-x="836" 
d="M735 394l-145 -37c-106 -27 -121 -64 -121 -114c0 -45 33 -97 119 -97c64 0 118 20 176 81l68 -113c-71 -68 -150 -89 -227 -89c-162 0 -271 114 -271 245c0 13 1 26 3 38h-149v-110l-66 -32c-60 27 -112 86 -112 194l97 69h310c26 17 58 30 98 41l76 21v71h-621v109h896
v-109h-131v-168z" />
    </font>
</defs>
</svg>
